<svg width="54" height="40" viewBox="0 0 54 40" fill="none" xmlns="http://www.w3.org/2000/svg">
<path d="M22.8168 0H30.5519L29.4912 2.12143H27.3697C26.6502 2.12143 25.7479 2.78863 25.3317 3.50779L20.6518 11.6679H14.9947L20.7551 1.30751C21.1695 0.588344 22.0973 0 22.8168 0Z" fill="#82888E"/>
<path d="M37.6983 13.3859L33.791 20.1522L32.5209 17.9519L33.5035 16.2502C33.8634 15.6272 33.8178 14.5297 33.4027 13.8098L28.6822 5.63241L31.6062 0.567841L37.5968 10.9452C38.0119 11.6647 38.0582 12.7626 37.6983 13.3859Z" fill="#1D1C1A"/>
<path d="M18.7164 19.5999L14.9947 12.7286H17.4697L18.3335 14.5357C18.6934 15.1584 19.4663 15.9108 20.2983 15.9108H30.1983L32.6733 20.5072H21.0054C20.1735 20.5072 19.0763 20.2226 18.7164 19.5999Z" fill="#1D1C1A"/>
<path d="M10.9343 39.9958C10.6571 39.9958 10.405 39.959 10.1752 39.8865C9.94675 39.8133 9.7491 39.7027 9.58469 39.5549C9.41957 39.4046 9.29335 39.219 9.20637 38.9976C9.11868 38.776 9.0752 38.5214 9.0752 38.2336C9.0752 37.961 9.11869 37.7163 9.20708 37.5003C9.29618 37.2849 9.42205 37.1004 9.58681 36.9473C9.74698 36.7988 9.94322 36.6842 10.1752 36.6032C10.4085 36.5226 10.662 36.483 10.9392 36.483C11.0704 36.483 11.1966 36.4912 11.3176 36.5081C11.4388 36.5244 11.5537 36.5481 11.6637 36.5764C11.7524 36.5987 11.8497 36.6305 11.9572 36.6708C12.0646 36.7107 12.1523 36.745 12.2181 36.774V37.3175H12.1732C12.1092 37.2673 12.042 37.2206 11.9734 37.1757C11.9038 37.1308 11.8058 37.0823 11.68 37.0314C11.575 36.9858 11.4537 36.948 11.3179 36.9176C11.1818 36.8879 11.0343 36.8727 10.877 36.8727C10.5001 36.8727 10.1964 36.9954 9.96408 37.2411C9.73213 37.4865 9.61616 37.8125 9.61616 38.2208C9.61616 38.4482 9.64728 38.6465 9.7088 38.8166C9.76961 38.986 9.85836 39.1306 9.97327 39.249C10.0854 39.3654 10.2204 39.4545 10.3788 39.516C10.5372 39.5782 10.7161 39.6079 10.9138 39.6079C11.0609 39.6079 11.2069 39.5991 11.3515 39.581C11.4979 39.5623 11.6202 39.5347 11.7203 39.4987V38.6232H10.8158V38.2283H12.2347V39.7058C12.1682 39.7313 12.0799 39.7638 11.9674 39.8027C11.8564 39.8427 11.7528 39.8738 11.6563 39.8968C11.529 39.9307 11.413 39.9551 11.3105 39.9721C11.2065 39.9876 11.0817 39.9958 10.9343 39.9958Z" fill="#1D1C1A"/>
<path d="M20.4874 39.9297H19.8121L18.5732 38.5836H17.9788V39.9297H17.4591L17.4336 36.418L18.4681 36.5435C18.692 36.5435 18.879 36.5544 19.0317 36.5764C19.1831 36.5972 19.3263 36.6464 19.4638 36.7238C19.6003 36.7998 19.7071 36.8971 19.7873 37.0173C19.8672 37.1368 19.9072 37.2856 19.9072 37.4631C19.9072 37.7113 19.8347 37.9192 19.6887 38.0858C19.5437 38.253 19.3464 38.3761 19.0954 38.4567L20.4874 39.9297ZM19.3634 37.4967C19.3634 37.3988 19.3432 37.3118 19.3019 37.2351C19.2619 37.158 19.1997 37.0954 19.1162 37.0466C19.0423 37.0049 18.9561 36.9752 18.8588 36.9575C18.7602 36.9402 18.6389 36.9317 18.494 36.9317H17.9784V38.2088H18.4353C18.5841 38.2088 18.7192 38.1975 18.8376 38.1749C18.9561 38.1526 19.0586 38.1052 19.1424 38.0341C19.217 37.9705 19.2732 37.8941 19.3082 37.8061C19.3443 37.7184 19.3634 37.6152 19.3634 37.4967Z" fill="#1D1C1A"/>
<path d="M28.2006 36.9331C28.3491 37.082 28.4651 37.2658 28.5468 37.4857C28.6295 37.706 28.6705 37.956 28.6705 38.2385C28.6705 38.5129 28.6313 38.7607 28.551 38.9821C28.4697 39.2034 28.3534 39.389 28.2017 39.5389C28.0415 39.6963 27.8552 39.8122 27.6437 39.8883C27.4302 39.9636 27.1954 40 26.9398 40C26.6767 40 26.4381 39.9615 26.2256 39.8847C26.0145 39.8069 25.8324 39.692 25.68 39.5386C25.5301 39.3887 25.4138 39.2034 25.3339 38.9838C25.2529 38.7646 25.2126 38.5153 25.2126 38.2385C25.2126 37.9535 25.2525 37.7032 25.3349 37.4886C25.4159 37.2729 25.5326 37.088 25.6821 36.9335C25.8331 36.7832 26.0141 36.6693 26.2266 36.5912C26.4402 36.5127 26.6774 36.4738 26.9394 36.4738C27.2067 36.4738 27.4472 36.5141 27.6604 36.5947C27.8736 36.6754 28.0535 36.7881 28.2006 36.9331ZM28.1296 38.2381C28.1296 38.0136 28.102 37.8153 28.0461 37.6424C27.9902 37.4695 27.9107 37.3256 27.8099 37.2121C27.7063 37.0954 27.5819 37.0081 27.4348 36.9494C27.2891 36.8914 27.124 36.862 26.943 36.862C26.7531 36.862 26.588 36.8907 26.4473 36.9476C26.3062 37.0042 26.1814 37.0926 26.0735 37.2121C25.9699 37.328 25.89 37.472 25.8352 37.6466C25.7804 37.8202 25.7528 38.0175 25.7528 38.2371C25.7528 38.6819 25.8603 39.0213 26.0764 39.2571C26.291 39.493 26.5795 39.6107 26.943 39.6107C27.305 39.6107 27.5935 39.4933 27.8085 39.2571C28.0217 39.022 28.1296 38.6822 28.1296 38.2381Z" fill="#1D1C1A"/>
<path d="M35.1108 40C34.8817 40 34.6812 39.9745 34.5094 39.9211C34.3382 39.8699 34.1926 39.7917 34.0709 39.6888C33.9348 39.5704 33.839 39.4297 33.7831 39.2645C33.7266 39.1001 33.6976 38.8972 33.6976 38.6568V36.5435H34.2191V38.6568C34.2191 38.812 34.2301 38.9442 34.253 39.051C34.2764 39.1578 34.3199 39.2539 34.3863 39.3384C34.4567 39.4304 34.5529 39.4986 34.671 39.5456C34.7926 39.5927 34.939 39.616 35.1122 39.616C35.2745 39.616 35.4195 39.5927 35.546 39.5456C35.6716 39.4986 35.7699 39.4304 35.8395 39.3384C35.9046 39.2536 35.9495 39.1571 35.9728 39.0528C35.9951 38.9477 36.0082 38.8198 36.0082 38.6681V36.5442H36.5283V38.6571C36.5283 38.8919 36.5007 39.0931 36.4455 39.2617C36.3911 39.4304 36.2928 39.5718 36.1563 39.6892C36.0311 39.7935 35.8862 39.8723 35.7218 39.9233C35.5528 39.9752 35.3505 40 35.1108 40Z" fill="#1D1C1A"/>
<path d="M44.3122 37.5656C44.3122 37.7127 44.2825 37.8524 44.221 37.9825C44.1609 38.114 44.0774 38.2254 43.9696 38.3173C43.8363 38.4329 43.6782 38.5199 43.4951 38.5793C43.3126 38.638 43.0835 38.6677 42.8046 38.6677H42.364V39.9293H41.8432V36.5435H42.8258C43.057 36.5435 43.2532 36.5608 43.4162 36.5944C43.5792 36.6276 43.7228 36.6813 43.8472 36.756C43.9922 36.8419 44.1061 36.9518 44.1884 37.0844C44.2705 37.2174 44.3122 37.3768 44.3122 37.5656ZM43.7712 37.5766C43.7712 37.4592 43.7472 37.3584 43.7009 37.2722C43.6553 37.1855 43.5842 37.1155 43.4901 37.06C43.4081 37.0137 43.3112 36.9798 43.2016 36.9607C43.0931 36.9412 42.9573 36.9313 42.7936 36.9313H42.364V38.2837H42.7176C42.9276 38.2837 43.098 38.2685 43.2271 38.2388C43.3568 38.2091 43.464 38.1568 43.5502 38.0811C43.6277 38.0133 43.6835 37.939 43.7175 37.8591C43.7539 37.7785 43.7712 37.6844 43.7712 37.5766Z" fill="#1D1C1A"/>
<path d="M2.6041 30.0537H3.66481V30.4072C3.53965 30.4928 3.54707 30.7237 3.38337 30.7877C3.19103 30.8626 2.99727 30.9008 2.80634 30.9008C2.42696 30.9008 2.12854 30.7742 1.89589 30.5122C1.66147 30.2495 1.54302 29.8355 1.54302 29.2836C1.54302 28.7769 1.659 28.3958 1.88917 28.1493C2.11758 27.9036 2.42094 27.7844 2.81801 27.7844C3.07399 27.7844 3.27871 27.8431 3.44489 27.9644C3.60824 28.0839 3.71714 28.2437 3.77689 28.4534L3.82427 28.6192L5.20285 28.3615L5.16148 28.1712C5.05046 27.6617 4.79589 27.2551 4.4059 26.9642C4.02015 26.6763 3.48555 26.5307 2.81765 26.5307C2.30462 26.5303 1.86619 26.6222 1.51651 26.8036C1.05686 27.0398 0.702229 27.3842 0.463568 27.8269C0.227382 28.2635 0.108582 28.7677 0.108582 29.3257C0.108582 29.8387 0.215007 30.3203 0.424675 30.7583C0.639647 31.2063 0.964227 31.5556 1.39134 31.7968C1.81315 32.0344 2.31205 32.1553 2.8721 32.1553C3.31053 32.1553 3.75002 32.0715 4.17714 31.906C4.60673 31.7395 4.49253 31.6925 4.72482 31.4683L5.07839 31.1147V28.9933H2.60339V30.054H2.6041V30.0537Z" fill="#1D1C1A"/>
<path d="M12.3019 26.5303C11.8649 26.5303 11.4724 26.6031 11.1355 26.7456C10.8745 26.8549 10.6334 27.0221 10.4163 27.2456C10.2027 27.4659 10.0302 27.718 9.90716 27.9962C9.74204 28.3692 9.6593 28.8331 9.6593 29.3737C9.6593 30.2283 9.90185 30.9132 10.3802 31.4075C10.8607 31.9032 11.5113 32.1546 12.316 32.1546C13.1116 32.1546 13.7572 31.9018 14.2381 31.4032C14.7164 30.9065 14.9586 30.2152 14.9586 29.3493C14.9586 28.4767 14.715 27.7816 14.2328 27.2831C13.7484 26.7842 13.0992 26.5307 12.3019 26.5303ZM13.5214 29.3256C13.5214 29.8631 13.4054 30.2654 13.1766 30.5232C12.9507 30.7774 12.6671 30.9008 12.3125 30.9008C11.9579 30.9008 11.6732 30.7756 11.4434 30.519C11.2111 30.2601 11.0937 29.8631 11.0937 29.3387C11.0937 28.8062 11.2072 28.4078 11.4335 28.155C11.6559 27.9053 11.9441 27.7841 12.3125 27.7841C12.6823 27.7841 12.968 27.9039 13.1865 28.1493C13.4086 28.3996 13.5214 28.7942 13.5214 29.3256Z" fill="#1D1C1A"/>
<path d="M19.2015 26.5179L17.0801 32.1751H18.576L18.9943 31.0231H20.7601L21.2034 32.1751H22.7273L20.6158 26.5179H19.2015ZM20.6158 30.0536H19.2015L19.9087 28.2858L20.6158 30.0536Z" fill="#1D1C1A"/>
<path d="M35.8194 26.5179L33.698 32.1751H35.1936L35.6122 31.0231H37.378L37.8214 32.1751H39.3456L37.2337 26.5179H35.8194ZM37.2337 30.0536H35.8194L36.5266 28.2858L37.2337 30.0536Z" fill="#1D1C1A"/>
<path d="M24.5051 26.5179H23.0908V32.1751H26.6265V30.7608H24.5051V26.5179Z" fill="#1D1C1A"/>
<path d="M28.7479 26.5179H27.3336V32.1751H30.8693V30.7608H28.7479V26.5179Z" fill="#1D1C1A"/>
<path d="M42.8908 29.3465L41.3549 26.5179H40.0623V32.1751H41.4765V29.3465L43.2444 32.1751H44.3051V26.5179H42.8908V29.3465Z" fill="#1D1C1A"/>
<path d="M8.9479 29.7001V28.6394H5.76575V32.1751H8.9479V30.7608H7.18004V29.7001H8.9479Z" fill="#1D1C1A"/>
<path d="M53.1444 30.7608H51.3766V29.7001H53.1444V28.6393H51.3766V27.9322H53.1444V26.5179H49.9623V32.1751H53.1444V30.7608Z" fill="#1D1C1A"/>
<path d="M32.988 32.1588V26.5466H31.5839V32.1751H32.9827H32.988H32.9908V32.1535L32.988 32.1588Z" fill="#1D1C1A"/>
<path d="M53.1444 33.943H0.108582V34.2965H53.1444V33.943Z" fill="#1D1C1A"/>
<path d="M8.9479 26.5179H5.76575V27.9322H8.9479V26.5179Z" fill="#82888E"/>
<path d="M49.2551 30.4072C49.171 30.3351 49.0734 30.368 49.0002 30.4528C48.9044 30.5646 48.7959 30.6593 48.6778 30.736C48.6555 30.7505 48.6314 30.7647 48.6074 30.7781L48.6088 30.7788L48.6074 30.7792C48.5851 30.7915 48.5597 30.8046 48.5335 30.8174V30.8177L48.5328 30.8181C48.4211 30.8725 48.3009 30.9093 48.1785 30.9273C48.1559 30.9301 48.128 30.9337 48.0983 30.9351C48.0664 30.9372 48.0396 30.9393 48.0187 30.9397L47.9628 30.9393V30.9397L47.9621 30.9393C47.6962 30.9425 47.4537 30.8867 47.2334 30.7717V30.7721C47.1885 30.7491 47.1422 30.7219 47.0959 30.6915C47.0503 30.6607 47.0054 30.6278 46.9647 30.5943C46.9421 30.5762 46.917 30.5547 46.8894 30.5292C46.7671 30.4185 46.6719 30.292 46.6009 30.1509L46.5952 30.1389C46.58 30.1092 46.5676 30.0809 46.5574 30.0554L46.5546 30.0494C46.4793 29.8602 46.44 29.6446 46.4393 29.4034H46.44V29.3995H46.4393C46.4393 29.0895 46.5118 28.8098 46.6546 28.5623V28.5619C46.6787 28.5177 46.7112 28.47 46.7466 28.4205C46.7805 28.3745 46.8148 28.3317 46.8501 28.2929L46.8583 28.2826C46.9958 28.1284 47.1525 28.0139 47.3264 27.9379C47.5018 27.8618 47.7023 27.824 47.925 27.824C48.0205 27.824 48.1163 27.835 48.2089 27.8548C48.3037 27.876 48.3995 27.9082 48.4957 27.9506C48.6276 28.0096 48.7499 28.0885 48.8609 28.1864L48.8698 28.1953C48.8913 28.2133 48.9125 28.2345 48.9362 28.2582C48.9596 28.2819 48.9818 28.3045 49.0013 28.325C49.0381 28.3685 49.0932 28.3954 49.1547 28.3954C49.2665 28.3954 49.2541 28.3961 49.2541 28.2847V26.8704C49.2583 26.7934 49.3206 26.8909 49.2467 26.8531C49.0932 26.7746 48.9408 26.7099 48.7874 26.6601L48.7845 26.6586L48.699 26.6325V26.6328L48.6926 26.6311L48.6063 26.6067L48.6021 26.6063L48.5979 26.6049C48.3733 26.5466 48.1421 26.5172 47.9017 26.5172V26.5183H47.8988C47.6998 26.5207 47.5085 26.5374 47.3271 26.5664V26.5671C47.1433 26.5968 46.9679 26.6395 46.8024 26.6965C46.632 26.7545 46.4704 26.8294 46.3198 26.9206C46.1678 27.0119 46.0263 27.1201 45.8937 27.2445C45.7488 27.3813 45.6204 27.5316 45.509 27.6928C45.3984 27.8548 45.3054 28.0284 45.2287 28.2133C45.1555 28.3961 45.0996 28.5867 45.0635 28.784C45.0282 28.9738 45.0112 29.1708 45.0119 29.3716V29.3854C45.0119 29.5898 45.03 29.7892 45.0643 29.9812C45.0982 30.1724 45.1491 30.3531 45.2184 30.5221C45.2881 30.6947 45.3807 30.8616 45.4924 31.0214H45.4931C45.6063 31.1815 45.7396 31.335 45.893 31.4792C46.0921 31.6712 46.3046 31.8254 46.5291 31.941C46.5712 31.9622 46.6161 31.9841 46.6638 32.0043C46.7123 32.0262 46.7586 32.045 46.7999 32.0602L46.8035 32.0612C46.9658 32.1199 47.1369 32.1645 47.32 32.1956C47.4933 32.2253 47.68 32.2412 47.8752 32.2447L47.8953 32.2458C48.059 32.2458 48.2206 32.2338 48.3786 32.209L48.3974 32.2065L48.4741 32.1928L48.4851 32.191L48.4932 32.1896L48.5643 32.1744L48.5837 32.1701L48.5933 32.168C48.7527 32.1312 48.9097 32.0789 49.0628 32.0131C49.0911 32.0008 49.1222 31.9866 49.1519 31.9721L49.1547 31.9707L49.2205 31.9392L49.2385 31.9315C49.3096 31.8979 49.2551 30.7608 49.2551 30.4072Z" fill="#1D1C1A"/>
</svg>
