<svg width="101" height="25" viewBox="0 0 101 25" fill="none" xmlns="http://www.w3.org/2000/svg">
<path fill-rule="evenodd" clip-rule="evenodd" d="M37.5305 0.111607C37.5305 0.180246 36.9725 0.223214 36.0797 0.223214C34.7032 0.223214 34.6288 0.23471 34.6288 0.446429C34.6288 0.569196 34.679 0.669643 34.7404 0.669643C34.8139 0.669643 34.852 3.90625 34.852 10.1562C34.852 16.4062 34.8139 19.6429 34.7404 19.6429C34.679 19.6429 34.6288 19.7433 34.6288 19.8661C34.6288 19.9888 34.5785 20.0893 34.5172 20.0893C34.4558 20.0893 34.4055 20.1395 34.4055 20.2009C34.4055 20.2712 35.1496 20.3125 36.4145 20.3125C37.6793 20.3125 38.4234 20.2712 38.4234 20.2009C38.4234 20.1395 38.3732 20.0893 38.3118 20.0893C38.2504 20.0893 38.2002 19.9888 38.2002 19.8661C38.2002 19.7433 38.15 19.6429 38.0886 19.6429C38.0151 19.6429 37.977 16.6083 37.977 10.7622C37.977 3.21429 38.0009 1.85748 38.1365 1.72199C38.2524 1.60592 38.5871 1.5625 39.3641 1.5625C40.0019 1.5625 40.4323 1.51752 40.4323 1.45089C40.4323 1.38951 40.5328 1.33929 40.6555 1.33929C40.7783 1.33929 40.8788 1.38951 40.8788 1.45089C40.8788 1.51708 41.288 1.5625 41.8832 1.5625C42.4784 1.5625 42.8877 1.60792 42.8877 1.67411C42.8877 1.73549 43.0384 1.78571 43.2225 1.78571C43.4067 1.78571 43.5573 1.83594 43.5573 1.89732C43.5573 1.95871 43.6467 2.00893 43.7559 2.00893C43.8651 2.00893 44.0269 2.10938 44.1154 2.23214C44.2039 2.35491 44.3428 2.45536 44.4241 2.45536C44.6157 2.45536 45.1198 2.95949 45.1198 3.15112C45.1198 3.23237 45.2203 3.37132 45.343 3.45982C45.4658 3.54833 45.5663 3.71004 45.5663 3.81931C45.5663 3.92846 45.6165 4.01786 45.6779 4.01786C45.7393 4.01786 45.7895 4.16853 45.7895 4.35268C45.7895 4.53683 45.8397 4.6875 45.9011 4.6875C45.9648 4.6875 46.0127 5.02232 46.0127 5.46875C46.0127 5.91518 45.9648 6.25 45.9011 6.25C45.8397 6.25 45.7895 6.45089 45.7895 6.69643C45.7895 6.94196 45.7393 7.14286 45.6779 7.14286C45.6165 7.14286 45.5663 7.21908 45.5663 7.31239C45.5663 7.53304 44.1707 8.92857 43.9501 8.92857C43.8568 8.92857 43.7805 8.97879 43.7805 9.04018C43.7805 9.10156 43.6801 9.15179 43.5573 9.15179C43.4346 9.15179 43.3341 9.20201 43.3341 9.26339C43.3341 9.32478 43.083 9.375 42.7761 9.375C42.4692 9.375 42.218 9.42522 42.218 9.48661C42.218 9.55167 41.8461 9.59821 41.3252 9.59821C40.8043 9.59821 40.4323 9.55167 40.4323 9.48661C40.4323 9.42455 40.1347 9.375 39.7627 9.375C39.0531 9.375 38.9544 9.449 39.3163 9.70982C39.439 9.79833 39.5395 9.949 39.5395 10.0446C39.5395 10.1403 39.6399 10.291 39.7627 10.3795C39.8855 10.468 39.9859 10.6096 39.9859 10.6942C39.9859 10.7787 40.1366 10.9887 40.3207 11.1607C40.5049 11.3327 40.6555 11.5427 40.6555 11.6272C40.6555 11.7118 40.756 11.8535 40.8788 11.942C41.0015 12.0305 41.102 12.1721 41.102 12.2567C41.102 12.3412 41.2526 12.5512 41.4368 12.7232C41.6209 12.8952 41.7716 13.1052 41.7716 13.1897C41.7716 13.2743 41.8721 13.416 41.9948 13.5045C42.1176 13.593 42.218 13.7436 42.218 13.8393C42.218 13.9349 42.3185 14.0856 42.4413 14.1741C42.564 14.2626 42.6645 14.4133 42.6645 14.5089C42.6645 14.6046 42.7649 14.7552 42.8877 14.8438C43.0105 14.9323 43.1109 15.0739 43.1109 15.1585C43.1109 15.243 43.2616 15.453 43.4457 15.625C43.6299 15.797 43.7805 16.007 43.7805 16.0915C43.7805 16.1761 43.881 16.3177 44.0038 16.4062C44.1265 16.4948 44.227 16.6454 44.227 16.7411C44.227 16.8367 44.3274 16.9874 44.4502 17.0759C44.573 17.1644 44.6734 17.306 44.6734 17.3906C44.6734 17.4751 44.8241 17.6852 45.0082 17.8571C45.1924 18.0291 45.343 18.2392 45.343 18.3237C45.343 18.4083 45.4435 18.5499 45.5663 18.6384C45.689 18.7269 45.7895 18.8652 45.7895 18.9458C45.7895 19.1492 46.5255 19.8661 46.7345 19.8661C46.8285 19.8661 46.9055 19.9163 46.9055 19.9777C46.9055 20.0391 47.0562 20.0893 47.2404 20.0893C47.4245 20.0893 47.5752 20.1395 47.5752 20.2009C47.5752 20.2623 47.8263 20.3125 48.1332 20.3125C48.4401 20.3125 48.6913 20.3627 48.6913 20.4241C48.6913 20.5962 50.6679 20.5693 50.7382 20.3962C50.781 20.2906 50.8225 20.2966 50.9088 20.4209C50.9715 20.5112 51.056 20.5519 51.0965 20.5114C51.137 20.471 50.763 20.035 50.2655 19.5429C49.7679 19.0507 49.3609 18.5816 49.3609 18.5004C49.3609 18.4192 49.2605 18.2805 49.1377 18.192C49.0149 18.1035 48.9145 17.9618 48.9145 17.8772C48.9145 17.7927 48.7638 17.5827 48.5797 17.4107C48.3955 17.2387 48.2448 17.0287 48.2448 16.9442C48.2448 16.8596 48.1444 16.718 48.0216 16.6295C47.8988 16.541 47.7984 16.3993 47.7984 16.3147C47.7984 16.2302 47.6477 16.0202 47.4636 15.8482C47.2794 15.6762 47.1288 15.4662 47.1288 15.3817C47.1288 15.2971 47.0283 15.1555 46.9055 15.067C46.7828 14.9785 46.6823 14.8368 46.6823 14.7522C46.6823 14.6677 46.5317 14.4577 46.3475 14.2857C46.1634 14.1137 46.0127 13.9037 46.0127 13.8192C46.0127 13.7346 45.9122 13.593 45.7895 13.5045C45.6667 13.416 45.5663 13.2743 45.5663 13.1897C45.5663 13.1052 45.4156 12.8952 45.2314 12.7232C45.0473 12.5512 44.8966 12.3412 44.8966 12.2567C44.8966 12.1721 44.7962 12.0305 44.6734 11.942C44.5506 11.8535 44.4502 11.7102 44.4502 11.6235C44.4502 11.5368 44.3443 11.374 44.2148 11.2617C44.003 11.078 43.9965 11.0404 44.151 10.8859C44.2454 10.7915 44.502 10.7143 44.7213 10.7143C44.9405 10.7143 45.1198 10.6641 45.1198 10.6027C45.1198 10.5413 45.2705 10.4911 45.4547 10.4911C45.6388 10.4911 45.7895 10.4408 45.7895 10.3795C45.7895 10.3181 45.8899 10.2679 46.0127 10.2679C46.1355 10.2679 46.2359 10.2176 46.2359 10.1562C46.2359 10.0949 46.3161 10.0446 46.4144 10.0446C46.5125 10.0446 46.7336 9.89397 46.9055 9.70982C47.0775 9.52567 47.2757 9.375 47.3461 9.375C47.5219 9.375 48.0216 8.86049 48.0216 8.67924C48.0216 8.59799 48.1221 8.45904 48.2448 8.37054C48.3676 8.28203 48.468 8.12031 48.468 8.01105C48.468 7.9019 48.5183 7.8125 48.5797 7.8125C48.641 7.8125 48.6913 7.66183 48.6913 7.47768C48.6913 7.29353 48.7415 7.14286 48.8029 7.14286C48.8643 7.14286 48.9145 6.89174 48.9145 6.58482C48.9145 6.2779 48.9647 6.02679 49.0261 6.02679C49.0875 6.02679 49.1377 5.77567 49.1377 5.46875C49.1377 5.16183 49.0875 4.91071 49.0261 4.91071C48.9647 4.91071 48.9145 4.6596 48.9145 4.35268C48.9145 4.04576 48.8643 3.79464 48.8029 3.79464C48.7415 3.79464 48.6913 3.65502 48.6913 3.48449C48.6913 3.30234 48.5991 3.10792 48.468 3.01339C48.3453 2.92489 48.2448 2.78694 48.2448 2.70681C48.2448 2.51719 47.2901 1.5625 47.1005 1.5625C47.0204 1.5625 46.8824 1.46205 46.7939 1.33929C46.7054 1.21652 46.5437 1.11607 46.4344 1.11607C46.3253 1.11607 46.2359 1.06585 46.2359 1.00446C46.2359 0.94308 46.1355 0.892857 46.0127 0.892857C45.8899 0.892857 45.7895 0.842634 45.7895 0.78125C45.7895 0.719866 45.6388 0.669643 45.4547 0.669643C45.2705 0.669643 45.1198 0.61942 45.1198 0.558036C45.1198 0.496652 44.9189 0.446429 44.6734 0.446429C44.4279 0.446429 44.227 0.396205 44.227 0.334821C44.227 0.269754 43.855 0.223214 43.3341 0.223214C42.8132 0.223214 42.4413 0.176674 42.4413 0.111607C42.4413 0.040625 41.5484 0 39.9859 0C38.4234 0 37.5305 0.040625 37.5305 0.111607ZM0.923401 0.334821C0.923401 0.396205 0.973624 0.446429 1.03501 0.446429C1.09639 0.446429 1.14662 0.597098 1.14662 0.78125C1.14662 0.965402 1.19684 1.11607 1.25822 1.11607C1.33177 1.11607 1.36983 4.24107 1.36983 10.2679C1.36983 16.2946 1.33177 19.4196 1.25822 19.4196C1.19684 19.4196 1.14662 19.5201 1.14662 19.6429C1.14662 19.7656 1.09639 19.8661 1.03501 19.8661C0.973624 19.8661 0.923401 19.9665 0.923401 20.0893C0.923401 20.3038 0.997843 20.3125 2.82072 20.3125C4.6436 20.3125 4.71804 20.3038 4.71804 20.0893C4.71804 19.9665 4.66782 19.8661 4.60644 19.8661C4.53389 19.8661 4.49483 18.2664 4.49483 15.2902C4.49483 12.7734 4.52351 10.7143 4.55856 10.7143C4.68066 10.7143 4.94126 11.0342 4.94126 11.1839C4.94126 11.2669 5.0417 11.407 5.16447 11.4955C5.28724 11.584 5.38769 11.7257 5.38769 11.8103C5.38769 11.8948 5.53836 12.1048 5.72251 12.2768C5.90666 12.4488 6.05733 12.6588 6.05733 12.7433C6.05733 12.8279 6.15778 12.9695 6.28054 13.058C6.40331 13.1465 6.50376 13.2972 6.50376 13.3929C6.50376 13.4885 6.6042 13.6392 6.72697 13.7277C6.84974 13.8162 6.95019 13.9578 6.95019 14.0424C6.95019 14.1269 7.10086 14.3369 7.28501 14.5089C7.46916 14.6809 7.61983 14.891 7.61983 14.9754C7.61983 15.06 7.72028 15.2017 7.84304 15.2902C7.96581 15.3787 8.06626 15.5203 8.06626 15.6049C8.06626 15.6894 8.21693 15.8994 8.40108 16.0714C8.58523 16.2434 8.7359 16.4535 8.7359 16.5379C8.7359 16.6225 8.83635 16.7642 8.95912 16.8527C9.08188 16.9412 9.18233 17.0828 9.18233 17.1674C9.18233 17.2519 9.333 17.4619 9.51715 17.6339C9.7013 17.8059 9.85197 18.0068 9.85197 18.0804C9.85197 18.1539 10.0026 18.3548 10.1868 18.5268C10.3709 18.6988 10.5216 18.9088 10.5216 18.9933C10.5216 19.0779 10.6221 19.2195 10.7448 19.308C10.8676 19.3965 10.968 19.5336 10.968 19.6127C10.968 19.8004 13.9355 22.7679 14.1232 22.7679C14.2023 22.7679 14.3394 22.8683 14.4279 22.9911C14.5164 23.1138 14.6781 23.2143 14.7874 23.2143C14.8965 23.2143 14.9859 23.2645 14.9859 23.3259C14.9859 23.3873 15.0753 23.4375 15.1845 23.4375C15.2937 23.4375 15.4554 23.5379 15.5439 23.6607C15.6385 23.7917 15.8329 23.8839 16.015 23.8839C16.1856 23.8839 16.3252 23.9342 16.3252 23.9955C16.3252 24.0569 16.4256 24.1071 16.5484 24.1071C16.6712 24.1071 16.7716 24.1574 16.7716 24.2188C16.7716 24.2801 16.9223 24.3304 17.1064 24.3304C17.2906 24.3304 17.4413 24.3806 17.4413 24.442C17.4413 24.5033 17.6422 24.5536 17.8877 24.5536C18.1332 24.5536 18.3341 24.6038 18.3341 24.6652C18.3341 24.7272 18.6318 24.7768 19.0038 24.7768C19.3757 24.7768 19.6734 24.8263 19.6734 24.8884C19.6734 24.9566 20.1943 25 21.0127 25C21.8311 25 22.352 24.9566 22.352 24.8884C22.352 24.827 22.4524 24.7768 22.5752 24.7768C22.8396 24.7768 22.8552 24.706 22.6389 24.4898C22.5513 24.4021 22.3002 24.3304 22.0809 24.3304C21.8617 24.3304 21.6823 24.2801 21.6823 24.2188C21.6823 24.1574 21.4814 24.1071 21.2359 24.1071C20.9904 24.1071 20.7895 24.0569 20.7895 23.9955C20.7895 23.9342 20.6388 23.8839 20.4547 23.8839C20.2705 23.8839 20.1198 23.8337 20.1198 23.7723C20.1198 23.7109 20.0194 23.6607 19.8966 23.6607C19.7738 23.6607 19.6734 23.6105 19.6734 23.5491C19.6734 23.4877 19.573 23.4375 19.4502 23.4375C19.3274 23.4375 19.227 23.3873 19.227 23.3259C19.227 23.2645 19.1265 23.2143 19.0038 23.2143C18.881 23.2143 18.7805 23.1641 18.7805 23.1027C18.7805 23.0413 18.6801 22.9911 18.5573 22.9911C18.4346 22.9911 18.3341 22.9408 18.3341 22.8795C18.3341 22.8181 18.2539 22.7679 18.1557 22.7679C18.0576 22.7679 17.8365 22.6172 17.6645 22.433C17.4925 22.2489 17.2958 22.0982 17.2276 22.0982C17.0672 22.0982 14.9859 20.0191 14.9859 19.8587C14.9859 19.7917 14.785 19.544 14.5395 19.308C14.2939 19.0721 14.093 18.8109 14.093 18.7276C14.093 18.6442 13.9926 18.5037 13.8698 18.4152C13.7471 18.3267 13.6466 18.185 13.6466 18.1004C13.6466 18.016 13.4959 17.8059 13.3118 17.6339C13.1276 17.4619 12.977 17.2519 12.977 17.1674C12.977 17.0828 12.8765 16.9412 12.7538 16.8527C12.631 16.7642 12.5305 16.6135 12.5305 16.5179C12.5305 16.4222 12.4301 16.2715 12.3073 16.183C12.1846 16.0945 12.0841 15.9529 12.0841 15.8683C12.0841 15.7838 11.9334 15.5738 11.7493 15.4018C11.5651 15.2298 11.4145 15.0198 11.4145 14.9353C11.4145 14.8507 11.314 14.709 11.1913 14.6205C11.0685 14.532 10.968 14.3904 10.968 14.3058C10.968 14.2213 10.8174 14.0113 10.6332 13.8393C10.4491 13.6673 10.2984 13.4573 10.2984 13.3728C10.2984 13.2882 10.198 13.1465 10.0752 13.058C9.95242 12.9695 9.85197 12.8279 9.85197 12.7433C9.85197 12.6588 9.7013 12.4488 9.51715 12.2768C9.333 12.1048 9.18233 11.8948 9.18233 11.8103C9.18233 11.7257 9.08188 11.584 8.95912 11.4955C8.83635 11.407 8.7359 11.2654 8.7359 11.1808C8.7359 11.0963 8.58523 10.8863 8.40108 10.7143C8.21693 10.5423 8.06626 10.3424 8.06626 10.2701C8.06626 10.1979 8.26715 9.94576 8.51269 9.70982C8.75822 9.47388 8.95912 9.22433 8.95912 9.15513C8.95912 9.08594 9.31068 8.6827 9.74037 8.25893C10.1701 7.83516 10.5216 7.43304 10.5216 7.36529C10.5216 7.29754 10.823 6.94632 11.1913 6.58482C11.5596 6.22333 11.8609 5.8721 11.8609 5.80435C11.8609 5.73661 12.2125 5.33449 12.6422 4.91071C13.0718 4.48694 13.4234 4.08705 13.4234 4.0221C13.4234 3.83683 16.1914 1.11607 16.3799 1.11607C16.4726 1.11607 16.5484 1.06585 16.5484 1.00446C16.5484 0.94308 16.6378 0.892857 16.747 0.892857C16.8562 0.892857 17.0179 0.792411 17.1064 0.669643C17.201 0.538616 17.3954 0.446429 17.5775 0.446429C17.7481 0.446429 17.8877 0.396205 17.8877 0.334821C17.8877 0.263504 16.9204 0.223214 15.2091 0.223214H12.5305V0.558036C12.5305 0.742188 12.5808 0.892857 12.6422 0.892857C12.9215 0.892857 12.6985 1.29431 12.0841 1.89732C11.7158 2.25882 11.4145 2.61004 11.4145 2.67779C11.4145 2.74554 11.0629 3.14766 10.6332 3.57143C10.2035 3.9952 9.85197 4.39732 9.85197 4.46507C9.85197 4.53281 9.55063 4.88404 9.18233 5.24554C8.81403 5.60703 8.51269 5.95859 8.51269 6.02679C8.51269 6.09498 8.21135 6.44654 7.84304 6.80804C7.47474 7.16953 7.1734 7.52109 7.1734 7.58929C7.1734 7.65748 6.87206 8.00904 6.50376 8.37054C6.13545 8.73203 5.83412 9.08192 5.83412 9.14799C5.83412 9.26652 4.66615 10.4911 4.55309 10.4911C4.52106 10.4911 4.49483 8.28125 4.49483 5.58036C4.49483 2.38092 4.53367 0.669643 4.60644 0.669643C4.66782 0.669643 4.71804 0.569196 4.71804 0.446429C4.71804 0.23192 4.6436 0.223214 2.82072 0.223214C1.63021 0.223214 0.923401 0.264844 0.923401 0.334821ZM19.8966 0.446429C19.8966 0.569196 19.9468 0.669643 20.0082 0.669643C20.0818 0.669643 20.1198 3.94342 20.1198 10.2679C20.1198 16.5923 20.0818 19.8661 20.0082 19.8661C19.9468 19.8661 19.8966 20.0167 19.8966 20.2009V20.5357H25.3654C30.7597 20.5357 30.8341 20.5327 30.8341 20.3125C30.8341 20.1897 30.8843 20.0893 30.9457 20.0893C31.0071 20.0893 31.0573 19.9888 31.0573 19.8661C31.0573 19.7433 31.1076 19.6429 31.1689 19.6429C31.2303 19.6429 31.2805 19.5424 31.2805 19.4196C31.2805 19.2969 31.3308 19.1964 31.3922 19.1964C31.4535 19.1964 31.5038 19.0458 31.5038 18.8616C31.5038 18.6775 31.554 18.5268 31.6154 18.5268C31.6767 18.5268 31.727 18.4766 31.727 18.4152C31.727 18.3538 31.6265 18.3036 31.5038 18.3036C31.381 18.3036 31.2805 18.3538 31.2805 18.4152C31.2805 18.4875 29.8668 18.5268 27.2627 18.5268H23.2448V14.9554V11.3839H26.593C29.8668 11.3839 29.9413 11.379 29.9413 11.1607C29.9413 11.0379 29.9915 10.9375 30.0529 10.9375C30.1142 10.9375 30.1645 10.8371 30.1645 10.7143C30.1645 10.5915 30.2147 10.4911 30.2761 10.4911C30.3375 10.4911 30.3877 10.3906 30.3877 10.2679C30.3877 10.1451 30.4379 10.0446 30.4993 10.0446C30.5607 10.0446 30.6109 9.9442 30.6109 9.82143C30.6109 9.69866 30.6611 9.59821 30.7225 9.59821C30.7839 9.59821 30.8341 9.54799 30.8341 9.48661C30.8341 9.4144 29.4948 9.375 27.0395 9.375H23.2448V5.80357V2.23214H26.8163C29.1228 2.23214 30.3877 2.27165 30.3877 2.34375C30.3877 2.50949 30.715 2.47879 30.8978 2.29587C30.9856 2.20826 31.0573 2.05759 31.0573 1.96105C31.0573 1.86462 31.1076 1.78571 31.1689 1.78571C31.2303 1.78571 31.2805 1.63504 31.2805 1.45089C31.2805 1.26674 31.3308 1.11607 31.3922 1.11607C31.4535 1.11607 31.5038 1.01562 31.5038 0.892857C31.5038 0.770089 31.554 0.669643 31.6154 0.669643C31.6767 0.669643 31.727 0.569196 31.727 0.446429C31.727 0.226004 31.6525 0.223214 25.8118 0.223214C19.9711 0.223214 19.8966 0.226004 19.8966 0.446429ZM52.7091 0.287723C52.7091 0.323326 52.91 0.545312 53.1555 0.78125L53.602 1.21016V10.4266C53.602 16.4963 53.5639 19.6429 53.4904 19.6429C53.429 19.6429 53.3788 19.7433 53.3788 19.8661C53.3788 19.9888 53.3285 20.0893 53.2672 20.0893C53.2058 20.0893 53.1555 20.1395 53.1555 20.2009C53.1555 20.27 53.7507 20.3125 54.718 20.3125C55.6853 20.3125 56.2805 20.27 56.2805 20.2009C56.2805 20.1395 56.2303 20.0893 56.1689 20.0893C56.1076 20.0893 56.0573 19.9888 56.0573 19.8661C56.0573 19.7433 56.0071 19.6429 55.9457 19.6429C55.8724 19.6429 55.8341 16.9643 55.8341 11.8304C55.8341 7.53348 55.8606 4.01786 55.8928 4.01786C56.0051 4.01786 56.9502 5.01719 56.9502 5.13571C56.9502 5.20134 57.352 5.65257 57.843 6.13839C58.3341 6.62422 58.7359 7.07623 58.7359 7.14286C58.7359 7.20949 59.1377 7.6615 59.6288 8.14732C60.1198 8.63315 60.5216 9.08538 60.5216 9.15234C60.5216 9.21942 60.8732 9.62087 61.3029 10.0446C61.7326 10.4684 62.0841 10.8699 62.0841 10.9369C62.0841 11.0039 62.4859 11.4561 62.977 11.942C63.468 12.4278 63.8698 12.8798 63.8698 12.9464C63.8698 13.0131 64.2716 13.4651 64.7627 13.9509C65.2538 14.4367 65.6555 14.8894 65.6555 14.9568C65.6555 15.0242 65.9569 15.3751 66.3252 15.7366C66.6935 16.0981 66.9948 16.449 66.9948 16.5164C66.9948 16.5838 67.3966 17.0365 67.8877 17.5223C68.3788 18.0081 68.7805 18.4588 68.7805 18.5238C68.7805 18.6401 70.3963 20.3125 70.5087 20.3125C70.5404 20.3125 70.5663 15.9933 70.5663 10.7143C70.5663 4.38984 70.6043 1.11607 70.6779 1.11607C70.7393 1.11607 70.7895 1.01562 70.7895 0.892857C70.7895 0.770089 70.8397 0.669643 70.9011 0.669643C70.9625 0.669643 71.0127 0.569196 71.0127 0.446429C71.0127 0.233817 70.9382 0.223214 69.4502 0.223214C68.4829 0.223214 67.8877 0.265737 67.8877 0.334821C67.8877 0.396205 67.9379 0.446429 67.9993 0.446429C68.0607 0.446429 68.1109 0.546875 68.1109 0.669643C68.1109 0.792411 68.1611 0.892857 68.2225 0.892857C68.2955 0.892857 68.3341 2.97623 68.3341 6.91964C68.3341 10.2344 68.3083 12.9464 68.2767 12.9464C68.1644 12.9464 66.3252 11.0502 66.3252 10.9344C66.3252 10.8694 65.9234 10.4189 65.4323 9.93304C64.9413 9.44721 64.5395 8.99498 64.5395 8.92801C64.5395 8.86094 64.1879 8.45949 63.7582 8.03571C63.3285 7.61194 62.977 7.21049 62.977 7.14341C62.977 7.07645 62.5752 6.62422 62.0841 6.13839C61.593 5.65257 61.1913 5.20056 61.1913 5.13393C61.1913 5.0673 60.7895 4.61529 60.2984 4.12946C59.8073 3.64364 59.4055 3.19141 59.4055 3.12444C59.4055 3.05737 59.054 2.65592 58.6243 2.23214C58.1946 1.80837 57.843 1.4077 57.843 1.34174C57.843 1.27578 57.6184 0.997098 57.3437 0.722545L56.8445 0.223214H54.7767C53.6396 0.223214 52.7091 0.252232 52.7091 0.287723ZM74.1377 0.446429C74.1377 0.569196 74.1879 0.669643 74.2493 0.669643C74.3228 0.669643 74.3609 3.94342 74.3609 10.2679C74.3609 16.5923 74.3228 19.8661 74.2493 19.8661C74.1879 19.8661 74.1377 19.9665 74.1377 20.0893C74.1377 20.3095 74.2121 20.3125 79.5586 20.3125C85.4372 20.3125 85.2984 20.3271 85.2984 19.7066C85.2984 19.5488 85.3486 19.4196 85.41 19.4196C85.4714 19.4196 85.5216 19.3192 85.5216 19.1964C85.5216 19.0737 85.5718 18.9732 85.6332 18.9732C85.6946 18.9732 85.7448 18.8728 85.7448 18.75C85.7448 18.6272 85.7951 18.5268 85.8564 18.5268C85.9178 18.5268 85.968 18.4263 85.968 18.3036C85.968 18.1808 85.9178 18.0804 85.8564 18.0804C85.7951 18.0804 85.7448 18.1306 85.7448 18.192C85.7448 18.2533 85.5942 18.3036 85.41 18.3036C85.2259 18.3036 85.0752 18.3538 85.0752 18.4152C85.0752 18.4873 83.789 18.5268 81.44 18.5268C78.4382 18.5268 77.777 18.499 77.6454 18.3673C77.5143 18.2363 77.4859 17.6105 77.4859 14.8438C77.4859 12.077 77.5143 11.4512 77.6454 11.3202C77.776 11.1895 78.3724 11.1607 80.9457 11.1607C84.2345 11.1607 84.4055 11.1363 84.4055 10.6664C84.4055 10.57 84.4558 10.4911 84.5172 10.4911C84.5785 10.4911 84.6288 10.3906 84.6288 10.2679C84.6288 10.1451 84.679 10.0446 84.7404 10.0446C84.8018 10.0446 84.852 9.89397 84.852 9.70982V9.375H81.3284C78.4234 9.375 77.7767 9.34699 77.6454 9.21551C77.4091 8.97924 77.4091 2.40469 77.6454 2.16842C77.7763 2.03739 78.3936 2.00893 81.1052 2.00893C83.231 2.00893 84.4055 2.04866 84.4055 2.12054C84.4055 2.18192 84.5017 2.23214 84.6195 2.23214C84.7371 2.23214 84.8541 2.29442 84.8795 2.37065C84.9562 2.60078 85.2984 2.17511 85.2984 1.84944C85.2984 1.69163 85.3486 1.5625 85.41 1.5625C85.4714 1.5625 85.5216 1.46205 85.5216 1.33929C85.5216 1.21652 85.5718 1.11607 85.6332 1.11607C85.6946 1.11607 85.7448 1.01562 85.7448 0.892857C85.7448 0.770089 85.7951 0.669643 85.8564 0.669643C85.9178 0.669643 85.968 0.569196 85.968 0.446429C85.968 0.226004 85.8936 0.223214 80.0529 0.223214C74.2121 0.223214 74.1377 0.226004 74.1377 0.446429ZM89.093 0.446429C89.093 0.569196 89.1433 0.669643 89.2047 0.669643C89.2782 0.669643 89.3163 3.94342 89.3163 10.2679C89.3163 16.5923 89.2782 19.8661 89.2047 19.8661C89.1433 19.8661 89.093 19.9665 89.093 20.0893C89.093 20.3095 89.1675 20.3125 94.5139 20.3125C100.393 20.3125 100.254 20.3271 100.254 19.7066C100.254 19.5488 100.304 19.4196 100.365 19.4196C100.427 19.4196 100.477 19.3192 100.477 19.1964C100.477 19.0737 100.527 18.9732 100.589 18.9732C100.65 18.9732 100.7 18.8728 100.7 18.75C100.7 18.6272 100.75 18.5268 100.812 18.5268C100.873 18.5268 100.923 18.4263 100.923 18.3036C100.923 18.1808 100.873 18.0804 100.812 18.0804C100.75 18.0804 100.7 18.1306 100.7 18.192C100.7 18.2533 100.55 18.3036 100.365 18.3036C100.181 18.3036 100.031 18.3538 100.031 18.4152C100.031 18.4873 98.7444 18.5268 96.3954 18.5268C93.3936 18.5268 92.7323 18.499 92.6007 18.3673C92.4653 18.2319 92.4413 16.9048 92.4413 9.55033C92.4413 3.85312 92.4794 0.892857 92.5529 0.892857C92.6143 0.892857 92.6645 0.792411 92.6645 0.669643C92.6645 0.546875 92.7147 0.446429 92.7761 0.446429C92.8375 0.446429 92.8877 0.396205 92.8877 0.334821C92.8877 0.264844 92.1809 0.223214 90.9904 0.223214C89.1675 0.223214 89.093 0.23192 89.093 0.446429Z" fill="#F2F2F2"/>
</svg>
