<svg width="58" height="45" viewBox="0 0 58 45" fill="none" xmlns="http://www.w3.org/2000/svg">
<path fill-rule="evenodd" clip-rule="evenodd" d="M48.1611 21.2119C48.0183 21.3679 47.9769 23.2451 47.9769 29.5649V37.7167H49.1561H50.3353V35.1667C50.3353 33.7642 50.3699 32.6167 50.4122 32.6167C50.5597 32.6167 52.104 34.17 52.104 34.3185C52.104 34.4008 52.7673 35.1012 53.578 35.875C54.3887 36.6488 55.052 37.3796 55.052 37.4992C55.052 37.6803 55.2992 37.7167 56.526 37.7167C57.3367 37.7167 58 37.6798 58 37.6348C58 37.5896 57.7347 37.3078 57.4104 37.0083C57.0861 36.7088 56.8208 36.3936 56.8208 36.3078C56.8208 36.2218 55.8259 35.1984 54.6098 34.0333C53.3938 32.8683 52.3988 31.8484 52.3988 31.7668C52.3988 31.6854 53.4601 30.6015 54.7572 29.3583C56.0543 28.1152 57.1156 27.0648 57.1156 27.024C57.1156 26.9833 56.4837 26.95 55.7113 26.95H54.3069L52.3988 28.7917C51.3494 29.8046 50.4557 30.6333 50.4129 30.6333C50.3702 30.6333 50.3353 28.4658 50.3353 25.8167V21L49.3403 21.0054C48.6716 21.0091 48.2849 21.0768 48.1611 21.2119ZM7 29.7833V37.7167H8.17919H9.35838V34.7417V31.7667H12.3064C14.1735 31.7667 15.2543 31.7147 15.2543 31.625C15.2543 31.5471 15.4533 31.4833 15.6965 31.4833C15.9397 31.4833 16.1387 31.4196 16.1387 31.3417C16.1387 31.2638 16.2404 31.2 16.3647 31.2C16.6582 31.2 17.6127 30.2826 17.6127 30.0005C17.6127 29.8811 17.679 29.7833 17.7601 29.7833C17.8412 29.7833 17.9075 29.6558 17.9075 29.5C17.9075 29.3442 17.9738 29.2167 18.0549 29.2167C18.136 29.2167 18.2023 29.0892 18.2023 28.9333C18.2023 28.7775 18.2686 28.65 18.3497 28.65C18.4404 28.65 18.4971 27.9417 18.4971 26.8083C18.4971 25.675 18.4404 24.9667 18.3497 24.9667C18.2686 24.9667 18.2023 24.8392 18.2023 24.6833C18.2023 24.5275 18.136 24.4 18.0549 24.4C17.9738 24.4 17.9075 24.2725 17.9075 24.1167C17.9075 23.9608 17.8412 23.8333 17.7601 23.8333C17.679 23.8333 17.6127 23.7349 17.6127 23.6145C17.6127 23.331 16.9562 22.7 16.6613 22.7C16.536 22.7 16.4335 22.6363 16.4335 22.5583C16.4335 22.4804 16.3009 22.4167 16.1387 22.4167C15.9766 22.4167 15.8439 22.3529 15.8439 22.275C15.8439 22.1971 15.6449 22.1333 15.4017 22.1333C15.1585 22.1333 14.9595 22.0696 14.9595 21.9917C14.9595 21.9007 13.5346 21.85 10.9798 21.85H7V29.7833ZM15.4793 24.4671C15.9122 24.8832 16.1387 25.2238 16.1387 25.4588C16.1387 25.6556 16.2051 25.8167 16.2861 25.8167C16.3703 25.8167 16.4335 26.2417 16.4335 26.8083C16.4335 27.375 16.3703 27.8 16.2861 27.8C16.2051 27.8 16.1387 27.9275 16.1387 28.0833C16.1387 28.2392 16.0724 28.3667 15.9913 28.3667C15.9103 28.3667 15.8439 28.4651 15.8439 28.5855C15.8439 28.9298 15.1588 29.5 14.7451 29.5C14.5387 29.5 14.3699 29.5638 14.3699 29.6417C14.3699 29.7305 13.4365 29.7833 11.8642 29.7833H9.35838V26.8083V23.8333H12.0891H14.82L15.4793 24.4671ZM24.9827 26.8083C24.9827 26.8863 24.7837 26.95 24.5405 26.95C24.2973 26.95 24.0983 27.0138 24.0983 27.0917C24.0983 27.1696 23.9656 27.2333 23.8035 27.2333C23.6413 27.2333 23.5087 27.2971 23.5087 27.375C23.5087 27.4529 23.408 27.5167 23.2848 27.5167C23.1617 27.5167 22.6311 27.9299 22.1056 28.4348C21.5803 28.9399 21.1503 29.4499 21.1503 29.5681C21.1503 29.6866 21.084 29.7833 21.0029 29.7833C20.9218 29.7833 20.8555 29.9746 20.8555 30.2083C20.8555 30.4421 20.7892 30.6333 20.7081 30.6333C20.618 30.6333 20.5607 31.2945 20.5607 32.3333C20.5607 33.3722 20.618 34.0333 20.7081 34.0333C20.7892 34.0333 20.8555 34.2246 20.8555 34.4583C20.8555 34.6921 20.9218 34.8833 21.0029 34.8833C21.084 34.8833 21.1503 34.9801 21.1503 35.0985C21.1503 35.3786 22.9934 37.15 23.2848 37.15C23.408 37.15 23.5087 37.2137 23.5087 37.2917C23.5087 37.3696 23.6413 37.4333 23.8035 37.4333C23.9656 37.4333 24.0983 37.4971 24.0983 37.575C24.0983 37.6529 24.2973 37.7167 24.5405 37.7167C24.7837 37.7167 24.9827 37.7804 24.9827 37.8583C24.9827 37.9409 25.4739 38 26.1618 38C26.8498 38 27.341 37.9409 27.341 37.8583C27.341 37.7804 27.54 37.7167 27.7832 37.7167C28.0264 37.7167 28.2254 37.6529 28.2254 37.575C28.2254 37.4971 28.3581 37.4333 28.5202 37.4333C28.6824 37.4333 28.815 37.3696 28.815 37.2917C28.815 37.2137 28.921 37.15 29.0507 37.15C29.1803 37.15 29.4723 36.9587 29.6994 36.725C29.9266 36.4913 30.1522 36.3 30.2007 36.3C30.2494 36.3 30.289 36.6187 30.289 37.0083V37.7167H31.3208H32.3526V32.3333V26.95H31.3208H30.289V27.6583C30.289 28.0479 30.2494 28.3667 30.2007 28.3667C30.1522 28.3667 29.9266 28.1754 29.6994 27.9417C29.4723 27.7079 29.1803 27.5167 29.0507 27.5167C28.921 27.5167 28.815 27.4529 28.815 27.375C28.815 27.2971 28.6824 27.2333 28.5202 27.2333C28.3581 27.2333 28.2254 27.1696 28.2254 27.0917C28.2254 27.0138 28.0264 26.95 27.7832 26.95C27.54 26.95 27.341 26.8863 27.341 26.8083C27.341 26.7257 26.8498 26.6667 26.1618 26.6667C25.4739 26.6667 24.9827 26.7257 24.9827 26.8083ZM40.0173 26.8083C40.0173 26.8863 39.752 26.95 39.4277 26.95C39.1035 26.95 38.8382 27.0138 38.8382 27.0917C38.8382 27.1696 38.7055 27.2333 38.5434 27.2333C38.3812 27.2333 38.2486 27.2971 38.2486 27.375C38.2486 27.4529 38.1479 27.5167 38.0247 27.5167C37.7332 27.5167 35.8902 29.2881 35.8902 29.5681C35.8902 29.6866 35.8238 29.7833 35.7428 29.7833C35.6617 29.7833 35.5954 29.9746 35.5954 30.2083C35.5954 30.4421 35.529 30.6333 35.448 30.6333C35.3579 30.6333 35.3006 31.2945 35.3006 32.3333C35.3006 33.3722 35.3579 34.0333 35.448 34.0333C35.529 34.0333 35.5954 34.1608 35.5954 34.3167C35.5954 34.4725 35.6617 34.6 35.7428 34.6C35.8238 34.6 35.8902 34.7275 35.8902 34.8833C35.8902 35.0392 35.9565 35.1667 36.0376 35.1667C36.1186 35.1667 36.185 35.2637 36.185 35.3823C36.185 35.5009 36.5483 35.9471 36.9924 36.374C37.4365 36.8008 37.9008 37.15 38.0242 37.15C38.1476 37.15 38.2486 37.2137 38.2486 37.2917C38.2486 37.3696 38.3812 37.4333 38.5434 37.4333C38.7055 37.4333 38.8382 37.4971 38.8382 37.575C38.8382 37.6529 39.1035 37.7167 39.4277 37.7167C39.752 37.7167 40.0173 37.7804 40.0173 37.8583C40.0173 37.9409 40.5086 38 41.1965 38C41.8844 38 42.3757 37.9409 42.3757 37.8583C42.3757 37.7804 42.641 37.7167 42.9653 37.7167C43.2896 37.7167 43.5549 37.6529 43.5549 37.575C43.5549 37.4971 43.673 37.4333 43.8171 37.4333C43.9614 37.4333 44.175 37.3058 44.2919 37.15C44.4088 36.9942 44.5939 36.8667 44.7034 36.8667C44.9431 36.8667 45.3237 36.5228 45.3237 36.3064C45.3237 36.1017 44.0527 34.8833 43.8391 34.8833C43.7479 34.8833 43.4873 35.0746 43.2601 35.3083C43.0061 35.5697 42.6996 35.7333 42.464 35.7333C42.2532 35.7333 42.0809 35.7971 42.0809 35.875C42.0809 35.9538 41.6878 36.0167 41.1965 36.0167C40.7052 36.0167 40.3121 35.9538 40.3121 35.875C40.3121 35.7971 40.1132 35.7333 39.8699 35.7333C39.6267 35.7333 39.4277 35.6696 39.4277 35.5917C39.4277 35.5138 39.326 35.45 39.2018 35.45C38.9083 35.45 37.9538 34.5326 37.9538 34.2505C37.9538 34.1311 37.8874 34.0333 37.8064 34.0333C37.7253 34.0333 37.659 33.9058 37.659 33.75C37.659 33.5942 37.5926 33.4667 37.5116 33.4667C37.4256 33.4667 37.3642 32.9945 37.3642 32.3333C37.3642 31.6722 37.4256 31.2 37.5116 31.2C37.5926 31.2 37.659 31.0725 37.659 30.9167C37.659 30.7608 37.7253 30.6333 37.8064 30.6333C37.8874 30.6333 37.9538 30.5356 37.9538 30.4162C37.9538 30.1341 38.9083 29.2167 39.2018 29.2167C39.326 29.2167 39.4277 29.1529 39.4277 29.075C39.4277 28.9971 39.6267 28.9333 39.8699 28.9333C40.1132 28.9333 40.3121 28.8696 40.3121 28.7917C40.3121 28.7137 40.6438 28.65 41.0491 28.65C41.4545 28.65 41.7861 28.7137 41.7861 28.7917C41.7861 28.8696 41.9851 28.9333 42.2283 28.9333C42.4715 28.9333 42.6705 28.9971 42.6705 29.075C42.6705 29.1529 42.7886 29.2167 42.9327 29.2167C43.077 29.2167 43.2906 29.3442 43.4075 29.5C43.5244 29.6558 43.7066 29.7833 43.8124 29.7833C44.0452 29.7833 45.3237 28.5795 45.3237 28.3603C45.3237 28.1438 44.9431 27.8 44.7034 27.8C44.5939 27.8 44.4088 27.6725 44.2919 27.5167C44.175 27.3608 43.9614 27.2333 43.8171 27.2333C43.673 27.2333 43.5549 27.1696 43.5549 27.0917C43.5549 27.0138 43.2896 26.95 42.9653 26.95C42.641 26.95 42.3757 26.8863 42.3757 26.8083C42.3757 26.7257 41.8844 26.6667 41.1965 26.6667C40.5086 26.6667 40.0173 26.7257 40.0173 26.8083ZM27.0462 28.7917C27.0462 28.8696 27.2452 28.9333 27.4884 28.9333C27.7316 28.9333 27.9306 28.9971 27.9306 29.075C27.9306 29.1529 28.0319 29.2167 28.1556 29.2167C28.4482 29.2167 29.6994 30.4193 29.6994 30.7005C29.6994 30.8193 29.7658 30.9167 29.8468 30.9167C29.9353 30.9167 29.9942 31.4833 29.9942 32.3333C29.9942 33.1833 29.9353 33.75 29.8468 33.75C29.7658 33.75 29.6994 33.8473 29.6994 33.9662C29.6994 34.2474 28.4482 35.45 28.1556 35.45C28.0319 35.45 27.9306 35.5138 27.9306 35.5917C27.9306 35.6696 27.7316 35.7333 27.4884 35.7333C27.2452 35.7333 27.0462 35.7971 27.0462 35.875C27.0462 35.9529 26.7146 36.0167 26.3092 36.0167C25.9039 36.0167 25.5723 35.9529 25.5723 35.875C25.5723 35.7971 25.3879 35.7333 25.1626 35.7333C24.9221 35.7333 24.6653 35.6163 24.5405 35.45C24.4236 35.2942 24.2384 35.1667 24.1289 35.1667C23.8723 35.1667 23.5087 34.8172 23.5087 34.5705C23.5087 34.4653 23.376 34.2873 23.2139 34.175C23.0085 34.0328 22.9191 33.8082 22.9191 33.4354C22.9191 33.141 22.8527 32.9 22.7717 32.9C22.6906 32.9 22.6243 32.5813 22.6243 32.1917C22.6243 31.8021 22.6906 31.4833 22.7717 31.4833C22.8527 31.4833 22.9191 31.2921 22.9191 31.0583C22.9191 30.8246 22.9854 30.6333 23.0665 30.6333C23.1475 30.6333 23.2139 30.5356 23.2139 30.4162C23.2139 30.1341 24.1684 29.2167 24.4619 29.2167C24.5862 29.2167 24.6879 29.1529 24.6879 29.075C24.6879 28.9971 24.8869 28.9333 25.1301 28.9333C25.3733 28.9333 25.5723 28.8696 25.5723 28.7917C25.5723 28.7137 25.9039 28.65 26.3092 28.65C26.7146 28.65 27.0462 28.7137 27.0462 28.7917Z" fill="black"/>
<path d="M49 39.5V43H2V2H49V18.5" stroke="#82888E" stroke-width="3"/>
<path d="M9.82031 14.5469V19H8.32031V7.625H12.5156C13.7604 7.625 14.7344 7.94271 15.4375 8.57812C16.1458 9.21354 16.5 10.0547 16.5 11.1016C16.5 12.2057 16.1536 13.0573 15.4609 13.6562C14.7734 14.25 13.7865 14.5469 12.5 14.5469H9.82031ZM9.82031 13.3203H12.5156C13.3177 13.3203 13.9323 13.1328 14.3594 12.7578C14.7865 12.3776 15 11.8307 15 11.1172C15 10.4401 14.7865 9.89844 14.3594 9.49219C13.9323 9.08594 13.3464 8.875 12.6016 8.85938H9.82031V13.3203ZM20.3516 7.625L24.0703 16.9062L27.7891 7.625H29.7344V19H28.2344V14.5703L28.375 9.78906L24.6406 19H23.4922L19.7656 9.8125L19.9141 14.5703V19H18.4141V7.625H20.3516Z" fill="#82888E"/>
</svg>
