<svg width="106" height="25" viewBox="0 0 106 25" fill="none" xmlns="http://www.w3.org/2000/svg">
<path fill-rule="evenodd" clip-rule="evenodd" d="M24.6078 0.194047C27.5591 -0.315541 30.7996 0.146825 33.2472 1.95891C35.3701 3.47783 36.7257 5.93133 37.0701 8.50091C37.5383 11.5919 36.8143 14.9642 34.7031 17.3351C30.835 21.7344 23.2089 21.7954 19.1597 17.6164C17.3083 15.6745 16.3521 12.9593 16.4288 10.2913C16.3875 7.58601 17.3791 4.82952 19.2975 2.89742C20.7298 1.47293 22.6226 0.54033 24.6078 0.194047ZM40.4601 1.8684C42.1404 0.239297 44.6686 -0.20733 46.9155 0.172403C48.0508 0.353414 49.068 0.935798 49.9396 1.66181C49.7041 2.24028 49.4639 2.81609 49.2238 3.39195C49.0506 3.80716 48.8774 4.2224 48.706 4.63867C48.647 4.61706 48.5582 4.58367 48.4693 4.55027L48.4688 4.5501L48.4685 4.55C48.3796 4.5166 48.2907 4.48321 48.2318 4.46159C47.6888 2.49604 45.2235 1.55754 43.4645 2.50195C42.0223 3.20829 41.4045 5.25647 42.4138 6.5629C43.2076 7.59587 44.4306 8.05859 45.6229 8.50971C45.9408 8.62999 46.2565 8.74945 46.5614 8.87867C48.3223 9.64403 50.1245 10.8304 50.7856 12.7252C51.5746 15.2062 50.3725 18.0571 48.2043 19.4285C46.463 20.5933 44.2476 20.8018 42.2269 20.4359C40.6982 20.1565 39.2147 19.4541 38.1935 18.2598C38.4485 17.4327 38.687 16.5998 38.9255 15.7673L38.9255 15.7673L38.9255 15.7673L38.9255 15.7672L38.9255 15.7672L38.9255 15.7671L38.9255 15.7671L38.9255 15.767L38.9256 15.767C38.9962 15.5203 39.0669 15.2736 39.1379 15.0272C39.2088 15.048 39.28 15.0685 39.3514 15.089L39.3515 15.0891C39.4624 15.121 39.5736 15.153 39.6849 15.1865C40.2751 17.7502 43.3543 19.0527 45.7429 18.3562C47.797 17.7384 48.643 14.7989 47.13 13.2426C46.1614 12.2819 44.9164 11.7786 43.6709 11.2751C42.4319 10.7742 41.1924 10.2731 40.224 9.32136C38.2388 7.34204 38.4375 3.75132 40.4601 1.8684ZM6.9867 0.26291C6.00076 0.298189 5.01436 0.304357 4.02796 0.310526C2.97893 0.317086 1.92991 0.323645 0.881469 0.36522C0.947637 0.530142 1.02366 0.693861 1.09998 0.858192C1.33229 1.35846 1.56723 1.86439 1.53466 2.42718C1.52683 7.81031 1.52874 13.1934 1.53274 18.5746C1.58779 19.0924 1.30413 19.5145 1.02642 19.9278C0.936895 20.0611 0.847989 20.1934 0.771247 20.3277C1.35915 20.3284 1.94705 20.3283 2.53505 20.3282H2.53508H2.53511H2.53515H2.53518H2.53521H2.53524H2.53528C3.51562 20.3281 4.49623 20.3279 5.47761 20.3316C5.42676 20.2204 5.37072 20.1096 5.31443 19.9983C5.11584 19.6057 4.914 19.2067 4.92472 18.7576C4.92472 16.9179 4.92515 15.078 4.92559 13.238V13.2378V13.2375V13.2373V13.2371V13.2369V13.2367V13.2364C4.92646 9.55521 4.92733 5.87369 4.92472 2.19304C6.47514 2.08877 8.12589 2.09467 9.54841 2.80691C11.5454 3.82609 11.7973 6.7872 10.4613 8.43795C9.39691 9.78766 7.61821 10.2638 5.97533 10.374C5.75067 10.347 5.66476 10.5245 5.58089 10.6978C5.54873 10.7643 5.51688 10.8301 5.47761 10.8836C6.68423 12.3465 7.8625 13.8321 9.04058 15.3175L9.0407 15.3176L9.04076 15.3177L9.04081 15.3178L9.04086 15.3178L9.04091 15.3179L9.04096 15.318L9.04101 15.318L9.04106 15.3181C9.5629 15.976 10.0847 16.6339 10.6089 17.2898C12.2754 19.3419 14.0029 21.3941 16.1573 22.9582C17.6172 24.0207 19.327 24.7762 21.1371 24.9474C22.7091 25.1264 24.2851 24.8254 25.7922 24.3926L25.792 24.392C25.6721 24.1502 25.5521 23.9084 25.4342 23.6685C23.5394 23.7748 21.6644 23.1865 20.0589 22.2047C17.5779 20.7015 15.5907 18.5254 13.8219 16.2549C13.6078 15.9869 13.3941 15.7186 13.1805 15.4504L13.1797 15.4494L13.1789 15.4484C12.0456 14.0257 10.9129 12.6037 9.73139 11.222C11.3389 10.917 12.8676 10.0179 13.7392 8.60715C15.0555 6.58454 14.8155 3.58408 12.9561 1.96875C11.3507 0.522622 9.06833 0.213721 6.9867 0.26291ZM54.8703 0.352431C55.6571 0.352431 56.4441 0.352431 57.2312 0.349479C57.1784 0.466613 57.1199 0.583185 57.061 0.700257C56.8501 1.12003 56.636 1.54624 56.6744 2.02777C56.6803 4.36912 56.6803 6.71243 56.6764 9.05378C57.9028 9.05516 59.1293 9.05485 60.3556 9.05454H60.3557H60.3557H60.3557H60.3558H60.3558H60.3559C62.6334 9.05396 64.9105 9.05339 67.1869 9.06362C67.1854 7.29977 67.1872 5.53592 67.1891 3.7729L67.1908 2.01203C67.2368 1.52221 66.9693 1.12422 66.7067 0.733562C66.6212 0.606384 66.5363 0.479985 66.4628 0.351449C67.6416 0.3544 68.8203 0.35403 69.9991 0.35366L71.179 0.353414C71.1201 0.490009 71.0525 0.625342 70.9845 0.761204L70.9845 0.761235C70.7844 1.16157 70.5819 1.56649 70.5966 2.02187L70.5977 3.51977C70.6014 8.53377 70.6052 13.5491 70.5926 18.5628C70.5476 19.0572 70.7711 19.492 70.9914 19.9205C71.0595 20.053 71.1274 20.1849 71.1868 20.3178C70.135 20.3454 69.0831 20.3432 68.0318 20.341H68.0317H68.0316H68.0316H68.0315H68.0314H68.0314H68.0312H68.0311H68.0309H68.0308H68.0307H68.0305C67.5052 20.3399 66.9799 20.3388 66.4549 20.3414C66.5335 20.1924 66.6308 20.048 66.7287 19.9027C66.967 19.5492 67.2084 19.1909 67.1888 18.7517C67.1906 17.6245 67.1892 16.497 67.1879 15.3694C67.1862 13.9599 67.1845 12.5503 67.1888 11.1413C63.6847 11.1492 60.1805 11.1472 56.6764 11.1453C56.6808 12.5707 56.6796 13.9961 56.6785 15.4215V15.4263C56.6775 16.5334 56.6766 17.6406 56.6784 18.7477C56.6694 19.1926 56.8702 19.5884 57.0681 19.9786L57.0682 19.9787C57.1302 20.101 57.192 20.2228 57.247 20.3454C56.1116 20.3412 54.9783 20.342 53.8449 20.3428H53.8448H53.8447H53.8447H53.8446H53.8445H53.8445C53.3909 20.3431 52.9373 20.3434 52.4836 20.3434C52.566 20.1961 52.6641 20.0519 52.7629 19.9066L52.763 19.9065C53.0418 19.4967 53.3259 19.079 53.2765 18.5648C53.2681 14.6271 53.2697 10.6884 53.2713 6.75009V6.74989V6.74968V6.74947V6.74926V6.74906V6.74885C53.2719 5.17375 53.2726 3.59871 53.2726 2.02384C53.2939 1.55667 53.0375 1.17251 52.7851 0.794445L52.7851 0.794402L52.7851 0.794371C52.6878 0.648606 52.5911 0.503746 52.5111 0.355382C53.2971 0.352432 54.0836 0.352431 54.8703 0.352431ZM85.4573 0.353414C83.3446 0.359519 81.2324 0.357731 79.1203 0.355942C77.1488 0.354272 75.1774 0.352603 73.2055 0.357352C73.2612 0.50529 73.3231 0.652747 73.3851 0.80068C73.6037 1.32168 73.8247 1.84859 73.7879 2.42325C73.7781 7.73948 73.78 13.0537 73.7879 18.368C73.817 18.9125 73.6154 19.4153 73.4161 19.9126C73.359 20.055 73.302 20.1971 73.2508 20.3395C74.7761 20.3365 76.3014 20.3358 77.8267 20.335C80.3053 20.3339 82.7839 20.3327 85.2625 20.3218C85.5251 19.5356 85.7978 18.7537 86.0707 17.9712L86.0713 17.9697L86.2089 17.5751C85.8979 17.6464 85.5897 17.7367 85.2813 17.827C84.5772 18.0332 83.8725 18.2396 83.1336 18.2205C81.6922 18.2104 80.2508 18.2119 78.8094 18.2134C78.2852 18.214 77.7611 18.2145 77.237 18.2145C77.2396 16.6418 77.2387 15.0691 77.2378 13.4964C77.2374 12.7101 77.237 11.9237 77.237 11.1374C78.6357 11.1413 80.0343 11.14 81.4336 11.1387H81.434H81.4345H81.4349H81.4353H81.4358C82.136 11.138 82.8364 11.1374 83.5369 11.1374C83.7809 10.4291 84.0308 9.72077 84.3043 9.0223C82.8546 9.14978 81.3989 9.13117 79.9433 9.11255C79.04 9.101 78.1368 9.08945 77.235 9.1128C77.2409 6.88557 77.2389 4.65638 77.235 2.42915C78.809 2.43505 80.383 2.43505 81.959 2.42325C82.6191 2.38029 83.2353 2.60094 83.8488 2.82058C84.0784 2.90277 84.3075 2.98481 84.5384 3.05285C84.6601 2.6909 84.785 2.32991 84.9099 1.96897L84.9101 1.96826L84.9104 1.96751L84.9107 1.96666C85.0964 1.42976 85.2821 0.892991 85.4573 0.353414ZM88.971 0.358707C89.7603 0.359427 90.5498 0.360147 91.3401 0.351449C93.518 2.76232 95.6873 5.18115 97.8568 7.60024C99.4249 9.34873 100.993 11.0974 102.565 12.8432C102.565 11.6405 102.565 10.4379 102.565 9.23521V9.22476C102.565 6.82445 102.565 4.42415 102.571 2.02384C102.613 1.54199 102.352 1.14844 102.094 0.761242L102.094 0.761206L102.094 0.761181L102.094 0.761162C102.006 0.628229 101.918 0.496042 101.843 0.361285C102.231 0.361285 102.619 0.361606 103.008 0.361927C103.979 0.36273 104.951 0.363533 105.923 0.359317C105.871 0.470627 105.816 0.581799 105.759 0.693493L105.759 0.693527C105.516 1.17806 105.267 1.67241 105.313 2.23043C105.321 5.2412 105.32 8.25198 105.319 11.2625C105.317 14.4315 105.316 17.6002 105.325 20.7684C102.261 17.4236 99.2137 14.0627 96.1659 10.7019L96.1655 10.7014C94.5611 8.9322 92.9567 7.16301 91.35 5.39616C91.3472 7.46132 91.3479 9.52603 91.3486 11.5907C91.3494 13.9126 91.3502 16.2345 91.346 18.5569C91.3067 19.0562 91.5268 19.4973 91.7442 19.933C91.8095 20.0639 91.8746 20.1943 91.9324 20.3257C91.084 20.3294 90.2364 20.3292 89.389 20.3291C88.8805 20.329 88.372 20.3289 87.8635 20.3296C87.9453 20.1811 88.0429 20.0359 88.141 19.8899L88.1411 19.8898L88.1411 19.8897L88.1412 19.8897L88.1412 19.8896C88.4135 19.4844 88.69 19.0728 88.6466 18.5667C88.6461 17.3171 88.6452 16.0675 88.6443 14.8179V14.8117C88.6414 10.7511 88.6385 6.69047 88.6505 2.62984C88.7253 1.98094 88.3561 1.46858 87.9917 0.962956L87.9917 0.962926L87.9916 0.9629L87.9916 0.96288L87.9916 0.962863C87.8478 0.763293 87.7047 0.564771 87.59 0.359317C88.0503 0.357867 88.5106 0.358287 88.971 0.358707ZM0.0137496 23.236C0.00983516 23.6431 0.00592077 24.0503 0 24.4595C1.3471 24.4595 2.69403 24.4604 4.04085 24.4614C7.40726 24.4638 10.7729 24.4662 14.1386 24.4536C14.1137 23.9813 13.7521 23.7332 13.3976 23.49C13.2765 23.4069 13.1563 23.3244 13.0506 23.2337C11.4223 23.2337 9.79364 23.2345 8.16485 23.2353H8.16432H8.1638H8.16327C5.4471 23.2367 2.73044 23.2381 0.0137525 23.2357L0.0137496 23.236ZM28.4641 23.2357C54.1481 23.214 79.8321 23.2278 105.516 23.2416C105.514 23.6469 105.514 24.0541 105.516 24.4614C95.2161 24.4606 84.916 24.464 74.6159 24.4675C59.5626 24.4725 44.5092 24.4775 29.4558 24.4693C29.3742 24.4011 29.2861 24.3355 29.1971 24.2692L29.197 24.2692C28.8394 24.003 28.4689 23.7272 28.4641 23.2357ZM25.9772 2.16155C24.2143 2.34256 22.6108 3.40109 21.6368 4.86295C20.0746 7.17282 19.6831 10.1674 20.3343 12.853C20.7554 14.6494 21.7175 16.3887 23.2699 17.4433C25.5916 19.0645 29.0327 18.8382 31.0809 16.8589C33.0288 14.9858 33.7056 12.131 33.5285 9.50433C33.3829 7.30268 32.5467 5.04397 30.8547 3.56636C29.5325 2.40946 27.7027 1.94119 25.9772 2.16155Z" fill="#F2F2F2"/>
</svg>
