<svg width="20" height="27" viewBox="0 0 20 27" fill="none" xmlns="http://www.w3.org/2000/svg">
<path d="M20 20.799V19.1196C20 18.7321 19.8726 18.3445 19.7452 18.2153C19.6178 18.0861 19.3631 17.9569 19.1083 17.9569C18.8535 17.9569 18.7261 17.9569 18.5987 18.0861C18.4713 18.2153 18.3439 18.3445 18.2166 18.4737C18.0892 18.0861 17.8344 17.9569 17.4522 17.9569C17.0701 17.9569 16.8153 18.0861 16.6879 18.4737V18.0861H16.1783C16.1783 18.3445 16.1783 18.6029 16.1783 18.8612V20.9282H16.6879V19.2488C16.6879 19.1196 16.6879 18.8612 16.8153 18.7321C16.9427 18.6029 17.0701 18.4737 17.1975 18.4737C17.3248 18.4737 17.4522 18.4737 17.5796 18.6029C17.707 18.7321 17.707 18.8612 17.707 19.1196V20.799H18.344V19.1196C18.344 18.9904 18.344 18.8612 18.4713 18.7321C18.5987 18.6029 18.7261 18.6029 18.8535 18.6029C19.2357 18.6029 19.3631 18.8612 19.3631 19.378V20.9282H20V20.799ZM16.6879 24.4163C16.4331 24.1579 16.1783 23.8995 15.7962 23.8995C15.414 23.8995 15.0318 24.0287 14.9045 24.4163C14.6497 24.6746 14.5223 25.0622 14.5223 25.4498C14.5223 25.8373 14.6497 26.2249 14.9045 26.4833C15.1592 26.7416 15.5414 26.8708 15.9236 26.8708C16.3057 26.8708 16.5605 26.8708 16.8153 26.7416L16.6879 26.3541C16.4331 26.4833 16.1783 26.4833 15.9236 26.4833C15.6688 26.4833 15.414 26.4833 15.2866 26.2249C15.1592 26.0957 15.0318 25.8373 15.0318 25.5789H16.8153C16.8153 25.4498 16.8153 25.4498 16.8153 25.3206C16.8153 25.0622 16.8153 24.6746 16.6879 24.4163ZM16.3057 25.1914H15.0318C15.0318 25.0622 15.1592 24.8038 15.1592 24.6746C15.2866 24.5455 15.414 24.4163 15.6688 24.4163C15.9236 24.4163 16.051 24.5455 16.1783 24.6746C16.3057 24.8038 16.3057 25.0622 16.3057 25.1914ZM14.9045 20.799H15.414C15.414 20.5407 15.414 20.2823 15.414 20.0239V17.9569H14.7771V19.6364C14.7771 19.7656 14.7771 19.7656 14.7771 19.8947C14.6497 20.1531 14.5223 20.2823 14.2675 20.2823C13.8853 20.2823 13.758 20.0239 13.758 19.5072V17.9569H13.121V19.6364C13.121 20.0239 13.2484 20.4115 13.3758 20.5407C13.5032 20.6699 13.758 20.799 14.0127 20.799C14.3949 20.799 14.6497 20.6699 14.9045 20.2823V20.799ZM13.3758 7.10526C13.3758 5.42584 14.7771 4.65072 14.7771 4.65072C14.0127 3.48804 12.8662 3.35885 12.3567 3.35885C11.465 3.10048 10.4459 3.8756 10.0637 3.8756C9.55414 3.8756 8.78981 3.22967 7.89809 3.35885C6.75159 3.35885 5.73248 4.00478 5.22293 5.03828C4.07643 6.97608 4.96815 10.0766 5.98726 11.756C6.49681 12.5311 7.13375 13.4354 8.02547 13.4354C8.78981 13.4354 9.17198 12.9187 10.0637 12.9187C11.0828 12.9187 11.3376 13.4354 12.2293 13.4354C13.121 13.4354 13.6306 12.6603 14.2675 11.756C14.9045 10.8517 15.1592 9.94737 15.1592 9.81818C15.1592 9.689 13.3758 9.17225 13.3758 7.10526ZM11.8471 2.19617C12.3567 1.67943 12.6115 0.77512 12.4841 0C11.8471 0 11.0828 0.38756 10.5732 1.03349C10.1911 1.55024 9.80891 2.32536 9.9363 3.10048C10.5732 3.10048 11.3376 2.71292 11.8471 2.19617ZM4.71337 18.3445C4.4586 18.6029 4.33121 18.9904 4.33121 19.378C4.33121 19.7656 4.4586 20.1531 4.71337 20.4115C4.96815 20.6699 5.35032 20.799 5.73249 20.799C6.11465 20.799 6.36942 20.799 6.6242 20.6699L6.49681 20.2823C6.24204 20.4115 5.98726 20.4115 5.73249 20.4115C5.47771 20.4115 5.35032 20.2823 5.09554 20.1531C4.96815 20.0239 4.84076 19.7656 4.84076 19.5072H6.6242C6.6242 19.378 6.6242 19.378 6.6242 19.2488C6.6242 18.8612 6.49682 18.6029 6.36943 18.3445C6.11465 18.0861 5.85987 17.9569 5.4777 17.9569C5.35031 17.9569 4.96815 18.0861 4.71337 18.3445ZM4.96816 19.1196C4.96816 18.9904 5.09554 18.7321 5.09554 18.6029C5.22293 18.4737 5.35032 18.3445 5.6051 18.3445C5.85988 18.3445 5.98726 18.4737 6.11465 18.6029C6.24203 18.7321 6.24204 18.8612 6.24204 19.1196H4.96816ZM5.35032 24.0287C4.96815 24.0287 4.58599 24.1579 4.4586 24.5455C4.20382 24.8038 4.07643 25.1914 4.07643 25.5789C4.07643 25.9665 4.20382 26.3541 4.4586 26.6124C4.71338 26.8708 4.96815 27 5.4777 27C5.85987 27 6.11465 27 6.36943 26.8708L6.24204 26.4833C5.98726 26.6124 5.73248 26.6124 5.4777 26.6124C5.22293 26.6124 5.09554 26.6124 4.84076 26.3541C4.71337 26.2249 4.58599 25.9665 4.58599 25.7081H6.49681C6.49681 25.5789 6.49681 25.5789 6.49681 25.4498C6.49681 25.0622 6.36943 24.8038 6.24204 24.5455C5.98726 24.1579 5.73248 24.0287 5.35032 24.0287ZM5.35032 24.4163C5.60509 24.4163 5.73248 24.5455 5.85987 24.6746C5.98726 24.8038 5.98726 24.933 5.98726 25.1914H4.71337C4.71337 25.0622 4.84076 24.8038 4.84076 24.6746C4.96815 24.5455 5.09554 24.4163 5.35032 24.4163ZM3.94904 18.6029H4.07643V17.9569H3.94904C3.82166 17.9569 3.69426 17.9569 3.56687 18.0861C3.43949 18.2153 3.3121 18.3445 3.3121 18.4737V17.9569H2.67516C2.67516 18.2153 2.67516 18.4737 2.67516 18.8612V20.799H3.3121V19.378C3.3121 19.1196 3.3121 18.9904 3.43949 18.8612C3.56688 18.6029 3.82166 18.6029 3.94904 18.6029ZM2.03821 18.8612C2.29299 18.6029 2.29299 18.3445 2.29299 17.9569C2.29299 17.5694 2.16561 17.311 1.91083 17.0526C1.65605 16.7943 1.27388 16.7943 0.891716 16.7943C0.50955 16.7943 0.127389 16.7943 0 16.9234V20.799H0.509556V19.378C0.636945 19.378 0.764328 19.378 0.891716 19.378C1.40127 19.378 1.78344 19.2488 2.03821 18.8612ZM1.65605 18.0861C1.65605 18.3445 1.52866 18.4737 1.40127 18.6029C1.27388 18.7321 1.01911 18.8612 0.764329 18.8612C0.636941 18.8612 0.509548 18.8612 0.38216 18.8612V17.4402C0.509548 17.4402 0.636941 17.4402 0.764329 17.4402C1.01911 17.4402 1.27388 17.4402 1.40127 17.5694C1.65605 17.6986 1.65605 17.8278 1.65605 18.0861ZM2.29299 22.9952C1.91082 22.9952 1.52866 22.9952 1.27389 23.1244V27H1.91083V25.3206H2.29299C2.54777 25.3206 2.67516 25.3206 2.80254 25.4498C2.92993 25.5789 2.92994 25.7081 3.05733 25.9665C3.18472 26.4833 3.18471 26.7416 3.3121 26.8708H3.94904C3.94904 26.7416 3.82166 26.6124 3.82166 26.4833C3.82166 26.3541 3.69427 26.0957 3.69427 25.8373C3.56688 25.4498 3.43949 25.1914 3.18471 25.0622C3.43949 24.933 3.56688 24.933 3.69427 24.6746C3.82166 24.5455 3.94904 24.2871 3.94904 24.0287C3.94904 23.6411 3.82165 23.3828 3.56687 23.2536C3.18471 23.1244 2.80254 22.9952 2.29299 22.9952ZM1.91083 23.512C2.03822 23.512 2.1656 23.512 2.29299 23.512C2.80254 23.512 3.05733 23.7703 3.05733 24.1579C3.05733 24.4163 2.92993 24.5455 2.80254 24.6746C2.67516 24.8038 2.42038 24.933 2.29299 24.933H1.91083V23.512ZM7.00637 26.3541L6.87898 26.8708C7.13376 27 7.38854 27 7.64331 27C8.02548 27 8.28025 26.8708 8.40764 26.7416C8.53503 26.6124 8.66242 26.3541 8.66242 26.0957C8.66242 25.7081 8.40764 25.4498 7.89809 25.1914C7.7707 25.0622 7.64332 25.0622 7.51593 25.0622C7.38854 25.0622 7.38853 24.933 7.38853 24.8038C7.38853 24.6746 7.38854 24.6746 7.51593 24.5455C7.64332 24.5455 7.64331 24.4163 7.7707 24.4163C8.02548 24.4163 8.15287 24.4163 8.28026 24.5455L8.40764 24.1579C8.28025 24.0287 8.02548 24.0287 7.7707 24.0287C7.51592 24.0287 7.26115 24.1579 7.00637 24.2871C6.87898 24.4163 6.75159 24.6746 6.75159 24.933C6.75159 25.3206 7.00637 25.5789 7.51593 25.7081C7.64332 25.8373 7.7707 25.8373 7.89809 25.8373C8.02548 25.9665 8.02547 25.9665 8.02547 26.0957C8.02547 26.3541 7.89809 26.4833 7.51593 26.4833C7.38854 26.4833 7.13376 26.4833 7.00637 26.3541ZM8.40764 18.4737C8.53503 18.4737 8.66242 18.4737 8.78981 18.6029C8.9172 18.7321 8.9172 18.8612 8.9172 19.1196V20.799H9.55414V19.1196C9.55414 18.9904 9.55414 18.8612 9.68153 18.7321C9.80892 18.6029 9.93631 18.6029 10.0637 18.6029C10.3185 18.6029 10.5732 18.8612 10.5732 19.378V20.9282H11.2102V19.2488C11.2102 18.8612 11.0828 18.4737 10.9554 18.3445C10.828 18.2153 10.5732 18.0861 10.3185 18.0861C10.1911 18.0861 9.9363 18.0861 9.80892 18.2153C9.68153 18.3445 9.55414 18.4737 9.42676 18.6029C9.29937 18.2153 9.04458 18.0861 8.66242 18.0861C8.28025 18.0861 8.02548 18.2153 7.89809 18.6029V18.2153H7.38853C7.38853 18.4737 7.38853 18.7321 7.38853 18.9904V21.0574H8.02547V19.378C8.02547 19.2488 8.02548 18.9904 8.15287 18.8612C8.15287 18.4737 8.28025 18.4737 8.40764 18.4737ZM9.42676 24.4163C9.17198 24.6746 9.04459 25.0622 9.04459 25.4498C9.04459 25.8373 9.17198 26.2249 9.42676 26.4833C9.68153 26.7416 9.93631 26.8708 10.3185 26.8708C10.7006 26.8708 10.9554 26.8708 11.2102 26.7416L11.0828 26.3541C10.828 26.4833 10.5732 26.4833 10.3185 26.4833C10.0637 26.4833 9.9363 26.4833 9.80892 26.2249C9.68153 26.0957 9.55414 25.8373 9.55414 25.5789H11.3376C11.3376 25.4498 11.3376 25.4498 11.3376 25.3206C11.3376 24.933 11.2102 24.6746 11.0828 24.4163C10.828 24.1579 10.5733 23.8995 10.1911 23.8995C9.93631 24.0287 9.68153 24.1579 9.42676 24.4163ZM9.68153 25.1914C9.68153 25.0622 9.80892 24.8038 9.80892 24.6746C9.9363 24.5455 10.0637 24.4163 10.1911 24.4163C10.4459 24.4163 10.5733 24.5455 10.7006 24.6746C10.828 24.8038 10.828 24.933 10.828 25.1914H9.68153ZM11.8471 16.9234C11.7197 17.0526 11.7197 17.0526 11.7197 17.1818C11.7197 17.311 11.7197 17.311 11.8471 17.4402C11.9745 17.5694 11.9745 17.5694 12.1019 17.5694C12.2293 17.5694 12.3567 17.5694 12.3567 17.4402C12.4841 17.311 12.4841 17.311 12.4841 17.1818C12.4841 17.0526 12.4841 17.0526 12.3567 16.9234C12.3567 16.7943 12.2293 16.7943 12.1019 16.7943C11.9745 16.7943 11.9745 16.7943 11.8471 16.9234ZM12.4841 17.9569H11.8471V20.799H12.4841V17.9569ZM12.6115 22.7368H11.9745V26.8708H12.6115V22.7368ZM13.8854 22.7368H13.2484V26.8708H13.8854V22.7368ZM17.9618 24.0287H17.4522C17.4522 24.2871 17.4522 24.5455 17.4522 24.933V26.8708H18.0892V25.4498C18.0892 25.1914 18.0892 25.0622 18.2166 24.933C18.3439 24.8038 18.4713 24.6746 18.7261 24.6746C18.8535 24.6746 18.8535 24.6746 18.8535 24.6746V24.0287H18.7261C18.5987 24.0287 18.4713 24.0287 18.344 24.1579C18.2166 24.2871 18.0892 24.4163 18.0892 24.5455L17.9618 24.0287Z" fill="black"/>
</svg>
