<svg width="92" height="25" viewBox="0 0 92 25" fill="none" xmlns="http://www.w3.org/2000/svg">
<path d="M91.2815 10.4976V6.49283C90.8947 6.36364 90.7657 6.36364 90.25 6.36364C88.4449 6.36364 86.5108 7.52632 85.7372 9.98087H85.6083V6.7512H81.998C82.127 8.30144 82.127 9.85168 82.127 12.177V23.6746H86.253V14.89C86.253 14.3732 86.3819 13.9857 86.3819 13.5981C86.7687 11.6603 88.0581 10.3684 90.1211 10.3684C90.6368 10.3684 91.0236 10.4976 91.2815 10.4976ZM79.5482 16.4402C79.6772 16.0526 79.6772 15.4067 79.6772 14.6316C79.6772 10.8852 77.872 6.36364 72.5856 6.36364C67.2992 6.36364 64.4626 10.756 64.4626 15.4067C64.4626 20.5742 67.686 23.933 72.9724 23.933C75.2933 23.933 77.3563 23.5455 78.7746 22.8995L78.1299 19.9282C76.8406 20.445 75.4222 20.7034 73.4882 20.7034C70.7805 20.7034 68.4596 19.4115 68.3307 16.311H79.5482V16.4402ZM75.8091 13.4689H68.5886C68.7175 11.7895 69.878 9.33493 72.4567 9.33493C75.1644 9.33493 75.8091 11.9187 75.8091 13.4689ZM59.563 9.98087H63.56V6.7512H59.563V1.9713L55.437 3.00479V6.88039H53.1161V10.1101H55.437V18.1196C55.437 20.3158 55.8238 21.866 56.7264 22.8995C57.5 23.8038 58.7894 24.3206 60.3366 24.3206C61.626 24.3206 62.7864 24.1914 63.3022 23.933L63.1732 20.7034C62.7864 20.8325 62.2707 20.9617 61.497 20.9617C59.9498 20.9617 59.3051 19.9282 59.3051 17.8613V9.98087H59.563ZM47.314 23.6746H51.44V13.5981C51.44 8.30144 48.4744 6.36364 45.5089 6.36364C42.8012 6.36364 40.9961 7.91388 40.2224 9.33493H40.0935L39.8356 6.7512H36.2254C36.3543 8.17226 36.3543 9.85168 36.3543 11.7895V23.6746H40.6093V13.7273C40.6093 13.2105 40.6092 12.6938 40.7382 12.3062C41.125 11.0144 42.2854 9.85168 43.9616 9.85168C46.2825 9.85168 47.185 11.6603 47.185 14.1148V23.6746H47.314ZM34.0335 16.4402C34.1624 16.0526 34.1624 15.4067 34.1624 14.6316C34.1624 10.8852 32.3573 6.36364 27.0709 6.36364C21.7844 6.36364 18.9478 10.756 18.9478 15.4067C18.9478 20.5742 22.1713 23.933 27.4577 23.933C29.7785 23.933 31.8415 23.5455 33.2598 22.8995L32.6152 19.9282C31.3258 20.445 29.9075 20.7034 27.9734 20.7034C25.2657 20.7034 22.9449 19.4115 22.8159 16.311H34.0335V16.4402ZM30.2943 13.4689H22.9449C23.0738 11.6603 24.2343 9.33493 26.813 9.33493C29.6496 9.33493 30.2943 11.9187 30.2943 13.4689ZM16.498 5.20096L17.4006 1.9713C16.627 1.58374 14.6929 0.937805 12.1142 0.937805C5.40945 0.937805 0.380905 5.45934 0.380905 12.823C0.380905 19.6699 4.63583 24.0622 11.5984 24.0622C14.1772 24.0622 16.3691 23.5455 17.2717 23.0287L16.498 19.799C15.4665 20.3158 13.7904 20.5742 12.1142 20.5742C7.3435 20.5742 4.50689 17.4737 4.50689 12.4354C4.50689 7.00958 7.73031 4.16747 12.2431 4.16747C14.0482 4.29666 15.4665 4.68422 16.498 5.20096Z" fill="black"/>
</svg>
