<svg width="30" height="30" viewBox="0 0 30 30" fill="none" xmlns="http://www.w3.org/2000/svg">
<circle cx="15" cy="15" r="15" fill="#395794"/>
<path d="M12.6139 9.09868C12.6139 9.50188 12.6139 11.3016 12.6139 11.3016H11V13.9952H12.6139V21.9999H15.9292V13.9955H18.1539C18.1539 13.9955 18.3623 12.7039 18.4633 11.2916C18.1737 11.2916 15.9417 11.2916 15.9417 11.2916C15.9417 11.2916 15.9417 9.72452 15.9417 9.44984C15.9417 9.17456 16.3032 8.80428 16.6605 8.80428C17.0171 8.80428 17.7697 8.80428 18.4668 8.80428C18.4668 8.43753 18.4668 7.17033 18.4668 6C17.5362 6 16.4775 6 16.0108 6C12.532 5.99981 12.6139 8.69618 12.6139 9.09868Z" fill="white"/>
</svg>
