<svg width="30" height="30" viewBox="0 0 30 30" fill="none" xmlns="http://www.w3.org/2000/svg">
<circle cx="15" cy="15" r="15" fill="url(#paint0_linear)"/>
<path d="M9.6686 8H19.3314C20.2491 8 20.9999 8.6794 20.9999 9.66846V19.3315C20.9999 20.3206 20.2491 21 19.3314 21H9.6686C8.75068 21 8 20.3206 8 19.3315V9.66846C8 8.6794 8.75068 8 9.6686 8ZM17.4699 9.44436C17.148 9.44436 16.8849 9.70757 16.8849 10.0297V11.4305C16.8849 11.7524 17.148 12.0158 17.4699 12.0158H18.9392C19.2612 12.0158 19.5245 11.7524 19.5245 11.4305V10.0297C19.5245 9.70757 19.2612 9.44436 18.9392 9.44436H17.4699ZM19.5307 13.4977H18.3865C18.4948 13.8511 18.5534 14.2255 18.5534 14.6129C18.5534 16.7752 16.7439 18.528 14.5123 18.528C12.2809 18.528 10.4717 16.7752 10.4717 14.6129C10.4717 14.2252 10.5302 13.851 10.6386 13.4977H9.44462V18.989C9.44462 19.2732 9.67714 19.5059 9.96145 19.5059H19.0141C19.2984 19.5059 19.531 19.2733 19.531 18.989V13.4977H19.5307ZM14.5122 11.942C13.0704 11.942 11.9014 13.0745 11.9014 14.4718C11.9014 15.869 13.0704 17.0016 14.5122 17.0016C15.9542 17.0016 17.1233 15.869 17.1233 14.4718C17.1233 13.0745 15.9543 11.942 14.5122 11.942Z" fill="white"/>
<defs>
<linearGradient id="paint0_linear" x1="24.5" y1="-6" x2="12" y2="38.5" gradientUnits="userSpaceOnUse">
<stop stop-color="#803DB2"/>
<stop offset="0.536458" stop-color="#E51330"/>
<stop offset="1" stop-color="#F9CB01"/>
</linearGradient>
</defs>
</svg>
