<svg width="30" height="30" viewBox="0 0 30 30" fill="none" xmlns="http://www.w3.org/2000/svg">
<circle cx="15" cy="15" r="15" fill="#5181B8"/>
<path d="M22.9098 19.0311C22.8893 18.9854 22.8701 18.9474 22.8522 18.917C22.5573 18.3693 21.9937 17.6971 21.1617 16.9001L21.1441 16.8819L21.1353 16.8729L21.1264 16.8637H21.1175C20.7399 16.4926 20.5007 16.2431 20.4006 16.1153C20.2174 15.872 20.1763 15.6256 20.2765 15.376C20.3472 15.1874 20.613 14.7892 21.0731 14.1807C21.3151 13.8582 21.5068 13.5998 21.6484 13.4051C22.6693 12.0057 23.1119 11.1115 22.9761 10.7221L22.9234 10.6311C22.8879 10.5763 22.7965 10.5262 22.6491 10.4805C22.5014 10.4349 22.3127 10.4274 22.0825 10.4578L19.5334 10.4759C19.4921 10.4608 19.4331 10.4622 19.3563 10.4805C19.2796 10.4988 19.2412 10.508 19.2412 10.508L19.1968 10.5308L19.1616 10.5583C19.1321 10.5764 19.0997 10.6084 19.0642 10.654C19.029 10.6995 18.9995 10.7529 18.9759 10.8137C18.6984 11.5498 18.3829 12.2343 18.0287 12.8669C17.8104 13.2442 17.6099 13.5711 17.4267 13.848C17.2439 14.1247 17.0904 14.3286 16.9666 14.4593C16.8426 14.5901 16.7307 14.6949 16.6302 14.7741C16.5298 14.8533 16.4532 14.8868 16.4002 14.8745C16.347 14.8623 16.297 14.8501 16.2496 14.838C16.167 14.7832 16.1006 14.7087 16.0505 14.6144C16.0002 14.5201 15.9664 14.4014 15.9487 14.2585C15.9311 14.1154 15.9207 13.9923 15.9177 13.8889C15.9149 13.7855 15.9162 13.6394 15.9222 13.4508C15.9283 13.2621 15.9311 13.1345 15.9311 13.0675C15.9311 12.8363 15.9354 12.5854 15.9442 12.3146C15.9531 12.0439 15.9604 11.8294 15.9664 11.6714C15.9724 11.5132 15.9752 11.3458 15.9752 11.1694C15.9752 10.993 15.9648 10.8546 15.9442 10.7542C15.9239 10.6539 15.8927 10.5565 15.8515 10.4621C15.8101 10.3678 15.7496 10.2949 15.6701 10.2431C15.5904 10.1914 15.4914 10.1504 15.3736 10.1199C15.0608 10.0469 14.6625 10.0074 14.1786 10.0013C13.0811 9.98915 12.3759 10.0622 12.0631 10.2204C11.9392 10.2872 11.8271 10.3786 11.7268 10.4941C11.6206 10.628 11.6058 10.701 11.6825 10.713C12.0366 10.7677 12.2872 10.8986 12.4348 11.1054L12.4879 11.215C12.5293 11.2941 12.5706 11.4341 12.6119 11.6348C12.6532 11.8355 12.6798 12.0576 12.6915 12.3008C12.721 12.745 12.721 13.1252 12.6915 13.4415C12.662 13.758 12.6341 14.0043 12.6075 14.1807C12.5808 14.3572 12.541 14.5001 12.4879 14.6096C12.4348 14.7191 12.3994 14.786 12.3817 14.8103C12.364 14.8346 12.3492 14.8499 12.3375 14.8559C12.2608 14.8862 12.181 14.9017 12.0985 14.9017C12.0158 14.9017 11.9155 14.859 11.7975 14.7738C11.6796 14.6886 11.5572 14.5716 11.4303 14.4225C11.3034 14.2734 11.1603 14.065 11.0009 13.7974C10.8416 13.5297 10.6764 13.2134 10.5053 12.8484L10.3637 12.5836C10.2752 12.4133 10.1543 12.1654 10.0008 11.84C9.84733 11.5144 9.71163 11.1995 9.59367 10.8953C9.54652 10.7676 9.47568 10.6703 9.38128 10.6034L9.33698 10.5759C9.30753 10.5516 9.26025 10.5258 9.19539 10.4984C9.13045 10.4709 9.06268 10.4512 8.99181 10.4391L6.56658 10.4572C6.31876 10.4572 6.15061 10.5151 6.06207 10.6307L6.02663 10.6854C6.00893 10.7159 6 10.7645 6 10.8315C6 10.8984 6.0177 10.9806 6.05314 11.0778C6.40717 11.9357 6.79218 12.7631 7.20816 13.56C7.62414 14.357 7.98562 14.999 8.29238 15.4854C8.5992 15.9722 8.91195 16.4316 9.23061 16.8634C9.54928 17.2954 9.76021 17.5722 9.86342 17.6938C9.96674 17.8156 10.0479 17.9067 10.1069 17.9676L10.3282 18.1865C10.4698 18.3326 10.6778 18.5075 10.9522 18.7112C11.2266 18.9151 11.5305 19.1159 11.8639 19.3137C12.1973 19.5113 12.5853 19.6725 13.0279 19.7972C13.4704 19.922 13.9012 19.9721 14.3201 19.948H15.338C15.5445 19.9296 15.7009 19.8626 15.8072 19.7471L15.8424 19.7014C15.8661 19.6651 15.8883 19.6087 15.9087 19.5328C15.9294 19.4567 15.9397 19.3729 15.9397 19.2818C15.9337 19.0203 15.953 18.7845 15.9971 18.5747C16.0413 18.3649 16.0915 18.2067 16.1478 18.1001C16.204 17.9937 16.2674 17.9039 16.338 17.8311C16.4087 17.7581 16.4592 17.7139 16.4887 17.6987C16.5181 17.6834 16.5416 17.673 16.5593 17.6668C16.7009 17.6181 16.8676 17.6652 17.0595 17.8083C17.2513 17.9513 17.4312 18.1278 17.5995 18.3376C17.7677 18.5476 17.9698 18.7832 18.2058 19.0448C18.4419 19.3064 18.6484 19.5009 18.8253 19.6289L19.0023 19.7384C19.1205 19.8114 19.2739 19.8784 19.4627 19.9392C19.6513 20 19.8164 20.0152 19.9583 19.9848L22.2241 19.9484C22.4482 19.9484 22.6226 19.9101 22.7463 19.8342C22.8702 19.7582 22.9439 19.6744 22.9676 19.5833C22.9913 19.492 22.9926 19.3885 22.9721 19.2728C22.9511 19.1574 22.9304 19.0767 22.9098 19.0311Z" fill="white"/>
</svg>
