<svg xmlns="http://www.w3.org/2000/svg" xmlns:xlink="http://www.w3.org/1999/xlink" width="10" height="16" viewBox="0 0 10 16"><defs><path id="p2oha" d="M666.009 9791.145c-.68.321-1.297.548-1.849.678a7.804 7.804 0 0 1-1.79.195 4.868 4.868 0 0 1-1.717-.276 4.173 4.173 0 0 1-1.43-.79c-.397-.343-.67-.709-.824-1.092-.152-.386-.228-.944-.228-1.677v-5.614h-2.164v-2.267c.626-.204 1.351-.497 1.796-.879.448-.382.805-.84 1.075-1.375.27-.534.457-1.213.558-2.04h2.265v3.704h3.682v2.857h-3.682v4.105c0 .929-.012 1.464.086 1.727.097.262.341.534.607.69.353.213.755.32 1.209.32.806 0 1.608-.264 2.406-.79z"/></defs><g><g transform="translate(-656 -9776)"><use fill="#95e1d3" xlink:href="#p2oha"/></g></g></svg>