<svg width="111" height="144" viewBox="0 0 111 144" fill="none" xmlns="http://www.w3.org/2000/svg">
<path d="M21.0859 76H32.7656V19.6328H21.0469L6.47656 29.75V40.375L20.8516 30.4531H21.0859V76ZM67.4922 77.25C81.6719 77.25 90.2656 65.8828 90.2656 47.6797C90.2656 29.4766 81.5938 18.3438 67.4922 18.3438C53.3906 18.3438 44.6797 29.5156 44.6797 47.7188C44.6797 65.9609 53.3125 77.25 67.4922 77.25ZM67.4922 67.7969C60.7734 67.7969 56.6719 60.5312 56.6719 47.7188C56.6719 35.0234 60.8516 27.7969 67.4922 27.7969C74.1719 27.7969 78.2734 34.9844 78.2734 47.7188C78.2734 60.5703 74.2109 67.7969 67.4922 67.7969Z" fill="#C6C9CE"/>
<path d="M91.6641 60.9746C91.6641 57.5322 89.7305 55.3789 86.6396 55.3789C83.5488 55.3789 81.6152 57.5322 81.6152 60.9746C81.6152 64.4316 83.5488 66.5703 86.6396 66.5703C89.7305 66.5703 91.6641 64.4316 91.6641 60.9746ZM86.6396 63.5527C85.8633 63.5527 85.3945 62.5859 85.3945 60.9453C85.3945 59.3047 85.8633 58.3379 86.6396 58.3379C87.416 58.3379 87.8848 59.3047 87.8848 60.9453C87.8848 62.5859 87.416 63.5527 86.6396 63.5527ZM88.2217 77L95.6338 66.834L103.632 55.8623H99.5596L92.3818 65.7207L84.1494 77H88.2217ZM106.166 71.7412C106.166 68.2988 104.232 66.1602 101.142 66.1602C98.0508 66.1602 96.1172 68.2988 96.1172 71.7412C96.1172 75.1982 98.0508 77.3369 101.142 77.3369C104.232 77.3369 106.166 75.1982 106.166 71.7412ZM101.142 74.3193C100.365 74.3193 99.8965 73.3525 99.8965 71.7119C99.8965 70.0713 100.365 69.1045 101.142 69.1045C101.918 69.1045 102.387 70.0713 102.387 71.7119C102.387 73.3525 101.918 74.3193 101.142 74.3193Z" fill="#C6C9CE"/>
<path d="M88.2217 77V77.5H88.4759L88.6257 77.2946L88.2217 77ZM95.6338 66.834L96.0378 67.1286L96.0378 67.1285L95.6338 66.834ZM103.632 55.8623L104.036 56.1568L104.615 55.3623H103.632V55.8623ZM99.5596 55.8623V55.3623H99.3051L99.1554 55.568L99.5596 55.8623ZM92.3818 65.7207L92.7857 66.0155L92.786 66.015L92.3818 65.7207ZM84.1494 77L83.7455 76.7052L83.1655 77.5H84.1494V77ZM92.1641 60.9746C92.1641 59.1624 91.6544 57.6337 90.6829 56.5518C89.706 55.4638 88.3074 54.8789 86.6396 54.8789V55.8789C88.0627 55.8789 89.1763 56.3707 89.9389 57.2199C90.7069 58.0753 91.1641 59.3444 91.1641 60.9746H92.1641ZM86.6396 54.8789C84.9719 54.8789 83.5733 55.4638 82.5964 56.5518C81.6249 57.6337 81.1152 59.1624 81.1152 60.9746H82.1152C82.1152 59.3444 82.5724 58.0753 83.3404 57.2199C84.103 56.3707 85.2166 55.8789 86.6396 55.8789V54.8789ZM81.1152 60.9746C81.1152 62.7937 81.6247 64.3228 82.5967 65.4033C83.5741 66.4898 84.9729 67.0703 86.6396 67.0703V66.0703C85.2155 66.0703 84.1021 65.5815 83.3401 64.7344C82.5726 63.8813 82.1152 62.6126 82.1152 60.9746H81.1152ZM86.6396 67.0703C88.3064 67.0703 89.7052 66.4898 90.6826 65.4033C91.6546 64.3228 92.1641 62.7937 92.1641 60.9746H91.1641C91.1641 62.6126 90.7067 63.8813 89.9392 64.7344C89.1772 65.5815 88.0638 66.0703 86.6396 66.0703V67.0703ZM86.6396 63.0527C86.508 63.0527 86.3397 62.9879 86.1768 62.6481C86.0083 62.2966 85.8945 61.7294 85.8945 60.9453H84.8945C84.8945 61.8019 85.0152 62.5384 85.2751 63.0804C85.5406 63.6342 85.995 64.0527 86.6396 64.0527V63.0527ZM85.8945 60.9453C85.8945 60.1612 86.0083 59.594 86.1768 59.2426C86.3397 58.9027 86.508 58.8379 86.6396 58.8379V57.8379C85.995 57.8379 85.5406 58.2564 85.2751 58.8102C85.0152 59.3522 84.8945 60.0888 84.8945 60.9453H85.8945ZM86.6396 58.8379C86.7713 58.8379 86.9396 58.9027 87.1025 59.2426C87.271 59.594 87.3848 60.1612 87.3848 60.9453H88.3848C88.3848 60.0888 88.2641 59.3522 88.0042 58.8102C87.7387 58.2564 87.2843 57.8379 86.6396 57.8379V58.8379ZM87.3848 60.9453C87.3848 61.7294 87.271 62.2966 87.1025 62.6481C86.9396 62.9879 86.7713 63.0527 86.6396 63.0527V64.0527C87.2843 64.0527 87.7387 63.6342 88.0042 63.0804C88.2641 62.5384 88.3848 61.8019 88.3848 60.9453H87.3848ZM88.6257 77.2946L96.0378 67.1286L95.2298 66.5394L87.8177 76.7054L88.6257 77.2946ZM96.0378 67.1285L104.036 56.1568L103.228 55.5678L95.2297 66.5394L96.0378 67.1285ZM103.632 55.3623H99.5596V56.3623H103.632V55.3623ZM99.1554 55.568L91.9776 65.4264L92.786 66.015L99.9638 56.1566L99.1554 55.568ZM91.978 65.4259L83.7455 76.7052L84.5533 77.2948L92.7857 66.0155L91.978 65.4259ZM84.1494 77.5H88.2217V76.5H84.1494V77.5ZM106.666 71.7412C106.666 69.929 106.156 68.4035 105.184 67.325C104.207 66.2406 102.808 65.6602 101.142 65.6602V66.6602C102.566 66.6602 103.679 67.149 104.441 67.9945C105.209 68.846 105.666 70.1111 105.666 71.7412H106.666ZM101.142 65.6602C99.4749 65.6602 98.0763 66.2406 97.0989 67.325C96.1269 68.4035 95.6172 69.929 95.6172 71.7412H96.6172C96.6172 70.1111 97.0743 68.846 97.8417 67.9945C98.6038 67.149 99.7174 66.6602 101.142 66.6602V65.6602ZM95.6172 71.7412C95.6172 73.5603 96.1266 75.0894 97.0986 76.1699C98.0761 77.2564 99.4749 77.8369 101.142 77.8369V76.8369C99.7175 76.8369 98.6041 76.3481 97.8421 75.501C97.0745 74.6479 96.6172 73.3792 96.6172 71.7412H95.6172ZM101.142 77.8369C102.808 77.8369 104.207 77.2564 105.185 76.1699C106.157 75.0894 106.666 73.5603 106.666 71.7412H105.666C105.666 73.3792 105.209 74.6479 104.441 75.501C103.679 76.3481 102.566 76.8369 101.142 76.8369V77.8369ZM101.142 73.8193C101.01 73.8193 100.842 73.7545 100.679 73.4147C100.51 73.0632 100.396 72.496 100.396 71.7119H99.3965C99.3965 72.5685 99.5171 73.305 99.7771 73.847C100.043 74.4008 100.497 74.8193 101.142 74.8193V73.8193ZM100.396 71.7119C100.396 70.9278 100.51 70.3607 100.679 70.0092C100.842 69.6693 101.01 69.6045 101.142 69.6045V68.6045C100.497 68.6045 100.043 69.023 99.7771 69.5768C99.5171 70.1188 99.3965 70.8554 99.3965 71.7119H100.396ZM101.142 69.6045C101.273 69.6045 101.442 69.6693 101.604 70.0092C101.773 70.3607 101.887 70.9278 101.887 71.7119H102.887C102.887 70.8554 102.766 70.1188 102.506 69.5768C102.241 69.023 101.786 68.6045 101.142 68.6045V69.6045ZM101.887 71.7119C101.887 72.496 101.773 73.0632 101.604 73.4147C101.442 73.7545 101.273 73.8193 101.142 73.8193V74.8193C101.786 74.8193 102.241 74.4008 102.506 73.847C102.766 73.305 102.887 72.5685 102.887 71.7119H101.887Z" fill="white"/>
<path d="M10.3745 107H11.5742L8.19727 97.8403H7.06738L3.69043 107H4.89014L5.81055 104.378H9.4541L10.3745 107ZM7.61328 99.2305H7.65137L9.11768 103.407H6.14697L7.61328 99.2305ZM14.8115 103.521L17.8965 100.398H16.5317L13.7134 103.318H13.6626V100.398H12.5708V107H13.6626V103.826H13.7134L16.5635 107H17.9854L14.8115 103.521ZM24.2441 102.43C24.0474 101.306 23.0762 100.284 21.4829 100.284C19.6548 100.284 18.4614 101.643 18.4614 103.699C18.4614 105.8 19.6611 107.114 21.4956 107.114C22.981 107.114 24.041 106.232 24.2568 104.981H23.165C22.9556 105.711 22.3779 106.143 21.502 106.143C20.353 106.143 19.585 105.21 19.585 103.699C19.585 102.227 20.3403 101.255 21.4893 101.255C22.4224 101.255 22.9619 101.795 23.1523 102.43H24.2441ZM28.0591 101.243C29.1001 101.243 29.792 102.03 29.8174 103.134H26.231C26.3008 102.036 27.0244 101.243 28.0591 101.243ZM29.792 105.108C29.6079 105.73 28.9922 106.156 28.1543 106.156C26.9673 106.156 26.2246 105.324 26.2246 104.061V103.998H30.96V103.579C30.96 101.579 29.8618 100.284 28.0781 100.284C26.2563 100.284 25.0884 101.674 25.0884 103.725C25.0884 105.8 26.2373 107.114 28.1289 107.114C29.5698 107.114 30.687 106.264 30.8774 105.108H29.792ZM37.6504 102.43C37.4536 101.306 36.4824 100.284 34.8892 100.284C33.061 100.284 31.8677 101.643 31.8677 103.699C31.8677 105.8 33.0674 107.114 34.9019 107.114C36.3872 107.114 37.4473 106.232 37.6631 104.981H36.5713C36.3618 105.711 35.7842 106.143 34.9082 106.143C33.7593 106.143 32.9912 105.21 32.9912 103.699C32.9912 102.227 33.7466 101.255 34.8955 101.255C35.8286 101.255 36.3682 101.795 36.5586 102.43H37.6504ZM44.2773 102.43C44.0806 101.306 43.1094 100.284 41.5161 100.284C39.688 100.284 38.4946 101.643 38.4946 103.699C38.4946 105.8 39.6943 107.114 41.5288 107.114C43.0142 107.114 44.0742 106.232 44.29 104.981H43.1982C42.9888 105.711 42.4111 106.143 41.5352 106.143C40.3862 106.143 39.6182 105.21 39.6182 103.699C39.6182 102.227 40.3735 101.255 41.5225 101.255C42.4556 101.255 42.9951 101.795 43.1855 102.43H44.2773ZM45.9277 109.469C47.1211 109.469 47.667 109.006 48.2319 107.463L50.8281 100.398H49.6665L47.8384 105.896H47.8193L45.9912 100.398H44.8105L47.248 107.006L47.0957 107.47C46.8418 108.238 46.499 108.536 45.8833 108.536C45.7437 108.536 45.5723 108.53 45.4517 108.504V109.431C45.5723 109.457 45.7944 109.469 45.9277 109.469ZM53.8052 106.175C53.0117 106.175 52.4849 105.762 52.4849 105.134C52.4849 104.512 52.9927 104.118 53.8813 104.061L55.646 103.953V104.493C55.646 105.445 54.8462 106.175 53.8052 106.175ZM53.5576 107.114C54.4463 107.114 55.2842 106.619 55.6777 105.864H55.7031V107H56.7505V102.436C56.7505 101.122 55.7729 100.284 54.2241 100.284C52.6626 100.284 51.6851 101.16 51.6089 102.303H52.6753C52.8149 101.655 53.3481 101.255 54.1987 101.255C55.1128 101.255 55.646 101.738 55.646 102.544V103.096L53.7544 103.204C52.231 103.293 51.3613 104.004 51.3613 105.134C51.3613 106.321 52.2437 107.114 53.5576 107.114ZM61.4858 100.284C60.5273 100.284 59.7593 100.773 59.353 101.516H59.3276V100.398H58.2803V109.203H59.3848V105.927H59.4102C59.8037 106.651 60.5654 107.114 61.5112 107.114C63.1743 107.114 64.3105 105.769 64.3105 103.699C64.3105 101.63 63.168 100.284 61.4858 100.284ZM61.27 106.143C60.1401 106.143 59.3784 105.172 59.3784 103.699C59.3784 102.233 60.1401 101.255 61.27 101.255C62.4443 101.255 63.1807 102.208 63.1807 103.699C63.1807 105.197 62.4443 106.143 61.27 106.143ZM71.1851 107H72.2769V100.398H71.1851V107ZM67.8589 103.414C68.7095 103.414 69.2681 103.94 69.2681 104.753C69.2681 105.559 68.7158 106.092 67.8589 106.092H66.6274V103.414H67.8589ZM65.5356 107H67.8779C69.3887 107 70.3599 106.13 70.3599 104.753C70.3599 103.375 69.3887 102.506 67.8779 102.506H66.6274V100.398H65.5356V107ZM82.5601 107H83.7598L80.3828 97.8403H79.2529L75.876 107H77.0757L77.9961 104.378H81.6396L82.5601 107ZM79.7988 99.2305H79.8369L81.3032 103.407H78.3325L79.7988 99.2305ZM87.8413 100.284C86.8828 100.284 86.1147 100.773 85.7085 101.516H85.6831V100.398H84.6357V109.203H85.7402V105.927H85.7656C86.1592 106.651 86.9209 107.114 87.8667 107.114C89.5298 107.114 90.666 105.769 90.666 103.699C90.666 101.63 89.5234 100.284 87.8413 100.284ZM87.6255 106.143C86.4956 106.143 85.7339 105.172 85.7339 103.699C85.7339 102.233 86.4956 101.255 87.6255 101.255C88.7998 101.255 89.5361 102.208 89.5361 103.699C89.5361 105.197 88.7998 106.143 87.6255 106.143ZM94.9888 100.284C94.0303 100.284 93.2622 100.773 92.856 101.516H92.8306V100.398H91.7832V109.203H92.8877V105.927H92.9131C93.3066 106.651 94.0684 107.114 95.0142 107.114C96.6772 107.114 97.8135 105.769 97.8135 103.699C97.8135 101.63 96.6709 100.284 94.9888 100.284ZM94.7729 106.143C93.6431 106.143 92.8813 105.172 92.8813 103.699C92.8813 102.233 93.6431 101.255 94.7729 101.255C95.9473 101.255 96.6836 102.208 96.6836 103.699C96.6836 105.197 95.9473 106.143 94.7729 106.143ZM98.9878 107H100.092V97.8403H98.9878V107ZM104.231 101.243C105.272 101.243 105.964 102.03 105.989 103.134H102.403C102.473 102.036 103.196 101.243 104.231 101.243ZM105.964 105.108C105.78 105.73 105.164 106.156 104.326 106.156C103.139 106.156 102.396 105.324 102.396 104.061V103.998H107.132V103.579C107.132 101.579 106.034 100.284 104.25 100.284C102.428 100.284 101.26 101.674 101.26 103.725C101.26 105.8 102.409 107.114 104.301 107.114C105.742 107.114 106.859 106.264 107.049 105.108H105.964ZM21.8003 124L25.1011 119.087H25.1519V124H26.2437V117.398H25.1519L21.8511 122.312H21.8003V117.398H20.7085V124H21.8003ZM35.9238 119.43C35.7271 118.306 34.7559 117.284 33.1626 117.284C31.3345 117.284 30.1411 118.643 30.1411 120.699C30.1411 122.8 31.3408 124.114 33.1753 124.114C34.6606 124.114 35.7207 123.232 35.9365 121.981H34.8447C34.6353 122.711 34.0576 123.143 33.1816 123.143C32.0327 123.143 31.2646 122.21 31.2646 120.699C31.2646 119.227 32.02 118.255 33.1689 118.255C34.1021 118.255 34.6416 118.795 34.832 119.43H35.9238ZM41.7891 117.398H36.4316V118.306H38.5645V124H39.6562V118.306H41.7891V117.398ZM45.4263 124.114C47.248 124.114 48.4795 122.8 48.4795 120.699C48.4795 118.592 47.248 117.284 45.4263 117.284C43.5981 117.284 42.3667 118.592 42.3667 120.699C42.3667 122.8 43.5981 124.114 45.4263 124.114ZM45.4263 123.143C44.2583 123.143 43.4902 122.254 43.4902 120.699C43.4902 119.144 44.2583 118.255 45.4263 118.255C46.5942 118.255 47.356 119.144 47.356 120.699C47.356 122.254 46.5942 123.143 45.4263 123.143ZM52.9165 117.284C51.958 117.284 51.1899 117.773 50.7837 118.516H50.7583V117.398H49.7109V126.203H50.8154V122.927H50.8408C51.2344 123.651 51.9961 124.114 52.9419 124.114C54.605 124.114 55.7412 122.769 55.7412 120.699C55.7412 118.63 54.5986 117.284 52.9165 117.284ZM52.7007 123.143C51.5708 123.143 50.8091 122.172 50.8091 120.699C50.8091 119.233 51.5708 118.255 52.7007 118.255C53.875 118.255 54.6113 119.208 54.6113 120.699C54.6113 122.197 53.875 123.143 52.7007 123.143ZM59.7085 124.114C61.5303 124.114 62.7617 122.8 62.7617 120.699C62.7617 118.592 61.5303 117.284 59.7085 117.284C57.8804 117.284 56.6489 118.592 56.6489 120.699C56.6489 122.8 57.8804 124.114 59.7085 124.114ZM59.7085 123.143C58.5405 123.143 57.7725 122.254 57.7725 120.699C57.7725 119.144 58.5405 118.255 59.7085 118.255C60.8765 118.255 61.6382 119.144 61.6382 120.699C61.6382 122.254 60.8765 123.143 59.7085 123.143ZM68.335 124H69.4268V117.398H68.335V120.122H65.0786V117.398H63.9868V124H65.0786V121.029H68.335V124ZM75.3301 124H76.4219V117.398H75.3301V120.122H72.0737V117.398H70.9819V124H72.0737V121.029H75.3301V124ZM79.0688 124L82.3696 119.087H82.4204V124H83.5122V117.398H82.4204L79.1196 122.312H79.0688V117.398H77.9771V124H79.0688ZM87.7144 118.243C88.7554 118.243 89.4473 119.03 89.4727 120.134H85.8862C85.9561 119.036 86.6797 118.243 87.7144 118.243ZM89.4473 122.108C89.2632 122.73 88.6475 123.156 87.8096 123.156C86.6226 123.156 85.8799 122.324 85.8799 121.061V120.998H90.6152V120.579C90.6152 118.579 89.5171 117.284 87.7334 117.284C85.9116 117.284 84.7437 118.674 84.7437 120.725C84.7437 122.8 85.8926 124.114 87.7842 124.114C89.2251 124.114 90.3423 123.264 90.5327 122.108H89.4473ZM3.18896 140.175C2.39551 140.175 1.86865 139.762 1.86865 139.134C1.86865 138.512 2.37646 138.118 3.26514 138.061L5.02979 137.953V138.493C5.02979 139.445 4.22998 140.175 3.18896 140.175ZM2.94141 141.114C3.83008 141.114 4.66797 140.619 5.06152 139.864H5.08691V141H6.13428V136.436C6.13428 135.122 5.15674 134.284 3.60791 134.284C2.04639 134.284 1.06885 135.16 0.992676 136.303H2.05908C2.19873 135.655 2.73193 135.255 3.58252 135.255C4.49658 135.255 5.02979 135.738 5.02979 136.544V137.096L3.13818 137.204C1.61475 137.293 0.745117 138.004 0.745117 139.134C0.745117 140.321 1.62744 141.114 2.94141 141.114ZM9.89844 137.521L12.9834 134.398H11.6187L8.80029 137.318H8.74951V134.398H7.65771V141H8.74951V137.826H8.80029L11.6504 141H13.0723L9.89844 137.521ZM19.3311 136.43C19.1343 135.306 18.1631 134.284 16.5698 134.284C14.7417 134.284 13.5483 135.643 13.5483 137.699C13.5483 139.8 14.748 141.114 16.5825 141.114C18.0679 141.114 19.1279 140.232 19.3438 138.981H18.252C18.0425 139.711 17.4648 140.143 16.5889 140.143C15.4399 140.143 14.6719 139.21 14.6719 137.699C14.6719 136.227 15.4272 135.255 16.5762 135.255C17.5093 135.255 18.0488 135.795 18.2393 136.43H19.3311ZM23.146 135.243C24.187 135.243 24.8789 136.03 24.9043 137.134H21.3179C21.3877 136.036 22.1113 135.243 23.146 135.243ZM24.8789 139.108C24.6948 139.73 24.0791 140.156 23.2412 140.156C22.0542 140.156 21.3115 139.324 21.3115 138.061V137.998H26.0469V137.579C26.0469 135.579 24.9487 134.284 23.165 134.284C21.3433 134.284 20.1753 135.674 20.1753 137.725C20.1753 139.8 21.3242 141.114 23.2158 141.114C24.6567 141.114 25.7739 140.264 25.9644 139.108H24.8789ZM32.7373 136.43C32.5405 135.306 31.5693 134.284 29.9761 134.284C28.1479 134.284 26.9546 135.643 26.9546 137.699C26.9546 139.8 28.1543 141.114 29.9888 141.114C31.4741 141.114 32.5342 140.232 32.75 138.981H31.6582C31.4487 139.711 30.8711 140.143 29.9951 140.143C28.8462 140.143 28.0781 139.21 28.0781 137.699C28.0781 136.227 28.8335 135.255 29.9824 135.255C30.9155 135.255 31.4551 135.795 31.6455 136.43H32.7373ZM39.3643 136.43C39.1675 135.306 38.1963 134.284 36.603 134.284C34.7749 134.284 33.5815 135.643 33.5815 137.699C33.5815 139.8 34.7812 141.114 36.6157 141.114C38.1011 141.114 39.1611 140.232 39.377 138.981H38.2852C38.0757 139.711 37.498 140.143 36.6221 140.143C35.4731 140.143 34.7051 139.21 34.7051 137.699C34.7051 136.227 35.4604 135.255 36.6094 135.255C37.5425 135.255 38.082 135.795 38.2725 136.43H39.3643ZM41.0146 143.469C42.208 143.469 42.7539 143.006 43.3188 141.463L45.915 134.398H44.7534L42.9253 139.896H42.9062L41.0781 134.398H39.8975L42.335 141.006L42.1826 141.47C41.9287 142.238 41.5859 142.536 40.9702 142.536C40.8306 142.536 40.6592 142.53 40.5386 142.504V143.431C40.6592 143.457 40.8813 143.469 41.0146 143.469ZM48.8921 140.175C48.0986 140.175 47.5718 139.762 47.5718 139.134C47.5718 138.512 48.0796 138.118 48.9683 138.061L50.7329 137.953V138.493C50.7329 139.445 49.9331 140.175 48.8921 140.175ZM48.6445 141.114C49.5332 141.114 50.3711 140.619 50.7646 139.864H50.79V141H51.8374V136.436C51.8374 135.122 50.8599 134.284 49.311 134.284C47.7495 134.284 46.772 135.16 46.6958 136.303H47.7622C47.9019 135.655 48.4351 135.255 49.2856 135.255C50.1997 135.255 50.7329 135.738 50.7329 136.544V137.096L48.8413 137.204C47.3179 137.293 46.4482 138.004 46.4482 139.134C46.4482 140.321 47.3306 141.114 48.6445 141.114ZM56.5728 134.284C55.6143 134.284 54.8462 134.773 54.4399 135.516H54.4146V134.398H53.3672V143.203H54.4717V139.927H54.4971C54.8906 140.651 55.6523 141.114 56.5981 141.114C58.2612 141.114 59.3975 139.769 59.3975 137.699C59.3975 135.63 58.2549 134.284 56.5728 134.284ZM56.3569 140.143C55.2271 140.143 54.4653 139.172 54.4653 137.699C54.4653 136.233 55.2271 135.255 56.3569 135.255C57.5312 135.255 58.2676 136.208 58.2676 137.699C58.2676 139.197 57.5312 140.143 56.3569 140.143ZM66.272 141H67.3638V134.398H66.272V141ZM62.9458 137.414C63.7964 137.414 64.355 137.94 64.355 138.753C64.355 139.559 63.8027 140.092 62.9458 140.092H61.7144V137.414H62.9458ZM60.6226 141H62.9648C64.4756 141 65.4468 140.13 65.4468 138.753C65.4468 137.375 64.4756 136.506 62.9648 136.506H61.7144V134.398H60.6226V141ZM75.9268 141H77.0186V134.398H75.9268V137.122H72.6704V134.398H71.5786V141H72.6704V138.029H75.9268V141ZM80.7573 140.175C79.9639 140.175 79.437 139.762 79.437 139.134C79.437 138.512 79.9448 138.118 80.8335 138.061L82.5981 137.953V138.493C82.5981 139.445 81.7983 140.175 80.7573 140.175ZM80.5098 141.114C81.3984 141.114 82.2363 140.619 82.6299 139.864H82.6553V141H83.7026V136.436C83.7026 135.122 82.7251 134.284 81.1763 134.284C79.6147 134.284 78.6372 135.16 78.561 136.303H79.6274C79.7671 135.655 80.3003 135.255 81.1509 135.255C82.0649 135.255 82.5981 135.738 82.5981 136.544V137.096L80.7065 137.204C79.1831 137.293 78.3135 138.004 78.3135 139.134C78.3135 140.321 79.1958 141.114 80.5098 141.114ZM97.0327 141V131.84H95.7061L92.5449 139.483H92.4941L89.333 131.84H88.0063V141H89.0728V133.941H89.1172L92.0371 140.937H93.002L95.9219 133.941H95.9663V141H97.0327ZM100.625 140.175C99.832 140.175 99.3052 139.762 99.3052 139.134C99.3052 138.512 99.813 138.118 100.702 138.061L102.466 137.953V138.493C102.466 139.445 101.667 140.175 100.625 140.175ZM100.378 141.114C101.267 141.114 102.104 140.619 102.498 139.864H102.523V141H103.571V136.436C103.571 135.122 102.593 134.284 101.044 134.284C99.4829 134.284 98.5054 135.16 98.4292 136.303H99.4956C99.6353 135.655 100.168 135.255 101.019 135.255C101.933 135.255 102.466 135.738 102.466 136.544V137.096L100.575 137.204C99.0513 137.293 98.1816 138.004 98.1816 139.134C98.1816 140.321 99.064 141.114 100.378 141.114ZM110.458 136.563C110.318 135.376 109.334 134.284 107.684 134.284C105.862 134.284 104.65 135.617 104.65 137.699C104.65 139.826 105.869 141.114 107.697 141.114C109.195 141.114 110.299 140.188 110.471 138.874H109.385C109.195 139.667 108.604 140.143 107.703 140.143C106.561 140.143 105.773 139.235 105.773 137.699C105.773 136.201 106.548 135.255 107.69 135.255C108.662 135.255 109.22 135.846 109.379 136.563H110.458Z" fill="#161616"/>
</svg>
