<svg width="282" height="70" viewBox="0 0 282 70" fill="none" xmlns="http://www.w3.org/2000/svg" xmlns:xlink="http://www.w3.org/1999/xlink">
<g filter="url(#filter0_d)">
<rect x="20" y="30" width="242" height="655" rx="5" fill="white"/>
</g>
<rect x="13" width="255" height="690" rx="5" fill="white"/>
<path d="M13 5C13 2.23858 15.2386 0 18 0H263C265.761 0 268 2.23858 268 5V110H13V5Z" fill="#FF2424"/>
<mask id="mask0" mask-type="alpha" maskUnits="userSpaceOnUse" x="13" y="0" width="255" height="110">
<path d="M13 5C13 2.23858 15.2386 0 18 0H263C265.761 0 268 2.23858 268 5V110H13V5Z" fill="#FF2424"/>
</mask>
<g mask="url(#mask0)">
<g opacity="0.36">
<g opacity="0.4118">
<path opacity="0.4118" d="M421.829 464.925H215.505L215.265 464.447L112.462 286.334L215.624 107.743H421.829L524.991 286.334L421.829 464.925ZM216.7 463.013H420.753L522.839 286.334L420.753 109.536H216.7L114.614 286.214L216.7 463.013Z" fill="#960000"/>
</g>
<g opacity="0.4314">
<path opacity="0.4314" d="M426.133 472.337H211.322L211.083 471.859L103.976 286.334L104.215 285.856L211.322 100.212H426.133L426.372 100.69L533.479 286.215L533.24 286.693L426.133 472.337ZM212.397 470.424H424.938L531.208 286.334L424.938 102.244H212.397L106.127 286.334L212.397 470.424Z" fill="#960000"/>
</g>
<g opacity="0.451">
<path opacity="0.451" d="M430.317 479.748H207.018L206.779 479.27L95.3682 286.334L207.018 92.9199H430.317L430.556 93.3981L541.966 286.334L430.317 479.748ZM208.093 477.716H429.121L539.695 286.215L429.121 94.713H208.093L97.5199 286.215L208.093 477.716Z" fill="#960000"/>
</g>
<g opacity="0.4706">
<path opacity="0.4706" d="M434.62 487.16H202.714L202.355 486.681L86.6416 286.334L86.8807 285.856L202.594 85.5087H434.5L550.453 286.334L550.214 286.812L434.62 487.16ZM203.909 485.127H433.424L548.182 286.334L433.424 87.5408H203.909L89.1519 286.334L203.909 485.127Z" fill="#960000"/>
</g>
<g opacity="0.4902">
<path opacity="0.4902" d="M438.923 494.571H198.411L198.052 494.093L78.1543 286.334L198.411 77.9773H438.923L439.282 78.4555L559.179 286.214L438.923 494.571ZM199.606 492.539H437.728L556.788 286.334L437.728 80.129H199.606L80.5451 286.334L199.606 492.539Z" fill="#960000"/>
</g>
<g opacity="0.5098">
<path opacity="0.5098" d="M443.227 501.982H194.107L193.749 501.384L69.5479 286.214L69.9065 285.616L194.107 70.4463H443.227L443.585 71.044L567.786 286.214L567.428 286.812L443.227 501.982ZM195.422 499.83H442.031L565.276 286.334L441.912 72.7175H195.422L72.0582 286.334L195.422 499.83Z" fill="#960000"/>
</g>
<g opacity="0.5294">
<path opacity="0.5294" d="M447.53 509.513H189.804L61.0605 286.334L189.804 63.1548H447.53L447.889 63.7525L576.393 286.334L447.53 509.513ZM191.119 507.242H446.215L573.763 286.334L446.215 65.426H191.119L63.5709 286.334L191.119 507.242Z" fill="#960000"/>
</g>
<g opacity="0.549">
<path opacity="0.549" d="M451.834 516.925H185.501L52.4541 286.335L52.8127 285.737L185.621 55.7438H451.834L452.193 56.3415L585 286.335L584.642 286.932L451.834 516.925ZM186.935 514.534H450.519L582.251 286.335L450.519 58.015H186.935L55.084 286.335L186.935 514.534Z" fill="#960000"/>
</g>
<g opacity="0.5686">
<path opacity="0.5686" d="M456.138 524.336H181.318L43.8477 286.334L181.198 48.3319H456.018L593.368 286.334L456.138 524.336ZM182.632 521.945H454.703L590.739 286.334L454.703 50.7227H182.632L46.5971 286.334L182.632 521.945Z" fill="#960000"/>
</g>
<g opacity="0.5882">
<path opacity="0.5882" d="M460.321 531.748H177.013L176.654 531.15L35.3594 286.334L35.718 285.736L177.013 40.9205H460.44L460.799 41.5182L602.094 286.334L601.735 286.932L460.321 531.748ZM178.448 529.237H459.006L599.344 286.215L459.006 43.3113H178.448L38.1088 286.334L178.448 529.237Z" fill="#960000"/>
</g>
<g opacity="0.6078">
<path opacity="0.6078" d="M464.624 539.159H172.71L26.7529 286.334L172.71 33.5093H464.624L610.581 286.334L464.624 539.159ZM174.145 536.649H463.19L607.713 286.334L463.19 36.0196H174.145L29.6219 286.334L174.145 536.649Z" fill="#960000"/>
</g>
<g opacity="0.6275">
<path opacity="0.6275" d="M468.928 546.571H168.407L168.048 545.973L18.1465 286.334L18.5051 285.737L168.407 26.0978H468.928L469.287 26.6955L619.189 286.334L618.83 286.932L468.928 546.571ZM169.842 544.06H467.374L616.2 286.334L467.494 28.6082H169.842L21.135 286.334L169.842 544.06Z" fill="#960000"/>
</g>
<g opacity="0.6471">
<path opacity="0.6471" d="M473.231 553.982H164.103L9.53906 286.334L164.103 18.6865H473.231L473.589 19.2842L627.795 286.334L473.231 553.982ZM165.657 551.352H471.677L624.687 286.334L471.677 21.3164H165.657L12.6471 286.334L165.657 551.352Z" fill="#960000"/>
</g>
<g opacity="0.6667">
<path opacity="0.6667" d="M477.534 561.393H159.8L159.441 560.676L1.05176 286.334L1.41037 285.617L159.8 11.1553H477.415L477.773 11.8725L636.163 286.334L635.804 287.051L477.534 561.393ZM161.354 558.763H475.861L633.174 286.334L475.98 13.9047H161.354L4.15977 286.334L161.354 558.763Z" fill="#960000"/>
</g>
<g opacity="0.6863">
<path opacity="0.6863" d="M481.838 568.804H155.616L-7.55469 286.334L155.616 3.74353H481.838L482.197 4.46076L644.889 286.334L481.838 568.804ZM157.17 566.055H480.284L641.781 286.214L480.164 6.49292H157.17L-4.44667 286.334L157.17 566.055Z" fill="#960000"/>
</g>
<g opacity="0.7059">
<path opacity="0.7059" d="M486.022 576.217H151.313L150.954 575.499L-16.042 286.215L-15.6834 285.498L151.313 -3.78668H486.141L486.5 -3.06945L653.496 286.215L653.137 286.932L486.022 576.217ZM152.867 573.467H484.468L650.268 286.335L484.468 -0.798207H152.867L-12.934 286.335L152.867 573.467Z" fill="#960000"/>
</g>
<g opacity="0.7255">
<path opacity="0.7255" d="M490.325 583.628H147.009L146.65 582.91L-24.6494 286.334L147.009 -11.079H490.325L490.683 -10.3618L661.983 286.334L490.325 583.628ZM148.682 580.759H488.771L658.755 286.214L488.651 -8.2101H148.682L-21.4219 286.334L148.682 580.759Z" fill="#960000"/>
</g>
<g opacity="0.7451">
<path opacity="0.7451" d="M494.628 591.039H142.706L142.227 590.322L-33.2559 286.334L-32.7777 285.617L142.706 -18.4905H494.628L670.59 286.334L670.112 287.051L494.628 591.039ZM144.379 588.17H492.955L667.243 286.334L492.955 -15.5021H144.379L-29.9088 286.334L144.379 588.17Z" fill="#960000"/>
</g>
<g opacity="0.7647">
<path opacity="0.7647" d="M498.932 598.57H138.403L137.924 597.853L-41.8623 286.334L138.403 -25.9019H498.932L679.197 286.334L498.932 598.57ZM140.196 595.581H497.259L675.73 286.334L497.259 -22.9134H140.196L-38.3957 286.334L140.196 595.581Z" fill="#960000"/>
</g>
<g opacity="0.7843">
<path opacity="0.7843" d="M503.235 605.981H134.098L133.62 605.264L-50.4697 286.453L-49.9916 285.736L134.098 -33.0742H503.235L503.713 -32.357L687.803 286.453L687.325 287.171L503.235 605.981ZM135.892 602.873H501.442L684.217 286.334L501.442 -30.3248H135.892L-46.8836 286.334L135.892 602.873Z" fill="#960000"/>
</g>
<g opacity="0.8039">
<path opacity="0.8039" d="M507.539 613.393H129.796L129.318 612.676L-58.9561 286.334L129.916 -40.7245H507.539L696.411 286.334L507.539 613.393ZM131.589 610.285H505.627L692.705 286.334L505.627 -37.6165H131.589L-55.4894 286.334L131.589 610.285Z" fill="#960000"/>
</g>
<g opacity="0.8235">
<path opacity="0.8235" d="M511.842 620.805H125.612L125.133 619.968L-67.5635 286.335L-67.0853 285.498L125.612 -48.1355H511.842L512.32 -47.2987L705.017 286.335L704.539 287.171L511.842 620.805ZM127.405 617.577H509.929L701.192 286.215L509.929 -45.147H127.405L-63.8578 286.215L127.405 617.577Z" fill="#960000"/>
</g>
<g opacity="0.8431">
<path opacity="0.8431" d="M516.026 628.215H121.308L120.83 627.379L-76.0508 286.334L-75.5726 285.497L121.308 -55.5477H516.145L713.504 286.334L713.026 287.171L516.026 628.215ZM123.101 624.988H514.113L709.679 286.334L514.233 -52.3202H123.101L-72.3451 286.334L123.101 624.988Z" fill="#960000"/>
</g>
<g opacity="0.8627">
<path opacity="0.8627" d="M520.33 635.627H117.005L-84.6572 286.334L117.005 -62.959H520.33L520.808 -62.1222L721.992 286.334L520.33 635.627ZM118.918 632.399H518.537L718.286 286.334L518.417 -59.7314H118.918L-80.832 286.334L118.918 632.399Z" fill="#960000"/>
</g>
<g opacity="0.8824">
<path opacity="0.8824" d="M524.633 643.038H112.701L112.223 642.202L-93.2646 286.334L-92.7865 285.497L112.701 -70.3704H524.633L730.598 286.334L730.12 287.171L524.633 643.038ZM114.614 639.691H522.72L726.773 286.334L522.72 -67.1428H114.614L-89.4394 286.334L114.614 639.691Z" fill="#960000"/>
</g>
<g opacity="0.902">
<path opacity="0.902" d="M528.936 650.45H108.398L107.92 649.613L-101.871 286.334L-101.393 285.498L108.398 -77.9011H528.936L739.205 286.215L738.727 287.052L528.936 650.45ZM110.43 647.103H527.024L735.261 286.334L526.904 -74.4344H110.43L-97.9263 286.334L110.43 647.103Z" fill="#960000"/>
</g>
<g opacity="0.9216">
<path opacity="0.9216" d="M533.24 657.861H104.095L-110.358 286.334L-109.88 285.497L104.095 -85.1929H533.12L533.598 -84.3562L747.573 286.334L747.095 287.171L533.24 657.861ZM106.127 654.395H531.207L743.748 286.334L531.207 -81.8458H106.127L-106.414 286.334L106.127 654.395Z" fill="#960000"/>
</g>
<g opacity="0.9412">
<path opacity="0.9412" d="M537.543 665.273H99.9111L99.4329 664.436L-118.965 286.334L-118.487 285.498L99.9111 -92.7239H537.543L756.419 286.334L755.941 287.171L537.543 665.273ZM101.943 661.806H535.511L752.235 286.334L535.511 -89.1377H101.943L-114.901 286.334L101.943 661.806Z" fill="#960000"/>
</g>
<g opacity="0.9608">
<path opacity="0.9608" d="M541.727 672.684H95.6071L-127.572 286.334L-127.094 285.378L95.6071 -100.136H541.846L764.906 286.334L764.428 287.29L541.727 672.684ZM97.6392 669.098H539.695L760.722 286.214L539.695 -96.5496H97.6392L-123.388 286.334L97.6392 669.098Z" fill="#960000"/>
</g>
<g opacity="0.9804">
<path opacity="0.9804" d="M546.031 680.095H91.3046L-136.059 286.334L-135.58 285.378L91.3046 -107.547H546.031L546.509 -106.591L773.394 286.334L772.916 287.29L546.031 680.095ZM93.3367 676.509H543.879L769.21 286.334L543.999 -103.841H93.3367L-131.875 286.334L93.3367 676.509Z" fill="#960000"/>
</g>
<path d="M550.334 687.627H87.0006L86.5224 686.67L-144.666 286.334L87.0006 -114.958H550.334L550.812 -114.002L782 286.334L550.334 687.627ZM89.1523 683.921H548.182L777.697 286.334L548.182 -111.253H89.1523L-140.363 286.334L89.1523 683.921Z" fill="#960000"/>
</g>
<path d="M75.0004 140.662V123.821C80.9766 117.085 87.9489 112.492 94.6722 109.736C109.613 103.306 125.052 103 139.992 96.2632C154.684 89.5268 168.629 76.3601 183.818 73.2981C200.004 70.236 215.941 79.1159 232.127 80.3407C267.237 82.4841 299.889 55.2059 335 53.0625C350.688 51.8377 367.589 45.1275 383.525 49.4143V140.662H75.0004Z" fill="#121212"/>
<g style="mix-blend-mode:hard-light" opacity="0.4">
<rect x="-8" y="-42" width="333" height="425" fill="url(#pattern0)"/>
</g>
</g>
<mask id="mask1" mask-type="alpha" maskUnits="userSpaceOnUse" x="13" y="0" width="255" height="110">
<path d="M13 5C13 2.23858 15.2386 0 18 0H263C265.761 0 268 2.23858 268 5V110H13V5Z" fill="#FF2424"/>
</mask>
<g mask="url(#mask1)">
<mask id="mask2" mask-type="alpha" maskUnits="userSpaceOnUse" x="72" y="48" width="309" height="93">
<path d="M72.0004 140.662V123.821C77.9766 117.085 84.9489 112.492 91.6722 109.736C106.613 103.306 122.052 103 136.992 96.2632C151.684 89.5268 165.629 76.3601 180.818 73.2981C197.004 70.236 212.941 79.1159 229.127 80.3407C264.237 82.4841 296.889 55.2059 332 53.0625C347.688 51.8377 364.589 45.1275 380.525 49.4143V140.662H72.0004Z" fill="#121212"/>
</mask>
<g mask="url(#mask2)">
<g opacity="0.1961">
<path opacity="0.1961" d="M327.277 302.239H215.269L159.325 205.293L215.269 108.346H327.277L383.222 205.293L327.277 302.239ZM216.106 301.043H326.68L381.907 205.293L326.68 109.542H216.106L160.879 205.293L216.106 301.043Z" fill="#717171"/>
</g>
<g opacity="0.2157">
<path opacity="0.2157" d="M331.581 309.65H211.086L210.847 309.291L150.719 205.172L210.966 100.815H331.581L331.82 101.174L391.948 205.292L331.581 309.65ZM211.803 308.335H330.864L390.394 205.172L330.864 102.01H211.803L152.273 205.292L211.803 308.335Z" fill="#717171"/>
</g>
<g opacity="0.2353">
<path opacity="0.2353" d="M335.885 317.061H206.783L206.543 316.703L142.231 205.173L142.471 204.814L206.783 93.2842H335.885L336.124 93.6428L400.436 205.173L400.197 205.531L335.885 317.061ZM207.619 315.746H335.167L399.001 205.292L335.167 94.8382H207.619L143.785 205.292L207.619 315.746Z" fill="#717171"/>
</g>
<g opacity="0.2549">
<path opacity="0.2549" d="M340.187 324.473H202.479L202.239 324.114L133.624 205.173L202.479 85.8728H340.187L340.427 86.2314L409.042 205.173L340.187 324.473ZM203.315 323.158H339.351L407.368 205.292L339.351 87.4268H203.315L135.298 205.292L203.315 323.158Z" fill="#717171"/>
</g>
<g opacity="0.2745">
<path opacity="0.2745" d="M344.491 331.884H198.175L197.936 331.526L125.018 205.173L125.257 204.814L198.175 78.4617H344.491L417.649 205.173L417.41 205.532L344.491 331.884ZM199.012 330.45H343.535L415.856 205.293L343.535 80.1352H199.012L126.691 205.293L199.012 330.45Z" fill="#717171"/>
</g>
<g opacity="0.2941">
<path opacity="0.2941" d="M348.794 339.295H193.871L116.41 205.173L116.649 204.814L193.871 71.0498H348.674L348.914 71.4084L426.136 205.173L425.897 205.531L348.794 339.295ZM194.828 337.861H347.838L424.343 205.292L347.838 72.7234H194.828L118.323 205.292L194.828 337.861Z" fill="#717171"/>
</g>
<g opacity="0.3137">
<path opacity="0.3137" d="M353.098 346.827H189.688L108.043 205.293L189.688 63.7584H353.098L353.337 64.117L434.863 205.173L353.098 346.827ZM190.525 345.153H352.142L432.95 205.173L352.142 65.1929H190.525L109.717 205.173L190.525 345.153Z" fill="#717171"/>
</g>
<g opacity="0.3333">
<path opacity="0.3333" d="M357.281 354.239H185.384L185.145 353.88L99.4355 205.412L99.6746 205.054L185.384 56.5864H357.401L443.349 205.532L443.11 205.891L357.281 354.239ZM186.34 352.565H356.444L441.437 205.293L356.444 58.0209H186.34L101.348 205.293L186.34 352.565Z" fill="#717171"/>
</g>
<g opacity="0.3529">
<path opacity="0.3529" d="M361.585 361.649H181.081L90.8291 205.292L91.0682 204.814L181.081 48.9353H361.585L451.837 205.292L451.598 205.77L361.585 361.649ZM182.037 359.856H360.629L449.924 205.292L360.629 50.6089H182.037L92.7417 205.292L182.037 359.856Z" fill="#717171"/>
</g>
<g opacity="0.3725">
<path opacity="0.3725" d="M365.889 369.061H176.778L176.539 368.583L82.2227 205.293L176.778 41.5244H365.889L460.444 205.293L365.889 369.061ZM177.854 367.268H364.932L458.412 205.293L364.932 43.3175H177.854L84.3744 205.293L177.854 367.268Z" fill="#717171"/>
</g>
<g opacity="0.3922">
<path opacity="0.3922" d="M370.192 376.472H172.475L172.236 375.994L73.6162 205.292L73.8553 204.814L172.475 34.1122H370.192L370.432 34.5904L469.051 205.292L468.812 205.77L370.192 376.472ZM173.551 374.679H369.117L466.9 205.292L369.117 35.9053H173.551L75.7679 205.292L173.551 374.679Z" fill="#717171"/>
</g>
<g opacity="0.4118">
<path opacity="0.4118" d="M374.495 383.884H168.171L167.931 383.405L65.1279 205.292L168.29 26.7009H374.495L477.657 205.292L374.495 383.884ZM169.366 381.971H373.419L475.505 205.292L373.419 28.494H169.366L67.2796 205.173L169.366 381.971Z" fill="#717171"/>
</g>
<g opacity="0.4314">
<path opacity="0.4314" d="M378.799 391.295H163.988L163.749 390.817L56.6416 205.293L56.8807 204.814L163.988 19.1703H378.799L379.038 19.6485L486.145 205.173L485.906 205.651L378.799 391.295ZM165.063 389.383H377.604L483.874 205.293L377.604 21.2025H165.063L58.7933 205.293L165.063 389.383Z" fill="#717171"/>
</g>
<g opacity="0.451">
<path opacity="0.451" d="M382.983 398.706H159.684L159.445 398.228L48.0342 205.292L159.684 11.8782H382.983L383.222 12.3563L494.632 205.292L382.983 398.706ZM160.759 396.674H381.787L492.361 205.173L381.787 13.6713H160.759L50.1859 205.173L160.759 396.674Z" fill="#717171"/>
</g>
<g opacity="0.4706">
<path opacity="0.4706" d="M387.286 406.118H155.38L155.021 405.64L39.3076 205.292L39.5467 204.814L155.26 4.46692H387.166L503.119 205.292L502.88 205.771L387.286 406.118ZM156.575 404.086H386.09L500.848 205.292L386.09 6.49908H156.575L41.8179 205.292L156.575 404.086Z" fill="#717171"/>
</g>
<g opacity="0.4902">
<path opacity="0.4902" d="M391.589 413.529H151.077L150.718 413.051L30.8203 205.292L151.077 -3.06445H391.589L391.948 -2.58629L511.845 205.173L391.589 413.529ZM152.272 411.497H390.394L509.454 205.292L390.394 -0.912747H152.272L33.2111 205.292L152.272 411.497Z" fill="#717171"/>
</g>
<g opacity="0.5098">
<path opacity="0.5098" d="M395.893 420.94H146.774L146.415 420.343L22.2139 205.173L22.5725 204.575L146.774 -10.5954H395.893L396.251 -9.9977L520.452 205.173L520.094 205.77L395.893 420.94ZM148.088 418.789H394.697L517.942 205.292L394.578 -8.32416H148.088L24.7242 205.292L148.088 418.789Z" fill="#717171"/>
</g>
<g opacity="0.5294">
<path opacity="0.5294" d="M400.196 428.472H142.47L13.7266 205.292L142.47 -17.887H400.196L400.555 -17.2893L529.059 205.292L400.196 428.472ZM143.785 426.2H398.881L526.429 205.292L398.881 -15.6158H143.785L16.2369 205.292L143.785 426.2Z" fill="#717171"/>
</g>
<g opacity="0.549">
<path opacity="0.549" d="M404.5 435.883H138.167L5.12012 205.293L5.47874 204.695L138.287 -25.298H404.5L404.859 -24.7003L537.666 205.293L537.308 205.89L404.5 435.883ZM139.601 433.493H403.185L534.917 205.293L403.185 -23.0268H139.601L7.74999 205.293L139.601 433.493Z" fill="#717171"/>
</g>
<g opacity="0.5686">
<path opacity="0.5686" d="M408.804 443.294H133.984L-3.48633 205.292L133.864 -32.7098H408.684L546.034 205.292L408.804 443.294ZM135.298 440.904H407.369L543.405 205.292L407.369 -30.3191H135.298L-0.736928 205.292L135.298 440.904Z" fill="#717171"/>
</g>
<g opacity="0.5882">
<path opacity="0.5882" d="M412.987 450.706H129.679L129.32 450.108L-11.9746 205.292L-11.616 204.695L129.679 -40.1213H413.106L413.465 -39.5236L554.76 205.292L554.401 205.89L412.987 450.706ZM131.114 448.196H411.672L552.01 205.173L411.672 -37.7305H131.114L-9.22523 205.292L131.114 448.196Z" fill="#717171"/>
</g>
<g opacity="0.6078">
<path opacity="0.6078" d="M417.29 458.118H125.376L-20.5811 205.293L125.376 -47.5325H417.29L563.247 205.293L417.29 458.118ZM126.811 455.607H415.856L560.379 205.293L415.856 -45.0221H126.811L-17.7121 205.293L126.811 455.607Z" fill="#717171"/>
</g>
<g opacity="0.6275">
<path opacity="0.6275" d="M421.594 465.529H121.073L120.714 464.931L-29.1875 205.293L-28.8289 204.695L121.073 -54.9439H421.594L421.953 -54.3462L571.855 205.293L571.496 205.89L421.594 465.529ZM122.508 463.019H420.04L568.866 205.293L420.16 -52.4336H122.508L-26.199 205.293L122.508 463.019Z" fill="#717171"/>
</g>
<g opacity="0.6471">
<path opacity="0.6471" d="M425.897 472.94H116.769L-37.7949 205.293L116.769 -62.3552H425.897L426.255 -61.7575L580.461 205.293L425.897 472.94ZM118.323 470.311H424.343L577.353 205.293L424.343 -59.7254H118.323L-34.6869 205.293L118.323 470.311Z" fill="#717171"/>
</g>
<g opacity="0.6667">
<path opacity="0.6667" d="M430.2 480.352H112.466L112.107 479.634L-46.2822 205.292L-45.9236 204.575L112.466 -69.8865H430.081L430.439 -69.1692L588.829 205.292L588.47 206.01L430.2 480.352ZM114.02 477.722H428.527L585.84 205.292L428.646 -67.1371H114.02L-43.1742 205.292L114.02 477.722Z" fill="#717171"/>
</g>
<g opacity="0.6863">
<path opacity="0.6863" d="M434.504 487.763H108.282L-54.8887 205.292L108.282 -77.2982H434.504L434.863 -76.581L597.555 205.292L434.504 487.763ZM109.836 485.013H432.95L594.447 205.172L432.831 -74.5488H109.836L-51.7807 205.292L109.836 485.013Z" fill="#717171"/>
</g>
<g opacity="0.7059">
<path opacity="0.7059" d="M438.688 495.175H103.979L103.62 494.458L-63.376 205.173L-63.0174 204.456L103.979 -84.8284H438.807L439.166 -84.1112L606.162 205.173L605.803 205.89L438.688 495.175ZM105.533 492.425H437.134L602.935 205.293L437.134 -81.84H105.533L-60.268 205.293L105.533 492.425Z" fill="#717171"/>
</g>
<g opacity="0.7255">
<path opacity="0.7255" d="M442.991 502.586H99.6746L99.316 501.868L-71.9834 205.292L99.6746 -92.1208H442.991L443.349 -91.4036L614.649 205.292L442.991 502.586ZM101.348 499.717H441.437L611.421 205.173L441.317 -89.2519H101.348L-68.7558 205.292L101.348 499.717Z" fill="#717171"/>
</g>
<g opacity="0.7451">
<path opacity="0.7451" d="M447.294 509.997H95.3716L94.8934 509.28L-80.5898 205.292L-80.1117 204.575L95.3716 -99.5323H447.294L623.256 205.292L622.778 206.009L447.294 509.997ZM97.0451 507.128H445.621L619.909 205.292L445.621 -96.5438H97.0451L-77.2427 205.292L97.0451 507.128Z" fill="#717171"/>
</g>
<g opacity="0.7647">
<path opacity="0.7647" d="M451.598 517.528H91.0685L90.5904 516.811L-89.1963 205.292L91.0685 -106.944H451.598L631.863 205.292L451.598 517.528ZM92.8616 514.54H449.925L628.396 205.292L449.925 -103.955H92.8616L-85.7297 205.292L92.8616 514.54Z" fill="#717171"/>
</g>
<g opacity="0.7843">
<path opacity="0.7843" d="M455.901 524.939H86.7645L86.2864 524.222L-97.8037 205.412L-97.3256 204.695L86.7645 -114.116H455.901L456.379 -113.399L640.469 205.412L639.991 206.129L455.901 524.939ZM88.5576 521.831H454.108L636.883 205.292L454.108 -111.367H88.5576L-94.2175 205.292L88.5576 521.831Z" fill="#717171"/>
</g>
<g opacity="0.8039">
<path opacity="0.8039" d="M460.205 532.351H82.4621L81.9839 531.634L-106.29 205.292L82.5816 -121.766H460.205L649.077 205.292L460.205 532.351ZM84.2552 529.243H458.293L645.371 205.292L458.293 -118.658H84.2552L-102.823 205.292L84.2552 529.243Z" fill="#717171"/>
</g>
<g opacity="0.8235">
<path opacity="0.8235" d="M464.508 539.763H78.2776L77.7994 538.926L-114.897 205.293L-114.419 204.456L78.2776 -129.177H464.508L464.986 -128.34L657.683 205.293L657.205 206.13L464.508 539.763ZM80.0707 536.536H462.595L653.858 205.173L462.595 -126.189H80.0707L-111.192 205.173L80.0707 536.536Z" fill="#717171"/>
</g>
<g opacity="0.8431">
<path opacity="0.8431" d="M468.692 547.174H73.9741L73.496 546.337L-123.385 205.292L-122.907 204.455L73.9741 -136.589H468.811L666.17 205.292L665.692 206.129L468.692 547.174ZM75.7672 543.946H466.779L662.345 205.292L466.899 -133.362H75.7672L-119.679 205.292L75.7672 543.946Z" fill="#717171"/>
</g>
<g opacity="0.8627">
<path opacity="0.8627" d="M472.996 554.585H69.6711L-131.991 205.292L69.6711 -144.001H472.996L473.474 -143.164L674.658 205.292L472.996 554.585ZM71.5837 551.358H471.203L670.952 205.292L471.083 -140.773H71.5837L-128.166 205.292L71.5837 551.358Z" fill="#717171"/>
</g>
<g opacity="0.8824">
<path opacity="0.8824" d="M477.299 561.997H65.3671L64.8889 561.16L-140.599 205.292L-140.12 204.456L65.3671 -151.412H477.299L683.264 205.292L682.786 206.129L477.299 561.997ZM67.2797 558.65H475.386L679.439 205.292L475.386 -148.185H67.2797L-136.773 205.292L67.2797 558.65Z" fill="#717171"/>
</g>
<g opacity="0.902">
<path opacity="0.902" d="M481.602 569.408H61.064L60.5859 568.572L-149.205 205.293L-148.727 204.456L61.064 -158.943H481.602L691.871 205.173L691.393 206.01L481.602 569.408ZM63.0962 566.061H479.69L687.927 205.293L479.57 -155.476H63.0962L-145.26 205.293L63.0962 566.061Z" fill="#717171"/>
</g>
<g opacity="0.9216">
<path opacity="0.9216" d="M485.906 576.82H56.7606L-157.692 205.293L-157.214 204.456L56.7606 -166.235H485.786L486.264 -165.398L700.239 205.293L699.761 206.129L485.906 576.82ZM58.7928 573.353H483.873L696.414 205.293L483.873 -162.888H58.7928L-153.748 205.293L58.7928 573.353Z" fill="#717171"/>
</g>
<g opacity="0.9412">
<path opacity="0.9412" d="M490.209 584.231H52.5771L52.0989 583.394L-166.299 205.293L-165.821 204.456L52.5771 -173.766H490.209L709.085 205.293L708.607 206.129L490.209 584.231ZM54.6093 580.765H488.177L704.901 205.293L488.177 -170.179H54.6093L-162.235 205.293L54.6093 580.765Z" fill="#717171"/>
</g>
<g opacity="0.9608">
<path opacity="0.9608" d="M494.393 591.642H48.2731L-174.906 205.292L-174.428 204.336L48.2731 -181.177H494.512L717.572 205.292L717.094 206.248L494.393 591.642ZM50.3052 588.056H492.361L713.388 205.173L492.361 -177.591H50.3052L-170.722 205.292L50.3052 588.056Z" fill="#717171"/>
</g>
<g opacity="0.9804">
<path opacity="0.9804" d="M498.697 599.054H43.9706L-183.393 205.292L-182.914 204.336L43.9706 -188.589H498.697L499.175 -187.632L726.06 205.292L725.582 206.249L498.697 599.054ZM46.0027 595.468H496.545L721.876 205.292L496.665 -184.883H46.0027L-179.209 205.292L46.0027 595.468Z" fill="#717171"/>
</g>
<path d="M503 606.585H39.6666L39.1885 605.628L-192 205.292L39.6666 -196H503L503.478 -195.044L734.667 205.292L503 606.585ZM41.8183 602.879H500.848L730.363 205.292L500.848 -192.294H41.8183L-187.697 205.292L41.8183 602.879Z" fill="#717171"/>
</g>
</g></svg>