<svg width="80" height="150" viewBox="0 0 80 150" fill="none" xmlns="http://www.w3.org/2000/svg">
<path d="M26.6953 51.3906H33.6484C40.0156 51.3906 43.8828 54.5156 43.8828 59.6719C43.8828 64.4375 39.7422 67.7578 33.8438 67.7578C27.6328 67.7578 23.7266 64.6328 23.375 59.8672H12.0859C12.6328 70.2578 20.9531 77.25 33.6875 77.25C46.6953 77.25 55.875 70.5312 55.875 60.4141C55.875 52.6016 50.4453 47.5234 42.0469 46.8203V46.5859C48.9609 45.3359 53.6875 40.3359 53.6875 33.4219C53.6875 24.3984 45.6797 18.3828 33.9609 18.3828C21.7344 18.3828 13.6094 25.1797 13.1797 35.6094H24.0391C24.3516 30.6875 27.9844 27.4453 33.4531 27.4453C39.3125 27.4453 42.5547 30.4531 42.5547 35.0234C42.5547 39.6719 38.9219 42.875 33.5312 42.875H26.6953V51.3906Z" fill="#C6C9CE"/>
<path d="M60.6641 60.9746C60.6641 57.5322 58.7305 55.3789 55.6396 55.3789C52.5488 55.3789 50.6152 57.5322 50.6152 60.9746C50.6152 64.4316 52.5488 66.5703 55.6396 66.5703C58.7305 66.5703 60.6641 64.4316 60.6641 60.9746ZM55.6396 63.5527C54.8633 63.5527 54.3945 62.5859 54.3945 60.9453C54.3945 59.3047 54.8633 58.3379 55.6396 58.3379C56.416 58.3379 56.8848 59.3047 56.8848 60.9453C56.8848 62.5859 56.416 63.5527 55.6396 63.5527ZM57.2217 77L64.6338 66.834L72.6318 55.8623H68.5596L61.3818 65.7207L53.1494 77H57.2217ZM75.166 71.7412C75.166 68.2988 73.2324 66.1602 70.1416 66.1602C67.0508 66.1602 65.1172 68.2988 65.1172 71.7412C65.1172 75.1982 67.0508 77.3369 70.1416 77.3369C73.2324 77.3369 75.166 75.1982 75.166 71.7412ZM70.1416 74.3193C69.3652 74.3193 68.8965 73.3525 68.8965 71.7119C68.8965 70.0713 69.3652 69.1045 70.1416 69.1045C70.918 69.1045 71.3867 70.0713 71.3867 71.7119C71.3867 73.3525 70.918 74.3193 70.1416 74.3193Z" fill="#C6C9CE"/>
<path d="M57.2217 77V77.5H57.4759L57.6257 77.2946L57.2217 77ZM64.6338 66.834L65.0378 67.1286L65.0378 67.1285L64.6338 66.834ZM72.6318 55.8623L73.0359 56.1568L73.6151 55.3623H72.6318V55.8623ZM68.5596 55.8623V55.3623H68.3051L68.1554 55.568L68.5596 55.8623ZM61.3818 65.7207L61.7857 66.0155L61.786 66.015L61.3818 65.7207ZM53.1494 77L52.7455 76.7052L52.1655 77.5H53.1494V77ZM61.1641 60.9746C61.1641 59.1624 60.6544 57.6337 59.6829 56.5518C58.706 55.4638 57.3074 54.8789 55.6396 54.8789V55.8789C57.0627 55.8789 58.1763 56.3707 58.9389 57.2199C59.7069 58.0753 60.1641 59.3444 60.1641 60.9746H61.1641ZM55.6396 54.8789C53.9719 54.8789 52.5733 55.4638 51.5964 56.5518C50.6249 57.6337 50.1152 59.1624 50.1152 60.9746H51.1152C51.1152 59.3444 51.5724 58.0753 52.3404 57.2199C53.103 56.3707 54.2166 55.8789 55.6396 55.8789V54.8789ZM50.1152 60.9746C50.1152 62.7937 50.6247 64.3228 51.5967 65.4033C52.5741 66.4898 53.9729 67.0703 55.6396 67.0703V66.0703C54.2155 66.0703 53.1021 65.5815 52.3401 64.7344C51.5726 63.8813 51.1152 62.6126 51.1152 60.9746H50.1152ZM55.6396 67.0703C57.3064 67.0703 58.7052 66.4898 59.6826 65.4033C60.6546 64.3228 61.1641 62.7937 61.1641 60.9746H60.1641C60.1641 62.6126 59.7067 63.8813 58.9392 64.7344C58.1772 65.5815 57.0638 66.0703 55.6396 66.0703V67.0703ZM55.6396 63.0527C55.508 63.0527 55.3397 62.9879 55.1768 62.6481C55.0083 62.2966 54.8945 61.7294 54.8945 60.9453H53.8945C53.8945 61.8019 54.0152 62.5384 54.2751 63.0804C54.5406 63.6342 54.995 64.0527 55.6396 64.0527V63.0527ZM54.8945 60.9453C54.8945 60.1612 55.0083 59.594 55.1768 59.2426C55.3397 58.9027 55.508 58.8379 55.6396 58.8379V57.8379C54.995 57.8379 54.5406 58.2564 54.2751 58.8102C54.0152 59.3522 53.8945 60.0888 53.8945 60.9453H54.8945ZM55.6396 58.8379C55.7713 58.8379 55.9396 58.9027 56.1025 59.2426C56.271 59.594 56.3848 60.1612 56.3848 60.9453H57.3848C57.3848 60.0888 57.2641 59.3522 57.0042 58.8102C56.7387 58.2564 56.2843 57.8379 55.6396 57.8379V58.8379ZM56.3848 60.9453C56.3848 61.7294 56.271 62.2966 56.1025 62.6481C55.9396 62.9879 55.7713 63.0527 55.6396 63.0527V64.0527C56.2843 64.0527 56.7387 63.6342 57.0042 63.0804C57.2641 62.5384 57.3848 61.8019 57.3848 60.9453H56.3848ZM57.6257 77.2946L65.0378 67.1286L64.2298 66.5394L56.8177 76.7054L57.6257 77.2946ZM65.0378 67.1285L73.0359 56.1568L72.2278 55.5678L64.2297 66.5394L65.0378 67.1285ZM72.6318 55.3623H68.5596V56.3623H72.6318V55.3623ZM68.1554 55.568L60.9776 65.4264L61.786 66.015L68.9638 56.1566L68.1554 55.568ZM60.978 65.4259L52.7455 76.7052L53.5533 77.2948L61.7857 66.0155L60.978 65.4259ZM53.1494 77.5H57.2217V76.5H53.1494V77.5ZM75.666 71.7412C75.666 69.929 75.1563 68.4035 74.1843 67.325C73.2069 66.2406 71.8083 65.6602 70.1416 65.6602V66.6602C71.5658 66.6602 72.6794 67.149 73.4415 67.9945C74.2089 68.846 74.666 70.1111 74.666 71.7412H75.666ZM70.1416 65.6602C68.4749 65.6602 67.0763 66.2406 66.0989 67.325C65.1269 68.4035 64.6172 69.929 64.6172 71.7412H65.6172C65.6172 70.1111 66.0743 68.846 66.8417 67.9945C67.6038 67.149 68.7174 66.6602 70.1416 66.6602V65.6602ZM64.6172 71.7412C64.6172 73.5603 65.1266 75.0894 66.0986 76.1699C67.0761 77.2564 68.4749 77.8369 70.1416 77.8369V76.8369C68.7175 76.8369 67.6041 76.3481 66.8421 75.501C66.0745 74.6479 65.6172 73.3792 65.6172 71.7412H64.6172ZM70.1416 77.8369C71.8083 77.8369 73.2071 77.2564 74.1846 76.1699C75.1566 75.0894 75.666 73.5603 75.666 71.7412H74.666C74.666 73.3792 74.2087 74.6479 73.4411 75.501C72.6791 76.3481 71.5657 76.8369 70.1416 76.8369V77.8369ZM70.1416 73.8193C70.0099 73.8193 69.8417 73.7545 69.6788 73.4147C69.5102 73.0632 69.3965 72.496 69.3965 71.7119H68.3965C68.3965 72.5685 68.5171 73.305 68.7771 73.847C69.0426 74.4008 69.4969 74.8193 70.1416 74.8193V73.8193ZM69.3965 71.7119C69.3965 70.9278 69.5102 70.3607 69.6788 70.0092C69.8417 69.6693 70.0099 69.6045 70.1416 69.6045V68.6045C69.4969 68.6045 69.0426 69.023 68.7771 69.5768C68.5171 70.1188 68.3965 70.8554 68.3965 71.7119H69.3965ZM70.1416 69.6045C70.2733 69.6045 70.4415 69.6693 70.6045 70.0092C70.773 70.3607 70.8867 70.9278 70.8867 71.7119H71.8867C71.8867 70.8554 71.7661 70.1188 71.5061 69.5768C71.2406 69.023 70.7863 68.6045 70.1416 68.6045V69.6045ZM70.8867 71.7119C70.8867 72.496 70.773 73.0632 70.6045 73.4147C70.4415 73.7545 70.2733 73.8193 70.1416 73.8193V74.8193C70.7863 74.8193 71.2406 74.4008 71.5061 73.847C71.7661 73.305 71.8867 72.5685 71.8867 71.7119H70.8867Z" fill="white"/>
<path d="M10.5024 107H11.7021L8.3252 97.8403H7.19531L3.81836 107H5.01807L5.93848 104.378H9.58203L10.5024 107ZM7.74121 99.2305H7.7793L9.24561 103.407H6.2749L7.74121 99.2305ZM15.7837 100.284C14.8252 100.284 14.0571 100.773 13.6509 101.516H13.6255V100.398H12.5781V109.203H13.6826V105.927H13.708C14.1016 106.651 14.8633 107.114 15.8091 107.114C17.4722 107.114 18.6084 105.769 18.6084 103.699C18.6084 101.63 17.4658 100.284 15.7837 100.284ZM15.5679 106.143C14.438 106.143 13.6763 105.172 13.6763 103.699C13.6763 102.233 14.438 101.255 15.5679 101.255C16.7422 101.255 17.4785 102.208 17.4785 103.699C17.4785 105.197 16.7422 106.143 15.5679 106.143ZM22.9312 100.284C21.9727 100.284 21.2046 100.773 20.7983 101.516H20.7729V100.398H19.7256V109.203H20.8301V105.927H20.8555C21.249 106.651 22.0107 107.114 22.9565 107.114C24.6196 107.114 25.7559 105.769 25.7559 103.699C25.7559 101.63 24.6133 100.284 22.9312 100.284ZM22.7153 106.143C21.5854 106.143 20.8237 105.172 20.8237 103.699C20.8237 102.233 21.5854 101.255 22.7153 101.255C23.8896 101.255 24.626 102.208 24.626 103.699C24.626 105.197 23.8896 106.143 22.7153 106.143ZM26.9302 107H28.0347V97.8403H26.9302V107ZM32.1733 101.243C33.2144 101.243 33.9062 102.03 33.9316 103.134H30.3452C30.415 102.036 31.1387 101.243 32.1733 101.243ZM33.9062 105.108C33.7222 105.73 33.1064 106.156 32.2686 106.156C31.0815 106.156 30.3389 105.324 30.3389 104.061V103.998H35.0742V103.579C35.0742 101.579 33.9761 100.284 32.1924 100.284C30.3706 100.284 29.2026 101.674 29.2026 103.725C29.2026 105.8 30.3516 107.114 32.2432 107.114C33.6841 107.114 34.8013 106.264 34.9917 105.108H33.9062ZM44.1133 99.7319H44.1768L46.2905 107H47.3696L49.8643 97.8403H48.6709L46.8364 105.318H46.7856L44.7227 97.8403H43.5674L41.5044 105.318H41.4536L39.6191 97.8403H38.4258L40.9204 107H41.9995L44.1133 99.7319ZM52.1558 106.175C51.3623 106.175 50.8354 105.762 50.8354 105.134C50.8354 104.512 51.3433 104.118 52.2319 104.061L53.9966 103.953V104.493C53.9966 105.445 53.1968 106.175 52.1558 106.175ZM51.9082 107.114C52.7969 107.114 53.6348 106.619 54.0283 105.864H54.0537V107H55.1011V102.436C55.1011 101.122 54.1235 100.284 52.5747 100.284C51.0132 100.284 50.0356 101.16 49.9595 102.303H51.0259C51.1655 101.655 51.6987 101.255 52.5493 101.255C53.4634 101.255 53.9966 101.738 53.9966 102.544V103.096L52.105 103.204C50.5815 103.293 49.7119 104.004 49.7119 105.134C49.7119 106.321 50.5942 107.114 51.9082 107.114ZM56.8594 98.8052V100.398H55.8755V101.306H56.8594V105.286C56.8594 106.556 57.3291 107.051 58.5415 107.051C58.8018 107.051 59.1064 107.032 59.2397 107V106.073C59.1636 106.086 58.9097 106.105 58.7827 106.105C58.2178 106.105 57.9639 105.832 57.9639 105.229V101.306H59.2461V100.398H57.9639V98.8052H56.8594ZM65.7207 102.563C65.5811 101.376 64.5972 100.284 62.9468 100.284C61.125 100.284 59.9126 101.617 59.9126 103.699C59.9126 105.826 61.1313 107.114 62.9595 107.114C64.4575 107.114 65.562 106.188 65.7334 104.874H64.6479C64.4575 105.667 63.8672 106.143 62.9658 106.143C61.8232 106.143 61.0361 105.235 61.0361 103.699C61.0361 102.201 61.8105 101.255 62.9531 101.255C63.9243 101.255 64.4829 101.846 64.6416 102.563H65.7207ZM66.8062 107H67.9106V103.153C67.9106 102.011 68.5898 101.262 69.688 101.262C70.7227 101.262 71.2495 101.89 71.2495 102.938V107H72.354V102.734C72.354 101.262 71.478 100.284 70.0308 100.284C69.0278 100.284 68.3042 100.716 67.936 101.452H67.9106V97.8403H66.8062V107ZM74.5122 108.822L75.3818 105.591H74.2075L73.5918 108.822H74.5122ZM4.104 124H5.2085V117.398H4.104V124ZM4.65625 116.288C5.03711 116.288 5.34814 115.977 5.34814 115.602C5.34814 115.221 5.03711 114.917 4.65625 114.917C4.28174 114.917 3.9707 115.221 3.9707 115.602C3.9707 115.977 4.28174 116.288 4.65625 116.288ZM6.87158 114.84V124H8.01416V120.731H10.1279C11.8481 120.731 13.0732 119.519 13.0732 117.779C13.0732 116.046 11.8608 114.84 10.1406 114.84H6.87158ZM8.01416 115.856H9.84229C11.1562 115.856 11.8989 116.567 11.8989 117.779C11.8989 118.998 11.1499 119.715 9.84229 119.715H8.01416V115.856ZM14.2729 124H15.3774V120.153C15.3774 119.011 16.0566 118.262 17.1548 118.262C18.1895 118.262 18.7163 118.89 18.7163 119.938V124H19.8208V119.734C19.8208 118.262 18.9448 117.284 17.4976 117.284C16.4946 117.284 15.771 117.716 15.4028 118.452H15.3774V114.84H14.2729V124ZM23.9595 124.114C25.7812 124.114 27.0127 122.8 27.0127 120.699C27.0127 118.592 25.7812 117.284 23.9595 117.284C22.1313 117.284 20.8999 118.592 20.8999 120.699C20.8999 122.8 22.1313 124.114 23.9595 124.114ZM23.9595 123.143C22.7915 123.143 22.0234 122.254 22.0234 120.699C22.0234 119.144 22.7915 118.255 23.9595 118.255C25.1274 118.255 25.8892 119.144 25.8892 120.699C25.8892 122.254 25.1274 123.143 23.9595 123.143ZM28.1299 124H29.2344V120.115C29.2344 118.998 29.9136 118.262 30.9546 118.262C31.9702 118.262 32.4717 118.846 32.4717 119.912V124H33.5762V119.715C33.5762 118.217 32.7383 117.284 31.291 117.284C30.269 117.284 29.5645 117.741 29.1963 118.452H29.1709V117.398H28.1299V124ZM37.6323 118.243C38.6733 118.243 39.3652 119.03 39.3906 120.134H35.8042C35.874 119.036 36.5977 118.243 37.6323 118.243ZM39.3652 122.108C39.1812 122.73 38.5654 123.156 37.7275 123.156C36.5405 123.156 35.7979 122.324 35.7979 121.061V120.998H40.5332V120.579C40.5332 118.579 39.4351 117.284 37.6514 117.284C35.8296 117.284 34.6616 118.674 34.6616 120.725C34.6616 122.8 35.8105 124.114 37.7021 124.114C39.1431 124.114 40.2603 123.264 40.4507 122.108H39.3652ZM45.4653 124L48.7661 119.087H48.8169V124H49.9087V117.398H48.8169L45.5161 122.312H45.4653V117.398H44.3735V124H45.4653ZM54.1235 124H55.228V117.398H54.1235V124ZM54.6758 116.288C55.0566 116.288 55.3677 115.977 55.3677 115.602C55.3677 115.221 55.0566 114.917 54.6758 114.917C54.3013 114.917 53.9902 115.221 53.9902 115.602C53.9902 115.977 54.3013 116.288 54.6758 116.288ZM56.8911 114.84V124H58.0337V120.731H60.1475C61.8677 120.731 63.0928 119.519 63.0928 117.779C63.0928 116.046 61.8804 114.84 60.1602 114.84H56.8911ZM58.0337 115.856H59.8618C61.1758 115.856 61.9185 116.567 61.9185 117.779C61.9185 118.998 61.1694 119.715 59.8618 119.715H58.0337V115.856ZM65.8413 123.175C65.0479 123.175 64.521 122.762 64.521 122.134C64.521 121.512 65.0288 121.118 65.9175 121.061L67.6821 120.953V121.493C67.6821 122.445 66.8823 123.175 65.8413 123.175ZM65.5938 124.114C66.4824 124.114 67.3203 123.619 67.7139 122.864H67.7393V124H68.7866V119.436C68.7866 118.122 67.8091 117.284 66.2603 117.284C64.6987 117.284 63.7212 118.16 63.645 119.303H64.7114C64.8511 118.655 65.3843 118.255 66.2349 118.255C67.1489 118.255 67.6821 118.738 67.6821 119.544V120.096L65.7905 120.204C64.2671 120.293 63.3975 121.004 63.3975 122.134C63.3975 123.321 64.2798 124.114 65.5938 124.114ZM72.6904 124.114C73.6426 124.114 74.3979 123.645 74.8232 122.883H74.8423V124H75.896V114.84H74.7915V118.471H74.7661C74.3726 117.748 73.6108 117.284 72.665 117.284C71.002 117.284 69.8657 118.63 69.8657 120.699C69.8657 122.769 71.0083 124.114 72.6904 124.114ZM72.8999 118.255C74.0361 118.255 74.7979 119.227 74.7979 120.699C74.7979 122.178 74.0361 123.143 72.8999 123.143C71.7319 123.143 70.9956 122.197 70.9956 120.699C70.9956 119.208 71.7319 118.255 72.8999 118.255Z" fill="#161616"/>
</svg>
