<svg width="117" height="127" viewBox="0 0 117 127" fill="none" xmlns="http://www.w3.org/2000/svg">
<path d="M17.6953 51.3906H24.6484C31.0156 51.3906 34.8828 54.5156 34.8828 59.6719C34.8828 64.4375 30.7422 67.7578 24.8438 67.7578C18.6328 67.7578 14.7266 64.6328 14.375 59.8672H3.08594C3.63281 70.2578 11.9531 77.25 24.6875 77.25C37.6953 77.25 46.875 70.5312 46.875 60.4141C46.875 52.6016 41.4453 47.5234 33.0469 46.8203V46.5859C39.9609 45.3359 44.6875 40.3359 44.6875 33.4219C44.6875 24.3984 36.6797 18.3828 24.9609 18.3828C12.7344 18.3828 4.60938 25.1797 4.17969 35.6094H15.0391C15.3516 30.6875 18.9844 27.4453 24.4531 27.4453C30.3125 27.4453 33.5547 30.4531 33.5547 35.0234C33.5547 39.6719 29.9219 42.875 24.5312 42.875H17.6953V51.3906ZM76.2109 77.25C90.3906 77.25 98.9844 65.8828 98.9844 47.6797C98.9844 29.4766 90.3125 18.3438 76.2109 18.3438C62.1094 18.3438 53.3984 29.5156 53.3984 47.7188C53.3984 65.9609 62.0312 77.25 76.2109 77.25ZM76.2109 67.7969C69.4922 67.7969 65.3906 60.5312 65.3906 47.7188C65.3906 35.0234 69.5703 27.7969 76.2109 27.7969C82.8906 27.7969 86.9922 34.9844 86.9922 47.7188C86.9922 60.5703 82.9297 67.7969 76.2109 67.7969Z" fill="#C6C9CE"/>
<path d="M101.664 60.9746C101.664 57.5322 99.7305 55.3789 96.6396 55.3789C93.5488 55.3789 91.6152 57.5322 91.6152 60.9746C91.6152 64.4316 93.5488 66.5703 96.6396 66.5703C99.7305 66.5703 101.664 64.4316 101.664 60.9746ZM96.6396 63.5527C95.8633 63.5527 95.3945 62.5859 95.3945 60.9453C95.3945 59.3047 95.8633 58.3379 96.6396 58.3379C97.416 58.3379 97.8848 59.3047 97.8848 60.9453C97.8848 62.5859 97.416 63.5527 96.6396 63.5527ZM98.2217 77L105.634 66.834L113.632 55.8623H109.56L102.382 65.7207L94.1494 77H98.2217ZM116.166 71.7412C116.166 68.2988 114.232 66.1602 111.142 66.1602C108.051 66.1602 106.117 68.2988 106.117 71.7412C106.117 75.1982 108.051 77.3369 111.142 77.3369C114.232 77.3369 116.166 75.1982 116.166 71.7412ZM111.142 74.3193C110.365 74.3193 109.896 73.3525 109.896 71.7119C109.896 70.0713 110.365 69.1045 111.142 69.1045C111.918 69.1045 112.387 70.0713 112.387 71.7119C112.387 73.3525 111.918 74.3193 111.142 74.3193Z" fill="#C6C9CE"/>
<path d="M98.2217 77V77.5H98.4759L98.6257 77.2946L98.2217 77ZM105.634 66.834L106.038 67.1286L106.038 67.1285L105.634 66.834ZM113.632 55.8623L114.036 56.1568L114.615 55.3623H113.632V55.8623ZM109.56 55.8623V55.3623H109.305L109.155 55.568L109.56 55.8623ZM102.382 65.7207L102.786 66.0155L102.786 66.015L102.382 65.7207ZM94.1494 77L93.7455 76.7052L93.1655 77.5H94.1494V77ZM102.164 60.9746C102.164 59.1624 101.654 57.6337 100.683 56.5518C99.706 55.4638 98.3074 54.8789 96.6396 54.8789V55.8789C98.0627 55.8789 99.1763 56.3707 99.9389 57.2199C100.707 58.0753 101.164 59.3444 101.164 60.9746H102.164ZM96.6396 54.8789C94.9719 54.8789 93.5733 55.4638 92.5964 56.5518C91.6249 57.6337 91.1152 59.1624 91.1152 60.9746H92.1152C92.1152 59.3444 92.5724 58.0753 93.3404 57.2199C94.103 56.3707 95.2166 55.8789 96.6396 55.8789V54.8789ZM91.1152 60.9746C91.1152 62.7937 91.6247 64.3228 92.5967 65.4033C93.5741 66.4898 94.9729 67.0703 96.6396 67.0703V66.0703C95.2155 66.0703 94.1021 65.5815 93.3401 64.7344C92.5726 63.8813 92.1152 62.6126 92.1152 60.9746H91.1152ZM96.6396 67.0703C98.3064 67.0703 99.7052 66.4898 100.683 65.4033C101.655 64.3228 102.164 62.7937 102.164 60.9746H101.164C101.164 62.6126 100.707 63.8813 99.9392 64.7344C99.1772 65.5815 98.0638 66.0703 96.6396 66.0703V67.0703ZM96.6396 63.0527C96.508 63.0527 96.3397 62.9879 96.1768 62.6481C96.0083 62.2966 95.8945 61.7294 95.8945 60.9453H94.8945C94.8945 61.8019 95.0152 62.5384 95.2751 63.0804C95.5406 63.6342 95.995 64.0527 96.6396 64.0527V63.0527ZM95.8945 60.9453C95.8945 60.1612 96.0083 59.594 96.1768 59.2426C96.3397 58.9027 96.508 58.8379 96.6396 58.8379V57.8379C95.995 57.8379 95.5406 58.2564 95.2751 58.8102C95.0152 59.3522 94.8945 60.0888 94.8945 60.9453H95.8945ZM96.6396 58.8379C96.7713 58.8379 96.9396 58.9027 97.1025 59.2426C97.271 59.594 97.3848 60.1612 97.3848 60.9453H98.3848C98.3848 60.0888 98.2641 59.3522 98.0042 58.8102C97.7387 58.2564 97.2843 57.8379 96.6396 57.8379V58.8379ZM97.3848 60.9453C97.3848 61.7294 97.271 62.2966 97.1025 62.6481C96.9396 62.9879 96.7713 63.0527 96.6396 63.0527V64.0527C97.2843 64.0527 97.7387 63.6342 98.0042 63.0804C98.2641 62.5384 98.3848 61.8019 98.3848 60.9453H97.3848ZM98.6257 77.2946L106.038 67.1286L105.23 66.5394L97.8177 76.7054L98.6257 77.2946ZM106.038 67.1285L114.036 56.1568L113.228 55.5678L105.23 66.5394L106.038 67.1285ZM113.632 55.3623H109.56V56.3623H113.632V55.3623ZM109.155 55.568L101.978 65.4264L102.786 66.015L109.964 56.1566L109.155 55.568ZM101.978 65.4259L93.7455 76.7052L94.5533 77.2948L102.786 66.0155L101.978 65.4259ZM94.1494 77.5H98.2217V76.5H94.1494V77.5ZM116.666 71.7412C116.666 69.929 116.156 68.4035 115.184 67.325C114.207 66.2406 112.808 65.6602 111.142 65.6602V66.6602C112.566 66.6602 113.679 67.149 114.441 67.9945C115.209 68.846 115.666 70.1111 115.666 71.7412H116.666ZM111.142 65.6602C109.475 65.6602 108.076 66.2406 107.099 67.325C106.127 68.4035 105.617 69.929 105.617 71.7412H106.617C106.617 70.1111 107.074 68.846 107.842 67.9945C108.604 67.149 109.717 66.6602 111.142 66.6602V65.6602ZM105.617 71.7412C105.617 73.5603 106.127 75.0894 107.099 76.1699C108.076 77.2564 109.475 77.8369 111.142 77.8369V76.8369C109.717 76.8369 108.604 76.3481 107.842 75.501C107.075 74.6479 106.617 73.3792 106.617 71.7412H105.617ZM111.142 77.8369C112.808 77.8369 114.207 77.2564 115.185 76.1699C116.157 75.0894 116.666 73.5603 116.666 71.7412H115.666C115.666 73.3792 115.209 74.6479 114.441 75.501C113.679 76.3481 112.566 76.8369 111.142 76.8369V77.8369ZM111.142 73.8193C111.01 73.8193 110.842 73.7545 110.679 73.4147C110.51 73.0632 110.396 72.496 110.396 71.7119H109.396C109.396 72.5685 109.517 73.305 109.777 73.847C110.043 74.4008 110.497 74.8193 111.142 74.8193V73.8193ZM110.396 71.7119C110.396 70.9278 110.51 70.3607 110.679 70.0092C110.842 69.6693 111.01 69.6045 111.142 69.6045V68.6045C110.497 68.6045 110.043 69.023 109.777 69.5768C109.517 70.1188 109.396 70.8554 109.396 71.7119H110.396ZM111.142 69.6045C111.273 69.6045 111.442 69.6693 111.604 70.0092C111.773 70.3607 111.887 70.9278 111.887 71.7119H112.887C112.887 70.8554 112.766 70.1188 112.506 69.5768C112.241 69.023 111.786 68.6045 111.142 68.6045V69.6045ZM111.887 71.7119C111.887 72.496 111.773 73.0632 111.604 73.4147C111.442 73.7545 111.273 73.8193 111.142 73.8193V74.8193C111.786 74.8193 112.241 74.4008 112.506 73.847C112.766 73.305 112.887 72.5685 112.887 71.7119H111.887Z" fill="white"/>
<path d="M25.1431 97.688C22.5469 97.688 20.9219 99.5161 20.9219 102.423C20.9219 105.331 22.5469 107.152 25.1431 107.152C27.7393 107.152 29.3643 105.331 29.3643 102.423C29.3643 99.5161 27.7393 97.688 25.1431 97.688ZM25.1431 98.7417C27.0156 98.7417 28.1899 100.164 28.1899 102.423C28.1899 104.677 27.0156 106.099 25.1431 106.099C23.2705 106.099 22.0962 104.677 22.0962 102.423C22.0962 100.164 23.2705 98.7417 25.1431 98.7417ZM36.2007 102.43C36.0039 101.306 35.0327 100.284 33.4395 100.284C31.6113 100.284 30.418 101.643 30.418 103.699C30.418 105.8 31.6177 107.114 33.4521 107.114C34.9375 107.114 35.9976 106.232 36.2134 104.981H35.1216C34.9121 105.711 34.3345 106.143 33.4585 106.143C32.3096 106.143 31.5415 105.21 31.5415 103.699C31.5415 102.227 32.2969 101.255 33.4458 101.255C34.3789 101.255 34.9185 101.795 35.1089 102.43H36.2007ZM42.0659 100.398H36.7085V101.306H38.8413V107H39.9331V101.306H42.0659V100.398ZM45.0176 106.175C44.2241 106.175 43.6973 105.762 43.6973 105.134C43.6973 104.512 44.2051 104.118 45.0938 104.061L46.8584 103.953V104.493C46.8584 105.445 46.0586 106.175 45.0176 106.175ZM44.77 107.114C45.6587 107.114 46.4966 106.619 46.8901 105.864H46.9155V107H47.9629V102.436C47.9629 101.122 46.9854 100.284 45.4365 100.284C43.875 100.284 42.8975 101.16 42.8213 102.303H43.8877C44.0273 101.655 44.5605 101.255 45.4111 101.255C46.3252 101.255 46.8584 101.738 46.8584 102.544V103.096L44.9668 103.204C43.4434 103.293 42.5737 104.004 42.5737 105.134C42.5737 106.321 43.4561 107.114 44.77 107.114ZM51.251 104.086L51.4541 101.306H53.7012V107H54.793V100.398H50.4702L50.2163 104.061C50.1338 105.273 49.8862 106.042 49.2324 106.042C49.0737 106.042 48.9531 106.01 48.896 105.991V106.987C48.9722 107.019 49.0991 107.057 49.2896 107.057C50.6797 107.057 51.1177 105.908 51.251 104.086ZM58.6777 103.414C59.5283 103.414 60.0869 103.94 60.0869 104.753C60.0869 105.559 59.5347 106.092 58.6777 106.092H57.4463V103.414H58.6777ZM56.3545 107H58.6968C60.2075 107 61.1787 106.13 61.1787 104.753C61.1787 103.375 60.2075 102.506 58.6968 102.506H57.4463V100.398H56.3545V107ZM66.7329 107H67.8247V100.398H66.7329V103.122H63.4766V100.398H62.3848V107H63.4766V104.029H66.7329V107ZM75.0293 107H76.1211V100.398H75.0293V107ZM71.7031 103.414C72.5537 103.414 73.1123 103.94 73.1123 104.753C73.1123 105.559 72.5601 106.092 71.7031 106.092H70.4717V103.414H71.7031ZM69.3799 107H71.7222C73.2329 107 74.2041 106.13 74.2041 104.753C74.2041 103.375 73.2329 102.506 71.7222 102.506H70.4717V100.398H69.3799V107ZM80.3232 101.243C81.3643 101.243 82.0562 102.03 82.0815 103.134H78.4951C78.5649 102.036 79.2886 101.243 80.3232 101.243ZM82.0562 105.108C81.8721 105.73 81.2563 106.156 80.4185 106.156C79.2314 106.156 78.4888 105.324 78.4888 104.061V103.998H83.2241V103.579C83.2241 101.579 82.126 100.284 80.3423 100.284C78.5205 100.284 77.3525 101.674 77.3525 103.725C77.3525 105.8 78.5015 107.114 80.3931 107.114C81.834 107.114 82.9512 106.264 83.1416 105.108H82.0562ZM21.0044 123.175C20.2109 123.175 19.6841 122.762 19.6841 122.134C19.6841 121.512 20.1919 121.118 21.0806 121.061L22.8452 120.953V121.493C22.8452 122.445 22.0454 123.175 21.0044 123.175ZM20.7568 124.114C21.6455 124.114 22.4834 123.619 22.877 122.864H22.9023V124H23.9497V119.436C23.9497 118.122 22.9722 117.284 21.4233 117.284C19.8618 117.284 18.8843 118.16 18.8081 119.303H19.8745C20.0142 118.655 20.5474 118.255 21.3979 118.255C22.312 118.255 22.8452 118.738 22.8452 119.544V120.096L20.9536 120.204C19.4302 120.293 18.5605 121.004 18.5605 122.134C18.5605 123.321 19.4429 124.114 20.7568 124.114ZM27.7139 120.521L30.7988 117.398H29.4341L26.6157 120.318H26.5649V117.398H25.4731V124H26.5649V120.826H26.6157L29.4658 124H30.8877L27.7139 120.521ZM37.1465 119.43C36.9497 118.306 35.9785 117.284 34.3853 117.284C32.5571 117.284 31.3638 118.643 31.3638 120.699C31.3638 122.8 32.5635 124.114 34.3979 124.114C35.8833 124.114 36.9434 123.232 37.1592 121.981H36.0674C35.8579 122.711 35.2803 123.143 34.4043 123.143C33.2554 123.143 32.4873 122.21 32.4873 120.699C32.4873 119.227 33.2427 118.255 34.3916 118.255C35.3247 118.255 35.8643 118.795 36.0547 119.43H37.1465ZM40.9614 118.243C42.0024 118.243 42.6943 119.03 42.7197 120.134H39.1333C39.2031 119.036 39.9268 118.243 40.9614 118.243ZM42.6943 122.108C42.5103 122.73 41.8945 123.156 41.0566 123.156C39.8696 123.156 39.127 122.324 39.127 121.061V120.998H43.8623V120.579C43.8623 118.579 42.7642 117.284 40.9805 117.284C39.1587 117.284 37.9907 118.674 37.9907 120.725C37.9907 122.8 39.1396 124.114 41.0312 124.114C42.4722 124.114 43.5894 123.264 43.7798 122.108H42.6943ZM50.5527 119.43C50.356 118.306 49.3848 117.284 47.7915 117.284C45.9634 117.284 44.77 118.643 44.77 120.699C44.77 122.8 45.9697 124.114 47.8042 124.114C49.2896 124.114 50.3496 123.232 50.5654 121.981H49.4736C49.2642 122.711 48.6865 123.143 47.8105 123.143C46.6616 123.143 45.8936 122.21 45.8936 120.699C45.8936 119.227 46.6489 118.255 47.7979 118.255C48.731 118.255 49.2705 118.795 49.4609 119.43H50.5527ZM57.1797 119.43C56.9829 118.306 56.0117 117.284 54.4185 117.284C52.5903 117.284 51.397 118.643 51.397 120.699C51.397 122.8 52.5967 124.114 54.4312 124.114C55.9165 124.114 56.9766 123.232 57.1924 121.981H56.1006C55.8911 122.711 55.3135 123.143 54.4375 123.143C53.2886 123.143 52.5205 122.21 52.5205 120.699C52.5205 119.227 53.2759 118.255 54.4248 118.255C55.3579 118.255 55.8975 118.795 56.0879 119.43H57.1797ZM58.8301 126.469C60.0234 126.469 60.5693 126.006 61.1343 124.463L63.7305 117.398H62.5688L60.7407 122.896H60.7217L58.8936 117.398H57.7129L60.1504 124.006L59.998 124.47C59.7441 125.238 59.4014 125.536 58.7856 125.536C58.646 125.536 58.4746 125.53 58.354 125.504V126.431C58.4746 126.457 58.6968 126.469 58.8301 126.469ZM66.7075 123.175C65.9141 123.175 65.3872 122.762 65.3872 122.134C65.3872 121.512 65.895 121.118 66.7837 121.061L68.5483 120.953V121.493C68.5483 122.445 67.7485 123.175 66.7075 123.175ZM66.46 124.114C67.3486 124.114 68.1865 123.619 68.5801 122.864H68.6055V124H69.6528V119.436C69.6528 118.122 68.6753 117.284 67.1265 117.284C65.5649 117.284 64.5874 118.16 64.5112 119.303H65.5776C65.7173 118.655 66.2505 118.255 67.1011 118.255C68.0151 118.255 68.5483 118.738 68.5483 119.544V120.096L66.6567 120.204C65.1333 120.293 64.2637 121.004 64.2637 122.134C64.2637 123.321 65.146 124.114 66.46 124.114ZM74.3882 117.284C73.4297 117.284 72.6616 117.773 72.2554 118.516H72.23V117.398H71.1826V126.203H72.2871V122.927H72.3125C72.7061 123.651 73.4678 124.114 74.4136 124.114C76.0767 124.114 77.2129 122.769 77.2129 120.699C77.2129 118.63 76.0703 117.284 74.3882 117.284ZM74.1724 123.143C73.0425 123.143 72.2808 122.172 72.2808 120.699C72.2808 119.233 73.0425 118.255 74.1724 118.255C75.3467 118.255 76.083 119.208 76.083 120.699C76.083 122.197 75.3467 123.143 74.1724 123.143ZM84.0874 124H85.1792V117.398H84.0874V124ZM80.7612 120.414C81.6118 120.414 82.1704 120.94 82.1704 121.753C82.1704 122.559 81.6182 123.092 80.7612 123.092H79.5298V120.414H80.7612ZM78.438 124H80.7803C82.291 124 83.2622 123.13 83.2622 121.753C83.2622 120.375 82.291 119.506 80.7803 119.506H79.5298V117.398H78.438V124Z" fill="#161616"/>
</svg>
