<svg width="84" height="114" viewBox="0 0 84 114" fill="none" xmlns="http://www.w3.org/2000/svg">
<path d="M36.6641 77.25C49.5938 77.25 58.4219 69.125 58.4219 57.1719C58.4219 46.1953 50.6875 38.2656 39.9062 38.2656C34.1641 38.2656 29.6719 40.6484 27.3672 44.4375H27.1328L28.4219 29.0078H55.0234V19.6328H19.1641L16.3906 52.0547H26.9375C28.8906 48.8125 32.5625 46.8594 36.8203 46.8594C42.9141 46.8594 47.1719 51.2344 47.1719 57.4844C47.1719 63.6172 42.9141 67.9141 36.7422 67.9141C31.2734 67.9141 27.0547 64.6328 26.3906 59.8672H15.4922C15.8438 70.0625 24.5547 77.25 36.6641 77.25Z" fill="#C6C9CE"/>
<path d="M62.6641 60.9746C62.6641 57.5322 60.7305 55.3789 57.6396 55.3789C54.5488 55.3789 52.6152 57.5322 52.6152 60.9746C52.6152 64.4316 54.5488 66.5703 57.6396 66.5703C60.7305 66.5703 62.6641 64.4316 62.6641 60.9746ZM57.6396 63.5527C56.8633 63.5527 56.3945 62.5859 56.3945 60.9453C56.3945 59.3047 56.8633 58.3379 57.6396 58.3379C58.416 58.3379 58.8848 59.3047 58.8848 60.9453C58.8848 62.5859 58.416 63.5527 57.6396 63.5527ZM59.2217 77L66.6338 66.834L74.6318 55.8623H70.5596L63.3818 65.7207L55.1494 77H59.2217ZM77.166 71.7412C77.166 68.2988 75.2324 66.1602 72.1416 66.1602C69.0508 66.1602 67.1172 68.2988 67.1172 71.7412C67.1172 75.1982 69.0508 77.3369 72.1416 77.3369C75.2324 77.3369 77.166 75.1982 77.166 71.7412ZM72.1416 74.3193C71.3652 74.3193 70.8965 73.3525 70.8965 71.7119C70.8965 70.0713 71.3652 69.1045 72.1416 69.1045C72.918 69.1045 73.3867 70.0713 73.3867 71.7119C73.3867 73.3525 72.918 74.3193 72.1416 74.3193Z" fill="#C6C9CE"/>
<path d="M59.2217 77V77.5H59.4759L59.6257 77.2946L59.2217 77ZM66.6338 66.834L67.0378 67.1286L67.0378 67.1285L66.6338 66.834ZM74.6318 55.8623L75.0359 56.1568L75.6151 55.3623H74.6318V55.8623ZM70.5596 55.8623V55.3623H70.3051L70.1554 55.568L70.5596 55.8623ZM63.3818 65.7207L63.7857 66.0155L63.786 66.015L63.3818 65.7207ZM55.1494 77L54.7455 76.7052L54.1655 77.5H55.1494V77ZM63.1641 60.9746C63.1641 59.1624 62.6544 57.6337 61.6829 56.5518C60.706 55.4638 59.3074 54.8789 57.6396 54.8789V55.8789C59.0627 55.8789 60.1763 56.3707 60.9389 57.2199C61.7069 58.0753 62.1641 59.3444 62.1641 60.9746H63.1641ZM57.6396 54.8789C55.9719 54.8789 54.5733 55.4638 53.5964 56.5518C52.6249 57.6337 52.1152 59.1624 52.1152 60.9746H53.1152C53.1152 59.3444 53.5724 58.0753 54.3404 57.2199C55.103 56.3707 56.2166 55.8789 57.6396 55.8789V54.8789ZM52.1152 60.9746C52.1152 62.7937 52.6247 64.3228 53.5967 65.4033C54.5741 66.4898 55.9729 67.0703 57.6396 67.0703V66.0703C56.2155 66.0703 55.1021 65.5815 54.3401 64.7344C53.5726 63.8813 53.1152 62.6126 53.1152 60.9746H52.1152ZM57.6396 67.0703C59.3064 67.0703 60.7052 66.4898 61.6826 65.4033C62.6546 64.3228 63.1641 62.7937 63.1641 60.9746H62.1641C62.1641 62.6126 61.7067 63.8813 60.9392 64.7344C60.1772 65.5815 59.0638 66.0703 57.6396 66.0703V67.0703ZM57.6396 63.0527C57.508 63.0527 57.3397 62.9879 57.1768 62.6481C57.0083 62.2966 56.8945 61.7294 56.8945 60.9453H55.8945C55.8945 61.8019 56.0152 62.5384 56.2751 63.0804C56.5406 63.6342 56.995 64.0527 57.6396 64.0527V63.0527ZM56.8945 60.9453C56.8945 60.1612 57.0083 59.594 57.1768 59.2426C57.3397 58.9027 57.508 58.8379 57.6396 58.8379V57.8379C56.995 57.8379 56.5406 58.2564 56.2751 58.8102C56.0152 59.3522 55.8945 60.0888 55.8945 60.9453H56.8945ZM57.6396 58.8379C57.7713 58.8379 57.9396 58.9027 58.1025 59.2426C58.271 59.594 58.3848 60.1612 58.3848 60.9453H59.3848C59.3848 60.0888 59.2641 59.3522 59.0042 58.8102C58.7387 58.2564 58.2843 57.8379 57.6396 57.8379V58.8379ZM58.3848 60.9453C58.3848 61.7294 58.271 62.2966 58.1025 62.6481C57.9396 62.9879 57.7713 63.0527 57.6396 63.0527V64.0527C58.2843 64.0527 58.7387 63.6342 59.0042 63.0804C59.2641 62.5384 59.3848 61.8019 59.3848 60.9453H58.3848ZM59.6257 77.2946L67.0378 67.1286L66.2298 66.5394L58.8177 76.7054L59.6257 77.2946ZM67.0378 67.1285L75.0359 56.1568L74.2278 55.5678L66.2297 66.5394L67.0378 67.1285ZM74.6318 55.3623H70.5596V56.3623H74.6318V55.3623ZM70.1554 55.568L62.9776 65.4264L63.786 66.015L70.9638 56.1566L70.1554 55.568ZM62.978 65.4259L54.7455 76.7052L55.5533 77.2948L63.7857 66.0155L62.978 65.4259ZM55.1494 77.5H59.2217V76.5H55.1494V77.5ZM77.666 71.7412C77.666 69.929 77.1563 68.4035 76.1843 67.325C75.2069 66.2406 73.8083 65.6602 72.1416 65.6602V66.6602C73.5658 66.6602 74.6794 67.149 75.4415 67.9945C76.2089 68.846 76.666 70.1111 76.666 71.7412H77.666ZM72.1416 65.6602C70.4749 65.6602 69.0763 66.2406 68.0989 67.325C67.1269 68.4035 66.6172 69.929 66.6172 71.7412H67.6172C67.6172 70.1111 68.0743 68.846 68.8417 67.9945C69.6038 67.149 70.7174 66.6602 72.1416 66.6602V65.6602ZM66.6172 71.7412C66.6172 73.5603 67.1266 75.0894 68.0986 76.1699C69.0761 77.2564 70.4749 77.8369 72.1416 77.8369V76.8369C70.7175 76.8369 69.6041 76.3481 68.8421 75.501C68.0745 74.6479 67.6172 73.3792 67.6172 71.7412H66.6172ZM72.1416 77.8369C73.8083 77.8369 75.2071 77.2564 76.1846 76.1699C77.1566 75.0894 77.666 73.5603 77.666 71.7412H76.666C76.666 73.3792 76.2087 74.6479 75.4411 75.501C74.6791 76.3481 73.5657 76.8369 72.1416 76.8369V77.8369ZM72.1416 73.8193C72.0099 73.8193 71.8417 73.7545 71.6788 73.4147C71.5102 73.0632 71.3965 72.496 71.3965 71.7119H70.3965C70.3965 72.5685 70.5171 73.305 70.7771 73.847C71.0426 74.4008 71.4969 74.8193 72.1416 74.8193V73.8193ZM71.3965 71.7119C71.3965 70.9278 71.5102 70.3607 71.6788 70.0092C71.8417 69.6693 72.0099 69.6045 72.1416 69.6045V68.6045C71.4969 68.6045 71.0426 69.023 70.7771 69.5768C70.5171 70.1188 70.3965 70.8554 70.3965 71.7119H71.3965ZM72.1416 69.6045C72.2733 69.6045 72.4415 69.6693 72.6045 70.0092C72.773 70.3607 72.8867 70.9278 72.8867 71.7119H73.8867C73.8867 70.8554 73.7661 70.1188 73.5061 69.5768C73.2406 69.023 72.7863 68.6045 72.1416 68.6045V69.6045ZM72.8867 71.7119C72.8867 72.496 72.773 73.0632 72.6045 73.4147C72.4415 73.7545 72.2733 73.8193 72.1416 73.8193V74.8193C72.7863 74.8193 73.2406 74.4008 73.5061 73.847C73.7661 73.305 73.8867 72.5685 73.8867 71.7119H72.8867Z" fill="white"/>
<path d="M23.6235 106V97.8687H26.5117V96.8403H19.5928V97.8687H22.481V106H23.6235ZM26.0864 106H27.1909V101.887C27.1909 100.954 27.7495 100.338 28.6064 100.338C28.873 100.338 29.1079 100.37 29.1968 100.401V99.3286C29.1079 99.3159 28.9429 99.2842 28.7524 99.2842C27.978 99.2842 27.3687 99.7476 27.1528 100.478H27.1274V99.3984H26.0864V106ZM32.1484 105.175C31.355 105.175 30.8281 104.762 30.8281 104.134C30.8281 103.512 31.3359 103.118 32.2246 103.061L33.9893 102.953V103.493C33.9893 104.445 33.1895 105.175 32.1484 105.175ZM31.9009 106.114C32.7896 106.114 33.6274 105.619 34.021 104.864H34.0464V106H35.0938V101.436C35.0938 100.122 34.1162 99.2842 32.5674 99.2842C31.0059 99.2842 30.0283 100.16 29.9521 101.303H31.0186C31.1582 100.655 31.6914 100.255 32.542 100.255C33.4561 100.255 33.9893 100.738 33.9893 101.544V102.096L32.0977 102.204C30.5742 102.293 29.7046 103.004 29.7046 104.134C29.7046 105.321 30.5869 106.114 31.9009 106.114ZM38.9976 106.114C39.9497 106.114 40.7051 105.645 41.1304 104.883H41.1494V106H42.2031V96.8403H41.0986V100.471H41.0732C40.6797 99.7476 39.918 99.2842 38.9722 99.2842C37.3091 99.2842 36.1729 100.63 36.1729 102.699C36.1729 104.769 37.3154 106.114 38.9976 106.114ZM39.207 100.255C40.3433 100.255 41.105 101.227 41.105 102.699C41.105 104.178 40.3433 105.143 39.207 105.143C38.0391 105.143 37.3027 104.197 37.3027 102.699C37.3027 101.208 38.0391 100.255 39.207 100.255ZM46.3418 100.243C47.3828 100.243 48.0747 101.03 48.1001 102.134H44.5137C44.5835 101.036 45.3071 100.243 46.3418 100.243ZM48.0747 104.108C47.8906 104.73 47.2749 105.156 46.437 105.156C45.25 105.156 44.5073 104.324 44.5073 103.061V102.998H49.2427V102.579C49.2427 100.579 48.1445 99.2842 46.3608 99.2842C44.5391 99.2842 43.3711 100.674 43.3711 102.725C43.3711 104.8 44.52 106.114 46.4116 106.114C47.8525 106.114 48.9697 105.264 49.1602 104.108H48.0747ZM54.5112 102.801V101.772H50.3472V102.801H54.5112ZM55.9902 106H57.0947V99.3984H55.9902V106ZM56.5425 98.2876C56.9233 98.2876 57.2344 97.9766 57.2344 97.6021C57.2344 97.2212 56.9233 96.9165 56.5425 96.9165C56.168 96.9165 55.8569 97.2212 55.8569 97.6021C55.8569 97.9766 56.168 98.2876 56.5425 98.2876ZM58.5864 106H59.6909V102.115C59.6909 100.998 60.3701 100.262 61.4111 100.262C62.4268 100.262 62.9282 100.846 62.9282 101.912V106H64.0327V101.715C64.0327 100.217 63.1948 99.2842 61.7476 99.2842C60.7256 99.2842 60.021 99.7412 59.6528 100.452H59.6274V99.3984H58.5864V106Z" fill="#161616"/>
</svg>
