<svg width="108" height="67" viewBox="0 0 108 67" fill="none" xmlns="http://www.w3.org/2000/svg">
<rect width="93" height="38" transform="matrix(-1 -5.07184e-09 -5.07184e-09 1 102.785 7.88477)" fill="#FF2424"/>
<path d="M71 59L71 43L72.05 43L92 43L71 59Z" fill="#FF2424"/>
<path d="M33.7226 29.4802L37.707 29.4802L37.707 26.99L33.7226 26.99L33.7226 22.7712L31.1641 22.7712L31.1641 26.99L27.1797 26.99L27.1797 29.4802L31.1641 29.4802L31.1641 33.7478L33.7226 33.7478L33.7226 29.4802ZM49.2988 34.197C52.5312 34.197 54.7383 32.1658 54.7383 29.1775C54.7383 26.4333 52.8047 24.4509 50.1094 24.4509C48.6738 24.4509 47.5508 25.0466 46.9746 25.9939L46.916 25.9939L47.2383 22.1365L53.8887 22.1365L53.8887 19.7927L44.9238 19.7927L44.2305 27.8982L46.8672 27.8982C47.3555 27.0876 48.2734 26.5994 49.3379 26.5994C50.8613 26.5994 51.9258 27.6931 51.9258 29.2556C51.9258 30.7888 50.8613 31.863 49.3184 31.863C47.9512 31.863 46.8965 31.0427 46.7305 29.8513L44.0059 29.8513C44.0937 32.4001 46.2715 34.197 49.2988 34.197ZM61.8965 34.197C65.4414 34.197 67.5898 31.3552 67.5898 26.8044C67.5898 22.2537 65.4219 19.4705 61.8965 19.4705C58.3711 19.4705 56.1934 22.2634 56.1934 26.8142C56.1934 31.3748 58.3516 34.197 61.8965 34.197ZM61.8965 31.8337C60.2168 31.8337 59.1914 30.0173 59.1914 26.8142C59.1914 23.6404 60.2363 21.8337 61.8965 21.8337C63.5664 21.8337 64.5918 23.6306 64.5918 26.8142C64.5918 30.0271 63.5762 31.8337 61.8965 31.8337Z" fill="white"/>
<path d="M82.5052 21.0208L76.2515 21.0208L76.2515 24.9011L79.4764 24.9011C80.8305 24.9189 81.8876 25.266 82.6478 25.9424C83.408 26.6188 83.7881 27.5384 83.7881 28.7014C83.7881 29.8702 83.405 30.8017 82.6389 31.4959C81.8728 32.1901 80.8275 32.5491 79.5031 32.5728L74.5322 32.5728L74.5322 19.6146L82.5052 19.6146L82.5052 21.0208ZM76.2515 26.3073L76.2515 31.1755L79.3784 31.1755C80.2277 31.1755 80.8869 30.9501 81.3561 30.4991C81.8312 30.0482 82.0687 29.443 82.0687 28.6836C82.0687 27.9538 81.8401 27.3782 81.3828 26.957C80.9314 26.5357 80.2871 26.3192 79.4497 26.3073L76.2515 26.3073Z" fill="white" stroke="white" stroke-width="0.5"/>
<rect x="72.6807" y="19.6146" width="4.93645" height="1.23411" fill="white" stroke="white" stroke-width="0.5"/>
<rect x="72.6807" y="25.1682" width="3.70233" height="1.23411" fill="white" stroke="white" stroke-width="0.5"/>
</svg>
