<svg width="84" height="114" viewBox="0 0 84 114" fill="none" xmlns="http://www.w3.org/2000/svg">
<path d="M28.9141 76H41.2969L64.8125 29.125V19.6328H24.5V29.0078H53.1719V29.2422L28.9141 76Z" fill="#C6C9CE"/>
<path d="M55.6641 60.9746C55.6641 57.5322 53.7305 55.3789 50.6396 55.3789C47.5488 55.3789 45.6152 57.5322 45.6152 60.9746C45.6152 64.4316 47.5488 66.5703 50.6396 66.5703C53.7305 66.5703 55.6641 64.4316 55.6641 60.9746ZM50.6396 63.5527C49.8633 63.5527 49.3945 62.5859 49.3945 60.9453C49.3945 59.3047 49.8633 58.3379 50.6396 58.3379C51.416 58.3379 51.8848 59.3047 51.8848 60.9453C51.8848 62.5859 51.416 63.5527 50.6396 63.5527ZM52.2217 77L59.6338 66.834L67.6318 55.8623H63.5596L56.3818 65.7207L48.1494 77H52.2217ZM70.166 71.7412C70.166 68.2988 68.2324 66.1602 65.1416 66.1602C62.0508 66.1602 60.1172 68.2988 60.1172 71.7412C60.1172 75.1982 62.0508 77.3369 65.1416 77.3369C68.2324 77.3369 70.166 75.1982 70.166 71.7412ZM65.1416 74.3193C64.3652 74.3193 63.8965 73.3525 63.8965 71.7119C63.8965 70.0713 64.3652 69.1045 65.1416 69.1045C65.918 69.1045 66.3867 70.0713 66.3867 71.7119C66.3867 73.3525 65.918 74.3193 65.1416 74.3193Z" fill="#C6C9CE"/>
<path d="M52.2217 77V77.5H52.4759L52.6257 77.2946L52.2217 77ZM59.6338 66.834L60.0378 67.1286L60.0378 67.1285L59.6338 66.834ZM67.6318 55.8623L68.0359 56.1568L68.6151 55.3623H67.6318V55.8623ZM63.5596 55.8623V55.3623H63.3051L63.1554 55.568L63.5596 55.8623ZM56.3818 65.7207L56.7857 66.0155L56.786 66.015L56.3818 65.7207ZM48.1494 77L47.7455 76.7052L47.1655 77.5H48.1494V77ZM56.1641 60.9746C56.1641 59.1624 55.6544 57.6337 54.6829 56.5518C53.706 55.4638 52.3074 54.8789 50.6396 54.8789V55.8789C52.0627 55.8789 53.1763 56.3707 53.9389 57.2199C54.7069 58.0753 55.1641 59.3444 55.1641 60.9746H56.1641ZM50.6396 54.8789C48.9719 54.8789 47.5733 55.4638 46.5964 56.5518C45.6249 57.6337 45.1152 59.1624 45.1152 60.9746H46.1152C46.1152 59.3444 46.5724 58.0753 47.3404 57.2199C48.103 56.3707 49.2166 55.8789 50.6396 55.8789V54.8789ZM45.1152 60.9746C45.1152 62.7937 45.6247 64.3228 46.5967 65.4033C47.5741 66.4898 48.9729 67.0703 50.6396 67.0703V66.0703C49.2155 66.0703 48.1021 65.5815 47.3401 64.7344C46.5726 63.8813 46.1152 62.6126 46.1152 60.9746H45.1152ZM50.6396 67.0703C52.3064 67.0703 53.7052 66.4898 54.6826 65.4033C55.6546 64.3228 56.1641 62.7937 56.1641 60.9746H55.1641C55.1641 62.6126 54.7067 63.8813 53.9392 64.7344C53.1772 65.5815 52.0638 66.0703 50.6396 66.0703V67.0703ZM50.6396 63.0527C50.508 63.0527 50.3397 62.9879 50.1768 62.6481C50.0083 62.2966 49.8945 61.7294 49.8945 60.9453H48.8945C48.8945 61.8019 49.0152 62.5384 49.2751 63.0804C49.5406 63.6342 49.995 64.0527 50.6396 64.0527V63.0527ZM49.8945 60.9453C49.8945 60.1612 50.0083 59.594 50.1768 59.2426C50.3397 58.9027 50.508 58.8379 50.6396 58.8379V57.8379C49.995 57.8379 49.5406 58.2564 49.2751 58.8102C49.0152 59.3522 48.8945 60.0888 48.8945 60.9453H49.8945ZM50.6396 58.8379C50.7713 58.8379 50.9396 58.9027 51.1025 59.2426C51.271 59.594 51.3848 60.1612 51.3848 60.9453H52.3848C52.3848 60.0888 52.2641 59.3522 52.0042 58.8102C51.7387 58.2564 51.2843 57.8379 50.6396 57.8379V58.8379ZM51.3848 60.9453C51.3848 61.7294 51.271 62.2966 51.1025 62.6481C50.9396 62.9879 50.7713 63.0527 50.6396 63.0527V64.0527C51.2843 64.0527 51.7387 63.6342 52.0042 63.0804C52.2641 62.5384 52.3848 61.8019 52.3848 60.9453H51.3848ZM52.6257 77.2946L60.0378 67.1286L59.2298 66.5394L51.8177 76.7054L52.6257 77.2946ZM60.0378 67.1285L68.0359 56.1568L67.2278 55.5678L59.2297 66.5394L60.0378 67.1285ZM67.6318 55.3623H63.5596V56.3623H67.6318V55.3623ZM63.1554 55.568L55.9776 65.4264L56.786 66.015L63.9638 56.1566L63.1554 55.568ZM55.978 65.4259L47.7455 76.7052L48.5533 77.2948L56.7857 66.0155L55.978 65.4259ZM48.1494 77.5H52.2217V76.5H48.1494V77.5ZM70.666 71.7412C70.666 69.929 70.1563 68.4035 69.1843 67.325C68.2069 66.2406 66.8083 65.6602 65.1416 65.6602V66.6602C66.5658 66.6602 67.6794 67.149 68.4415 67.9945C69.2089 68.846 69.666 70.1111 69.666 71.7412H70.666ZM65.1416 65.6602C63.4749 65.6602 62.0763 66.2406 61.0989 67.325C60.1269 68.4035 59.6172 69.929 59.6172 71.7412H60.6172C60.6172 70.1111 61.0743 68.846 61.8417 67.9945C62.6038 67.149 63.7174 66.6602 65.1416 66.6602V65.6602ZM59.6172 71.7412C59.6172 73.5603 60.1266 75.0894 61.0986 76.1699C62.0761 77.2564 63.4749 77.8369 65.1416 77.8369V76.8369C63.7175 76.8369 62.6041 76.3481 61.8421 75.501C61.0745 74.6479 60.6172 73.3792 60.6172 71.7412H59.6172ZM65.1416 77.8369C66.8083 77.8369 68.2071 77.2564 69.1846 76.1699C70.1566 75.0894 70.666 73.5603 70.666 71.7412H69.666C69.666 73.3792 69.2087 74.6479 68.4411 75.501C67.6791 76.3481 66.5657 76.8369 65.1416 76.8369V77.8369ZM65.1416 73.8193C65.0099 73.8193 64.8417 73.7545 64.6788 73.4147C64.5102 73.0632 64.3965 72.496 64.3965 71.7119H63.3965C63.3965 72.5685 63.5171 73.305 63.7771 73.847C64.0426 74.4008 64.4969 74.8193 65.1416 74.8193V73.8193ZM64.3965 71.7119C64.3965 70.9278 64.5102 70.3607 64.6788 70.0092C64.8417 69.6693 65.0099 69.6045 65.1416 69.6045V68.6045C64.4969 68.6045 64.0426 69.023 63.7771 69.5768C63.5171 70.1188 63.3965 70.8554 63.3965 71.7119H64.3965ZM65.1416 69.6045C65.2733 69.6045 65.4415 69.6693 65.6045 70.0092C65.773 70.3607 65.8867 70.9278 65.8867 71.7119H66.8867C66.8867 70.8554 66.7661 70.1188 66.5061 69.5768C66.2406 69.023 65.7863 68.6045 65.1416 68.6045V69.6045ZM65.8867 71.7119C65.8867 72.496 65.773 73.0632 65.6045 73.4147C65.4415 73.7545 65.2733 73.8193 65.1416 73.8193V74.8193C65.7863 74.8193 66.2406 74.4008 66.5061 73.847C66.7661 73.305 66.8867 72.5685 66.8867 71.7119H65.8867Z" fill="white"/>
<path d="M40.0894 106V96.8403H38.7627L35.6016 104.483H35.5508L32.3896 96.8403H31.063V106H32.1294V98.9414H32.1738L35.0938 105.937H36.0586L38.9785 98.9414H39.0229V106H40.0894ZM43.6821 105.175C42.8887 105.175 42.3618 104.762 42.3618 104.134C42.3618 103.512 42.8696 103.118 43.7583 103.061L45.5229 102.953V103.493C45.5229 104.445 44.7231 105.175 43.6821 105.175ZM43.4346 106.114C44.3232 106.114 45.1611 105.619 45.5547 104.864H45.5801V106H46.6274V101.436C46.6274 100.122 45.6499 99.2842 44.1011 99.2842C42.5396 99.2842 41.562 100.16 41.4858 101.303H42.5522C42.6919 100.655 43.2251 100.255 44.0757 100.255C44.9897 100.255 45.5229 100.738 45.5229 101.544V102.096L43.6313 102.204C42.1079 102.293 41.2383 103.004 41.2383 104.134C41.2383 105.321 42.1206 106.114 43.4346 106.114ZM53.5146 101.563C53.375 100.376 52.3911 99.2842 50.7407 99.2842C48.9189 99.2842 47.7065 100.617 47.7065 102.699C47.7065 104.826 48.9253 106.114 50.7534 106.114C52.2515 106.114 53.356 105.188 53.5273 103.874H52.4419C52.2515 104.667 51.6611 105.143 50.7598 105.143C49.6172 105.143 48.8301 104.235 48.8301 102.699C48.8301 101.201 49.6045 100.255 50.7471 100.255C51.7183 100.255 52.2769 100.846 52.4355 101.563H53.5146Z" fill="#161616"/>
</svg>
