<svg width="24" height="30" viewBox="0 0 24 30" fill="none" xmlns="http://www.w3.org/2000/svg">
<path d="M19.8315 15.5198C19.7984 11.8329 22.8504 10.0392 22.99 9.9557C21.2615 7.4356 18.5823 7.09127 17.6409 7.06381C15.3907 6.82702 13.2081 8.41024 12.0619 8.41024C10.8927 8.41024 9.12764 7.08669 7.22526 7.12559C4.77722 7.16334 2.48704 8.58068 1.23099 10.7816C-1.36118 15.2693 0.572082 21.8642 3.05559 25.4916C4.29791 27.2682 5.74957 29.2518 7.64967 29.182C9.50858 29.1053 10.203 27.9968 12.4462 27.9968C14.6689 27.9968 15.321 29.182 17.2588 29.1374C19.2538 29.1053 20.5099 27.3528 21.7087 25.5602C23.1444 23.524 23.7209 21.5187 23.7438 21.4157C23.6969 21.3997 19.8693 19.9389 19.8315 15.5198Z" fill="white"/>
<path d="M16.1705 4.67759C17.1703 3.42726 17.8544 1.72621 17.6645 0C16.2174 0.0640609 14.4077 1.00095 13.3656 2.22383C12.4435 3.30142 11.6199 5.06767 11.8327 6.72868C13.4582 6.84994 15.1272 5.90847 16.1705 4.67759Z" fill="white"/>
</svg>
