<svg width="75" height="23" viewBox="0 0 75 23" fill="none" xmlns="http://www.w3.org/2000/svg">
<path d="M10.1182 22C14.6299 22 17.4277 19.6709 17.4277 15.9502C17.4277 13.1523 15.3184 11.0576 12.4473 10.8379V10.7207C14.6885 10.3838 16.417 8.4502 16.417 6.13574C16.417 2.89844 13.9268 0.862305 9.95703 0.862305H0.757812V22H10.1182ZM5.18164 4.1582H8.81445C10.8799 4.1582 12.0664 5.125 12.0664 6.82422C12.0664 8.61133 10.7188 9.65137 8.36035 9.65137H5.18164V4.1582ZM5.18164 18.7041V12.5664H8.8877C11.4951 12.5664 12.916 13.6211 12.916 15.5986C12.916 17.6201 11.5391 18.7041 8.99023 18.7041H5.18164ZM19.6836 22H23.9609V0.862305H19.6836V22ZM32.9111 19.1582C31.4609 19.1582 30.4941 18.4258 30.4941 17.2539C30.4941 16.1406 31.4023 15.4229 32.999 15.3057L36.3096 15.1006V16.2432C36.3096 17.9424 34.7715 19.1582 32.9111 19.1582ZM31.5049 22.249C33.4678 22.249 35.416 21.2676 36.2949 19.5977H36.3828V22H40.5137V11.2041C40.5137 8.04004 37.8916 5.95996 33.8633 5.95996C29.7031 5.95996 27.1104 8.05469 26.9492 11.1016H30.8604C31.0654 9.94434 32.0762 9.15332 33.6729 9.15332C35.2842 9.15332 36.3096 10.0029 36.3096 11.4678V12.5078L32.3545 12.7422C28.4434 12.9766 26.2461 14.6318 26.2461 17.4883C26.2461 20.3154 28.5166 22.249 31.5049 22.249ZM57.5498 12.1416C57.3594 8.58203 54.6641 5.95996 50.416 5.95996C45.7139 5.95996 42.7109 9.09473 42.7109 14.1338C42.7109 19.2607 45.7139 22.3369 50.4453 22.3369C54.5762 22.3369 57.3447 19.9492 57.5645 16.2432H53.5801C53.3164 17.957 52.2031 18.9824 50.4893 18.9824C48.3652 18.9824 47.0469 17.2246 47.0469 14.1338C47.0469 11.1016 48.3652 9.31445 50.4746 9.31445C52.2324 9.31445 53.3311 10.4863 53.5801 12.1416H57.5498ZM64.0684 12.5957H64.0098V0.862305H59.7324V22H64.0098V16.8145L65.123 15.6133L69.6201 22H74.542L68.2578 13.0352L74.249 6.29688H69.4004L64.0684 12.5957Z" fill="white"/>
</svg>
