<svg width="38" height="50" viewBox="0 0 38 50" fill="none" xmlns="http://www.w3.org/2000/svg">
<path d="M36.0973 27.4803C35.2279 26.6109 34.0721 26.1322 32.8426 26.1322C31.6131 26.1322 30.4573 26.6106 29.5879 27.4803L26.2603 30.8083C26.239 26.6689 22.8656 23.3078 18.7217 23.3078C14.5774 23.3078 11.2045 26.6689 11.1831 30.8079L7.85518 27.4799C6.98581 26.6109 5.82995 26.1322 4.60048 26.1322C3.371 26.1322 2.21515 26.6106 1.34616 27.4803C-0.448656 29.2747 -0.448656 32.1949 1.34578 33.9897L10.9809 43.6245V48.5352C10.9809 49.3443 11.6367 50 12.4458 50H24.9977C25.8068 50 26.4625 49.3443 26.4625 48.5352V43.6245L36.0977 33.9897C37.8921 32.1949 37.8921 29.2747 36.0973 27.4803ZM18.7217 26.2375C21.2635 26.2375 23.3314 28.3054 23.3314 30.8475C23.3314 33.3893 21.2635 35.4576 18.7217 35.4576C16.1796 35.4576 14.1117 33.3893 14.1117 30.8475C14.1117 28.3054 16.1796 26.2375 18.7217 26.2375ZM34.0259 31.918L23.962 41.9819C23.6873 42.2569 23.5328 42.6292 23.5328 43.018V47.0703H13.9106V43.018C13.9106 42.6292 13.7561 42.2565 13.4815 41.9819L3.41716 31.918C2.76485 31.2656 2.76523 30.204 3.41754 29.5517C3.7334 29.2358 4.15378 29.0619 4.60048 29.0619C5.04756 29.0619 5.46756 29.2358 5.7838 29.5517L14.1899 37.9581C14.4645 38.2328 14.8372 38.3873 15.2256 38.3873H22.2175C22.6062 38.3873 22.9789 38.2328 23.2536 37.9581L31.6597 29.5517C31.9759 29.2358 32.3959 29.0619 32.843 29.0619C33.2897 29.0619 33.7101 29.2355 34.0259 29.5517C34.6782 30.204 34.6782 31.2656 34.0259 31.918Z" fill="#3B1FD3"/>
<path d="M12.2446 13.8805L11.2169 19.87C11.1227 20.4197 11.3485 20.9751 11.7994 21.3028C12.0546 21.4882 12.3571 21.5828 12.6608 21.5828C12.8938 21.5828 13.1277 21.5271 13.3424 21.4142L18.7216 18.5863L24.1007 21.4142C24.3147 21.5271 24.5489 21.5828 24.782 21.5828C24.7835 21.5828 24.785 21.5828 24.7862 21.5828C25.5941 21.5813 26.2491 20.9259 26.2491 20.118C26.2491 20.0054 26.2365 19.8959 26.2125 19.7903L25.1985 13.8805L29.5503 9.6386C29.9497 9.2495 30.0932 8.66737 29.9211 8.13675C29.7487 7.60651 29.2902 7.22008 28.7386 7.13997L22.7247 6.26602L20.035 0.816345C19.7881 0.31662 19.2789 0 18.7216 0C18.1638 0 17.6546 0.31662 17.4078 0.816345L14.7184 6.26602L8.70454 7.13997C8.15255 7.22008 7.69441 7.60651 7.52198 8.13675C7.34956 8.66737 7.49337 9.2495 7.89277 9.6386L12.2446 13.8805ZM15.9017 9.05457C16.3789 8.98514 16.7909 8.68568 17.0046 8.25348L18.7216 4.77486L20.4382 8.25348C20.6514 8.68568 21.0638 8.98514 21.541 9.05457L25.3801 9.61266L22.6022 12.3203C22.257 12.6568 22.0995 13.1416 22.1807 13.6169L22.8365 17.44L19.4032 15.6349C19.1896 15.5224 18.9554 15.4663 18.7216 15.4663C18.4873 15.4663 18.2531 15.5224 18.0399 15.6349L14.6063 17.44L15.2624 13.6169C15.344 13.1416 15.1865 12.6568 14.8412 12.3203L12.063 9.61227L15.9017 9.05457Z" fill="#FF2424"/>
</svg>
