<svg width="48" height="46" viewBox="0 0 48 46" fill="none" xmlns="http://www.w3.org/2000/svg">
<path d="M47.9633 17.5251C47.9632 17.4529 47.9471 17.3439 47.9191 17.2811C47.8453 17.0135 47.6813 16.7691 47.4359 16.5985L40.5648 11.8221V6.70188C40.5648 6.02313 40.0143 5.47263 39.3355 5.47263H31.4306L24.7047 0.796564C24.2843 0.50397 23.7262 0.502752 23.3046 0.794127L16.5353 5.47263H8.66494C7.986 5.47263 7.43569 6.02313 7.43569 6.70188V11.7618L0.531187 16.5338C0.191531 16.7686 0.00778125 17.1438 0.00196875 17.5276C0.00159375 17.5348 0 17.5416 0 17.5491L0.0366562 44.1962C0.037125 44.5221 0.167063 44.8346 0.397781 45.0648C0.628219 45.2946 0.940406 45.4236 1.26591 45.4236C1.26656 45.4236 1.26703 45.4236 1.26759 45.4236L46.7724 45.3611C47.4512 45.3602 48.0009 44.809 48 44.1302L47.9633 17.5251ZM40.5647 14.8164L44.4926 17.5462L40.5647 20.277V14.8164ZM24.0014 3.30166L27.1242 5.47253H20.8606L24.0014 3.30166ZM9.89419 7.93113H38.1062V21.9862L28.6341 28.5714L24.7721 25.5757C24.7661 25.571 24.761 25.5681 24.7552 25.5639C24.3235 25.2401 23.713 25.2282 23.2651 25.5757L19.3751 28.5931L9.89419 22.0406V7.93113ZM7.43569 14.7503V20.3416L3.39075 17.546L7.43569 14.7503ZM2.46169 19.8938L17.3369 30.174L2.49169 41.6887L2.46169 19.8938ZM4.86328 42.9603L24.0187 28.1024L43.1053 42.9077L4.86328 42.9603ZM30.6698 30.1504L45.5081 19.8346L45.5381 41.6838L30.6698 30.1504Z" fill="#3B1FD3"/>
<path d="M32.3225 12.8481H15.6785C14.9997 12.8481 14.4492 13.3986 14.4492 14.0773C14.4492 14.7561 14.9997 15.3066 15.6785 15.3066H32.3225C33.0014 15.3066 33.5517 14.7561 33.5517 14.0773C33.5517 13.3986 33.0014 12.8481 32.3225 12.8481Z" fill="#FF2424"/>
<!-- <path d="M32.3225 19.2402H15.6785C14.9997 19.2402 14.4492 19.7907 14.4492 20.4694C14.4492 21.1482 14.9997 21.6987 15.6785 21.6987H32.3225C33.0014 21.6987 33.5517 21.1482 33.5517 20.4694C33.5517 19.7907 33.0014 19.2402 32.3225 19.2402Z" fill="#FF2424"/> -->
</svg>
