<svg width="202" height="53" viewBox="0 0 202 53" fill="none" xmlns="http://www.w3.org/2000/svg">
<path fill-rule="evenodd" clip-rule="evenodd" d="M44.849 25.8741L53.0998 33.0187L42.6826 27.3491L44.849 25.8741Z" fill="black"/>
<path fill-rule="evenodd" clip-rule="evenodd" d="M30.1455 23.6615L42.683 27.349L44.8494 25.874L37.4744 18.1763L30.1455 23.6615Z" fill="#1EA038"/>
<path fill-rule="evenodd" clip-rule="evenodd" d="M30.1455 23.6616L36.8291 28.6858L42.683 27.349L30.1455 23.6616Z" fill="#015A2D"/>
<path fill-rule="evenodd" clip-rule="evenodd" d="M28.9932 35.5537L36.8291 28.6858L30.1455 23.6616L28.9932 35.5537Z" fill="#FBC701"/>
<path fill-rule="evenodd" clip-rule="evenodd" d="M28.9928 35.5539L28.624 52.2859L32.1732 47.0312L28.9928 35.5539Z" fill="#007D35"/>
<path fill-rule="evenodd" clip-rule="evenodd" d="M28.9929 35.5539L28.6242 52.2859L20.9727 46.6164L28.9929 35.5539Z" fill="#1EA038"/>
<path fill-rule="evenodd" clip-rule="evenodd" d="M17.792 23.0625L28.9927 35.5539L30.1451 23.6617L17.792 23.0625Z" fill="#1EA038"/>
<path fill-rule="evenodd" clip-rule="evenodd" d="M20.9727 46.6162L28.9929 35.5538L24.7062 35.1389L20.9727 46.6162Z" fill="#015A2D"/>
<path fill-rule="evenodd" clip-rule="evenodd" d="M24.7064 35.139L9.63379 28.7781L17.7924 23.0625L24.7064 35.139Z" fill="#1EA038"/>
<path fill-rule="evenodd" clip-rule="evenodd" d="M21.8486 12.7836L33.7869 20.8961L23.9689 23.3391L21.8486 12.7836Z" fill="#007D35"/>
<path fill-rule="evenodd" clip-rule="evenodd" d="M28.9927 35.5539L24.706 35.139L17.792 23.0625L28.9927 35.5539Z" fill="#007D35"/>
<path fill-rule="evenodd" clip-rule="evenodd" d="M0.967773 19.7898L17.7919 23.0624L9.63337 28.778L0.967773 19.7898Z" fill="#007D35"/>
<path fill-rule="evenodd" clip-rule="evenodd" d="M36.7373 25.5975L38.3967 25.2288L38.9959 26.2428L37.567 26.7498L36.7373 25.5975Z" fill="#1E1E1B"/>
<path fill-rule="evenodd" clip-rule="evenodd" d="M30.9288 23.4773L37.4741 25.4132L38.396 25.2289L38.7647 25.8281L43.0975 27.1187L44.342 26.289L37.428 18.5914L30.9288 23.4773ZM38.4421 26.4273L41.3459 27.257L36.921 28.271L31.8968 24.4453L37.1053 25.9664L37.6124 26.6578L38.4421 26.4273ZM17.746 22.6937L23.5538 22.9703L21.3413 12L33.7866 20.4812L37.4741 17.7156L44.803 25.9203L44.2498 26.7039L43.1897 27.6257L36.9671 29.0085L29.4077 35.646L32.5882 47.0772L28.7163 52.7467L20.5577 46.7546L24.2913 35.3234L9.44919 29.0546L0 19.2367L17.746 22.6937ZM16.9163 23.2468L2.02812 20.3429L9.67965 28.3171L16.9163 23.2468ZM30.053 23.2929L26.3655 23.1086L32.2655 21.6336L30.053 23.2929ZM18.5757 23.4312L28.7163 34.7241L29.7765 23.9382L18.5757 23.4312ZM33.003 20.7117L24.2452 22.8781L22.3554 13.5211L33.003 20.7117ZM19.7281 25.6898L24.9366 34.7702L28.1632 35.0929L19.7281 25.6898ZM24.9827 35.4616L21.9866 44.5882L28.3476 35.7843L24.9827 35.4616ZM10.3711 28.6859L23.9226 34.4015L17.6999 23.5234L10.3711 28.6859ZM28.6241 36.614L21.4796 46.5241L28.3476 51.5944L28.6241 36.614ZM29.2694 37.8585L28.9929 51.0874L31.8046 46.9389L29.2694 37.8585ZM29.4077 34.678L30.4218 24.2609L36.2757 28.6859L29.4077 34.678Z" fill="black"/>
<path fill-rule="evenodd" clip-rule="evenodd" d="M142.983 36.9365C142.983 37.8123 142.291 38.5498 141.369 38.5498H135.469V33.249H141.369C142.245 33.249 142.983 33.9404 142.983 34.8623V36.9365ZM133.487 40.3474H141.369C143.351 40.3474 144.919 38.7342 144.919 36.7521V34.9084C144.919 33.8943 144.135 32.6037 142.983 32.3272C144.135 32.0967 144.919 30.76 144.919 29.7459V28.1326C144.919 26.1506 143.305 24.5834 141.369 24.5834H133.487V40.3474ZM141.369 26.4272C142.245 26.4272 142.983 27.1186 142.983 28.0405V29.8842C142.983 30.76 142.291 31.4975 141.369 31.4975H135.469V26.4272H141.369Z" fill="black"/>
<path fill-rule="evenodd" clip-rule="evenodd" d="M195.667 33.0185L196.45 32.0966L200 24.6295H198.11C197.971 24.6295 197.787 24.7216 197.741 24.8599L194.284 32.0966H192.993L189.49 24.8599C189.444 24.7216 189.26 24.6295 189.075 24.6295H187.186L190.781 32.0966L191.518 33.0185L190.689 33.9865L187.6 40.3935H189.536C189.675 40.3935 189.859 40.3013 189.951 40.163C190.919 38.1349 191.887 36.0607 192.855 34.0325H194.33C195.298 36.0607 196.266 38.1349 197.234 40.163C197.28 40.3013 197.464 40.3935 197.649 40.3935H199.539L196.45 33.9865L195.667 33.0185Z" fill="black"/>
<path fill-rule="evenodd" clip-rule="evenodd" d="M156.073 26.4271H162.941V24.6295H156.073C154.091 24.6295 152.523 26.2427 152.523 28.1787V36.7982C152.523 38.7802 154.137 40.3474 156.073 40.3474H163.125V38.5497H156.073C155.197 38.5497 154.459 37.8583 154.459 36.9364V33.3411C157.271 33.3411 159.161 33.3411 161.973 33.3411V31.5435C159.161 31.5435 157.271 31.5435 154.459 31.5435V27.9943C154.459 27.1185 155.197 26.4271 156.073 26.4271Z" fill="black"/>
<path fill-rule="evenodd" clip-rule="evenodd" d="M124.406 24.6295L121.687 31.7279L121.548 32.0966H121.134H118.506H118.091L117.492 30.4833L115.234 24.6295H113.113L115.925 31.7279L116.801 33.9865H118.829V40.3474H120.811V33.9865H121.779H122.839L123.3 32.788L126.527 24.6295H124.406Z" fill="black"/>
<path fill-rule="evenodd" clip-rule="evenodd" d="M98.3638 40.3474H102.697C104.679 40.3474 106.246 39.1951 106.246 36.9826V31.4514H100.761V33.249H104.448V36.9826C104.448 37.8584 103.526 38.5959 102.651 38.5959H98.3178C97.442 38.5959 96.7045 37.9045 96.7045 36.9826V27.9944C96.7045 27.1186 97.3959 26.3811 98.3178 26.3811H105.14V24.5834H98.3178C96.3357 24.5834 94.7686 26.1967 94.7686 28.1326V36.7521C94.8146 38.7803 96.3818 40.3474 98.3638 40.3474Z" fill="black"/>
<path d="M86.7477 24.6295H84.7656V40.3935H86.7477V24.6295Z" fill="black"/>
<path fill-rule="evenodd" clip-rule="evenodd" d="M67.066 26.4269H73.0582C73.934 26.4269 74.6715 27.1183 74.6715 28.0402V36.9824C74.6715 37.8581 73.98 38.5956 73.0582 38.5956H67.066V26.4269ZM65.084 40.3472H73.0121C74.9941 40.3472 76.5613 38.7339 76.5613 36.798V28.1785C76.5613 26.1965 74.948 24.6293 73.0121 24.6293H65.084V40.3472Z" fill="black"/>
<path fill-rule="evenodd" clip-rule="evenodd" d="M173.312 26.4271H180.18V24.6295H173.312C171.33 24.6295 169.763 26.2427 169.763 28.1787V36.7982C169.763 38.7802 171.376 40.3474 173.312 40.3474H180.364V38.5497H173.312C172.436 38.5497 171.699 37.8583 171.699 36.9364V33.3411C174.51 33.3411 176.4 33.3411 179.212 33.3411V31.5435C176.4 31.5435 174.51 31.5435 171.699 31.5435V27.9943C171.745 27.1185 172.436 26.4271 173.312 26.4271Z" fill="black"/>
<path fill-rule="evenodd" clip-rule="evenodd" d="M140.41 8.44674C140.41 7.10124 140.261 6.80224 138.168 6.27899C136.822 5.90524 136.822 5.83049 136.822 4.85874C136.822 4.11124 136.972 3.73749 138.242 3.73749C138.84 3.73749 139.663 3.81224 140.261 3.96174L140.335 3.21424C139.812 3.06474 138.99 2.99 138.317 2.99C136.523 2.99 136 3.66274 136 4.85874C136 6.12949 136.15 6.57799 137.944 7.02649C139.588 7.40024 139.588 7.47499 139.588 8.52149C139.588 9.41848 139.289 9.64273 138.018 9.64273C137.495 9.64273 136.748 9.56798 136.15 9.34373L136 10.0165C136.523 10.2407 137.345 10.3902 138.093 10.3902C139.962 10.3902 140.41 9.71748 140.41 8.44674ZM152.146 10.2407V4.55974C152.146 3.58799 151.772 2.91524 150.651 2.91524C149.754 2.91524 148.483 3.36374 147.661 3.73749C147.437 3.21424 147.063 2.91524 146.315 2.91524C145.418 2.91524 144.148 3.36374 143.4 3.73749L143.325 3.06475H142.578V10.2407H143.4V4.55974C144.297 4.11124 145.568 3.73749 146.166 3.73749C146.689 3.73749 146.913 3.96174 146.913 4.48499V10.2407H147.736V4.55974C148.633 4.11124 149.829 3.73749 150.501 3.73749C151.025 3.73749 151.249 3.96174 151.249 4.48499V10.2407H152.146ZM159.322 5.00824C159.322 3.66274 158.574 2.91524 156.706 2.91524C155.958 2.91524 155.061 3.06474 154.538 3.21424L154.687 3.96174C155.36 3.81224 156.108 3.73749 156.78 3.73749C157.976 3.73749 158.5 4.03649 158.5 5.00824V6.42849H156.407C154.986 6.42849 154.314 6.87699 154.314 8.44674C154.314 9.71748 154.912 10.465 156.182 10.465C157.154 10.465 157.902 10.166 158.574 9.79223L158.649 10.3155H159.397V5.00824H159.322ZM158.5 8.89524C157.827 9.34373 157.005 9.64273 156.332 9.64273C155.36 9.64273 155.136 9.26898 155.136 8.44674C155.136 7.47499 155.435 7.17599 156.407 7.17599H158.5V8.89524ZM164.704 2.91524C164.031 3.13949 163.284 3.66274 162.536 4.11124L162.461 2.99H161.714V10.166H162.536V5.00824C163.209 4.55974 164.031 4.03649 164.779 3.66274L164.704 2.91524ZM169.787 9.41848C169.338 9.56798 168.89 9.64273 168.516 9.64273C167.769 9.64273 167.694 9.34373 167.694 8.74574V3.81224H169.787L169.862 3.06475H167.694V1.27075L166.872 1.42025V3.13949H165.526V3.88699H166.872V8.89524C166.872 10.0165 167.32 10.465 168.516 10.465C169.039 10.465 169.637 10.3155 170.011 10.166L169.787 9.41848ZM179.205 8.44674C179.205 7.10124 179.056 6.80224 176.963 6.27899C175.617 5.90524 175.617 5.83049 175.617 4.85874C175.617 4.11124 175.767 3.73749 177.038 3.73749C177.636 3.73749 178.458 3.81224 179.056 3.96174L179.131 3.21424C178.607 3.06474 177.785 2.99 177.112 2.99C175.318 2.99 174.795 3.66274 174.795 4.85874C174.795 6.12949 174.945 6.57799 176.739 7.02649C178.383 7.40024 178.383 7.47499 178.383 8.52149C178.383 9.41848 178.084 9.64273 176.813 9.64273C176.29 9.64273 175.543 9.56798 174.945 9.34373L174.795 10.0165C175.318 10.2407 176.141 10.3902 176.888 10.3902C178.682 10.3902 179.205 9.71748 179.205 8.44674ZM186.531 10.2407V4.55974C186.531 3.58799 186.157 2.91524 185.036 2.91524C184.214 2.91524 182.943 3.36374 182.195 3.66274V0L181.373 0.1495V10.2407H182.195V4.55974C183.092 4.11124 184.363 3.73749 184.961 3.73749C185.484 3.73749 185.709 3.96174 185.709 4.48499V10.2407H186.531ZM194.155 7.77399V5.53149C194.155 4.03649 193.408 2.91524 191.39 2.91524C189.371 2.91524 188.624 4.03649 188.624 5.53149V7.77399C188.624 9.26898 189.371 10.3902 191.39 10.3902C193.408 10.3902 194.155 9.26898 194.155 7.77399ZM193.258 7.77399C193.258 8.96999 192.66 9.56798 191.315 9.56798C189.969 9.56798 189.371 8.96999 189.371 7.77399V5.45674C189.371 4.26074 189.969 3.66274 191.315 3.66274C192.66 3.66274 193.258 4.26074 193.258 5.45674V7.77399ZM201.481 4.93349C201.481 3.66274 200.883 2.91524 199.463 2.91524C198.64 2.91524 197.743 3.21424 197.071 3.73749L196.996 3.06475H196.248V13.2307L197.071 13.0812V10.0912C197.893 10.2407 198.491 10.3155 199.238 10.3155C200.883 10.3155 201.406 9.41848 201.406 8.14774V4.93349H201.481ZM197.145 4.63449C197.818 4.11124 198.566 3.73749 199.463 3.73749C200.434 3.73749 200.733 4.11124 200.733 4.93349V8.22249C200.733 9.19423 200.36 9.64273 199.388 9.64273C198.715 9.64273 197.968 9.56798 197.145 9.41848V4.63449Z" fill="#202020"/>
</svg>
