<svg width="171" height="47" viewBox="0 0 171 47" fill="none" xmlns="http://www.w3.org/2000/svg">
<path fill-rule="evenodd" clip-rule="evenodd" d="M107.866 16.751C107.866 15.4055 107.717 15.1065 105.624 14.5832C104.278 14.2095 104.278 14.1348 104.278 13.163C104.278 12.4155 104.428 12.0418 105.699 12.0418C106.297 12.0418 107.119 12.1165 107.717 12.266L107.792 11.5185C107.268 11.369 106.446 11.2943 105.773 11.2943C103.979 11.2943 103.456 11.967 103.456 13.163C103.456 14.4338 103.606 14.8822 105.4 15.3307C107.044 15.7045 107.044 15.7792 107.044 16.8257C107.044 17.7227 106.745 17.947 105.474 17.947C104.951 17.947 104.204 17.8722 103.606 17.648L103.456 18.3207C103.979 18.545 104.802 18.6945 105.549 18.6945C107.418 18.6945 107.866 18.0217 107.866 16.751ZM119.602 18.545V12.864C119.602 11.8923 119.228 11.2195 118.107 11.2195C117.21 11.2195 115.939 11.668 115.117 12.0418C114.893 11.5185 114.519 11.2195 113.772 11.2195C112.875 11.2195 111.604 11.668 110.856 12.0418L110.782 11.369H110.034V18.545H110.856V12.864C111.753 12.4155 113.024 12.0418 113.622 12.0418C114.145 12.0418 114.37 12.266 114.37 12.7893V18.545H115.192V12.864C116.089 12.4155 117.285 12.0418 117.958 12.0418C118.481 12.0418 118.705 12.266 118.705 12.7893V18.545H119.602ZM126.778 13.3125C126.778 11.967 126.031 11.2195 124.162 11.2195C123.414 11.2195 122.517 11.369 121.994 11.5185L122.144 12.266C122.816 12.1165 123.564 12.0418 124.237 12.0418C125.433 12.0418 125.956 12.3408 125.956 13.3125V14.7327H123.863C122.443 14.7327 121.77 15.1812 121.77 16.751C121.77 18.0217 122.368 18.7692 123.639 18.7692C124.61 18.7692 125.358 18.4702 126.031 18.0965L126.105 18.6197H126.853V13.3125H126.778ZM125.956 17.1995C125.283 17.648 124.461 17.947 123.788 17.947C122.816 17.947 122.592 17.5732 122.592 16.751C122.592 15.7792 122.891 15.4802 123.863 15.4802H125.956V17.1995ZM132.16 11.2195C131.487 11.4438 130.74 11.967 129.992 12.4155L129.918 11.2943H129.17V18.4702H129.992V13.3125C130.665 12.864 131.487 12.3408 132.235 11.967L132.16 11.2195ZM137.243 17.7227C136.795 17.8722 136.346 17.947 135.972 17.947C135.225 17.947 135.15 17.648 135.15 17.05V12.1165H137.243L137.318 11.369H135.15V9.57501L134.328 9.72451V11.4438H132.982V12.1913H134.328V17.1995C134.328 18.3207 134.776 18.7692 135.972 18.7692C136.495 18.7692 137.093 18.6197 137.467 18.4702L137.243 17.7227ZM146.661 16.751C146.661 15.4055 146.512 15.1065 144.419 14.5832C143.073 14.2095 143.073 14.1348 143.073 13.163C143.073 12.4155 143.223 12.0418 144.494 12.0418C145.092 12.0418 145.914 12.1165 146.512 12.266L146.587 11.5185C146.063 11.369 145.241 11.2943 144.568 11.2943C142.774 11.2943 142.251 11.967 142.251 13.163C142.251 14.4338 142.401 14.8822 144.195 15.3307C145.839 15.7045 145.839 15.7792 145.839 16.8257C145.839 17.7227 145.54 17.947 144.269 17.947C143.746 17.947 142.999 17.8722 142.401 17.648L142.251 18.3207C142.774 18.545 143.597 18.6945 144.344 18.6945C146.138 18.6945 146.661 18.0217 146.661 16.751ZM153.987 18.545V12.864C153.987 11.8923 153.613 11.2195 152.492 11.2195C151.67 11.2195 150.399 11.668 149.651 11.967V8.30426L148.829 8.45376V18.545H149.651V12.864C150.548 12.4155 151.819 12.0418 152.417 12.0418C152.94 12.0418 153.165 12.266 153.165 12.7893V18.545H153.987ZM161.611 16.0782V13.8358C161.611 12.3408 160.864 11.2195 158.846 11.2195C156.827 11.2195 156.08 12.3408 156.08 13.8358V16.0782C156.08 17.5732 156.827 18.6945 158.846 18.6945C160.864 18.6945 161.611 17.5732 161.611 16.0782ZM160.714 16.0782C160.714 17.2742 160.116 17.8722 158.771 17.8722C157.425 17.8722 156.827 17.2742 156.827 16.0782V13.761C156.827 12.565 157.425 11.967 158.771 11.967C160.116 11.967 160.714 12.565 160.714 13.761V16.0782ZM168.937 13.2378C168.937 11.967 168.339 11.2195 166.919 11.2195C166.096 11.2195 165.199 11.5185 164.527 12.0418L164.452 11.369H163.704V21.535L164.527 21.3855V18.3955C165.349 18.545 165.947 18.6197 166.694 18.6197C168.339 18.6197 168.862 17.7227 168.862 16.452V13.2378H168.937ZM164.601 12.9388C165.274 12.4155 166.022 12.0418 166.919 12.0418C167.89 12.0418 168.189 12.4155 168.189 13.2378V16.5267C168.189 17.4985 167.816 17.947 166.844 17.947C166.171 17.947 165.424 17.8722 164.601 17.7227V12.9388Z" fill="#8A859E"/>
<path fill-rule="evenodd" clip-rule="evenodd" d="M116.313 32.0746H109.062V46.5761H116.313C118.107 46.5761 119.602 45.0811 119.602 43.2871V41.5678C119.602 40.6708 118.855 39.4748 117.808 39.1758C118.855 38.9516 119.602 37.7556 119.602 36.7838V35.2888C119.602 33.4948 118.107 32.0746 116.313 32.0746ZM117.808 43.3618C117.808 44.1841 117.135 44.8568 116.313 44.8568H110.857V39.9981H116.313C117.135 39.9981 117.808 40.6708 117.808 41.4931V43.3618ZM117.808 36.8586C117.808 37.6808 117.135 38.3536 116.313 38.3536H110.857V33.7191H116.313C117.135 33.7191 117.808 34.3918 117.808 35.2141V36.8586Z" fill="#8A859E"/>
<path fill-rule="evenodd" clip-rule="evenodd" d="M166.247 39.7738L166.919 38.9516L170.208 32.0746H168.489C168.34 32.0746 168.19 32.1493 168.115 32.2988L164.976 38.9516H163.78L160.566 32.2988C160.491 32.1493 160.341 32.0746 160.192 32.0746H158.473L161.762 38.9516L162.434 39.7738L161.687 40.6708L158.846 46.5761H160.64C160.79 46.5761 160.939 46.5013 161.014 46.3518C161.911 44.4831 162.808 42.6143 163.705 40.6708H165.051C165.948 42.5396 166.845 44.4083 167.742 46.3518C167.816 46.5013 167.966 46.5761 168.115 46.5761H169.835L166.994 40.6708L166.247 39.7738Z" fill="#8A859E"/>
<path d="M166.247 39.7738L166.919 38.9516L170.208 32.0746H168.489C168.34 32.0746 168.19 32.1493 168.115 32.2988L164.976 38.9516H163.78L160.566 32.2988C160.491 32.1493 160.341 32.0746 160.192 32.0746H158.473L161.762 38.9516L162.434 39.7738L161.687 40.6708L158.846 46.5761H160.64C160.79 46.5761 160.939 46.5013 161.014 46.3518C161.911 44.4831 162.808 42.6143 163.705 40.6708H165.051C165.948 42.5396 166.845 44.4083 167.742 46.3518C167.816 46.5013 167.966 46.5761 168.115 46.5761H169.835L166.994 40.6708L166.247 39.7738Z" fill="#8A859E"/>
<path fill-rule="evenodd" clip-rule="evenodd" d="M128.349 43.4366V40.1476H135.226V38.5031H128.349V35.2141C128.349 34.3918 129.021 33.7191 129.844 33.7191H136.123V32.0746H129.844C128.05 32.0746 126.555 33.5696 126.555 35.3636V43.2871C126.555 45.0811 128.05 46.5761 129.844 46.5761H136.347V44.9316H129.844C129.021 44.8568 128.349 44.2588 128.349 43.4366Z" fill="#8A859E"/>
<path d="M128.349 43.4366V40.1476H135.226V38.5031H128.349V35.2141C128.349 34.3918 129.021 33.7191 129.844 33.7191H136.123V32.0746H129.844C128.05 32.0746 126.555 33.5696 126.555 35.3636V43.2871C126.555 45.0811 128.05 46.5761 129.844 46.5761H136.347V44.9316H129.844C129.021 44.8568 128.349 44.2588 128.349 43.4366Z" fill="#8A859E"/>
<path fill-rule="evenodd" clip-rule="evenodd" d="M98.2237 38.5778L98.0742 38.9516H97.7005H95.3085H94.9347L94.3367 37.4566L92.3185 32.0746H90.375L92.9165 38.5778L93.7387 40.6708H95.6075V46.5013H97.4015V40.6708H98.2985H99.2702L99.7187 39.5496L102.634 32.0746H100.69L98.2237 38.5778Z" fill="#8A859E"/>
<path d="M98.2237 38.5778L98.0742 38.9516H97.7005H95.3085H94.9347L94.3367 37.4566L92.3185 32.0746H90.375L92.9165 38.5778L93.7387 40.6708H95.6075V46.5013H97.4015V40.6708H98.2985H99.2702L99.7187 39.5496L102.634 32.0746H100.69L98.2237 38.5778Z" fill="#8A859E"/>
<path fill-rule="evenodd" clip-rule="evenodd" d="M79.0134 39.9981H82.4519V43.4366C82.4519 44.2588 81.6296 44.9316 80.8074 44.9316H76.8456C76.0234 44.9316 75.3506 44.2588 75.3506 43.4366V35.2141C75.3506 34.3918 76.0234 33.7191 76.8456 33.7191H83.1246V32.0746H76.8456C75.0516 32.0746 73.5566 33.5696 73.5566 35.3636V43.2871C73.5566 45.0811 75.0516 46.5761 76.8456 46.5761H80.8074C82.6014 46.5761 84.0964 45.5296 84.0964 43.5113V38.4283H79.0881V39.9981H79.0134Z" fill="#8A859E"/>
<path d="M79.0134 39.9981H82.4519V43.4366C82.4519 44.2588 81.6296 44.9316 80.8074 44.9316H76.8456C76.0234 44.9316 75.3506 44.2588 75.3506 43.4366V35.2141C75.3506 34.3918 76.0234 33.7191 76.8456 33.7191H83.1246V32.0746H76.8456C75.0516 32.0746 73.5566 33.5696 73.5566 35.3636V43.2871C73.5566 45.0811 75.0516 46.5761 76.8456 46.5761H80.8074C82.6014 46.5761 84.0964 45.5296 84.0964 43.5113V38.4283H79.0881V39.9981H79.0134Z" fill="#8A859E"/>
<path d="M66.0069 32.0746H64.2129V46.5761H66.0069V32.0746Z" fill="#8A859E"/>
<path d="M66.0069 32.0746H64.2129V46.5761H66.0069V32.0746Z" fill="#8A859E"/>
<path fill-rule="evenodd" clip-rule="evenodd" d="M53.4495 32.0746H46.124V46.5761H53.4495C55.2435 46.5761 56.7385 45.0811 56.7385 43.2871V35.3636C56.7385 33.4948 55.3183 32.0746 53.4495 32.0746ZM54.9445 43.4366C54.9445 44.2588 54.2718 44.9316 53.4495 44.9316H47.918V33.7191H53.4495C54.2718 33.7191 54.9445 34.3918 54.9445 35.2141V43.4366Z" fill="#8A859E"/>
<path d="M53.4495 32.0746H46.124V46.5761H53.4495C55.2435 46.5761 56.7385 45.0811 56.7385 43.2871V35.3636C56.7385 33.4948 55.3183 32.0746 53.4495 32.0746ZM54.9445 43.4366C54.9445 44.2588 54.2718 44.9316 53.4495 44.9316H47.918V33.7191H53.4495C54.2718 33.7191 54.9445 34.3918 54.9445 35.2141V43.4366Z" fill="#8A859E"/>
<path fill-rule="evenodd" clip-rule="evenodd" d="M144.27 43.4366V40.1476H151.147V38.5031H144.27V35.2141C144.27 34.3918 144.942 33.7191 145.765 33.7191H152.044V32.0746H145.765C143.971 32.0746 142.476 33.5696 142.476 35.3636V43.2871C142.476 45.0811 143.971 46.5761 145.765 46.5761H152.268V44.9316H145.765C144.868 44.8568 144.27 44.2588 144.27 43.4366Z" fill="#8A859E"/>
<path d="M144.27 43.4366V40.1476H151.147V38.5031H144.27V35.2141C144.27 34.3918 144.942 33.7191 145.765 33.7191H152.044V32.0746H145.765C143.971 32.0746 142.476 33.5696 142.476 35.3636V43.2871C142.476 45.0811 143.971 46.5761 145.765 46.5761H152.268V44.9316H145.765C144.868 44.8568 144.27 44.2588 144.27 43.4366Z" fill="#8A859E"/>
<path fill-rule="evenodd" clip-rule="evenodd" d="M32.2944 12.5649L38.9472 14.5084L39.9189 14.2841L40.2927 14.8821L44.7777 16.1529L45.9737 15.3306L38.9472 7.55665L32.2944 12.5649ZM39.9937 15.5549L42.9089 16.4519L38.4239 17.4984L33.2662 13.5366L38.5734 15.1064L39.0967 15.7791L39.9937 15.5549ZM18.8395 11.7426L24.7447 12.0416L22.5022 0.829163L35.2097 9.4254L38.9472 6.5849L46.4222 14.9569L54.8689 22.2824L44.7029 16.7509L38.4987 18.1711L30.7994 24.9734L34.0884 36.6343L30.1267 42.3901L21.8295 36.2606L25.6417 24.5996L10.4675 18.2459L0.75 8.2294L18.8395 11.7426ZM18.0172 12.2659L2.76825 9.2759L10.617 17.4236L18.0172 12.2659ZM31.3974 12.3406L27.5852 12.1911L33.6399 10.6961L31.3974 12.3406ZM19.7365 12.4901L30.052 24.0016L31.1732 13.0134L19.7365 12.4901ZM34.3874 9.7244L25.4922 11.9669L23.5487 2.39891L34.3874 9.7244ZM20.8577 14.8074L26.165 24.0764L29.454 24.3754L20.8577 14.8074ZM26.2397 24.7491L23.175 34.0928L29.6782 25.1229L26.2397 24.7491ZM11.2897 17.7974L25.1185 23.6279L18.7647 12.5649L11.2897 17.7974ZM29.9772 25.9451L22.6517 36.0363L29.6035 41.1941L29.9772 25.9451ZM30.65 27.2159L30.351 40.7456L33.2662 36.5596L30.65 27.2159ZM30.7247 24.0016L31.7712 13.3871L37.7512 17.8721L30.7247 24.0016Z" fill="#8A859E"/>
</svg>
