<svg width="130" height="36" viewBox="0 0 130 36" fill="none" xmlns="http://www.w3.org/2000/svg">
<path fill-rule="evenodd" clip-rule="evenodd" d="M82.0915 12.803C82.0915 11.7746 81.9772 11.5461 80.3775 11.1462C79.3492 10.8605 79.3492 10.8034 79.3492 10.0607C79.3492 9.48939 79.4634 9.20374 80.4346 9.20374C80.8917 9.20374 81.5201 9.26087 81.9772 9.37513L82.0343 8.80382C81.6344 8.68955 81.006 8.63242 80.4918 8.63242C79.1206 8.63242 78.7207 9.14661 78.7207 10.0607C78.7207 11.0319 78.835 11.3747 80.2061 11.7175C81.463 12.0032 81.463 12.0603 81.463 12.8601C81.463 13.5457 81.2345 13.7171 80.2633 13.7171C79.8633 13.7171 79.292 13.66 78.835 13.4886L78.7207 14.0028C79.1206 14.1742 79.7491 14.2884 80.3204 14.2884C81.7487 14.2884 82.0915 13.7742 82.0915 12.803ZM91.0611 14.1742V9.83218C91.0611 9.08947 90.7754 8.57529 89.9185 8.57529C89.2329 8.57529 88.2616 8.91808 87.6332 9.20374C87.4618 8.80382 87.1761 8.57529 86.6048 8.57529C85.9193 8.57529 84.948 8.91808 84.3767 9.20374L84.3196 8.68955H83.7483V14.1742H84.3767V9.83218C85.0623 9.48939 86.0335 9.20374 86.4906 9.20374C86.8905 9.20374 87.0619 9.37513 87.0619 9.77505V14.1742H87.6903V9.83218C88.3759 9.48939 89.29 9.20374 89.8042 9.20374C90.2041 9.20374 90.3755 9.37513 90.3755 9.77505V14.1742H91.0611ZM96.5457 10.175C96.5457 9.14661 95.9744 8.57529 94.5461 8.57529C93.9748 8.57529 93.2892 8.68955 92.8893 8.80382L93.0035 9.37513C93.5177 9.26087 94.089 9.20374 94.6032 9.20374C95.5173 9.20374 95.9172 9.43226 95.9172 10.175V11.2605H94.3176C93.2321 11.2605 92.7179 11.6033 92.7179 12.803C92.7179 13.7742 93.1749 14.3456 94.1462 14.3456C94.8889 14.3456 95.4602 14.117 95.9744 13.8314L96.0315 14.2313H96.6028V10.175H96.5457ZM95.9172 13.1458C95.4031 13.4886 94.7746 13.7171 94.2604 13.7171C93.5177 13.7171 93.3463 13.4315 93.3463 12.803C93.3463 12.0603 93.5749 11.8318 94.3176 11.8318H95.9172V13.1458ZM100.659 8.57529C100.145 8.74669 99.5737 9.14661 99.0023 9.48939L98.9452 8.63242H98.3739V14.117H99.0023V10.175C99.5165 9.83218 100.145 9.43226 100.716 9.14661L100.659 8.57529ZM104.544 13.5457C104.201 13.66 103.859 13.7171 103.573 13.7171C103.002 13.7171 102.944 13.4886 102.944 13.0315V9.26087H104.544L104.601 8.68955H102.944V7.3184L102.316 7.43266V8.74669H101.288V9.318H102.316V13.1458C102.316 14.0028 102.659 14.3456 103.573 14.3456C103.973 14.3456 104.43 14.2313 104.715 14.117L104.544 13.5457ZM111.743 12.803C111.743 11.7746 111.628 11.5461 110.029 11.1462C109 10.8605 109 10.8034 109 10.0607C109 9.48939 109.115 9.20374 110.086 9.20374C110.543 9.20374 111.171 9.26087 111.628 9.37513L111.686 8.80382C111.286 8.68955 110.657 8.63242 110.143 8.63242C108.772 8.63242 108.372 9.14661 108.372 10.0607C108.372 11.0319 108.486 11.3747 109.857 11.7175C111.114 12.0032 111.114 12.0603 111.114 12.8601C111.114 13.5457 110.886 13.7171 109.914 13.7171C109.515 13.7171 108.943 13.66 108.486 13.4886L108.372 14.0028C108.772 14.1742 109.4 14.2884 109.972 14.2884C111.343 14.2884 111.743 13.7742 111.743 12.803ZM117.342 14.1742V9.83218C117.342 9.08947 117.056 8.57529 116.199 8.57529C115.57 8.57529 114.599 8.91808 114.028 9.14661V6.34717L113.399 6.46143V14.1742H114.028V9.83218C114.713 9.48939 115.685 9.20374 116.142 9.20374C116.542 9.20374 116.713 9.37513 116.713 9.77505V14.1742H117.342ZM123.169 12.2888V10.5749C123.169 9.43226 122.598 8.57529 121.055 8.57529C119.513 8.57529 118.941 9.43226 118.941 10.5749V12.2888C118.941 13.4315 119.513 14.2884 121.055 14.2884C122.598 14.2884 123.169 13.4315 123.169 12.2888ZM122.483 12.2888C122.483 13.2029 122.026 13.66 120.998 13.66C119.97 13.66 119.513 13.2029 119.513 12.2888V10.5178C119.513 9.60366 119.97 9.14661 120.998 9.14661C122.026 9.14661 122.483 9.60366 122.483 10.5178V12.2888ZM128.768 10.1178C128.768 9.14661 128.311 8.57529 127.225 8.57529C126.597 8.57529 125.911 8.80382 125.397 9.20374L125.34 8.68955H124.769V16.4594L125.397 16.3452V14.0599C126.025 14.1742 126.483 14.2313 127.054 14.2313C128.311 14.2313 128.711 13.5457 128.711 12.5745V10.1178H128.768ZM125.454 9.88931C125.968 9.48939 126.54 9.20374 127.225 9.20374C127.968 9.20374 128.196 9.48939 128.196 10.1178V12.6316C128.196 13.3743 127.911 13.7171 127.168 13.7171C126.654 13.7171 126.083 13.66 125.454 13.5457V9.88931Z" fill="#8A859E"/>
<path fill-rule="evenodd" clip-rule="evenodd" d="M88.5476 24.5144H83.0059V35.5979H88.5476C89.9188 35.5979 91.0614 34.4553 91.0614 33.0841V31.7701C91.0614 31.0845 90.4901 30.1704 89.6902 29.9419C90.4901 29.7705 91.0614 28.8564 91.0614 28.1137V26.9711C91.0614 25.5999 89.9188 24.5144 88.5476 24.5144ZM89.6902 33.1412C89.6902 33.7697 89.1761 34.2839 88.5476 34.2839H84.377V30.5703H88.5476C89.1761 30.5703 89.6902 31.0845 89.6902 31.713V33.1412ZM89.6902 28.1708C89.6902 28.7993 89.1761 29.3134 88.5476 29.3134H84.377V25.7713H88.5476C89.1761 25.7713 89.6902 26.2855 89.6902 26.9139V28.1708Z" fill="#8A859E"/>
<path fill-rule="evenodd" clip-rule="evenodd" d="M126.711 30.3989L127.225 29.7705L129.739 24.5144H128.425C128.311 24.5144 128.197 24.5715 128.139 24.6858L125.74 29.7705H124.826L122.369 24.6858C122.312 24.5715 122.198 24.5144 122.084 24.5144H120.77L123.283 29.7705L123.797 30.3989L123.226 31.0845L121.055 35.5979H122.426C122.541 35.5979 122.655 35.5408 122.712 35.4265C123.398 33.9982 124.083 32.5699 124.769 31.0845H125.797C126.483 32.5128 127.168 33.9411 127.854 35.4265C127.911 35.5408 128.025 35.5979 128.139 35.5979H129.453L127.283 31.0845L126.711 30.3989Z" fill="#8A859E"/>
<path d="M126.711 30.3989L127.225 29.7705L129.739 24.5144H128.425C128.311 24.5144 128.197 24.5715 128.139 24.6858L125.74 29.7705H124.826L122.369 24.6858C122.312 24.5715 122.198 24.5144 122.084 24.5144H120.77L123.283 29.7705L123.797 30.3989L123.226 31.0845L121.055 35.5979H122.426C122.541 35.5979 122.655 35.5408 122.712 35.4265C123.398 33.9982 124.083 32.5699 124.769 31.0845H125.797C126.483 32.5128 127.168 33.9411 127.854 35.4265C127.911 35.5408 128.025 35.5979 128.139 35.5979H129.453L127.283 31.0845L126.711 30.3989Z" fill="#8A859E"/>
<path fill-rule="evenodd" clip-rule="evenodd" d="M97.7461 33.1984V30.6846H103.002V29.4277H97.7461V26.9139C97.7461 26.2855 98.2603 25.7713 98.8888 25.7713H103.688V24.5144H98.8888C97.5176 24.5144 96.375 25.657 96.375 27.0282V33.0841C96.375 34.4553 97.5176 35.5979 98.8888 35.5979H103.859V34.341H98.8888C98.2603 34.2839 97.7461 33.8268 97.7461 33.1984Z" fill="#8A859E"/>
<path d="M97.7461 33.1984V30.6846H103.002V29.4277H97.7461V26.9139C97.7461 26.2855 98.2603 25.7713 98.8888 25.7713H103.688V24.5144H98.8888C97.5176 24.5144 96.375 25.657 96.375 27.0282V33.0841C96.375 34.4553 97.5176 35.5979 98.8888 35.5979H103.859V34.341H98.8888C98.2603 34.2839 97.7461 33.8268 97.7461 33.1984Z" fill="#8A859E"/>
<path fill-rule="evenodd" clip-rule="evenodd" d="M74.7214 29.4848L74.6072 29.7705H74.3215H72.4933H72.2077L71.7506 28.6279L70.2081 24.5144H68.7227L70.6651 29.4848L71.2936 31.0845H72.7219V35.5408H74.093V31.0845H74.7786H75.5213L75.8641 30.2275L78.0922 24.5144H76.6068L74.7214 29.4848Z" fill="#8A859E"/>
<path d="M74.7214 29.4848L74.6072 29.7705H74.3215H72.4933H72.2077L71.7506 28.6279L70.2081 24.5144H68.7227L70.6651 29.4848L71.2936 31.0845H72.7219V35.5408H74.093V31.0845H74.7786H75.5213L75.8641 30.2275L78.0922 24.5144H76.6068L74.7214 29.4848Z" fill="#8A859E"/>
<path fill-rule="evenodd" clip-rule="evenodd" d="M60.0397 30.5703H62.6678V33.1984C62.6678 33.8268 62.0393 34.341 61.4109 34.341H58.3829C57.7545 34.341 57.2403 33.8268 57.2403 33.1984V26.9139C57.2403 26.2855 57.7545 25.7713 58.3829 25.7713H63.182V24.5144H58.3829C57.0118 24.5144 55.8691 25.657 55.8691 27.0282V33.0841C55.8691 34.4553 57.0118 35.5979 58.3829 35.5979H61.4109C62.782 35.5979 63.9247 34.7981 63.9247 33.2555V29.3706H60.0969V30.5703H60.0397Z" fill="#8A859E"/>
<path d="M60.0397 30.5703H62.6678V33.1984C62.6678 33.8268 62.0393 34.341 61.4109 34.341H58.3829C57.7545 34.341 57.2403 33.8268 57.2403 33.1984V26.9139C57.2403 26.2855 57.7545 25.7713 58.3829 25.7713H63.182V24.5144H58.3829C57.0118 24.5144 55.8691 25.657 55.8691 27.0282V33.0841C55.8691 34.4553 57.0118 35.5979 58.3829 35.5979H61.4109C62.782 35.5979 63.9247 34.7981 63.9247 33.2555V29.3706H60.0969V30.5703H60.0397Z" fill="#8A859E"/>
<path d="M50.0987 24.5144H48.7275V35.5979H50.0987V24.5144Z" fill="#8A859E"/>
<path d="M50.0987 24.5144H48.7275V35.5979H50.0987V24.5144Z" fill="#8A859E"/>
<path fill-rule="evenodd" clip-rule="evenodd" d="M40.5012 24.5144H34.9023V35.5979H40.5012C41.8724 35.5979 43.015 34.4553 43.015 33.0841V27.0282C43.015 25.5999 41.9295 24.5144 40.5012 24.5144ZM41.6438 33.1984C41.6438 33.8268 41.1297 34.341 40.5012 34.341H36.2735V25.7713H40.5012C41.1297 25.7713 41.6438 26.2855 41.6438 26.9139V33.1984Z" fill="#8A859E"/>
<path d="M40.5012 24.5144H34.9023V35.5979H40.5012C41.8724 35.5979 43.015 34.4553 43.015 33.0841V27.0282C43.015 25.5999 41.9295 24.5144 40.5012 24.5144ZM41.6438 33.1984C41.6438 33.8268 41.1297 34.341 40.5012 34.341H36.2735V25.7713H40.5012C41.1297 25.7713 41.6438 26.2855 41.6438 26.9139V33.1984Z" fill="#8A859E"/>
<path fill-rule="evenodd" clip-rule="evenodd" d="M109.914 33.1984V30.6846H115.17V29.4277H109.914V26.9139C109.914 26.2855 110.428 25.7713 111.057 25.7713H115.856V24.5144H111.057C109.686 24.5144 108.543 25.657 108.543 27.0282V33.0841C108.543 34.4553 109.686 35.5979 111.057 35.5979H116.027V34.341H111.057C110.371 34.2839 109.914 33.8268 109.914 33.1984Z" fill="#8A859E"/>
<path d="M109.914 33.1984V30.6846H115.17V29.4277H109.914V26.9139C109.914 26.2855 110.428 25.7713 111.057 25.7713H115.856V24.5144H111.057C109.686 24.5144 108.543 25.657 108.543 27.0282V33.0841C108.543 34.4553 109.686 35.5979 111.057 35.5979H116.027V34.341H111.057C110.371 34.2839 109.914 33.8268 109.914 33.1984Z" fill="#8A859E"/>
<path fill-rule="evenodd" clip-rule="evenodd" d="M24.3321 9.60341L29.4168 11.0888L30.1595 10.9174L30.4452 11.3745L33.873 12.3457L34.7871 11.7173L29.4168 5.77561L24.3321 9.60341ZM30.2166 11.8887L32.4448 12.5742L29.0169 13.3741L25.0748 10.3461L29.1311 11.5459L29.531 12.0601L30.2166 11.8887ZM14.0484 8.97497L18.5618 9.20349L16.8479 0.633789L26.5602 7.2039L29.4168 5.0329L35.1299 11.4316L41.5858 17.0305L33.8159 12.8028L29.074 13.8883L23.1895 19.0872L25.7032 27.9997L22.6753 32.3988L16.3337 27.7141L19.2474 18.8016L7.64973 13.9454L0.222656 6.28979L14.0484 8.97497ZM13.42 9.37489L1.7652 7.08963L7.764 13.317L13.42 9.37489ZM23.6465 9.43202L20.7328 9.31776L25.3605 8.17513L23.6465 9.43202ZM14.734 9.54628L22.6182 18.3445L23.4751 9.9462L14.734 9.54628ZM25.9318 7.43242L19.1331 9.14636L17.6477 1.83355L25.9318 7.43242ZM15.591 11.3174L19.6473 18.4016L22.1611 18.6302L15.591 11.3174ZM19.7045 18.9158L17.3621 26.0572L22.3325 19.2015L19.7045 18.9158ZM8.27818 13.6026L18.8475 18.0589L13.9913 9.60341L8.27818 13.6026ZM22.561 19.8299L16.9621 27.5427L22.2754 31.4847L22.561 19.8299ZM23.0752 20.8012L22.8467 31.1419L25.0748 27.9426L23.0752 20.8012ZM23.1323 18.3445L23.9322 10.2319L28.5027 13.6597L23.1323 18.3445Z" fill="#8A859E"/>
</svg>
