<svg width="200" height="41" viewBox="0 0 200 41" fill="none" xmlns="http://www.w3.org/2000/svg">
<path fill-rule="evenodd" clip-rule="evenodd" d="M44.849 13.8741L53.0998 21.0187L42.6826 15.3491L44.849 13.8741Z" fill="black"/>
<path fill-rule="evenodd" clip-rule="evenodd" d="M30.1455 11.6615L42.683 15.349L44.8494 13.874L37.4744 6.17633L30.1455 11.6615Z" fill="#1EA038"/>
<path fill-rule="evenodd" clip-rule="evenodd" d="M30.1455 11.6616L36.8291 16.6858L42.683 15.349L30.1455 11.6616Z" fill="#015A2D"/>
<path fill-rule="evenodd" clip-rule="evenodd" d="M28.9932 23.5537L36.8291 16.6858L30.1455 11.6616L28.9932 23.5537Z" fill="#FBC701"/>
<path fill-rule="evenodd" clip-rule="evenodd" d="M28.9928 23.5539L28.624 40.2859L32.1732 35.0312L28.9928 23.5539Z" fill="#007D35"/>
<path fill-rule="evenodd" clip-rule="evenodd" d="M28.9929 23.5539L28.6242 40.2859L20.9727 34.6164L28.9929 23.5539Z" fill="#1EA038"/>
<path fill-rule="evenodd" clip-rule="evenodd" d="M17.792 11.0625L28.9927 23.5539L30.1451 11.6617L17.792 11.0625Z" fill="#1EA038"/>
<path fill-rule="evenodd" clip-rule="evenodd" d="M20.9727 34.6162L28.9929 23.5538L24.7062 23.1389L20.9727 34.6162Z" fill="#015A2D"/>
<path fill-rule="evenodd" clip-rule="evenodd" d="M24.7064 23.139L9.63379 16.7781L17.7924 11.0625L24.7064 23.139Z" fill="#1EA038"/>
<path fill-rule="evenodd" clip-rule="evenodd" d="M21.8486 0.78363L33.7869 8.8961L23.9689 11.3391L21.8486 0.78363Z" fill="#007D35"/>
<path fill-rule="evenodd" clip-rule="evenodd" d="M28.9927 23.5539L24.706 23.139L17.792 11.0625L28.9927 23.5539Z" fill="#007D35"/>
<path fill-rule="evenodd" clip-rule="evenodd" d="M0.967773 7.78979L17.7919 11.0624L9.63337 16.778L0.967773 7.78979Z" fill="#007D35"/>
<path fill-rule="evenodd" clip-rule="evenodd" d="M36.7373 13.5975L38.3967 13.2288L38.9959 14.2428L37.567 14.7498L36.7373 13.5975Z" fill="#1E1E1B"/>
<path fill-rule="evenodd" clip-rule="evenodd" d="M30.9288 11.4773L37.4741 13.4132L38.396 13.2289L38.7647 13.8281L43.0975 15.1187L44.342 14.289L37.428 6.59138L30.9288 11.4773ZM38.4421 14.4273L41.3459 15.257L36.921 16.271L31.8968 12.4453L37.1053 13.9664L37.6124 14.6578L38.4421 14.4273ZM17.746 10.6937L23.5538 10.9703L21.3413 0L33.7866 8.48122L37.4741 5.7156L44.803 13.9203L44.2498 14.7039L43.1897 15.6257L36.9671 17.0085L29.4077 23.646L32.5882 35.0772L28.7163 40.7467L20.5577 34.7546L24.2913 23.3234L9.44919 17.0546L0 7.23669L17.746 10.6937ZM16.9163 11.2468L2.02812 8.34294L9.67965 16.3171L16.9163 11.2468ZM30.053 11.2929L26.3655 11.1086L32.2655 9.63356L30.053 11.2929ZM18.5757 11.4312L28.7163 22.7241L29.7765 11.9382L18.5757 11.4312ZM33.003 8.71169L24.2452 10.8781L22.3554 1.52109L33.003 8.71169ZM19.7281 13.6898L24.9366 22.7702L28.1632 23.0929L19.7281 13.6898ZM24.9827 23.4616L21.9866 32.5882L28.3476 23.7843L24.9827 23.4616ZM10.3711 16.6859L23.9226 22.4015L17.6999 11.5234L10.3711 16.6859ZM28.6241 24.614L21.4796 34.5241L28.3476 39.5944L28.6241 24.614ZM29.2694 25.8585L28.9929 39.0874L31.8046 34.9389L29.2694 25.8585ZM29.4077 22.678L30.4218 12.2609L36.2757 16.6859L29.4077 22.678Z" fill="black"/>
<path fill-rule="evenodd" clip-rule="evenodd" d="M142.983 24.9365C142.983 25.8123 142.291 26.5498 141.369 26.5498H135.469V21.249H141.369C142.245 21.249 142.983 21.9404 142.983 22.8623V24.9365ZM133.487 28.3474H141.369C143.351 28.3474 144.919 26.7342 144.919 24.7521V22.9084C144.919 21.8943 144.135 20.6037 142.983 20.3272C144.135 20.0967 144.919 18.76 144.919 17.7459V16.1326C144.919 14.1506 143.305 12.5834 141.369 12.5834H133.487V28.3474ZM141.369 14.4272C142.245 14.4272 142.983 15.1186 142.983 16.0405V17.8842C142.983 18.76 142.291 19.4975 141.369 19.4975H135.469V14.4272H141.369Z" fill="black"/>
<path fill-rule="evenodd" clip-rule="evenodd" d="M195.667 21.0185L196.45 20.0966L200 12.6295H198.11C197.971 12.6295 197.787 12.7216 197.741 12.8599L194.284 20.0966H192.993L189.49 12.8599C189.444 12.7216 189.26 12.6295 189.075 12.6295H187.186L190.781 20.0966L191.518 21.0185L190.689 21.9865L187.6 28.3935H189.536C189.675 28.3935 189.859 28.3013 189.951 28.163C190.919 26.1349 191.887 24.0607 192.855 22.0325H194.33C195.298 24.0607 196.266 26.1349 197.234 28.163C197.28 28.3013 197.464 28.3935 197.649 28.3935H199.539L196.45 21.9865L195.667 21.0185Z" fill="black"/>
<path fill-rule="evenodd" clip-rule="evenodd" d="M156.073 14.4271H162.941V12.6295H156.073C154.091 12.6295 152.523 14.2427 152.523 16.1787V24.7982C152.523 26.7802 154.137 28.3474 156.073 28.3474H163.125V26.5497H156.073C155.197 26.5497 154.459 25.8583 154.459 24.9364V21.3411C157.271 21.3411 159.161 21.3411 161.973 21.3411V19.5435C159.161 19.5435 157.271 19.5435 154.459 19.5435V15.9943C154.459 15.1185 155.197 14.4271 156.073 14.4271Z" fill="black"/>
<path fill-rule="evenodd" clip-rule="evenodd" d="M124.406 12.6295L121.687 19.7279L121.548 20.0966H121.134H118.506H118.091L117.492 18.4833L115.234 12.6295H113.113L115.925 19.7279L116.801 21.9865H118.829V28.3474H120.811V21.9865H121.779H122.839L123.3 20.788L126.527 12.6295H124.406Z" fill="black"/>
<path fill-rule="evenodd" clip-rule="evenodd" d="M98.3638 28.3474H102.697C104.679 28.3474 106.246 27.1951 106.246 24.9826V19.4514H100.761V21.249H104.448V24.9826C104.448 25.8584 103.526 26.5959 102.651 26.5959H98.3178C97.442 26.5959 96.7045 25.9045 96.7045 24.9826V15.9944C96.7045 15.1186 97.3959 14.3811 98.3178 14.3811H105.14V12.5834H98.3178C96.3357 12.5834 94.7686 14.1967 94.7686 16.1326V24.7521C94.8146 26.7803 96.3818 28.3474 98.3638 28.3474Z" fill="black"/>
<path d="M86.7477 12.6295H84.7656V28.3935H86.7477V12.6295Z" fill="black"/>
<path fill-rule="evenodd" clip-rule="evenodd" d="M67.066 14.4269H73.0582C73.934 14.4269 74.6715 15.1183 74.6715 16.0402V24.9824C74.6715 25.8581 73.98 26.5956 73.0582 26.5956H67.066V14.4269ZM65.084 28.3472H73.0121C74.9941 28.3472 76.5613 26.7339 76.5613 24.798V16.1785C76.5613 14.1965 74.948 12.6293 73.0121 12.6293H65.084V28.3472Z" fill="black"/>
<path fill-rule="evenodd" clip-rule="evenodd" d="M173.312 14.4271H180.18V12.6295H173.312C171.33 12.6295 169.763 14.2427 169.763 16.1787V24.7982C169.763 26.7802 171.376 28.3474 173.312 28.3474H180.364V26.5497H173.312C172.436 26.5497 171.699 25.8583 171.699 24.9364V21.3411C174.51 21.3411 176.4 21.3411 179.212 21.3411V19.5435C176.4 19.5435 174.51 19.5435 171.699 19.5435V15.9943C171.745 15.1185 172.436 14.4271 173.312 14.4271Z" fill="black"/>
</svg>
