<svg width="157" height="33" viewBox="0 0 157 33" fill="none" xmlns="http://www.w3.org/2000/svg">
<path d="M156.581 24.9902V22.9867C156.581 22.5244 156.427 22.062 156.273 21.9079C156.118 21.7538 155.81 21.5997 155.502 21.5997C155.194 21.5997 155.04 21.5997 154.885 21.7538C154.731 21.9079 154.577 22.062 154.423 22.2161C154.269 21.7538 153.961 21.5997 153.498 21.5997C153.036 21.5997 152.728 21.7538 152.574 22.2161V21.7538H151.957C151.957 22.062 151.957 22.3702 151.957 22.6785V25.1443H152.574V23.1408C152.574 22.9867 152.574 22.6785 152.728 22.5244C152.882 22.3702 153.036 22.2161 153.19 22.2161C153.344 22.2161 153.498 22.2161 153.653 22.3702C153.807 22.5243 153.807 22.6785 153.807 22.9867V24.9902H154.577V22.9867C154.577 22.8326 154.577 22.6785 154.731 22.5244C154.885 22.3702 155.04 22.3702 155.194 22.3702C155.656 22.3702 155.81 22.6785 155.81 23.2949V25.1443H156.581V24.9902ZM152.574 29.3054C152.266 28.9972 151.957 28.6889 151.495 28.6889C151.033 28.6889 150.57 28.843 150.416 29.3054C150.108 29.6136 149.954 30.076 149.954 30.5383C149.954 31.0007 150.108 31.463 150.416 31.7712C150.724 32.0795 151.187 32.2336 151.649 32.2336C152.111 32.2336 152.42 32.2336 152.728 32.0795L152.574 31.6171C152.266 31.7712 151.957 31.7712 151.649 31.7712C151.341 31.7712 151.033 31.7712 150.879 31.463C150.724 31.3089 150.57 31.0007 150.57 30.6924H152.728C152.728 30.5383 152.728 30.5383 152.728 30.3842C152.728 30.076 152.728 29.6136 152.574 29.3054ZM152.111 30.2301H150.57C150.57 30.076 150.724 29.7677 150.724 29.6136C150.879 29.4595 151.033 29.3054 151.341 29.3054C151.649 29.3054 151.803 29.4595 151.957 29.6136C152.111 29.7677 152.111 30.076 152.111 30.2301ZM150.416 24.9902H151.033C151.033 24.682 151.033 24.3737 151.033 24.0655V21.5997H150.262V23.6032C150.262 23.7573 150.262 23.7573 150.262 23.9114C150.108 24.2196 149.954 24.3737 149.646 24.3737C149.183 24.3737 149.029 24.0655 149.029 23.449V21.5997H148.259V23.6032C148.259 24.0655 148.413 24.5278 148.567 24.682C148.721 24.8361 149.029 24.9902 149.337 24.9902C149.8 24.9902 150.108 24.8361 150.416 24.3737V24.9902ZM148.567 8.65404C148.567 6.65055 150.262 5.72586 150.262 5.72586C149.337 4.33883 147.95 4.18471 147.334 4.18471C146.255 3.87648 145.022 4.80117 144.56 4.80117C143.943 4.80117 143.019 4.0306 141.94 4.18471C140.553 4.18471 139.32 4.95529 138.703 6.1882C137.316 8.49992 138.395 12.1987 139.628 14.2022C140.245 15.1269 141.015 16.2057 142.094 16.2057C143.019 16.2057 143.481 15.5892 144.56 15.5892C145.793 15.5892 146.101 16.2057 147.18 16.2057C148.259 16.2057 148.875 15.281 149.646 14.2022C150.416 13.1234 150.724 12.0446 150.724 11.8904C150.724 11.7363 148.567 11.1199 148.567 8.65404ZM146.717 2.79768C147.334 2.18122 147.642 1.10242 147.488 0.177734C146.717 0.177734 145.793 0.640078 145.176 1.41065C144.714 2.02711 144.252 2.9518 144.406 3.87648C145.176 3.87648 146.101 3.41414 146.717 2.79768ZM138.087 22.062C137.779 22.3702 137.625 22.8326 137.625 23.2949C137.625 23.7573 137.779 24.2196 138.087 24.5278C138.395 24.8361 138.858 24.9902 139.32 24.9902C139.782 24.9902 140.09 24.9902 140.399 24.8361L140.245 24.3737C139.936 24.5278 139.628 24.5278 139.32 24.5278C139.012 24.5278 138.858 24.3737 138.549 24.2196C138.395 24.0655 138.241 23.7573 138.241 23.449H140.399C140.399 23.2949 140.399 23.2949 140.399 23.1408C140.399 22.6785 140.245 22.3702 140.09 22.062C139.782 21.7538 139.474 21.5997 139.012 21.5997C138.858 21.5997 138.395 21.7538 138.087 22.062ZM138.395 22.9867C138.395 22.8326 138.549 22.5243 138.549 22.3702C138.703 22.2161 138.858 22.062 139.166 22.062C139.474 22.062 139.628 22.2161 139.782 22.3702C139.936 22.5243 139.936 22.6785 139.936 22.9867H138.395ZM138.858 28.8431C138.395 28.8431 137.933 28.9972 137.779 29.4595C137.471 29.7677 137.316 30.2301 137.316 30.6924C137.316 31.1548 137.471 31.6171 137.779 31.9253C138.087 32.2336 138.395 32.3877 139.012 32.3877C139.474 32.3877 139.782 32.3877 140.09 32.2336L139.936 31.7712C139.628 31.9253 139.32 31.9253 139.012 31.9253C138.703 31.9253 138.549 31.9253 138.241 31.6171C138.087 31.463 137.933 31.1548 137.933 30.8465H140.245C140.245 30.6924 140.245 30.6924 140.245 30.5383C140.245 30.076 140.09 29.7677 139.936 29.4595C139.628 28.9972 139.32 28.8431 138.858 28.8431ZM138.858 29.3054C139.166 29.3054 139.32 29.4595 139.474 29.6136C139.628 29.7677 139.628 29.9219 139.628 30.2301H138.087C138.087 30.076 138.241 29.7677 138.241 29.6136C138.395 29.4595 138.549 29.3054 138.858 29.3054ZM137.162 22.3702H137.316V21.5997H137.162C137.008 21.5997 136.854 21.5997 136.7 21.7538C136.546 21.9079 136.392 22.062 136.392 22.2161V21.5997H135.621C135.621 21.9079 135.621 22.2161 135.621 22.6785V24.9902H136.392V23.2949C136.392 22.9867 136.392 22.8326 136.546 22.6785C136.7 22.3702 137.008 22.3702 137.162 22.3702ZM134.851 22.6785C135.159 22.3702 135.159 22.062 135.159 21.5997C135.159 21.1373 135.005 20.8291 134.696 20.5209C134.388 20.2126 133.926 20.2126 133.464 20.2126C133.001 20.2126 132.539 20.2126 132.385 20.3667V24.9902H133.001V23.2949C133.155 23.2949 133.309 23.2949 133.464 23.2949C134.08 23.2949 134.542 23.1408 134.851 22.6785ZM134.388 21.7538C134.388 22.062 134.234 22.2161 134.08 22.3702C133.926 22.5243 133.618 22.6785 133.309 22.6785C133.155 22.6785 133.001 22.6785 132.847 22.6785V20.9832C133.001 20.9832 133.155 20.9832 133.309 20.9832C133.618 20.9832 133.926 20.9832 134.08 21.1373C134.388 21.2914 134.388 21.4455 134.388 21.7538ZM135.159 27.6101C134.696 27.6101 134.234 27.6101 133.926 27.7642V32.3877H134.696V30.3842H135.159C135.467 30.3842 135.621 30.3842 135.775 30.5383C135.929 30.6924 135.929 30.8465 136.084 31.1548C136.238 31.7712 136.238 32.0795 136.392 32.2336H137.162C137.162 32.0795 137.008 31.9253 137.008 31.7712C137.008 31.6171 136.854 31.3089 136.854 31.0007C136.7 30.5383 136.546 30.2301 136.238 30.076C136.546 29.9219 136.7 29.9219 136.854 29.6136C137.008 29.4595 137.162 29.1513 137.162 28.8431C137.162 28.3807 137.008 28.0725 136.7 27.9184C136.238 27.7642 135.775 27.6101 135.159 27.6101ZM134.696 28.2266C134.851 28.2266 135.005 28.2266 135.159 28.2266C135.775 28.2266 136.084 28.5348 136.084 28.9972C136.084 29.3054 135.929 29.4595 135.775 29.6136C135.621 29.7677 135.313 29.9219 135.159 29.9219H134.696V28.2266ZM140.861 31.6171L140.707 32.2336C141.015 32.3877 141.323 32.3877 141.632 32.3877C142.094 32.3877 142.402 32.2336 142.556 32.0795C142.71 31.9253 142.865 31.6171 142.865 31.3089C142.865 30.8465 142.556 30.5383 141.94 30.2301C141.786 30.076 141.632 30.076 141.478 30.076C141.323 30.076 141.323 29.9219 141.323 29.7677C141.323 29.6136 141.323 29.6136 141.478 29.4595C141.632 29.4595 141.632 29.3054 141.786 29.3054C142.094 29.3054 142.248 29.3054 142.402 29.4595L142.556 28.9972C142.402 28.8431 142.094 28.8431 141.786 28.8431C141.478 28.8431 141.169 28.9972 140.861 29.1513C140.707 29.3054 140.553 29.6136 140.553 29.9219C140.553 30.3842 140.861 30.6924 141.478 30.8465C141.632 31.0007 141.786 31.0007 141.94 31.0007C142.094 31.1548 142.094 31.1548 142.094 31.3089C142.094 31.6171 141.94 31.7712 141.478 31.7712C141.323 31.7712 141.015 31.7712 140.861 31.6171ZM142.556 22.2161C142.71 22.2161 142.865 22.2161 143.019 22.3702C143.173 22.5243 143.173 22.6785 143.173 22.9867V24.9902H143.943V22.9867C143.943 22.8326 143.943 22.6785 144.097 22.5244C144.252 22.3702 144.406 22.3702 144.56 22.3702C144.868 22.3702 145.176 22.6785 145.176 23.2949V25.1443H145.947V23.1408C145.947 22.6785 145.793 22.2161 145.639 22.062C145.485 21.9079 145.176 21.7538 144.868 21.7538C144.714 21.7538 144.406 21.7538 144.252 21.9079C144.097 22.062 143.943 22.2161 143.789 22.3702C143.635 21.9079 143.327 21.7538 142.865 21.7538C142.402 21.7538 142.094 21.9079 141.94 22.3702V21.9079H141.323C141.323 22.2161 141.323 22.5243 141.323 22.8326V25.2984H142.094V23.2949C142.094 23.1408 142.094 22.8326 142.248 22.6785C142.248 22.2161 142.402 22.2161 142.556 22.2161ZM143.789 29.3054C143.481 29.6136 143.327 30.076 143.327 30.5383C143.327 31.0007 143.481 31.463 143.789 31.7712C144.097 32.0795 144.406 32.2336 144.868 32.2336C145.33 32.2336 145.639 32.2336 145.947 32.0795L145.793 31.6171C145.484 31.7712 145.176 31.7712 144.868 31.7712C144.56 31.7712 144.406 31.7712 144.252 31.463C144.097 31.3089 143.943 31.0007 143.943 30.6924H146.101C146.101 30.5383 146.101 30.5383 146.101 30.3842C146.101 29.9219 145.947 29.6136 145.793 29.3054C145.484 28.9972 145.176 28.6889 144.714 28.6889C144.406 28.843 144.097 28.9972 143.789 29.3054ZM144.097 30.2301C144.097 30.076 144.252 29.7677 144.252 29.6136C144.406 29.4595 144.56 29.3054 144.714 29.3054C145.022 29.3054 145.176 29.4595 145.33 29.6136C145.485 29.7677 145.485 29.9219 145.485 30.2301H144.097ZM146.717 20.3667C146.563 20.5209 146.563 20.5209 146.563 20.675C146.563 20.8291 146.563 20.8291 146.717 20.9832C146.872 21.1373 146.872 21.1373 147.026 21.1373C147.18 21.1373 147.334 21.1373 147.334 20.9832C147.488 20.8291 147.488 20.8291 147.488 20.675C147.488 20.5209 147.488 20.5209 147.334 20.3667C147.334 20.2126 147.18 20.2126 147.026 20.2126C146.872 20.2126 146.872 20.2126 146.717 20.3667ZM147.488 21.5997H146.717V24.9902H147.488V21.5997ZM147.642 27.3019H146.872V32.2336H147.642V27.3019ZM149.183 27.3019H148.413V32.2336H149.183V27.3019ZM154.115 28.8431H153.498C153.498 29.1513 153.498 29.4595 153.498 29.9219V32.2336H154.269V30.5383C154.269 30.2301 154.269 30.076 154.423 29.9219C154.577 29.7677 154.731 29.6136 155.04 29.6136C155.194 29.6136 155.194 29.6136 155.194 29.6136V28.8431H155.04C154.885 28.8431 154.731 28.8431 154.577 28.9972C154.423 29.1513 154.269 29.3054 154.269 29.4595L154.115 28.8431Z" fill="#8A859E"/>
<path d="M125.911 0.177734H125.295V32.3877H125.911V0.177734Z" fill="#8A859E"/>
<path d="M118.668 13.8939V9.11637C118.206 8.96225 118.052 8.96225 117.435 8.96225C115.278 8.96225 112.966 10.3493 112.041 13.2775H111.887V9.4246H107.572C107.726 11.274 107.726 13.1233 107.726 15.8974V29.6136H112.658V19.1338C112.658 18.5174 112.812 18.055 112.812 17.5927C113.274 15.281 114.815 13.7398 117.281 13.7398C117.898 13.7398 118.36 13.8939 118.668 13.8939ZM104.644 20.9832C104.798 20.5208 104.798 19.7503 104.798 18.8256C104.798 14.3563 102.64 8.96225 96.3217 8.96225C90.0031 8.96225 86.6125 14.2021 86.6125 19.7503C86.6125 25.9149 90.4654 29.9218 96.7841 29.9218C99.5582 29.9218 102.024 29.4595 103.719 28.6889L102.949 25.1443C101.408 25.7607 99.7123 26.069 97.4006 26.069C94.1641 26.069 91.3901 24.5278 91.236 20.8291H104.644V20.9832ZM100.175 17.4386H91.5442C91.6983 15.4351 93.0853 12.5069 96.1676 12.5069C99.404 12.5069 100.175 15.5892 100.175 17.4386ZM80.7562 13.2775H85.5337V9.4246H80.7562V3.72236L75.8245 4.95527V9.57871H73.0504V13.4316H75.8245V22.9867C75.8245 25.6066 76.2869 27.456 77.3657 28.6889C78.2903 29.7677 79.8315 30.3842 81.6809 30.3842C83.222 30.3842 84.609 30.2301 85.2255 29.9218L85.0714 26.069C84.609 26.2231 83.9926 26.3772 83.0679 26.3772C81.2185 26.3772 80.4479 25.1443 80.4479 22.6785V13.2775H80.7562ZM66.1153 29.6136H71.047V17.5927C71.047 11.274 67.5023 8.96225 63.9577 8.96225C60.7213 8.96225 58.5637 10.8116 57.639 12.5069H57.4849L57.1766 9.4246H52.8614C53.0155 11.1199 53.0156 13.1233 53.0156 15.4351V29.6136H58.1013V17.7468C58.1013 17.1303 58.1013 16.5139 58.2554 16.0515C58.7178 14.5104 60.1048 13.1233 62.1083 13.1233C64.8824 13.1233 65.9612 15.281 65.9612 18.2091V29.6136H66.1153ZM50.2415 20.9832C50.3956 20.5208 50.3956 19.7503 50.3956 18.8256C50.3956 14.3563 48.238 8.96225 41.9193 8.96225C35.6006 8.96225 32.2101 14.2021 32.2101 19.7503C32.2101 25.9149 36.0629 29.9218 42.3816 29.9218C45.1557 29.9218 47.6215 29.4595 49.3168 28.6889L48.5462 25.1443C47.0051 25.7607 45.3098 26.069 42.9981 26.069C39.7617 26.069 36.9876 24.5278 36.8335 20.8291H50.2415V20.9832ZM45.7722 17.4386H36.9876C37.1417 15.281 38.5288 12.5069 41.6111 12.5069C45.0016 12.5069 45.7722 15.5892 45.7722 17.4386ZM29.2819 7.57522L30.3607 3.72236C29.436 3.26001 27.1243 2.48944 24.042 2.48944C16.028 2.48944 10.0176 7.88345 10.0176 16.668C10.0176 24.8361 15.1034 30.076 23.4255 30.076C26.5078 30.076 29.1278 29.4595 30.2066 28.843L29.2819 24.9902C28.049 25.6066 26.0455 25.9149 24.042 25.9149C18.3398 25.9149 14.9492 22.2161 14.9492 16.2056C14.9492 9.73283 18.8021 6.34231 24.1961 6.34231C26.3537 6.49642 28.049 6.95876 29.2819 7.57522Z" fill="#8A859E"/>
<path d="M0 30.076H5.39401V10.0411L0 11.7364V30.076ZM5.39401 5.41768C5.39401 3.87653 4.31521 2.64362 2.77406 2.64362C1.0788 2.79773 0 3.87653 0 5.41768C0 6.95882 1.0788 8.03763 2.61995 8.03763C4.31521 8.19174 5.39401 6.95882 5.39401 5.41768Z" fill="#8A859E"/>
</svg>
