<svg width="120" height="26" viewBox="0 0 120 26" fill="none" xmlns="http://www.w3.org/2000/svg">
<path d="M119.675 19.5074V17.9761C119.675 17.6227 119.557 17.2694 119.439 17.1516C119.321 17.0338 119.086 16.916 118.85 16.916C118.615 16.916 118.497 16.916 118.379 17.0338C118.261 17.1516 118.143 17.2694 118.026 17.3872C117.908 17.0338 117.672 16.916 117.319 16.916C116.965 16.916 116.73 17.0338 116.612 17.3872V17.0338H116.141C116.141 17.2694 116.141 17.505 116.141 17.7405V19.6252H116.612V18.0939C116.612 17.9761 116.612 17.7405 116.73 17.6227C116.848 17.505 116.965 17.3872 117.083 17.3872C117.201 17.3872 117.319 17.3872 117.437 17.505C117.554 17.6227 117.554 17.7405 117.554 17.9761V19.5074H118.143V17.9761C118.143 17.8583 118.143 17.7405 118.261 17.6227C118.379 17.505 118.497 17.505 118.615 17.505C118.968 17.505 119.086 17.7405 119.086 18.2117V19.6252H119.675V19.5074ZM116.612 22.8055C116.377 22.5699 116.141 22.3343 115.788 22.3343C115.434 22.3343 115.081 22.4521 114.963 22.8055C114.727 23.0411 114.61 23.3945 114.61 23.7478C114.61 24.1012 114.727 24.4546 114.963 24.6901C115.199 24.9257 115.552 25.0435 115.905 25.0435C116.259 25.0435 116.494 25.0435 116.73 24.9257L116.612 24.5723C116.377 24.6901 116.141 24.6901 115.905 24.6901C115.67 24.6901 115.434 24.6901 115.316 24.4546C115.199 24.3368 115.081 24.1012 115.081 23.8656H116.73C116.73 23.7478 116.73 23.7478 116.73 23.63C116.73 23.3945 116.73 23.0411 116.612 22.8055ZM116.259 23.5122H115.081C115.081 23.3945 115.199 23.1589 115.199 23.0411C115.316 22.9233 115.434 22.8055 115.67 22.8055C115.905 22.8055 116.023 22.9233 116.141 23.0411C116.259 23.1589 116.259 23.3945 116.259 23.5122ZM114.963 19.5074H115.434C115.434 19.2718 115.434 19.0362 115.434 18.8006V16.916H114.845V18.4473C114.845 18.5651 114.845 18.5651 114.845 18.6829C114.727 18.9184 114.61 19.0362 114.374 19.0362C114.021 19.0362 113.903 18.8006 113.903 18.3295V16.916H113.314V18.4473C113.314 18.8006 113.432 19.154 113.55 19.2718C113.667 19.3896 113.903 19.5074 114.139 19.5074C114.492 19.5074 114.727 19.3896 114.963 19.0362V19.5074ZM113.55 7.02166C113.55 5.49039 114.845 4.78365 114.845 4.78365C114.139 3.72354 113.078 3.60575 112.607 3.60575C111.783 3.37017 110.84 4.07691 110.487 4.07691C110.016 4.07691 109.309 3.48796 108.485 3.60575C107.424 3.60575 106.482 4.1947 106.011 5.13702C104.951 6.90387 105.775 9.73082 106.718 11.2621C107.189 11.9688 107.778 12.7934 108.602 12.7934C109.309 12.7934 109.663 12.3222 110.487 12.3222C111.429 12.3222 111.665 12.7934 112.489 12.7934C113.314 12.7934 113.785 12.0866 114.374 11.2621C114.963 10.4376 115.199 9.61303 115.199 9.49524C115.199 9.37745 113.55 8.90629 113.55 7.02166ZM112.136 2.54564C112.607 2.07448 112.843 1.24995 112.725 0.543213C112.136 0.543213 111.429 0.896583 110.958 1.48553C110.605 1.95669 110.251 2.66343 110.369 3.37017C110.958 3.37017 111.665 3.0168 112.136 2.54564ZM105.54 17.2694C105.304 17.505 105.186 17.8583 105.186 18.2117C105.186 18.5651 105.304 18.9184 105.54 19.154C105.775 19.3896 106.129 19.5074 106.482 19.5074C106.836 19.5074 107.071 19.5074 107.307 19.3896L107.189 19.0362C106.953 19.154 106.718 19.154 106.482 19.154C106.247 19.154 106.129 19.0362 105.893 18.9184C105.775 18.8006 105.658 18.5651 105.658 18.3295H107.307C107.307 18.2117 107.307 18.2117 107.307 18.0939C107.307 17.7405 107.189 17.505 107.071 17.2694C106.836 17.0338 106.6 16.916 106.247 16.916C106.129 16.916 105.775 17.0338 105.54 17.2694ZM105.775 17.9761C105.775 17.8583 105.893 17.6227 105.893 17.505C106.011 17.3872 106.129 17.2694 106.364 17.2694C106.6 17.2694 106.718 17.3872 106.836 17.505C106.953 17.6227 106.953 17.7405 106.953 17.9761H105.775ZM106.129 22.4521C105.775 22.4521 105.422 22.5699 105.304 22.9233C105.069 23.1589 104.951 23.5122 104.951 23.8656C104.951 24.219 105.069 24.5724 105.304 24.8079C105.54 25.0435 105.775 25.1613 106.247 25.1613C106.6 25.1613 106.836 25.1613 107.071 25.0435L106.953 24.6901C106.718 24.8079 106.482 24.8079 106.247 24.8079C106.011 24.8079 105.893 24.8079 105.658 24.5723C105.54 24.4546 105.422 24.219 105.422 23.9834H107.189C107.189 23.8656 107.189 23.8656 107.189 23.7478C107.189 23.3945 107.071 23.1589 106.953 22.9233C106.718 22.5699 106.482 22.4521 106.129 22.4521ZM106.129 22.8055C106.364 22.8055 106.482 22.9233 106.6 23.0411C106.718 23.1589 106.718 23.2767 106.718 23.5122H105.54C105.54 23.3945 105.658 23.1589 105.658 23.0411C105.775 22.9233 105.893 22.8055 106.129 22.8055ZM104.833 17.505H104.951V16.916H104.833C104.715 16.916 104.598 16.916 104.48 17.0338C104.362 17.1516 104.244 17.2694 104.244 17.3872V16.916H103.655C103.655 17.1516 103.655 17.3872 103.655 17.7405V19.5074H104.244V18.2117C104.244 17.9761 104.244 17.8583 104.362 17.7405C104.48 17.505 104.715 17.505 104.833 17.505ZM103.066 17.7405C103.302 17.505 103.302 17.2694 103.302 16.916C103.302 16.5626 103.184 16.3271 102.948 16.0915C102.713 15.8559 102.36 15.8559 102.006 15.8559C101.653 15.8559 101.299 15.8559 101.182 15.9737V19.5074H101.653V18.2117C101.771 18.2117 101.888 18.2117 102.006 18.2117C102.477 18.2117 102.831 18.0939 103.066 17.7405ZM102.713 17.0338C102.713 17.2694 102.595 17.3872 102.477 17.505C102.36 17.6227 102.124 17.7405 101.888 17.7405C101.771 17.7405 101.653 17.7405 101.535 17.7405V16.4448C101.653 16.4448 101.771 16.4448 101.888 16.4448C102.124 16.4448 102.36 16.4448 102.477 16.5626C102.713 16.6804 102.713 16.7982 102.713 17.0338ZM103.302 21.5098C102.948 21.5098 102.595 21.5098 102.36 21.6276V25.1613H102.948V23.63H103.302C103.537 23.63 103.655 23.63 103.773 23.7478C103.891 23.8656 103.891 23.9834 104.009 24.219C104.126 24.6901 104.126 24.9257 104.244 25.0435H104.833C104.833 24.9257 104.715 24.8079 104.715 24.6901C104.715 24.5723 104.598 24.3368 104.598 24.1012C104.48 23.7478 104.362 23.5122 104.126 23.3945C104.362 23.2767 104.48 23.2767 104.598 23.0411C104.715 22.9233 104.833 22.6877 104.833 22.4521C104.833 22.0988 104.715 21.8632 104.48 21.7454C104.126 21.6276 103.773 21.5098 103.302 21.5098ZM102.948 21.981C103.066 21.981 103.184 21.981 103.302 21.981C103.773 21.981 104.009 22.2166 104.009 22.5699C104.009 22.8055 103.891 22.9233 103.773 23.0411C103.655 23.1589 103.42 23.2767 103.302 23.2767H102.948V21.981ZM107.66 24.5723L107.542 25.0435C107.778 25.1613 108.013 25.1613 108.249 25.1613C108.602 25.1613 108.838 25.0435 108.956 24.9257C109.074 24.8079 109.191 24.5724 109.191 24.3368C109.191 23.9834 108.956 23.7478 108.485 23.5122C108.367 23.3945 108.249 23.3945 108.131 23.3945C108.013 23.3945 108.013 23.2767 108.013 23.1589C108.013 23.0411 108.013 23.0411 108.131 22.9233C108.249 22.9233 108.249 22.8055 108.367 22.8055C108.602 22.8055 108.72 22.8055 108.838 22.9233L108.956 22.5699C108.838 22.4521 108.602 22.4521 108.367 22.4521C108.131 22.4521 107.896 22.5699 107.66 22.6877C107.542 22.8055 107.424 23.0411 107.424 23.2767C107.424 23.63 107.66 23.8656 108.131 23.9834C108.249 24.1012 108.367 24.1012 108.485 24.1012C108.602 24.219 108.602 24.219 108.602 24.3368C108.602 24.5724 108.485 24.6901 108.131 24.6901C108.013 24.6901 107.778 24.6901 107.66 24.5723ZM108.956 17.3872C109.074 17.3872 109.191 17.3872 109.309 17.505C109.427 17.6227 109.427 17.7405 109.427 17.9761V19.5074H110.016V17.9761C110.016 17.8583 110.016 17.7405 110.134 17.6227C110.251 17.505 110.369 17.505 110.487 17.505C110.723 17.505 110.958 17.7405 110.958 18.2117V19.6252H111.547V18.0939C111.547 17.7405 111.429 17.3872 111.312 17.2694C111.194 17.1516 110.958 17.0338 110.723 17.0338C110.605 17.0338 110.369 17.0338 110.251 17.1516C110.134 17.2694 110.016 17.3872 109.898 17.505C109.78 17.1516 109.545 17.0338 109.191 17.0338C108.838 17.0338 108.602 17.1516 108.485 17.505V17.1516H108.013C108.013 17.3872 108.013 17.6227 108.013 17.8583V19.743H108.602V18.2117C108.602 18.0939 108.602 17.8583 108.72 17.7405C108.72 17.3872 108.838 17.3872 108.956 17.3872ZM109.898 22.8055C109.663 23.0411 109.545 23.3945 109.545 23.7478C109.545 24.1012 109.663 24.4546 109.898 24.6901C110.134 24.9257 110.369 25.0435 110.723 25.0435C111.076 25.0435 111.312 25.0435 111.547 24.9257L111.429 24.5723C111.194 24.6901 110.958 24.6901 110.723 24.6901C110.487 24.6901 110.369 24.6901 110.251 24.4546C110.134 24.3368 110.016 24.1012 110.016 23.8656H111.665C111.665 23.7478 111.665 23.7478 111.665 23.63C111.665 23.2767 111.547 23.0411 111.429 22.8055C111.194 22.5699 110.958 22.3343 110.605 22.3343C110.369 22.4521 110.134 22.5699 109.898 22.8055ZM110.134 23.5122C110.134 23.3945 110.251 23.1589 110.251 23.0411C110.369 22.9233 110.487 22.8055 110.605 22.8055C110.84 22.8055 110.958 22.9233 111.076 23.0411C111.194 23.1589 111.194 23.2767 111.194 23.5122H110.134ZM112.136 15.9737C112.018 16.0915 112.018 16.0915 112.018 16.2093C112.018 16.3271 112.018 16.3271 112.136 16.4448C112.254 16.5626 112.254 16.5626 112.372 16.5626C112.489 16.5626 112.607 16.5626 112.607 16.4448C112.725 16.3271 112.725 16.3271 112.725 16.2093C112.725 16.0915 112.725 16.0915 112.607 15.9737C112.607 15.8559 112.489 15.8559 112.372 15.8559C112.254 15.8559 112.254 15.8559 112.136 15.9737ZM112.725 16.916H112.136V19.5074H112.725V16.916ZM112.843 21.2742H112.254V25.0435H112.843V21.2742ZM114.021 21.2742H113.432V25.0435H114.021V21.2742ZM117.79 22.4521H117.319C117.319 22.6877 117.319 22.9233 117.319 23.2767V25.0435H117.908V23.7478C117.908 23.5122 117.908 23.3945 118.026 23.2767C118.143 23.1589 118.261 23.0411 118.497 23.0411C118.615 23.0411 118.615 23.0411 118.615 23.0411V22.4521H118.497C118.379 22.4521 118.261 22.4521 118.143 22.5699C118.026 22.6877 117.908 22.8055 117.908 22.9233L117.79 22.4521Z" fill="#8A859E"/>
<path d="M96.2338 0.543213H95.7627V25.1613H96.2338V0.543213Z" fill="#8A859E"/>
<path d="M90.6981 11.0265V7.37502C90.3447 7.25723 90.227 7.25723 89.7558 7.25723C88.1067 7.25723 86.3399 8.31734 85.6331 10.5554H85.5154V7.6106H82.2172C82.335 9.02408 82.335 10.4376 82.335 12.5578V23.0411H86.1043V15.0314C86.1043 14.5602 86.2221 14.2068 86.2221 13.8535C86.5755 12.0866 87.7534 10.9087 89.638 10.9087C90.1092 10.9087 90.4625 11.0265 90.6981 11.0265ZM79.9792 16.4448C80.097 16.0915 80.097 15.5025 80.097 14.7958C80.097 11.3799 78.448 7.25723 73.6186 7.25723C68.7892 7.25723 66.1978 11.2621 66.1978 15.5025C66.1978 20.2141 69.1426 23.2767 73.9719 23.2767C76.0922 23.2767 77.9768 22.9233 79.2725 22.3343L78.6835 19.6252C77.5057 20.0963 76.21 20.3319 74.4431 20.3319C71.9695 20.3319 69.8493 19.154 69.7315 16.3271H79.9792V16.4448ZM76.5633 13.7357H69.9671C70.0849 12.2044 71.145 9.9664 73.5008 9.9664C75.9744 9.9664 76.5633 12.3222 76.5633 13.7357ZM61.7218 10.5554H65.3733V7.6106H61.7218V3.25238L57.9525 4.1947V7.72839H55.8323V10.6731H57.9525V17.9761C57.9525 19.9785 58.3059 21.392 59.1304 22.3343C59.8372 23.1589 61.0151 23.63 62.4285 23.63C63.6064 23.63 64.6665 23.5122 65.1377 23.2767L65.0199 20.3319C64.6665 20.4497 64.1954 20.5675 63.4887 20.5675C62.0752 20.5675 61.4862 19.6252 61.4862 17.7405V10.5554H61.7218ZM50.5318 23.0411H54.301V13.8535C54.301 9.02408 51.5919 7.25723 48.8827 7.25723C46.4091 7.25723 44.7601 8.67071 44.0533 9.9664H43.9355L43.7 7.6106H40.4018C40.5196 8.90629 40.5196 10.4376 40.5196 12.2044V23.0411H44.4067V13.9713C44.4067 13.5001 44.4067 13.0289 44.5245 12.6756C44.8778 11.4977 45.938 10.4376 47.4692 10.4376C49.5894 10.4376 50.414 12.0866 50.414 14.3246V23.0411H50.5318ZM38.3994 16.4448C38.5172 16.0915 38.5172 15.5025 38.5172 14.7958C38.5172 11.3799 36.8681 7.25723 32.0388 7.25723C27.2094 7.25723 24.618 11.2621 24.618 15.5025C24.618 20.2141 27.5627 23.2767 32.3921 23.2767C34.5123 23.2767 36.397 22.9233 37.6927 22.3343L37.1037 19.6252C35.9258 20.0963 34.6301 20.3319 32.8633 20.3319C30.3897 20.3319 28.2695 19.154 28.1517 16.3271H38.3994V16.4448ZM34.9835 13.7357H28.2695C28.3873 12.0866 29.4474 9.9664 31.8032 9.9664C34.3946 9.9664 34.9835 12.3222 34.9835 13.7357ZM22.38 6.19712L23.2045 3.25238C22.4978 2.89901 20.7309 2.31006 18.3751 2.31006C12.2501 2.31006 7.65625 6.4327 7.65625 13.1467C7.65625 19.3896 11.5433 23.3944 17.904 23.3944C20.2598 23.3944 22.2622 22.9233 23.0867 22.4521L22.38 19.5074C21.4377 19.9785 19.9064 20.2141 18.3751 20.2141C14.0169 20.2141 11.4255 17.3872 11.4255 12.7934C11.4255 7.84618 14.3703 5.25481 18.4929 5.25481C20.142 5.3726 21.4377 5.72597 22.38 6.19712Z" fill="#8A859E"/>
<path d="M0 23.3943H4.12265V8.08165L0 9.37734V23.3943ZM4.12265 4.54795C4.12265 3.37005 3.29812 2.42773 2.12022 2.42773C0.824529 2.54552 0 3.37005 0 4.54795C0 5.72585 0.824529 6.55038 2.00243 6.55038C3.29812 6.66817 4.12265 5.72585 4.12265 4.54795Z" fill="#8A859E"/>
</svg>
