<svg width="175" height="36" viewBox="0 0 175 36" fill="none" xmlns="http://www.w3.org/2000/svg">
<path d="M174.52 27.655V25.422C174.52 24.9067 174.348 24.3914 174.176 24.2196C174.004 24.0478 173.661 23.8761 173.317 23.8761C172.974 23.8761 172.802 23.8761 172.63 24.0478C172.458 24.2196 172.287 24.3914 172.115 24.5632C171.943 24.0478 171.6 23.8761 171.084 23.8761C170.569 23.8761 170.225 24.0478 170.054 24.5632V24.0478H169.367C169.367 24.3914 169.367 24.7349 169.367 25.0785V27.8268H170.054V25.5938C170.054 25.422 170.054 25.0785 170.225 24.9067C170.397 24.7349 170.569 24.5632 170.741 24.5632C170.913 24.5632 171.084 24.5632 171.256 24.7349C171.428 24.9067 171.428 25.0785 171.428 25.422V27.655H172.287V25.422C172.287 25.2502 172.287 25.0785 172.458 24.9067C172.63 24.7349 172.802 24.7349 172.974 24.7349C173.489 24.7349 173.661 25.0785 173.661 25.7656V27.8268H174.52V27.655ZM170.054 32.4646C169.71 32.1211 169.367 31.7775 168.851 31.7775C168.336 31.7775 167.821 31.9493 167.649 32.4646C167.305 32.8081 167.134 33.3234 167.134 33.8388C167.134 34.3541 167.305 34.8694 167.649 35.2129C167.992 35.5565 168.508 35.7282 169.023 35.7282C169.538 35.7282 169.882 35.7282 170.225 35.5565L170.054 35.0411C169.71 35.2129 169.367 35.2129 169.023 35.2129C168.68 35.2129 168.336 35.2129 168.164 34.8694C167.992 34.6976 167.821 34.3541 167.821 34.0105H170.225C170.225 33.8388 170.225 33.8388 170.225 33.667C170.225 33.3234 170.225 32.8081 170.054 32.4646ZM169.538 33.4952H167.821C167.821 33.3234 167.992 32.9799 167.992 32.8081C168.164 32.6364 168.336 32.4646 168.68 32.4646C169.023 32.4646 169.195 32.6364 169.367 32.8081C169.538 32.9799 169.538 33.3234 169.538 33.4952ZM167.649 27.655H168.336C168.336 27.3115 168.336 26.9679 168.336 26.6244V23.8761H167.477V26.1091C167.477 26.2809 167.477 26.2809 167.477 26.4526C167.305 26.7962 167.134 26.9679 166.79 26.9679C166.275 26.9679 166.103 26.6244 166.103 25.9373V23.8761H165.244V26.1091C165.244 26.6244 165.416 27.1397 165.588 27.3115C165.759 27.4833 166.103 27.655 166.446 27.655C166.962 27.655 167.305 27.4833 167.649 26.9679V27.655ZM165.588 9.44737C165.588 7.21435 167.477 6.18373 167.477 6.18373C166.446 4.6378 164.901 4.46603 164.213 4.46603C163.011 4.12249 161.637 5.15311 161.122 5.15311C160.435 5.15311 159.404 4.29426 158.202 4.46603C156.656 4.46603 155.281 5.32488 154.594 6.69904C153.048 9.2756 154.251 13.3981 155.625 15.6311C156.312 16.6617 157.171 17.8641 158.373 17.8641C159.404 17.8641 159.919 17.177 161.122 17.177C162.496 17.177 162.839 17.8641 164.042 17.8641C165.244 17.8641 165.931 16.8335 166.79 15.6311C167.649 14.4287 167.992 13.2263 167.992 13.0545C167.992 12.8828 165.588 12.1957 165.588 9.44737ZM163.526 2.9201C164.213 2.23301 164.557 1.03062 164.385 0C163.526 0 162.496 0.515311 161.809 1.37416C161.293 2.06124 160.778 3.09187 160.95 4.12249C161.809 4.12249 162.839 3.60718 163.526 2.9201ZM153.907 24.3914C153.564 24.7349 153.392 25.2502 153.392 25.7656C153.392 26.2809 153.564 26.7962 153.907 27.1397C154.251 27.4833 154.766 27.655 155.281 27.655C155.797 27.655 156.14 27.655 156.484 27.4833L156.312 26.9679C155.969 27.1397 155.625 27.1397 155.281 27.1397C154.938 27.1397 154.766 26.9679 154.423 26.7962C154.251 26.6244 154.079 26.2809 154.079 25.9373H156.484C156.484 25.7656 156.484 25.7656 156.484 25.5938C156.484 25.0785 156.312 24.7349 156.14 24.3914C155.797 24.0478 155.453 23.8761 154.938 23.8761C154.766 23.8761 154.251 24.0478 153.907 24.3914ZM154.251 25.422C154.251 25.2502 154.423 24.9067 154.423 24.7349C154.594 24.5632 154.766 24.3914 155.11 24.3914C155.453 24.3914 155.625 24.5632 155.797 24.7349C155.968 24.9067 155.969 25.0785 155.969 25.422H154.251ZM154.766 31.9493C154.251 31.9493 153.735 32.1211 153.564 32.6364C153.22 32.9799 153.048 33.4952 153.048 34.0105C153.048 34.5258 153.22 35.0412 153.564 35.3847C153.907 35.7282 154.251 35.9 154.938 35.9C155.453 35.9 155.797 35.9 156.14 35.7282L155.969 35.2129C155.625 35.3847 155.281 35.3847 154.938 35.3847C154.594 35.3847 154.423 35.3847 154.079 35.0411C153.907 34.8694 153.735 34.5258 153.735 34.1823H156.312C156.312 34.0105 156.312 34.0105 156.312 33.8388C156.312 33.3234 156.14 32.9799 155.969 32.6364C155.625 32.1211 155.281 31.9493 154.766 31.9493ZM154.766 32.4646C155.11 32.4646 155.281 32.6364 155.453 32.8081C155.625 32.9799 155.625 33.1517 155.625 33.4952H153.907C153.907 33.3234 154.079 32.9799 154.079 32.8081C154.251 32.6364 154.423 32.4646 154.766 32.4646ZM152.877 24.7349H153.048V23.8761H152.877C152.705 23.8761 152.533 23.8761 152.361 24.0478C152.19 24.2196 152.018 24.3914 152.018 24.5632V23.8761H151.159C151.159 24.2196 151.159 24.5632 151.159 25.0785V27.655H152.018V25.7656C152.018 25.422 152.018 25.2502 152.19 25.0785C152.361 24.7349 152.705 24.7349 152.877 24.7349ZM150.3 25.0785C150.644 24.7349 150.644 24.3914 150.644 23.8761C150.644 23.3608 150.472 23.0172 150.128 22.6737C149.785 22.3301 149.269 22.3301 148.754 22.3301C148.239 22.3301 147.724 22.3301 147.552 22.5019V27.655H148.239V25.7656C148.411 25.7656 148.582 25.7656 148.754 25.7656C149.441 25.7656 149.957 25.5938 150.3 25.0785ZM149.785 24.0478C149.785 24.3914 149.613 24.5632 149.441 24.7349C149.269 24.9067 148.926 25.0785 148.582 25.0785C148.411 25.0785 148.239 25.0785 148.067 25.0785V23.189C148.239 23.189 148.411 23.189 148.582 23.189C148.926 23.189 149.269 23.189 149.441 23.3608C149.785 23.5325 149.785 23.7043 149.785 24.0478ZM150.644 30.5751C150.128 30.5751 149.613 30.5751 149.269 30.7469V35.9H150.128V33.667H150.644C150.987 33.667 151.159 33.667 151.331 33.8388C151.502 34.0105 151.502 34.1823 151.674 34.5258C151.846 35.2129 151.846 35.5565 152.018 35.7282H152.877C152.877 35.5565 152.705 35.3847 152.705 35.2129C152.705 35.0411 152.533 34.6976 152.533 34.3541C152.361 33.8388 152.19 33.4952 151.846 33.3234C152.19 33.1517 152.361 33.1517 152.533 32.8081C152.705 32.6364 152.877 32.2928 152.877 31.9493C152.877 31.434 152.705 31.0904 152.361 30.9187C151.846 30.7469 151.331 30.5751 150.644 30.5751ZM150.128 31.2622C150.3 31.2622 150.472 31.2622 150.644 31.2622C151.331 31.2622 151.674 31.6057 151.674 32.1211C151.674 32.4646 151.502 32.6364 151.331 32.8081C151.159 32.9799 150.815 33.1517 150.644 33.1517H150.128V31.2622ZM156.999 35.0411L156.827 35.7282C157.171 35.9 157.514 35.9 157.858 35.9C158.373 35.9 158.717 35.7282 158.889 35.5565C159.06 35.3847 159.232 35.0412 159.232 34.6976C159.232 34.1823 158.889 33.8388 158.202 33.4952C158.03 33.3234 157.858 33.3234 157.686 33.3234C157.514 33.3234 157.514 33.1517 157.514 32.9799C157.514 32.8081 157.514 32.8081 157.686 32.6364C157.858 32.6364 157.858 32.4646 158.03 32.4646C158.373 32.4646 158.545 32.4646 158.717 32.6364L158.889 32.1211C158.717 31.9493 158.373 31.9493 158.03 31.9493C157.686 31.9493 157.343 32.1211 156.999 32.2928C156.827 32.4646 156.656 32.8081 156.656 33.1517C156.656 33.667 156.999 34.0105 157.686 34.1823C157.858 34.3541 158.03 34.3541 158.202 34.3541C158.373 34.5258 158.373 34.5258 158.373 34.6976C158.373 35.0412 158.202 35.2129 157.686 35.2129C157.514 35.2129 157.171 35.2129 156.999 35.0411ZM158.889 24.5632C159.06 24.5632 159.232 24.5632 159.404 24.7349C159.576 24.9067 159.576 25.0785 159.576 25.422V27.655H160.435V25.422C160.435 25.2502 160.435 25.0785 160.606 24.9067C160.778 24.7349 160.95 24.7349 161.122 24.7349C161.465 24.7349 161.809 25.0785 161.809 25.7656V27.8268H162.668V25.5938C162.668 25.0785 162.496 24.5632 162.324 24.3914C162.152 24.2196 161.809 24.0478 161.465 24.0478C161.293 24.0478 160.95 24.0478 160.778 24.2196C160.606 24.3914 160.435 24.5632 160.263 24.7349C160.091 24.2196 159.747 24.0478 159.232 24.0478C158.717 24.0478 158.373 24.2196 158.202 24.7349V24.2196H157.514C157.514 24.5632 157.514 24.9067 157.514 25.2502V27.9986H158.373V25.7656C158.373 25.5938 158.373 25.2502 158.545 25.0785C158.545 24.5632 158.717 24.5632 158.889 24.5632ZM160.263 32.4646C159.919 32.8081 159.747 33.3234 159.747 33.8388C159.747 34.3541 159.919 34.8694 160.263 35.2129C160.606 35.5565 160.95 35.7282 161.465 35.7282C161.98 35.7282 162.324 35.7282 162.668 35.5565L162.496 35.0411C162.152 35.2129 161.809 35.2129 161.465 35.2129C161.122 35.2129 160.95 35.2129 160.778 34.8694C160.606 34.6976 160.435 34.3541 160.435 34.0105H162.839C162.839 33.8388 162.839 33.8388 162.839 33.667C162.839 33.1517 162.668 32.8081 162.496 32.4646C162.152 32.1211 161.809 31.7775 161.293 31.7775C160.95 31.9493 160.606 32.1211 160.263 32.4646ZM160.606 33.4952C160.606 33.3234 160.778 32.9799 160.778 32.8081C160.95 32.6364 161.122 32.4646 161.293 32.4646C161.637 32.4646 161.809 32.6364 161.98 32.8081C162.152 32.9799 162.152 33.1517 162.152 33.4952H160.606ZM163.526 22.5019C163.355 22.6737 163.355 22.6737 163.355 22.8455C163.355 23.0172 163.355 23.0172 163.526 23.189C163.698 23.3608 163.698 23.3608 163.87 23.3608C164.042 23.3608 164.213 23.3608 164.213 23.189C164.385 23.0172 164.385 23.0172 164.385 22.8455C164.385 22.6737 164.385 22.6737 164.213 22.5019C164.213 22.3301 164.042 22.3301 163.87 22.3301C163.698 22.3301 163.698 22.3301 163.526 22.5019ZM164.385 23.8761H163.526V27.655H164.385V23.8761ZM164.557 30.2316H163.698V35.7282H164.557V30.2316ZM166.275 30.2316H165.416V35.7282H166.275V30.2316ZM171.771 31.9493H171.084C171.084 32.2928 171.084 32.6364 171.084 33.1517V35.7282H171.943V33.8388C171.943 33.4952 171.943 33.3234 172.115 33.1517C172.287 32.9799 172.458 32.8081 172.802 32.8081C172.974 32.8081 172.974 32.8081 172.974 32.8081V31.9493H172.802C172.63 31.9493 172.458 31.9493 172.287 32.1211C172.115 32.2928 171.943 32.4646 171.943 32.6364L171.771 31.9493Z" fill="black"/>
<path d="M140.336 0H139.648V35.9H140.336V0Z" fill="black"/>
<path d="M132.263 15.2877V9.96278C131.748 9.79101 131.576 9.79101 130.889 9.79101C128.484 9.79101 125.908 11.3369 124.877 14.6006H124.705V10.3063H119.896C120.067 12.3676 120.067 14.4288 120.067 17.5207V32.8082H125.564V21.1279C125.564 20.4408 125.736 19.9255 125.736 19.4102C126.251 16.8336 127.969 15.1159 130.717 15.1159C131.404 15.1159 131.92 15.2877 132.263 15.2877ZM116.632 23.1891C116.804 22.6738 116.804 21.8149 116.804 20.7843C116.804 15.803 114.399 9.79101 107.356 9.79101C100.314 9.79101 96.5349 15.6312 96.5349 21.8149C96.5349 28.6858 100.829 33.1518 107.872 33.1518C110.964 33.1518 113.712 32.6365 115.601 31.7776L114.743 27.8269C113.025 28.514 111.135 28.8575 108.559 28.8575C104.952 28.8575 101.86 27.1398 101.688 23.0173H116.632V23.1891ZM111.651 19.2384H102.032C102.203 17.0054 103.749 13.7417 107.185 13.7417C110.792 13.7417 111.651 17.1771 111.651 19.2384ZM90.0076 14.6006H95.3325V10.3063H90.0076V3.95082L84.511 5.32499V10.4781H81.4191V14.7724H84.511V25.4221C84.511 28.3422 85.0263 30.4035 86.2287 31.7776C87.2593 32.98 88.977 33.6671 91.0382 33.6671C92.756 33.6671 94.3019 33.4953 94.989 33.1518L94.8172 28.8575C94.3019 29.0293 93.6148 29.2011 92.5842 29.2011C90.5229 29.2011 89.6641 27.8269 89.6641 25.0786V14.6006H90.0076ZM73.6894 32.8082H79.1861V19.4102C79.1861 12.3676 75.2354 9.79101 71.2847 9.79101C67.6775 9.79101 65.2727 11.8523 64.2421 13.7417H64.0703L63.7268 10.3063H58.9172C59.089 12.1958 59.089 14.4288 59.089 17.0054V32.8082H64.7574V19.5819C64.7574 18.8948 64.7574 18.2078 64.9292 17.6924C65.4445 15.9747 66.9904 14.4288 69.2234 14.4288C72.3153 14.4288 73.5177 16.8336 73.5177 20.0972V32.8082H73.6894ZM55.9971 23.1891C56.1689 22.6738 56.1689 21.8149 56.1689 20.7843C56.1689 15.803 53.7641 9.79101 46.7215 9.79101C39.6789 9.79101 35.9 15.6312 35.9 21.8149C35.9 28.6858 40.1942 33.1518 47.2368 33.1518C50.3287 33.1518 53.077 32.6365 54.9665 31.7776L54.1076 27.8269C52.3899 28.514 50.5004 28.8575 47.9239 28.8575C44.3167 28.8575 41.2248 27.1398 41.0531 23.0173H55.9971V23.1891ZM51.0158 19.2384H41.2248C41.3966 16.8336 42.9426 13.7417 46.378 13.7417C50.1569 13.7417 51.0158 17.1771 51.0158 19.2384ZM32.6363 8.24508L33.8387 3.95082C32.8081 3.43551 30.2315 2.57666 26.7961 2.57666C17.8641 2.57666 11.165 8.58862 11.165 18.3795C11.165 27.4834 16.8335 33.3235 26.1091 33.3235C29.5445 33.3235 32.4646 32.6365 33.667 31.9494L32.6363 27.6551C31.2622 28.3422 29.0292 28.6858 26.7961 28.6858C20.4406 28.6858 16.6617 24.5633 16.6617 17.8642C16.6617 10.6499 20.9559 6.87092 26.9679 6.87092C29.3727 7.04269 31.2622 7.558 32.6363 8.24508Z" fill="black"/>
<path d="M0 33.3235H6.01196V10.9933L0 12.8828V33.3235ZM6.01196 5.84022C6.01196 4.12251 4.80957 2.74835 3.09187 2.74835C1.20239 2.92012 0 4.12251 0 5.84022C0 7.55792 1.20239 8.76031 2.9201 8.76031C4.80957 8.93208 6.01196 7.55792 6.01196 5.84022Z" fill="#D1223E"/>
</svg>
