<svg width="108" height="40" viewBox="0 0 108 40" fill="none" xmlns="http://www.w3.org/2000/svg">
<path d="M31.7206 34.0767C32.695 34.0767 33.3446 34.6913 33.3446 35.4506C33.3446 36.0292 33.0559 36.3907 32.2258 37.2224L31.1792 38.2709H33.4168V38.9941H30.0244V38.4156L31.7206 36.7162C32.3341 36.1015 32.4785 35.8484 32.4785 35.4868C32.4785 35.0529 32.1537 34.7275 31.6845 34.7275C31.1792 34.7275 30.7823 35.0891 30.7823 35.5591H29.9883C29.9883 34.7275 30.7101 34.0767 31.7206 34.0767Z" fill="#8A859E"/>
<path d="M36.9897 36.5715C36.9897 35.4506 36.6288 34.7637 35.9792 34.7637C35.3295 34.7637 34.9326 35.4506 34.9326 36.5715C34.9326 37.7286 35.2935 38.3794 35.9792 38.3794C36.6288 38.4156 36.9897 37.7286 36.9897 36.5715ZM34.0664 36.5715C34.0664 35.0168 34.7882 34.0767 35.9792 34.0767C37.1701 34.0767 37.8558 35.0529 37.8558 36.5715C37.8558 38.1263 37.134 39.1026 35.9792 39.1026C34.7882 39.1026 34.0664 38.1263 34.0664 36.5715Z" fill="#8A859E"/>
<path d="M39.6958 34.9805H39.6597L38.4326 35.8483V35.0528L39.6958 34.1851H40.5258V38.994H39.6958V34.9805Z" fill="#8A859E"/>
<path d="M44.4245 35.7399C44.4245 35.1975 43.9914 34.7637 43.45 34.7637C42.9087 34.7637 42.4756 35.1975 42.4756 35.7038C42.4756 36.2461 42.8726 36.6438 43.45 36.6438C43.9914 36.68 44.4245 36.2823 44.4245 35.7399ZM41.6816 37.837H42.5478C42.6561 38.2348 42.9809 38.4156 43.45 38.4156C44.2079 38.4156 44.5688 37.6924 44.5688 36.5715C44.3884 37.0416 43.8831 37.367 43.2696 37.367C42.3673 37.367 41.6816 36.7162 41.6816 35.7761C41.6816 34.7998 42.4395 34.0767 43.4861 34.0767C44.4605 34.0767 45.435 34.7637 45.435 36.5354C45.435 38.1625 44.7132 39.1026 43.4861 39.1026C42.5117 39.1026 41.826 38.5964 41.6816 37.837Z" fill="#8A859E"/>
<path d="M15.1553 4.68046C16.0936 3.52342 16.7433 1.93249 16.5628 0.341553C15.1914 0.37771 13.5674 1.24549 12.5929 2.40253C11.7268 3.41495 10.9328 5.04204 11.1494 6.59681C12.6651 6.70529 14.217 5.80135 15.1553 4.68046ZM22.1928 20.2282C22.1567 20.3367 21.6154 22.1807 20.3161 24.0971C19.1974 25.7603 18.0064 27.3874 16.1658 27.4236C14.3613 27.4597 13.7839 26.3389 11.6907 26.3389C9.63359 26.3389 8.98397 27.3874 7.25167 27.4597C5.51936 27.4959 4.14795 25.6519 3.02917 23.9886C0.683338 20.626 -1.08506 14.5153 1.29686 10.3572C2.48782 8.29622 4.58103 6.99455 6.89077 6.95839C8.62308 6.92223 10.2832 8.15159 11.3659 8.15159C12.4486 8.15159 14.4335 6.70529 16.5267 6.92223C17.3929 6.95839 19.8831 7.28381 21.471 9.59789C21.3627 9.67021 18.5117 11.3335 18.5478 14.7684C18.6199 18.8542 22.1567 20.1921 22.1928 20.2282Z" fill="#8A859E"/>
<path d="M31.2515 10.8995H32.6229C33.6695 10.8995 34.247 10.321 34.247 9.38088C34.247 8.44079 33.6695 7.86226 32.6229 7.86226H31.2515V10.8995ZM32.9477 6.84985C34.4274 6.84985 35.474 7.89842 35.474 9.38088C35.474 10.8995 34.4274 11.9119 32.9116 11.9119H31.2515V14.5514H30.0605V6.84985H32.9477Z" fill="#8A859E"/>
<path d="M36.5566 8.91096H37.6393V9.85106H37.6754C37.8559 9.20022 38.3611 8.80249 39.0107 8.80249C39.1912 8.80249 39.3355 8.83865 39.4077 8.83865V9.92338C39.2995 9.88722 39.119 9.85106 38.9025 9.85106C38.1446 9.85106 37.7115 10.3573 37.7115 11.1527V14.5154H36.5566V8.91096Z" fill="#8A859E"/>
<path d="M41.1402 11.225H43.9552C43.9191 10.3572 43.3778 9.77872 42.5838 9.77872C41.7537 9.74256 41.2124 10.3572 41.1402 11.225ZM45.0379 12.8883C44.8936 13.9007 43.9191 14.66 42.6199 14.66C40.9598 14.66 39.9854 13.5391 39.9854 11.7674C39.9854 9.99567 40.9959 8.83862 42.5838 8.83862C44.1357 8.83862 45.1101 9.92335 45.1101 11.6589V12.0566H41.1402V12.129C41.1402 13.1052 41.7177 13.7561 42.656 13.7561C43.3056 13.7561 43.8109 13.4306 43.9552 12.9244H45.0379V12.8883Z" fill="#8A859E"/>
<path d="M46.1201 8.91096H47.2028V9.85106H47.2389C47.4915 9.23638 48.069 8.80249 48.8268 8.80249C49.6208 8.80249 50.1622 9.20022 50.3787 9.88722H50.4148C50.7035 9.20022 51.3531 8.80249 52.1471 8.80249C53.2659 8.80249 53.9877 9.52564 53.9877 10.6465V14.5154H52.8689V10.9358C52.8689 10.2126 52.4719 9.77875 51.7862 9.77875C51.1005 9.77875 50.6313 10.285 50.6313 11.0081V14.5154H49.5125V10.8635C49.5125 10.2126 49.1156 9.8149 48.4659 9.8149C47.7802 9.8149 47.3111 10.3573 47.3111 11.0804V14.5515H46.1562V8.91096H46.1201Z" fill="#8A859E"/>
<path d="M55.286 8.91093H56.4409V14.5154H55.286V8.91093ZM55.1777 7.35616C55.1777 6.99458 55.4665 6.70532 55.8273 6.70532C56.1882 6.70532 56.477 6.99458 56.477 7.35616C56.477 7.71773 56.1882 8.007 55.8273 8.007C55.5025 8.007 55.1777 7.71773 55.1777 7.35616Z" fill="#8A859E"/>
<path d="M62.5401 14.5515H61.4213V13.6114H61.3852C61.0604 14.2984 60.5191 14.66 59.6529 14.66C58.4259 14.66 57.668 13.8645 57.668 12.5628V8.91091H58.8228V12.3097C58.8228 13.1775 59.2198 13.6114 60.0138 13.6114C60.8439 13.6114 61.3491 13.0329 61.3491 12.1651V8.87476H62.504V14.5515H62.5401Z" fill="#8A859E"/>
<path d="M63.877 8.91096H64.9596V9.85106H64.9957C65.2484 9.23638 65.8258 8.80249 66.5837 8.80249C67.3777 8.80249 67.919 9.20022 68.1355 9.88722H68.1716C68.4603 9.20022 69.11 8.80249 69.9039 8.80249C71.0227 8.80249 71.7445 9.52564 71.7445 10.6465V14.5154H70.5896V10.9358C70.5896 10.2126 70.1927 9.77875 69.507 9.77875C68.8212 9.77875 68.3521 10.285 68.3521 11.0081V14.5154H67.2333V10.8635C67.2333 10.2126 66.8363 9.8149 66.1867 9.8149C65.501 9.8149 65.0318 10.3573 65.0318 11.0804V14.5515H63.877V8.91096Z" fill="#8A859E"/>
<path d="M30.854 25.2901C30.9623 26.0494 31.6841 26.5194 32.6946 26.5194C33.669 26.5194 34.3547 26.0132 34.3547 25.3262C34.3547 24.7115 33.9578 24.35 32.9112 24.133L32.0811 23.9522C30.5292 23.6268 29.8435 22.9037 29.8435 21.7828C29.8435 20.4811 30.9984 19.541 32.6224 19.541C34.2465 19.541 35.3653 20.4811 35.4013 21.8189H34.2465C34.1743 21.0596 33.5247 20.5534 32.5864 20.5534C31.6841 20.5534 31.0345 20.9873 31.0345 21.7105C31.0345 22.289 31.4315 22.6506 32.442 22.8675L33.2721 23.0483C34.8961 23.3737 35.5457 24.0246 35.5457 25.1454C35.5457 26.5917 34.3908 27.4957 32.6224 27.4957C30.8901 27.4957 29.7353 26.6279 29.6631 25.2539H30.854V25.2901Z" fill="#8A859E"/>
<path d="M37.567 24.0971H40.382C40.3459 23.2293 39.8045 22.6508 39.0106 22.6508C38.1805 22.6146 37.6392 23.2293 37.567 24.0971ZM41.4647 25.7603C41.3203 26.7728 40.3459 27.5321 39.0467 27.5321C37.3865 27.5321 36.4121 26.4112 36.4121 24.6395C36.4121 22.8677 37.4226 21.7107 39.0106 21.7107C40.5624 21.7107 41.5368 22.7954 41.5368 24.531V24.9287H37.567V25.001C37.567 25.9773 38.1444 26.6281 39.0827 26.6281C39.7324 26.6281 40.2376 26.3027 40.382 25.7965H41.4647V25.7603Z" fill="#8A859E"/>
<path d="M42.583 21.783H43.6657V22.7593H43.7018C43.8822 22.1084 44.3875 21.7107 45.0371 21.7107C45.2176 21.7107 45.3619 21.7469 45.4341 21.7469V22.8316C45.3258 22.7954 45.1454 22.7593 44.9288 22.7593C44.171 22.7593 43.7379 23.2655 43.7379 24.0609V27.4236H42.583V21.783Z" fill="#8A859E"/>
<path d="M49.1885 27.4235H47.9253L45.9043 21.783H47.1314L48.5388 26.3027H48.5749L49.9824 21.783H51.1734L49.1885 27.4235Z" fill="#8A859E"/>
<path d="M52.039 21.783H53.1938V27.3874H52.039V21.783ZM51.9668 20.2282C51.9668 19.8667 52.2555 19.5774 52.6164 19.5774C52.9773 19.5774 53.266 19.8667 53.266 20.2282C53.266 20.5898 52.9773 20.8791 52.6164 20.8791C52.2555 20.8791 51.9668 20.5898 51.9668 20.2282Z" fill="#8A859E"/>
<path d="M58.2111 23.7355C58.1029 23.1209 57.6337 22.6508 56.9119 22.6508C56.0097 22.6508 55.4322 23.4101 55.4322 24.6033C55.4322 25.8327 56.0097 26.5558 56.9119 26.5558C57.6337 26.5558 58.1029 26.1581 58.2111 25.5073H59.3299C59.2216 26.7005 58.2472 27.5321 56.9119 27.5321C55.3239 27.5321 54.2773 26.4474 54.2773 24.6033C54.2773 22.8316 55.3239 21.6746 56.9119 21.6746C58.3555 21.6746 59.2216 22.6147 59.3299 23.6994H58.2111V23.7355Z" fill="#8A859E"/>
<path d="M61.2066 24.0971H64.0216C63.9855 23.2293 63.4442 22.6508 62.6502 22.6508C61.8202 22.6146 61.2788 23.2293 61.2066 24.0971ZM65.1043 25.7603C64.96 26.7728 63.9855 27.5321 62.6863 27.5321C61.0262 27.5321 60.0518 26.4112 60.0518 24.6395C60.0518 22.8677 61.0623 21.7107 62.6502 21.7107C64.2021 21.7107 65.1765 22.7954 65.1765 24.531V24.9287H61.2066V25.001C61.2066 25.9773 61.7841 26.6281 62.7224 26.6281C63.372 26.6281 63.8773 26.3027 64.0216 25.7965H65.1043V25.7603Z" fill="#8A859E"/>
<path d="M69.939 23.7716H71.3104C72.357 23.7716 72.9345 23.1931 72.9345 22.253C72.9345 21.2767 72.357 20.7343 71.3104 20.7343H69.939V23.7716ZM71.6352 19.7219C73.1149 19.7219 74.1615 20.7705 74.1615 22.253C74.1615 23.7716 73.1149 24.784 71.5991 24.784H69.939V27.4235H68.748V19.7219H71.6352Z" fill="#8A859E"/>
<path d="M75.21 21.783H76.2927V22.7593H76.3287C76.5092 22.1084 77.0144 21.7107 77.6641 21.7107C77.8445 21.7107 77.9889 21.7469 78.061 21.7469V22.8316C77.9528 22.7954 77.7723 22.7593 77.5558 22.7593C76.7979 22.7593 76.3648 23.2655 76.3648 24.0609V27.4236H75.21V21.783Z" fill="#8A859E"/>
<path d="M82.6073 24.6033C82.6073 23.374 82.0299 22.6508 81.1277 22.6508C80.2254 22.6508 79.648 23.374 79.648 24.6033C79.648 25.8688 80.2254 26.5558 81.1277 26.5558C82.0299 26.5558 82.6073 25.8688 82.6073 24.6033ZM78.457 24.6033C78.457 22.7954 79.5036 21.6746 81.1277 21.6746C82.7156 21.6746 83.7983 22.7954 83.7983 24.6033C83.7983 26.4112 82.7517 27.5321 81.1277 27.5321C79.5036 27.5321 78.457 26.4112 78.457 24.6033Z" fill="#8A859E"/>
<path d="M87.4795 27.4235H86.2163L84.1953 21.783H85.4224L86.8299 26.3027H86.866L88.2735 21.783H89.4644L87.4795 27.4235Z" fill="#8A859E"/>
<path d="M90.33 21.783H91.4849V27.3874H90.33V21.783ZM90.2578 20.2282C90.2578 19.8667 90.5465 19.5774 90.9074 19.5774C91.2683 19.5774 91.557 19.8667 91.557 20.2282C91.557 20.5898 91.2683 20.8791 90.9074 20.8791C90.5465 20.8791 90.2578 20.5898 90.2578 20.2282Z" fill="#8A859E"/>
<path d="M93.7593 24.6035C93.7593 25.7967 94.3368 26.5198 95.239 26.5198C96.1412 26.5198 96.7187 25.7605 96.7187 24.6035C96.7187 23.4464 96.1412 22.6871 95.239 22.6871C94.3368 22.6871 93.7593 23.4103 93.7593 24.6035ZM92.5684 24.6035C92.5684 22.8317 93.5067 21.7109 94.9142 21.7109C95.7082 21.7109 96.3578 22.1086 96.6826 22.7233H96.7187V19.686H97.8736V27.3876H96.7548V26.4475H96.7187C96.3939 27.0983 95.7443 27.4961 94.9142 27.4961C93.5067 27.4961 92.5684 26.3752 92.5684 24.6035Z" fill="#8A859E"/>
<path d="M100.11 24.0971H102.925C102.889 23.2293 102.348 22.6508 101.554 22.6508C100.76 22.6146 100.182 23.2293 100.11 24.0971ZM104.008 25.7603C103.863 26.7728 102.889 27.5321 101.59 27.5321C99.9295 27.5321 98.9551 26.4112 98.9551 24.6395C98.9551 22.8677 99.9656 21.7107 101.554 21.7107C103.105 21.7107 104.08 22.7954 104.08 24.531V24.9287H100.11V25.001C100.11 25.9773 100.687 26.6281 101.626 26.6281C102.275 26.6281 102.781 26.3027 102.925 25.7965H104.008V25.7603Z" fill="#8A859E"/>
<path d="M105.055 21.783H106.137V22.7593H106.173C106.354 22.1084 106.859 21.7107 107.509 21.7107C107.689 21.7107 107.834 21.7469 107.906 21.7469V22.8316C107.798 22.7954 107.617 22.7593 107.401 22.7593C106.643 22.7593 106.21 23.2655 106.21 24.0609V27.4236H105.055V21.783Z" fill="#8A859E"/>
</svg>
