<svg width="205" height="53" viewBox="0 0 205 53" fill="none" xmlns="http://www.w3.org/2000/svg">
<path d="M9.14735 0H0V15.2728L9.14735 7.59556V0Z" fill="#3B1FD3"/>
<path d="M9.06567 11.3525L0 19.2748V51.8622H9.06567V11.3525Z" fill="#FF2424"/>
<path d="M117.2 10.6177V15.9264C113.851 12.0061 109.196 9.39258 104.051 9.39258C93.9231 9.39258 85.7559 18.7849 85.7559 30.4641C85.7559 42.1433 93.9231 51.699 104.051 51.699C109.196 51.699 113.933 49.2489 117.2 45.1652V50.8006H126.592V10.6177H117.2ZM106.501 42.47C100.457 42.47 95.5566 37.1613 95.5566 30.4641C95.5566 23.767 100.375 18.4583 106.501 18.4583C112.545 18.4583 117.363 23.767 117.363 30.4641C117.363 37.1613 112.545 42.47 106.501 42.47Z" fill="#171617"/>
<path d="M177.8 9.39258H176.085C171.348 9.39258 167.183 11.7611 164.733 15.273C162.609 11.6794 158.607 9.39258 154.197 9.39258H152.073C147.908 9.39258 144.233 11.5161 141.946 14.538V10.6177H132.309V50.2289H140.558H141.783V25.4821C142.109 21.8885 145.131 19.03 148.97 19.03C152.972 19.03 156.157 22.2152 156.157 26.0538V50.2289H166.693V26.0538C166.693 22.1335 169.878 19.03 173.88 19.03C177.882 19.03 181.067 22.2152 181.067 26.0538V50.2289H191.113V22.9503C191.44 15.4364 185.314 9.39258 177.8 9.39258Z" fill="#171617"/>
<path d="M33.4858 41.8981L32.0974 42.3881C30.5456 42.7148 28.7488 42.7148 27.5237 41.8164C26.2986 40.918 25.7269 39.2029 25.7269 37.5695V19.2748H36.6711V11.3525H25.4819V0H16.3345V11.3525H9.06567L0 19.2748H16.4979V41.5714C16.4979 47.3702 21.1532 52.0255 26.952 52.0255H28.1771C29.9739 52.0255 35.7727 50.9638 36.5077 49.7387L33.4858 41.8981Z" fill="#171617"/>
<path d="M60.6008 9.06592C49.2483 9.06592 40.1826 18.6216 40.1826 30.4642C40.1826 42.3067 49.4116 51.8624 60.6008 51.8624C69.4215 51.8624 76.8537 45.3286 79.5489 38.4681H77.017H70.4015C67.788 42.5517 63.9494 43.6135 60.7641 43.6135C55.4554 43.6135 50.8817 39.3665 49.7383 33.5677H68.3597H71.8716H80.774C80.9373 32.506 81.1007 31.4442 81.1007 30.3825C81.019 18.6216 71.79 9.06592 60.6008 9.06592ZM50.1467 26.2172C51.6985 21.0718 55.8638 17.3965 60.9275 17.3965C65.9095 17.3965 69.9932 21.0718 71.7083 26.2172H50.1467Z" fill="#171617"/>
<path d="M204.999 40.428L194.382 50.2287H204.999V40.428Z" fill="#3B1FD3"/>
</svg>
