<svg width="198" height="51" viewBox="0 0 198 51" fill="none" xmlns="http://www.w3.org/2000/svg">
<path d="M8.83501 0H0V14.7513L8.83501 7.33621V0Z" fill="#3B1FD3"/>
<path d="M8.75613 10.9647L0 18.6165V50.0912H8.75613V10.9647Z" fill="#FF2424"/>
<path d="M113.198 10.2551V15.3826C109.964 11.5961 105.468 9.07184 100.498 9.07184C90.7165 9.07184 82.8281 18.1435 82.8281 29.4239C82.8281 40.7043 90.7165 49.9338 100.498 49.9338C105.468 49.9338 110.043 47.5672 113.198 43.623V49.066H122.27V10.2551H113.198ZM102.865 41.0199C97.0272 41.0199 92.2942 35.8924 92.2942 29.4239C92.2942 22.9554 96.9484 17.828 102.865 17.828C108.702 17.828 113.356 22.9554 113.356 29.4239C113.356 35.8924 108.702 41.0199 102.865 41.0199Z" fill="#171617"/>
<path d="M171.729 9.07184H170.073C165.498 9.07184 161.474 11.3595 159.108 14.7515C157.057 11.2806 153.192 9.07184 148.932 9.07184H146.881C142.858 9.07184 139.308 11.1228 137.099 14.0415V10.2551H127.791V48.5138H135.758H136.942V24.612C137.257 21.1411 140.176 18.3802 143.883 18.3802C147.749 18.3802 150.825 21.4566 150.825 25.1642V48.5138H161.001V25.1642C161.001 21.3777 164.078 18.3802 167.943 18.3802C171.808 18.3802 174.885 21.4566 174.885 25.1642V48.5138H184.588V22.1666C184.903 14.9093 178.987 9.07184 171.729 9.07184Z" fill="#171617"/>
<path d="M32.3425 40.4675L31.0014 40.9408C29.5026 41.2563 27.7672 41.2563 26.5839 40.3886C25.4007 39.5209 24.8485 37.8643 24.8485 36.2866V18.6166H35.4189V10.9649H24.6118V0H15.7768V10.9649H8.75613L0 18.6166H15.9346V40.152C15.9346 45.7527 20.431 50.2491 26.0317 50.2491H27.215C28.9504 50.2491 34.5512 49.2236 35.2612 48.0404L32.3425 40.4675Z" fill="#171617"/>
<path d="M58.5315 8.75629C47.5667 8.75629 38.8105 17.9857 38.8105 29.4239C38.8105 40.8621 47.7244 50.0915 58.5315 50.0915C67.051 50.0915 74.2295 43.7808 76.8326 37.1545H74.3872H67.9976C65.4733 41.0987 61.7658 42.1242 58.6893 42.1242C53.5619 42.1242 49.1444 38.0223 48.04 32.4215H66.0255H69.4175H78.0159C78.1737 31.396 78.3314 30.3705 78.3314 29.345C78.2526 17.9857 69.3387 8.75629 58.5315 8.75629ZM48.4344 25.3219C49.9332 20.3522 53.9563 16.8025 58.8471 16.8025C63.659 16.8025 67.6032 20.3522 69.2598 25.3219H48.4344Z" fill="#171617"/>
<path d="M198 39.0475L187.745 48.5136H198V39.0475Z" fill="#3B1FD3"/>
</svg>
