<svg width="255" height="110" viewBox="0 0 255 110" fill="none" xmlns="http://www.w3.org/2000/svg">
<mask id="mask0" mask-type="alpha" maskUnits="userSpaceOnUse" x="0" y="0" width="255" height="110">
<path d="M0 5C0 2.23858 2.23858 0 5 0H250C252.761 0 255 2.23858 255 5V110H0V5Z" fill="#EAF0F9"/>
</mask>
<g mask="url(#mask0)">
<mask id="mask1" mask-type="alpha" maskUnits="userSpaceOnUse" x="41" y="1" width="230" height="168">
<path d="M270.975 1.80455L254.871 168.895L46.4128 148.805L41.2419 124.831C48.8174 120.169 55.9211 107.493 70.2412 101.331C90.1591 90.1034 106.942 93.1568 123.741 84.3305C140.373 75.488 157.059 60.5741 174.394 55.0004C187.533 50.707 201.286 52.3694 214.776 51.4793C228.282 50.4223 244.792 42.3525 253.34 29.3615C258.499 21.6035 259 15.1392 264.496 7.41365C266.402 5.23874 268.46 3.24696 270.975 1.80455Z" fill="#FF2424"/>
</mask>
<g mask="url(#mask1)">
<g opacity="0.019608">
<path opacity="0.019608" d="M133.786 163.416H98.8804L81.4277 133.292L98.8804 103.168H133.786L151.239 133.292L133.786 163.416ZM99.3586 162.818H133.427L150.521 133.292L133.427 103.766H99.3586L82.2645 133.292L99.3586 162.818Z" fill="#A20505"/>
</g>
<g opacity="0.039216">
<path opacity="0.039216" d="M138.089 170.828H94.6965L94.577 170.589L72.9404 133.173L94.6965 95.5184H138.089L138.209 95.7575L159.845 133.173L138.089 170.828ZM95.0551 170.111H137.611L158.889 133.293L137.611 96.4747H95.0551L73.7772 133.293L95.0551 170.111Z" fill="#A20505"/>
</g>
<g opacity="0.058824">
<path opacity="0.058824" d="M142.393 178.239H90.3935L90.2739 178L64.334 133.173L90.2739 88.1066H142.273L142.393 88.3457L168.333 133.173L142.393 178.239ZM90.7521 177.522H141.915L167.496 133.292L141.915 89.0629H90.8716L65.2903 133.292L90.7521 177.522Z" fill="#A20505"/>
</g>
<g opacity="0.078431">
<path opacity="0.078431" d="M146.576 185.77H85.97L85.8504 185.531L55.7266 133.293L55.8461 133.054L85.97 80.8152H146.576L146.696 81.0543L176.82 133.293L176.7 133.532L146.576 185.77ZM86.5676 184.814H146.098L175.863 133.173L146.098 81.5324H86.5676L56.8024 133.173L86.5676 184.814Z" fill="#A20505"/>
</g>
<g opacity="0.098039">
<path opacity="0.098039" d="M150.88 193.181H81.7861L81.6665 192.942L47.2393 133.292L81.7861 73.4031H150.88L150.999 73.6421L185.426 133.292L150.88 193.181ZM82.2642 192.225H150.282L184.351 133.292L150.282 74.3594H82.2642L48.1956 133.292L82.2642 192.225Z" fill="#A20505"/>
</g>
<g opacity="0.1176">
<path opacity="0.1176" d="M155.183 200.593H77.483L38.6328 133.292L77.483 65.9918H155.183L194.034 133.292L155.183 200.593ZM78.0807 199.636H154.705L192.958 133.292L154.705 66.9482H78.0807L39.8282 133.292L78.0807 199.636Z" fill="#A20505"/>
</g>
<g opacity="0.1373">
<path opacity="0.1373" d="M159.487 208.004H73.18L73.0604 207.765L30.0264 133.292L30.1459 133.053L73.18 58.5803H159.487L159.607 58.8194L202.641 133.292L202.521 133.531L159.487 208.004ZM73.7776 206.928H158.889L201.445 133.292L158.889 59.5366H73.7776L31.2218 133.173L73.7776 206.928Z" fill="#A20505"/>
</g>
<g opacity="0.1569">
<path opacity="0.1569" d="M163.79 215.415H68.9951L21.5381 133.292L68.9951 51.1687H163.79L211.247 133.292L163.79 215.415ZM69.5928 214.339H163.192L209.932 133.292L163.192 52.2445H69.5928L22.853 133.292L69.5928 214.339Z" fill="#A20505"/>
</g>
<g opacity="0.1765">
<path opacity="0.1765" d="M168.094 222.828H64.6926L64.573 222.589L13.0518 133.293L64.8121 43.7582H168.213L168.333 43.9973L219.854 133.293L168.094 222.828ZM65.2903 221.632H167.377L218.42 133.293L167.377 44.9536H65.2903L14.2471 133.293L65.2903 221.632Z" fill="#A20505"/>
</g>
<g opacity="0.1961">
<path opacity="0.1961" d="M172.277 230.239H60.2695L4.3252 133.293L60.2695 36.3464H172.277L228.222 133.293L172.277 230.239ZM61.1062 229.043H171.68L226.907 133.293L171.68 37.5418H61.1062L5.87922 133.293L61.1062 229.043Z" fill="#A20505"/>
</g>
<g opacity="0.2157">
<path opacity="0.2157" d="M176.581 237.65H56.0859L55.8469 237.291L-4.28125 133.172L55.9664 28.8149H176.581L176.82 29.1736L236.948 133.292L176.581 237.65ZM56.8032 236.335H175.864L235.394 133.172L175.864 30.0103H56.8032L-2.72726 133.292L56.8032 236.335Z" fill="#A20505"/>
</g>
<g opacity="0.2353">
<path opacity="0.2353" d="M180.885 245.061H51.7825L51.5434 244.703L-12.7686 133.173L-12.5295 132.814L51.7825 21.2842H180.885L181.124 21.6428L245.436 133.173L245.197 133.531L180.885 245.061ZM52.6193 243.746H180.167L244.001 133.292L180.167 22.8382H52.6193L-11.2146 133.292L52.6193 243.746Z" fill="#A20505"/>
</g>
<g opacity="0.2549">
<path opacity="0.2549" d="M185.187 252.473H47.4785L47.2394 252.114L-21.376 133.173L47.4785 13.8728H185.187L185.427 14.2314L254.042 133.173L185.187 252.473ZM48.3153 251.158H184.351L252.368 133.292L184.351 15.4268H48.3153L-19.7024 133.292L48.3153 251.158Z" fill="#A20505"/>
</g>
<g opacity="0.2745">
<path opacity="0.2745" d="M189.491 259.884H43.1754L42.9364 259.526L-29.9824 133.173L-29.7434 132.814L43.1754 6.46161H189.491L262.649 133.173L262.41 133.532L189.491 259.884ZM44.0122 258.45H188.535L260.856 133.293L188.535 8.13515H44.0122L-28.3089 133.293L44.0122 258.45Z" fill="#A20505"/>
</g>
<g opacity="0.2941">
<path opacity="0.2941" d="M193.794 267.295H38.8714L-38.5898 133.173L-38.3508 132.814L38.8714 -0.950195H193.674L193.914 -0.591575L271.136 133.173L270.897 133.531L193.794 267.295ZM39.8277 265.861H192.838L269.343 133.292L192.838 0.723362H39.8277L-36.6772 133.292L39.8277 265.861Z" fill="#A20505"/>
</g>
<g opacity="0.3137">
<path opacity="0.3137" d="M198.098 274.827H34.6881L-46.957 133.293L34.6881 -8.24158H198.098L198.337 -7.88296L279.863 133.173L198.098 274.827ZM35.5249 273.153H197.142L277.95 133.173L197.142 -6.80711H35.5249L-45.2835 133.173L35.5249 273.153Z" fill="#A20505"/>
</g>
<g opacity="0.3333">
<path opacity="0.3333" d="M202.281 282.239H30.3841L30.145 281.88L-55.5645 133.413L-55.3254 133.054L30.3841 -15.4135H202.401L288.349 133.532L288.11 133.891L202.281 282.239ZM31.3404 280.565H201.444L286.437 133.293L201.444 -13.979H31.3404L-53.6518 133.293L31.3404 280.565Z" fill="#A20505"/>
</g>
<g opacity="0.3529">
<path opacity="0.3529" d="M206.585 289.649H26.0811L-64.1709 133.292L-63.9318 132.814L26.0811 -23.0647H206.585L296.837 133.292L296.598 133.77L206.585 289.649ZM27.0374 287.856H205.629L294.924 133.292L205.629 -21.3911H27.0374L-62.2583 133.292L27.0374 287.856Z" fill="#A20505"/>
</g>
<g opacity="0.3725">
<path opacity="0.3725" d="M210.889 297.061H21.778L21.5389 296.583L-72.7773 133.293L21.778 -30.4756H210.889L305.444 133.293L210.889 297.061ZM22.8539 295.268H209.932L303.412 133.293L209.932 -28.6826H22.8539L-70.6256 133.293L22.8539 295.268Z" fill="#A20505"/>
</g>
<g opacity="0.3922">
<path opacity="0.3922" d="M215.192 304.472H17.475L17.2359 303.994L-81.3838 133.292L-81.1447 132.814L17.475 -37.8878H215.192L215.432 -37.4096L314.051 133.292L313.812 133.77L215.192 304.472ZM18.5508 302.679H214.117L311.9 133.292L214.117 -36.0947H18.5508L-79.2321 133.292L18.5508 302.679Z" fill="#A20505"/>
</g>
<g opacity="0.4118">
<path opacity="0.4118" d="M219.495 311.884H13.1705L12.9315 311.405L-89.8721 133.292L13.2901 -45.2991H219.495L322.657 133.292L219.495 311.884ZM14.3659 309.971H218.419L320.505 133.292L218.419 -43.506H14.3659L-87.7204 133.173L14.3659 309.971Z" fill="#A20505"/>
</g>
<g opacity="0.4314">
<path opacity="0.4314" d="M223.799 319.295H8.98762L8.74857 318.817L-98.3584 133.293L-98.1193 132.814L8.98762 -52.8297H223.799L224.038 -52.3515L331.145 133.173L330.906 133.651L223.799 319.295ZM10.0635 317.383H222.604L328.874 133.293L222.604 -50.7975H10.0635L-96.2067 133.293L10.0635 317.383Z" fill="#A20505"/>
</g>
<g opacity="0.451">
<path opacity="0.451" d="M227.983 326.706H4.68364L4.44454 326.228L-106.966 133.292L4.68364 -60.1218H227.983L228.222 -59.6437L339.632 133.292L227.983 326.706ZM5.75948 324.674H226.787L337.361 133.173L226.787 -58.3287H5.75948L-104.814 133.173L5.75948 324.674Z" fill="#A20505"/>
</g>
<g opacity="0.4706">
<path opacity="0.4706" d="M232.286 334.118H0.380005L0.0213623 333.64L-115.692 133.292L-115.453 132.814L0.26046 -67.5331H232.166L348.119 133.292L347.88 133.771L232.286 334.118ZM1.57539 332.086H231.09L345.848 133.292L231.09 -65.5009H1.57539L-113.182 133.292L1.57539 332.086Z" fill="#A20505"/>
</g>
<g opacity="0.4902">
<path opacity="0.4902" d="M236.589 341.529H-3.92346L-4.28206 341.051L-124.18 133.292L-3.92346 -75.0645H236.589L236.948 -74.5863L356.845 133.173L236.589 341.529ZM-2.72807 339.497H235.394L354.454 133.292L235.394 -72.9127H-2.72807L-121.789 133.292L-2.72807 339.497Z" fill="#A20505"/>
</g>
<g opacity="0.5098">
<path opacity="0.5098" d="M240.893 348.94H-8.22649L-8.58509 348.343L-132.786 133.173L-132.428 132.575L-8.22649 -82.5954H240.893L241.251 -81.9977L365.452 133.173L365.094 133.77L240.893 348.94ZM-6.91155 346.789H239.697L362.942 133.292L239.578 -80.3242H-6.91155L-130.276 133.292L-6.91155 346.789Z" fill="#A20505"/>
</g>
<g opacity="0.5294">
<path opacity="0.5294" d="M245.196 356.472H-12.53L-141.273 133.292L-12.53 -89.887H245.196L245.555 -89.2893L374.059 133.292L245.196 356.472ZM-11.215 354.2H243.881L371.429 133.292L243.881 -87.6158H-11.215L-138.763 133.292L-11.215 354.2Z" fill="#A20505"/>
</g>
<g opacity="0.549">
<path opacity="0.549" d="M249.5 363.883H-16.833L-149.88 133.293L-149.521 132.695L-16.7134 -97.298H249.5L249.859 -96.7003L382.666 133.293L382.308 133.89L249.5 363.883ZM-15.3985 361.493H248.185L379.917 133.293L248.185 -95.0268H-15.3985L-147.25 133.293L-15.3985 361.493Z" fill="#A20505"/>
</g>
<g opacity="0.5686">
<path opacity="0.5686" d="M253.804 371.294H-21.0165L-158.486 133.292L-21.136 -104.71H253.684L391.034 133.292L253.804 371.294ZM-19.7016 368.904H252.369L388.405 133.292L252.369 -102.319H-19.7016L-155.737 133.292L-19.7016 368.904Z" fill="#A20505"/>
</g>
<g opacity="0.5882">
<path opacity="0.5882" d="M257.987 378.706H-25.3209L-25.6795 378.108L-166.975 133.292L-166.616 132.695L-25.3209 -112.121H258.106L258.465 -111.524L399.76 133.292L399.401 133.89L257.987 378.706ZM-23.8864 376.196H256.672L397.01 133.173L256.672 -109.73H-23.8864L-164.225 133.292L-23.8864 376.196Z" fill="#A20505"/>
</g>
<g opacity="0.6078">
<path opacity="0.6078" d="M262.29 386.118H-29.6239L-175.581 133.293L-29.6239 -119.532H262.29L408.247 133.293L262.29 386.118ZM-28.1894 383.607H260.856L405.379 133.293L260.856 -117.022H-28.1894L-172.712 133.293L-28.1894 383.607Z" fill="#A20505"/>
</g>
<g opacity="0.6275">
<path opacity="0.6275" d="M266.594 393.529H-33.927L-34.2856 392.931L-184.188 133.293L-183.829 132.695L-33.927 -126.944H266.594L266.953 -126.346L416.855 133.293L416.496 133.89L266.594 393.529ZM-32.4925 391.019H265.04L413.866 133.293L265.16 -124.434H-32.4925L-181.199 133.293L-32.4925 391.019Z" fill="#A20505"/>
</g>
<g opacity="0.6471">
<path opacity="0.6471" d="M270.897 400.94H-38.231L-192.795 133.293L-38.231 -134.355H270.897L271.255 -133.758L425.461 133.293L270.897 400.94ZM-36.677 398.311H269.343L422.353 133.293L269.343 -131.725H-36.677L-189.687 133.293L-36.677 398.311Z" fill="#A20505"/>
</g>
<g opacity="0.6667">
<path opacity="0.6667" d="M275.2 408.352H-42.5344L-42.893 407.634L-201.282 133.292L-200.924 132.575L-42.5344 -141.886H275.081L275.439 -141.169L433.829 133.292L433.47 134.01L275.2 408.352ZM-40.9804 405.722H273.527L430.84 133.292L273.646 -139.137H-40.9804L-198.174 133.292L-40.9804 405.722Z" fill="#A20505"/>
</g>
<g opacity="0.6863">
<path opacity="0.6863" d="M279.504 415.763H-46.7179L-209.889 133.292L-46.7179 -149.298H279.504L279.863 -148.581L442.555 133.292L279.504 415.763ZM-45.1639 413.013H277.95L439.447 133.172L277.831 -146.549H-45.1639L-206.781 133.292L-45.1639 413.013Z" fill="#A20505"/>
</g>
<g opacity="0.7059">
<path opacity="0.7059" d="M283.688 423.175H-51.0214L-51.38 422.458L-218.376 133.173L-218.017 132.456L-51.0214 -156.828H283.807L284.166 -156.111L451.162 133.173L450.803 133.89L283.688 423.175ZM-49.4674 420.425H282.134L447.935 133.293L282.134 -153.84H-49.4674L-215.268 133.293L-49.4674 420.425Z" fill="#A20505"/>
</g>
<g opacity="0.7255">
<path opacity="0.7255" d="M287.991 430.586H-55.3254L-55.684 429.868L-226.983 133.292L-55.3254 -164.121H287.991L288.349 -163.404L459.649 133.292L287.991 430.586ZM-53.6519 427.717H286.437L456.421 133.173L286.317 -161.252H-53.6519L-223.756 133.292L-53.6519 427.717Z" fill="#A20505"/>
</g>
<g opacity="0.7451">
<path opacity="0.7451" d="M292.294 437.997H-59.6284L-60.1066 437.28L-235.59 133.292L-235.112 132.575L-59.6284 -171.532H292.294L468.256 133.292L467.778 134.009L292.294 437.997ZM-57.9549 435.128H290.621L464.909 133.292L290.621 -168.544H-57.9549L-232.243 133.292L-57.9549 435.128Z" fill="#A20505"/>
</g>
<g opacity="0.7647">
<path opacity="0.7647" d="M296.598 445.528H-63.9315L-64.4096 444.811L-244.196 133.292L-63.9315 -178.944H296.598L476.863 133.292L296.598 445.528ZM-62.1384 442.54H294.925L473.396 133.292L294.925 -175.955H-62.1384L-240.73 133.292L-62.1384 442.54Z" fill="#A20505"/>
</g>
<g opacity="0.7843">
<path opacity="0.7843" d="M300.901 452.939H-68.2355L-68.7136 452.222L-252.804 133.412L-252.326 132.695L-68.2355 -186.116H300.901L301.379 -185.399L485.469 133.412L484.991 134.129L300.901 452.939ZM-66.4424 449.831H299.108L481.883 133.292L299.108 -183.367H-66.4424L-249.218 133.292L-66.4424 449.831Z" fill="#A20505"/>
</g>
<g opacity="0.8039">
<path opacity="0.8039" d="M305.205 460.351H-72.5379L-73.0161 459.634L-261.29 133.292L-72.4184 -193.766H305.205L494.077 133.292L305.205 460.351ZM-70.7448 457.243H303.293L490.371 133.292L303.293 -190.658H-70.7448L-257.823 133.292L-70.7448 457.243Z" fill="#A20505"/>
</g>
<g opacity="0.8235">
<path opacity="0.8235" d="M309.508 467.763H-76.7224L-77.2006 466.926L-269.897 133.293L-269.419 132.456L-76.7224 -201.177H309.508L309.986 -200.34L502.683 133.293L502.205 134.13L309.508 467.763ZM-74.9293 464.536H307.595L498.858 133.173L307.595 -198.189H-74.9293L-266.192 133.173L-74.9293 464.536Z" fill="#A20505"/>
</g>
<g opacity="0.8431">
<path opacity="0.8431" d="M313.692 475.174H-81.0259L-81.504 474.337L-278.385 133.292L-277.907 132.455L-81.0259 -208.589H313.811L511.17 133.292L510.692 134.129L313.692 475.174ZM-79.2328 471.946H311.779L507.345 133.292L311.899 -205.362H-79.2328L-274.679 133.292L-79.2328 471.946Z" fill="#A20505"/>
</g>
<g opacity="0.8627">
<path opacity="0.8627" d="M317.996 482.585H-85.3289L-286.991 133.292L-85.3289 -216.001H317.996L318.474 -215.164L519.658 133.292L317.996 482.585ZM-83.4163 479.358H316.203L515.952 133.292L316.083 -212.773H-83.4163L-283.166 133.292L-83.4163 479.358Z" fill="#A20505"/>
</g>
<g opacity="0.8824">
<path opacity="0.8824" d="M322.299 489.997H-89.6329L-90.1111 489.16L-295.599 133.292L-295.12 132.456L-89.6329 -223.412H322.299L528.264 133.292L527.786 134.129L322.299 489.997ZM-87.7203 486.65H320.386L524.439 133.292L320.386 -220.185H-87.7203L-291.773 133.292L-87.7203 486.65Z" fill="#A20505"/>
</g>
<g opacity="0.902">
<path opacity="0.902" d="M326.602 497.408H-93.936L-94.4141 496.572L-304.205 133.293L-303.727 132.456L-93.936 -230.943H326.602L536.871 133.173L536.393 134.01L326.602 497.408ZM-91.9038 494.061H324.69L532.927 133.293L324.57 -227.476H-91.9038L-300.26 133.293L-91.9038 494.061Z" fill="#A20505"/>
</g>
<g opacity="0.9216">
<path opacity="0.9216" d="M330.906 504.82H-98.2394L-312.692 133.293L-312.214 132.456L-98.2394 -238.235H330.786L331.264 -237.398L545.239 133.293L544.761 134.129L330.906 504.82ZM-96.2072 501.353H328.873L541.414 133.293L328.873 -234.888H-96.2072L-308.748 133.293L-96.2072 501.353Z" fill="#A20505"/>
</g>
<g opacity="0.9412">
<path opacity="0.9412" d="M335.209 512.231H-102.423L-102.901 511.394L-321.299 133.293L-320.821 132.456L-102.423 -245.766H335.209L554.085 133.293L553.607 134.129L335.209 512.231ZM-100.391 508.765H333.177L549.901 133.293L333.177 -242.179H-100.391L-317.235 133.293L-100.391 508.765Z" fill="#A20505"/>
</g>
<g opacity="0.9608">
<path opacity="0.9608" d="M339.393 519.642H-106.727L-329.906 133.292L-329.428 132.336L-106.727 -253.177H339.512L562.572 133.292L562.094 134.248L339.393 519.642ZM-104.695 516.056H337.361L558.388 133.173L337.361 -249.591H-104.695L-325.722 133.292L-104.695 516.056Z" fill="#A20505"/>
</g>
<g opacity="0.9804">
<path opacity="0.9804" d="M343.697 527.054H-111.029L-338.393 133.292L-337.914 132.336L-111.029 -260.589H343.697L344.175 -259.632L571.06 133.292L570.582 134.249L343.697 527.054ZM-108.997 523.468H341.545L566.876 133.292L341.665 -256.883H-108.997L-334.209 133.292L-108.997 523.468Z" fill="#A20505"/>
</g>
<path d="M348 534.585H-115.333L-115.812 533.628L-347 133.292L-115.333 -268H348L348.478 -267.044L579.667 133.292L348 534.585ZM-113.182 530.879H345.848L575.363 133.292L345.848 -264.294H-113.182L-342.697 133.292L-113.182 530.879Z" fill="#A20505"/>
</g>
</g>
</svg>
