<svg width="282" height="110" viewBox="0 0 282 110" fill="none"  preserveAspectRatio="none" xmlns="http://www.w3.org/2000/svg">
<g filter="url(#filter0_d)">
<rect x="20" y="30" width="242" height="656" rx="5" fill="white"/>
</g>
<!-- <rect x="13" y="1" width="255" height="690" rx="5" fill="white"/> -->
<path d="M13 6C13 3.23858 15.2386 1 18 1H263C265.761 1 268 3.23858 268 6V111H13V6Z" fill="#EAF0F9"/>
<mask id="mask0" mask-type="alpha" maskUnits="userSpaceOnUse" x="13" y="0" width="255" height="110">
<path d="M13 5C13 2.23858 15.2386 0 18 0H263C265.761 0 268 2.23858 268 5V110H13V5Z" fill="#EAF0F9"/>
</mask>
<g mask="url(#mask0)">
<rect x="13" width="255" height="111" fill="#EAF0F9"/>
<mask id="mask1" mask-type="alpha" maskUnits="userSpaceOnUse" x="13" y="0" width="255" height="110">
<rect x="13" width="255" height="110" fill="#F9B19D"/>
</mask>
<g mask="url(#mask1)">
<g opacity="0.2549">
<path opacity="0.2549" d="M229.187 348.473H91.4785L91.2394 348.114L22.624 229.173L91.4785 109.873H229.187L229.427 110.231L298.042 229.173L229.187 348.473ZM92.3153 347.158H228.351L296.368 229.292L228.351 111.427H92.3153L24.2976 229.292L92.3153 347.158Z" fill="#CED8E8"/>
</g>
<g opacity="0.2745">
<path opacity="0.2745" d="M233.491 355.884H87.1754L86.9364 355.526L14.0176 229.173L14.2566 228.814L87.1754 102.462H233.491L306.649 229.173L306.41 229.532L233.491 355.884ZM88.0122 354.45H232.535L304.856 229.293L232.535 104.135H88.0122L15.6911 229.293L88.0122 354.45Z" fill="#CED8E8"/>
</g>
<g opacity="0.2941">
<path opacity="0.2941" d="M237.794 363.295H82.8714L5.41016 229.173L5.64925 228.814L82.8714 95.0498H237.674L237.914 95.4084L315.136 229.173L314.897 229.531L237.794 363.295ZM83.8277 361.861H236.838L313.343 229.292L236.838 96.7234H83.8277L7.32279 229.292L83.8277 361.861Z" fill="#CED8E8"/>
</g>
<g opacity="0.3137">
<path opacity="0.3137" d="M242.098 370.827H78.6881L-2.95703 229.293L78.6881 87.7584H242.098L242.337 88.117L323.863 229.173L242.098 370.827ZM79.5249 369.153H241.142L321.95 229.173L241.142 89.1929H79.5249L-1.28349 229.173L79.5249 369.153Z" fill="#CED8E8"/>
</g>
<g opacity="0.3333">
<path opacity="0.3333" d="M246.281 378.239H74.3841L74.145 377.88L-11.5645 229.412L-11.3254 229.054L74.3841 80.5864H246.401L332.349 229.532L332.11 229.891L246.281 378.239ZM75.3404 376.565H245.444L330.437 229.293L245.444 82.0209H75.3404L-9.65184 229.293L75.3404 376.565Z" fill="#CED8E8"/>
</g>
<g opacity="0.3529">
<path opacity="0.3529" d="M250.585 385.649H70.0811L-20.1709 229.292L-19.9318 228.814L70.0811 72.9353H250.585L340.837 229.292L340.598 229.77L250.585 385.649ZM71.0374 383.856H249.629L338.924 229.292L249.629 74.6089H71.0374L-18.2583 229.292L71.0374 383.856Z" fill="#CED8E8"/>
</g>
<g opacity="0.3725">
<path opacity="0.3725" d="M254.889 393.061H65.778L65.5389 392.583L-28.7773 229.293L65.778 65.5244H254.889L349.444 229.293L254.889 393.061ZM66.8539 391.268H253.932L347.412 229.293L253.932 67.3175H66.8539L-26.6256 229.293L66.8539 391.268Z" fill="#CED8E8"/>
</g>
<g opacity="0.3922">
<path opacity="0.3922" d="M259.192 400.472H61.475L61.2359 399.994L-37.3838 229.292L-37.1447 228.814L61.475 58.1122H259.192L259.432 58.5903L358.051 229.292L357.812 229.77L259.192 400.472ZM62.5508 398.679H258.117L355.9 229.292L258.117 59.9053H62.5508L-35.2321 229.292L62.5508 398.679Z" fill="#CED8E8"/>
</g>
<g opacity="0.4118">
<path opacity="0.4118" d="M263.495 407.884H57.1705L56.9315 407.405L-45.8721 229.292L57.2901 50.7009H263.495L366.657 229.292L263.495 407.884ZM58.3659 405.971H262.419L364.505 229.292L262.419 52.494H58.3659L-43.7204 229.173L58.3659 405.971Z" fill="#CED8E8"/>
</g>
<g opacity="0.4314">
<path opacity="0.4314" d="M267.799 415.295H52.9876L52.7486 414.817L-54.3584 229.293L-54.1193 228.814L52.9876 43.1704H267.799L268.038 43.6486L375.145 229.173L374.906 229.651L267.799 415.295ZM54.0635 413.383H266.604L372.874 229.293L266.604 45.2026H54.0635L-52.2067 229.293L54.0635 413.383Z" fill="#CED8E8"/>
</g>
<g opacity="0.451">
<path opacity="0.451" d="M271.983 422.706H48.6836L48.4445 422.228L-62.9658 229.292L48.6836 35.8782H271.983L272.222 36.3563L383.632 229.292L271.983 422.706ZM49.7595 420.674H270.787L381.361 229.173L270.787 37.6713H49.7595L-60.8141 229.173L49.7595 420.674Z" fill="#CED8E8"/>
</g>
<g opacity="0.4706">
<path opacity="0.4706" d="M276.286 430.118H44.38L44.0214 429.64L-71.6924 229.292L-71.4533 228.814L44.2605 28.4669H276.166L392.119 229.292L391.88 229.771L276.286 430.118ZM45.5754 428.086H275.09L389.848 229.292L275.09 30.4991H45.5754L-69.1821 229.292L45.5754 428.086Z" fill="#CED8E8"/>
</g>
<g opacity="0.4902">
<path opacity="0.4902" d="M280.589 437.529H40.0765L39.7179 437.051L-80.1797 229.292L40.0765 20.9355H280.589L280.948 21.4137L400.845 229.173L280.589 437.529ZM41.2719 435.497H279.394L398.454 229.292L279.394 23.0873H41.2719L-77.7889 229.292L41.2719 435.497Z" fill="#CED8E8"/>
</g>
<g opacity="0.5098">
<path opacity="0.5098" d="M284.893 444.94H35.7735L35.4149 444.343L-88.7861 229.173L-88.4275 228.575L35.7735 13.4046H284.893L285.251 14.0023L409.452 229.173L409.094 229.77L284.893 444.94ZM37.0884 442.789H283.697L406.942 229.292L283.578 15.6758H37.0884L-86.2758 229.292L37.0884 442.789Z" fill="#CED8E8"/>
</g>
<g opacity="0.5294">
<path opacity="0.5294" d="M289.196 452.472H31.47L-97.2734 229.292L31.47 6.11298H289.196L289.555 6.71067L418.059 229.292L289.196 452.472ZM32.785 450.2H287.881L415.429 229.292L287.881 8.38421H32.785L-94.7631 229.292L32.785 450.2Z" fill="#CED8E8"/>
</g>
<g opacity="0.549">
<path opacity="0.549" d="M293.5 459.883H27.167L-105.88 229.293L-105.521 228.695L27.2866 -1.29803H293.5L293.859 -0.70034L426.666 229.293L426.308 229.89L293.5 459.883ZM28.6015 457.493H292.185L423.917 229.293L292.185 0.973199H28.6015L-103.25 229.293L28.6015 457.493Z" fill="#CED8E8"/>
</g>
<g opacity="0.5686">
<path opacity="0.5686" d="M297.804 467.294H22.9835L-114.486 229.292L22.864 -8.70984H297.684L435.034 229.292L297.804 467.294ZM24.2984 464.904H296.369L432.405 229.292L296.369 -6.31906H24.2984L-111.737 229.292L24.2984 464.904Z" fill="#CED8E8"/>
</g>
<g opacity="0.5882">
<path opacity="0.5882" d="M301.987 474.706H18.6791L18.3205 474.108L-122.975 229.292L-122.616 228.695L18.6791 -16.1213H302.106L302.465 -15.5236L443.76 229.292L443.401 229.89L301.987 474.706ZM20.1136 472.196H300.672L441.01 229.173L300.672 -13.7305H20.1136L-120.225 229.292L20.1136 472.196Z" fill="#CED8E8"/>
</g>
<g opacity="0.6078">
<path opacity="0.6078" d="M306.29 482.118H14.3761L-131.581 229.293L14.3761 -23.5325H306.29L452.247 229.293L306.29 482.118ZM15.8106 479.607H304.856L449.379 229.293L304.856 -21.0221H15.8106L-128.712 229.293L15.8106 479.607Z" fill="#CED8E8"/>
</g>
<g opacity="0.6275">
<path opacity="0.6275" d="M310.594 489.529H10.073L9.71443 488.931L-140.188 229.293L-139.829 228.695L10.073 -30.9439H310.594L310.953 -30.3462L460.855 229.293L460.496 229.89L310.594 489.529ZM11.5075 487.019H309.04L457.866 229.293L309.16 -28.4336H11.5075L-137.199 229.293L11.5075 487.019Z" fill="#CED8E8"/>
</g>
<g opacity="0.6471">
<path opacity="0.6471" d="M314.897 496.94H5.76898L-148.795 229.293L5.76898 -38.3552H314.897L315.255 -37.7575L469.461 229.293L314.897 496.94ZM7.32301 494.311H313.343L466.353 229.293L313.343 -35.7254H7.32301L-145.687 229.293L7.32301 494.311Z" fill="#CED8E8"/>
</g>
<g opacity="0.6667">
<path opacity="0.6667" d="M319.2 504.352H1.46556L1.10696 503.634L-157.282 229.292L-156.924 228.575L1.46556 -45.8865H319.081L319.439 -45.1692L477.829 229.292L477.47 230.01L319.2 504.352ZM3.01959 501.722H317.527L474.84 229.292L317.646 -43.1371H3.01959L-154.174 229.292L3.01959 501.722Z" fill="#CED8E8"/>
</g>
<g opacity="0.6863">
<path opacity="0.6863" d="M323.504 511.763H-2.71793L-165.889 229.292L-2.71793 -53.2982H323.504L323.863 -52.581L486.555 229.292L323.504 511.763ZM-1.16391 509.013H321.95L483.447 229.172L321.831 -50.5488H-1.16391L-162.781 229.292L-1.16391 509.013Z" fill="#CED8E8"/>
</g>
<g opacity="0.7059">
<path opacity="0.7059" d="M327.688 519.175H-7.02136L-7.37996 518.458L-174.376 229.173L-174.017 228.456L-7.02136 -60.8284H327.807L328.166 -60.1112L495.162 229.173L494.803 229.89L327.688 519.175ZM-5.46738 516.425H326.134L491.935 229.293L326.134 -57.84H-5.46738L-171.268 229.293L-5.46738 516.425Z" fill="#CED8E8"/>
</g>
<g opacity="0.7255">
<path opacity="0.7255" d="M331.991 526.586H-11.3254L-11.684 525.868L-182.983 229.292L-11.3254 -68.1208H331.991L332.349 -67.4036L503.649 229.292L331.991 526.586ZM-9.65186 523.717H330.437L500.421 229.173L330.317 -65.2519H-9.65186L-179.756 229.292L-9.65186 523.717Z" fill="#CED8E8"/>
</g>
<g opacity="0.7451">
<path opacity="0.7451" d="M336.294 533.997H-15.6284L-16.1066 533.28L-191.59 229.292L-191.112 228.575L-15.6284 -75.5323H336.294L512.256 229.292L511.778 230.009L336.294 533.997ZM-13.9549 531.128H334.621L508.909 229.292L334.621 -72.5438H-13.9549L-188.243 229.292L-13.9549 531.128Z" fill="#CED8E8"/>
</g>
<g opacity="0.7647">
<path opacity="0.7647" d="M340.598 541.528H-19.9315L-20.4096 540.811L-200.196 229.292L-19.9315 -82.9437H340.598L520.863 229.292L340.598 541.528ZM-18.1384 538.54H338.925L517.396 229.292L338.925 -79.9552H-18.1384L-196.73 229.292L-18.1384 538.54Z" fill="#CED8E8"/>
</g>
<g opacity="0.7843">
<path opacity="0.7843" d="M344.901 548.939H-24.2355L-24.7136 548.222L-208.804 229.412L-208.326 228.695L-24.2355 -90.116H344.901L345.379 -89.3987L529.469 229.412L528.991 230.129L344.901 548.939ZM-22.4424 545.831H343.108L525.883 229.292L343.108 -87.3666H-22.4424L-205.218 229.292L-22.4424 545.831Z" fill="#CED8E8"/>
</g>
<g opacity="0.8039">
<path opacity="0.8039" d="M349.205 556.351H-28.5379L-29.0161 555.634L-217.29 229.292L-28.4184 -97.7663H349.205L538.077 229.292L349.205 556.351ZM-26.7448 553.243H347.293L534.371 229.292L347.293 -94.6583H-26.7448L-213.823 229.292L-26.7448 553.243Z" fill="#CED8E8"/>
</g>
<g opacity="0.8235">
<path opacity="0.8235" d="M353.508 563.763H-32.7224L-33.2006 562.926L-225.897 229.293L-225.419 228.456L-32.7224 -105.177H353.508L353.986 -104.34L546.683 229.293L546.205 230.13L353.508 563.763ZM-30.9293 560.536H351.595L542.858 229.173L351.595 -102.189H-30.9293L-222.192 229.173L-30.9293 560.536Z" fill="#CED8E8"/>
</g>
<g opacity="0.8431">
<path opacity="0.8431" d="M357.692 571.174H-37.0259L-37.504 570.337L-234.385 229.292L-233.907 228.455L-37.0259 -112.589H357.811L555.17 229.292L554.692 230.129L357.692 571.174ZM-35.2328 567.946H355.779L551.345 229.292L355.899 -109.362H-35.2328L-230.679 229.292L-35.2328 567.946Z" fill="#CED8E8"/>
</g>
<g opacity="0.8627">
<path opacity="0.8627" d="M361.996 578.585H-41.3289L-242.991 229.292L-41.3289 -120.001H361.996L362.474 -119.164L563.658 229.292L361.996 578.585ZM-39.4163 575.358H360.203L559.952 229.292L360.083 -116.773H-39.4163L-239.166 229.292L-39.4163 575.358Z" fill="#CED8E8"/>
</g>
<g opacity="0.8824">
<path opacity="0.8824" d="M366.299 585.997H-45.6329L-46.1111 585.16L-251.599 229.292L-251.12 228.456L-45.6329 -127.412H366.299L572.264 229.292L571.786 230.129L366.299 585.997ZM-43.7203 582.65H364.386L568.439 229.292L364.386 -124.185H-43.7203L-247.773 229.292L-43.7203 582.65Z" fill="#CED8E8"/>
</g>
<g opacity="0.902">
<path opacity="0.902" d="M370.602 593.408H-49.936L-50.4141 592.572L-260.205 229.293L-259.727 228.456L-49.936 -134.943H370.602L580.871 229.173L580.393 230.01L370.602 593.408ZM-47.9038 590.061H368.69L576.927 229.293L368.57 -131.476H-47.9038L-256.26 229.293L-47.9038 590.061Z" fill="#CED8E8"/>
</g>
<g opacity="0.9216">
<path opacity="0.9216" d="M374.906 600.82H-54.2394L-268.692 229.293L-268.214 228.456L-54.2394 -142.235H374.786L375.264 -141.398L589.239 229.293L588.761 230.129L374.906 600.82ZM-52.2072 597.353H372.873L585.414 229.293L372.873 -138.888H-52.2072L-264.748 229.293L-52.2072 597.353Z" fill="#CED8E8"/>
</g>
<g opacity="0.9412">
<path opacity="0.9412" d="M379.209 608.231H-58.4229L-58.9011 607.394L-277.299 229.293L-276.821 228.456L-58.4229 -149.766H379.209L598.085 229.293L597.607 230.129L379.209 608.231ZM-56.3907 604.765H377.177L593.901 229.293L377.177 -146.179H-56.3907L-273.235 229.293L-56.3907 604.765Z" fill="#CED8E8"/>
</g>
<g opacity="0.9608">
<path opacity="0.9608" d="M383.393 615.642H-62.7269L-285.906 229.292L-285.428 228.336L-62.7269 -157.177H383.512L606.572 229.292L606.094 230.248L383.393 615.642ZM-60.6948 612.056H381.361L602.388 229.173L381.361 -153.591H-60.6948L-281.722 229.292L-60.6948 612.056Z" fill="#CED8E8"/>
</g>
<g opacity="0.9804">
<path opacity="0.9804" d="M387.697 623.054H-67.0294L-294.393 229.292L-293.914 228.336L-67.0294 -164.589H387.697L388.175 -163.632L615.06 229.292L614.582 230.249L387.697 623.054ZM-64.9973 619.468H385.545L610.876 229.292L385.665 -160.883H-64.9973L-290.209 229.292L-64.9973 619.468Z" fill="#CED8E8"/>
</g>
<path d="M392 630.585H-71.3334L-71.8115 629.628L-303 229.292L-71.3334 -172H392L392.478 -171.044L623.667 229.292L392 630.585ZM-69.1817 626.879H389.848L619.363 229.292L389.848 -168.294H-69.1817L-298.697 229.292L-69.1817 626.879Z" fill="#CED8E8"/>
<path d="M283.734 1.97405L267.63 169.064L59.1716 148.974L54.0007 125C61.5761 120.339 68.6798 107.663 83 101.5C102.918 90.2729 119.7 93.3263 136.5 84.5C153.132 75.6575 169.818 60.7436 187.153 55.1698C200.292 50.8765 214.045 52.5389 227.535 51.6488C241.041 50.5918 257.551 42.522 266.099 29.531C271.258 21.773 271.759 15.3087 277.254 7.58314C279.161 5.40823 281.219 3.41646 283.734 1.97405Z" fill="#FF2424"/>
</g>
</g>
<mask id="mask2" mask-type="alpha" maskUnits="userSpaceOnUse" x="13" y="0" width="255" height="110">
<path d="M13 5C13 2.23858 15.2386 0 18 0H263C265.761 0 268 2.23858 268 5V110H13V5Z" fill="#EAF0F9"/>
</mask>
<g mask="url(#mask2)">
<mask id="mask3" mask-type="alpha" maskUnits="userSpaceOnUse" x="54" y="1" width="230" height="168">
<path d="M283.975 1.80455L267.871 168.895L59.4128 148.805L54.2419 124.831C61.8174 120.169 68.9211 107.493 83.2412 101.331C103.159 90.1034 119.942 93.1568 136.741 84.3305C153.373 75.488 170.059 60.5741 187.394 55.0004C200.533 50.707 214.286 52.3694 227.776 51.4793C241.282 50.4223 257.792 42.3525 266.34 29.3615C271.499 21.6035 272 15.1392 277.496 7.41365C279.402 5.23874 281.46 3.24696 283.975 1.80455Z" fill="#FF2424"/>
</mask>
<g mask="url(#mask3)">
<g opacity="0.019608">
<path opacity="0.019608" d="M146.786 163.416H111.88L94.4277 133.292L111.88 103.168H146.786L164.239 133.292L146.786 163.416ZM112.359 162.818H146.427L163.521 133.292L146.427 103.766H112.359L95.2645 133.292L112.359 162.818Z" fill="#A20505"/>
</g>
 <g opacity="0.039216">
<path opacity="0.039216" d="M151.089 170.828H107.697L107.577 170.589L85.9404 133.173L107.697 95.5184H151.089L151.209 95.7575L172.845 133.173L151.089 170.828ZM108.055 170.111H150.611L171.889 133.293L150.611 96.4747H108.055L86.7772 133.293L108.055 170.111Z" fill="#A20505"/>
</g>
<g opacity="0.058824">
<path opacity="0.058824" d="M155.393 178.239H103.393L103.274 178L77.334 133.173L103.274 88.1066H155.273L155.393 88.3457L181.333 133.173L155.393 178.239ZM103.752 177.522H154.915L180.496 133.292L154.915 89.0629H103.872L78.2903 133.292L103.752 177.522Z" fill="#A20505"/>
</g>
<g opacity="0.078431">
<path opacity="0.078431" d="M159.576 185.77H98.97L98.8504 185.531L68.7266 133.293L68.8461 133.054L98.97 80.8152H159.576L159.696 81.0543L189.82 133.293L189.7 133.532L159.576 185.77ZM99.5676 184.814H159.098L188.863 133.173L159.098 81.5324H99.5676L69.8024 133.173L99.5676 184.814Z" fill="#A20505"/>
</g>
<g opacity="0.098039">
<path opacity="0.098039" d="M163.88 193.181H94.7861L94.6665 192.942L60.2393 133.292L94.7861 73.4031H163.88L163.999 73.6421L198.426 133.292L163.88 193.181ZM95.2642 192.225H163.282L197.351 133.292L163.282 74.3594H95.2642L61.1956 133.292L95.2642 192.225Z" fill="#A20505"/>
</g>
<g opacity="0.1176">
<path opacity="0.1176" d="M168.183 200.593H90.483L51.6328 133.292L90.483 65.9918H168.183L207.034 133.292L168.183 200.593ZM91.0807 199.636H167.705L205.958 133.292L167.705 66.9482H91.0807L52.8282 133.292L91.0807 199.636Z" fill="#A20505"/>
</g>
<g opacity="0.1373">
<path opacity="0.1373" d="M172.487 208.004H86.18L86.0604 207.765L43.0264 133.292L43.1459 133.053L86.18 58.5803H172.487L172.607 58.8194L215.641 133.292L215.521 133.531L172.487 208.004ZM86.7776 206.928H171.889L214.445 133.292L171.889 59.5366H86.7776L44.2218 133.173L86.7776 206.928Z" fill="#A20505"/>
</g>
<g opacity="0.1569">
<path opacity="0.1569" d="M176.79 215.415H81.9951L34.5381 133.292L81.9951 51.1687H176.79L224.247 133.292L176.79 215.415ZM82.5928 214.339H176.192L222.932 133.292L176.192 52.2445H82.5928L35.853 133.292L82.5928 214.339Z" fill="#A20505"/>
</g> 
 <g opacity="0.1765">
<path opacity="0.1765" d="M181.094 222.828H77.6926L77.573 222.589L26.0518 133.293L77.8121 43.7582H181.213L181.333 43.9973L232.854 133.293L181.094 222.828ZM78.2903 221.632H180.377L231.42 133.293L180.377 44.9536H78.2903L27.2471 133.293L78.2903 221.632Z" fill="#A20505"/>
</g>
<g opacity="0.1961">
<path opacity="0.1961" d="M185.277 230.239H73.2695L17.3252 133.293L73.2695 36.3464H185.277L241.222 133.293L185.277 230.239ZM74.1062 229.043H184.68L239.907 133.293L184.68 37.5418H74.1062L18.8792 133.293L74.1062 229.043Z" fill="#A20505"/>
</g>
<g opacity="0.2157">
<path opacity="0.2157" d="M189.581 237.65H69.0859L68.8469 237.291L8.71875 133.172L68.9664 28.8149H189.581L189.82 29.1736L249.948 133.292L189.581 237.65ZM69.8032 236.335H188.864L248.394 133.172L188.864 30.0103H69.8032L10.2727 133.292L69.8032 236.335Z" fill="#A20505"/>
</g>
<g opacity="0.2353">
<path opacity="0.2353" d="M193.885 245.061H64.7825L64.5434 244.703L0.231445 133.173L0.470501 132.814L64.7825 21.2842H193.885L194.124 21.6428L258.436 133.173L258.197 133.531L193.885 245.061ZM65.6193 243.746H193.167L257.001 133.292L193.167 22.8382H65.6193L1.78544 133.292L65.6193 243.746Z" fill="#A20505"/>
</g>
<g opacity="0.2549">
<path opacity="0.2549" d="M198.187 252.473H60.4785L60.2394 252.114L-8.37598 133.173L60.4785 13.8728H198.187L198.427 14.2314L267.042 133.173L198.187 252.473ZM61.3153 251.158H197.351L265.368 133.292L197.351 15.4268H61.3153L-6.70244 133.292L61.3153 251.158Z" fill="#A20505"/>
</g>
<g opacity="0.2745">
<path opacity="0.2745" d="M202.491 259.884H56.1754L55.9364 259.526L-16.9824 133.173L-16.7434 132.814L56.1754 6.46161H202.491L275.649 133.173L275.41 133.532L202.491 259.884ZM57.0122 258.45H201.535L273.856 133.293L201.535 8.13515H57.0122L-15.3089 133.293L57.0122 258.45Z" fill="#A20505"/>
</g>
<g opacity="0.2941">
<path opacity="0.2941" d="M206.794 267.295H51.8714L-25.5898 133.173L-25.3508 132.814L51.8714 -0.950195H206.674L206.914 -0.591575L284.136 133.173L283.897 133.531L206.794 267.295ZM52.8277 265.861H205.838L282.343 133.292L205.838 0.723362H52.8277L-23.6772 133.292L52.8277 265.861Z" fill="#A20505"/>
</g>
<g opacity="0.3137">
<path opacity="0.3137" d="M211.098 274.827H47.6881L-33.957 133.293L47.6881 -8.24158H211.098L211.337 -7.88296L292.863 133.173L211.098 274.827ZM48.5249 273.153H210.142L290.95 133.173L210.142 -6.80711H48.5249L-32.2835 133.173L48.5249 273.153Z" fill="#A20505"/>
</g>
<g opacity="0.3333">
<path opacity="0.3333" d="M215.281 282.239H43.3841L43.145 281.88L-42.5645 133.413L-42.3254 133.054L43.3841 -15.4135H215.401L301.349 133.532L301.11 133.891L215.281 282.239ZM44.3404 280.565H214.444L299.437 133.293L214.444 -13.979H44.3404L-40.6518 133.293L44.3404 280.565Z" fill="#A20505"/>
</g>
<g opacity="0.3529">
<path opacity="0.3529" d="M219.585 289.649H39.0811L-51.1709 133.292L-50.9318 132.814L39.0811 -23.0647H219.585L309.837 133.292L309.598 133.77L219.585 289.649ZM40.0374 287.856H218.629L307.924 133.292L218.629 -21.3911H40.0374L-49.2583 133.292L40.0374 287.856Z" fill="#A20505"/>
</g>
<g opacity="0.3725">
<path opacity="0.3725" d="M223.889 297.061H34.778L34.5389 296.583L-59.7773 133.293L34.778 -30.4756H223.889L318.444 133.293L223.889 297.061ZM35.8539 295.268H222.932L316.412 133.293L222.932 -28.6826H35.8539L-57.6256 133.293L35.8539 295.268Z" fill="#A20505"/>
</g>
<g opacity="0.3922">
<path opacity="0.3922" d="M228.192 304.472H30.475L30.2359 303.994L-68.3838 133.292L-68.1447 132.814L30.475 -37.8878H228.192L228.432 -37.4096L327.051 133.292L326.812 133.77L228.192 304.472ZM31.5508 302.679H227.117L324.9 133.292L227.117 -36.0947H31.5508L-66.2321 133.292L31.5508 302.679Z" fill="#A20505"/>
</g>
<g opacity="0.4118">
<path opacity="0.4118" d="M232.495 311.884H26.1705L25.9315 311.405L-76.8721 133.292L26.2901 -45.2991H232.495L335.657 133.292L232.495 311.884ZM27.3659 309.971H231.419L333.505 133.292L231.419 -43.506H27.3659L-74.7204 133.173L27.3659 309.971Z" fill="#A20505"/>
</g>
<g opacity="0.4314">
<path opacity="0.4314" d="M236.799 319.295H21.9876L21.7486 318.817L-85.3584 133.293L-85.1193 132.814L21.9876 -52.8297H236.799L237.038 -52.3515L344.145 133.173L343.906 133.651L236.799 319.295ZM23.0635 317.383H235.604L341.874 133.293L235.604 -50.7975H23.0635L-83.2067 133.293L23.0635 317.383Z" fill="#A20505"/>
</g> 
<g opacity="0.451">
<path opacity="0.451" d="M240.983 326.706H17.6836L17.4445 326.228L-93.9658 133.292L17.6836 -60.1218H240.983L241.222 -59.6437L352.632 133.292L240.983 326.706ZM18.7595 324.674H239.787L350.361 133.173L239.787 -58.3287H18.7595L-91.8141 133.173L18.7595 324.674Z" fill="#A20505"/>
</g>
<g opacity="0.4706">
<path opacity="0.4706" d="M245.286 334.118H13.38L13.0214 333.64L-102.692 133.292L-102.453 132.814L13.2605 -67.5331H245.166L361.119 133.292L360.88 133.771L245.286 334.118ZM14.5754 332.086H244.09L358.848 133.292L244.09 -65.5009H14.5754L-100.182 133.292L14.5754 332.086Z" fill="#A20505"/>
</g>
<g opacity="0.4902">
<path opacity="0.4902" d="M249.589 341.529H9.07654L8.71794 341.051L-111.18 133.292L9.07654 -75.0645H249.589L249.948 -74.5863L369.845 133.173L249.589 341.529ZM10.2719 339.497H248.394L367.454 133.292L248.394 -72.9127H10.2719L-108.789 133.292L10.2719 339.497Z" fill="#A20505"/>
</g>
<g opacity="0.5098">
<path opacity="0.5098" d="M253.893 348.94H4.77351L4.41491 348.343L-119.786 133.173L-119.428 132.575L4.77351 -82.5954H253.893L254.251 -81.9977L378.452 133.173L378.094 133.77L253.893 348.94ZM6.08845 346.789H252.697L375.942 133.292L252.578 -80.3242H6.08845L-117.276 133.292L6.08845 346.789Z" fill="#A20505"/>
</g>
<g opacity="0.5294">
<path opacity="0.5294" d="M258.196 356.472H0.470032L-128.273 133.292L0.470032 -89.887H258.196L258.555 -89.2893L387.059 133.292L258.196 356.472ZM1.78496 354.2H256.881L384.429 133.292L256.881 -87.6158H1.78496L-125.763 133.292L1.78496 354.2Z" fill="#A20505"/>
</g>
<g opacity="0.549">
<path opacity="0.549" d="M262.5 363.883H-3.83296L-136.88 133.293L-136.521 132.695L-3.71344 -97.298H262.5L262.859 -96.7003L395.666 133.293L395.308 133.89L262.5 363.883ZM-2.39851 361.493H261.185L392.917 133.293L261.185 -95.0268H-2.39851L-134.25 133.293L-2.39851 361.493Z" fill="#A20505"/>
</g>
<g opacity="0.5686">
<path opacity="0.5686" d="M266.804 371.294H-8.01648L-145.486 133.292L-8.13602 -104.71H266.684L404.034 133.292L266.804 371.294ZM-6.70157 368.904H265.369L401.405 133.292L265.369 -102.319H-6.70157L-142.737 133.292L-6.70157 368.904Z" fill="#A20505"/>
</g> 
<g opacity="0.5882">
<path opacity="0.5882" d="M270.987 378.706H-12.3209L-12.6795 378.108L-153.975 133.292L-153.616 132.695L-12.3209 -112.121H271.106L271.465 -111.524L412.76 133.292L412.401 133.89L270.987 378.706ZM-10.8864 376.196H269.672L410.01 133.173L269.672 -109.73H-10.8864L-151.225 133.292L-10.8864 376.196Z" fill="#A20505"/>
</g>
<g opacity="0.6078">
<path opacity="0.6078" d="M275.29 386.118H-16.6239L-162.581 133.293L-16.6239 -119.532H275.29L421.247 133.293L275.29 386.118ZM-15.1894 383.607H273.856L418.379 133.293L273.856 -117.022H-15.1894L-159.712 133.293L-15.1894 383.607Z" fill="#A20505"/>
</g>
<g opacity="0.6275">
<path opacity="0.6275" d="M279.594 393.529H-20.927L-21.2856 392.931L-171.188 133.293L-170.829 132.695L-20.927 -126.944H279.594L279.953 -126.346L429.855 133.293L429.496 133.89L279.594 393.529ZM-19.4925 391.019H278.04L426.866 133.293L278.16 -124.434H-19.4925L-168.199 133.293L-19.4925 391.019Z" fill="#A20505"/>
</g>
<g opacity="0.6471">
<path opacity="0.6471" d="M283.897 400.94H-25.231L-179.795 133.293L-25.231 -134.355H283.897L284.255 -133.758L438.461 133.293L283.897 400.94ZM-23.677 398.311H282.343L435.353 133.293L282.343 -131.725H-23.677L-176.687 133.293L-23.677 398.311Z" fill="#A20505"/>
</g>
<g opacity="0.6667">
<path opacity="0.6667" d="M288.2 408.352H-29.5344L-29.893 407.634L-188.282 133.292L-187.924 132.575L-29.5344 -141.886H288.081L288.439 -141.169L446.829 133.292L446.47 134.01L288.2 408.352ZM-27.9804 405.722H286.527L443.84 133.292L286.646 -139.137H-27.9804L-185.174 133.292L-27.9804 405.722Z" fill="#A20505"/>
</g> 
 <g opacity="0.6863">
<path opacity="0.6863" d="M292.504 415.763H-33.7179L-196.889 133.292L-33.7179 -149.298H292.504L292.863 -148.581L455.555 133.292L292.504 415.763ZM-32.1639 413.013H290.95L452.447 133.172L290.831 -146.549H-32.1639L-193.781 133.292L-32.1639 413.013Z" fill="#A20505"/>
</g>
<g opacity="0.7059">
<path opacity="0.7059" d="M296.688 423.175H-38.0214L-38.38 422.458L-205.376 133.173L-205.017 132.456L-38.0214 -156.828H296.807L297.166 -156.111L464.162 133.173L463.803 133.89L296.688 423.175ZM-36.4674 420.425H295.134L460.935 133.293L295.134 -153.84H-36.4674L-202.268 133.293L-36.4674 420.425Z" fill="#A20505"/>
</g>
<g opacity="0.7255">
<path opacity="0.7255" d="M300.991 430.586H-42.3254L-42.684 429.868L-213.983 133.292L-42.3254 -164.121H300.991L301.349 -163.404L472.649 133.292L300.991 430.586ZM-40.6519 427.717H299.437L469.421 133.173L299.317 -161.252H-40.6519L-210.756 133.292L-40.6519 427.717Z" fill="#A20505"/>
</g>
<g opacity="0.7451">
<path opacity="0.7451" d="M305.294 437.997H-46.6284L-47.1066 437.28L-222.59 133.292L-222.112 132.575L-46.6284 -171.532H305.294L481.256 133.292L480.778 134.009L305.294 437.997ZM-44.9549 435.128H303.621L477.909 133.292L303.621 -168.544H-44.9549L-219.243 133.292L-44.9549 435.128Z" fill="#A20505"/>
</g>
<g opacity="0.7647">
<path opacity="0.7647" d="M309.598 445.528H-50.9315L-51.4096 444.811L-231.196 133.292L-50.9315 -178.944H309.598L489.863 133.292L309.598 445.528ZM-49.1384 442.54H307.925L486.396 133.292L307.925 -175.955H-49.1384L-227.73 133.292L-49.1384 442.54Z" fill="#A20505"/>
</g>
<g opacity="0.7843">
<path opacity="0.7843" d="M313.901 452.939H-55.2355L-55.7136 452.222L-239.804 133.412L-239.326 132.695L-55.2355 -186.116H313.901L314.379 -185.399L498.469 133.412L497.991 134.129L313.901 452.939ZM-53.4424 449.831H312.108L494.883 133.292L312.108 -183.367H-53.4424L-236.218 133.292L-53.4424 449.831Z" fill="#A20505"/>
</g>
<g opacity="0.8039">
<path opacity="0.8039" d="M318.205 460.351H-59.5379L-60.0161 459.634L-248.29 133.292L-59.4184 -193.766H318.205L507.077 133.292L318.205 460.351ZM-57.7448 457.243H316.293L503.371 133.292L316.293 -190.658H-57.7448L-244.823 133.292L-57.7448 457.243Z" fill="#A20505"/>
</g>
<g opacity="0.8235">
<path opacity="0.8235" d="M322.508 467.763H-63.7224L-64.2006 466.926L-256.897 133.293L-256.419 132.456L-63.7224 -201.177H322.508L322.986 -200.34L515.683 133.293L515.205 134.13L322.508 467.763ZM-61.9293 464.536H320.595L511.858 133.173L320.595 -198.189H-61.9293L-253.192 133.173L-61.9293 464.536Z" fill="#A20505"/>
</g>
<g opacity="0.8431">
<path opacity="0.8431" d="M326.692 475.174H-68.0259L-68.504 474.337L-265.385 133.292L-264.907 132.455L-68.0259 -208.589H326.811L524.17 133.292L523.692 134.129L326.692 475.174ZM-66.2328 471.946H324.779L520.345 133.292L324.899 -205.362H-66.2328L-261.679 133.292L-66.2328 471.946Z" fill="#A20505"/>
</g>
<g opacity="0.8627">
<path opacity="0.8627" d="M330.996 482.585H-72.3289L-273.991 133.292L-72.3289 -216.001H330.996L331.474 -215.164L532.658 133.292L330.996 482.585ZM-70.4163 479.358H329.203L528.952 133.292L329.083 -212.773H-70.4163L-270.166 133.292L-70.4163 479.358Z" fill="#A20505"/>
</g>
<g opacity="0.8824">
<path opacity="0.8824" d="M335.299 489.997H-76.6329L-77.1111 489.16L-282.599 133.292L-282.12 132.456L-76.6329 -223.412H335.299L541.264 133.292L540.786 134.129L335.299 489.997ZM-74.7203 486.65H333.386L537.439 133.292L333.386 -220.185H-74.7203L-278.773 133.292L-74.7203 486.65Z" fill="#A20505"/>
</g>
<g opacity="0.902">
<path opacity="0.902" d="M339.602 497.408H-80.936L-81.4141 496.572L-291.205 133.293L-290.727 132.456L-80.936 -230.943H339.602L549.871 133.173L549.393 134.01L339.602 497.408ZM-78.9038 494.061H337.69L545.927 133.293L337.57 -227.476H-78.9038L-287.26 133.293L-78.9038 494.061Z" fill="#A20505"/>
</g>
<g opacity="0.9216">
<path opacity="0.9216" d="M343.906 504.82H-85.2394L-299.692 133.293L-299.214 132.456L-85.2394 -238.235H343.786L344.264 -237.398L558.239 133.293L557.761 134.129L343.906 504.82ZM-83.2072 501.353H341.873L554.414 133.293L341.873 -234.888H-83.2072L-295.748 133.293L-83.2072 501.353Z" fill="#A20505"/>
</g>
<g opacity="0.9412">
<path opacity="0.9412" d="M348.209 512.231H-89.4229L-89.9011 511.394L-308.299 133.293L-307.821 132.456L-89.4229 -245.766H348.209L567.085 133.293L566.607 134.129L348.209 512.231ZM-87.3907 508.765H346.177L562.901 133.293L346.177 -242.179H-87.3907L-304.235 133.293L-87.3907 508.765Z" fill="#A20505"/>
</g>
<g opacity="0.9608">
<path opacity="0.9608" d="M352.393 519.642H-93.7269L-316.906 133.292L-316.428 132.336L-93.7269 -253.177H352.512L575.572 133.292L575.094 134.248L352.393 519.642ZM-91.6948 516.056H350.361L571.388 133.173L350.361 -249.591H-91.6948L-312.722 133.292L-91.6948 516.056Z" fill="#A20505"/>
</g>
<g opacity="0.9804">
<path opacity="0.9804" d="M356.697 527.054H-98.0294L-325.393 133.292L-324.914 132.336L-98.0294 -260.589H356.697L357.175 -259.632L584.06 133.292L583.582 134.249L356.697 527.054ZM-95.9973 523.468H354.545L579.876 133.292L354.665 -256.883H-95.9973L-321.209 133.292L-95.9973 523.468Z" fill="#A20505"/>
</g> 
<path d="M361 534.585H-102.333L-102.812 533.628L-334 133.292L-102.333 -268H361L361.478 -267.044L592.667 133.292L361 534.585ZM-100.182 530.879H358.848L588.363 133.292L358.848 -264.294H-100.182L-329.697 133.292L-100.182 530.879Z" fill="#A20505"/>
</g>
</g>
</svg>
