<svg width="40" height="49" viewBox="0 0 40 49" fill="none" xmlns="http://www.w3.org/2000/svg">
<path d="M39.4929 42.6974L36.1388 11.6844C36.0561 10.9221 35.4124 10.3438 34.6453 10.3438H29.102V9.33891C29.1023 4.18963 24.9127 0 19.7631 0C14.6138 0 10.4241 4.18963 10.4241 9.33891V10.3438H4.88047C4.11335 10.3438 3.46959 10.9217 3.38697 11.6844L0.0328781 42.6974C-0.140584 44.3016 0.377933 45.9098 1.45571 47.1106C2.5335 48.3114 4.07708 49 5.69058 49H33.8348C35.4483 49 36.9919 48.3114 38.07 47.1106C39.1478 45.9098 39.6663 44.3012 39.4929 42.6974ZM13.4283 9.33891C13.4283 5.84612 16.2703 3.00418 19.7631 3.00418C23.2562 3.00418 26.0978 5.84612 26.0978 9.33891V10.3438H13.4283V9.33891ZM35.8341 45.1038C35.3178 45.6788 34.6079 45.9958 33.8352 45.9958H5.69058C4.91785 45.9958 4.20793 45.6788 3.69128 45.1038C3.17538 44.5285 2.9365 43.7887 3.01986 43.0204L6.22891 13.3483H10.4241V17.1761C10.4241 18.0056 11.0967 18.6782 11.9262 18.6782C12.7558 18.6782 13.4283 18.0056 13.4283 17.1761V13.3483H26.0978V17.1761C26.0978 18.0056 26.7703 18.6782 27.5999 18.6782C28.4298 18.6782 29.1023 18.0056 29.1023 17.1761V13.3483H33.2968L36.5059 43.0204C36.5889 43.7887 36.3503 44.5285 35.8341 45.1038Z" fill="#3B1FD3"/>
<path d="M23.7176 24.2053C23.0253 23.8429 22.1472 24.0693 21.7562 24.7112L14.0154 37.4184C13.6245 38.0601 13.8688 38.8738 14.5613 39.2361C14.785 39.3531 15.0279 39.4087 15.2677 39.4087C15.77 39.4087 16.258 39.1646 16.5226 38.7302L24.2635 26.0229C24.6544 25.3812 24.4101 24.5675 23.7176 24.2053Z" fill="#FF2424"/>
<path d="M24.8081 32.4619C22.8677 32.4619 21.2891 34.0405 21.2891 35.9809C21.2891 37.9213 22.8677 39.5 24.8081 39.5C26.7485 39.5 28.3272 37.9213 28.3272 35.9809C28.3272 34.0405 26.7485 32.4619 24.8081 32.4619ZM24.8081 37.1539C24.1613 37.1539 23.6351 36.6277 23.6351 35.9809C23.6351 35.3341 24.1613 34.8079 24.8081 34.8079C25.4549 34.8079 25.9811 35.3341 25.9811 35.9809C25.9811 36.6277 25.4549 37.1539 24.8081 37.1539Z" fill="#FF2424"/>
<path d="M14.7339 24C12.7935 24 11.2148 25.5787 11.2148 27.5191C11.2148 29.4595 12.7935 31.0381 14.7339 31.0381C16.6743 31.0381 18.253 29.4595 18.253 27.5191C18.253 25.5787 16.6743 24 14.7339 24ZM14.7339 28.6921C14.0871 28.6921 13.5609 28.1659 13.5609 27.5191C13.5609 26.8723 14.0871 26.346 14.7339 26.346C15.3807 26.346 15.9069 26.8723 15.9069 27.5191C15.9069 28.1659 15.3806 28.6921 14.7339 28.6921Z" fill="#FF2424"/>
</svg>
