<svg width="12" height="8" viewBox="0 0 12 8" fill="none" xmlns="http://www.w3.org/2000/svg">
<path d="M11.3013 1.10434L10.3362 0.188526C10.2038 0.0628579 10.0429 0 9.85368 0C9.66432 0 9.50337 0.0628579 9.37103 0.188526L4.71548 4.6128L2.62902 2.62623C2.49653 2.50052 2.33568 2.43773 2.1465 2.43773C1.95719 2.43773 1.79634 2.50052 1.66385 2.62623L0.698706 3.54207C0.566219 3.66776 0.5 3.82044 0.5 4.00005C0.5 4.17952 0.566219 4.33233 0.698706 4.458L3.26769 6.89564L4.23291 7.81145C4.36532 7.93721 4.52622 8 4.71548 8C4.90467 8 5.06557 7.93705 5.19805 7.81145L6.16325 6.89564L11.3013 2.02023C11.4337 1.89451 11.5 1.74186 11.5 1.56225C11.5001 1.38273 11.4337 1.23006 11.3013 1.10434Z" fill="#1C1C1C"/>
</svg>
