<svg width="11" height="8" viewBox="0 0 11 8" fill="none" xmlns="http://www.w3.org/2000/svg">
<path d="M10.8013 1.10434L9.83615 0.188526C9.70381 0.0628579 9.54286 0 9.35368 0C9.16432 0 9.00337 0.0628579 8.87103 0.188526L4.21548 4.6128L2.12902 2.62623C1.99653 2.50052 1.83568 2.43773 1.6465 2.43773C1.45719 2.43773 1.29634 2.50052 1.16385 2.62623L0.198706 3.54207C0.0662188 3.66776 0 3.82044 0 4.00005C0 4.17952 0.0662188 4.33233 0.198706 4.458L2.76769 6.89564L3.73291 7.81145C3.86532 7.93721 4.02622 8 4.21548 8C4.40467 8 4.56557 7.93705 4.69805 7.81145L5.66325 6.89564L10.8013 2.02023C10.9337 1.89451 11 1.74186 11 1.56225C11.0001 1.38273 10.9337 1.23006 10.8013 1.10434Z" fill="#D6DDEA"/>
</svg>
