<svg width="119" height="23" viewBox="0 0 119 23" fill="none" xmlns="http://www.w3.org/2000/svg">
<path d="M0.757812 0.862305V22H5.18164V15.335H9.13672C13.5898 15.335 16.6807 12.4346 16.6807 8.09863C16.6807 3.74805 13.6924 0.862305 9.35645 0.862305H0.757812ZM5.18164 4.36328H8.18457C10.7188 4.36328 12.1836 5.71094 12.1836 8.11328C12.1836 10.5303 10.7041 11.8779 8.16992 11.8779H5.18164V4.36328ZM19.0391 22H23.3164V0.862305H19.0391V22ZM32.2666 19.1582C30.8164 19.1582 29.8496 18.4258 29.8496 17.2539C29.8496 16.1406 30.7578 15.4229 32.3545 15.3057L35.665 15.1006V16.2432C35.665 17.9424 34.127 19.1582 32.2666 19.1582ZM30.8604 22.249C32.8232 22.249 34.7715 21.2676 35.6504 19.5977H35.7383V22H39.8691V11.2041C39.8691 8.04004 37.2471 5.95996 33.2188 5.95996C29.0586 5.95996 26.4658 8.05469 26.3047 11.1016H30.2158C30.4209 9.94434 31.4316 9.15332 33.0283 9.15332C34.6396 9.15332 35.665 10.0029 35.665 11.4678V12.5078L31.71 12.7422C27.7988 12.9766 25.6016 14.6318 25.6016 17.4883C25.6016 20.3154 27.8721 22.249 30.8604 22.249ZM43.7803 2.67871V6.29688H41.5684V9.51953H43.7803V17.7666C43.7803 20.8281 45.2158 22.0586 48.9072 22.0586C49.7715 22.0586 50.5039 21.9854 50.9434 21.8828V18.7334C50.6797 18.7773 50.2842 18.8066 49.9033 18.8066C48.6436 18.8066 48.0576 18.2354 48.0576 17.0342V9.51953H50.958V6.29688H48.0576V2.67871H43.7803ZM53.375 22H57.6523V6.29688H53.375V22ZM55.5137 4.56836C56.8027 4.56836 57.7988 3.58691 57.7988 2.35645C57.7988 1.11133 56.8027 0.144531 55.5137 0.144531C54.2246 0.144531 53.2285 1.11133 53.2285 2.35645C53.2285 3.58691 54.2246 4.56836 55.5137 4.56836ZM60.5088 22H64.7861V12.9912C64.7861 10.9551 66.002 9.54883 67.9209 9.54883C69.8398 9.54883 70.8066 10.7207 70.8066 12.7715V22H75.084V11.8779C75.084 8.20117 73.1211 6.00391 69.6348 6.00391C67.2178 6.00391 65.5625 7.14648 64.7275 9.09473H64.6396V6.29688H60.5088V22ZM92.2959 6.29688H88.0186V15.291C88.0186 17.3711 86.832 18.7334 84.9277 18.7334C83.0381 18.7334 81.998 17.6201 81.998 15.5254V6.29688H77.7207V16.4189C77.7207 20.0811 79.9766 22.293 83.375 22.293C85.748 22.293 87.3008 21.1504 88.0771 19.1729H88.165V22H92.2959V6.29688ZM95.0791 22H99.3564V12.5225C99.3564 10.7646 100.455 9.53418 102.081 9.53418C103.663 9.53418 104.615 10.5303 104.615 12.2148V22H108.731V12.4639C108.731 10.7207 109.801 9.53418 111.427 9.53418C113.082 9.53418 113.99 10.5303 113.99 12.3467V22H118.268V11.2773C118.268 8.11328 116.202 6.00391 113.126 6.00391C110.826 6.00391 108.951 7.24902 108.248 9.22656H108.16C107.633 7.17578 106.051 6.00391 103.78 6.00391C101.642 6.00391 99.957 7.24902 99.2979 9.13867H99.21V6.29688H95.0791V22Z" fill="#151515"/>
</svg>
