<svg width="24" height="26" viewBox="0 0 24 26" fill="none" xmlns="http://www.w3.org/2000/svg">
<path d="M0.472015 0.408021C0.144271 0.8013 -0.0211539 1.30476 0.00946145 1.81579V24.0585C-0.0211539 24.5696 0.144271 25.073 0.472015 25.4663L0.542403 25.5367L13.0012 13.088V12.7964L0.542403 0.337631L0.472015 0.408021Z" fill="url(#paint0_linear)"/>
<path d="M17.1247 17.2409L13.002 13.0879V12.7963L17.1247 8.63336L17.2152 8.68364L22.1525 11.4891C23.5602 12.2835 23.5602 13.5907 22.1525 14.3952L17.2353 17.1906L17.1247 17.2409Z" fill="url(#paint1_linear)"/>
<path d="M17.2452 17.1806L13.0018 12.9372L0.472656 25.4663C0.759602 25.7186 1.12565 25.8626 1.50755 25.8737C1.88944 25.8847 2.26319 25.7619 2.5642 25.5267L17.2553 17.1806" fill="url(#paint2_linear)"/>
<path d="M17.2455 8.69375L2.55443 0.34769C2.25342 0.112405 1.87968 -0.0103342 1.49778 0.000681966C1.11589 0.0116982 0.749837 0.155779 0.462891 0.408024L13.0021 12.9372L17.2455 8.69375Z" fill="url(#paint3_linear)"/>
<path opacity="0.2" d="M17.1246 17.0901L2.55414 25.3859C2.26383 25.603 1.91108 25.7203 1.54859 25.7203C1.18611 25.7203 0.833357 25.603 0.543044 25.3859L0.472656 25.4563L0.543044 25.5267C0.832699 25.7453 1.1857 25.8636 1.54859 25.8636C1.91148 25.8636 2.26449 25.7453 2.55414 25.5267L17.2452 17.1806L17.1246 17.0901Z" fill="black"/>
<path opacity="0.12" d="M0.472015 25.3255C0.144271 24.9323 -0.0211539 24.4288 0.00946145 23.9178V24.0686C-0.0211539 24.5796 0.144271 25.0831 0.472015 25.4764L0.542403 25.406L0.472015 25.3255ZM22.1517 14.2444L17.1239 17.0901L17.2144 17.1806L22.1517 14.3852C22.4318 14.2536 22.6723 14.0504 22.8488 13.7962C23.0254 13.5419 23.1318 13.2456 23.1572 12.9372C23.1007 13.2174 22.9806 13.481 22.8063 13.7076C22.632 13.9342 22.408 14.1178 22.1517 14.2444Z" fill="black"/>
<path opacity="0.25" d="M2.5541 0.488459L22.1523 11.6299C22.4086 11.7565 22.6326 11.9401 22.8069 12.1667C22.9812 12.3933 23.1013 12.6569 23.1578 12.9372C23.1323 12.6287 23.026 12.3324 22.8494 12.0782C22.6729 11.8239 22.4324 11.6208 22.1523 11.4892L2.5541 0.347681C1.14633 -0.446703 0 0.216961 0 1.82584V1.97667C0.0301665 0.357737 1.15638 -0.305925 2.5541 0.488459Z" fill="white"/>
<defs>
<linearGradient id="paint0_linear" x1="11.8951" y1="1.58451" x2="-4.97806" y2="18.4576" gradientUnits="userSpaceOnUse">
<stop stop-color="#00A0FF"/>
<stop offset="0.01" stop-color="#00A1FF"/>
<stop offset="0.26" stop-color="#00BEFF"/>
<stop offset="0.51" stop-color="#00D2FF"/>
<stop offset="0.76" stop-color="#00DFFF"/>
<stop offset="1" stop-color="#00E3FF"/>
</linearGradient>
<linearGradient id="paint1_linear" x1="23.9926" y1="12.9371" x2="-0.331631" y2="12.9371" gradientUnits="userSpaceOnUse">
<stop stop-color="#FFE000"/>
<stop offset="0.41" stop-color="#FFBD00"/>
<stop offset="0.78" stop-color="#FFA500"/>
<stop offset="1" stop-color="#FF9C00"/>
</linearGradient>
<linearGradient id="paint2_linear" x1="14.9425" y1="15.2499" x2="-7.94379" y2="38.1262" gradientUnits="userSpaceOnUse">
<stop stop-color="#FF3A44"/>
<stop offset="1" stop-color="#C31162"/>
</linearGradient>
<linearGradient id="paint3_linear" x1="-2.68448" y1="-6.99282" x2="7.5319" y2="3.22356" gradientUnits="userSpaceOnUse">
<stop stop-color="#32A071"/>
<stop offset="0.07" stop-color="#2DA771"/>
<stop offset="0.48" stop-color="#15CF74"/>
<stop offset="0.8" stop-color="#06E775"/>
<stop offset="1" stop-color="#00F076"/>
</linearGradient>
</defs>
</svg>
