<svg width="142" height="52" viewBox="0 0 142 52" fill="none" xmlns="http://www.w3.org/2000/svg">
<path d="M42.1542 44.5853C43.4291 44.5853 44.2791 45.3895 44.2791 46.383C44.2791 47.1399 43.9013 47.613 42.8153 48.7011L41.4459 50.073H44.3735V51.0192H39.9349V50.2623L42.1542 48.0388C42.9569 47.2345 43.1458 46.9034 43.1458 46.4303C43.1458 45.8626 42.7209 45.4368 42.107 45.4368C41.4459 45.4368 40.9265 45.9099 40.9265 46.5249H39.8877C39.8877 45.4368 40.8321 44.5853 42.1542 44.5853Z" fill="#8A859E"/>
<path d="M49.0474 47.8496C49.0474 46.383 48.5752 45.4841 47.7253 45.4841C46.8753 45.4841 46.3559 46.383 46.3559 47.8496C46.3559 49.3634 46.8281 50.215 47.7253 50.215C48.5752 50.2623 49.0474 49.3634 49.0474 47.8496ZM45.2227 47.8496C45.2227 45.8153 46.167 44.5853 47.7253 44.5853C49.2835 44.5853 50.1807 45.8626 50.1807 47.8496C50.1807 49.8838 49.2363 51.1611 47.7253 51.1611C46.167 51.1611 45.2227 49.8838 45.2227 47.8496Z" fill="#8A859E"/>
<path d="M52.5892 45.768H52.542L50.9365 46.9034V45.8626L52.5892 44.7272H53.6752V51.0192H52.5892V45.768Z" fill="#8A859E"/>
<path d="M58.7752 46.7615C58.7752 46.0518 58.2086 45.4841 57.5003 45.4841C56.792 45.4841 56.2253 46.0518 56.2253 46.7142C56.2253 47.4238 56.7448 47.9442 57.5003 47.9442C58.2086 47.9915 58.7752 47.4711 58.7752 46.7615ZM55.1865 49.5053H56.3198C56.4614 50.0257 56.8864 50.2623 57.5003 50.2623C58.4919 50.2623 58.9641 49.3161 58.9641 47.8496C58.728 48.4646 58.0669 48.8903 57.2642 48.8903C56.0837 48.8903 55.1865 48.0388 55.1865 46.8088C55.1865 45.5315 56.1781 44.5853 57.5475 44.5853C58.8224 44.5853 60.0973 45.4841 60.0973 47.8022C60.0973 49.9311 59.1529 51.1611 57.5475 51.1611C56.2726 51.1611 55.3754 50.4988 55.1865 49.5053Z" fill="#8A859E"/>
<path d="M20.4799 6.12374C21.7076 4.60989 22.5576 2.52833 22.3215 0.446777C20.5272 0.494085 18.4023 1.62948 17.1274 3.14334C15.9941 4.46796 14.9553 6.59682 15.2386 8.63107C17.2218 8.773 19.2522 7.59029 20.4799 6.12374ZM29.6877 26.4662C29.6405 26.6081 28.9322 29.0208 27.2323 31.5282C25.7685 33.7043 24.2103 35.8332 21.8021 35.8805C19.4411 35.9278 18.6856 34.4613 15.9469 34.4613C13.2554 34.4613 12.4055 35.8332 10.1389 35.9278C7.8724 35.9751 6.07807 33.5624 4.61427 31.3862C1.54502 26.9866 -0.768723 18.9915 2.34775 13.5511C3.90598 10.8546 6.6447 9.15146 9.66674 9.10415C11.9333 9.05684 14.1053 10.6653 15.5219 10.6653C16.9385 10.6653 19.5356 8.773 22.2743 9.05684C23.4075 9.10415 26.6657 9.52993 28.7433 12.5576C28.6017 12.6523 24.8713 14.8284 24.9186 19.3227C25.013 24.6685 29.6405 26.4189 29.6877 26.4662Z" fill="#8A859E"/>
<path d="M41.5407 14.2608H43.335C44.7043 14.2608 45.4599 13.5039 45.4599 12.2738C45.4599 11.0438 44.7043 10.2869 43.335 10.2869H41.5407V14.2608ZM43.76 8.96228C45.6959 8.96228 47.0653 10.3342 47.0653 12.2738C47.0653 14.2608 45.6959 15.5854 43.7127 15.5854H41.5407V19.0389H39.9824V8.96228H43.76Z" fill="#8A859E"/>
<path d="M48.4805 11.6588H49.897V12.8888H49.9443C50.1804 12.0373 50.8414 11.5169 51.6914 11.5169C51.9275 11.5169 52.1163 11.5642 52.2108 11.5642V12.9835C52.0691 12.9361 51.833 12.8888 51.5497 12.8888C50.5581 12.8888 49.9915 13.5512 49.9915 14.5919V18.9916H48.4805V11.6588Z" fill="#8A859E"/>
<path d="M54.4778 14.6865H58.1609C58.1137 13.5511 57.4054 12.7942 56.3666 12.7942C55.2805 12.7469 54.5723 13.5511 54.4778 14.6865ZM59.5775 16.8627C59.3886 18.1873 58.1137 19.1808 56.4138 19.1808C54.2417 19.1808 52.9668 17.7143 52.9668 15.3962C52.9668 13.0781 54.2889 11.5642 56.3666 11.5642C58.397 11.5642 59.6719 12.9834 59.6719 15.2542V15.7746H54.4778V15.8692C54.4778 17.1466 55.2333 17.9981 56.461 17.9981C57.311 17.9981 57.972 17.5723 58.1609 16.91H59.5775V16.8627Z" fill="#8A859E"/>
<path d="M60.9941 11.6588H62.4107V12.8888H62.4579C62.7885 12.0846 63.544 11.5169 64.5356 11.5169C65.5744 11.5169 66.2827 12.0373 66.566 12.9361H66.6132C66.991 12.0373 67.8409 11.5169 68.8798 11.5169C70.3435 11.5169 71.2879 12.4631 71.2879 13.9296V18.9916H69.8241V14.3081C69.8241 13.3619 69.3047 12.7942 68.4076 12.7942C67.5104 12.7942 66.8965 13.4565 66.8965 14.4027V18.9916H65.4327V14.2135C65.4327 13.3619 64.9133 12.8415 64.0634 12.8415C63.1662 12.8415 62.5524 13.5512 62.5524 14.4973V19.0389H61.0414V11.6588H60.9941Z" fill="#8A859E"/>
<path d="M72.9874 11.6586H74.4984V18.9914H72.9874V11.6586ZM72.8457 9.62437C72.8457 9.15129 73.2235 8.77283 73.6956 8.77283C74.1678 8.77283 74.5456 9.15129 74.5456 9.62437C74.5456 10.0975 74.1678 10.4759 73.6956 10.4759C73.2707 10.4759 72.8457 10.0975 72.8457 9.62437Z" fill="#8A859E"/>
<path d="M82.4781 19.0389H81.0143V17.8089H80.9671C80.5421 18.7077 79.8338 19.1808 78.7006 19.1808C77.0951 19.1808 76.1035 18.14 76.1035 16.4369V11.6588H77.6145V16.1058C77.6145 17.2412 78.1339 17.8089 79.1728 17.8089C80.2588 17.8089 80.9199 17.0519 80.9199 15.9165V11.6115H82.4309V19.0389H82.4781Z" fill="#8A859E"/>
<path d="M84.2266 11.6588H85.6431V12.8888H85.6904C86.0209 12.0846 86.7764 11.5169 87.768 11.5169C88.8068 11.5169 89.5151 12.0373 89.7984 12.9361H89.8457C90.2234 12.0373 91.0734 11.5169 92.1122 11.5169C93.576 11.5169 94.5204 12.4631 94.5204 13.9296V18.9916H93.0093V14.3081C93.0093 13.3619 92.4899 12.7942 91.5928 12.7942C90.6956 12.7942 90.0817 13.4565 90.0817 14.4027V18.9916H88.618V14.2135C88.618 13.3619 88.0985 12.8415 87.2486 12.8415C86.3514 12.8415 85.7376 13.5512 85.7376 14.4973V19.0389H84.2266V11.6588Z" fill="#8A859E"/>
<path d="M41.0192 33.0894C41.1608 34.0829 42.1052 34.6979 43.4274 34.6979C44.7023 34.6979 45.5994 34.0356 45.5994 33.1367C45.5994 32.3325 45.08 31.8594 43.7107 31.5755L42.6246 31.339C40.5942 30.9132 39.697 29.9671 39.697 28.5005C39.697 26.7974 41.2081 25.5674 43.3329 25.5674C45.4578 25.5674 46.9216 26.7974 46.9688 28.5478H45.4578C45.3633 27.5544 44.5134 26.892 43.2857 26.892C42.1052 26.892 41.2553 27.4597 41.2553 28.4059C41.2553 29.1628 41.7747 29.6359 43.0968 29.9198L44.1829 30.1563C46.3077 30.5821 47.1577 31.4336 47.1577 32.9002C47.1577 34.7925 45.6467 35.9752 43.3329 35.9752C41.0664 35.9752 39.5554 34.8398 39.4609 33.0421H41.0192V33.0894Z" fill="#8A859E"/>
<path d="M49.803 31.5282H53.4861C53.4389 30.3928 52.7306 29.6359 51.6918 29.6359C50.6057 29.5886 49.8974 30.3928 49.803 31.5282ZM54.9027 33.7044C54.7138 35.029 53.4389 36.0225 51.739 36.0225C49.5669 36.0225 48.292 34.5559 48.292 32.2378C48.292 29.9197 49.6141 28.4059 51.6918 28.4059C53.7222 28.4059 54.9971 29.8251 54.9971 32.0959V32.6163H49.803V32.7109C49.803 33.9882 50.5585 34.8398 51.7862 34.8398C52.6362 34.8398 53.2972 34.414 53.4861 33.7517H54.9027V33.7044Z" fill="#8A859E"/>
<path d="M56.3652 28.5005H57.7818V29.7778H57.829C58.0651 28.9263 58.7262 28.4059 59.5761 28.4059C59.8122 28.4059 60.0011 28.4532 60.0956 28.4532V29.8724C59.9539 29.8251 59.7178 29.7778 59.4345 29.7778C58.4429 29.7778 57.8762 30.4401 57.8762 31.4809V35.8806H56.3652V28.5005Z" fill="#8A859E"/>
<path d="M65.0079 35.8805H63.3552L60.7109 28.5004H62.3164L64.1579 34.4139H64.2052L66.0467 28.5004H67.605L65.0079 35.8805Z" fill="#8A859E"/>
<path d="M68.738 28.5005H70.249V35.8332H68.738V28.5005ZM68.6436 26.4662C68.6436 25.9931 69.0213 25.6147 69.4935 25.6147C69.9657 25.6147 70.3435 25.9931 70.3435 26.4662C70.3435 26.9393 69.9657 27.3178 69.4935 27.3178C69.0213 27.3178 68.6436 26.9393 68.6436 26.4662Z" fill="#8A859E"/>
<path d="M76.8129 31.0551C76.6713 30.2508 76.0574 29.6358 75.113 29.6358C73.9325 29.6358 73.177 30.6293 73.177 32.1905C73.177 33.7989 73.9325 34.7451 75.113 34.7451C76.0574 34.7451 76.6713 34.2247 76.8129 33.3732H78.2767C78.1351 34.9343 76.8601 36.0224 75.113 36.0224C73.0354 36.0224 71.666 34.6032 71.666 32.1905C71.666 29.8724 73.0354 28.3585 75.113 28.3585C77.0018 28.3585 78.1351 29.5885 78.2767 31.0078H76.8129V31.0551Z" fill="#8A859E"/>
<path d="M80.7327 31.5282H84.4158C84.3686 30.3928 83.6603 29.6359 82.6215 29.6359C81.5354 29.5886 80.8271 30.3928 80.7327 31.5282ZM85.8324 33.7044C85.6435 35.029 84.3686 36.0225 82.6687 36.0225C80.4966 36.0225 79.2217 34.5559 79.2217 32.2378C79.2217 29.9197 80.5438 28.4059 82.6215 28.4059C84.6519 28.4059 85.9268 29.8251 85.9268 32.0959V32.6163H80.7327V32.7109C80.7327 33.9882 81.4882 34.8398 82.7159 34.8398C83.5659 34.8398 84.2269 34.414 84.4158 33.7517H85.8324V33.7044Z" fill="#8A859E"/>
<path d="M92.1588 31.1024H93.9532C95.3225 31.1024 96.078 30.3455 96.078 29.1155C96.078 27.8381 95.3225 27.1285 93.9532 27.1285H92.1588V31.1024ZM94.3781 25.8039C96.3141 25.8039 97.6835 27.1758 97.6835 29.1155C97.6835 31.1024 96.3141 32.427 94.3309 32.427H92.1588V35.8805H90.6006V25.8039H94.3781Z" fill="#8A859E"/>
<path d="M99.0537 28.5005H100.47V29.7778H100.518C100.754 28.9263 101.415 28.4059 102.265 28.4059C102.501 28.4059 102.69 28.4532 102.784 28.4532V29.8724C102.642 29.8251 102.406 29.7778 102.123 29.7778C101.131 29.7778 100.565 30.4401 100.565 31.4809V35.8806H99.0537V28.5005Z" fill="#8A859E"/>
<path d="M108.733 32.1905C108.733 30.582 107.977 29.6358 106.797 29.6358C105.616 29.6358 104.861 30.582 104.861 32.1905C104.861 33.8463 105.616 34.7451 106.797 34.7451C107.977 34.7451 108.733 33.8463 108.733 32.1905ZM103.303 32.1905C103.303 29.8251 104.672 28.3585 106.797 28.3585C108.875 28.3585 110.291 29.8251 110.291 32.1905C110.291 34.5559 108.922 36.0224 106.797 36.0224C104.672 36.0224 103.303 34.5559 103.303 32.1905Z" fill="#8A859E"/>
<path d="M115.107 35.8805H113.455L110.811 28.5004H112.416L114.258 34.4139H114.305L116.146 28.5004H117.705L115.107 35.8805Z" fill="#8A859E"/>
<path d="M118.838 28.5005H120.349V35.8332H118.838V28.5005ZM118.743 26.4662C118.743 25.9931 119.121 25.6147 119.593 25.6147C120.065 25.6147 120.443 25.9931 120.443 26.4662C120.443 26.9393 120.065 27.3178 119.593 27.3178C119.121 27.3178 118.743 26.9393 118.743 26.4662Z" fill="#8A859E"/>
<path d="M123.324 32.1905C123.324 33.7517 124.079 34.6978 125.26 34.6978C126.44 34.6978 127.196 33.7043 127.196 32.1905C127.196 30.6766 126.44 29.6832 125.26 29.6832C124.079 29.6832 123.324 30.6293 123.324 32.1905ZM121.766 32.1905C121.766 29.8724 122.993 28.4058 124.835 28.4058C125.874 28.4058 126.724 28.9262 127.149 29.7305H127.196V25.7566H128.707V35.8332H127.243V34.6032H127.196C126.771 35.4547 125.921 35.9751 124.835 35.9751C122.993 35.9751 121.766 34.5086 121.766 32.1905Z" fill="#8A859E"/>
<path d="M131.633 31.5282H135.316C135.269 30.3928 134.561 29.6359 133.522 29.6359C132.483 29.5886 131.728 30.3928 131.633 31.5282ZM136.733 33.7044C136.544 35.029 135.269 36.0225 133.569 36.0225C131.397 36.0225 130.122 34.5559 130.122 32.2378C130.122 29.9197 131.444 28.4059 133.522 28.4059C135.552 28.4059 136.827 29.8251 136.827 32.0959V32.6163H131.633V32.7109C131.633 33.9882 132.389 34.8398 133.616 34.8398C134.466 34.8398 135.127 34.414 135.316 33.7517H136.733V33.7044Z" fill="#8A859E"/>
<path d="M138.104 28.5005H139.52V29.7778H139.567C139.803 28.9263 140.464 28.4059 141.314 28.4059C141.551 28.4059 141.739 28.4532 141.834 28.4532V29.8724C141.692 29.8251 141.456 29.7778 141.173 29.7778C140.181 29.7778 139.615 30.4401 139.615 31.4809V35.8806H138.104V28.5005Z" fill="#8A859E"/>
</svg>
