<svg width="141" height="51" viewBox="0 0 141 51" fill="none" xmlns="http://www.w3.org/2000/svg">
<path d="M41.2861 44.1385C42.561 44.1385 43.4109 44.9428 43.4109 45.9363C43.4109 46.6932 43.0332 47.1663 41.9471 48.2543L40.5778 49.6263H43.5054V50.5724H39.0667V49.8155L41.2861 47.592C42.0888 46.7878 42.2777 46.4566 42.2777 45.9836C42.2777 45.4159 41.8527 44.9901 41.2388 44.9901C40.5778 44.9901 40.0584 45.4632 40.0584 46.0782H39.0195C39.0195 44.9901 39.9639 44.1385 41.2861 44.1385Z" fill="#202020"/>
<path d="M48.1793 47.4028C48.1793 45.9363 47.7071 45.0374 46.8571 45.0374C46.0072 45.0374 45.4878 45.9363 45.4878 47.4028C45.4878 48.9167 45.9599 49.7682 46.8571 49.7682C47.7071 49.8155 48.1793 48.9167 48.1793 47.4028ZM44.3545 47.4028C44.3545 45.3686 45.2989 44.1385 46.8571 44.1385C48.4153 44.1385 49.3125 45.4159 49.3125 47.4028C49.3125 49.4371 48.3681 50.7144 46.8571 50.7144C45.2989 50.7144 44.3545 49.4371 44.3545 47.4028Z" fill="#202020"/>
<path d="M51.721 45.3212H51.6738L50.0684 46.4566V45.4159L51.721 44.2805H52.8071V50.5724H51.721V45.3212Z" fill="#202020"/>
<path d="M57.907 46.3147C57.907 45.6051 57.3404 45.0374 56.6321 45.0374C55.9238 45.0374 55.3572 45.6051 55.3572 46.2674C55.3572 46.977 55.8766 47.4974 56.6321 47.4974C57.3404 47.5447 57.907 47.0243 57.907 46.3147ZM54.3184 49.0586H55.4516C55.5933 49.579 56.0183 49.8155 56.6321 49.8155C57.6237 49.8155 58.0959 48.8694 58.0959 47.4028C57.8598 48.0178 57.1987 48.4436 56.396 48.4436C55.2155 48.4436 54.3184 47.592 54.3184 46.362C54.3184 45.0847 55.31 44.1385 56.6793 44.1385C57.9542 44.1385 59.2292 45.0374 59.2292 47.3555C59.2292 49.4844 58.2848 50.7144 56.6793 50.7144C55.4044 50.7144 54.5072 50.0521 54.3184 49.0586Z" fill="#202020"/>
<path d="M19.6118 5.67697C20.8395 4.16311 21.6894 2.08155 21.4533 0C19.659 0.0473081 17.5341 1.1827 16.2592 2.69656C15.126 4.02118 14.0871 6.15005 14.3704 8.18429C16.3537 8.32622 18.3841 7.14352 19.6118 5.67697ZM28.8195 26.0194C28.7723 26.1614 28.064 28.5741 26.3641 31.0814C24.9003 33.2576 23.3421 35.3864 20.9339 35.4337C18.573 35.481 17.8175 34.0145 15.0787 34.0145C12.3872 34.0145 11.5373 35.3864 9.27076 35.481C7.00424 35.5284 5.20991 33.1156 3.74611 30.9395C0.676857 26.5398 -1.63689 18.5448 1.47959 13.1043C3.03782 10.4078 5.77654 8.70468 8.79857 8.65737C11.0651 8.61007 13.2372 10.2185 14.6538 10.2185C16.0703 10.2185 18.6674 8.32622 21.4061 8.61007C22.5394 8.65738 25.7975 9.08315 27.8752 12.1109C27.7335 12.2055 24.0032 14.3817 24.0504 18.8759C24.1448 24.2217 28.7723 25.9721 28.8195 26.0194Z" fill="#202020"/>
<path d="M40.6725 13.814H42.4668C43.8362 13.814 44.5917 13.0571 44.5917 11.8271C44.5917 10.5971 43.8362 9.84013 42.4668 9.84013H40.6725V13.814ZM42.8918 8.5155C44.8278 8.5155 46.1971 9.88744 46.1971 11.8271C46.1971 13.814 44.8278 15.1386 42.8446 15.1386H40.6725V18.5921H39.1143V8.5155H42.8918Z" fill="#202020"/>
<path d="M47.6123 11.2121H49.0289V12.4421H49.0761C49.3122 11.5905 49.9733 11.0701 50.8232 11.0701C51.0593 11.0701 51.2482 11.1174 51.3426 11.1174V12.5367C51.201 12.4894 50.9649 12.4421 50.6816 12.4421C49.69 12.4421 49.1233 13.1044 49.1233 14.1452V18.5448H47.6123V11.2121Z" fill="#202020"/>
<path d="M53.6096 14.2398H57.2928C57.2455 13.1044 56.5372 12.3474 55.4984 12.3474C54.4124 12.3001 53.7041 13.1044 53.6096 14.2398ZM58.7093 16.4159C58.5205 17.7406 57.2455 18.734 55.5456 18.734C53.3736 18.734 52.0986 17.2675 52.0986 14.9494C52.0986 12.6313 53.4208 11.1174 55.4984 11.1174C57.5288 11.1174 58.8038 12.5367 58.8038 14.8075V15.3278H53.6096V15.4225C53.6096 16.6998 54.3652 17.5513 55.5929 17.5513C56.4428 17.5513 57.1039 17.1256 57.2928 16.4632H58.7093V16.4159Z" fill="#202020"/>
<path d="M60.126 11.2121H61.5426V12.4421H61.5898C61.9203 11.6378 62.6758 11.0701 63.6674 11.0701C64.7062 11.0701 65.4145 11.5905 65.6978 12.4894H65.7451C66.1228 11.5905 66.9728 11.0701 68.0116 11.0701C69.4754 11.0701 70.4198 12.0163 70.4198 13.4828V18.5448H68.956V13.8613C68.956 12.9151 68.4366 12.3474 67.5394 12.3474C66.6422 12.3474 66.0284 13.0098 66.0284 13.9559V18.5448H64.5646V13.7667C64.5646 12.9151 64.0452 12.3948 63.1952 12.3948C62.2981 12.3948 61.6842 13.1044 61.6842 14.0505V18.5921H60.1732V11.2121H60.126Z" fill="#202020"/>
<path d="M72.1192 11.2118H73.6302V18.5446H72.1192V11.2118ZM71.9775 9.17759C71.9775 8.70451 72.3553 8.32605 72.8275 8.32605C73.2997 8.32605 73.6774 8.70451 73.6774 9.17759C73.6774 9.65067 73.2997 10.0291 72.8275 10.0291C72.4025 10.0291 71.9775 9.65067 71.9775 9.17759Z" fill="#202020"/>
<path d="M81.61 18.5921H80.1462V17.3621H80.0989C79.674 18.2609 78.9657 18.734 77.8324 18.734C76.227 18.734 75.2354 17.6932 75.2354 15.9902V11.212H76.7464V15.659C76.7464 16.7944 77.2658 17.3621 78.3046 17.3621C79.3906 17.3621 80.0517 16.6052 80.0517 15.4698V11.1647H81.5627V18.5921H81.61Z" fill="#202020"/>
<path d="M83.3584 11.2121H84.775V12.4421H84.8222C85.1527 11.6378 85.9082 11.0701 86.8998 11.0701C87.9387 11.0701 88.647 11.5905 88.9303 12.4894H88.9775C89.3552 11.5905 90.2052 11.0701 91.244 11.0701C92.7078 11.0701 93.6522 12.0163 93.6522 13.4828V18.5448H92.1412V13.8613C92.1412 12.9151 91.6218 12.3474 90.7246 12.3474C89.8274 12.3474 89.2136 13.0098 89.2136 13.9559V18.5448H87.7498V13.7667C87.7498 12.9151 87.2304 12.3948 86.3804 12.3948C85.4833 12.3948 84.8694 13.1044 84.8694 14.0505V18.5921H83.3584V11.2121Z" fill="#202020"/>
<path d="M40.151 32.6426C40.2927 33.6361 41.2371 34.2511 42.5592 34.2511C43.8341 34.2511 44.7313 33.5887 44.7313 32.6899C44.7313 31.8857 44.2119 31.4126 42.8425 31.1287L41.7565 30.8922C39.726 30.4664 38.8289 29.5203 38.8289 28.0537C38.8289 26.3506 40.3399 25.1206 42.4648 25.1206C44.5896 25.1206 46.0534 26.3506 46.1006 28.101H44.5896C44.4952 27.1075 43.6452 26.4452 42.4175 26.4452C41.2371 26.4452 40.3871 27.0129 40.3871 27.9591C40.3871 28.716 40.9065 29.1891 42.2287 29.4729L43.3147 29.7095C45.4396 30.1353 46.2895 30.9868 46.2895 32.4534C46.2895 34.3457 44.7785 35.5284 42.4648 35.5284C40.1982 35.5284 38.6872 34.393 38.5928 32.5953H40.151V32.6426Z" fill="#202020"/>
<path d="M48.9348 31.0814H52.6179C52.5707 29.946 51.8624 29.1891 50.8236 29.1891C49.7376 29.1418 49.0293 29.946 48.9348 31.0814ZM54.0345 33.2576C53.8456 34.5822 52.5707 35.5757 50.8708 35.5757C48.6987 35.5757 47.4238 34.1092 47.4238 31.7911C47.4238 29.473 48.746 27.9591 50.8236 27.9591C52.854 27.9591 54.129 29.3783 54.129 31.6491V32.1695H48.9348V32.2641C48.9348 33.5415 49.6904 34.393 50.9181 34.393C51.768 34.393 52.4291 33.9672 52.6179 33.3049H54.0345V33.2576Z" fill="#202020"/>
<path d="M55.4971 28.0537H56.9136V29.331H56.9609C57.197 28.4795 57.858 27.9591 58.708 27.9591C58.9441 27.9591 59.133 28.0064 59.2274 28.0064V29.4257C59.0857 29.3783 58.8496 29.331 58.5663 29.331C57.5747 29.331 57.0081 29.9934 57.0081 31.0341V35.4338H55.4971V28.0537Z" fill="#202020"/>
<path d="M64.1397 35.4337H62.4871L59.8428 28.0536H61.4482L63.2898 33.9672H63.337L65.1786 28.0536H66.7368L64.1397 35.4337Z" fill="#202020"/>
<path d="M67.8698 28.0537H69.3808V35.3864H67.8698V28.0537ZM67.7754 26.0195C67.7754 25.5464 68.1531 25.1679 68.6253 25.1679C69.0975 25.1679 69.4753 25.5464 69.4753 26.0195C69.4753 26.4925 69.0975 26.871 68.6253 26.871C68.1531 26.871 67.7754 26.4925 67.7754 26.0195Z" fill="#202020"/>
<path d="M75.9448 30.6083C75.8031 29.8041 75.1892 29.1891 74.2449 29.1891C73.0644 29.1891 72.3089 30.1825 72.3089 31.7437C72.3089 33.3522 73.0644 34.2983 74.2449 34.2983C75.1892 34.2983 75.8031 33.7779 75.9448 32.9264H77.4086C77.2669 34.4876 75.992 35.5757 74.2449 35.5757C72.1672 35.5757 70.7979 34.1564 70.7979 31.7437C70.7979 29.4256 72.1672 27.9117 74.2449 27.9117C76.1336 27.9117 77.2669 29.1418 77.4086 30.561H75.9448V30.6083Z" fill="#202020"/>
<path d="M79.8645 31.0814H83.5476C83.5004 29.946 82.7921 29.1891 81.7533 29.1891C80.6673 29.1418 79.959 29.946 79.8645 31.0814ZM84.9642 33.2576C84.7753 34.5822 83.5004 35.5757 81.8005 35.5757C79.6284 35.5757 78.3535 34.1092 78.3535 31.7911C78.3535 29.473 79.6757 27.9591 81.7533 27.9591C83.7837 27.9591 85.0587 29.3783 85.0587 31.6491V32.1695H79.8645V32.2641C79.8645 33.5415 80.62 34.393 81.8477 34.393C82.6977 34.393 83.3588 33.9672 83.5476 33.3049H84.9642V33.2576Z" fill="#202020"/>
<path d="M91.2907 30.6556H93.085C94.4543 30.6556 95.2099 29.8987 95.2099 28.6687C95.2099 27.3914 94.4543 26.6817 93.085 26.6817H91.2907V30.6556ZM93.51 25.3571C95.4459 25.3571 96.8153 26.7291 96.8153 28.6687C96.8153 30.6556 95.4459 31.9802 93.4627 31.9802H91.2907V35.4337H89.7324V25.3571H93.51Z" fill="#202020"/>
<path d="M98.1855 28.0537H99.6021V29.331H99.6493C99.8854 28.4795 100.547 27.9591 101.396 27.9591C101.633 27.9591 101.821 28.0064 101.916 28.0064V29.4257C101.774 29.3783 101.538 29.331 101.255 29.331C100.263 29.331 99.6966 29.9934 99.6966 31.0341V35.4338H98.1855V28.0537Z" fill="#202020"/>
<path d="M107.865 31.7437C107.865 30.1352 107.109 29.1891 105.929 29.1891C104.748 29.1891 103.993 30.1352 103.993 31.7437C103.993 33.3995 104.748 34.2983 105.929 34.2983C107.109 34.2983 107.865 33.3995 107.865 31.7437ZM102.435 31.7437C102.435 29.3783 103.804 27.9117 105.929 27.9117C108.006 27.9117 109.423 29.3783 109.423 31.7437C109.423 34.1091 108.054 35.5757 105.929 35.5757C103.804 35.5757 102.435 34.1091 102.435 31.7437Z" fill="#202020"/>
<path d="M114.239 35.4337H112.587L109.942 28.0536H111.548L113.389 33.9672H113.437L115.278 28.0536H116.836L114.239 35.4337Z" fill="#202020"/>
<path d="M117.969 28.0537H119.48V35.3864H117.969V28.0537ZM117.875 26.0195C117.875 25.5464 118.253 25.1679 118.725 25.1679C119.197 25.1679 119.575 25.5464 119.575 26.0195C119.575 26.4925 119.197 26.871 118.725 26.871C118.253 26.871 117.875 26.4925 117.875 26.0195Z" fill="#202020"/>
<path d="M122.456 31.7437C122.456 33.3049 123.211 34.251 124.392 34.251C125.572 34.251 126.328 33.2576 126.328 31.7437C126.328 30.2299 125.572 29.2364 124.392 29.2364C123.211 29.2364 122.456 30.1825 122.456 31.7437ZM120.897 31.7437C120.897 29.4256 122.125 27.9591 123.967 27.9591C125.006 27.9591 125.855 28.4795 126.28 29.2837H126.328V25.3098H127.839V35.3864H126.375V34.1564H126.328C125.903 35.008 125.053 35.5284 123.967 35.5284C122.125 35.5284 120.897 34.0618 120.897 31.7437Z" fill="#202020"/>
<path d="M130.765 31.0814H134.448C134.401 29.946 133.693 29.1891 132.654 29.1891C131.615 29.1418 130.859 29.946 130.765 31.0814ZM135.865 33.2576C135.676 34.5822 134.401 35.5757 132.701 35.5757C130.529 35.5757 129.254 34.1092 129.254 31.7911C129.254 29.473 130.576 27.9591 132.654 27.9591C134.684 27.9591 135.959 29.3783 135.959 31.6491V32.1695H130.765V32.2641C130.765 33.5415 131.52 34.393 132.748 34.393C133.598 34.393 134.259 33.9672 134.448 33.3049H135.865V33.2576Z" fill="#202020"/>
<path d="M137.235 28.0537H138.652V29.331H138.699C138.935 28.4795 139.596 27.9591 140.446 27.9591C140.682 27.9591 140.871 28.0064 140.966 28.0064V29.4257C140.824 29.3783 140.588 29.331 140.305 29.331C139.313 29.331 138.746 29.9934 138.746 31.0341V35.4338H137.235V28.0537Z" fill="#202020"/>
</svg>
