<svg width="35" height="49" viewBox="0 0 35 49" fill="none" xmlns="http://www.w3.org/2000/svg">
<path d="M26.8484 31.9832C26.4153 31.9832 26.0651 32.3333 26.0651 32.7665L26.0667 37.0333H2.56667V7.26667H26.0667V10.7502C26.0667 11.1833 26.4168 11.5335 26.85 11.5335C27.2832 11.5335 27.6333 11.1833 27.6333 10.7502V4.45058C27.6333 2.54865 26.0847 1 24.1828 1H4.45058C2.54865 1 1 2.54865 1 4.45058V44.5486C1 46.4514 2.54865 48 4.45058 48H24.182C26.0847 48 27.6325 46.4514 27.6325 44.5494L27.631 32.7665C27.6318 32.3333 27.2816 31.9832 26.8484 31.9832ZM4.45058 2.56667H24.182C25.2215 2.56667 26.0667 3.41188 26.0667 4.45058V5.7H2.56667V4.45058C2.56667 3.41188 3.41188 2.56667 4.45058 2.56667ZM24.1828 46.4333H4.45058C3.41188 46.4333 2.56667 45.5881 2.56667 44.5494V38.6H26.0667V44.5494C26.0667 45.5881 25.2215 46.4333 24.1828 46.4333Z" fill="#3B1FD3" stroke="#3B1FD3" stroke-width="0.5"/>
<path d="M14.3169 39.3833C12.5889 39.3833 11.1836 40.7886 11.1836 42.5167C11.1836 44.2447 12.5889 45.65 14.3169 45.65C16.045 45.65 17.4503 44.2447 17.4503 42.5167C17.4503 40.7886 16.045 39.3833 14.3169 39.3833ZM14.3169 44.0833C13.4529 44.0833 12.7503 43.3807 12.7503 42.5167C12.7503 41.6526 13.4529 40.95 14.3169 40.95C15.1809 40.95 15.8836 41.6526 15.8836 42.5167C15.8836 43.3807 15.1809 44.0833 14.3169 44.0833Z" fill="#3B1FD3"/>
<path d="M11.1837 4.91667H14.3171C14.7502 4.91667 15.1004 4.56652 15.1004 4.13334C15.1004 3.70016 14.7502 3.35001 14.3171 3.35001H11.1837C10.7505 3.35001 10.4004 3.70016 10.4004 4.13334C10.4004 4.56652 10.7505 4.91667 11.1837 4.91667Z" fill="#3B1FD3"/>
<path d="M16.6671 4.91667H17.4505C17.8836 4.91667 18.2338 4.56652 18.2338 4.13334C18.2338 3.70016 17.8836 3.35001 17.4505 3.35001H16.6671C16.2339 3.35001 15.8838 3.70016 15.8838 4.13334C15.8838 4.56652 16.2339 4.91667 16.6671 4.91667Z" fill="#3B1FD3"/>
<path d="M33.6914 21.8497C33.6914 17.2567 29.968 13.5333 25.375 13.5333C20.7819 13.5333 17.0586 17.2567 17.0586 21.8497C17.0586 26.4428 20.7819 30.1661 25.375 30.1661C29.9658 30.1608 33.6861 26.4405 33.6914 21.8497ZM18.338 21.8497C18.338 17.9633 21.4886 14.8128 25.375 14.8128C29.2614 14.8128 32.4119 17.9633 32.4119 21.8497C32.4119 25.7361 29.2614 28.8867 25.375 28.8867C21.4905 28.8821 18.3426 25.7342 18.338 21.8497Z" fill="#FF2424" stroke="#FF2424" stroke-width="0.7"/>
<path d="M25.6213 24.7103C25.2586 25.073 24.6701 25.073 24.3075 24.7103L22.272 22.6747C21.9093 22.3122 21.9093 21.7236 22.272 21.3611C22.6346 20.9984 23.2231 20.9984 23.5858 21.3611L24.7985 22.5737C24.8901 22.6651 25.0387 22.6651 25.1304 22.5737L28.4142 19.2899C28.7767 18.9271 29.3653 18.9271 29.728 19.2899C29.9021 19.464 30 19.7004 30 19.9467C30 20.193 29.9021 20.4293 29.728 20.6035L25.6213 24.7103Z" fill="#FF2424"/>
</svg>
