<svg width="52" height="23" viewBox="0 0 52 23" fill="none" xmlns="http://www.w3.org/2000/svg">
<path d="M5.12891 4.31934H8.89355C11.0908 4.31934 12.4678 5.6377 12.4678 7.68848C12.4678 9.7832 11.1641 11.0576 8.9375 11.0576H5.12891V4.31934ZM5.12891 14.2656H8.67383L12.6143 22H17.624L13.1709 13.6064C15.6025 12.6543 17.0088 10.3105 17.0088 7.60059C17.0088 3.42578 14.2256 0.862305 9.3623 0.862305H0.705078V22H5.12891V14.2656ZM26.457 9.12402C28.3613 9.12402 29.665 10.501 29.7529 12.5078H23.0879C23.2344 10.5449 24.582 9.12402 26.457 9.12402ZM29.8115 17.1953C29.416 18.3965 28.2148 19.1729 26.6475 19.1729C24.4648 19.1729 23.0439 17.6348 23.0439 15.3936V15.1299H33.8691V13.8262C33.8691 9.05078 30.9834 5.95996 26.4131 5.95996C21.7695 5.95996 18.8398 9.21191 18.8398 14.2217C18.8398 19.2461 21.7402 22.3369 26.5742 22.3369C30.4561 22.3369 33.2686 20.2715 33.7373 17.1953H29.8115ZM41.9111 22.249C44.2256 22.249 46.042 21.0332 46.8037 19.3047H46.877V22H51.0957V0.862305H46.8184V8.99219H46.7305C45.9688 7.24902 44.2109 6.04785 41.9404 6.04785C38 6.04785 35.5098 9.13867 35.5098 14.1191C35.5098 19.1436 37.9854 22.249 41.9111 22.249ZM43.3613 9.47559C45.4854 9.47559 46.8477 11.292 46.8477 14.1484C46.8477 17.0195 45.4854 18.8066 43.3613 18.8066C41.208 18.8066 39.8896 17.0342 39.8896 14.1484C39.8896 11.2773 41.208 9.47559 43.3613 9.47559Z" fill="white"/>
</svg>
