<svg width="9" height="11" viewBox="0 0 9 11" fill="none" xmlns="http://www.w3.org/2000/svg">
<path fill-rule="evenodd" clip-rule="evenodd" d="M1.05172 0H5.46552C6.27031 0 7.04214 0.318704 7.61122 0.886002C8.1803 1.4533 8.5 2.22272 8.5 3.025C8.5 3.82728 8.1803 4.5967 7.61122 5.164C7.04214 5.7313 6.27031 6.05 5.46552 6.05H2.15517V6.71H6.34828V7.81H2.15517V11H1.05172V7.81H0.5V6.71H1.05172V6.05H0.5V4.95H1.05172V0ZM2.15517 1.1H5.46552C5.97766 1.1 6.46883 1.30281 6.83096 1.66382C7.1931 2.02483 7.39655 2.51446 7.39655 3.025C7.39655 3.53554 7.1931 4.02517 6.83096 4.38618C6.46883 4.74719 5.97766 4.95 5.46552 4.95H2.15517V1.1Z" fill="#D6DDEA"/>
</svg>
