<svg width="78" height="38" viewBox="0 0 78 38" fill="none" xmlns="http://www.w3.org/2000/svg">
<path d="M8.12025 36.6056C9.45188 36.6056 10.3921 35.8824 10.6091 34.6799H10.0262C9.84329 35.5358 9.10302 36.0622 8.12451 36.0622C6.8184 36.0622 5.98029 35.0308 5.98029 33.4047C5.98029 31.8 6.8184 30.7772 8.12025 30.7772C9.07324 30.7772 9.85605 31.402 10.0262 32.2921H10.6091C10.4432 31.0853 9.41785 30.2337 8.12025 30.2337C6.45253 30.2337 5.38467 31.4705 5.38467 33.4047C5.38467 35.3604 6.44827 36.6056 8.12025 36.6056Z" fill="#8A859E"/>
<path d="M13.1702 32.4804C13.9701 32.4804 14.5019 33.0923 14.5146 33.9696H11.7833C11.8301 33.0923 12.3789 32.4804 13.1702 32.4804ZM14.4806 35.2448C14.3572 35.7327 13.8935 36.0836 13.2255 36.0836C12.3449 36.0836 11.779 35.4588 11.779 34.4531V34.4189H15.0932V34.1793C15.0932 32.8527 14.353 31.984 13.1787 31.984C11.979 31.984 11.2004 32.9126 11.2004 34.2948C11.2004 35.707 11.9705 36.58 13.2128 36.58C14.187 36.58 14.906 36.0151 15.0379 35.2448H14.4806Z" fill="#8A859E"/>
<path d="M18.0032 31.984C17.2842 31.984 16.7227 32.4076 16.4802 32.9982H16.4631V32.0567H15.9313V37.9793H16.4929V35.5914H16.5099C16.7439 36.1691 17.3013 36.58 18.016 36.58C19.1264 36.58 19.8879 35.6685 19.8879 34.282C19.8879 32.8998 19.1222 31.984 18.0032 31.984ZM17.9054 36.0793C17.0673 36.0793 16.4929 35.3561 16.4929 34.282C16.4929 33.2121 17.0673 32.4847 17.9054 32.4847C18.7605 32.4847 19.3136 33.1993 19.3136 34.282C19.3136 35.3689 18.7605 36.0793 17.9054 36.0793Z" fill="#8A859E"/>
<path d="M22.4363 32.5232C22.9852 32.5232 23.2915 32.7799 23.2915 33.225C23.2915 33.7085 22.9596 33.9739 22.3555 33.9739H21.2749V32.5232H22.4363ZM22.398 34.436C23.1085 34.436 23.4999 34.7013 23.4999 35.232C23.4999 35.7626 23.1511 36.0408 22.5002 36.0408H21.2749V34.436H22.398ZM20.7176 36.5072H22.5257C23.4787 36.5072 24.053 36.0408 24.053 35.2448C24.053 34.65 23.6361 34.2563 23.066 34.1921V34.1621C23.517 34.0766 23.8403 33.6615 23.8403 33.1736C23.8403 32.4804 23.334 32.0567 22.5044 32.0567H20.7176V36.5072Z" fill="#8A859E"/>
<path d="M25.4527 36.5072L27.9203 32.9297H27.9458V36.5072H28.5031V32.0567H27.9458L25.4825 35.6342H25.4527V32.0567H24.8954V36.5072H25.4527Z" fill="#8A859E"/>
<path d="M33.1362 33.379C32.9873 32.6216 32.3321 31.984 31.328 31.984C30.1198 31.984 29.3327 32.8912 29.3327 34.282C29.3327 35.6941 30.1198 36.58 31.3323 36.58C32.2853 36.58 32.9788 36.0194 33.1362 35.2191H32.5746C32.4214 35.7455 31.9747 36.0793 31.3366 36.0793C30.4687 36.0793 29.9071 35.386 29.9071 34.282C29.9071 33.195 30.4644 32.4847 31.328 32.4847C32.0002 32.4847 32.4342 32.8784 32.5788 33.379H33.1362Z" fill="#8A859E"/>
<path d="M36.9226 36.5072H37.4799V32.0567H36.9226V33.9653H34.4891V32.0567H33.9317V36.5072H34.4891V34.436H36.9226V36.5072Z" fill="#8A859E"/>
<path d="M42.3129 36.5072H42.8703V32.0567H42.3129V36.5072ZM40.0453 34.038C40.6835 34.038 41.1004 34.4317 41.1004 35.0351C41.1004 35.6385 40.6877 36.0365 40.0453 36.0365H39.0923V34.038H40.0453ZM38.535 36.5072H40.0538C41.0281 36.5072 41.6577 35.9381 41.6577 35.0351C41.6577 34.1322 41.0281 33.5673 40.0538 33.5673H39.0923V32.0567H38.535V36.5072Z" fill="#8A859E"/>
<path d="M44.4784 36.5072L46.946 32.9297H46.9715V36.5072H47.5288V32.0567H46.9715L44.5082 35.6342H44.4784V32.0567H43.9211V36.5072H44.4784ZM44.5507 30.1396C44.5507 30.8714 45.0613 31.3592 45.8313 31.3592C46.5971 31.3592 47.1076 30.8714 47.1076 30.1396H46.678C46.678 30.6446 46.3504 31.0083 45.8313 31.0083C45.308 31.0083 44.9804 30.6446 44.9804 30.1396H44.5507Z" fill="#8A859E"/>
<path d="M54.5614 37.684V36.0365H53.8424V32.0567H53.285V36.0365H50.9196V32.0567H50.3623V36.5072H54.0338V37.684H54.5614Z" fill="#8A859E"/>
<path d="M56.9481 32.4804C57.7479 32.4804 58.2797 33.0923 58.2925 33.9696H55.5612C55.608 33.0923 56.1568 32.4804 56.9481 32.4804ZM58.2584 35.2448C58.1351 35.7327 57.6713 36.0836 57.0034 36.0836C56.1227 36.0836 55.5569 35.4588 55.5569 34.4531V34.4189H58.8711V34.1793C58.8711 32.8527 58.1308 31.984 56.9566 31.984C55.7569 31.984 54.9783 32.9126 54.9783 34.2948C54.9783 35.707 55.7483 36.58 56.9906 36.58C57.9649 36.58 58.6839 36.0151 58.8158 35.2448H58.2584Z" fill="#8A859E"/>
<path d="M62.6958 36.5072H63.2531V32.0567H62.6958V33.9653H60.2623V32.0567H59.7049V36.5072H60.2623V34.436H62.6958V36.5072Z" fill="#8A859E"/>
<path d="M67.5203 32.0567H63.9508V32.5275H65.4569V36.5072H66.0142V32.5275H67.5203V32.0567Z" fill="#8A859E"/>
<path d="M70.2899 31.984C69.5709 31.984 69.0093 32.4076 68.7668 32.9982H68.7498V32.0567H68.218V37.9793H68.7796V35.5914H68.7966C69.0306 36.1691 69.5879 36.58 70.3027 36.58C71.4131 36.58 72.1746 35.6685 72.1746 34.282C72.1746 32.8998 71.4088 31.984 70.2899 31.984ZM70.1921 36.0793C69.3539 36.0793 68.7796 35.3561 68.7796 34.282C68.7796 33.2121 69.3539 32.4847 70.1921 32.4847C71.0472 32.4847 71.6003 33.1993 71.6003 34.282C71.6003 35.3689 71.0472 36.0793 70.1921 36.0793Z" fill="#8A859E"/>
<path d="M64.5366 9.67862L64.3852 0.882465H67.1421V11.9701H63.1782L60.4258 2.87151H60.3657L60.5193 11.9701H57.778V0.882465H61.9156L64.4765 9.67862H64.5366Z" fill="#8A859E"/>
<path d="M14.4094 1.92179L12.884 12.0865H9.87547L11.9398 0.882465H16.8946L18.9522 12.0865H15.9549L14.4718 1.92179H14.4094Z" fill="#8A859E"/>
<path d="M27.399 9.44791L28.7752 0.882465H33.318L33.5585 12.0865H30.7749L30.7015 2.01362H30.6436L28.7819 12.0865H25.956L24.0921 2.01362H24.0319L23.9629 12.0865H21.1726L21.4198 0.882465H25.9649L27.3389 9.44791H27.399Z" fill="#8A859E"/>
<path d="M5.18574 8.92601C5.29486 9.19704 5.26146 9.54647 5.21024 9.75702C5.11671 10.1288 4.86507 10.5096 4.12575 10.5096C3.42651 10.5096 3.0034 10.1064 3.0034 9.49271V8.40859H0.014923L0.0126953 9.27544C0.0126953 11.7729 1.9679 12.5278 4.06339 12.5278C6.07872 12.5278 7.73775 11.8357 8.00052 9.96757C8.13636 8.99993 8.03392 8.36603 7.98939 8.12636C7.51951 5.78117 3.29067 5.08008 2.97668 3.76972C2.92323 3.54573 2.93882 3.30606 2.96554 3.17839C3.04348 2.82224 3.28621 2.42801 3.98323 2.42801C4.63348 2.42801 5.01873 2.83344 5.01873 3.44494C5.01873 3.65101 5.01873 4.13707 5.01873 4.13707H7.79565V3.35086C7.79565 0.90935 5.61776 0.528564 4.04112 0.528564C2.0592 0.528564 0.440257 1.1871 0.144082 3.01039C0.0639141 3.51437 0.0527792 3.96236 0.168577 4.52458C0.656264 6.81153 4.61121 7.47455 5.18574 8.92601Z" fill="#8A859E"/>
<path d="M41.406 8.90584C41.5151 9.17463 41.4795 9.5151 41.4305 9.72566C41.3392 10.0975 41.0898 10.4715 40.3549 10.4715C39.6668 10.4715 39.2459 10.0684 39.2459 9.46806L39.2437 8.3929H36.2864L36.282 9.24855C36.282 11.7214 38.2193 12.4673 40.2926 12.4673C42.2856 12.4673 43.9291 11.7841 44.1896 9.93397C44.3254 8.97304 44.2297 8.34811 44.1807 8.11291C43.7131 5.79012 39.5287 5.09575 39.217 3.7966C39.1635 3.5726 39.1791 3.33741 39.2059 3.21646C39.286 2.85583 39.5243 2.47281 40.2146 2.47281C40.8604 2.47281 41.2368 2.86703 41.2368 3.47629C41.2368 3.68012 41.2368 4.1617 41.2368 4.1617H43.9936V3.38221C43.9936 0.967581 41.8336 0.589035 40.2703 0.589035C38.3106 0.589035 36.7051 1.23861 36.4156 3.0507C36.3354 3.54797 36.3265 3.98699 36.4423 4.54697C36.9211 6.81152 40.8382 7.47006 41.406 8.90584Z" fill="#8A859E"/>
<path d="M50.7612 10.4111C51.5339 10.4111 51.7744 9.87349 51.8279 9.59798C51.8501 9.47703 51.8568 9.31575 51.8546 9.17016V0.877987H54.6716V8.91481C54.6783 9.12088 54.6582 9.54422 54.6471 9.6495C54.4489 11.7416 52.8055 12.4203 50.759 12.4203C48.7102 12.4203 47.0646 11.7416 46.8686 9.6495C46.8597 9.54422 46.8397 9.11864 46.8441 8.91481V0.877987H49.6589V9.16792C49.6589 9.31351 49.6633 9.47703 49.6856 9.59574C49.748 9.87125 49.9818 10.4111 50.7612 10.4111Z" fill="#8A859E"/>
<path d="M73.9986 10.2924C74.8047 10.2924 75.0875 9.77941 75.1388 9.4815C75.1588 9.35383 75.1655 9.19703 75.1633 9.05592V7.42974H74.0209V5.7946H77.9714V8.80281C77.9691 9.01336 77.9647 9.16792 77.9313 9.54198C77.7464 11.5803 75.9872 12.3083 74.0142 12.3083C72.0367 12.3083 70.2819 11.5803 70.0927 9.54198C70.0615 9.16792 70.057 9.01336 70.0526 8.80281L70.0548 4.08555C70.0548 3.88619 70.0793 3.53453 70.1016 3.34637C70.3487 1.25205 72.0367 0.577835 74.0142 0.577835C75.9894 0.577835 77.7197 1.24757 77.9246 3.34637C77.9602 3.70252 77.9491 4.08555 77.9491 4.08555V4.45961H75.141V3.83243C75.1432 3.83467 75.1365 3.56588 75.1054 3.40685C75.0586 3.15822 74.8448 2.58928 73.9942 2.58928C73.1813 2.58928 72.9453 3.12686 72.8852 3.40685C72.8518 3.55468 72.8384 3.75404 72.8384 3.93547V9.0604C72.8362 9.20151 72.8451 9.35831 72.8673 9.48598C72.9119 9.77941 73.1925 10.2924 73.9986 10.2924Z" fill="#8A859E"/>
</svg>
