<svg width="102" height="49" viewBox="0 0 102 49" fill="none" xmlns="http://www.w3.org/2000/svg">
<path d="M10.6078 47.2027C12.3501 47.2027 13.5803 46.2565 13.8642 44.6832H13.1016C12.8622 45.803 11.8937 46.4917 10.6134 46.4917C8.90449 46.4917 7.80791 45.1423 7.80791 43.0147C7.80791 40.9151 8.90449 39.5769 10.6078 39.5769C11.8547 39.5769 12.8789 40.3944 13.1016 41.5589H13.8642C13.6471 39.98 12.3056 38.8658 10.6078 38.8658C8.42578 38.8658 7.02861 40.4839 7.02861 43.0147C7.02861 45.5734 8.42022 47.2027 10.6078 47.2027Z" fill="#8A859E"/>
<path d="M17.2151 41.8053C18.2616 41.8053 18.9574 42.606 18.9741 43.7537H15.4005C15.4617 42.606 16.1798 41.8053 17.2151 41.8053ZM18.9296 45.4222C18.7682 46.0605 18.1614 46.5196 17.2875 46.5196C16.1353 46.5196 15.3949 45.7022 15.3949 44.3864V44.3416H19.7312V44.0281C19.7312 42.2924 18.7626 41.1558 17.2263 41.1558C15.6565 41.1558 14.6379 42.3708 14.6379 44.1793C14.6379 46.0269 15.6454 47.1691 17.2708 47.1691C18.5455 47.1691 19.4862 46.4301 19.6588 45.4222H18.9296Z" fill="#8A859E"/>
<path d="M23.5386 41.1558C22.5979 41.1558 21.8631 41.7101 21.5458 42.4828H21.5235V41.251H20.8277V49H21.5625V45.8758H21.5848C21.8909 46.6316 22.6201 47.1691 23.5553 47.1691C25.0081 47.1691 26.0045 45.9765 26.0045 44.1625C26.0045 42.354 25.0025 41.1558 23.5386 41.1558ZM23.4105 46.514C22.314 46.514 21.5625 45.5678 21.5625 44.1625C21.5625 42.7627 22.314 41.8109 23.4105 41.8109C24.5294 41.8109 25.253 42.7459 25.253 44.1625C25.253 45.5846 24.5294 46.514 23.4105 46.514Z" fill="#8A859E"/>
<path d="M29.3388 41.8613C30.0568 41.8613 30.4576 42.1972 30.4576 42.7795C30.4576 43.4122 30.0234 43.7593 29.233 43.7593H27.8191V41.8613H29.3388ZM29.2887 44.364C30.2183 44.364 30.7304 44.7112 30.7304 45.4054C30.7304 46.0997 30.2739 46.4637 29.4223 46.4637H27.8191V44.364H29.2887ZM27.0899 47.0739H29.4557C30.7025 47.0739 31.454 46.4637 31.454 45.4222C31.454 44.644 30.9085 44.1289 30.1626 44.0449V44.0057C30.7526 43.8937 31.1757 43.3506 31.1757 42.7123C31.1757 41.8053 30.5133 41.251 29.4278 41.251H27.0899V47.0739Z" fill="#8A859E"/>
<path d="M33.2854 47.0739L36.5139 42.3932H36.5473V47.0739H37.2765V41.251H36.5473L33.3243 45.9318H33.2854V41.251H32.5562V47.0739H33.2854Z" fill="#8A859E"/>
<path d="M43.3383 42.9811C43.1435 41.9901 42.2862 41.1558 40.9726 41.1558C39.3917 41.1558 38.3619 42.3428 38.3619 44.1625C38.3619 46.0101 39.3917 47.1691 40.9781 47.1691C42.225 47.1691 43.1323 46.4357 43.3383 45.3887H42.6035C42.4031 46.0773 41.8187 46.514 40.9837 46.514C39.8481 46.514 39.1134 45.607 39.1134 44.1625C39.1134 42.7403 39.8426 41.8109 40.9726 41.8109C41.8521 41.8109 42.4198 42.326 42.6091 42.9811H43.3383Z" fill="#8A859E"/>
<path d="M48.2924 47.0739H49.0216V41.251H48.2924V43.7481H45.1084V41.251H44.3792V47.0739H45.1084V44.364H48.2924V47.0739Z" fill="#8A859E"/>
<path d="M55.345 47.0739H56.0742V41.251H55.345V47.0739ZM52.3781 43.8433C53.2131 43.8433 53.7586 44.3584 53.7586 45.1479C53.7586 45.9374 53.2187 46.4581 52.3781 46.4581H51.1313V43.8433H52.3781ZM50.4021 47.0739H52.3893C53.664 47.0739 54.4878 46.3293 54.4878 45.1479C54.4878 43.9665 53.664 43.2274 52.3893 43.2274H51.1313V41.251H50.4021V47.0739Z" fill="#8A859E"/>
<path d="M58.1783 47.0739L61.4068 42.3932H61.4402V47.0739H62.1694V41.251H61.4402L58.2173 45.9318H58.1783V41.251H57.4491V47.0739H58.1783ZM58.273 38.7427C58.273 39.7001 58.9409 40.3384 59.9484 40.3384C60.9504 40.3384 61.6184 39.7001 61.6184 38.7427H61.0562C61.0562 39.4033 60.6275 39.8792 59.9484 39.8792C59.2638 39.8792 58.8352 39.4033 58.8352 38.7427H58.273Z" fill="#8A859E"/>
<path d="M71.3707 48.6137V46.4581H70.43V41.251H69.7008V46.4581H66.6059V41.251H65.8767V47.0739H70.6805V48.6137H71.3707Z" fill="#8A859E"/>
<path d="M74.4935 41.8053C75.5399 41.8053 76.2357 42.606 76.2524 43.7537H72.6788C72.74 42.606 73.4581 41.8053 74.4935 41.8053ZM76.2079 45.4222C76.0465 46.0605 75.4398 46.5196 74.5658 46.5196C73.4136 46.5196 72.6732 45.7022 72.6732 44.3864V44.3416H77.0095V44.0281C77.0095 42.2924 76.0409 41.1558 74.5046 41.1558C72.9349 41.1558 71.9162 42.3708 71.9162 44.1793C71.9162 46.0269 72.9237 47.1691 74.5491 47.1691C75.8238 47.1691 76.7645 46.4301 76.9371 45.4222H76.2079Z" fill="#8A859E"/>
<path d="M82.0137 47.0739H82.7429V41.251H82.0137V43.7481H78.8297V41.251H78.1005V47.0739H78.8297V44.364H82.0137V47.0739Z" fill="#8A859E"/>
<path d="M88.326 41.251H83.6558V41.8669H85.6263V47.0739H86.3555V41.8669H88.326V41.251Z" fill="#8A859E"/>
<path d="M91.9497 41.1558C91.009 41.1558 90.2742 41.7101 89.9569 42.4828H89.9347V41.251H89.2389V49H89.9736V45.8758H89.9959C90.3021 46.6316 91.0312 47.1691 91.9664 47.1691C93.4192 47.1691 94.4156 45.9765 94.4156 44.1625C94.4156 42.354 93.4137 41.1558 91.9497 41.1558ZM91.8217 46.514C90.7251 46.514 89.9736 45.5678 89.9736 44.1625C89.9736 42.7627 90.7251 41.8109 91.8217 41.8109C92.9405 41.8109 93.6642 42.7459 93.6642 44.1625C93.6642 45.5846 92.9405 46.514 91.8217 46.514Z" fill="#8A859E"/>
<path d="M84.4222 11.9718L84.2241 0.463039H87.8311V14.9699H82.6449L79.0436 3.06548H78.965L79.166 14.9699H75.5793V0.463039H80.9929L84.3435 11.9718H84.4222Z" fill="#8A859E"/>
<path d="M18.8364 1.82287L16.8406 15.1223H12.9043L15.6052 0.463039H22.088L24.7802 15.1223H20.8585L18.918 1.82287H18.8364Z" fill="#8A859E"/>
<path d="M35.8318 11.6699L37.6325 0.463039H43.5762L43.8909 15.1223H40.2489L40.1527 1.94303H40.077L37.6412 15.1223H33.9438L31.5051 1.94303H31.4264L31.3361 15.1223H27.6854L28.0088 0.463039H33.9555L35.7532 11.6699H35.8318Z" fill="#8A859E"/>
<path d="M6.76834 10.9871C6.91111 11.3417 6.8674 11.7989 6.80039 12.0744C6.67802 12.5609 6.34878 13.0591 5.38146 13.0591C4.46658 13.0591 3.91299 12.5316 3.91299 11.7286V10.3101H0.00291469L0 11.4443C0 14.712 2.55816 15.6996 5.29988 15.6996C7.9367 15.6996 10.1073 14.794 10.4512 12.3499C10.6289 11.0838 10.4949 10.2544 10.4366 9.94085C9.82181 6.87243 4.28885 5.95513 3.87803 4.24069C3.8081 3.94762 3.8285 3.63404 3.86346 3.46699C3.96544 3.00101 4.28302 2.48521 5.19499 2.48521C6.04576 2.48521 6.54982 3.01567 6.54982 3.81574C6.54982 4.08536 6.54982 4.72132 6.54982 4.72132H10.1831V3.69265C10.1831 0.498215 7.33358 0 5.27074 0C2.67762 0 0.559416 0.86162 0.171904 3.24719C0.067014 3.90659 0.0524452 4.49273 0.203953 5.22832C0.842036 8.22054 6.01663 9.08803 6.76834 10.9871Z" fill="#8A859E"/>
<path d="M54.1584 10.9607C54.3012 11.3124 54.2546 11.7579 54.1905 12.0333C54.071 12.5198 53.7447 13.0093 52.7832 13.0093C51.8829 13.0093 51.3322 12.4817 51.3322 11.6963L51.3293 10.2896H47.46L47.4542 11.4091C47.4542 14.6446 49.989 15.6205 52.7016 15.6205C55.3093 15.6205 57.4595 14.7266 57.8004 12.3059C57.9782 11.0486 57.8529 10.231 57.7888 9.92326C57.1769 6.88415 51.7022 5.97564 51.2943 4.27585C51.2244 3.98278 51.2448 3.67506 51.2798 3.5168C51.3847 3.04496 51.6964 2.54382 52.5996 2.54382C53.4446 2.54382 53.937 3.05962 53.937 3.85676C53.937 4.12345 53.937 4.75355 53.937 4.75355H57.544V3.73367C57.544 0.574403 54.7178 0.0791183 52.6725 0.0791183C50.1085 0.0791183 48.0078 0.929015 47.629 3.29993C47.5241 3.95054 47.5125 4.52495 47.664 5.25762C48.2904 8.22053 53.4154 9.08215 54.1584 10.9607Z" fill="#8A859E"/>
<path d="M66.3986 12.9301C67.4096 12.9301 67.7243 12.2268 67.7942 11.8663C67.8234 11.708 67.8321 11.497 67.8292 11.3065V0.45718H71.5149V10.9724C71.5237 11.2421 71.4975 11.796 71.4829 11.9337C71.2236 14.671 69.0733 15.5589 66.3957 15.5589C63.7152 15.5589 61.562 14.671 61.3056 11.9337C61.294 11.796 61.2677 11.2391 61.2736 10.9724V0.45718H64.9564V11.3036C64.9564 11.4941 64.9622 11.708 64.9913 11.8634C65.0729 12.2238 65.3789 12.9301 66.3986 12.9301Z" fill="#8A859E"/>
<path d="M96.8021 12.7748C97.8568 12.7748 98.2269 12.1037 98.2939 11.7139C98.3201 11.5469 98.3288 11.3417 98.3259 11.1571V9.0294H96.8312V6.89001H102V10.8259C101.997 11.1014 101.991 11.3036 101.948 11.793C101.706 14.4599 99.404 15.4124 96.8225 15.4124C94.2352 15.4124 91.9393 14.4599 91.6916 11.793C91.6508 11.3036 91.645 11.1014 91.6392 10.8259L91.6421 4.6539C91.6421 4.39307 91.6741 3.93296 91.7033 3.68678C92.0267 0.946599 94.2352 0.0644653 96.8225 0.0644653C99.4069 0.0644653 101.671 0.940738 101.939 3.68678C101.985 4.15276 101.971 4.6539 101.971 4.6539V5.14332H98.2968V4.32274C98.2997 4.32567 98.291 3.97399 98.2502 3.76591C98.189 3.4406 97.9093 2.69621 96.7963 2.69621C95.7328 2.69621 95.424 3.39957 95.3453 3.76591C95.3016 3.95933 95.2841 4.22016 95.2841 4.45755V11.1629C95.2812 11.3476 95.2928 11.5527 95.322 11.7198C95.3803 12.1037 95.7474 12.7748 96.8021 12.7748Z" fill="#8A859E"/>
</svg>
