<svg width="53" height="44" viewBox="0 0 53 44" fill="none" xmlns="http://www.w3.org/2000/svg">
<path d="M49.442 21.2904H48.3551L48.3551 14.7596C48.3551 12.0892 46.1813 9.92479 43.5203 9.92479H42.5177L42.5271 7.49799C42.5271 5.69897 41.0654 4.23727 39.2663 4.23727H10.276C8.11152 4.23727 6.34061 5.98007 6.3125 8.14451C6.3125 8.16325 6.3125 8.18199 6.3125 8.20073L6.3125 40.1895C6.3125 41.9885 7.7742 43.4502 9.57322 43.4502H43.5296C46.2 43.4502 48.3645 41.2764 48.3645 38.6153L48.3645 32.0752H49.4514C50.8569 32.0752 52 30.9321 52 29.5266L52 23.8391C51.9906 22.4336 50.8475 21.2904 49.442 21.2904ZM10.276 6.48604H39.2663C39.8192 6.48604 40.2783 6.9358 40.2783 7.48862L40.2689 9.92479H10.276C9.3296 9.92479 8.56127 9.15646 8.56127 8.2101C8.56127 7.26374 9.3296 6.48604 10.276 6.48604ZM46.1063 38.606C46.1063 40.0302 44.9445 41.1921 43.5203 41.1921H9.56385C9.01102 41.1921 8.5519 40.7423 8.5519 40.1801L8.5519 11.78C9.07661 12.033 9.65754 12.1736 10.276 12.1736H43.5203C44.9445 12.1736 46.1063 13.3354 46.1063 14.7596L46.1063 21.2904H38.4324C37.0269 21.2904 35.8838 22.4336 35.8838 23.8391L35.8838 29.5266C35.8838 30.9321 37.0269 32.0752 38.4324 32.0752H46.1063L46.1063 38.606ZM49.7419 29.5266C49.7419 29.6952 49.6107 29.8264 49.442 29.8264H38.4418C38.2731 29.8264 38.142 29.6952 38.142 29.5266L38.142 23.8391C38.142 23.6798 38.2731 23.5392 38.4418 23.5392H49.442C49.6013 23.5392 49.7419 23.6704 49.7419 23.8391L49.7419 29.5266Z" fill="#3B1FD3" stroke="#3B1FD3" stroke-width="0.7"/>
<circle cx="10.0312" cy="10.0312" r="7.96875" fill="white"/>
<path d="M18.6723 9.83616C18.6723 4.95605 14.7163 1 9.83616 1C4.95605 1 1 4.95605 1 9.83616C1 14.7163 4.95605 18.6723 9.83616 18.6723C14.7139 18.6667 18.6667 14.7139 18.6723 9.83616ZM2.35941 9.83616C2.35941 5.70687 5.70687 2.35941 9.83616 2.35941C13.9655 2.35941 17.3129 5.70687 17.3129 9.83616C17.3129 13.9655 13.9655 17.3129 9.83616 17.3129C5.70891 17.3081 2.36425 13.9634 2.35941 9.83616Z" fill="#FF2424" stroke="#FF2424" stroke-width="0.7"/>
<path d="M12.4769 6.90371L8.95623 6.90371L8.95623 9.14678L10.7718 9.14678C11.5341 9.15707 12.1292 9.35771 12.5572 9.7487C12.9852 10.1397 13.1991 10.6713 13.1991 11.3435C13.1991 12.0192 12.9835 12.5577 12.5522 12.959C12.1209 13.3603 11.5324 13.5678 10.7868 13.5815L7.98828 13.5815L7.98828 6.09085L12.4769 6.09085L12.4769 6.90371ZM8.95623 9.95964L8.95623 12.7738L10.7166 12.7738C11.1947 12.7738 11.5658 12.6434 11.83 12.3828C12.0975 12.1221 12.2312 11.7723 12.2312 11.3333C12.2312 10.9114 12.1025 10.5787 11.845 10.3352C11.5909 10.0917 11.2281 9.9665 10.7567 9.95964L8.95623 9.95964Z" fill="#FF2424" stroke="#DD0000" stroke-width="0.5"/>
<rect x="6.82617" y="6.09091" width="2.93111" height="0.814198" fill="#FF2424" stroke="#C60000" stroke-width="0.5"/>
<rect x="6.82617" y="9.15585" width="2.11691" height="0.814198" fill="#FF2424" stroke="#C60000" stroke-width="0.5"/>
</svg>
