<svg width="196" height="30" viewBox="0 0 196 30" fill="none" xmlns="http://www.w3.org/2000/svg">
<path d="M180.86 15.7971C181.135 19.1304 184.163 21.0145 186.916 21.0145C188.705 21.0145 191.183 20.4348 192.146 18.1159H195.449C193.935 22.029 190.219 23.6232 187.053 23.6232C180.722 23.6232 177.556 19.5652 177.556 14.7826C177.556 10 180.722 5.94203 187.053 5.94203C191.32 5.94203 196 8.4058 196 15.2174V15.6522H180.86V15.7971ZM186.916 8.69565C184.025 8.69565 181.41 10.4348 180.997 13.3333H192.697C192.146 10.4348 189.806 8.69565 186.916 8.69565ZM175.216 9.42029C172.188 9.42029 169.986 11.3043 169.986 14.7826V23.1884H166.82V6.66667H169.986V9.71014C171.5 7.10145 173.565 6.08696 175.629 6.08696C176.455 6.08696 176.868 6.08696 177.419 6.23188V9.56522C176.593 9.56522 176.042 9.42029 175.216 9.42029ZM157.185 19.8551V9.13043H153.744V6.66667H157.185V1.5942H160.351V6.66667H165.031V9.13043H160.351V19.2754C160.351 20.5797 161.315 21.0145 162.829 21.0145C163.517 21.0145 164.205 20.8696 165.031 20.7246V23.3333C163.93 23.4783 162.829 23.6232 161.59 23.6232C158.562 23.6232 157.185 22.1739 157.185 19.8551ZM148.927 12.6087C148.927 10.1449 147.413 8.84058 144.11 8.84058C141.219 8.84058 138.742 10.4348 138.742 13.7681V23.1884H135.576V6.66667H138.742V9.13043C140.256 6.81159 142.871 6.08696 145.211 6.08696C149.202 6.08696 152.093 7.82609 152.093 11.8841V23.0435H148.927V12.6087ZM124.565 21.0145C126.354 21.0145 128.831 20.4348 129.795 18.1159H133.098C131.584 22.029 127.868 23.6232 124.702 23.6232C118.371 23.6232 115.205 19.5652 115.205 14.7826C115.205 10 118.371 5.94203 124.702 5.94203C128.969 5.94203 133.649 8.4058 133.649 15.2174V15.6522H118.508C118.784 19.2754 121.812 21.0145 124.565 21.0145ZM130.346 13.3333C129.933 10.2899 127.593 8.69565 124.565 8.69565C121.674 8.69565 119.059 10.4348 118.646 13.3333H130.346ZM102.129 20.7246C105.983 20.7246 109.011 18.8406 109.975 14.4928H113.278C112.728 19.4203 108.461 23.6232 102.129 23.6232C96.486 23.6232 90.4298 20.5797 90.4298 11.7391C90.4298 5.21739 94.559 0 102.129 0C106.534 0 112.728 1.88406 113.278 8.69565H109.975C109.424 5.65217 107.084 2.89855 102.404 2.89855C97.1742 2.89855 93.7331 5.94203 93.7331 12.029C93.7331 16.3768 95.9354 20.7246 102.129 20.7246ZM64.691 30C63.8652 30 63.177 30 62.3511 29.8551V27.2464C62.9017 27.2464 63.4522 27.3913 64.1404 27.3913C66.0674 27.3913 66.618 26.9565 67.5815 24.9275L68.2697 23.4783L60.6994 6.66667H64.2781L69.9213 19.7101L75.427 6.66667H78.868L70.3343 25.942C68.8202 29.4203 67.5815 30 64.691 30ZM55.7444 12.6087C55.7444 10.1449 54.2303 8.84058 50.927 8.84058C48.0365 8.84058 45.559 10.4348 45.559 13.7681V23.1884H42.3933V6.66667H45.559V9.13043C47.073 6.81159 49.6882 6.08696 52.0281 6.08696C56.0197 6.08696 58.9101 7.82609 58.9101 11.8841V23.0435H55.7444V12.6087ZM31.1067 23.6232C24.7753 23.6232 21.6096 19.5652 21.6096 14.7826C21.6096 10 24.7753 5.94203 31.1067 5.94203C37.4382 5.94203 40.6039 10 40.6039 14.7826C40.6039 19.5652 37.4382 23.6232 31.1067 23.6232ZM31.1067 8.69565C26.5646 8.69565 24.9129 11.8841 24.9129 14.7826C24.9129 17.8261 26.5646 20.8696 31.1067 20.8696C35.6489 20.8696 37.3006 17.6812 37.3006 14.7826C37.3006 11.8841 35.6489 8.69565 31.1067 8.69565ZM13.0758 10.5797C14.8652 10.8696 19.8202 11.7391 19.8202 16.3768C19.8202 22.029 14.7275 23.7681 10.1854 23.7681C5.23034 23.6232 0 21.8841 0 15.7971H3.30337C3.30337 19.8551 7.1573 20.8696 10.4607 20.8696C14.0393 20.8696 16.5169 19.5652 16.5169 17.1014C16.5169 15.0725 14.8652 14.2029 12.3876 13.7681L7.29494 12.7536C4.67978 12.3188 0.688202 11.3043 0.688202 6.95652C0.688202 2.89855 3.85393 0.144928 9.63483 0.144928C14.0393 0.144928 18.8567 1.73913 19.132 7.24638H15.8287C15.5534 5.36232 14.5899 3.04348 9.22191 3.04348C6.74438 3.04348 3.99157 4.05797 3.99157 6.66667C3.99157 8.11594 4.95506 9.13043 7.70787 9.56522L13.0758 10.5797Z" fill="#8A859E"/>
</svg>
