<svg width="110" height="62" viewBox="0 0 110 62" fill="none" xmlns="http://www.w3.org/2000/svg">
<path d="M18.6052 1.10706L18.6469 0.492027H20.6446V6.27335H18.6469C17.7729 3.15718 13.9023 2.05011 9.74041 2.05011C6.61899 2.05011 4.53805 2.95216 4.53805 4.30524C4.53805 5.49431 6.16119 6.02733 8.69994 6.39636L13.8191 7.1754C19.2712 7.99544 21.9348 9.0615 21.9764 12.4237C22.018 15.5809 18.1058 17.836 12.404 17.836C9.78203 17.836 6.82709 17.467 4.2051 16.3189C4.2051 16.3189 2.66519 15.6219 2.62358 17.344H0.417771V10.7836H2.37386C3.20624 14.1868 7.32652 15.5809 11.9878 15.5809C15.4006 15.5809 17.2318 14.8018 17.2318 13.4077C17.2318 12.0957 15.8584 11.3576 12.9035 10.9066L8.8248 10.5376C3.123 9.63554 -0.0816558 8.44647 0.00158207 5.24829C0.08482 2.09112 3.95538 0 9.61556 0C12.1959 0 15.1509 0.410023 17.3983 1.43508C18.7301 2.00911 18.6052 1.10706 18.6052 1.10706Z" fill="#202020"/>
<path d="M31.0501 8.9795C31.0501 4.51025 33.8386 2.00911 38.3334 2.00911C42.8283 2.00911 45.6167 4.51025 45.6167 8.9795C45.6167 13.4487 42.8699 15.9909 38.3334 15.9909C33.8386 15.9909 31.0501 13.4487 31.0501 8.9795ZM25.6396 8.9795C25.6396 14.3508 30.7172 18 38.375 18C46.0745 18 51.0688 14.3508 51.0688 8.9795C51.0688 3.6082 46.0329 0 38.375 0C30.6755 0 25.6396 3.6082 25.6396 8.9795Z" fill="#202020"/>
<path d="M73.6259 17.0979L60.5576 5.82229V13.7357C60.5576 15.0888 60.8489 15.2528 62.8466 15.2528H64.0535L63.9703 17.0569L53.6904 17.0979V15.2528H54.9806C56.9783 15.2528 57.2697 15.0888 57.2697 13.7357V4.1002C57.2697 2.74712 56.9783 2.58311 54.9806 2.58311H53.8153V0.73801H62.0975L74.0837 11.1116V4.01819C74.0837 2.66512 73.7924 2.50111 71.7947 2.50111H70.6293V0.656006L80.2849 0.73801V2.58311H79.1612C77.1635 2.58311 77.1635 2.74712 77.1635 4.1002V17.0979H73.6259Z" fill="#202020"/>
<path d="M101.136 15.2528H101.552V17.0979H90.1072V15.2528H91.0644C93.2702 15.2528 93.6032 15.0888 93.6032 13.7358V10.5786L87.2771 4.26423C86.1117 3.15717 85.1545 2.58314 83.573 2.58314H82.7822V0.738037H94.3107V2.58314H94.0193C92.8956 2.58314 92.3546 2.74715 92.3546 3.07517C92.3546 3.28018 92.5627 3.56719 92.8956 3.89521L97.224 8.36446L101.802 3.7312C102.093 3.44419 102.302 3.23918 102.302 2.99316C102.302 2.70615 101.802 2.54214 100.928 2.54214H99.3882V0.738037H109.044V2.58314H108.17C106.713 2.58314 106.047 2.87016 105.173 3.6492L98.5974 10.5786V13.7358C98.5558 15.0888 98.9304 15.2528 101.136 15.2528Z" fill="#202020"/>
<path d="M14.835 48H15.8018V43.3198C15.8018 42.0234 16.6074 41.1226 17.728 41.1226C18.7681 41.1226 19.4712 41.833 19.4712 42.9243V48H20.4453V43.2026C20.4453 41.9868 21.2217 41.1226 22.3496 41.1226C23.4556 41.1226 24.1147 41.833 24.1147 43.0122V48H25.0815V42.7925C25.0815 41.2544 24.1074 40.2583 22.6206 40.2583C21.4707 40.2583 20.5771 40.9248 20.2183 41.8623H20.1963C19.9106 40.9028 19.105 40.2583 17.9917 40.2583C16.8857 40.2583 16.1021 40.8955 15.7725 41.7891H15.7505V40.3828H14.835V48ZM29.8057 48.1245C31.8784 48.1245 33.2773 46.6084 33.2773 44.1914C33.2773 41.7671 31.8784 40.2583 29.8057 40.2583C27.7402 40.2583 26.334 41.7671 26.334 44.1914C26.334 46.6084 27.7329 48.1245 29.8057 48.1245ZM29.8057 47.2676C28.3115 47.2676 27.3228 46.125 27.3228 44.1914C27.3228 42.2578 28.3115 41.1152 29.8057 41.1152C31.2998 41.1152 32.2959 42.2578 32.2959 44.1914C32.2959 46.125 31.2998 47.2676 29.8057 47.2676ZM38.2285 48.1245C40.1475 48.1245 41.4512 46.5645 41.4512 44.1914C41.4512 41.8184 40.1475 40.2583 38.2358 40.2583C37.042 40.2583 36.0605 40.9248 35.6284 41.9722H35.6064V37.4312H34.6323V48H35.5625V46.3887H35.5845C36.0386 47.458 37.0127 48.1245 38.2285 48.1245ZM38.0454 41.1152C39.5103 41.1152 40.4551 42.3311 40.4551 44.1914C40.4551 46.0591 39.5103 47.2676 38.0454 47.2676C36.6099 47.2676 35.5991 46.0225 35.5991 44.1914C35.5991 42.3677 36.6172 41.1152 38.0454 41.1152ZM42.8208 48H43.7876V40.3828H42.8208V48ZM43.3042 38.8447C43.6631 38.8447 43.9561 38.5591 43.9561 38.2002C43.9561 37.8486 43.6631 37.563 43.3042 37.563C42.9526 37.563 42.6597 37.8486 42.6597 38.2002C42.6597 38.5591 42.9526 38.8447 43.3042 38.8447ZM45.5894 48H46.5562V37.4312H45.5894V48ZM51.3022 41.1079C52.6792 41.1079 53.5947 42.1553 53.6167 43.6567H48.9146C48.9951 42.1553 49.9399 41.1079 51.3022 41.1079ZM53.5581 45.8394C53.3457 46.6743 52.5474 47.2749 51.3975 47.2749C49.8813 47.2749 48.9072 46.2056 48.9072 44.4844V44.4258H54.6128V44.0156C54.6128 41.7451 53.3384 40.2583 51.3169 40.2583C49.2515 40.2583 47.9111 41.8477 47.9111 44.2134C47.9111 46.6304 49.2368 48.1245 51.3755 48.1245C53.0527 48.1245 54.2905 47.1577 54.5176 45.8394H53.5581ZM58.9854 48H59.9521V43.2539C59.9521 42.0234 60.6406 41.1812 61.7246 41.1812C62.0542 41.1812 62.3252 41.2324 62.4497 41.291V40.3389C62.3325 40.3096 62.1055 40.2583 61.8491 40.2583C60.9116 40.2583 60.2012 40.8076 59.9229 41.7378H59.9009V40.3828H58.9854V48ZM66.0679 41.1079C67.4448 41.1079 68.3604 42.1553 68.3823 43.6567H63.6802C63.7607 42.1553 64.7056 41.1079 66.0679 41.1079ZM68.3237 45.8394C68.1113 46.6743 67.313 47.2749 66.1631 47.2749C64.647 47.2749 63.6729 46.2056 63.6729 44.4844V44.4258H69.3784V44.0156C69.3784 41.7451 68.104 40.2583 66.0825 40.2583C64.0171 40.2583 62.6768 41.8477 62.6768 44.2134C62.6768 46.6304 64.0024 48.1245 66.1411 48.1245C67.8184 48.1245 69.0562 47.1577 69.2832 45.8394H68.3237ZM74.2417 40.2583C73.0039 40.2583 72.0371 40.9834 71.6196 41.9941H71.5903V40.3828H70.6748V50.5195H71.6416V46.4326H71.6709C72.0737 47.4214 73.0332 48.1245 74.2637 48.1245C76.1753 48.1245 77.4863 46.5645 77.4863 44.1914C77.4863 41.8257 76.168 40.2583 74.2417 40.2583ZM74.0732 47.2676C72.6304 47.2676 71.6416 46.0298 71.6416 44.1914C71.6416 42.3604 72.6304 41.1152 74.0732 41.1152C75.5454 41.1152 76.4976 42.3384 76.4976 44.1914C76.4976 46.0518 75.5454 47.2676 74.0732 47.2676ZM81.2437 47.2896C80.2109 47.2896 79.5005 46.7183 79.5005 45.8906C79.5005 45.0483 80.167 44.5283 81.3682 44.4478L83.624 44.2939V45.1362C83.624 46.3447 82.5767 47.2896 81.2437 47.2896ZM81.0459 48.1245C82.1812 48.1245 83.2212 47.4946 83.646 46.5498H83.668V48H84.5908V42.7852C84.5908 41.2324 83.4995 40.2583 81.7637 40.2583C80.0278 40.2583 78.9072 41.2251 78.7974 42.5874H79.7349C79.9033 41.6646 80.6211 41.1152 81.7417 41.1152C82.9282 41.1152 83.624 41.7744 83.624 42.873V43.5322L81.251 43.6787C79.4932 43.7959 78.519 44.5869 78.519 45.8906C78.519 47.2236 79.5444 48.1245 81.0459 48.1245ZM86.2827 48H87.2495V40.3828H86.2827V48ZM86.7661 38.8447C87.125 38.8447 87.418 38.5591 87.418 38.2002C87.418 37.8486 87.125 37.563 86.7661 37.563C86.4146 37.563 86.1216 37.8486 86.1216 38.2002C86.1216 38.5591 86.4146 38.8447 86.7661 38.8447ZM88.9854 48H89.9521V43.2539C89.9521 42.0234 90.6406 41.1812 91.7246 41.1812C92.0542 41.1812 92.3252 41.2324 92.4497 41.291V40.3389C92.3325 40.3096 92.1055 40.2583 91.8491 40.2583C90.9116 40.2583 90.2012 40.8076 89.9229 41.7378H89.9009V40.3828H88.9854V48Z" fill="#202020"/>
</svg>
