<svg width="151" height="24" viewBox="0 0 151 24" fill="none" xmlns="http://www.w3.org/2000/svg">
<path d="M138.855 12.3027C139.065 14.8504 141.38 16.2904 143.484 16.2904C144.851 16.2904 146.745 15.8473 147.481 14.075H150.006C148.849 17.0658 146.009 18.2842 143.589 18.2842C138.75 18.2842 136.33 15.1827 136.33 11.5274C136.33 7.87201 138.75 4.7705 143.589 4.7705C146.85 4.7705 150.427 6.65356 150.427 11.8597V12.192H138.855V12.3027ZM143.484 6.8751C141.275 6.8751 139.276 8.20432 138.96 10.4197H147.902C147.481 8.20432 145.693 6.8751 143.484 6.8751ZM134.542 7.42894C132.228 7.42894 130.544 8.86892 130.544 11.5274V17.9519H128.125V5.32434H130.544V7.65047C131.702 5.65665 133.28 4.88127 134.858 4.88127C135.489 4.88127 135.804 4.88127 136.225 4.99204V7.5397C135.594 7.5397 135.173 7.42894 134.542 7.42894ZM120.761 15.4042V7.2074H118.131V5.32434H120.761V1.44745H123.18V5.32434H126.757V7.2074H123.18V14.9612C123.18 15.9581 123.917 16.2904 125.074 16.2904C125.6 16.2904 126.126 16.1796 126.757 16.0689V18.0627C125.916 18.1735 125.074 18.2842 124.127 18.2842C121.813 18.2842 120.761 17.1765 120.761 15.4042ZM114.449 9.86584C114.449 7.98278 113.292 6.98586 110.767 6.98586C108.558 6.98586 106.664 8.20431 106.664 10.752V17.9519H104.245V5.32434H106.664V7.2074C107.821 5.43511 109.82 4.88127 111.609 4.88127C114.659 4.88127 116.869 6.21049 116.869 9.312V17.8411H114.449V9.86584ZM95.8288 16.2904C97.1964 16.2904 99.09 15.8473 99.8264 14.075H102.351C101.194 17.0658 98.3536 18.2842 95.934 18.2842C91.0949 18.2842 88.6753 15.1827 88.6753 11.5274C88.6753 7.87201 91.0949 4.7705 95.934 4.7705C99.1952 4.7705 102.772 6.65356 102.772 11.8597V12.192H91.2001C91.4105 14.9612 93.7249 16.2904 95.8288 16.2904ZM100.247 10.4197C99.9316 8.09355 98.1432 6.8751 95.8288 6.8751C93.6197 6.8751 91.6209 8.20432 91.3053 10.4197H100.247ZM78.6814 16.0689C81.627 16.0689 83.9414 14.6289 84.6778 11.3058H87.2025C86.7817 15.0719 83.5206 18.2842 78.6814 18.2842C74.3683 18.2842 69.7396 15.9581 69.7396 9.20123C69.7396 4.21666 72.8955 0.229004 78.6814 0.229004C82.0478 0.229004 86.7817 1.66899 87.2025 6.8751H84.6778C84.257 4.54896 82.4686 2.44437 78.8918 2.44437C74.8943 2.44437 72.2643 4.7705 72.2643 9.42276C72.2643 12.7458 73.9475 16.0689 78.6814 16.0689ZM50.0674 23.158C49.4362 23.158 48.9102 23.158 48.279 23.0473V21.0534C48.6998 21.0534 49.1206 21.1642 49.6466 21.1642C51.1194 21.1642 51.5402 20.8319 52.2766 19.2811L52.8026 18.1735L47.0166 5.32434H49.7518L54.065 15.2935L58.2729 5.32434H60.9029L54.3805 20.0565C53.2234 22.7149 52.2766 23.158 50.0674 23.158ZM43.2295 9.86584C43.2295 7.98278 42.0723 6.98586 39.5475 6.98586C37.3384 6.98586 35.4448 8.20431 35.4448 10.752V17.9519H33.0252V5.32434H35.4448V7.2074C36.602 5.43511 38.6007 4.88127 40.3891 4.88127C43.4399 4.88127 45.6491 6.21049 45.6491 9.312V17.8411H43.2295V9.86584ZM24.3989 18.2842C19.5598 18.2842 17.1402 15.1827 17.1402 11.5274C17.1402 7.87201 19.5598 4.7705 24.3989 4.7705C29.2381 4.7705 31.6576 7.87201 31.6576 11.5274C31.6576 15.1827 29.2381 18.2842 24.3989 18.2842ZM24.3989 6.8751C20.9274 6.8751 19.665 9.312 19.665 11.5274C19.665 13.8535 20.9274 16.1796 24.3989 16.1796C27.8705 16.1796 29.1329 13.7427 29.1329 11.5274C29.1329 9.312 27.8705 6.8751 24.3989 6.8751ZM10.6179 8.31508C11.9855 8.53662 15.7726 9.20123 15.7726 12.7458C15.7726 17.0658 11.8803 18.395 8.40873 18.395C4.62157 18.2842 0.624023 16.955 0.624023 12.3027H3.14879C3.14879 15.4042 6.09435 16.1796 8.61912 16.1796C11.3543 16.1796 13.2479 15.1827 13.2479 13.2997C13.2479 11.7489 11.9855 11.0843 10.0919 10.752L6.19955 9.97661C4.20078 9.6443 1.15002 8.86892 1.15002 5.54588C1.15002 2.44437 3.56959 0.339772 7.98793 0.339772C11.3543 0.339772 15.0362 1.55822 15.2466 5.76741H12.7219C12.5115 4.32743 11.7751 2.55514 7.67233 2.55514C5.77876 2.55514 3.67479 3.33051 3.67479 5.32434C3.67479 6.43202 4.41118 7.2074 6.51515 7.5397L10.6179 8.31508Z" fill="#8A859E"/>
</svg>
