<svg width="84" height="43" viewBox="0 0 84 43" fill="none" xmlns="http://www.w3.org/2000/svg">
<path d="M14.8772 0.846372L14.909 0.376301H16.4359V4.79497H14.909C14.241 2.41328 11.2828 1.56715 8.10183 1.56715C5.71613 1.56715 4.12566 2.25658 4.12566 3.29074C4.12566 4.19954 5.36622 4.60694 7.3066 4.88898L11.2191 5.48441C15.3862 6.11117 17.422 6.92596 17.4538 9.49568C17.4856 11.9087 14.4955 13.6323 10.1376 13.6323C8.13364 13.6323 5.87517 13.3503 3.87118 12.4728C3.87118 12.4728 2.69424 11.94 2.66243 13.2562H0.97653V8.24216H2.47157C3.10776 10.8432 6.25689 11.9087 9.81954 11.9087C12.4279 11.9087 13.8275 11.3133 13.8275 10.2478C13.8275 9.24497 12.7778 8.68089 10.5193 8.33617L7.40202 8.05413C3.04414 7.36469 0.594817 6.45589 0.658436 4.01152C0.722055 1.59849 3.68033 0.000244141 8.0064 0.000244141C9.97858 0.000244141 12.237 0.313625 13.9548 1.09708C14.9727 1.53581 14.8772 0.846372 14.8772 0.846372Z" fill="#8A859E"/>
<path d="M24.3891 6.86304C24.3891 3.44719 26.5204 1.53557 29.9558 1.53557C33.3912 1.53557 35.5224 3.44719 35.5224 6.86304C35.5224 10.2789 33.423 12.2218 29.9558 12.2218C26.5204 12.2218 24.3891 10.2789 24.3891 6.86304ZM20.2539 6.86304C20.2539 10.9683 24.1347 13.7574 29.9876 13.7574C35.8723 13.7574 39.6894 10.9683 39.6894 6.86304C39.6894 2.75775 35.8405 0 29.9876 0C24.1028 0 20.2539 2.75775 20.2539 6.86304Z" fill="#8A859E"/>
<path d="M56.9301 13.0678L46.9419 4.44982V10.4981C46.9419 11.5322 47.1646 11.6576 48.6914 11.6576H49.6139L49.5503 13.0364L41.6934 13.0678V11.6576H42.6795C44.2063 11.6576 44.429 11.5322 44.429 10.4981V3.13362C44.429 2.09946 44.2063 1.97411 42.6795 1.97411H41.7888V0.563897H48.1189L57.28 8.49243V3.07094C57.28 2.03679 57.0573 1.91143 55.5304 1.91143H54.6398V0.501221L62.0196 0.563897V1.97411H61.1607C59.6339 1.97411 59.6339 2.09946 59.6339 3.13362V13.0678H56.9301Z" fill="#8A859E"/>
<path d="M77.9557 11.6579H78.2738V13.0681H69.5262V11.6579H70.2578C71.9437 11.6579 72.1982 11.5325 72.1982 10.4984V8.08534L67.3631 3.25928C66.4725 2.41315 65.7409 1.97442 64.5321 1.97442H63.9277V0.564209H72.7389V1.97442H72.5163C71.6574 1.97442 71.2439 2.09977 71.2439 2.35048C71.2439 2.50717 71.4029 2.72654 71.6574 2.97724L74.9656 6.39309L78.4646 2.85189C78.6873 2.63252 78.8463 2.47583 78.8463 2.2878C78.8463 2.06844 78.4646 1.94308 77.7966 1.94308H76.6197V0.564209H83.9995V1.97442H83.3315C82.2181 1.97442 81.7092 2.19379 81.0412 2.78921L76.0153 8.08534V10.4984C75.9835 11.5325 76.2698 11.6579 77.9557 11.6579Z" fill="#8A859E"/>
<path d="M7.72363 38H8.56152V33.9438C8.56152 32.8203 9.25977 32.0396 10.231 32.0396C11.1323 32.0396 11.7417 32.6553 11.7417 33.6011V38H12.5859V33.8423C12.5859 32.7886 13.2588 32.0396 14.2363 32.0396C15.1948 32.0396 15.7661 32.6553 15.7661 33.6772V38H16.604V33.4868C16.604 32.1538 15.7598 31.2905 14.4712 31.2905C13.4746 31.2905 12.7002 31.8682 12.3892 32.6807H12.3701C12.1226 31.8491 11.4243 31.2905 10.4595 31.2905C9.50098 31.2905 8.82178 31.8428 8.53613 32.6172H8.51709V31.3984H7.72363V38ZM20.6982 38.1079C22.4946 38.1079 23.707 36.7939 23.707 34.6992C23.707 32.5981 22.4946 31.2905 20.6982 31.2905C18.9082 31.2905 17.6895 32.5981 17.6895 34.6992C17.6895 36.7939 18.9019 38.1079 20.6982 38.1079ZM20.6982 37.3652C19.4033 37.3652 18.5464 36.375 18.5464 34.6992C18.5464 33.0234 19.4033 32.0332 20.6982 32.0332C21.9932 32.0332 22.8564 33.0234 22.8564 34.6992C22.8564 36.375 21.9932 37.3652 20.6982 37.3652ZM27.998 38.1079C29.6611 38.1079 30.791 36.7559 30.791 34.6992C30.791 32.6426 29.6611 31.2905 28.0044 31.2905C26.9697 31.2905 26.1191 31.8682 25.7446 32.7759H25.7256V28.8403H24.8813V38H25.6875V36.6035H25.7065C26.1001 37.5303 26.9443 38.1079 27.998 38.1079ZM27.8394 32.0332C29.1089 32.0332 29.9277 33.0869 29.9277 34.6992C29.9277 36.3179 29.1089 37.3652 27.8394 37.3652C26.5952 37.3652 25.7192 36.2861 25.7192 34.6992C25.7192 33.1187 26.6016 32.0332 27.8394 32.0332ZM31.978 38H32.8159V31.3984H31.978V38ZM32.397 30.0654C32.708 30.0654 32.9619 29.8179 32.9619 29.5068C32.9619 29.2021 32.708 28.9546 32.397 28.9546C32.0923 28.9546 31.8384 29.2021 31.8384 29.5068C31.8384 29.8179 32.0923 30.0654 32.397 30.0654ZM34.3774 38H35.2153V28.8403H34.3774V38ZM39.3286 32.0269C40.522 32.0269 41.3154 32.9346 41.3345 34.2358H37.2593C37.3291 32.9346 38.1479 32.0269 39.3286 32.0269ZM41.2837 36.1274C41.0996 36.8511 40.4077 37.3716 39.4111 37.3716C38.0972 37.3716 37.2529 36.4448 37.2529 34.9531V34.9023H42.1978V34.5469C42.1978 32.5791 41.0933 31.2905 39.3413 31.2905C37.5513 31.2905 36.3896 32.668 36.3896 34.7183C36.3896 36.813 37.5386 38.1079 39.3921 38.1079C40.8457 38.1079 41.9185 37.27 42.1152 36.1274H41.2837ZM45.9873 38H46.8252V33.8867C46.8252 32.8203 47.4219 32.0903 48.3613 32.0903C48.647 32.0903 48.8818 32.1348 48.9897 32.1855V31.3604C48.8882 31.335 48.6914 31.2905 48.4692 31.2905C47.6567 31.2905 47.041 31.7666 46.7998 32.5728H46.7808V31.3984H45.9873V38ZM52.1255 32.0269C53.3188 32.0269 54.1123 32.9346 54.1313 34.2358H50.0562C50.126 32.9346 50.9448 32.0269 52.1255 32.0269ZM54.0806 36.1274C53.8965 36.8511 53.2046 37.3716 52.208 37.3716C50.894 37.3716 50.0498 36.4448 50.0498 34.9531V34.9023H54.9946V34.5469C54.9946 32.5791 53.8901 31.2905 52.1382 31.2905C50.3481 31.2905 49.1865 32.668 49.1865 34.7183C49.1865 36.813 50.3354 38.1079 52.189 38.1079C53.6426 38.1079 54.7153 37.27 54.9121 36.1274H54.0806ZM59.2095 31.2905C58.1367 31.2905 57.2988 31.9189 56.937 32.7949H56.9116V31.3984H56.1182V40.1836H56.9561V36.6416H56.9814C57.3306 37.4985 58.1621 38.1079 59.2285 38.1079C60.8853 38.1079 62.0215 36.7559 62.0215 34.6992C62.0215 32.6489 60.8789 31.2905 59.2095 31.2905ZM59.0635 37.3652C57.813 37.3652 56.9561 36.2925 56.9561 34.6992C56.9561 33.1123 57.813 32.0332 59.0635 32.0332C60.3394 32.0332 61.1646 33.0933 61.1646 34.6992C61.1646 36.3115 60.3394 37.3652 59.0635 37.3652ZM65.2778 37.3843C64.3828 37.3843 63.7671 36.8892 63.7671 36.1719C63.7671 35.4419 64.3447 34.9912 65.3857 34.9214L67.3408 34.7881V35.5181C67.3408 36.5654 66.4331 37.3843 65.2778 37.3843ZM65.1064 38.1079C66.0903 38.1079 66.9917 37.562 67.3599 36.7432H67.3789V38H68.1787V33.4805C68.1787 32.1348 67.2329 31.2905 65.7285 31.2905C64.2241 31.2905 63.2529 32.1284 63.1577 33.3091H63.9702C64.1162 32.5093 64.7383 32.0332 65.7095 32.0332C66.7378 32.0332 67.3408 32.6045 67.3408 33.5566V34.1279L65.2842 34.2549C63.7607 34.3564 62.9165 35.042 62.9165 36.1719C62.9165 37.3271 63.8052 38.1079 65.1064 38.1079ZM69.645 38H70.4829V31.3984H69.645V38ZM70.064 30.0654C70.375 30.0654 70.6289 29.8179 70.6289 29.5068C70.6289 29.2021 70.375 28.9546 70.064 28.9546C69.7593 28.9546 69.5054 29.2021 69.5054 29.5068C69.5054 29.8179 69.7593 30.0654 70.064 30.0654ZM71.9873 38H72.8252V33.8867C72.8252 32.8203 73.4219 32.0903 74.3613 32.0903C74.647 32.0903 74.8818 32.1348 74.9897 32.1855V31.3604C74.8882 31.335 74.6914 31.2905 74.4692 31.2905C73.6567 31.2905 73.041 31.7666 72.7998 32.5728H72.7808V31.3984H71.9873V38Z" fill="#8A859E"/>
</svg>
