<svg width="228" height="34" viewBox="0 0 228 34" fill="none" xmlns="http://www.w3.org/2000/svg">
<path d="M210.388 17.9034C210.708 21.6812 214.23 23.8164 217.433 23.8164C219.514 23.8164 222.396 23.1594 223.517 20.5314H227.36C225.598 24.9662 221.275 26.7729 217.593 26.7729C210.228 26.7729 206.545 22.1739 206.545 16.7536C206.545 11.3333 210.228 6.7343 217.593 6.7343C222.556 6.7343 228 9.52657 228 17.2464V17.7391H210.388V17.9034ZM217.433 9.85507C214.07 9.85507 211.028 11.8261 210.548 15.1111H224.157C223.517 11.8261 220.795 9.85507 217.433 9.85507ZM203.823 10.6763C200.301 10.6763 197.739 12.8116 197.739 16.7536V26.2802H194.056V7.55555H197.739V11.0048C199.5 8.04831 201.902 6.89855 204.303 6.89855C205.264 6.89855 205.744 6.89855 206.385 7.0628V10.8406C205.424 10.8406 204.784 10.6763 203.823 10.6763ZM182.848 22.5024V10.3478H178.846V7.55555H182.848V1.80676H186.531V7.55555H191.975V10.3478H186.531V21.8454C186.531 23.3237 187.652 23.8164 189.413 23.8164C190.214 23.8164 191.014 23.6522 191.975 23.4879V26.4444C190.694 26.6087 189.413 26.7729 187.972 26.7729C184.449 26.7729 182.848 25.1304 182.848 22.5024ZM173.242 14.2899C173.242 11.4976 171.48 10.0193 167.638 10.0193C164.275 10.0193 161.393 11.8261 161.393 15.6039V26.2802H157.711V7.55555H161.393V10.3478C163.155 7.71981 166.197 6.89855 168.919 6.89855C173.562 6.89855 176.924 8.86957 176.924 13.4686V26.1159H173.242V14.2899ZM144.902 23.8164C146.983 23.8164 149.865 23.1594 150.986 20.5314H154.829C153.067 24.9662 148.744 26.7729 145.062 26.7729C137.697 26.7729 134.014 22.1739 134.014 16.7536C134.014 11.3333 137.697 6.7343 145.062 6.7343C150.025 6.7343 155.469 9.52657 155.469 17.2464V17.7391H137.857C138.177 21.8454 141.699 23.8164 144.902 23.8164ZM151.626 15.1111C151.146 11.6618 148.424 9.85507 144.902 9.85507C141.539 9.85507 138.497 11.8261 138.017 15.1111H151.626ZM118.803 23.4879C123.287 23.4879 126.809 21.3527 127.93 16.4251H131.772C131.132 22.0097 126.169 26.7729 118.803 26.7729C112.239 26.7729 105.194 23.3237 105.194 13.3043C105.194 5.91304 109.997 0 118.803 0C123.927 0 131.132 2.13527 131.772 9.85507H127.93C127.289 6.4058 124.567 3.28502 119.124 3.28502C113.039 3.28502 109.037 6.7343 109.037 13.6328C109.037 18.5604 111.598 23.4879 118.803 23.4879ZM75.2528 34C74.2921 34 73.4916 34 72.5309 33.8357V30.8792C73.1713 30.8792 73.8118 31.0435 74.6124 31.0435C76.8539 31.0435 77.4944 30.5507 78.6152 28.2512L79.4157 26.6087L70.6096 7.55555H74.7725L81.3371 22.3382L87.7416 7.55555H91.7444L81.8174 29.401C80.0562 33.343 78.6152 34 75.2528 34ZM64.8455 14.2899C64.8455 11.4976 63.0843 10.0193 59.2416 10.0193C55.8792 10.0193 52.9972 11.8261 52.9972 15.6039V26.2802H49.3146V7.55555H52.9972V10.3478C54.7584 7.71981 57.8006 6.89855 60.5225 6.89855C65.1657 6.89855 68.5281 8.86957 68.5281 13.4686V26.1159H64.8455V14.2899ZM36.1854 26.7729C28.8202 26.7729 25.1376 22.1739 25.1376 16.7536C25.1376 11.3333 28.8202 6.7343 36.1854 6.7343C43.5506 6.7343 47.2332 11.3333 47.2332 16.7536C47.2332 22.1739 43.5506 26.7729 36.1854 26.7729ZM36.1854 9.85507C30.9017 9.85507 28.9803 13.4686 28.9803 16.7536C28.9803 20.2029 30.9017 23.6522 36.1854 23.6522C41.4691 23.6522 43.3905 20.0386 43.3905 16.7536C43.3905 13.4686 41.4691 9.85507 36.1854 9.85507ZM15.2107 11.9903C17.2921 12.3188 23.0562 13.3043 23.0562 18.5604C23.0562 24.9662 17.132 26.9372 11.8483 26.9372C6.08427 26.7729 0 24.8019 0 17.9034H3.8427C3.8427 22.5024 8.32584 23.6522 12.1685 23.6522C16.3315 23.6522 19.2135 22.1739 19.2135 19.3816C19.2135 17.0821 17.2921 16.0966 14.4101 15.6039L8.48596 14.4541C5.44382 13.9614 0.800562 12.8116 0.800562 7.88406C0.800562 3.28502 4.48315 0.164251 11.2079 0.164251C16.3315 0.164251 21.9354 1.97101 22.2556 8.21256H18.4129C18.0927 6.07729 16.9719 3.44928 10.7275 3.44928C7.84551 3.44928 4.64326 4.59903 4.64326 7.55555C4.64326 9.19807 5.76405 10.3478 8.96629 10.8406L15.2107 11.9903Z" fill="#202020"/>
</svg>
