<svg width="49" height="45" viewBox="0 0 49 45" fill="none" xmlns="http://www.w3.org/2000/svg">
<path d="M43.7551 1.15292C43.5933 1.05312 43.4069 1 43.217 1H12.5381C9.90056 1 7.7548 3.12483 7.7548 5.72896L7.57451 32.1481H2.03022C1.46119 32.1481 1 32.6093 1 33.1784V37.9379C1.00362 41.433 3.83593 44.2653 7.33104 44.2694C7.40187 44.2694 7.4731 44.2621 7.54272 44.2476H33.1393C33.2919 44.2585 33.4456 44.2657 33.6005 44.2657C37.15 44.2593 40.0241 41.3811 40.0253 37.8317V22.388H46.9697C47.5387 22.388 47.9999 21.9268 47.9999 21.3578V6.06459C47.9874 3.60534 46.1865 1.52115 43.7551 1.15292ZM3.06045 37.9383V34.209H27.1757V37.8321C27.1745 39.4462 27.7818 41.0012 28.8768 42.1872H7.19019C7.1415 42.1876 7.0932 42.1912 7.04532 42.1985C4.80418 42.0459 3.06326 40.1847 3.06045 37.9383ZM37.9649 6.06459V37.8317C37.9629 38.9834 37.5053 40.0869 36.692 40.9018C35.9133 41.7006 34.8553 42.1671 33.7406 42.2025C33.685 42.1928 33.6287 42.188 33.5719 42.1876H33.2098C30.9658 41.9667 29.251 40.0873 29.2362 37.8325V33.1784C29.2362 32.6097 28.775 32.1481 28.2059 32.1481H9.63496L9.81525 5.73621C9.83014 4.24641 11.0479 3.04918 12.5381 3.06045H38.9883C38.3246 3.92125 37.9645 4.97763 37.9649 6.06459ZM45.9394 20.3275H40.0253V6.06459C40.0523 4.45044 41.3682 3.15663 42.9824 3.15663C44.5965 3.15663 45.9125 4.45044 45.9394 6.06459V20.3275Z" fill="#3B1FD3" stroke="#3B1FD3" stroke-width="0.999535"/>
<path d="M31.8732 10.9719H15.2292C14.5505 10.9719 14 11.5224 14 12.2012C14 12.8799 14.5505 13.4304 15.2292 13.4304H31.8732C32.5522 13.4304 33.1025 12.8799 33.1025 12.2012C33.1025 11.5224 32.5522 10.9719 31.8732 10.9719Z" fill="#FF2424"/>
<path d="M31.8732 17.364H15.2292C14.5505 17.364 14 17.9145 14 18.5933C14 19.272 14.5505 19.8225 15.2292 19.8225H31.8732C32.5522 19.8225 33.1025 19.272 33.1025 18.5933C33.1025 17.9145 32.5522 17.364 31.8732 17.364Z" fill="#FF2424"/>
<path d="M31.8732 24.1238H15.2292C14.5505 24.1238 14 24.6743 14 25.353C14 26.0318 14.5505 26.5823 15.2292 26.5823H31.8732C32.5522 26.5823 33.1025 26.0318 33.1025 25.353C33.1025 24.6743 32.5522 24.1238 31.8732 24.1238Z" fill="#FF2424"/>
</svg>
