<svg width="81" height="23" viewBox="0 0 81 23" fill="none" xmlns="http://www.w3.org/2000/svg">
<path d="M14.4141 7.55664H14.5459L18.5596 22H22.7344L28.3447 0.862305H23.7598L20.4199 16.1699H20.3027L16.3477 0.862305H12.6123L8.65723 16.1699H8.54004L5.21484 0.862305H0.629883L6.22559 22H10.4004L14.4141 7.55664ZM30.4688 22H34.7461V13.0352C34.7461 10.9697 35.9326 9.54883 37.9541 9.54883C39.9023 9.54883 40.8984 10.7793 40.8984 12.8008V22H45.1758V11.8926C45.1758 8.25977 43.1836 6.00391 39.6973 6.00391C37.3096 6.00391 35.5957 7.11719 34.7607 9.09473H34.6729V0.862305H30.4688V22ZM47.9883 22H52.2656V6.29688H47.9883V22ZM50.127 4.56836C51.416 4.56836 52.4121 3.58691 52.4121 2.35645C52.4121 1.11133 51.416 0.144531 50.127 0.144531C48.8379 0.144531 47.8418 1.11133 47.8418 2.35645C47.8418 3.58691 48.8379 4.56836 50.127 4.56836ZM56.2646 2.67871V6.29688H54.0527V9.51953H56.2646V17.7666C56.2646 20.8281 57.7002 22.0586 61.3916 22.0586C62.2559 22.0586 62.9883 21.9854 63.4277 21.8828V18.7334C63.1641 18.7773 62.7686 18.8066 62.3877 18.8066C61.1279 18.8066 60.542 18.2354 60.542 17.0342V9.51953H63.4424V6.29688H60.542V2.67871H56.2646ZM72.5977 9.12402C74.502 9.12402 75.8057 10.501 75.8936 12.5078H69.2285C69.375 10.5449 70.7227 9.12402 72.5977 9.12402ZM75.9521 17.1953C75.5566 18.3965 74.3555 19.1729 72.7881 19.1729C70.6055 19.1729 69.1846 17.6348 69.1846 15.3936V15.1299H80.0098V13.8262C80.0098 9.05078 77.124 5.95996 72.5537 5.95996C67.9102 5.95996 64.9805 9.21191 64.9805 14.2217C64.9805 19.2461 67.8809 22.3369 72.7148 22.3369C76.5967 22.3369 79.4092 20.2715 79.8779 17.1953H75.9521Z" fill="#1B1B1B"/>
</svg>
