<svg width="615" height="44" viewBox="0 0 615 44" fill="none" xmlns="http://www.w3.org/2000/svg">
<rect x="528" width="87" height="20" fill="#232323"/>
<!-- <circle cx="5.5" cy="38.5" r="4.5" fill="white" stroke="#393939" stroke-width="2"/>
<circle cx="601.5" cy="38.5" r="4.5" fill="white" stroke="#232323" stroke-width="2"/> -->
<path d="M538.517 14.1143C540.338 14.1143 541.57 12.8003 541.57 10.6992C541.57 8.5918 540.338 7.28418 538.517 7.28418C536.688 7.28418 535.457 8.5918 535.457 10.6992C535.457 12.8003 536.688 14.1143 538.517 14.1143ZM538.517 13.1431C537.349 13.1431 536.581 12.2544 536.581 10.6992C536.581 9.14404 537.349 8.25537 538.517 8.25537C539.685 8.25537 540.446 9.14404 540.446 10.6992C540.446 12.2544 539.685 13.1431 538.517 13.1431ZM547.372 7.39844H542.014V8.30615H544.147V14H545.239V8.30615H547.372V7.39844ZM554.176 14.1523C556.087 14.1523 557.439 12.8638 557.439 11.0229C557.439 9.24561 556.169 7.95703 554.411 7.95703C553.535 7.95703 552.773 8.28711 552.361 8.83936H552.335L552.615 5.85596H556.918V4.84033H551.675L551.174 9.96924H552.247C552.621 9.32812 553.351 8.94092 554.208 8.94092C555.427 8.94092 556.296 9.82324 556.296 11.0547C556.296 12.2861 555.433 13.1494 554.189 13.1494C553.091 13.1494 552.259 12.4766 552.158 11.499H551.034C551.129 13.0605 552.424 14.1523 554.176 14.1523ZM561.838 14.1523C563.971 14.1523 565.202 12.3052 565.202 9.41064C565.202 6.53516 563.964 4.68799 561.838 4.68799C559.711 4.68799 558.461 6.54785 558.461 9.41699C558.461 12.3115 559.699 14.1523 561.838 14.1523ZM561.838 13.1558C560.403 13.1558 559.61 11.6958 559.61 9.41064C559.61 7.17627 560.422 5.69092 561.838 5.69092C563.253 5.69092 564.053 7.16357 564.053 9.41699C564.053 11.7021 563.266 13.1558 561.838 13.1558ZM569.722 14.1523C571.854 14.1523 573.086 12.3052 573.086 9.41064C573.086 6.53516 571.848 4.68799 569.722 4.68799C567.595 4.68799 566.345 6.54785 566.345 9.41699C566.345 12.3115 567.583 14.1523 569.722 14.1523ZM569.722 13.1558C568.287 13.1558 567.494 11.6958 567.494 9.41064C567.494 7.17627 568.306 5.69092 569.722 5.69092C571.137 5.69092 571.937 7.16357 571.937 9.41699C571.937 11.7021 571.15 13.1558 569.722 13.1558ZM580.271 14.1523C582.404 14.1523 583.636 12.3052 583.636 9.41064C583.636 6.53516 582.398 4.68799 580.271 4.68799C578.145 4.68799 576.895 6.54785 576.895 9.41699C576.895 12.3115 578.132 14.1523 580.271 14.1523ZM580.271 13.1558C578.837 13.1558 578.043 11.6958 578.043 9.41064C578.043 7.17627 578.856 5.69092 580.271 5.69092C581.687 5.69092 582.487 7.16357 582.487 9.41699C582.487 11.7021 581.7 13.1558 580.271 13.1558ZM588.155 14.1523C590.288 14.1523 591.52 12.3052 591.52 9.41064C591.52 6.53516 590.282 4.68799 588.155 4.68799C586.029 4.68799 584.778 6.54785 584.778 9.41699C584.778 12.3115 586.016 14.1523 588.155 14.1523ZM588.155 13.1558C586.721 13.1558 585.927 11.6958 585.927 9.41064C585.927 7.17627 586.74 5.69092 588.155 5.69092C589.571 5.69092 590.371 7.16357 590.371 9.41699C590.371 11.7021 589.583 13.1558 588.155 13.1558ZM596.039 14.1523C598.172 14.1523 599.403 12.3052 599.403 9.41064C599.403 6.53516 598.166 4.68799 596.039 4.68799C593.913 4.68799 592.662 6.54785 592.662 9.41699C592.662 12.3115 593.9 14.1523 596.039 14.1523ZM596.039 13.1558C594.604 13.1558 593.811 11.6958 593.811 9.41064C593.811 7.17627 594.624 5.69092 596.039 5.69092C597.455 5.69092 598.254 7.16357 598.254 9.41699C598.254 11.7021 597.467 13.1558 596.039 13.1558Z" fill="white"/>
<path fill-rule="evenodd" clip-rule="evenodd" d="M602.414 5H605.724C606.328 5 606.907 5.26076 607.333 5.72491C607.76 6.18906 608 6.81859 608 7.475C608 8.13141 607.76 8.76094 607.333 9.22509C606.907 9.68924 606.328 9.95 605.724 9.95H603.241V10.49H606.386V11.39H603.241V14H602.414V11.39H602V10.49H602.414V9.95H602V9.05H602.414V5ZM603.241 5.9H605.724C606.108 5.9 606.477 6.06594 606.748 6.36131C607.02 6.65668 607.172 7.05728 607.172 7.475C607.172 7.89272 607.02 8.29332 606.748 8.58869C606.477 8.88406 606.108 9.05 605.724 9.05H603.241V5.9Z" fill="white"/>
<path d="M570.5 26L573.964 20H567.036L570.5 26Z" fill="#232323"/>
</svg>
