<svg width="128" height="25" viewBox="0 0 128 25" fill="none" xmlns="http://www.w3.org/2000/svg">
<path d="M6.19141 20.2153C9.38037 20.2153 11.4517 18.0928 11.4517 14.5654C11.4517 11.0483 9.35986 8.90527 6.19141 8.90527C3.02295 8.90527 0.931152 11.0586 0.931152 14.5654C0.931152 18.0928 3.00244 20.2153 6.19141 20.2153ZM6.19141 18.1953C4.57129 18.1953 3.52539 16.8828 3.52539 14.5654C3.52539 12.2583 4.58154 10.9355 6.19141 10.9355C7.81152 10.9355 8.85742 12.2583 8.85742 14.5654C8.85742 16.8828 7.81152 18.1953 6.19141 18.1953ZM21.4492 9.13086H12.231V11.0996H15.5737V20H18.1064V11.0996H21.4492V9.13086ZM32.667 20.2974C35.9482 20.2974 38.2144 18.1851 38.2144 15.1089C38.2144 12.2275 36.1738 10.146 33.3438 10.146C31.8774 10.146 30.6675 10.7407 30.0522 11.6943H29.9907L30.3701 7.36719H37.3428V5.20361H28.2783L27.5093 13.6323H29.9087C30.4521 12.7095 31.498 12.1558 32.708 12.1558C34.4409 12.1558 35.6611 13.4067 35.6611 15.1807C35.6611 16.9238 34.4512 18.1543 32.6875 18.1543C31.1289 18.1543 29.9292 17.2109 29.7651 15.8369H27.2837C27.3965 18.4619 29.6113 20.2974 32.667 20.2974ZM45.5869 20.2974C49.2065 20.2974 51.3599 17.3135 51.3599 12.5762C51.3599 7.83887 49.186 4.90625 45.5869 4.90625C41.9775 4.90625 39.7935 7.85938 39.7935 12.5864C39.7935 17.334 41.957 20.2974 45.5869 20.2974ZM45.5869 18.1338C43.6182 18.1338 42.4595 16.0625 42.4595 12.5762C42.4595 9.15137 43.6387 7.06982 45.5869 7.06982C47.5249 7.06982 48.6836 9.13086 48.6836 12.5864C48.6836 16.0728 47.5454 18.1338 45.5869 18.1338ZM58.917 20.2974C62.5366 20.2974 64.6899 17.3135 64.6899 12.5762C64.6899 7.83887 62.5161 4.90625 58.917 4.90625C55.3076 4.90625 53.1235 7.85938 53.1235 12.5864C53.1235 17.334 55.2871 20.2974 58.917 20.2974ZM58.917 18.1338C56.9482 18.1338 55.7896 16.0625 55.7896 12.5762C55.7896 9.15137 56.9688 7.06982 58.917 7.06982C60.855 7.06982 62.0137 9.13086 62.0137 12.5864C62.0137 16.0728 60.8755 18.1338 58.917 18.1338ZM76.4512 20.2974C80.0708 20.2974 82.2241 17.3135 82.2241 12.5762C82.2241 7.83887 80.0503 4.90625 76.4512 4.90625C72.8418 4.90625 70.6577 7.85938 70.6577 12.5864C70.6577 17.334 72.8213 20.2974 76.4512 20.2974ZM76.4512 18.1338C74.4824 18.1338 73.3237 16.0625 73.3237 12.5762C73.3237 9.15137 74.5029 7.06982 76.4512 7.06982C78.3892 7.06982 79.5479 9.13086 79.5479 12.5864C79.5479 16.0728 78.4097 18.1338 76.4512 18.1338ZM89.7812 20.2974C93.4009 20.2974 95.5542 17.3135 95.5542 12.5762C95.5542 7.83887 93.3804 4.90625 89.7812 4.90625C86.1719 4.90625 83.9878 7.85938 83.9878 12.5864C83.9878 17.334 86.1514 20.2974 89.7812 20.2974ZM89.7812 18.1338C87.8125 18.1338 86.6538 16.0625 86.6538 12.5762C86.6538 9.15137 87.833 7.06982 89.7812 7.06982C91.7192 7.06982 92.8779 9.13086 92.8779 12.5864C92.8779 16.0728 91.7397 18.1338 89.7812 18.1338ZM103.111 20.2974C106.731 20.2974 108.884 17.3135 108.884 12.5762C108.884 7.83887 106.71 4.90625 103.111 4.90625C99.502 4.90625 97.3179 7.85938 97.3179 12.5864C97.3179 17.334 99.4814 20.2974 103.111 20.2974ZM103.111 18.1338C101.143 18.1338 99.9839 16.0625 99.9839 12.5762C99.9839 9.15137 101.163 7.06982 103.111 7.06982C105.049 7.06982 106.208 9.13086 106.208 12.5864C106.208 16.0728 105.07 18.1338 103.111 18.1338Z" fill="white"/>
<path fill-rule="evenodd" clip-rule="evenodd" d="M117.759 5H123.828C124.934 5 125.995 5.4346 126.778 6.20818C127.56 6.98177 128 8.03098 128 9.125C128 10.219 127.56 11.2682 126.778 12.0418C125.995 12.8154 124.934 13.25 123.828 13.25H119.276V14.15H125.041V15.65H119.276V20H117.759V15.65H117V14.15H117.759V13.25H117V11.75H117.759V5ZM119.276 6.5H123.828C124.532 6.5 125.207 6.77656 125.705 7.26884C126.203 7.76113 126.483 8.42881 126.483 9.125C126.483 9.82119 126.203 10.4889 125.705 10.9812C125.207 11.4734 124.532 11.75 123.828 11.75H119.276V6.5Z" fill="white"/>
</svg>
