<svg width="439" height="44" viewBox="0 0 439 44" fill="none" xmlns="http://www.w3.org/2000/svg">
<rect x="244" width="87" height="20" fill="#FF2424"/>
<!-- <circle cx="6" cy="38.5" r="4.5" fill="white" stroke="#FF2424" stroke-width="2"/> -->
<!-- <circle cx="433" cy="38.5" r="4.5" fill="white" stroke="#FF2424" stroke-width="2"/> -->
<path d="M254.517 14.1143C256.338 14.1143 257.57 12.8003 257.57 10.6992C257.57 8.5918 256.338 7.28418 254.517 7.28418C252.688 7.28418 251.457 8.5918 251.457 10.6992C251.457 12.8003 252.688 14.1143 254.517 14.1143ZM254.517 13.1431C253.349 13.1431 252.581 12.2544 252.581 10.6992C252.581 9.14404 253.349 8.25537 254.517 8.25537C255.685 8.25537 256.446 9.14404 256.446 10.6992C256.446 12.2544 255.685 13.1431 254.517 13.1431ZM263.372 7.39844H258.014V8.30615H260.147V14H261.239V8.30615H263.372V7.39844ZM269.364 14H270.468V4.84033H269.351L266.914 6.59229V7.79834L269.338 6.05273H269.364V14ZM275.997 14.1523C278.13 14.1523 279.361 12.3052 279.361 9.41064C279.361 6.53516 278.124 4.68799 275.997 4.68799C273.871 4.68799 272.62 6.54785 272.62 9.41699C272.62 12.3115 273.858 14.1523 275.997 14.1523ZM275.997 13.1558C274.562 13.1558 273.769 11.6958 273.769 9.41064C273.769 7.17627 274.582 5.69092 275.997 5.69092C277.413 5.69092 278.212 7.16357 278.212 9.41699C278.212 11.7021 277.425 13.1558 275.997 13.1558ZM283.881 14.1523C286.014 14.1523 287.245 12.3052 287.245 9.41064C287.245 6.53516 286.007 4.68799 283.881 4.68799C281.754 4.68799 280.504 6.54785 280.504 9.41699C280.504 12.3115 281.742 14.1523 283.881 14.1523ZM283.881 13.1558C282.446 13.1558 281.653 11.6958 281.653 9.41064C281.653 7.17627 282.465 5.69092 283.881 5.69092C285.296 5.69092 286.096 7.16357 286.096 9.41699C286.096 11.7021 285.309 13.1558 283.881 13.1558ZM294.431 14.1523C296.563 14.1523 297.795 12.3052 297.795 9.41064C297.795 6.53516 296.557 4.68799 294.431 4.68799C292.304 4.68799 291.054 6.54785 291.054 9.41699C291.054 12.3115 292.292 14.1523 294.431 14.1523ZM294.431 13.1558C292.996 13.1558 292.203 11.6958 292.203 9.41064C292.203 7.17627 293.015 5.69092 294.431 5.69092C295.846 5.69092 296.646 7.16357 296.646 9.41699C296.646 11.7021 295.859 13.1558 294.431 13.1558ZM302.314 14.1523C304.447 14.1523 305.679 12.3052 305.679 9.41064C305.679 6.53516 304.441 4.68799 302.314 4.68799C300.188 4.68799 298.938 6.54785 298.938 9.41699C298.938 12.3115 300.175 14.1523 302.314 14.1523ZM302.314 13.1558C300.88 13.1558 300.086 11.6958 300.086 9.41064C300.086 7.17627 300.899 5.69092 302.314 5.69092C303.73 5.69092 304.53 7.16357 304.53 9.41699C304.53 11.7021 303.743 13.1558 302.314 13.1558ZM310.198 14.1523C312.331 14.1523 313.562 12.3052 313.562 9.41064C313.562 6.53516 312.325 4.68799 310.198 4.68799C308.072 4.68799 306.821 6.54785 306.821 9.41699C306.821 12.3115 308.059 14.1523 310.198 14.1523ZM310.198 13.1558C308.764 13.1558 307.97 11.6958 307.97 9.41064C307.97 7.17627 308.783 5.69092 310.198 5.69092C311.614 5.69092 312.414 7.16357 312.414 9.41699C312.414 11.7021 311.626 13.1558 310.198 13.1558Z" fill="white"/>
<path fill-rule="evenodd" clip-rule="evenodd" d="M316.914 5H320.224C320.828 5 321.407 5.26076 321.833 5.72491C322.26 6.18906 322.5 6.81859 322.5 7.475C322.5 8.13141 322.26 8.76094 321.833 9.22509C321.407 9.68924 320.828 9.95 320.224 9.95H317.741V10.49H320.886V11.39H317.741V14H316.914V11.39H316.5V10.49H316.914V9.95H316.5V9.05H316.914V5ZM317.741 5.9H320.224C320.608 5.9 320.977 6.06594 321.248 6.36131C321.52 6.65668 321.672 7.05728 321.672 7.475C321.672 7.89272 321.52 8.29332 321.248 8.58869C320.977 8.88406 320.608 9.05 320.224 9.05H317.741V5.9Z" fill="white"/>
<path d="M286.5 26L289.964 20H283.036L286.5 26Z" fill="#FF2424"/>
</svg>
