<svg width="1258" height="127" viewBox="0 0 1258 127" fill="none" xmlns="http://www.w3.org/2000/svg">
<!-- <rect width="1258" height="127" fill="white"/> -->
<!-- <path d="M936.301 85.1043L935.336 84.1885C935.204 84.0629 935.043 84 934.854 84C934.664 84 934.503 84.0629 934.371 84.1885L929.715 88.6128L927.629 86.6262C927.497 86.5005 927.336 86.4377 927.146 86.4377C926.957 86.4377 926.796 86.5005 926.664 86.6262L925.699 87.5421C925.566 87.6678 925.5 87.8204 925.5 88C925.5 88.1795 925.566 88.3323 925.699 88.458L928.268 90.8956L929.233 91.8115C929.365 91.9372 929.526 92 929.715 92C929.905 92 930.066 91.937 930.198 91.8115L931.163 90.8956L936.301 86.0202C936.434 85.8945 936.5 85.7419 936.5 85.5622C936.5 85.3827 936.434 85.2301 936.301 85.1043Z" fill="#D6DDEA"/>
<path d="M74 70C74 68.8954 74.8954 68 76 68H1182C1183.1 68 1184 68.8954 1184 70C1184 71.1046 1183.1 72 1182 72H76C74.8954 72 74 71.1046 74 70Z" fill="#D6DDEA"/>
<path d="M74 70C74 68.8954 74.8954 68 76 68H670C671.105 68 672 68.8954 672 70C672 71.1046 671.105 72 670 72H76C74.8954 72 74 71.1046 74 70Z" fill="#393939"/> -->
<!-- <rect x="359" y="62" width="2" height="8" fill="#393939"/> -->
<rect x="602" y="31" width="87" height="20" fill="#232323"/>
<!-- <circle cx="79.5" cy="69.5" r="4.5" fill="white" stroke="#393939" stroke-width="2"/>
<circle cx="675.5" cy="69.5" r="4.5" fill="white" stroke="#232323" stroke-width="2"/> -->
<path d="M612.517 45.1143C614.338 45.1143 615.57 43.8003 615.57 41.6992C615.57 39.5918 614.338 38.2842 612.517 38.2842C610.688 38.2842 609.457 39.5918 609.457 41.6992C609.457 43.8003 610.688 45.1143 612.517 45.1143ZM612.517 44.1431C611.349 44.1431 610.581 43.2544 610.581 41.6992C610.581 40.144 611.349 39.2554 612.517 39.2554C613.685 39.2554 614.446 40.144 614.446 41.6992C614.446 43.2544 613.685 44.1431 612.517 44.1431ZM621.372 38.3984H616.014V39.3062H618.147V45H619.239V39.3062H621.372V38.3984ZM628.176 45.1523C630.087 45.1523 631.439 43.8638 631.439 42.0229C631.439 40.2456 630.169 38.957 628.411 38.957C627.535 38.957 626.773 39.2871 626.361 39.8394H626.335L626.615 36.856H630.918V35.8403H625.675L625.174 40.9692H626.247C626.621 40.3281 627.351 39.9409 628.208 39.9409C629.427 39.9409 630.296 40.8232 630.296 42.0547C630.296 43.2861 629.433 44.1494 628.189 44.1494C627.091 44.1494 626.259 43.4766 626.158 42.499H625.034C625.129 44.0605 626.424 45.1523 628.176 45.1523ZM635.838 45.1523C637.971 45.1523 639.202 43.3052 639.202 40.4106C639.202 37.5352 637.964 35.688 635.838 35.688C633.711 35.688 632.461 37.5479 632.461 40.417C632.461 43.3115 633.699 45.1523 635.838 45.1523ZM635.838 44.1558C634.403 44.1558 633.61 42.6958 633.61 40.4106C633.61 38.1763 634.422 36.6909 635.838 36.6909C637.253 36.6909 638.053 38.1636 638.053 40.417C638.053 42.7021 637.266 44.1558 635.838 44.1558ZM643.722 45.1523C645.854 45.1523 647.086 43.3052 647.086 40.4106C647.086 37.5352 645.848 35.688 643.722 35.688C641.595 35.688 640.345 37.5479 640.345 40.417C640.345 43.3115 641.583 45.1523 643.722 45.1523ZM643.722 44.1558C642.287 44.1558 641.494 42.6958 641.494 40.4106C641.494 38.1763 642.306 36.6909 643.722 36.6909C645.137 36.6909 645.937 38.1636 645.937 40.417C645.937 42.7021 645.15 44.1558 643.722 44.1558ZM654.271 45.1523C656.404 45.1523 657.636 43.3052 657.636 40.4106C657.636 37.5352 656.398 35.688 654.271 35.688C652.145 35.688 650.895 37.5479 650.895 40.417C650.895 43.3115 652.132 45.1523 654.271 45.1523ZM654.271 44.1558C652.837 44.1558 652.043 42.6958 652.043 40.4106C652.043 38.1763 652.856 36.6909 654.271 36.6909C655.687 36.6909 656.487 38.1636 656.487 40.417C656.487 42.7021 655.7 44.1558 654.271 44.1558ZM662.155 45.1523C664.288 45.1523 665.52 43.3052 665.52 40.4106C665.52 37.5352 664.282 35.688 662.155 35.688C660.029 35.688 658.778 37.5479 658.778 40.417C658.778 43.3115 660.016 45.1523 662.155 45.1523ZM662.155 44.1558C660.721 44.1558 659.927 42.6958 659.927 40.4106C659.927 38.1763 660.74 36.6909 662.155 36.6909C663.571 36.6909 664.371 38.1636 664.371 40.417C664.371 42.7021 663.583 44.1558 662.155 44.1558ZM670.039 45.1523C672.172 45.1523 673.403 43.3052 673.403 40.4106C673.403 37.5352 672.166 35.688 670.039 35.688C667.913 35.688 666.662 37.5479 666.662 40.417C666.662 43.3115 667.9 45.1523 670.039 45.1523ZM670.039 44.1558C668.604 44.1558 667.811 42.6958 667.811 40.4106C667.811 38.1763 668.624 36.6909 670.039 36.6909C671.455 36.6909 672.254 38.1636 672.254 40.417C672.254 42.7021 671.467 44.1558 670.039 44.1558Z" fill="white"/>
<path fill-rule="evenodd" clip-rule="evenodd" d="M676.414 36H679.724C680.328 36 680.907 36.2608 681.333 36.7249C681.76 37.1891 682 37.8186 682 38.475C682 39.1314 681.76 39.7609 681.333 40.2251C680.907 40.6892 680.328 40.95 679.724 40.95H677.241V41.49H680.386V42.39H677.241V45H676.414V42.39H676V41.49H676.414V40.95H676V40.05H676.414V36ZM677.241 36.9H679.724C680.108 36.9 680.477 37.0659 680.748 37.3613C681.02 37.6567 681.172 38.0573 681.172 38.475C681.172 38.8927 681.02 39.2933 680.748 39.5887C680.477 39.8841 680.108 40.05 679.724 40.05H677.241V36.9Z" fill="white"/>
<path d="M644.5 57L647.964 51H641.036L644.5 57Z" fill="#232323"/>
</svg>
