<svg width="44" height="37" viewBox="0 0 44 37" fill="none" xmlns="http://www.w3.org/2000/svg">
<path d="M35.4265 18.8224C35.4265 18.228 35.3759 17.5844 35.3224 17.0345H40.0177H40.1177V16.9345V1.48755V1.38755H40.0177H18.1632C8.60909 1.38755 0.9 9.38656 0.9 18.8796C0.9 28.374 8.61037 36.2001 18.1632 36.2001C27.7163 36.2001 35.4265 28.3738 35.4265 18.8224ZM18.3921 3.87598H37.6293V14.546H35.212C34.5436 14.546 33.8901 14.9684 33.425 15.4335C32.9399 15.9185 32.7651 16.6955 32.824 17.344L32.824 17.344L32.8242 17.346C32.8807 17.8544 32.8808 18.4207 32.8808 18.9368C32.8808 27.0627 26.2319 33.7116 18.106 33.7116C9.98147 33.7116 3.33142 26.9498 3.33122 18.7656C3.38824 10.6946 9.98208 3.87598 18.106 3.87598H18.1632H18.3921Z" fill="#F2F2F2" stroke="#F2F2F2" stroke-width="0.2"/>
<path d="M42.3063 0C41.6769 0 41.162 0.514897 41.162 1.14422V18.3074C41.162 18.9368 41.6769 19.4517 42.3063 19.4517C42.9356 19.4517 43.4505 18.9368 43.4505 18.3074V1.14422C43.4505 0.514897 42.9356 0 42.3063 0Z" fill="#F2F2F2"/>
<path d="M18.1632 12.0142C19.5851 12.0142 20.7377 10.8616 20.7377 9.43972C20.7377 8.01787 19.5851 6.86523 18.1632 6.86523C16.7414 6.86523 15.5887 8.01787 15.5887 9.43972C15.5887 10.8616 16.7414 12.0142 18.1632 12.0142Z" fill="#F2F2F2"/>
<path d="M13.6836 13.6374C14.7727 12.7234 14.9147 11.0996 14.0008 10.0104C13.0868 8.92131 11.463 8.7793 10.3738 9.69327C9.28471 10.6072 9.14271 12.2311 10.0567 13.3202C10.9706 14.4093 12.5945 14.5513 13.6836 13.6374Z" fill="#F2F2F2"/>
<path d="M11.3051 17.7684C11.5519 16.3682 10.6169 15.033 9.21669 14.7861C7.81645 14.5393 6.48124 15.4743 6.23441 16.8746C5.98757 18.2748 6.92259 19.61 8.32283 19.8568C9.72306 20.1037 11.0583 19.1687 11.3051 17.7684Z" fill="#F2F2F2"/>
<path d="M11.2007 25.9611C12.432 25.2501 12.8538 23.6756 12.1429 22.4443C11.432 21.213 9.85749 20.7911 8.62617 21.5021C7.39485 22.213 6.97299 23.7875 7.68391 25.0188C8.39483 26.2501 9.96934 26.672 11.2007 25.9611Z" fill="#F2F2F2"/>
<path d="M17.3422 28.8341C17.8285 27.498 17.1395 26.0207 15.8034 25.5344C14.4673 25.0481 12.99 25.7371 12.5037 27.0732C12.0174 28.4093 12.7064 29.8866 14.0425 30.3729C15.3786 30.8592 16.8559 30.1702 17.3422 28.8341Z" fill="#F2F2F2"/>
<path d="M22.3127 30.3928C23.6488 29.9066 24.3377 28.4292 23.8515 27.0931C23.3652 25.757 21.8879 25.0681 20.5518 25.5543C19.2156 26.0406 18.5267 27.5179 19.013 28.8541C19.4993 30.1902 20.9766 30.8791 22.3127 30.3928Z" fill="#F2F2F2"/>
<path d="M28.6241 25.0508C29.335 23.8195 28.9131 22.245 27.6818 21.534C26.4505 20.8231 24.876 21.245 24.1651 22.4763C23.4541 23.7076 23.876 25.2821 25.1073 25.9931C26.3386 26.704 27.9131 26.2821 28.6241 25.0508Z" fill="#F2F2F2"/>
<path d="M27.9912 19.8721C29.3914 19.6252 30.3264 18.29 30.0796 16.8898C29.8328 15.4895 28.4975 14.5545 27.0973 14.8014C25.6971 15.0482 24.762 16.3834 25.0089 17.7836C25.2557 19.1839 26.5909 20.1189 27.9912 19.8721Z" fill="#F2F2F2"/>
<path d="M26.2455 13.3353C27.1595 12.2461 27.0175 10.6223 25.9284 9.70833C24.8392 8.79436 23.2154 8.93637 22.3014 10.0255C21.3875 11.1146 21.5295 12.7385 22.6186 13.6524C23.7077 14.5664 25.3316 14.4244 26.2455 13.3353Z" fill="#F2F2F2"/>
<path d="M23.3122 18.9939C23.3122 16.1334 21.0237 13.845 18.1632 13.845C15.3027 13.845 13.0142 16.1334 13.0142 18.9939C13.0142 21.8545 15.3027 24.1429 18.1632 24.1429C21.0237 24.1429 23.3122 21.8545 23.3122 18.9939ZM18.1632 21.8545C16.5613 21.8545 15.3027 20.5958 15.3027 18.9939C15.3027 17.392 16.5613 16.1334 18.1632 16.1334C19.7651 16.1334 21.0237 17.392 21.0237 18.9939C21.0237 20.5958 19.7079 21.8545 18.1632 21.8545Z" fill="#F2F2F2"/>
</svg>
