<svg width="33" height="39" viewBox="0 0 33 39" fill="none" xmlns="http://www.w3.org/2000/svg">
<path d="M9.00006 31.1386V32.8614C9.00006 32.9374 8.93744 33 8.86149 33H7.13864C7.06269 33 7.00006 32.9374 7.00006 32.8614V31.1386C7.00006 31.0626 7.06269 31 7.13864 31H8.86149C8.93744 31.0013 9.00006 31.0626 9.00006 31.1386Z" fill="#F2F2F2"/>
<path d="M25.8726 31.1905V32.8095C25.8726 32.9139 25.7585 33 25.6202 33H12.125C11.9867 33 11.8726 32.9158 11.8726 32.8095V31.1905C11.8726 31.0861 11.9867 31 12.125 31H25.6202C25.7585 31 25.8726 31.0861 25.8726 31.1905Z" fill="#F2F2F2"/>
<path d="M9.00006 26.1386V27.8614C9.00006 27.9374 8.93744 28 8.86149 28H7.13864C7.06269 28 7.00006 27.9374 7.00006 27.8614V26.1386C7.00006 26.0626 7.06269 26 7.13864 26H8.86149C8.93744 26.0013 9.00006 26.0626 9.00006 26.1386Z" fill="#F2F2F2"/>
<path d="M25.8726 26.1905V27.8095C25.8726 27.9139 25.7585 28 25.6202 28H12.125C11.9867 28 11.8726 27.9158 11.8726 27.8095V26.1905C11.8726 26.0861 11.9867 26 12.125 26H25.6202C25.7585 26 25.8726 26.0861 25.8726 26.1905Z" fill="#F2F2F2"/>
<path d="M25.8726 21.1905V22.8095C25.8726 22.9139 25.7585 23 25.6202 23H12.125C11.9867 23 11.8726 22.9139 11.8726 22.8095V21.1905C11.8726 21.0861 11.9867 21 12.125 21H25.6202C25.7585 21 25.8726 21.0861 25.8726 21.1905Z" fill="#F2F2F2"/>
<path d="M9.00006 21.1386V22.8614C9.00006 22.9374 8.93744 23 8.86149 23H7.13864C7.06269 23 7.00006 22.9374 7.00006 22.8614V21.1386C7.00006 21.0626 7.06269 21 7.13864 21H8.86149C8.93744 21 9.00006 21.0613 9.00006 21.1386Z" fill="#F2F2F2"/>
<path d="M25.8726 16.1905V17.8095C25.8726 17.9139 25.7585 18 25.6201 18H12.125C11.9866 18 11.8726 17.9139 11.8726 17.8095V16.1905C11.8726 16.0861 11.9866 16 12.125 16H25.6201C25.7585 16 25.8726 16.0861 25.8726 16.1905Z" fill="#F2F2F2"/>
<path d="M9 16.1386V17.8614C9 17.9374 8.93738 18 8.86143 18H7.13857C7.06262 18 7 17.9374 7 17.8614V16.1386C7 16.0626 7.06262 16 7.13857 16H8.86143C8.93738 16 9 16.0613 9 16.1386Z" fill="#F2F2F2"/>
<path d="M26.901 37.5H6C3.51472 37.5 1.5 35.4853 1.5 33V6C1.5 3.51472 3.51472 1.5 6 1.5H19.918L31.0525 11.6713L31.4004 32.9263C31.4415 35.4401 29.4151 37.5 26.901 37.5Z" stroke="#F2F2F2" stroke-width="3"/>
<path d="M19 2V13H31" stroke="#F2F2F2" stroke-width="2"/>
</svg>
