<svg width="36" height="42" viewBox="0 0 36 42" fill="none" xmlns="http://www.w3.org/2000/svg">
<path d="M14.9715 27.1968C15.224 27.3231 15.5186 27.4493 15.7711 27.5335C15.8553 27.5756 15.8974 27.6177 15.9395 27.7439L16.192 30.1847C16.234 30.5635 16.5707 30.8581 16.9495 30.8581H19.0536C19.4324 30.8581 19.769 30.5635 19.8111 30.1847L20.0636 27.7439C20.0636 27.6598 20.1478 27.5756 20.2319 27.5335C20.5265 27.4493 20.779 27.3231 21.0315 27.1968C21.1157 27.1548 21.1999 27.1548 21.284 27.2389L23.2198 28.796C23.5144 29.0485 23.9773 29.0064 24.2719 28.7539L25.7869 27.2389C26.0815 26.9443 26.0815 26.5235 25.829 26.1869L24.2719 24.251C24.2298 24.1669 24.1878 24.0827 24.2298 23.9985C24.3561 23.746 24.4823 23.4514 24.5665 23.199C24.6086 23.1148 24.6507 23.0727 24.7769 23.0306L27.2177 22.7781C27.5965 22.736 27.8911 22.3994 27.8911 22.0206V19.9165C27.8911 19.5377 27.5965 19.2011 27.2177 19.159L24.7348 18.9486C24.6507 18.9486 24.5665 18.8644 24.5244 18.7802C24.4403 18.4856 24.314 18.2331 24.1878 17.9806C24.1457 17.8965 24.1457 17.8123 24.2298 17.7281L25.7869 15.7923C26.0394 15.4977 25.9973 15.0348 25.7448 14.7402L24.2298 13.2253C23.9353 12.9307 23.5144 12.9307 23.1778 13.1832L21.2419 14.7402C21.1578 14.7823 21.0736 14.8244 20.9894 14.7823C20.7369 14.6561 20.4424 14.5298 20.1899 14.4457C20.1057 14.4036 20.0636 14.3615 20.0215 14.2352L19.769 11.7944C19.7269 11.4157 19.3903 11.1211 19.0115 11.1211H16.9074C16.5286 11.1211 16.192 11.4157 16.1499 11.7944L15.9395 14.2773C15.9395 14.3615 15.8553 14.4457 15.7711 14.4877C15.4765 14.5719 15.224 14.6982 14.9715 14.8244C14.8874 14.8665 14.8032 14.8665 14.7191 14.7823L12.7832 13.2253C12.4886 12.9728 12.0257 13.0148 11.7311 13.2673L10.2162 14.7823C9.92157 15.0769 9.92157 15.4977 10.1741 15.8344L11.7311 17.7702C11.7732 17.8544 11.8153 17.9386 11.7732 18.0227C11.647 18.2752 11.5207 18.5698 11.4366 18.8223C11.3945 18.9065 11.3524 18.9486 11.2262 18.9906L8.78533 19.2431C8.40658 19.2852 8.112 19.6219 8.112 20.0006V22.1048C8.112 22.4835 8.40658 22.8202 8.78533 22.8623L11.2262 23.1148C11.3103 23.1148 11.3945 23.199 11.4366 23.2831C11.5207 23.5777 11.647 23.8302 11.7732 24.0827C11.8153 24.1669 11.8153 24.251 11.7311 24.3352L10.1741 26.271C9.92157 26.5656 9.96366 27.0285 10.2162 27.3231L11.7311 28.8381C12.0257 29.1327 12.4466 29.1327 12.7832 28.8802L14.7191 27.3231C14.8032 27.1968 14.8874 27.1548 14.9715 27.1968ZM18.0015 16.9706C20.2319 16.9706 22.0415 18.7802 22.0415 21.0106C22.0415 23.241 20.2319 25.0506 18.0015 25.0506C15.7711 25.0506 13.9616 23.241 13.9616 21.0106C13.9616 18.7802 15.7711 16.9706 18.0015 16.9706Z" fill="#F2F2F2"/>
<path d="M16.9916 22.8201C17.1179 22.9884 17.3283 23.0726 17.5387 23.0726C17.7491 23.0726 17.9595 22.9884 18.0858 22.8201L20.1058 20.3793C20.3583 20.0847 20.3162 19.6218 20.0216 19.3272C19.727 19.0747 19.2641 19.1168 19.0116 19.4113L17.5387 21.1788L16.9916 20.5055C16.7391 20.2109 16.2762 20.1688 15.9395 20.4213C15.645 20.6738 15.6029 21.1367 15.8554 21.4734L16.9916 22.8201Z" fill="#F2F2F2"/>
<path d="M3.31207 21.0105C3.31207 13.0046 9.72317 6.49055 17.6894 6.32427L16.899 7.11465C16.3805 7.63311 16.3805 8.42265 16.899 8.94111C17.1612 9.20332 17.4796 9.30892 17.7912 9.30892C18.0797 9.30892 18.4571 9.21611 18.6923 8.93215L21.6713 5.95321C22.1897 5.43475 22.1897 4.64521 21.6713 4.12675L18.6834 1.13885C18.1649 0.620384 17.3754 0.620385 16.8569 1.13885C16.3384 1.65731 16.3384 2.44685 16.8569 2.96531L17.654 3.76238C8.29159 3.94774 0.75 11.6041 0.75 21.0105C0.75 26.518 3.39639 31.7273 7.83782 34.9311C8.03996 35.0822 8.30091 35.19 8.57496 35.19C8.98187 35.19 9.35656 35.0329 9.61951 34.6653C10.0324 34.0966 9.93312 33.3083 9.35372 32.8865C5.58747 30.1132 3.31207 25.6848 3.31207 21.0105Z" fill="#F2F2F2" stroke="#F2F2F2" stroke-width="0.5"/>
<path d="M35.2532 21.0105C35.2532 15.5025 32.6062 10.2927 28.164 7.08893C27.5951 6.67555 26.8062 6.77483 26.3844 7.35482C25.9707 7.92357 26.0697 8.71245 26.6494 9.13447C30.4157 11.9078 32.6911 16.3362 32.6911 21.0105C32.6911 29.0164 26.28 35.5305 18.3138 35.6968L19.1042 34.9064C19.6227 34.388 19.6227 33.5984 19.1042 33.08C18.5858 32.5615 17.7962 32.5615 17.2778 33.08L14.2898 36.0679C13.7714 36.5863 13.7714 37.3759 14.2898 37.8943L17.2778 40.8822C17.54 41.1444 17.8584 41.25 18.1699 41.25C18.4586 41.25 18.8363 41.1571 19.0715 40.8727C19.5806 40.3542 19.5774 39.5711 19.0621 39.0558L18.2665 38.2601C27.6671 38.1184 35.2532 30.4447 35.2532 21.0105Z" fill="#F2F2F2" stroke="#F2F2F2" stroke-width="0.5"/>
</svg>
