<svg width="252" height="42" viewBox="0 0 252 42" fill="none" xmlns="http://www.w3.org/2000/svg">
<path d="M18.0527 22.8047H8.10352V33H1.93359V7.40625H19.0547V12.1699H8.10352V18.0586H18.0527V22.8047ZM28.1953 33H22.043V7.40625H28.1953V33ZM53.8594 33H47.7246L38.6543 17.0742V33H32.4844V7.40625H38.6543L47.707 23.332V7.40625H53.8594V33ZM57.7617 33V7.40625H66.0059C68.2676 7.40625 70.3008 7.92187 72.1055 8.95312C73.9102 9.97266 75.3164 11.4199 76.3242 13.2949C77.3438 15.1582 77.8594 17.25 77.8711 19.5703V20.748C77.8711 23.0918 77.373 25.1953 76.377 27.0586C75.3926 28.9102 73.998 30.3633 72.1934 31.418C70.4004 32.4609 68.3965 32.9883 66.1816 33H57.7617ZM63.9316 12.1699V28.2539H66.0762C67.8457 28.2539 69.2051 27.627 70.1543 26.373C71.1035 25.1074 71.5781 23.2324 71.5781 20.748V19.6406C71.5781 17.168 71.1035 15.3047 70.1543 14.0508C69.2051 12.7969 67.8223 12.1699 66.0059 12.1699H63.9316ZM96.9082 22.1543H87.2051V28.2539H98.666V33H81.0352V7.40625H98.7012V12.1699H87.2051V17.5664H96.9082V22.1543ZM110.689 23.9648H107.35V33H101.18V7.40625H111.252C114.287 7.40625 116.66 8.08008 118.371 9.42773C120.082 10.7754 120.938 12.6797 120.938 15.1406C120.938 16.9219 120.574 18.3984 119.848 19.5703C119.133 20.7422 118.008 21.6914 116.473 22.418L121.816 32.7363V33H115.207L110.689 23.9648ZM107.35 19.2012H111.252C112.424 19.2012 113.303 18.8965 113.889 18.2871C114.486 17.666 114.785 16.8047 114.785 15.7031C114.785 14.6016 114.486 13.7402 113.889 13.1191C113.291 12.4863 112.412 12.1699 111.252 12.1699H107.35V19.2012Z" fill="#C02448"/>
<path d="M136.129 17.078C135.227 17.078 134.408 16.8787 133.672 16.48C132.944 16.0727 132.372 15.518 131.956 14.816C131.548 14.114 131.345 13.3253 131.345 12.45C131.345 11.5747 131.548 10.786 131.956 10.084C132.372 9.382 132.944 8.83167 133.672 8.433C134.408 8.02567 135.227 7.822 136.129 7.822C137.03 7.822 137.84 8.02133 138.56 8.42C139.288 8.81867 139.86 9.37333 140.276 10.084C140.692 10.786 140.9 11.5747 140.9 12.45C140.9 13.3253 140.692 14.1183 140.276 14.829C139.86 15.531 139.288 16.0813 138.56 16.48C137.84 16.8787 137.03 17.078 136.129 17.078ZM136.129 16.22C136.848 16.22 137.498 16.0597 138.079 15.739C138.659 15.4097 139.114 14.959 139.444 14.387C139.773 13.8063 139.938 13.1607 139.938 12.45C139.938 11.7393 139.773 11.098 139.444 10.526C139.114 9.94533 138.659 9.49467 138.079 9.174C137.498 8.84467 136.848 8.68 136.129 8.68C135.409 8.68 134.755 8.84467 134.166 9.174C133.585 9.49467 133.126 9.94533 132.788 10.526C132.458 11.098 132.294 11.7393 132.294 12.45C132.294 13.1607 132.458 13.8063 132.788 14.387C133.126 14.959 133.585 15.4097 134.166 15.739C134.755 16.0597 135.409 16.22 136.129 16.22ZM152.932 12.437C152.932 13.6417 152.503 14.5907 151.645 15.284C150.796 15.9687 149.604 16.3327 148.07 16.376V17.312H147.173V16.376C145.639 16.324 144.443 15.9557 143.585 15.271C142.736 14.5863 142.311 13.6417 142.311 12.437C142.311 11.2323 142.736 10.2877 143.585 9.603C144.443 8.91833 145.639 8.55 147.173 8.498V7.588H148.07V8.498C149.595 8.55 150.787 8.92267 151.645 9.616C152.503 10.3007 152.932 11.241 152.932 12.437ZM148.07 15.609C149.327 15.557 150.297 15.258 150.982 14.712C151.667 14.166 152.009 13.4077 152.009 12.437C152.009 11.4663 151.662 10.708 150.969 10.162C150.284 9.616 149.318 9.32133 148.07 9.278V15.609ZM143.234 12.437C143.234 13.4077 143.576 14.166 144.261 14.712C144.954 15.2493 145.925 15.5483 147.173 15.609V9.278C145.908 9.33 144.933 9.629 144.248 10.175C143.572 10.7123 143.234 11.4663 143.234 12.437ZM155.116 7.9H156.065V15.44L161.889 7.9H162.76V17H161.811V9.473L155.987 17H155.116V7.9ZM174.671 16.168V19.132H173.774V17H165.831V7.9H166.78V16.168H172.279V7.9H173.228V16.168H174.671ZM176.584 7.9H177.533V15.44L183.357 7.9H184.228V17H183.279V9.473L177.455 17H176.584V7.9ZM193.123 14.569H188.053L186.961 17H185.96L190.12 7.9H191.069L195.229 17H194.215L193.123 14.569ZM192.772 13.789L190.588 8.901L188.404 13.789H192.772ZM204.135 7.9V17H203.186V8.732H198.792L198.688 11.774C198.645 13.0307 198.541 14.0447 198.376 14.816C198.22 15.5787 197.977 16.1507 197.648 16.532C197.319 16.9047 196.881 17.091 196.335 17.091C196.101 17.091 195.858 17.0607 195.607 17L195.685 16.142C195.832 16.1767 195.975 16.194 196.114 16.194C196.495 16.194 196.803 16.0423 197.037 15.739C197.28 15.4357 197.462 14.9677 197.583 14.335C197.704 13.6937 197.787 12.8487 197.83 11.8L197.96 7.9H204.135ZM211.014 11.15C212.089 11.15 212.908 11.3927 213.471 11.878C214.043 12.3633 214.329 13.074 214.329 14.01C214.329 14.9893 214.026 15.7347 213.419 16.246C212.821 16.7487 211.954 17 210.819 17H207.205V7.9H208.154V11.15H211.014ZM210.793 16.233C211.634 16.233 212.271 16.0467 212.704 15.674C213.146 15.3013 213.367 14.751 213.367 14.023C213.367 12.6277 212.509 11.93 210.793 11.93H208.154V16.233H210.793ZM224.039 7.9V17H223.09V12.801H217.396V17H216.434V7.9H217.396V11.956H223.09V7.9H224.039ZM230.92 11.15C231.995 11.15 232.814 11.3927 233.377 11.878C233.949 12.3633 234.235 13.074 234.235 14.01C234.235 14.9893 233.932 15.7347 233.325 16.246C232.727 16.7487 231.86 17 230.725 17H227.111V7.9H228.06V11.15H230.92ZM230.699 16.233C231.54 16.233 232.177 16.0467 232.61 15.674C233.052 15.3013 233.273 14.751 233.273 14.023C233.273 12.6277 232.415 11.93 230.699 11.93H228.06V16.233H230.699ZM235.808 7.9H236.757V17H235.808V7.9ZM239.819 7.9H240.768V15.44L246.592 7.9H247.463V17H246.514V9.473L240.69 17H239.819V7.9ZM243.615 7.237C242.965 7.237 242.449 7.08967 242.068 6.795C241.695 6.50033 241.505 6.08867 241.496 5.56H242.211C242.22 5.90667 242.35 6.17967 242.601 6.379C242.852 6.57833 243.19 6.678 243.615 6.678C244.031 6.678 244.365 6.57833 244.616 6.379C244.876 6.17967 245.01 5.90667 245.019 5.56H245.734C245.725 6.08867 245.53 6.50033 245.149 6.795C244.768 7.08967 244.256 7.237 243.615 7.237ZM140.662 32.168V35.041H139.765V33H131.822L131.809 35.041H130.912L130.925 32.168H131.38C131.978 32.1333 132.394 31.661 132.628 30.751C132.862 29.8323 133.005 28.5323 133.057 26.851L133.161 23.9H139.297V32.168H140.662ZM133.915 26.942C133.871 28.3287 133.763 29.4727 133.59 30.374C133.425 31.2667 133.143 31.8647 132.745 32.168H138.348V24.732H133.993L133.915 26.942ZM142.624 23.9H143.573V31.44L149.397 23.9H150.268V33H149.319V25.473L143.495 33H142.624V23.9ZM157.317 33.078C156.415 33.078 155.601 32.8787 154.873 32.48C154.153 32.0813 153.586 31.531 153.17 30.829C152.762 30.1183 152.559 29.3253 152.559 28.45C152.559 27.5747 152.762 26.786 153.17 26.084C153.586 25.3733 154.158 24.8187 154.886 24.42C155.614 24.0213 156.428 23.822 157.33 23.822C158.006 23.822 158.63 23.9347 159.202 24.16C159.774 24.3853 160.259 24.7147 160.658 25.148L160.047 25.759C159.336 25.0397 158.439 24.68 157.356 24.68C156.636 24.68 155.982 24.8447 155.393 25.174C154.803 25.5033 154.34 25.954 154.002 26.526C153.672 27.098 153.508 27.7393 153.508 28.45C153.508 29.1607 153.672 29.802 154.002 30.374C154.34 30.946 154.803 31.3967 155.393 31.726C155.982 32.0553 156.636 32.22 157.356 32.22C158.448 32.22 159.345 31.856 160.047 31.128L160.658 31.739C160.259 32.1723 159.769 32.506 159.189 32.74C158.617 32.9653 157.993 33.078 157.317 33.078ZM168.484 24.732H165.286V33H164.337V24.732H161.139V23.9H168.484V24.732ZM173.579 23.9C174.74 23.9 175.65 24.1773 176.309 24.732C176.967 25.2867 177.297 26.0493 177.297 27.02C177.297 27.9907 176.967 28.7533 176.309 29.308C175.65 29.854 174.74 30.127 173.579 30.127H171.135V33H170.173V23.9H173.579ZM173.553 29.282C174.454 29.282 175.143 29.087 175.62 28.697C176.096 28.2983 176.335 27.7393 176.335 27.02C176.335 26.2833 176.096 25.72 175.62 25.33C175.143 24.9313 174.454 24.732 173.553 24.732H171.135V29.282H173.553ZM179.275 23.9H180.224V31.44L186.048 23.9H186.919V33H185.97V25.473L180.146 33H179.275V23.9ZM189.99 23.9H196.646V24.719H190.939V27.696H193.916C194.991 27.696 195.805 27.917 196.36 28.359C196.923 28.801 197.205 29.4423 197.205 30.283C197.205 31.1583 196.902 31.83 196.295 32.298C195.697 32.766 194.835 33 193.708 33H189.99V23.9ZM193.695 32.233C194.536 32.233 195.168 32.0727 195.593 31.752C196.026 31.4313 196.243 30.9547 196.243 30.322C196.243 29.698 196.031 29.2343 195.606 28.931C195.19 28.619 194.553 28.463 193.695 28.463H190.939V32.233H193.695ZM203.244 27.15C204.319 27.15 205.138 27.3927 205.701 27.878C206.273 28.3633 206.559 29.074 206.559 30.01C206.559 30.9893 206.256 31.7347 205.649 32.246C205.051 32.7487 204.185 33 203.049 33H199.435V23.9H200.384V27.15H203.244ZM203.023 32.233C203.864 32.233 204.501 32.0467 204.934 31.674C205.376 31.3013 205.597 30.751 205.597 30.023C205.597 28.6277 204.739 27.93 203.023 27.93H200.384V32.233H203.023ZM216.01 23.822C216.868 23.822 217.644 24.0213 218.337 24.42C219.03 24.8187 219.572 25.3733 219.962 26.084C220.361 26.786 220.56 27.5747 220.56 28.45C220.56 29.3253 220.361 30.1183 219.962 30.829C219.572 31.531 219.03 32.0813 218.337 32.48C217.644 32.8787 216.868 33.078 216.01 33.078C215.195 33.078 214.454 32.896 213.787 32.532C213.12 32.168 212.582 31.661 212.175 31.011C211.768 30.361 211.538 29.6287 211.486 28.814H209.614V33H208.665V23.9H209.614V27.943H211.499C211.568 27.1543 211.807 26.448 212.214 25.824C212.63 25.1913 213.167 24.7017 213.826 24.355C214.485 23.9997 215.213 23.822 216.01 23.822ZM216.01 32.22C216.686 32.22 217.297 32.0597 217.843 31.739C218.389 31.4097 218.818 30.959 219.13 30.387C219.442 29.815 219.598 29.1693 219.598 28.45C219.598 27.7307 219.442 27.085 219.13 26.513C218.818 25.941 218.389 25.4947 217.843 25.174C217.297 24.8447 216.686 24.68 216.01 24.68C215.343 24.68 214.736 24.8447 214.19 25.174C213.644 25.4947 213.215 25.941 212.903 26.513C212.591 27.085 212.435 27.7307 212.435 28.45C212.435 29.1693 212.591 29.815 212.903 30.387C213.215 30.959 213.644 31.4097 214.19 31.739C214.736 32.0597 215.343 32.22 216.01 32.22ZM228.685 24.732H225.487V33H224.538V24.732H221.34V23.9H228.685V24.732ZM234.238 33.078C233.337 33.078 232.518 32.8787 231.781 32.48C231.053 32.0727 230.481 31.518 230.065 30.816C229.658 30.114 229.454 29.3253 229.454 28.45C229.454 27.5747 229.658 26.786 230.065 26.084C230.481 25.382 231.053 24.8317 231.781 24.433C232.518 24.0257 233.337 23.822 234.238 23.822C235.139 23.822 235.95 24.0213 236.669 24.42C237.397 24.8187 237.969 25.3733 238.385 26.084C238.801 26.786 239.009 27.5747 239.009 28.45C239.009 29.3253 238.801 30.1183 238.385 30.829C237.969 31.531 237.397 32.0813 236.669 32.48C235.95 32.8787 235.139 33.078 234.238 33.078ZM234.238 32.22C234.957 32.22 235.607 32.0597 236.188 31.739C236.769 31.4097 237.224 30.959 237.553 30.387C237.882 29.8063 238.047 29.1607 238.047 28.45C238.047 27.7393 237.882 27.098 237.553 26.526C237.224 25.9453 236.769 25.4947 236.188 25.174C235.607 24.8447 234.957 24.68 234.238 24.68C233.519 24.68 232.864 24.8447 232.275 25.174C231.694 25.4947 231.235 25.9453 230.897 26.526C230.568 27.098 230.403 27.7393 230.403 28.45C230.403 29.1607 230.568 29.8063 230.897 30.387C231.235 30.959 231.694 31.4097 232.275 31.739C232.864 32.0597 233.519 32.22 234.238 32.22ZM244.711 23.9C245.872 23.9 246.782 24.1773 247.441 24.732C248.099 25.2867 248.429 26.0493 248.429 27.02C248.429 27.9907 248.099 28.7533 247.441 29.308C246.782 29.854 245.872 30.127 244.711 30.127H242.267V33H241.305V23.9H244.711ZM244.685 29.282C245.586 29.282 246.275 29.087 246.752 28.697C247.228 28.2983 247.467 27.7393 247.467 27.02C247.467 26.2833 247.228 25.72 246.752 25.33C246.275 24.9313 245.586 24.732 244.685 24.732H242.267V29.282H244.685Z" fill="#C02448"/>
</svg>
