<svg width="15" height="18" viewBox="0 0 15 18" fill="none" xmlns="http://www.w3.org/2000/svg">
<path d="M2.10938 0C0.952734 0 0 0.914625 0 2.025V15.975C0 17.0854 0.952734 18 2.10938 18H12.8906C14.0473 18 15 17.0854 15 15.975V6.525C15 6.34599 14.9259 6.17432 14.794 6.04775L14.7867 6.04072L8.70026 0.197754C8.56841 0.0711669 8.38959 3.44378e-05 8.20312 0H2.10938ZM2.10938 1.35H7.5V5.175C7.5 6.28538 8.45273 7.2 9.60938 7.2H13.5938V15.975C13.5938 16.3559 13.2874 16.65 12.8906 16.65H2.10938C1.71258 16.65 1.40625 16.3559 1.40625 15.975V2.025C1.40625 1.64408 1.71258 1.35 2.10938 1.35ZM8.90625 2.30449L12.5995 5.85H9.60938C9.21258 5.85 8.90625 5.55592 8.90625 5.175V2.30449Z" fill="#F2F2F2"/>
</svg>
