<svg width="36" height="36" viewBox="0 0 36 36" fill="none" xmlns="http://www.w3.org/2000/svg">
<path d="M2.09677 1.54858H1V2.09697H2.09677V1.54858Z" stroke="#F2F2F2" stroke-width="1.5"/>
<path d="M8.12903 8.12903H1V1H8.12903V8.12903ZM2.09677 7.03226H7.03226V2.09677H2.09677V7.03226Z" stroke="#F2F2F2" stroke-width="1.5"/>
<path d="M13.0645 13.0645H1V1H13.0645V13.0645ZM2.09677 11.9677H11.9677V2.09677H2.09677V11.9677Z" stroke="#F2F2F2" stroke-width="1.5"/>
<path d="M22.3871 22.3871H1V1H22.3871V22.3871ZM2.09677 21.2903H21.2903V2.09677H2.09677V21.2903Z" stroke="#F2F2F2" stroke-width="1.5"/>
<path d="M29.5161 29.5161H1V1H29.5161V29.5161ZM2.09677 28.4194H28.4194V2.09677H2.09677V28.4194Z" stroke="#F2F2F2" stroke-width="1.5"/>
<path d="M35 35H1V1H35V35ZM2.09677 33.9032H33.9032V2.09677H2.09677V33.9032Z" stroke="#F2F2F2" stroke-width="1.5"/>
</svg>
