<?xml version="1.0" encoding="UTF-8" standalone="no"?>
<!DOCTYPE svg PUBLIC "-//W3C//DTD SVG 1.1//EN" "http://www.w3.org/Graphics/SVG/1.1/DTD/svg11.dtd">
<svg version="1.1" xmlns="http://www.w3.org/2000/svg" xmlns:xlink="http://www.w3.org/1999/xlink" preserveAspectRatio="xMidYMid meet" viewBox="0 0 640 640" width="640" height="640"><defs><path d="M473.53 267.28L480.84 268.03L488.07 269.07L495.19 270.38L502.22 271.98L509.14 273.83L515.95 275.96L522.65 278.34L529.21 280.97L535.65 283.85L541.96 286.96L548.12 290.32L554.14 293.89L560 297.7L565.71 301.71L571.25 305.94L576.62 310.38L581.82 315.01L586.83 319.84L591.66 324.85L596.29 330.05L600.72 335.42L604.95 340.96L608.97 346.67L612.77 352.53L616.35 358.55L619.7 364.71L622.82 371.01L625.7 377.45L628.33 384.02L630.71 390.71L632.83 397.52L634.69 404.45L636.28 411.47L637.6 418.6L638.63 425.82L639.38 433.14L639.84 440.53L640 448L639.85 455.47L639.4 462.87L638.66 470.19L637.63 477.41L636.32 484.54L634.73 491.58L632.87 498.5L630.76 505.31L628.38 512.01L625.75 518.58L622.87 525.02L619.76 531.33L616.41 537.5L612.83 543.52L609.03 549.38L605.01 555.09L600.78 560.64L596.35 566.01L591.72 571.21L586.89 576.22L581.87 581.05L576.68 585.68L571.3 590.12L565.76 594.35L560.05 598.36L554.18 602.17L548.17 605.74L542 609.09L535.69 612.21L529.25 615.08L522.68 617.71L515.98 620.09L509.17 622.21L502.24 624.06L495.21 625.65L488.08 626.96L480.85 627.99L473.54 628.73L466.14 629.18L458.67 629.33L451.19 629.18L443.79 628.73L436.48 627.99L429.25 626.96L422.12 625.65L415.09 624.06L408.17 622.21L401.35 620.09L394.66 617.71L388.08 615.08L381.64 612.21L375.33 609.09L369.17 605.74L363.15 602.17L357.28 598.36L351.57 594.35L346.03 590.12L340.66 585.68L335.46 581.05L330.45 576.22L325.62 571.21L320.98 566.01L316.55 560.64L312.32 555.09L308.3 549.38L304.5 543.52L300.92 537.5L297.57 531.33L294.46 525.02L291.58 518.58L288.95 512.01L286.58 505.31L284.46 498.5L282.6 491.58L281.02 484.54L279.71 477.41L278.68 470.19L277.93 462.87L277.48 455.47L277.33 448L277.48 440.53L277.93 433.13L278.68 425.81L279.71 418.59L281.02 411.46L282.6 404.42L284.46 397.5L286.58 390.69L288.95 383.99L291.58 377.42L294.46 370.98L297.57 364.67L300.92 358.5L304.5 352.48L308.3 346.62L312.32 340.91L316.55 335.36L320.98 329.99L325.62 324.79L330.45 319.78L335.46 314.95L340.66 310.32L346.03 305.88L351.57 301.65L357.28 297.64L363.15 293.83L369.17 290.26L375.33 286.91L381.64 283.79L388.08 280.92L394.66 278.29L401.35 275.91L408.17 273.79L415.09 271.94L422.12 270.35L429.25 269.04L436.48 268.01L443.79 267.27L451.19 266.82L458.67 266.67L466.14 266.83L473.53 267.28ZM445.54 288.53L439.09 289.19L432.71 290.09L426.42 291.25L420.22 292.65L414.11 294.29L408.09 296.16L402.19 298.25L396.39 300.57L390.7 303.11L385.14 305.86L379.7 308.81L374.39 311.97L369.21 315.33L364.17 318.87L359.28 322.6L354.54 326.52L349.96 330.6L345.53 334.86L341.27 339.29L337.18 343.87L333.27 348.62L329.54 353.51L325.99 358.54L322.64 363.72L319.48 369.03L316.53 374.47L313.78 380.04L311.24 385.72L308.92 391.52L306.82 397.43L304.95 403.44L303.32 409.55L301.92 415.75L300.76 422.05L299.85 428.42L299.2 434.88L298.8 441.4L298.67 448L298.8 454.6L299.2 461.12L299.85 467.58L300.76 473.95L301.92 480.25L303.32 486.45L304.95 492.56L306.82 498.57L308.92 504.48L311.24 510.28L313.78 515.96L316.53 521.53L319.48 526.97L322.64 532.28L325.99 537.46L329.54 542.49L333.27 547.38L337.18 552.13L341.27 556.71L345.53 561.14L349.96 565.4L354.54 569.48L359.28 573.4L364.17 577.13L369.21 580.67L374.39 584.03L379.7 587.19L385.14 590.14L390.7 592.89L396.39 595.43L402.19 597.75L408.09 599.84L414.11 601.71L420.22 603.35L426.42 604.75L432.71 605.91L439.09 606.81L445.54 607.47L452.07 607.87L458.67 608L465.26 607.86L471.78 607.46L478.23 606.79L484.61 605.88L490.9 604.72L497.1 603.32L503.2 601.67L509.21 599.8L515.12 597.7L520.91 595.38L526.6 592.84L532.16 590.09L537.6 587.13L542.91 583.97L548.08 580.62L553.11 577.07L558 573.34L562.74 569.43L567.33 565.34L571.75 561.08L576.01 556.66L580.1 552.08L584.01 547.34L587.74 542.45L591.29 537.41L594.64 532.24L597.8 526.93L600.76 521.49L603.51 515.93L606.05 510.25L608.37 504.45L610.47 498.55L612.34 492.54L613.98 486.43L615.39 480.23L616.55 473.94L617.46 467.57L618.12 461.12L618.53 454.59L618.67 448L618.53 441.4L618.14 434.88L617.48 428.42L616.57 422.05L615.42 415.75L614.02 409.55L612.38 403.44L610.51 397.43L608.41 391.52L606.09 385.72L603.56 380.04L600.81 374.47L597.85 369.03L594.69 363.72L591.34 358.54L587.8 353.51L584.06 348.62L580.15 343.87L576.06 339.29L571.8 334.86L567.38 330.6L562.79 326.52L558.05 322.6L553.16 318.87L548.12 315.33L542.95 311.97L537.64 308.81L532.2 305.86L526.63 303.11L520.95 300.57L515.15 298.25L509.24 296.16L503.23 294.29L497.12 292.65L490.91 291.25L484.62 290.09L478.24 289.19L471.79 288.53L465.26 288.13L458.67 288L452.07 288.13L445.54 288.53Z" id="a1hIYdpQaQ"></path><path d="M470.38 418.35L471.4 418.77L472.4 419.22L473.38 419.71L474.34 420.22L475.28 420.77L476.19 421.34L477.08 421.94L477.95 422.57L478.8 423.23L479.61 423.91L480.41 424.62L481.18 425.36L481.92 426.12L482.63 426.9L483.32 427.7L483.98 428.52L484.62 429.37L485.22 430.24L485.8 431.12L486.34 432.02L486.86 432.94L487.34 433.88L487.8 434.84L488.22 435.81L488.61 436.79L488.97 437.79L489.3 438.8L489.59 439.82L489.85 440.86L490.08 441.9L490.27 442.96L490.42 444.02L490.54 445.1L490.62 446.18L490.67 447.27L490.68 448.36L490.65 449.46L490.58 450.56L490.47 451.67L490.33 452.78L490.15 453.87L489.93 454.94L489.68 456.01L489.39 457.06L489.07 458.09L488.71 459.11L488.32 460.12L487.9 461.1L487.45 462.07L486.97 463.02L486.45 463.96L485.91 464.87L485.34 465.76L484.73 466.63L484.11 467.48L483.45 468.31L482.77 469.12L482.06 469.9L481.32 470.66L480.57 471.39L479.78 472.1L478.98 472.78L478.15 473.44L477.3 474.07L476.43 474.67L475.53 475.24L474.62 475.79L473.69 476.3L472.74 476.78L471.77 477.24L470.78 477.66L469.78 478.05L468.76 478.4L467.73 478.72L466.68 479.01L465.61 479.26L464.53 479.48L463.44 479.66L462.34 479.81L461.23 479.91L460.13 479.98L459.03 480.01L457.93 480L456.85 479.95L455.76 479.87L454.69 479.75L453.63 479.6L452.57 479.41L451.52 479.18L450.49 478.92L449.47 478.63L448.46 478.31L447.46 477.95L446.47 477.56L445.5 477.13L444.55 476.68L443.61 476.19L442.69 475.68L441.79 475.13L440.9 474.55L440.04 473.95L439.19 473.32L438.37 472.66L437.56 471.97L436.78 471.25L436.02 470.51L435.29 469.74L434.58 468.95L433.9 468.13L433.24 467.29L432.61 466.42L432.01 465.53L431.43 464.61L430.89 463.68L430.37 462.72L429.89 461.73L429.44 460.73L429.02 459.71L428.63 458.67L384 458.67L384 437.33L428.63 437.33L428.88 436.66L429.14 435.99L429.42 435.33L429.71 434.68L430.02 434.04L430.34 433.4L430.67 432.78L431.02 432.16L431.37 431.55L431.75 430.95L432.13 430.36L432.53 429.77L432.94 429.2L433.36 428.64L433.79 428.08L434.24 427.54L434.7 427.01L435.16 426.48L435.64 425.97L436.14 425.47L436.64 424.98L437.15 424.5L437.67 424.03L438.21 423.57L438.75 423.13L439.3 422.69L439.87 422.27L440.44 421.86L441.02 421.46L441.61 421.08L442.22 420.71L442.83 420.35L443.44 420L444.07 419.67L444.71 419.35L445.35 419.05L446 418.75L446.66 418.48L447.33 418.21L448 417.96L448 352L469.33 352L469.33 417.96L470.38 418.35ZM456.04 437.66L454.81 438.05L453.65 438.58L452.57 439.24L451.58 440.03L450.69 440.92L449.91 441.91L449.25 442.99L448.72 444.14L448.33 445.37L448.08 446.66L448 448L448.08 449.34L448.33 450.63L448.72 451.86L449.25 453.01L449.91 454.09L450.69 455.08L451.58 455.97L452.57 456.76L453.65 457.42L454.81 457.95L456.04 458.34L457.33 458.58L458.67 458.67L460 458.58L461.29 458.34L462.52 457.95L463.68 457.42L464.76 456.76L465.75 455.97L466.64 455.08L467.42 454.09L468.08 453.01L468.62 451.86L469.01 450.63L469.25 449.34L469.33 448L469.25 446.66L469.01 445.37L468.62 444.14L468.08 442.99L467.42 441.91L466.64 440.92L465.75 440.03L464.76 439.24L463.68 438.58L462.52 438.05L461.29 437.66L460 437.42L458.67 437.33L457.33 437.42L456.04 437.66Z" id="d1aSKkNIQp"></path><path d="M320 458.67L320 437.33L341.33 437.33L341.33 458.67L320 458.67Z" id="dxpuEpyIj"></path><path d="M448 586.67L448 565.33L469.33 565.33L469.33 586.67L448 586.67Z" id="b19qwkBJVY"></path><path d="M576 458.67L576 437.33L597.33 437.33L597.33 458.67L576 458.67Z" id="a1FquPEiCh"></path><path d="M448 330.67L448 309.33L469.33 309.33L469.33 330.67L448 330.67Z" id="d3TZJbMBLr"></path><path d="M375.96 10.77L377.25 10.9L378.52 11.09L379.78 11.32L381.02 11.6L382.24 11.92L383.45 12.3L384.63 12.72L385.79 13.18L386.93 13.69L388.04 14.24L389.13 14.83L390.19 15.46L391.22 16.13L392.23 16.84L393.21 17.59L394.16 18.37L395.08 19.19L395.96 20.04L396.81 20.92L397.63 21.84L398.41 22.79L399.16 23.77L399.87 24.78L400.54 25.81L401.17 26.87L401.76 27.96L402.31 29.07L402.82 30.21L403.28 31.37L403.7 32.55L404.08 33.76L404.4 34.98L404.68 36.22L404.91 37.48L405.1 38.75L405.23 40.04L405.31 41.35L405.33 42.67L405.33 53.33L480 53.33L482.2 53.38L484.37 53.52L486.52 53.74L488.65 54.04L490.74 54.43L492.81 54.9L494.85 55.44L496.85 56.07L498.82 56.77L500.75 57.54L502.64 58.39L504.5 59.3L506.31 60.29L508.08 61.34L509.8 62.46L511.48 63.64L513.11 64.89L514.69 66.19L516.22 67.55L517.69 68.97L519.11 70.45L520.48 71.98L521.78 73.55L523.02 75.18L524.21 76.86L525.32 78.59L526.38 80.36L527.36 82.17L528.28 84.02L529.12 85.92L529.9 87.85L530.6 89.82L531.22 91.82L531.77 93.86L532.24 95.92L532.63 98.02L532.93 100.14L533.15 102.29L533.29 104.47L533.33 106.67L533.33 256L512 256L512 160L21.33 160L21.33 469.33L21.36 470.65L21.44 471.96L21.57 473.25L21.75 474.52L21.98 475.78L22.26 477.02L22.59 478.24L22.96 479.45L23.38 480.63L23.85 481.79L24.36 482.93L24.91 484.04L25.5 485.13L26.13 486.19L26.8 487.22L27.51 488.23L28.25 489.21L29.04 490.16L29.85 491.08L30.71 491.96L31.59 492.81L32.51 493.63L33.46 494.41L34.44 495.16L35.44 495.87L36.48 496.54L37.54 497.17L38.63 497.76L39.74 498.31L40.88 498.82L42.04 499.28L43.22 499.7L44.42 500.08L45.64 500.4L46.88 500.68L48.14 500.91L49.42 501.1L50.71 501.23L52.01 501.31L53.33 501.33L266.67 501.33L266.67 522.67L53.33 522.67L51.14 522.62L48.96 522.48L46.81 522.26L44.69 521.96L42.59 521.57L40.52 521.1L38.49 520.56L36.48 519.93L34.52 519.23L32.58 518.46L30.69 517.61L28.84 516.7L27.02 515.71L25.25 514.66L23.53 513.54L21.85 512.36L20.22 511.11L18.64 509.81L17.11 508.45L15.64 507.03L14.22 505.55L12.86 504.02L11.55 502.45L10.31 500.82L9.13 499.14L8.01 497.41L6.96 495.64L5.97 493.83L5.05 491.98L4.21 490.08L3.43 488.15L2.73 486.18L2.11 484.18L1.56 482.14L1.09 480.08L0.71 477.98L0.4 475.86L0.18 473.71L0.05 471.53L0 469.33L0 106.67L0.05 104.47L0.18 102.29L0.4 100.14L0.71 98.02L1.09 95.92L1.56 93.86L2.11 91.82L2.73 89.82L3.43 87.85L4.21 85.92L5.05 84.02L5.97 82.17L6.96 80.36L8.01 78.59L9.13 76.86L10.31 75.18L11.55 73.55L12.86 71.98L14.22 70.45L15.64 68.97L17.11 67.55L18.64 66.19L20.22 64.89L21.85 63.64L23.53 62.46L25.25 61.34L27.02 60.29L28.84 59.3L30.69 58.39L32.58 57.54L34.52 56.77L36.48 56.07L38.49 55.44L40.52 54.9L42.59 54.43L44.69 54.04L46.81 53.74L48.96 53.52L51.14 53.38L53.33 53.33L128 53.33L128 42.67L128.03 41.35L128.11 40.04L128.24 38.75L128.42 37.48L128.65 36.22L128.93 34.98L129.26 33.76L129.63 32.55L130.05 31.37L130.51 30.21L131.02 29.07L131.57 27.96L132.16 26.87L132.79 25.81L133.47 24.78L134.17 23.77L134.92 22.79L135.7 21.84L136.52 20.92L137.37 20.04L138.26 19.19L139.18 18.37L140.12 17.59L141.1 16.84L142.11 16.13L143.14 15.46L144.21 14.83L145.29 14.24L146.41 13.69L147.54 13.18L148.7 12.72L149.89 12.3L151.09 11.92L152.31 11.6L153.55 11.32L154.81 11.09L156.08 10.9L157.38 10.77L158.68 10.69L160 10.67L161.32 10.69L162.62 10.77L163.92 10.9L165.19 11.09L166.45 11.32L167.69 11.6L168.91 11.92L170.11 12.3L171.3 12.72L172.46 13.18L173.59 13.69L174.71 14.24L175.79 14.83L176.86 15.46L177.89 16.13L178.9 16.84L179.88 17.59L180.82 18.37L181.74 19.19L182.63 20.04L183.48 20.92L184.3 21.84L185.08 22.79L185.83 23.77L186.53 24.78L187.21 25.81L187.84 26.87L188.43 27.96L188.98 29.07L189.49 30.21L189.95 31.37L190.37 32.55L190.74 33.76L191.07 34.98L191.35 36.22L191.58 37.48L191.76 38.75L191.89 40.04L191.97 41.35L192 42.67L192 53.33L341.33 53.33L341.33 42.67L341.36 41.35L341.44 40.04L341.57 38.75L341.75 37.48L341.98 36.22L342.26 34.98L342.59 33.76L342.96 32.55L343.38 31.37L343.85 30.21L344.36 29.07L344.91 27.96L345.5 26.87L346.13 25.81L346.8 24.78L347.51 23.77L348.25 22.79L349.04 21.84L349.85 20.92L350.71 20.04L351.59 19.19L352.51 18.37L353.46 17.59L354.44 16.84L355.44 16.13L356.48 15.46L357.54 14.83L358.63 14.24L359.74 13.69L360.88 13.18L362.04 12.72L363.22 12.3L364.42 11.92L365.64 11.6L366.88 11.32L368.14 11.09L369.42 10.9L370.71 10.77L372.01 10.69L373.33 10.67L374.65 10.69L375.96 10.77ZM52.01 74.69L50.71 74.77L49.42 74.9L48.14 75.09L46.88 75.32L45.64 75.6L44.42 75.92L43.22 76.3L42.04 76.72L40.88 77.18L39.74 77.69L38.63 78.24L37.54 78.83L36.48 79.46L35.44 80.13L34.44 80.84L33.46 81.59L32.51 82.37L31.59 83.19L30.71 84.04L29.85 84.92L29.04 85.84L28.25 86.79L27.51 87.77L26.8 88.78L26.13 89.81L25.5 90.87L24.91 91.96L24.36 93.07L23.85 94.21L23.38 95.37L22.96 96.55L22.59 97.76L22.26 98.98L21.98 100.22L21.75 101.48L21.57 102.75L21.44 104.04L21.36 105.35L21.33 106.67L21.33 138.67L512 138.67L512 106.67L511.97 105.35L511.89 104.04L511.76 102.75L511.58 101.48L511.35 100.22L511.07 98.98L510.74 97.76L510.37 96.55L509.95 95.37L509.49 94.21L508.98 93.07L508.43 91.96L507.84 90.87L507.21 89.81L506.53 88.78L505.83 87.77L505.08 86.79L504.3 85.84L503.48 84.92L502.63 84.04L501.74 83.19L500.82 82.37L499.88 81.59L498.9 80.84L497.89 80.13L496.86 79.46L495.79 78.83L494.71 78.24L493.59 77.69L492.46 77.18L491.3 76.72L490.11 76.3L488.91 75.92L487.69 75.6L486.45 75.32L485.19 75.09L483.92 74.9L482.62 74.77L481.32 74.69L480 74.67L405.33 74.67L405.33 85.33L405.31 86.65L405.23 87.96L405.1 89.25L404.91 90.52L404.68 91.78L404.4 93.02L404.08 94.24L403.7 95.45L403.28 96.63L402.82 97.79L402.31 98.93L401.76 100.04L401.17 101.13L400.54 102.19L399.87 103.22L399.16 104.23L398.41 105.21L397.63 106.16L396.81 107.08L395.96 107.96L395.08 108.81L394.16 109.63L393.21 110.41L392.23 111.16L391.22 111.87L390.19 112.54L389.13 113.17L388.04 113.76L386.93 114.31L385.79 114.82L384.63 115.28L383.45 115.7L382.24 116.08L381.02 116.4L379.78 116.68L378.52 116.91L377.25 117.1L375.96 117.23L374.65 117.31L373.33 117.33L372.01 117.31L370.71 117.23L369.42 117.1L368.14 116.91L366.88 116.68L365.64 116.4L364.42 116.08L363.22 115.7L362.04 115.28L360.88 114.82L359.74 114.31L358.63 113.76L357.54 113.17L356.48 112.54L355.44 111.87L354.44 111.16L353.46 110.41L352.51 109.63L351.59 108.81L350.71 107.96L349.85 107.08L349.04 106.16L348.25 105.21L347.51 104.23L346.8 103.22L346.13 102.19L345.5 101.13L344.91 100.04L344.36 98.93L343.85 97.79L343.38 96.63L342.96 95.45L342.59 94.24L342.26 93.02L341.98 91.78L341.75 90.52L341.57 89.25L341.44 87.96L341.36 86.65L341.33 85.33L341.33 74.67L192 74.67L192 85.33L191.97 86.65L191.89 87.96L191.76 89.25L191.58 90.52L191.35 91.78L191.07 93.02L190.74 94.24L190.37 95.45L189.95 96.63L189.49 97.79L188.98 98.93L188.43 100.04L187.84 101.13L187.21 102.19L186.53 103.22L185.83 104.23L185.08 105.21L184.3 106.16L183.48 107.08L182.63 107.96L181.74 108.81L180.82 109.63L179.88 110.41L178.9 111.16L177.89 111.87L176.86 112.54L175.79 113.17L174.71 113.76L173.59 114.31L172.46 114.82L171.3 115.28L170.11 115.7L168.91 116.08L167.69 116.4L166.45 116.68L165.19 116.91L163.92 117.1L162.62 117.23L161.32 117.31L160 117.33L158.68 117.31L157.38 117.23L156.08 117.1L154.81 116.91L153.55 116.68L152.31 116.4L151.09 116.08L149.89 115.7L148.7 115.28L147.54 114.82L146.41 114.31L145.29 113.76L144.21 113.17L143.14 112.54L142.11 111.87L141.1 111.16L140.12 110.41L139.18 109.63L138.26 108.81L137.37 107.96L136.52 107.08L135.7 106.16L134.92 105.21L134.17 104.23L133.47 103.22L132.79 102.19L132.16 101.13L131.57 100.04L131.02 98.93L130.51 97.79L130.05 96.63L129.63 95.45L129.26 94.24L128.93 93.02L128.65 91.78L128.42 90.52L128.24 89.25L128.11 87.96L128.03 86.65L128 85.33L128 74.67L53.33 74.67L52.01 74.69ZM158.84 32.06L158.27 32.14L157.71 32.25L157.16 32.38L156.63 32.54L156.11 32.73L155.59 32.95L155.1 33.19L154.62 33.46L154.15 33.75L153.7 34.06L153.27 34.39L152.85 34.75L152.46 35.12L152.08 35.52L151.73 35.93L151.39 36.37L151.08 36.82L150.79 37.28L150.52 37.76L150.28 38.26L150.07 38.77L149.88 39.3L149.71 39.83L149.58 40.38L149.47 40.94L149.4 41.5L149.35 42.08L149.33 42.67L149.33 85.33L149.35 85.92L149.4 86.5L149.47 87.06L149.58 87.62L149.71 88.17L149.88 88.7L150.07 89.23L150.28 89.74L150.52 90.24L150.79 90.72L151.08 91.18L151.39 91.63L151.73 92.07L152.08 92.48L152.46 92.88L152.85 93.25L153.27 93.61L153.7 93.94L154.15 94.25L154.62 94.54L155.1 94.81L155.59 95.05L156.11 95.27L156.63 95.46L157.16 95.62L157.71 95.75L158.27 95.86L158.84 95.94L159.41 95.98L160 96L160.59 95.98L161.16 95.94L161.73 95.86L162.29 95.75L162.84 95.62L163.37 95.46L163.89 95.27L164.41 95.05L164.9 94.81L165.38 94.54L165.85 94.25L166.3 93.94L166.73 93.61L167.15 93.25L167.54 92.88L167.92 92.48L168.27 92.07L168.61 91.63L168.92 91.18L169.21 90.72L169.48 90.24L169.72 89.74L169.93 89.23L170.12 88.7L170.29 88.17L170.42 87.62L170.53 87.06L170.6 86.5L170.65 85.92L170.67 85.33L170.67 42.67L170.65 42.08L170.6 41.5L170.53 40.94L170.42 40.38L170.29 39.83L170.12 39.3L169.93 38.77L169.72 38.26L169.48 37.76L169.21 37.28L168.92 36.82L168.61 36.37L168.27 35.93L167.92 35.52L167.54 35.12L167.15 34.75L166.73 34.39L166.3 34.06L165.85 33.75L165.38 33.46L164.9 33.19L164.41 32.95L163.89 32.73L163.37 32.54L162.84 32.38L162.29 32.25L161.73 32.14L161.16 32.06L160.59 32.02L160 32L159.41 32.02L158.84 32.06ZM372.17 32.06L371.6 32.14L371.05 32.25L370.5 32.38L369.96 32.54L369.44 32.73L368.93 32.95L368.43 33.19L367.95 33.46L367.48 33.75L367.03 34.06L366.6 34.39L366.19 34.75L365.79 35.12L365.41 35.52L365.06 35.93L364.72 36.37L364.41 36.82L364.12 37.28L363.86 37.76L363.62 38.26L363.4 38.77L363.21 39.3L363.05 39.83L362.91 40.38L362.81 40.94L362.73 41.5L362.68 42.08L362.67 42.67L362.67 85.33L362.68 85.92L362.73 86.5L362.81 87.06L362.91 87.62L363.05 88.17L363.21 88.7L363.4 89.23L363.62 89.74L363.86 90.24L364.12 90.72L364.41 91.18L364.72 91.63L365.06 92.07L365.41 92.48L365.79 92.88L366.19 93.25L366.6 93.61L367.03 93.94L367.48 94.25L367.95 94.54L368.43 94.81L368.93 95.05L369.44 95.27L369.96 95.46L370.5 95.62L371.05 95.75L371.6 95.86L372.17 95.94L372.75 95.98L373.33 96L373.92 95.98L374.5 95.94L375.06 95.86L375.62 95.75L376.17 95.62L376.7 95.46L377.23 95.27L377.74 95.05L378.24 94.81L378.72 94.54L379.18 94.25L379.63 93.94L380.07 93.61L380.48 93.25L380.88 92.88L381.25 92.48L381.61 92.07L381.94 91.63L382.25 91.18L382.54 90.72L382.81 90.24L383.05 89.74L383.27 89.23L383.46 88.7L383.62 88.17L383.75 87.62L383.86 87.06L383.94 86.5L383.98 85.92L384 85.33L384 42.67L383.98 42.08L383.94 41.5L383.86 40.94L383.75 40.38L383.62 39.83L383.46 39.3L383.27 38.77L383.05 38.26L382.81 37.76L382.54 37.28L382.25 36.82L381.94 36.37L381.61 35.93L381.25 35.52L380.88 35.12L380.48 34.75L380.07 34.39L379.63 34.06L379.18 33.75L378.72 33.46L378.24 33.19L377.74 32.95L377.23 32.73L376.7 32.54L376.17 32.38L375.62 32.25L375.06 32.14L374.5 32.06L373.92 32.02L373.33 32L372.75 32.02L372.17 32.06Z" id="jfb8Icv4o"></path><path d="M129.75 224.07L130.61 224.16L131.46 224.28L132.3 224.43L133.13 224.62L133.94 224.84L134.74 225.09L135.53 225.37L136.3 225.68L137.06 226.01L137.8 226.38L138.53 226.78L139.24 227.2L139.93 227.64L140.6 228.12L141.25 228.61L141.88 229.14L142.49 229.68L143.08 230.25L143.65 230.84L144.2 231.45L144.72 232.08L145.22 232.73L145.69 233.41L146.14 234.1L146.56 234.8L146.95 235.53L147.32 236.27L147.66 237.03L147.97 237.8L148.25 238.59L148.49 239.39L148.71 240.21L148.9 241.03L149.05 241.87L149.18 242.72L149.26 243.58L149.32 244.45L149.33 245.33L149.33 288L149.32 288.88L149.26 289.75L149.18 290.61L149.05 291.46L148.9 292.3L148.71 293.13L148.49 293.94L148.25 294.74L147.97 295.53L147.66 296.3L147.32 297.06L146.95 297.8L146.56 298.53L146.14 299.24L145.69 299.93L145.22 300.6L144.72 301.25L144.2 301.88L143.65 302.49L143.08 303.08L142.49 303.65L141.88 304.2L141.25 304.72L140.6 305.22L139.93 305.69L139.24 306.14L138.53 306.56L137.8 306.95L137.06 307.32L136.3 307.66L135.53 307.97L134.74 308.25L133.94 308.49L133.13 308.71L132.3 308.9L131.46 309.05L130.61 309.18L129.75 309.26L128.88 309.32L128 309.33L85.33 309.33L84.45 309.32L83.58 309.26L82.72 309.18L81.87 309.05L81.03 308.9L80.21 308.71L79.39 308.49L78.59 308.25L77.8 307.97L77.03 307.66L76.27 307.32L75.53 306.95L74.8 306.56L74.1 306.14L73.41 305.69L72.73 305.22L72.08 304.72L71.45 304.2L70.84 303.65L70.25 303.08L69.68 302.49L69.14 301.88L68.61 301.25L68.12 300.6L67.64 299.93L67.2 299.24L66.78 298.53L66.38 297.8L66.01 297.06L65.68 296.3L65.37 295.53L65.09 294.74L64.84 293.94L64.62 293.13L64.43 292.3L64.28 291.46L64.16 290.61L64.07 289.75L64.02 288.88L64 288L64 245.33L64.02 244.45L64.07 243.58L64.16 242.72L64.28 241.87L64.43 241.03L64.62 240.21L64.84 239.39L65.09 238.59L65.37 237.8L65.68 237.03L66.01 236.27L66.38 235.53L66.78 234.8L67.2 234.1L67.64 233.41L68.12 232.73L68.61 232.08L69.14 231.45L69.68 230.84L70.25 230.25L70.84 229.68L71.45 229.14L72.08 228.61L72.73 228.12L73.41 227.64L74.1 227.2L74.8 226.78L75.53 226.38L76.27 226.01L77.03 225.68L77.8 225.37L78.59 225.09L79.39 224.84L80.21 224.62L81.03 224.43L81.87 224.28L82.72 224.16L83.58 224.07L84.45 224.02L85.33 224L128 224L128.88 224.02L129.75 224.07ZM85.33 288L128 288L128 245.33L85.33 245.33L85.33 288Z" id="bivowGrAj"></path><path d="M236.42 224.07L237.28 224.16L238.13 224.28L238.97 224.43L239.79 224.62L240.61 224.84L241.41 225.09L242.2 225.37L242.97 225.68L243.73 226.01L244.47 226.38L245.2 226.78L245.9 227.2L246.59 227.64L247.27 228.12L247.92 228.61L248.55 229.14L249.16 229.68L249.75 230.25L250.32 230.84L250.86 231.45L251.39 232.08L251.88 232.73L252.36 233.41L252.8 234.1L253.22 234.8L253.62 235.53L253.99 236.27L254.32 237.03L254.63 237.8L254.91 238.59L255.16 239.39L255.38 240.21L255.57 241.03L255.72 241.87L255.84 242.72L255.93 243.58L255.98 244.45L256 245.33L256 288L255.98 288.88L255.93 289.75L255.84 290.61L255.72 291.46L255.57 292.3L255.38 293.13L255.16 293.94L254.91 294.74L254.63 295.53L254.32 296.3L253.99 297.06L253.62 297.8L253.22 298.53L252.8 299.24L252.36 299.93L251.88 300.6L251.39 301.25L250.86 301.88L250.32 302.49L249.75 303.08L249.16 303.65L248.55 304.2L247.92 304.72L247.27 305.22L246.59 305.69L245.9 306.14L245.2 306.56L244.47 306.95L243.73 307.32L242.97 307.66L242.2 307.97L241.41 308.25L240.61 308.49L239.79 308.71L238.97 308.9L238.13 309.05L237.28 309.18L236.42 309.26L235.55 309.32L234.67 309.33L192 309.33L191.12 309.32L190.25 309.26L189.39 309.18L188.54 309.05L187.7 308.9L186.87 308.71L186.06 308.49L185.26 308.25L184.47 307.97L183.7 307.66L182.94 307.32L182.2 306.95L181.47 306.56L180.76 306.14L180.07 305.69L179.4 305.22L178.75 304.72L178.12 304.2L177.51 303.65L176.92 303.08L176.35 302.49L175.8 301.88L175.28 301.25L174.78 300.6L174.31 299.93L173.86 299.24L173.44 298.53L173.05 297.8L172.68 297.06L172.34 296.3L172.03 295.53L171.75 294.74L171.51 293.94L171.29 293.13L171.1 292.3L170.95 291.46L170.82 290.61L170.74 289.75L170.68 288.88L170.67 288L170.67 245.33L170.68 244.45L170.74 243.58L170.82 242.72L170.95 241.87L171.1 241.03L171.29 240.21L171.51 239.39L171.75 238.59L172.03 237.8L172.34 237.03L172.68 236.27L173.05 235.53L173.44 234.8L173.86 234.1L174.31 233.41L174.78 232.73L175.28 232.08L175.8 231.45L176.35 230.84L176.92 230.25L177.51 229.68L178.12 229.14L178.75 228.61L179.4 228.12L180.07 227.64L180.76 227.2L181.47 226.78L182.2 226.38L182.94 226.01L183.7 225.68L184.47 225.37L185.26 225.09L186.06 224.84L186.87 224.62L187.7 224.43L188.54 224.28L189.39 224.16L190.25 224.07L191.12 224.02L192 224L234.67 224L235.55 224.02L236.42 224.07ZM192 288L234.67 288L234.67 245.33L192 245.33L192 288Z" id="bfNpB7h4s"></path><path d="M343.08 224.07L343.94 224.16L344.79 224.28L345.63 224.43L346.46 224.62L347.27 224.84L348.08 225.09L348.86 225.37L349.64 225.68L350.39 226.01L351.14 226.38L351.86 226.78L352.57 227.2L353.26 227.64L353.93 228.12L354.58 228.61L355.22 229.14L355.83 229.68L356.42 230.25L356.99 230.84L357.53 231.45L358.05 232.08L358.55 232.73L359.02 233.41L359.47 234.1L359.89 234.8L360.29 235.53L360.65 236.27L360.99 237.03L361.3 237.8L361.58 238.59L361.83 239.39L362.05 240.21L362.23 241.03L362.39 241.87L362.51 242.72L362.6 243.58L362.65 244.45L362.67 245.33L362.67 277.33L341.33 277.33L341.33 245.33L298.67 245.33L298.67 288L320 288L320 309.33L298.67 309.33L297.79 309.32L296.92 309.26L296.06 309.18L295.21 309.05L294.37 308.9L293.54 308.71L292.73 308.49L291.92 308.25L291.14 307.97L290.36 307.66L289.61 307.32L288.86 306.95L288.14 306.56L287.43 306.14L286.74 305.69L286.07 305.22L285.42 304.72L284.78 304.2L284.17 303.65L283.58 303.08L283.01 302.49L282.47 301.88L281.95 301.25L281.45 300.6L280.98 299.93L280.53 299.24L280.11 298.53L279.71 297.8L279.35 297.06L279.01 296.3L278.7 295.53L278.42 294.74L278.17 293.94L277.95 293.13L277.77 292.3L277.61 291.46L277.49 290.61L277.4 289.75L277.35 288.88L277.33 288L277.33 245.33L277.35 244.45L277.4 243.58L277.49 242.72L277.61 241.87L277.77 241.03L277.95 240.21L278.17 239.39L278.42 238.59L278.7 237.8L279.01 237.03L279.35 236.27L279.71 235.53L280.11 234.8L280.53 234.1L280.98 233.41L281.45 232.73L281.95 232.08L282.47 231.45L283.01 230.84L283.58 230.25L284.17 229.68L284.78 229.14L285.42 228.61L286.07 228.12L286.74 227.64L287.43 227.2L288.14 226.78L288.86 226.38L289.61 226.01L290.36 225.68L291.14 225.37L291.92 225.09L292.73 224.84L293.54 224.62L294.37 224.43L295.21 224.28L296.06 224.16L296.92 224.07L297.79 224.02L298.67 224L341.33 224L342.21 224.02L343.08 224.07Z" id="ewARXupiH"></path><path d="M129.75 352.07L130.61 352.16L131.46 352.28L132.3 352.43L133.13 352.62L133.94 352.84L134.74 353.09L135.53 353.37L136.3 353.68L137.06 354.01L137.8 354.38L138.53 354.78L139.24 355.2L139.93 355.64L140.6 356.12L141.25 356.61L141.88 357.14L142.49 357.68L143.08 358.25L143.65 358.84L144.2 359.45L144.72 360.08L145.22 360.73L145.69 361.41L146.14 362.1L146.56 362.8L146.95 363.53L147.32 364.27L147.66 365.03L147.97 365.8L148.25 366.59L148.49 367.39L148.71 368.21L148.9 369.03L149.05 369.87L149.18 370.72L149.26 371.58L149.32 372.45L149.33 373.33L149.33 416L149.32 416.88L149.26 417.75L149.18 418.61L149.05 419.46L148.9 420.3L148.71 421.13L148.49 421.94L148.25 422.74L147.97 423.53L147.66 424.3L147.32 425.06L146.95 425.8L146.56 426.53L146.14 427.24L145.69 427.93L145.22 428.6L144.72 429.25L144.2 429.88L143.65 430.49L143.08 431.08L142.49 431.65L141.88 432.2L141.25 432.72L140.6 433.22L139.93 433.69L139.24 434.14L138.53 434.56L137.8 434.95L137.06 435.32L136.3 435.66L135.53 435.97L134.74 436.25L133.94 436.49L133.13 436.71L132.3 436.9L131.46 437.05L130.61 437.18L129.75 437.26L128.88 437.32L128 437.33L85.33 437.33L84.45 437.32L83.58 437.26L82.72 437.18L81.87 437.05L81.03 436.9L80.21 436.71L79.39 436.49L78.59 436.25L77.8 435.97L77.03 435.66L76.27 435.32L75.53 434.95L74.8 434.56L74.1 434.14L73.41 433.69L72.73 433.22L72.08 432.72L71.45 432.2L70.84 431.65L70.25 431.08L69.68 430.49L69.14 429.88L68.61 429.25L68.12 428.6L67.64 427.93L67.2 427.24L66.78 426.53L66.38 425.8L66.01 425.06L65.68 424.3L65.37 423.53L65.09 422.74L64.84 421.94L64.62 421.13L64.43 420.3L64.28 419.46L64.16 418.61L64.07 417.75L64.02 416.88L64 416L64 373.33L64.02 372.45L64.07 371.58L64.16 370.72L64.28 369.87L64.43 369.03L64.62 368.21L64.84 367.39L65.09 366.59L65.37 365.8L65.68 365.03L66.01 364.27L66.38 363.53L66.78 362.8L67.2 362.1L67.64 361.41L68.12 360.73L68.61 360.08L69.14 359.45L69.68 358.84L70.25 358.25L70.84 357.68L71.45 357.14L72.08 356.61L72.73 356.12L73.41 355.64L74.1 355.2L74.8 354.78L75.53 354.38L76.27 354.01L77.03 353.68L77.8 353.37L78.59 353.09L79.39 352.84L80.21 352.62L81.03 352.43L81.87 352.28L82.72 352.16L83.58 352.07L84.45 352.02L85.33 352L128 352L128.88 352.02L129.75 352.07ZM85.33 416L128 416L128 373.33L85.33 373.33L85.33 416Z" id="h1LnjmObRr"></path><path d="M236.42 352.07L237.28 352.16L238.13 352.28L238.97 352.43L239.79 352.62L240.61 352.84L241.41 353.09L242.2 353.37L242.97 353.68L243.73 354.01L244.47 354.38L245.2 354.78L245.9 355.2L246.59 355.64L247.27 356.12L247.92 356.61L248.55 357.14L249.16 357.68L249.75 358.25L250.32 358.84L250.86 359.45L251.39 360.08L251.88 360.73L252.36 361.41L252.8 362.1L253.22 362.8L253.62 363.53L253.99 364.27L254.32 365.03L254.63 365.8L254.91 366.59L255.16 367.39L255.38 368.21L255.57 369.03L255.72 369.87L255.84 370.72L255.93 371.58L255.98 372.45L256 373.33L256 416L255.98 416.88L255.93 417.75L255.84 418.61L255.72 419.46L255.57 420.3L255.38 421.13L255.16 421.94L254.91 422.74L254.63 423.53L254.32 424.3L253.99 425.06L253.62 425.8L253.22 426.53L252.8 427.24L252.36 427.93L251.88 428.6L251.39 429.25L250.86 429.88L250.32 430.49L249.75 431.08L249.16 431.65L248.55 432.2L247.92 432.72L247.27 433.22L246.59 433.69L245.9 434.14L245.2 434.56L244.47 434.95L243.73 435.32L242.97 435.66L242.2 435.97L241.41 436.25L240.61 436.49L239.79 436.71L238.97 436.9L238.13 437.05L237.28 437.18L236.42 437.26L235.55 437.32L234.67 437.33L192 437.33L191.12 437.32L190.25 437.26L189.39 437.18L188.54 437.05L187.7 436.9L186.87 436.71L186.06 436.49L185.26 436.25L184.47 435.97L183.7 435.66L182.94 435.32L182.2 434.95L181.47 434.56L180.76 434.14L180.07 433.69L179.4 433.22L178.75 432.72L178.12 432.2L177.51 431.65L176.92 431.08L176.35 430.49L175.8 429.88L175.28 429.25L174.78 428.6L174.31 427.93L173.86 427.24L173.44 426.53L173.05 425.8L172.68 425.06L172.34 424.3L172.03 423.53L171.75 422.74L171.51 421.94L171.29 421.13L171.1 420.3L170.95 419.46L170.82 418.61L170.74 417.75L170.68 416.88L170.67 416L170.67 373.33L170.68 372.45L170.74 371.58L170.82 370.72L170.95 369.87L171.1 369.03L171.29 368.21L171.51 367.39L171.75 366.59L172.03 365.8L172.34 365.03L172.68 364.27L173.05 363.53L173.44 362.8L173.86 362.1L174.31 361.41L174.78 360.73L175.28 360.08L175.8 359.45L176.35 358.84L176.92 358.25L177.51 357.68L178.12 357.14L178.75 356.61L179.4 356.12L180.07 355.64L180.76 355.2L181.47 354.78L182.2 354.38L182.94 354.01L183.7 353.68L184.47 353.37L185.26 353.09L186.06 352.84L186.87 352.62L187.7 352.43L188.54 352.28L189.39 352.16L190.25 352.07L191.12 352.02L192 352L234.67 352L235.55 352.02L236.42 352.07ZM192 416L234.67 416L234.67 373.33L192 373.33L192 416Z" id="c8iGFkci1v"></path><path d="M449.75 224.07L450.61 224.16L451.46 224.28L452.3 224.43L453.13 224.62L453.94 224.84L454.74 225.09L455.53 225.37L456.3 225.68L457.06 226.01L457.8 226.38L458.53 226.78L459.24 227.2L459.93 227.64L460.6 228.12L461.25 228.61L461.88 229.14L462.49 229.68L463.08 230.25L463.65 230.84L464.2 231.45L464.72 232.08L465.22 232.73L465.69 233.41L466.14 234.1L466.56 234.8L466.95 235.53L467.32 236.27L467.66 237.03L467.97 237.8L468.25 238.59L468.49 239.39L468.71 240.21L468.9 241.03L469.05 241.87L469.18 242.72L469.26 243.58L469.32 244.45L469.33 245.33L469.33 256L448 256L448 245.33L405.33 245.33L405.33 256L384 256L384 245.33L384.02 244.45L384.07 243.58L384.16 242.72L384.28 241.87L384.43 241.03L384.62 240.21L384.84 239.39L385.09 238.59L385.37 237.8L385.68 237.03L386.01 236.27L386.38 235.53L386.78 234.8L387.2 234.1L387.64 233.41L388.12 232.73L388.61 232.08L389.14 231.45L389.68 230.84L390.25 230.25L390.84 229.68L391.45 229.14L392.08 228.61L392.73 228.12L393.41 227.64L394.1 227.2L394.8 226.78L395.53 226.38L396.27 226.01L397.03 225.68L397.8 225.37L398.59 225.09L399.39 224.84L400.21 224.62L401.03 224.43L401.87 224.28L402.72 224.16L403.58 224.07L404.45 224.02L405.33 224L448 224L448.88 224.02L449.75 224.07Z" id="bN1ElHuLO"></path></defs><g><g><g><use xlink:href="#a1hIYdpQaQ" opacity="1" fill="#1081a7" fill-opacity="1"></use><g><use xlink:href="#a1hIYdpQaQ" opacity="1" fill-opacity="0" stroke="#000000" stroke-width="1" stroke-opacity="0"></use></g></g><g><use xlink:href="#d1aSKkNIQp" opacity="1" fill="#1081a7" fill-opacity="1"></use><g><use xlink:href="#d1aSKkNIQp" opacity="1" fill-opacity="0" stroke="#000000" stroke-width="1" stroke-opacity="0"></use></g></g><g><use xlink:href="#dxpuEpyIj" opacity="1" fill="#1081a7" fill-opacity="1"></use><g><use xlink:href="#dxpuEpyIj" opacity="1" fill-opacity="0" stroke="#000000" stroke-width="1" stroke-opacity="0"></use></g></g><g><use xlink:href="#b19qwkBJVY" opacity="1" fill="#1081a7" fill-opacity="1"></use><g><use xlink:href="#b19qwkBJVY" opacity="1" fill-opacity="0" stroke="#000000" stroke-width="1" stroke-opacity="0"></use></g></g><g><use xlink:href="#a1FquPEiCh" opacity="1" fill="#1081a7" fill-opacity="1"></use><g><use xlink:href="#a1FquPEiCh" opacity="1" fill-opacity="0" stroke="#000000" stroke-width="1" stroke-opacity="0"></use></g></g><g><use xlink:href="#d3TZJbMBLr" opacity="1" fill="#1081a7" fill-opacity="1"></use><g><use xlink:href="#d3TZJbMBLr" opacity="1" fill-opacity="0" stroke="#000000" stroke-width="1" stroke-opacity="0"></use></g></g><g><use xlink:href="#jfb8Icv4o" opacity="1" fill="#1081a7" fill-opacity="1"></use><g><use xlink:href="#jfb8Icv4o" opacity="1" fill-opacity="0" stroke="#000000" stroke-width="1" stroke-opacity="0"></use></g></g><g><use xlink:href="#bivowGrAj" opacity="1" fill="#1081a7" fill-opacity="1"></use><g><use xlink:href="#bivowGrAj" opacity="1" fill-opacity="0" stroke="#000000" stroke-width="1" stroke-opacity="0"></use></g></g><g><use xlink:href="#bfNpB7h4s" opacity="1" fill="#1081a7" fill-opacity="1"></use><g><use xlink:href="#bfNpB7h4s" opacity="1" fill-opacity="0" stroke="#000000" stroke-width="1" stroke-opacity="0"></use></g></g><g><use xlink:href="#ewARXupiH" opacity="1" fill="#1081a7" fill-opacity="1"></use><g><use xlink:href="#ewARXupiH" opacity="1" fill-opacity="0" stroke="#000000" stroke-width="1" stroke-opacity="0"></use></g></g><g><use xlink:href="#h1LnjmObRr" opacity="1" fill="#1081a7" fill-opacity="1"></use><g><use xlink:href="#h1LnjmObRr" opacity="1" fill-opacity="0" stroke="#000000" stroke-width="1" stroke-opacity="0"></use></g></g><g><use xlink:href="#c8iGFkci1v" opacity="1" fill="#1081a7" fill-opacity="1"></use><g><use xlink:href="#c8iGFkci1v" opacity="1" fill-opacity="0" stroke="#000000" stroke-width="1" stroke-opacity="0"></use></g></g><g><use xlink:href="#bN1ElHuLO" opacity="1" fill="#1081a7" fill-opacity="1"></use><g><use xlink:href="#bN1ElHuLO" opacity="1" fill-opacity="0" stroke="#000000" stroke-width="1" stroke-opacity="0"></use></g></g></g></g></svg>