<?xml version="1.0" encoding="UTF-8" standalone="no"?>
<!DOCTYPE svg PUBLIC "-//W3C//DTD SVG 1.1//EN" "http://www.w3.org/Graphics/SVG/1.1/DTD/svg11.dtd">
<svg version="1.1" xmlns="http://www.w3.org/2000/svg" xmlns:xlink="http://www.w3.org/1999/xlink" preserveAspectRatio="xMidYMid meet" viewBox="0 0 682 682" width="682" height="682"><defs><path d="M526.29 170.9L511.22 155.83L526.29 140.76L541.35 155.83L526.29 170.9Z" id="arxlhA3Bt"></path><path d="M210.09 487.1L195.02 472.03L344.18 322.87L359.25 337.94L210.09 487.1Z" id="j2kE63aSaT"></path><path d="M42.73 628.73L42.73 607.42L277.13 607.42L277.13 628.73L42.73 628.73Z" id="bqFxyXV0k"></path><path d="M42.73 586.11L42.73 564.8L85.35 564.8L85.35 586.11L42.73 586.11Z" id="a8hFiHDqY"></path><path d="M106.66 586.11L106.66 564.8L149.28 564.8L149.28 586.11L106.66 586.11Z" id="b3XiRccFu"></path><path d="M170.59 586.11L170.59 564.8L277.13 564.8L277.13 586.11L170.59 586.11Z" id="a27UyTa4BW"></path><path d="M652.86 0.43L658.81 0.84L664.76 1.39L670.71 2.08L678.93 3.14L679.99 11.37L680.69 17.32L681.24 23.27L681.66 29.22L681.93 35.16L682.07 41.09L682.07 47.01L681.94 52.92L681.67 58.82L681.27 64.69L680.73 70.55L680.06 76.39L679.25 82.21L678.32 88L677.25 93.76L676.06 99.49L674.74 105.19L673.28 110.86L671.7 116.49L669.99 122.08L668.16 127.63L666.2 133.13L664.12 138.59L661.91 144.01L659.58 149.37L657.12 154.68L654.55 159.94L651.85 165.15L649.03 170.29L646.1 175.37L643.04 180.39L639.87 185.35L636.58 190.24L633.17 195.06L629.65 199.8L626.01 204.48L622.26 209.07L618.4 213.59L614.42 218.03L610.33 222.39L606.13 226.66L567.57 265.23L575.11 333.03L554.15 353.98L554.15 639.38L554.11 641.14L554 642.88L553.83 644.6L553.59 646.3L553.28 647.97L552.91 649.62L552.47 651.25L551.97 652.85L551.41 654.43L550.8 655.97L550.12 657.49L549.39 658.97L548.6 660.42L547.76 661.83L546.87 663.21L545.92 664.55L544.93 665.85L543.89 667.12L542.8 668.34L541.66 669.52L540.49 670.65L539.26 671.74L538 672.78L536.7 673.78L535.36 674.72L533.98 675.62L532.56 676.46L531.11 677.24L529.63 677.98L528.12 678.65L526.57 679.27L525 679.83L523.4 680.33L521.77 680.76L520.12 681.13L518.44 681.44L516.74 681.68L515.02 681.86L513.28 681.97L511.53 682L42.73 682L40.98 681.97L39.24 681.86L37.52 681.68L35.82 681.44L34.15 681.13L32.49 680.76L30.87 680.33L29.26 679.83L27.69 679.27L26.15 678.65L24.63 677.98L23.15 677.24L21.7 676.46L20.29 675.62L18.91 674.72L17.57 673.78L16.26 672.78L15 671.74L13.78 670.65L12.6 669.52L11.47 668.34L10.38 667.12L9.33 665.85L8.34 664.55L7.4 663.21L6.5 661.83L5.66 660.42L4.87 658.97L4.14 657.49L3.47 655.97L2.85 654.43L2.29 652.85L1.79 651.25L1.36 649.62L0.98 647.97L0.67 646.3L0.43 644.6L0.26 642.88L0.15 641.14L0.12 639.38L0.12 319.75L0.15 317.99L0.26 316.26L0.43 314.54L0.67 312.84L0.98 311.16L1.36 309.51L1.79 307.88L2.29 306.28L2.85 304.71L3.47 303.16L4.14 301.65L4.87 300.17L5.66 298.72L6.5 297.3L7.4 295.92L8.34 294.58L9.33 293.28L10.38 292.02L11.47 290.8L12.6 289.62L13.78 288.48L15 287.39L16.26 286.35L17.57 285.36L18.91 284.41L20.29 283.52L21.7 282.68L23.15 281.89L24.63 281.16L26.15 280.48L27.69 279.87L29.26 279.31L30.87 278.81L32.49 278.37L34.15 278L35.82 277.69L37.52 277.45L39.24 277.28L40.98 277.17L42.73 277.13L315.34 277.13L360.92 231.56L345.47 216.11L300.28 261.31L247.53 208.57L349.09 107.01L416.9 114.55L455.45 75.99L459.72 71.79L464.07 67.7L468.51 63.72L473.03 59.86L477.63 56.11L482.3 52.47L487.05 48.95L491.86 45.54L496.75 42.25L501.71 39.07L506.73 36.02L511.81 33.08L516.95 30.26L522.15 27.57L527.41 24.99L532.72 22.54L538.08 20.2L543.5 18L548.96 15.91L554.46 13.95L560.01 12.11L565.6 10.41L571.23 8.82L576.9 7.37L582.6 6.04L588.33 4.85L594.09 3.78L599.88 2.84L605.69 2.04L611.53 1.37L617.39 0.83L623.27 0.42L629.16 0.15L635.07 0.02L640.99 0.02L646.92 0.15L652.86 0.43ZM41.86 298.46L40.99 298.51L40.13 298.6L39.28 298.72L38.44 298.88L37.61 299.06L36.8 299.28L36 299.53L35.21 299.81L34.44 300.12L33.68 300.46L32.94 300.82L32.22 301.21L31.51 301.64L30.82 302.08L30.15 302.55L29.5 303.05L28.87 303.57L28.26 304.12L27.67 304.68L27.1 305.27L26.56 305.88L26.03 306.52L25.54 307.17L25.06 307.84L24.62 308.53L24.2 309.23L23.8 309.96L23.44 310.7L23.1 311.46L22.79 312.23L22.51 313.02L22.26 313.82L22.04 314.63L21.86 315.46L21.7 316.3L21.58 317.14L21.5 318L21.44 318.87L21.43 319.75L21.43 639.38L21.44 640.26L21.5 641.13L21.58 641.99L21.7 642.84L21.86 643.68L22.04 644.5L22.26 645.32L22.51 646.12L22.79 646.9L23.1 647.68L23.44 648.43L23.8 649.18L24.2 649.9L24.62 650.61L25.06 651.3L25.54 651.97L26.03 652.62L26.56 653.25L27.1 653.86L27.67 654.45L28.26 655.02L28.87 655.56L29.5 656.08L30.15 656.58L30.82 657.05L31.51 657.5L32.22 657.92L32.94 658.31L33.68 658.68L34.44 659.02L35.21 659.33L36 659.61L36.8 659.85L37.61 660.07L38.44 660.26L39.28 660.41L40.13 660.53L40.99 660.62L41.86 660.67L42.73 660.69L511.53 660.69L512.41 660.67L513.28 660.62L514.14 660.53L514.98 660.41L515.82 660.26L516.65 660.07L517.46 659.85L518.26 659.61L519.05 659.33L519.82 659.02L520.58 658.68L521.32 658.31L522.05 657.92L522.75 657.5L523.44 657.05L524.11 656.58L524.77 656.08L525.4 655.56L526.01 655.02L526.6 654.45L527.16 653.86L527.71 653.25L528.23 652.62L528.73 651.97L529.2 651.3L529.64 650.61L530.07 649.9L530.46 649.18L530.82 648.43L531.16 647.68L531.47 646.9L531.75 646.12L532 645.32L532.22 644.5L532.4 643.68L532.56 642.84L532.68 641.99L532.77 641.13L532.82 640.26L532.84 639.38L532.84 375.29L511.53 396.6L511.53 532.84L42.73 532.84L42.73 319.75L272.72 319.75L294.03 298.44L42.73 298.44L41.86 298.46ZM229.56 362.9L251.42 341.06L64.04 341.06L64.04 511.53L490.22 511.53L490.22 417.9L473.55 434.58L420.81 381.86L466.01 336.65L450.57 321.2L361.82 409.93L346.76 394.86L435.5 306.14L413.28 283.91L383.13 314.04L368.07 298.97L398.21 268.85L375.99 246.62L244.63 377.97L229.56 362.9ZM450.94 381.86L473.55 404.45L552.78 325.2L548.27 284.52L481.08 351.71L450.94 381.86ZM513.72 56.87L512.49 57.64L511.26 58.41L510.03 59.2L508.81 59.99L507.6 60.79L506.39 61.59L505.18 62.4L503.98 63.22L502.79 64.05L501.6 64.88L500.41 65.73L499.24 66.57L498.06 67.43L496.89 68.29L495.73 69.16L494.57 70.04L493.42 70.92L492.27 71.81L491.13 72.71L489.99 73.62L488.86 74.53L487.74 75.45L486.62 76.37L485.5 77.3L484.4 78.24L483.29 79.19L482.2 80.14L481.1 81.1L480.02 82.07L478.94 83.04L477.86 84.02L476.8 85L475.73 86L474.68 86.99L473.63 88L472.58 89.01L471.54 90.03L470.51 91.06L360.53 201.04L413.28 253.77L458.48 208.57L473.55 223.64L428.34 268.85L481.08 321.57L591.07 211.6L592.09 210.57L593.11 209.53L594.12 208.48L595.13 207.43L596.13 206.38L597.12 205.31L598.1 204.25L599.08 203.17L600.05 202.09L601.02 201.01L601.98 199.91L602.93 198.82L603.88 197.71L604.82 196.61L605.75 195.49L606.67 194.37L607.59 193.25L608.5 192.12L609.41 190.98L610.3 189.84L611.2 188.69L612.08 187.54L612.96 186.38L613.83 185.22L614.69 184.05L615.54 182.88L616.39 181.7L617.23 180.51L618.07 179.33L618.9 178.13L619.72 176.93L620.53 175.73L621.33 174.52L622.13 173.3L622.92 172.08L623.71 170.86L624.48 169.63L625.25 168.4L626.02 167.16L626.77 165.91L516.2 55.35L514.96 56.11L513.72 56.87ZM300.28 231.18L330.4 201.04L360.74 170.69L397.6 133.84L356.91 129.31L277.67 208.57L300.28 231.18ZM631 21.49L627.81 21.6L624.63 21.76L621.45 21.97L618.28 22.22L615.11 22.5L611.95 22.84L608.79 23.21L605.63 23.63L602.49 24.09L599.35 24.59L596.22 25.13L593.09 25.72L589.97 26.34L586.86 27.01L583.76 27.72L580.67 28.48L577.59 29.27L574.52 30.11L571.46 30.99L568.41 31.91L565.38 32.87L562.35 33.87L559.34 34.91L556.34 36L553.35 37.13L550.37 38.29L547.41 39.5L544.47 40.75L541.54 42.04L538.62 43.37L535.72 44.74L637.37 146.39L638.74 143.49L640.07 140.58L641.36 137.65L642.61 134.7L643.82 131.74L644.99 128.77L646.11 125.78L647.2 122.78L648.24 119.77L649.25 116.74L650.21 113.71L651.13 110.66L652.01 107.6L652.84 104.53L653.64 101.44L654.39 98.35L655.1 95.25L655.77 92.14L656.4 89.03L656.99 85.9L657.53 82.77L658.03 79.63L658.49 76.48L658.91 73.33L659.28 70.17L659.61 67L659.9 63.83L660.15 60.66L660.35 57.48L660.51 54.3L660.63 51.11L660.7 47.92L660.73 44.73L660.72 41.54L660.67 38.35L660.57 35.15L660.43 31.95L660.24 28.76L660.01 25.56L659.74 22.36L656.55 22.09L653.35 21.87L650.15 21.68L646.96 21.54L643.76 21.44L640.57 21.39L637.38 21.38L634.19 21.41L631 21.49Z" id="b1OoNxjJnn"></path><path d="M263.35 103.54L248.28 88.47L333.52 3.24L348.59 18.3L263.35 103.54Z" id="c1B5aCir5"></path><path d="M178.11 103.54L163.05 88.47L226.98 24.55L242.04 39.62L178.11 103.54Z" id="boTR7hiJd"></path><path d="M593.65 433.82L578.58 418.76L663.82 333.52L678.88 348.59L593.65 433.82Z" id="c16GAte5SX"></path><path d="M593.64 519.06L578.58 503.99L642.5 440.07L657.57 455.14L593.64 519.06Z" id="hqg4Q7bcW"></path><path d="M199.43 423.17L184.36 408.1L214.5 377.97L229.57 393.04L199.43 423.17Z" id="gqOL4REKh"></path><path d="M316.63 455.14L301.57 440.07L331.7 409.93L346.77 425L316.63 455.14Z" id="gtUrFchpd"></path><path d="M309.09 639.38L309.09 554.15L490.22 554.15L490.22 639.38L309.09 639.38ZM426.29 618.07L468.91 618.07L468.91 575.46L426.29 575.46L426.29 618.07ZM330.4 618.07L404.98 618.07L404.98 575.46L330.4 575.46L330.4 618.07Z" id="a25txQHpG"></path></defs><g><g><g><use xlink:href="#arxlhA3Bt" opacity="1" fill="#1081a7" fill-opacity="1"></use><g><use xlink:href="#arxlhA3Bt" opacity="1" fill-opacity="0" stroke="#000000" stroke-width="1" stroke-opacity="0"></use></g></g><g><use xlink:href="#j2kE63aSaT" opacity="1" fill="#1081a7" fill-opacity="1"></use><g><use xlink:href="#j2kE63aSaT" opacity="1" fill-opacity="0" stroke="#000000" stroke-width="1" stroke-opacity="0"></use></g></g><g><use xlink:href="#bqFxyXV0k" opacity="1" fill="#1081a7" fill-opacity="1"></use><g><use xlink:href="#bqFxyXV0k" opacity="1" fill-opacity="0" stroke="#000000" stroke-width="1" stroke-opacity="0"></use></g></g><g><use xlink:href="#a8hFiHDqY" opacity="1" fill="#1081a7" fill-opacity="1"></use><g><use xlink:href="#a8hFiHDqY" opacity="1" fill-opacity="0" stroke="#000000" stroke-width="1" stroke-opacity="0"></use></g></g><g><use xlink:href="#b3XiRccFu" opacity="1" fill="#1081a7" fill-opacity="1"></use><g><use xlink:href="#b3XiRccFu" opacity="1" fill-opacity="0" stroke="#000000" stroke-width="1" stroke-opacity="0"></use></g></g><g><use xlink:href="#a27UyTa4BW" opacity="1" fill="#1081a7" fill-opacity="1"></use><g><use xlink:href="#a27UyTa4BW" opacity="1" fill-opacity="0" stroke="#000000" stroke-width="1" stroke-opacity="0"></use></g></g><g><use xlink:href="#b1OoNxjJnn" opacity="1" fill="#1081a7" fill-opacity="1"></use><g><use xlink:href="#b1OoNxjJnn" opacity="1" fill-opacity="0" stroke="#000000" stroke-width="1" stroke-opacity="0"></use></g></g><g><use xlink:href="#c1B5aCir5" opacity="1" fill="#1081a7" fill-opacity="1"></use><g><use xlink:href="#c1B5aCir5" opacity="1" fill-opacity="0" stroke="#000000" stroke-width="1" stroke-opacity="0"></use></g></g><g><use xlink:href="#boTR7hiJd" opacity="1" fill="#1081a7" fill-opacity="1"></use><g><use xlink:href="#boTR7hiJd" opacity="1" fill-opacity="0" stroke="#000000" stroke-width="1" stroke-opacity="0"></use></g></g><g><use xlink:href="#c16GAte5SX" opacity="1" fill="#1081a7" fill-opacity="1"></use><g><use xlink:href="#c16GAte5SX" opacity="1" fill-opacity="0" stroke="#000000" stroke-width="1" stroke-opacity="0"></use></g></g><g><use xlink:href="#hqg4Q7bcW" opacity="1" fill="#1081a7" fill-opacity="1"></use><g><use xlink:href="#hqg4Q7bcW" opacity="1" fill-opacity="0" stroke="#000000" stroke-width="1" stroke-opacity="0"></use></g></g><g><use xlink:href="#gqOL4REKh" opacity="1" fill="#1081a7" fill-opacity="1"></use><g><use xlink:href="#gqOL4REKh" opacity="1" fill-opacity="0" stroke="#000000" stroke-width="1" stroke-opacity="0"></use></g></g><g><use xlink:href="#gtUrFchpd" opacity="1" fill="#1081a7" fill-opacity="1"></use><g><use xlink:href="#gtUrFchpd" opacity="1" fill-opacity="0" stroke="#000000" stroke-width="1" stroke-opacity="0"></use></g></g><g><use xlink:href="#a25txQHpG" opacity="1" fill="#1081a7" fill-opacity="1"></use><g><use xlink:href="#a25txQHpG" opacity="1" fill-opacity="0" stroke="#000000" stroke-width="1" stroke-opacity="0"></use></g></g></g></g></svg>