<svg fill="#1081a7" height="512" viewBox="0 0 64 64" width="512" xmlns="http://www.w3.org/2000/svg"><g id="Email_virus" data-name="Email virus"><path d="m58 7h2v2h-2z"/><path d="m60 13h2v2h-2z"/><path d="m33.813 3.12a3.012 3.012 0 0 0 -3.626 0l-27.396 20.78a2 2 0 0 0 -.791 1.6v34.5a2 2 0 0 0 2 2h56a2 2 0 0 0 2-2v-34.5a2 2 0 0 0 -.791-1.594zm-8.739 39.88-21.074 15.986v-31.972zm7.53 2.285a1 1 0 0 1 -1.208 0l-10.169-7.713 2.473-16.463 3.886 3.891h8.828l3.891-3.891 2.468 16.463zm-5.875-1.029 3.458 2.623a3.011 3.011 0 0 0 3.626 0l3.458-2.623 20.756 15.744h-52.054zm12.197-1.256 21.074-15.986v31.972zm-7.526-38.286a1 1 0 0 1 1.208 0l26.737 20.286-14.756 11.194-2.889-19.303-6.114 6.109h-7.172l-6.109-6.109-2.894 19.3-14.756-11.191z"/><path d="m34 32a1 1 0 0 0 .316-.051l3-1a1 1 0 0 0 -.632-1.9l-3 1a1 1 0 0 0 .316 1.951z"/><path d="m26.684 30.949 3 1a1 1 0 0 0 .632-1.9l-3-1a1 1 0 0 0 -.632 1.9z"/><path d="m37 36h-10a1 1 0 0 0 0 2h1v1a1 1 0 0 0 2 0v-1h4v1a1 1 0 0 0 2 0v-1h1a1 1 0 0 0 0-2z"/><path d="m40 2h11v2h-11z"/><path d="m53 2h2v2h-2z"/><path d="m57 2h5v2h-5z"/><path d="m45 7h11v2h-11z"/><path d="m53 13h5v2h-5z"/><path d="m13 2h11v2h-11z"/><path d="m9 2h2v2h-2z"/><path d="m2 2h5v2h-5z"/><path d="m8 7h11v2h-11z"/><path d="m4 7h2v2h-2z"/><path d="m2 13h2v2h-2z"/><path d="m6 13h5v2h-5z"/></g></svg>