<?xml version="1.0" encoding="iso-8859-1"?>
<!-- Generator: Adobe Illustrator 19.0.0, SVG Export Plug-In . SVG Version: 6.00 Build 0)  -->
<svg fill="#1081a7" version="1.1" id="Capa_1" xmlns="http://www.w3.org/2000/svg" xmlns:xlink="http://www.w3.org/1999/xlink" x="0px" y="0px"
	 viewBox="0 0 512 512" style="enable-background:new 0 0 512 512;" xml:space="preserve">
<g>
	<g>
		<path d="M511.955,443.693c-0.006-0.058-0.019-0.115-0.026-0.172c-0.027-0.211-0.06-0.419-0.105-0.624
			c-0.014-0.066-0.034-0.13-0.05-0.195c-0.048-0.195-0.101-0.388-0.164-0.577c-0.023-0.07-0.051-0.139-0.076-0.209
			c-0.066-0.18-0.138-0.358-0.217-0.531c-0.015-0.034-0.026-0.069-0.042-0.102L483.5,382.809V114.5c0-20.678-16.822-37.5-37.5-37.5
			h-53.981c-4.143,0-7.5,3.358-7.5,7.5c0,4.142,3.357,7.5,7.5,7.5H446c12.406,0,22.5,10.093,22.5,22.5V377h-425V114.5
			C43.5,102.093,53.593,92,66,92h52.981c4.142,0,7.5-3.358,7.5-7.5c0-4.142-3.358-7.5-7.5-7.5H66c-20.678,0-37.5,16.822-37.5,37.5
			v268.309L0.726,441.282c-0.016,0.034-0.027,0.07-0.042,0.104c-0.079,0.172-0.15,0.348-0.216,0.527
			c-0.026,0.071-0.054,0.141-0.078,0.212c-0.063,0.188-0.115,0.38-0.163,0.574c-0.016,0.066-0.036,0.131-0.051,0.198
			c-0.044,0.204-0.077,0.412-0.105,0.622c-0.008,0.058-0.02,0.115-0.026,0.173C0.016,443.958,0,444.227,0,444.5v30
			C0,495.178,16.822,512,37.5,512h437c20.678,0,37.5-16.822,37.5-37.5v-30C512,444.227,511.984,443.958,511.955,443.693z
			 M40.741,392H471.26l21.374,45H19.366L40.741,392z M293.5,452v15h-75v-15H293.5z M497,474.5c0,12.407-10.094,22.5-22.5,22.5h-437
			C25.093,497,15,486.907,15,474.5V452h188.5v22.5c0,4.142,3.358,7.5,7.5,7.5h90c4.143,0,7.5-3.358,7.5-7.5V452H497V474.5z"/>
	</g>
</g>
<g>
	<g>
		<path d="M102.19,107H66c-4.142,0-7.5,3.358-7.5,7.5v30c0,4.142,3.358,7.5,7.5,7.5c4.142,0,7.5-3.358,7.5-7.5V122h28.69
			c4.142,0,7.5-3.358,7.5-7.5C109.69,110.358,106.332,107,102.19,107z"/>
	</g>
</g>
<g>
	<g>
		<path d="M379.979,170.372C387.944,163.49,393,153.328,393,142c0-18.45-13.396-33.819-30.97-36.919
			c-0.53-3.934-1.273-7.8-2.218-11.588l4.524-1.47c3.939-1.28,6.096-5.511,4.815-9.45c-1.279-3.94-5.515-6.095-9.45-4.815
			l-4.534,1.473c-2.364-5.829-5.224-11.405-8.53-16.675l3.88-2.819c3.352-2.435,4.094-7.125,1.659-10.476s-7.124-4.093-10.476-1.66
			l-3.896,2.831c-4.022-4.785-8.452-9.214-13.236-13.236l2.831-3.896c2.435-3.351,1.692-8.042-1.659-10.476
			c-3.348-2.433-8.039-1.693-10.476,1.659l-2.82,3.881c-5.271-3.305-10.846-6.166-16.676-8.53l1.473-4.534
			c1.28-3.939-0.876-8.17-4.815-9.45c-3.938-1.281-8.17,0.875-9.45,4.815l-1.47,4.524c-5.988-1.493-12.172-2.483-18.507-2.922V7.5
			c0-4.142-3.357-7.5-7.5-7.5c-4.142,0-7.5,3.358-7.5,7.5v4.766c-6.335,0.439-12.519,1.429-18.507,2.922l-1.47-4.524
			c-1.28-3.939-5.511-6.097-9.45-4.815c-3.939,1.28-6.096,5.511-4.815,9.45l1.473,4.534c-5.829,2.364-11.404,5.224-16.675,8.529
			l-2.819-3.881c-2.435-3.351-7.124-4.093-10.476-1.66c-3.351,2.435-4.094,7.125-1.66,10.476l2.831,3.896
			c-4.785,4.022-9.215,8.452-13.236,13.237l-3.896-2.831c-3.353-2.436-8.042-1.692-10.476,1.659
			c-2.435,3.351-1.692,8.042,1.659,10.476l3.881,2.82c-3.305,5.271-6.166,10.846-8.529,16.675l-4.534-1.473
			c-3.941-1.281-8.171,0.876-9.45,4.815c-1.28,3.939,0.876,8.17,4.815,9.45l4.524,1.47c-0.945,3.788-1.688,7.655-2.218,11.588
			C131.396,108.181,118,123.55,118,142c0,11.51,5.217,21.821,13.405,28.705c-15.429,8.523-25.905,24.956-25.905,43.795
			c0,27.57,22.43,50,50,50c13.151,0,25.773-5.283,35.058-14.393C208.613,263.837,231.119,272,255.5,272
			c24.637,0,47.36-8.337,65.51-22.33c9.321,9.386,22.095,14.83,35.49,14.83c27.57,0,50-22.43,50-50
			C406.5,195.412,395.744,178.794,379.979,170.372z M363,120.79c8.729,3.096,15,11.433,15,21.21s-6.271,18.114-15,21.21V120.79z
			 M167.522,90.929c9.151-28.072,31.342-50.261,59.379-59.398C235.938,28.59,245.536,27,255.5,27c9.963,0,19.56,1.59,28.559,4.518
			c28.078,9.151,50.268,31.34,59.408,59.375c1.523,4.678,2.681,9.477,3.444,14.406C337.991,97.052,326.077,92,313,92
			c-25.022,0-45.807,18.475-49.436,42.5h-16.128C243.807,110.475,223.022,92,198,92c-13.077,0-24.991,5.052-33.91,13.299
			C164.853,100.37,166.011,95.571,167.522,90.929z M348,142c0,19.299-15.701,35-35,35s-35-15.701-35-35s15.701-35,35-35
			S348,122.701,348,142z M198,107c19.299,0,35,15.701,35,35s-15.701,35-35,35s-35-15.701-35-35S178.701,107,198,107z M148,120.79
			v42.42c-8.729-3.096-15-11.432-15-21.21C133,132.222,139.271,123.886,148,120.79z M155.499,249.5
			c-19.298,0-34.999-15.701-34.999-35c0-17.125,12.365-31.406,28.634-34.409c3.397,23.279,14.279,44.161,30.121,60.115
			C172.845,246.17,164.479,249.5,155.499,249.5z M255.5,257c-46.177,0-84.557-34.012-91.41-78.299
			C173.009,186.948,184.923,192,198,192c25.022,0,45.807-18.475,49.436-42.5h16.128c3.63,24.025,24.415,42.5,49.436,42.5
			c13.077,0,24.991-5.052,33.91-13.299C340.057,222.988,301.677,257,255.5,257z M356.5,249.5c-9.095,0-17.79-3.582-24.262-9.8
			c15.613-15.929,26.319-36.679,29.652-59.784c16.749,2.6,29.61,17.118,29.61,34.584C391.5,233.799,375.799,249.5,356.5,249.5z"/>
	</g>
</g>
<g>
	<g>
		<circle cx="255.5" cy="194.5" r="7.5"/>
	</g>
</g>
<g>
	<g>
		<path d="M446,107h-37.19c-4.143,0-7.5,3.358-7.5,7.5c0,4.142,3.357,7.5,7.5,7.5h29.69v225H423v-12.5
			c0-21.686-14.651-40.604-35.63-46.003c-3.859-0.994-7.854-1.497-11.87-1.497h-240c-26.191,0-47.5,21.309-47.5,47.5V347H73.5V174.5
			c0-4.142-3.358-7.5-7.5-7.5c-4.142,0-7.5,3.358-7.5,7.5v180c0,4.142,3.358,7.5,7.5,7.5h380c4.143,0,7.5-3.358,7.5-7.5v-240
			C453.5,110.358,450.143,107,446,107z M178,347h-75v-12.5c0-17.92,14.58-32.5,32.5-32.5H178V347z M319,347H193v-45h126V347z
			 M408,347h-74v-45h41.5c2.757,0,5.492,0.344,8.131,1.023C397.979,306.717,408,319.66,408,334.5V347z"/>
	</g>
</g>
<g>
</g>
<g>
</g>
<g>
</g>
<g>
</g>
<g>
</g>
<g>
</g>
<g>
</g>
<g>
</g>
<g>
</g>
<g>
</g>
<g>
</g>
<g>
</g>
<g>
</g>
<g>
</g>
<g>
</g>
</svg>
