<svg fill="#1081a7" id="Layer_5" enable-background="new 0 0 64 64" height="512" viewBox="0 0 64 64" width="512" xmlns="http://www.w3.org/2000/svg"><path d="m13 57h2v2h-2z"/><path d="m17 57h2v2h-2z"/><path d="m21 57h2v2h-2z"/><path d="m13 53h10v2h-10z"/><path d="m17.879 26.293c.456.456 1.062.707 1.707.707 1.331 0 2.414-1.083 2.414-2.414v-3.586h2c2.757 0 5-2.243 5-5v-10c0-2.757-2.243-5-5-5h-18c-2.757 0-5 2.243-5 5v10c0 2.757 2.243 5 5 5h6.586zm-14.879-10.293v-10c0-1.654 1.346-3 3-3h18c1.654 0 3 1.346 3 3v10c0 1.654-1.346 3-3 3h-4v5.586c0 .338-.469.531-.707.293l-5.879-5.879h-7.414c-1.654 0-3-1.346-3-3z"/><path d="m22.293 4.293-11.293 11.293-2.293-2.293-1.414 1.414 3.707 3.707 12.707-12.707z"/><path d="m49 53h2v2h-2z"/><path d="m49 49h2v2h-2z"/><path d="m49 57h2v2h-2z"/><path d="m47 13c-3.86 0-7 3.14-7 7s3.14 7 7 7 7-3.14 7-7-3.14-7-7-7zm0 12c-2.757 0-5-2.243-5-5s2.243-5 5-5 5 2.243 5 5-2.243 5-5 5z"/><path d="m57.186 35.224c1.187-3.431 1.814-7.059 1.814-10.686 0-7.011-2.316-13.959-6.522-19.567l-1.478-1.971c-.939-1.252-2.435-2-4-2s-3.061.748-4 2l-1.478 1.97c-4.206 5.608-6.522 12.557-6.522 19.568 0 1.489.107 2.984.311 4.462h-23.311c-1.654 0-3 1.346-3 3v28c0 1.654 1.346 3 3 3h40c1.654 0 3-1.346 3-3v-15h.398c2.158 0 4.249.633 6.047 1.832l1.555 1.036v-1.868c0-4.35-2.208-8.406-5.814-10.776zm-14.064-29.054 1.478-1.97c.564-.751 1.461-1.2 2.4-1.2s1.837.449 2.4 1.2l1.478 1.97c.678.904 1.284 1.857 1.855 2.83h-11.466c.571-.972 1.177-1.925 1.855-2.83zm-6.122 18.368c0-4.69 1.123-9.341 3.186-13.538h13.627c2.064 4.196 3.187 8.848 3.187 13.538 0 3.695-.692 7.391-2 10.85v-3.388c0-1.654-1.346-3-3-3h-14.666c-.218-1.477-.334-2.973-.334-4.462zm-4 8.462v2h-2v-2h-2v2h-2v-4h10v4h-2v-2zm-2 26v-2h2v2h2v-2h2v4h-10v-4h2v2zm22 1c0 .552-.449 1-1 1h-13v-6h-14v6h-13c-.551 0-1-.448-1-1v-28c0-.551.449-1 1-1h13v6h14v-6h13c.551 0 1 .449 1 1zm2.398-17h-.398v-2.764l.557-1.114c.323-.646.618-1.305.897-1.972 2.342 1.682 3.924 4.229 4.397 7.058-1.7-.794-3.554-1.208-5.453-1.208z"/></svg>