<?xml version="1.0" encoding="UTF-8" standalone="no"?>
<!DOCTYPE svg PUBLIC "-//W3C//DTD SVG 1.1//EN" "http://www.w3.org/Graphics/SVG/1.1/DTD/svg11.dtd">
<svg version="1.1" xmlns="http://www.w3.org/2000/svg" xmlns:xlink="http://www.w3.org/1999/xlink" preserveAspectRatio="xMidYMid meet" viewBox="0 0 682 682" width="682" height="682"><defs><path d="M643.42 53.53L645.11 53.7L646.78 53.94L648.43 54.24L650.06 54.61L651.67 55.04L653.24 55.54L654.8 56.09L656.32 56.7L657.81 57.36L659.27 58.09L660.7 58.86L662.1 59.69L663.46 60.58L664.78 61.51L666.06 62.49L667.31 63.52L668.51 64.59L669.68 65.71L670.8 66.87L671.87 68.08L672.9 69.32L673.88 70.61L674.81 71.93L675.7 73.29L676.53 74.69L677.3 76.12L678.03 77.58L678.69 79.07L679.3 80.59L679.85 82.14L680.35 83.72L680.78 85.33L681.14 86.95L681.45 88.6L681.69 90.28L681.86 91.97L681.96 93.68L682 95.41L682 501.17L681.96 502.9L681.86 504.61L681.69 506.3L681.45 507.97L681.14 509.62L680.78 511.25L680.35 512.86L679.85 514.43L679.3 515.99L678.69 517.51L678.03 519L677.3 520.46L676.53 521.89L675.69 523.29L674.81 524.65L673.88 525.97L672.9 527.25L671.87 528.5L670.8 529.7L669.68 530.87L668.51 531.99L667.31 533.06L666.06 534.09L664.78 535.07L663.46 536L662.1 536.88L660.7 537.71L659.27 538.49L657.81 539.21L656.32 539.88L654.8 540.49L653.24 541.04L651.67 541.53L650.06 541.97L648.43 542.33L646.78 542.64L645.11 542.88L643.42 543.05L641.71 543.15L639.98 543.19L437.74 543.19L445.92 608.63L479.81 608.63L480.22 608.64L480.63 608.66L481.03 608.7L481.43 608.76L481.82 608.83L482.21 608.92L482.59 609.02L482.97 609.14L483.34 609.27L483.7 609.42L484.06 609.57L484.4 609.75L484.74 609.93L485.07 610.13L485.4 610.34L485.71 610.56L486.02 610.79L486.31 611.04L486.6 611.29L486.88 611.56L487.14 611.83L487.4 612.12L487.64 612.42L487.87 612.72L488.1 613.04L488.3 613.36L488.5 613.69L488.69 614.03L488.86 614.38L489.02 614.73L489.16 615.09L489.29 615.46L489.41 615.84L489.51 616.22L489.6 616.61L489.67 617L489.73 617.4L489.77 617.8L489.79 618.21L489.8 618.62L489.79 619.03L489.77 619.44L489.73 619.84L489.67 620.24L489.6 620.63L489.51 621.02L489.41 621.4L489.29 621.78L489.16 622.15L489.02 622.51L488.86 622.86L488.69 623.21L488.5 623.55L488.3 623.88L488.1 624.21L487.87 624.52L487.64 624.83L487.4 625.12L487.14 625.41L486.88 625.68L486.6 625.95L486.31 626.21L486.02 626.45L485.71 626.68L485.4 626.9L485.07 627.11L484.74 627.31L484.4 627.5L484.06 627.67L483.7 627.83L483.34 627.97L482.97 628.1L482.59 628.22L482.21 628.32L481.82 628.41L481.43 628.48L481.03 628.54L480.63 628.58L480.22 628.6L479.81 628.61L202.19 628.61L201.78 628.6L201.37 628.58L200.97 628.54L200.57 628.48L200.18 628.41L199.79 628.32L199.41 628.22L199.03 628.1L198.66 627.97L198.3 627.83L197.94 627.67L197.6 627.5L197.26 627.31L196.93 627.11L196.6 626.9L196.29 626.68L195.98 626.45L195.69 626.21L195.4 625.95L195.12 625.68L194.86 625.41L194.6 625.12L194.36 624.83L194.13 624.52L193.9 624.21L193.7 623.88L193.5 623.55L193.31 623.21L193.14 622.86L192.98 622.51L192.84 622.15L192.71 621.78L192.59 621.4L192.49 621.02L192.4 620.63L192.33 620.24L192.27 619.84L192.23 619.44L192.21 619.03L192.2 618.62L192.21 618.21L192.23 617.8L192.27 617.4L192.33 617L192.4 616.61L192.49 616.22L192.59 615.84L192.71 615.46L192.84 615.09L192.98 614.73L193.14 614.38L193.31 614.03L193.5 613.69L193.7 613.36L193.9 613.04L194.13 612.72L194.36 612.42L194.6 612.12L194.86 611.83L195.12 611.56L195.4 611.29L195.69 611.04L195.98 610.79L196.29 610.56L196.6 610.34L196.93 610.13L197.26 609.93L197.6 609.75L197.94 609.57L198.3 609.42L198.66 609.27L199.03 609.14L199.41 609.02L199.79 608.92L200.18 608.83L200.57 608.76L200.97 608.7L201.37 608.66L201.78 608.64L202.19 608.63L236.08 608.63L244.26 543.19L42.02 543.19L40.29 543.15L38.58 543.05L36.89 542.88L35.22 542.64L33.57 542.33L31.94 541.97L30.33 541.53L28.76 541.04L27.2 540.49L25.68 539.88L24.19 539.21L22.73 538.49L21.3 537.71L19.9 536.88L18.54 536L17.22 535.07L15.94 534.09L14.69 533.06L13.49 531.99L12.32 530.87L11.2 529.7L10.13 528.5L9.1 527.25L8.12 525.97L7.19 524.65L6.3 523.29L5.47 521.89L4.7 520.46L3.97 519L3.31 517.51L2.7 515.99L2.15 514.43L1.65 512.86L1.22 511.25L0.86 509.62L0.55 507.97L0.31 506.3L0.14 504.61L0.04 502.9L0 501.17L0 95.41L0.04 93.68L0.14 91.97L0.31 90.28L0.55 88.6L0.86 86.95L1.22 85.33L1.65 83.72L2.15 82.14L2.7 80.59L3.31 79.07L3.97 77.58L4.7 76.12L5.47 74.69L6.3 73.29L7.19 71.93L8.12 70.61L9.1 69.32L10.13 68.08L11.2 66.87L12.32 65.71L13.49 64.59L14.69 63.52L15.94 62.49L17.22 61.51L18.54 60.58L19.9 59.69L21.3 58.86L22.73 58.09L24.19 57.36L25.68 56.7L27.2 56.09L28.76 55.54L30.33 55.04L31.94 54.61L33.57 54.24L35.22 53.94L36.89 53.7L38.58 53.53L40.29 53.42L42.02 53.39L639.98 53.39L641.71 53.42L643.42 53.53ZM256.22 608.63L425.78 608.63L417.6 543.19L380.84 543.19L377.23 557.61L376.9 558.85L376.52 560.07L376.11 561.27L375.67 562.45L375.18 563.61L374.66 564.75L374.1 565.86L373.51 566.95L372.88 568.02L372.23 569.06L371.53 570.08L370.81 571.07L370.06 572.03L369.27 572.97L368.46 573.88L367.62 574.77L366.75 575.62L365.86 576.44L364.94 577.24L363.99 578L363.02 578.74L362.03 579.44L361.01 580.1L359.97 580.74L358.91 581.34L357.83 581.91L356.73 582.44L355.61 582.94L354.47 583.4L353.32 583.82L352.15 584.21L350.96 584.56L349.76 584.87L348.54 585.14L347.32 585.37L346.07 585.56L344.82 585.71L343.56 585.81L342.28 585.88L341 585.9L339.72 585.88L338.44 585.81L337.18 585.71L335.93 585.56L334.69 585.37L333.46 585.14L332.24 584.87L331.04 584.56L329.86 584.21L328.68 583.82L327.53 583.4L326.39 582.94L325.27 582.44L324.17 581.91L323.09 581.34L322.03 580.74L320.99 580.1L319.98 579.44L318.98 578.74L318.01 578L317.07 577.24L316.14 576.44L315.25 575.62L314.38 574.77L313.54 573.88L312.73 572.97L311.94 572.03L311.19 571.07L310.47 570.08L309.78 569.06L309.12 568.02L308.49 566.95L307.9 565.86L307.34 564.75L306.82 563.61L306.34 562.45L305.89 561.27L305.48 560.07L305.11 558.85L304.77 557.61L301.17 543.19L264.4 543.19L256.22 608.63ZM324.16 552.77L324.48 553.91L324.88 555.02L325.35 556.08L325.88 557.11L326.48 558.09L327.14 559.02L327.85 559.91L328.62 560.74L329.44 561.52L330.31 562.25L331.22 562.91L332.18 563.52L333.17 564.06L334.21 564.54L335.27 564.95L336.37 565.29L337.49 565.56L338.64 565.76L339.81 565.88L341 565.92L342.19 565.88L343.36 565.76L344.51 565.56L345.63 565.29L346.73 564.95L347.79 564.54L348.82 564.06L349.82 563.52L350.77 562.91L351.69 562.25L352.56 561.52L353.38 560.74L354.14 559.91L354.86 559.02L355.52 558.09L356.11 557.11L356.65 556.09L357.12 555.02L357.51 553.91L357.84 552.77L360.24 543.19L321.76 543.19L324.16 552.77ZM41.12 73.39L40.22 73.44L39.33 73.53L38.45 73.66L37.59 73.82L36.73 74.01L35.89 74.24L35.06 74.5L34.25 74.78L33.45 75.1L32.67 75.45L31.9 75.83L31.15 76.24L30.42 76.68L29.71 77.14L29.01 77.63L28.34 78.14L27.69 78.68L27.05 79.25L26.44 79.83L25.86 80.44L25.29 81.07L24.75 81.73L24.24 82.4L23.75 83.1L23.29 83.81L22.85 84.54L22.44 85.29L22.07 86.06L21.72 86.84L21.4 87.64L21.11 88.45L20.85 89.28L20.62 90.12L20.43 90.98L20.27 91.84L20.14 92.72L20.05 93.61L20 94.5L19.98 95.41L19.98 501.17L20 502.07L20.05 502.97L20.14 503.86L20.27 504.74L20.43 505.6L20.62 506.46L20.85 507.3L21.11 508.13L21.4 508.94L21.72 509.74L22.07 510.52L22.44 511.29L22.85 512.04L23.29 512.77L23.75 513.48L24.24 514.18L24.75 514.85L25.29 515.5L25.86 516.14L26.44 516.75L27.05 517.33L27.69 517.9L28.34 518.44L29.01 518.95L29.71 519.44L30.42 519.9L31.15 520.34L31.9 520.74L32.67 521.12L33.45 521.47L34.25 521.79L35.06 522.08L35.89 522.34L36.73 522.57L37.59 522.76L38.45 522.92L39.33 523.04L40.22 523.14L41.12 523.19L42.02 523.21L639.98 523.21L640.88 523.19L641.78 523.14L642.67 523.04L643.55 522.92L644.41 522.76L645.27 522.57L646.11 522.34L646.94 522.08L647.75 521.79L648.55 521.47L649.33 521.12L650.1 520.74L650.85 520.34L651.58 519.9L652.29 519.44L652.99 518.95L653.66 518.44L654.31 517.9L654.95 517.33L655.56 516.75L656.14 516.14L656.71 515.5L657.25 514.85L657.76 514.18L658.25 513.48L658.71 512.77L659.15 512.04L659.56 511.29L659.93 510.52L660.28 509.74L660.6 508.94L660.89 508.13L661.15 507.3L661.38 506.46L661.57 505.6L661.73 504.74L661.86 503.86L661.95 502.97L662 502.07L662.02 501.17L662.02 95.41L662 94.5L661.95 93.61L661.86 92.72L661.73 91.84L661.57 90.98L661.38 90.12L661.15 89.28L660.89 88.45L660.6 87.64L660.28 86.84L659.93 86.06L659.56 85.29L659.15 84.54L658.71 83.81L658.25 83.1L657.76 82.4L657.25 81.73L656.71 81.07L656.14 80.44L655.56 79.83L654.95 79.25L654.31 78.68L653.66 78.14L652.99 77.63L652.29 77.14L651.58 76.68L650.85 76.24L650.1 75.83L649.33 75.45L648.55 75.1L647.75 74.78L646.94 74.5L646.11 74.24L645.27 74.01L644.41 73.82L643.55 73.66L642.67 73.53L641.78 73.44L640.88 73.39L639.98 73.37L42.02 73.37L41.12 73.39Z" id="eiYvm2L2a"></path><path d="M52.7 96.1C47.18 96.1 42.71 100.57 42.71 106.09C42.71 144.53 42.71 452.05 42.71 490.49C42.71 496.01 47.18 500.48 52.7 500.48C54.84 500.48 71.92 500.48 74.06 500.48C79.58 500.48 84.05 496.01 84.05 490.49C84.05 484.97 79.58 480.5 74.06 480.5C73.3 480.5 69.51 480.5 62.69 480.5L62.69 116.08C364.22 116.08 531.73 116.08 565.23 116.08C570.75 116.08 575.22 111.61 575.22 106.09C575.22 100.57 570.75 96.1 565.23 96.1C462.73 96.1 103.95 96.1 52.7 96.1Z" id="agazYhMr0"></path><path d="M607.94 96.1C602.42 96.1 597.95 100.57 597.95 106.09C597.95 111.61 602.42 116.08 607.94 116.08C608.7 116.08 612.49 116.08 619.31 116.08L619.31 480.5C317.78 480.5 150.27 480.5 116.77 480.5C111.25 480.5 106.78 484.97 106.78 490.49C106.78 496.01 111.25 500.48 116.77 500.48C168.02 500.48 578.05 500.48 629.3 500.48C634.82 500.48 639.29 496.01 639.29 490.49C639.29 452.05 639.29 144.53 639.29 106.09C639.29 100.57 634.82 96.1 629.3 96.1C625.03 96.1 610.08 96.1 607.94 96.1Z" id="b7lZW1KMPO"></path><path d="M192.23 160.19L192.62 160.22L193 160.27L193.38 160.34L193.77 160.42L194.15 160.52L194.52 160.63L194.9 160.75L195.27 160.9L195.63 161.05L196 161.23L196.36 161.42L196.71 161.62L197.06 161.84L225.82 181.02L226.12 181.22L226.41 181.43L226.7 181.64L226.98 181.86L227.27 182.08L227.54 182.3L227.81 182.53L228.08 182.76L228.34 183L228.6 183.25L228.86 183.49L229.11 183.74L229.35 184L229.6 184.26L229.83 184.52L230.06 184.79L230.29 185.06L230.52 185.33L230.73 185.61L230.95 185.89L231.15 186.18L231.36 186.47L231.56 186.76L231.75 187.06L231.94 187.36L232.12 187.66L232.3 187.96L232.47 188.27L232.64 188.58L232.8 188.9L232.96 189.22L233.11 189.54L233.26 189.86L233.4 190.19L233.54 190.52L233.67 190.85L233.79 191.18L233.91 191.52L234.02 191.86L234.13 192.2L234.16 192.2L234.17 192.2L234.2 192.2L234.23 192.2L234.27 192.2L234.3 192.2L234.31 192.2L234.34 192.2L234.35 192.2L234.38 192.2L234.39 192.2L234.4 192.2L234.43 192.2L234.46 192.2L234.49 192.2L234.51 192.2L234.54 192.2L234.57 192.2L234.6 192.2L234.62 192.21L234.66 192.21L234.68 192.21L469.59 202.89L469.81 202.9L470.02 202.92L470.24 202.94L470.45 202.96L470.67 203L470.88 203.03L471.09 203.07L471.3 203.11L471.51 203.16L471.72 203.22L471.93 203.28L472.13 203.34L472.34 203.4L472.54 203.47L472.74 203.55L472.94 203.63L473.13 203.71L473.33 203.8L473.52 203.89L473.71 203.99L473.9 204.09L474.09 204.19L474.27 204.3L474.45 204.41L474.63 204.53L474.81 204.65L474.98 204.77L475.16 204.9L475.33 205.03L475.49 205.16L475.66 205.3L475.82 205.44L475.98 205.59L476.13 205.74L476.29 205.89L476.44 206.05L476.58 206.21L476.72 206.37L476.86 206.54L477 206.71L477.13 206.88L477.26 207.06L477.39 207.24L477.51 207.42L477.62 207.6L477.73 207.79L477.84 207.97L477.95 208.16L478.04 208.35L478.14 208.54L478.23 208.74L478.32 208.94L478.4 209.13L478.48 209.33L478.55 209.53L478.62 209.74L478.68 209.94L478.74 210.14L478.8 210.35L478.85 210.56L478.9 210.77L478.94 210.97L478.98 211.18L479.01 211.4L479.04 211.61L479.07 211.82L479.09 212.03L479.1 212.25L479.11 212.46L479.12 212.68L479.12 212.89L479.12 213.11L479.11 213.32L479.1 213.54L479.08 213.75L479.06 213.97L479.04 214.18L479.01 214.4L478.97 214.61L478.93 214.83L462.14 298.79L461.85 300.12L461.52 301.44L461.15 302.74L460.74 304.02L460.29 305.28L459.81 306.52L459.29 307.74L458.73 308.94L458.13 310.12L457.51 311.28L456.84 312.41L456.14 313.52L455.42 314.6L454.65 315.66L453.86 316.69L453.04 317.7L452.18 318.68L451.3 319.63L450.39 320.56L449.44 321.45L448.48 322.32L447.48 323.15L446.46 323.96L445.42 324.73L444.35 325.47L443.25 326.18L442.14 326.85L441 327.49L439.84 328.1L438.66 328.67L437.45 329.2L436.23 329.7L434.99 330.16L433.73 330.58L432.46 330.97L431.17 331.31L429.86 331.62L428.53 331.88L427.19 332.1L425.84 332.28L285.46 348.8L285.37 348.81L285.27 348.82L285.18 348.83L285.09 348.84L284.99 348.85L284.9 348.86L284.8 348.87L284.71 348.88L284.62 348.89L284.52 348.9L284.43 348.9L284.34 348.91L284.24 348.92L284.15 348.93L284.05 348.93L283.96 348.94L283.87 348.95L283.77 348.95L283.68 348.96L283.59 348.96L283.49 348.97L283.4 348.97L283.31 348.98L283.21 348.98L283.12 348.99L283.03 348.99L282.93 349L282.84 349L282.75 349L282.65 349.01L282.56 349.01L282.47 349.01L282.38 349.01L282.28 349.01L282.19 349.02L282.1 349.02L282 349.02L281.91 349.02L281.82 349.02L281.73 349.02L281.53 349.02L281.32 349.02L281.12 349.01L280.92 349.01L280.72 349L280.52 349L280.32 348.99L280.13 348.98L279.93 348.97L279.73 348.95L279.53 348.94L279.33 348.93L279.13 348.91L278.94 348.89L278.74 348.87L278.54 348.85L278.35 348.83L278.15 348.81L277.95 348.79L277.76 348.76L277.56 348.74L277.37 348.71L277.17 348.68L276.98 348.65L276.78 348.62L276.59 348.59L276.4 348.56L276.2 348.52L276.01 348.49L275.82 348.45L275.63 348.41L275.43 348.38L275.24 348.34L275.05 348.29L274.86 348.25L274.67 348.21L274.48 348.16L274.29 348.12L274.1 348.07L273.91 348.02L261.56 372.72L261.55 372.74L261.55 372.75L261.54 372.77L261.54 372.78L261.53 372.79L261.53 372.8L261.52 372.81L261.52 372.82L261.51 372.84L261.51 372.85L261.5 372.86L261.5 372.88L261.49 372.89L261.49 372.91L261.49 372.92L261.48 372.94L261.48 372.95L261.48 372.97L261.48 372.98L261.48 373L261.48 373.02L261.48 373.04L261.48 373.05L261.48 373.07L261.48 373.09L261.48 373.11L261.49 373.13L261.49 373.15L261.49 373.17L261.5 373.19L261.51 373.21L261.51 373.23L261.52 373.25L261.53 373.28L261.54 373.3L261.55 373.32L261.56 373.34L261.58 373.37L261.59 373.39L261.61 373.42L261.62 373.44L261.64 373.46L261.65 373.48L261.67 373.5L261.69 373.52L261.7 373.54L261.72 373.55L261.73 373.57L261.75 373.58L261.76 373.59L261.78 373.61L261.8 373.62L261.81 373.63L261.83 373.64L261.84 373.65L261.86 373.66L261.88 373.66L261.89 373.67L261.91 373.68L261.92 373.68L261.94 373.69L261.95 373.69L261.97 373.7L261.98 373.7L262 373.7L262.01 373.71L262.03 373.71L262.04 373.71L262.05 373.71L262.07 373.71L262.08 373.72L262.09 373.72L262.11 373.72L262.12 373.72L262.13 373.72L262.14 373.72L262.15 373.72L262.18 373.72L447.78 373.72L448.19 373.73L448.6 373.75L449 373.79L449.4 373.85L449.79 373.92L450.18 374.01L450.56 374.11L450.94 374.23L451.31 374.36L451.67 374.5L452.02 374.66L452.37 374.83L452.71 375.02L453.04 375.22L453.37 375.42L453.68 375.65L453.99 375.88L454.28 376.12L454.57 376.38L454.84 376.64L455.11 376.92L455.37 377.21L455.61 377.5L455.84 377.81L456.06 378.12L456.27 378.45L456.47 378.78L456.65 379.12L456.83 379.47L456.98 379.82L457.13 380.18L457.26 380.55L457.38 380.93L457.48 381.31L457.57 381.7L457.64 382.09L457.7 382.49L457.74 382.89L457.76 383.3L457.77 383.71L457.77 383.93L457.76 384.15L457.75 384.36L457.73 384.58L457.71 384.8L457.69 385.01L457.66 385.22L457.62 385.43L457.58 385.64L457.54 385.85L457.49 386.05L457.44 386.26L457.38 386.46L457.32 386.66L457.26 386.86L457.19 387.06L457.12 387.25L457.04 387.44L456.96 387.63L456.88 387.82L456.79 388.01L456.7 388.2L456.61 388.38L456.51 388.56L456.41 388.74L456.3 388.91L456.19 389.09L456.08 389.26L455.96 389.43L455.84 389.59L455.72 389.76L455.6 389.92L455.47 390.07L455.33 390.23L455.2 390.38L455.06 390.53L454.92 390.68L454.78 390.83L454.63 390.97L454.48 391.11L454.63 391.42L454.79 391.74L454.94 392.06L455.08 392.38L455.22 392.71L455.36 393.03L455.5 393.36L455.63 393.69L455.76 394.02L455.88 394.36L456 394.69L456.12 395.03L456.23 395.37L456.34 395.71L456.44 396.05L456.55 396.39L456.64 396.74L456.74 397.08L456.83 397.43L456.91 397.78L456.99 398.13L457.07 398.49L457.15 398.84L457.22 399.2L457.28 399.55L457.34 399.91L457.4 400.27L457.46 400.63L457.51 401L457.55 401.36L457.59 401.72L457.63 402.09L457.66 402.46L457.69 402.83L457.71 403.2L457.73 403.57L457.75 403.94L457.76 404.31L457.77 404.69L457.77 405.06L457.74 406.35L457.67 407.63L457.54 408.89L457.36 410.14L457.13 411.37L456.86 412.59L456.54 413.78L456.17 414.96L455.76 416.12L455.3 417.25L454.8 418.37L454.27 419.46L453.69 420.52L453.07 421.56L452.41 422.58L451.71 423.56L450.98 424.52L450.21 425.45L449.41 426.35L448.58 427.22L447.71 428.05L446.81 428.85L445.88 429.62L444.92 430.35L443.94 431.05L442.92 431.71L441.88 432.33L440.82 432.91L439.73 433.44L438.61 433.94L437.48 434.4L436.32 434.81L435.14 435.18L433.95 435.5L432.73 435.77L431.5 436L430.25 436.18L428.99 436.31L427.71 436.38L426.42 436.41L425.13 436.38L423.86 436.31L422.59 436.18L421.35 436L420.12 435.77L418.9 435.5L417.7 435.18L416.53 434.81L415.37 434.4L414.24 433.94L413.12 433.44L412.03 432.91L410.97 432.33L409.93 431.71L408.91 431.05L407.92 430.35L406.97 429.62L406.04 428.85L405.14 428.05L404.27 427.22L403.44 426.35L402.63 425.45L401.87 424.52L401.14 423.56L400.44 422.58L399.78 421.56L399.16 420.52L398.58 419.46L398.04 418.37L397.55 417.25L397.09 416.12L396.68 414.96L396.31 413.78L395.99 412.59L395.72 411.37L395.49 410.14L395.31 408.89L395.18 407.63L395.11 406.35L395.08 405.06L395.08 404.76L395.08 404.46L395.09 404.17L395.1 403.87L395.11 403.57L395.13 403.27L395.15 402.98L395.17 402.68L395.19 402.39L395.22 402.09L395.25 401.8L395.28 401.51L395.32 401.22L395.35 400.93L395.39 400.64L395.44 400.35L395.48 400.06L395.53 399.77L395.58 399.49L395.63 399.2L395.69 398.92L395.75 398.63L395.81 398.35L395.87 398.07L395.94 397.79L396.01 397.51L396.08 397.23L396.15 396.95L396.23 396.67L396.31 396.4L396.39 396.12L396.47 395.85L396.56 395.58L396.64 395.31L396.73 395.04L396.83 394.77L396.92 394.5L397.02 394.23L397.12 393.96L397.22 393.7L306.14 393.7L306.24 393.96L306.34 394.23L306.44 394.5L306.54 394.77L306.63 395.04L306.72 395.31L306.81 395.58L306.89 395.85L306.98 396.12L307.06 396.4L307.13 396.67L307.21 396.95L307.28 397.23L307.36 397.51L307.42 397.79L307.49 398.07L307.55 398.35L307.61 398.63L307.67 398.92L307.73 399.2L307.78 399.49L307.83 399.77L307.88 400.06L307.93 400.35L307.97 400.64L308.01 400.93L308.05 401.22L308.08 401.51L308.11 401.8L308.14 402.09L308.17 402.39L308.19 402.68L308.21 402.98L308.23 403.27L308.25 403.57L308.26 403.87L308.27 404.17L308.28 404.46L308.28 404.76L308.28 405.06L308.26 406.35L308.18 407.63L308.05 408.89L307.87 410.14L307.64 411.37L307.37 412.59L307.05 413.78L306.68 414.96L306.27 416.12L305.82 417.25L305.32 418.37L304.78 419.46L304.2 420.52L303.58 421.56L302.92 422.58L302.23 423.56L301.49 424.52L300.73 425.45L299.93 426.35L299.09 427.22L298.22 428.05L297.32 428.85L296.4 429.62L295.44 430.35L294.45 431.05L293.44 431.71L292.4 432.33L291.33 432.91L290.24 433.44L289.13 433.94L287.99 434.4L286.83 434.81L285.66 435.18L284.46 435.5L283.25 435.77L282.01 436L280.77 436.18L279.5 436.31L278.23 436.38L276.94 436.41L275.65 436.38L274.37 436.31L273.11 436.18L271.86 436L270.63 435.77L269.41 435.5L268.22 435.18L267.04 434.81L265.88 434.4L264.75 433.94L263.63 433.44L262.54 432.91L261.48 432.33L260.44 431.71L259.42 431.05L258.44 430.35L257.48 429.62L256.55 428.85L255.65 428.05L254.78 427.22L253.95 426.35L253.15 425.45L252.38 424.52L251.65 423.56L250.95 422.58L250.29 421.56L249.68 420.52L249.1 419.46L248.56 418.37L248.06 417.25L247.6 416.12L247.19 414.96L246.83 413.78L246.5 412.59L246.23 411.37L246 410.14L245.82 408.89L245.7 407.63L245.62 406.35L245.59 405.06L245.59 404.64L245.6 404.22L245.62 403.8L245.64 403.38L245.66 402.96L245.69 402.55L245.73 402.13L245.77 401.72L245.82 401.31L245.87 400.9L245.93 400.49L245.99 400.09L246.06 399.68L246.13 399.28L246.21 398.88L246.29 398.48L246.38 398.08L246.47 397.69L246.57 397.29L246.67 396.9L246.78 396.51L246.9 396.12L247.01 395.74L247.14 395.35L247.26 394.97L247.4 394.59L247.53 394.22L247.68 393.84L247.82 393.47L247.97 393.1L248.13 392.73L248.29 392.37L248.45 392.01L248.62 391.65L248.79 391.29L248.97 390.93L249.15 390.58L249.34 390.23L249.53 389.88L249.73 389.54L249.58 389.42L249.43 389.31L249.28 389.19L249.13 389.07L248.99 388.95L248.84 388.83L248.7 388.7L248.55 388.58L248.41 388.45L248.27 388.33L248.13 388.2L247.99 388.07L247.86 387.94L247.72 387.81L247.59 387.67L247.45 387.54L247.32 387.4L247.19 387.26L247.06 387.12L246.93 386.98L246.8 386.84L246.67 386.7L246.55 386.55L246.42 386.41L246.3 386.26L246.18 386.11L246.05 385.96L245.93 385.81L245.82 385.66L245.7 385.5L245.58 385.35L245.47 385.19L245.36 385.03L245.24 384.88L245.13 384.72L245.02 384.55L244.92 384.39L244.81 384.23L244.7 384.06L244.6 383.9L244.32 383.43L244.06 382.97L243.8 382.49L243.57 382.02L243.34 381.54L243.13 381.05L242.93 380.56L242.74 380.07L242.56 379.57L242.4 379.07L242.26 378.57L242.12 378.07L242 377.56L241.89 377.05L241.8 376.54L241.71 376.03L241.64 375.51L241.59 375L241.54 374.48L241.51 373.96L241.5 373.44L241.49 372.92L241.5 372.41L241.53 371.89L241.56 371.37L241.61 370.85L241.67 370.33L241.75 369.82L241.84 369.3L241.94 368.79L242.06 368.28L242.19 367.77L242.33 367.26L242.48 366.76L242.65 366.25L242.83 365.75L243.03 365.26L243.24 364.76L243.46 364.27L243.7 363.79L257.1 336.97L256.92 336.74L256.74 336.51L256.57 336.27L256.39 336.03L256.22 335.79L256.05 335.55L255.88 335.3L255.72 335.05L255.56 334.81L255.39 334.56L255.24 334.3L255.08 334.05L254.92 333.8L254.77 333.54L254.62 333.28L254.47 333.02L254.33 332.76L254.18 332.49L254.04 332.23L253.91 331.96L253.77 331.69L253.64 331.42L253.5 331.15L253.38 330.88L253.25 330.6L253.13 330.32L253 330.05L252.89 329.77L252.77 329.48L252.66 329.2L252.54 328.92L252.44 328.63L252.33 328.34L252.23 328.05L252.13 327.76L252.03 327.47L251.93 327.17L251.84 326.88L251.75 326.58L251.66 326.28L215.02 198.03L215.02 198.02L215.01 198.01L215.01 197.99L215.01 197.98L215 197.97L215 197.96L214.99 197.95L214.99 197.94L214.98 197.93L214.98 197.92L214.97 197.9L214.97 197.89L214.96 197.88L214.95 197.87L214.95 197.86L214.94 197.85L214.93 197.84L214.93 197.83L214.92 197.82L214.91 197.81L214.91 197.8L214.9 197.79L214.89 197.78L214.88 197.77L214.88 197.76L214.87 197.76L214.86 197.75L214.85 197.74L214.84 197.73L214.83 197.72L214.83 197.71L214.82 197.7L214.81 197.7L214.8 197.69L214.79 197.68L214.78 197.67L214.77 197.67L214.76 197.66L214.75 197.65L214.74 197.64L185.97 178.47L185.63 178.23L185.31 177.99L185 177.73L184.7 177.46L184.41 177.18L184.14 176.9L183.88 176.6L183.63 176.29L183.39 175.98L183.17 175.66L182.97 175.33L182.77 174.99L182.59 174.65L182.43 174.3L182.27 173.95L182.13 173.59L182.01 173.23L181.9 172.86L181.8 172.49L181.72 172.12L181.65 171.74L181.6 171.36L181.56 170.98L181.53 170.59L181.52 170.21L181.53 169.82L181.55 169.44L181.58 169.05L181.63 168.67L181.7 168.29L181.78 167.9L181.87 167.53L181.99 167.15L182.11 166.77L182.25 166.4L182.41 166.04L182.59 165.67L182.78 165.32L182.98 164.96L183.2 164.62L183.44 164.28L183.68 163.95L183.94 163.64L184.21 163.34L184.49 163.05L184.78 162.78L185.07 162.52L185.38 162.27L185.69 162.04L186.01 161.81L186.34 161.61L186.68 161.41L187.02 161.23L187.37 161.07L187.72 160.91L188.08 160.77L188.44 160.65L188.81 160.54L189.18 160.44L189.55 160.36L189.93 160.29L190.31 160.24L190.69 160.2L191.08 160.17L191.46 160.16L191.85 160.17L192.23 160.19ZM274.33 394L273.11 394.37L271.94 394.86L270.85 395.47L269.83 396.2L268.9 397.03L268.07 397.96L267.34 398.98L266.73 400.07L266.23 401.24L265.87 402.46L265.65 403.74L265.57 405.07L265.65 406.39L265.87 407.67L266.23 408.9L266.73 410.06L267.34 411.16L268.07 412.17L268.9 413.1L269.83 413.93L270.85 414.66L271.94 415.27L273.11 415.77L274.33 416.13L275.61 416.36L276.93 416.43L278.26 416.36L279.54 416.13L280.76 415.77L281.93 415.27L283.02 414.66L284.04 413.93L284.97 413.1L285.8 412.17L286.53 411.16L287.14 410.06L287.64 408.9L288 407.67L288.22 406.39L288.3 405.07L288.22 403.74L288 402.46L287.64 401.24L287.14 400.07L286.53 398.98L285.8 397.96L284.97 397.03L284.04 396.2L283.02 395.47L281.93 394.86L280.76 394.37L279.54 394L278.26 393.78L276.94 393.7L275.61 393.78L274.33 394ZM423.82 394L422.59 394.37L421.43 394.86L420.33 395.47L419.32 396.2L418.39 397.03L417.56 397.96L416.83 398.98L416.21 400.07L415.72 401.24L415.36 402.46L415.13 403.74L415.06 405.07L415.13 406.39L415.36 407.67L415.72 408.9L416.21 410.06L416.83 411.16L417.56 412.17L418.39 413.1L419.32 413.93L420.33 414.66L421.43 415.27L422.59 415.77L423.82 416.13L425.1 416.36L426.42 416.43L427.75 416.36L429.02 416.13L430.25 415.77L431.42 415.27L432.51 414.66L433.53 413.93L434.45 413.1L435.29 412.17L436.02 411.16L436.63 410.06L437.12 408.9L437.49 407.67L437.71 406.39L437.79 405.07L437.71 403.74L437.49 402.46L437.12 401.24L436.63 400.07L436.02 398.98L435.29 397.96L434.45 397.03L433.53 396.2L432.51 395.47L431.42 394.86L430.25 394.37L429.02 394L427.75 393.78L426.42 393.7L425.1 393.78L423.82 394ZM270.87 320.79L270.98 321.12L271.1 321.45L271.24 321.78L271.4 322.1L271.58 322.41L271.77 322.72L271.98 323.02L272.21 323.32L272.46 323.61L272.73 323.9L273.01 324.19L273.32 324.46L273.64 324.74L273.98 325L274.33 325.27L274.71 325.52L275.1 325.78L275.51 326.02L275.93 326.27L276.38 326.5L276.84 326.74L277.33 326.96L277.83 327.19L278.34 327.4L278.88 327.61L279.43 327.82L280 328.02L280.59 328.22L281.2 328.41L281.82 328.6L282.47 328.78L283.13 328.96L298.47 327.15L290.08 276.25L258.14 276.25L270.87 320.79ZM318.34 324.81L341.69 322.07L341.69 276.25L310.33 276.25L318.34 324.81ZM361.67 319.72L392.28 316.11L395.89 276.25L361.67 276.25L361.67 319.72ZM412.56 313.73L423.5 312.44L424.3 312.32L425.09 312.15L425.88 311.92L426.68 311.64L427.47 311.31L428.26 310.92L429.05 310.48L429.85 309.99L430.64 309.45L431.43 308.85L432.23 308.2L433.02 307.49L433.81 306.73L434.61 305.92L435.4 305.05L436.19 304.14L436.99 303.16L437.78 302.14L438.57 301.06L439.37 299.93L440.16 298.75L440.96 297.51L441.75 296.22L442.54 294.87L446.27 276.25L415.95 276.25L412.56 313.73ZM450.27 256.27L457.05 222.32L420.98 220.68L417.76 256.27L450.27 256.27ZM397.7 256.27L401 219.77L361.67 217.98L361.67 256.27L397.7 256.27ZM341.69 256.27L341.69 217.08L300.26 215.19L307.03 256.27L341.69 256.27ZM286.78 256.27L279.86 214.26L239.92 212.45L252.44 256.27L286.78 256.27Z" id="b2xqPikCV5"></path></defs><g><g><g><use xlink:href="#eiYvm2L2a" opacity="1" fill="#1081a7" fill-opacity="1"></use><g><use xlink:href="#eiYvm2L2a" opacity="1" fill-opacity="0" stroke="#000000" stroke-width="1" stroke-opacity="0"></use></g></g><g><use xlink:href="#agazYhMr0" opacity="1" fill="#1081a7" fill-opacity="1"></use><g><use xlink:href="#agazYhMr0" opacity="1" fill-opacity="0" stroke="#000000" stroke-width="1" stroke-opacity="0"></use></g></g><g><use xlink:href="#b7lZW1KMPO" opacity="1" fill="#1081a7" fill-opacity="1"></use><g><use xlink:href="#b7lZW1KMPO" opacity="1" fill-opacity="0" stroke="#000000" stroke-width="1" stroke-opacity="0"></use></g></g><g><use xlink:href="#b2xqPikCV5" opacity="1" fill="#1081a7" fill-opacity="1"></use><g><use xlink:href="#b2xqPikCV5" opacity="1" fill-opacity="0" stroke="#000000" stroke-width="1" stroke-opacity="0"></use></g></g></g></g></svg>