<?xml version="1.0" encoding="UTF-8" standalone="no"?>
<!DOCTYPE svg PUBLIC "-//W3C//DTD SVG 1.1//EN" "http://www.w3.org/Graphics/SVG/1.1/DTD/svg11.dtd">
<svg version="1.1" xmlns="http://www.w3.org/2000/svg" xmlns:xlink="http://www.w3.org/1999/xlink" preserveAspectRatio="xMidYMid meet" viewBox="0 0 682 682" width="682" height="682"><defs><path d="M95.75 517.44L96.68 517.81L97.59 518.21L98.48 518.63L99.36 519.07L100.23 519.54L101.08 520.04L101.91 520.56L102.72 521.1L103.52 521.66L104.3 522.25L105.06 522.86L105.8 523.49L106.52 524.14L107.22 524.81L107.9 525.5L108.55 526.21L109.19 526.95L109.8 527.69L110.39 528.46L110.96 529.25L111.5 530.05L112.01 530.87L112.51 531.7L112.97 532.55L113.41 533.42L113.83 534.3L114.21 535.19L114.57 536.1L114.9 537.02L115.2 537.95L115.47 538.9L115.71 539.86L115.92 540.83L116.1 541.81L116.25 542.8L116.37 543.8L116.45 544.81L116.5 545.83L116.52 546.86L116.49 548.16L116.41 549.45L116.28 550.73L116.09 551.99L115.86 553.24L115.57 554.46L115.24 555.67L114.86 556.86L114.43 558.03L113.96 559.18L113.44 560.31L112.88 561.41L112.28 562.49L111.63 563.54L110.95 564.57L110.23 565.56L109.47 566.53L108.67 567.47L107.84 568.38L106.97 569.26L106.07 570.1L105.14 570.91L104.17 571.69L103.18 572.43L102.15 573.13L101.1 573.8L100.02 574.42L98.91 575.01L97.78 575.56L96.62 576.06L95.44 576.52L94.24 576.93L93.02 577.31L91.78 577.63L90.51 577.91L89.24 578.14L87.94 578.32L86.63 578.45L85.3 578.53L83.96 578.55L82.62 578.53L81.3 578.45L79.99 578.32L78.69 578.14L77.41 577.91L76.15 577.63L74.91 577.31L73.68 576.93L72.48 576.52L71.3 576.06L70.15 575.56L69.02 575.01L67.91 574.42L66.83 573.8L65.77 573.13L64.75 572.43L63.75 571.69L62.79 570.91L61.85 570.1L60.95 569.26L60.09 568.38L59.25 567.47L58.46 566.53L57.7 565.56L56.98 564.57L56.29 563.54L55.65 562.49L55.05 561.41L54.49 560.31L53.97 559.18L53.5 558.03L53.07 556.86L52.69 555.67L52.36 554.46L52.07 553.24L51.83 551.99L51.65 550.73L51.52 549.45L51.43 548.16L51.41 546.86L51.42 545.83L51.47 544.81L51.56 543.8L51.67 542.8L51.82 541.81L52 540.83L52.21 539.86L52.45 538.9L52.73 537.95L53.03 537.02L53.36 536.1L53.71 535.19L54.1 534.3L54.51 533.42L54.95 532.55L55.42 531.7L55.91 530.87L56.43 530.05L56.97 529.25L57.53 528.46L58.12 527.69L58.74 526.95L59.37 526.21L60.03 525.5L60.71 524.81L61.41 524.14L62.13 523.49L62.87 522.86L63.63 522.25L64.4 521.66L65.2 521.1L66.02 520.56L66.85 520.04L67.7 519.54L68.56 519.07L69.44 518.63L70.34 518.21L71.25 517.81L72.17 517.44L73.11 517.1L73.11 377.8L94.81 377.8L94.81 517.1L95.75 517.44ZM81.29 536.61L80.04 537L78.86 537.53L77.76 538.18L76.76 538.96L75.85 539.84L75.06 540.82L74.38 541.89L73.84 543.04L73.44 544.26L73.2 545.53L73.11 546.86L73.2 548.18L73.44 549.46L73.84 550.67L74.38 551.82L75.06 552.89L75.85 553.87L76.76 554.75L77.76 555.53L78.86 556.18L80.04 556.71L81.29 557.1L82.6 557.34L83.96 557.42L85.32 557.34L86.63 557.1L87.88 556.71L89.06 556.18L90.16 555.53L91.17 554.75L92.07 553.87L92.87 552.89L93.54 551.82L94.08 550.67L94.48 549.46L94.73 548.18L94.81 546.86L94.73 545.53L94.48 544.26L94.08 543.04L93.54 541.89L92.87 540.82L92.07 539.84L91.17 538.96L90.16 538.18L89.06 537.53L87.88 537L86.63 536.61L85.32 536.37L83.96 536.29L82.6 536.37L81.29 536.61Z" id="dlPKlk5AI"></path><path d="M151.74 377.91L153.05 378.04L154.35 378.22L155.63 378.45L156.89 378.73L158.13 379.05L159.35 379.42L160.55 379.84L161.73 380.3L162.89 380.8L164.02 381.35L165.13 381.93L166.21 382.56L167.26 383.22L168.29 383.93L169.28 384.67L170.25 385.44L171.18 386.25L172.08 387.1L172.95 387.98L173.78 388.88L174.58 389.82L175.34 390.79L176.06 391.79L176.74 392.82L177.39 393.87L177.99 394.95L178.55 396.05L179.07 397.18L179.54 398.32L179.97 399.49L180.35 400.68L180.68 401.89L180.97 403.12L181.2 404.37L181.39 405.63L181.52 406.91L181.6 408.2L181.63 409.5L181.61 410.53L181.56 411.55L181.48 412.56L181.36 413.56L181.21 414.55L181.03 415.53L180.82 416.5L180.58 417.46L180.31 418.4L180.01 419.34L179.68 420.26L179.32 421.17L178.94 422.06L178.52 422.94L178.08 423.81L177.62 424.66L177.13 425.49L176.61 426.31L176.07 427.11L175.5 427.9L174.91 428.66L174.3 429.41L173.66 430.14L173.01 430.85L172.33 431.54L171.63 432.22L170.91 432.87L170.17 433.5L169.41 434.11L168.63 434.69L167.83 435.26L167.02 435.8L166.19 436.32L165.34 436.81L164.47 437.28L163.59 437.73L162.7 438.15L161.79 438.54L160.86 438.91L159.92 439.25L159.92 578.55L138.22 578.55L138.22 439.25L137.28 438.91L136.36 438.54L135.45 438.15L134.55 437.73L133.67 437.28L132.81 436.81L131.96 436.32L131.13 435.8L130.31 435.26L129.51 434.69L128.74 434.11L127.98 433.5L127.24 432.87L126.52 432.22L125.82 431.54L125.14 430.85L124.48 430.14L123.85 429.41L123.23 428.66L122.64 427.9L122.08 427.11L121.54 426.31L121.02 425.49L120.53 424.66L120.06 423.81L119.62 422.94L119.21 422.06L118.82 421.17L118.47 420.26L118.14 419.34L117.84 418.4L117.57 417.46L117.32 416.5L117.11 415.53L116.93 414.55L116.79 413.56L116.67 412.56L116.59 411.55L116.53 410.53L116.52 409.5L116.54 408.2L116.63 406.91L116.76 405.63L116.94 404.37L117.18 403.12L117.47 401.89L117.8 400.68L118.18 399.49L118.61 398.32L119.08 397.18L119.6 396.05L120.16 394.95L120.76 393.87L121.4 392.82L122.09 391.79L122.81 390.79L123.57 389.82L124.36 388.88L125.2 387.98L126.06 387.1L126.97 386.25L127.9 385.44L128.86 384.67L129.86 383.93L130.88 383.22L131.94 382.56L133.02 381.93L134.13 381.35L135.26 380.8L136.41 380.3L137.59 379.84L138.79 379.42L140.02 379.05L141.26 378.73L142.52 378.45L143.8 378.22L145.1 378.04L146.41 377.91L147.73 377.83L149.07 377.8L150.41 377.83L151.74 377.91ZM146.4 399.26L145.15 399.65L143.97 400.17L142.87 400.83L141.87 401.6L140.96 402.48L140.17 403.47L139.49 404.53L138.95 405.68L138.55 406.9L138.31 408.18L138.22 409.5L138.31 410.83L138.55 412.1L138.95 413.32L139.49 414.47L140.17 415.54L140.96 416.52L141.87 417.4L142.87 418.17L143.97 418.83L145.15 419.35L146.4 419.74L147.71 419.98L149.07 420.07L150.43 419.98L151.74 419.74L152.99 419.35L154.17 418.83L155.27 418.17L156.28 417.4L157.19 416.52L157.98 415.54L158.65 414.47L159.19 413.32L159.59 412.1L159.84 410.83L159.92 409.5L159.84 408.18L159.59 406.9L159.19 405.68L158.65 404.53L157.98 403.47L157.19 402.48L156.28 401.6L155.27 400.83L154.17 400.17L152.99 399.65L151.74 399.26L150.43 399.02L149.07 398.93L147.71 399.02L146.4 399.26Z" id="a1F1GPvngL"></path><path d="M573.23 517.44L574.16 517.81L575.07 518.21L575.96 518.63L576.84 519.07L577.71 519.54L578.56 520.04L579.39 520.56L580.2 521.1L581 521.66L581.78 522.25L582.54 522.86L583.28 523.49L584 524.14L584.7 524.81L585.37 525.5L586.03 526.21L586.67 526.95L587.28 527.69L587.87 528.46L588.43 529.25L588.98 530.05L589.49 530.87L589.98 531.7L590.45 532.55L590.89 533.42L591.3 534.3L591.69 535.19L592.05 536.1L592.38 537.02L592.68 537.95L592.95 538.9L593.19 539.86L593.4 540.83L593.58 541.81L593.73 542.8L593.84 543.8L593.93 544.81L593.98 545.83L594 546.86L593.97 548.16L593.89 549.45L593.75 550.73L593.57 551.99L593.33 553.24L593.05 554.46L592.71 555.67L592.33 556.86L591.91 558.03L591.43 559.18L590.92 560.31L590.36 561.41L589.75 562.49L589.11 563.54L588.43 564.57L587.71 565.56L586.95 566.53L586.15 567.47L585.32 568.38L584.45 569.26L583.55 570.1L582.61 570.91L581.65 571.69L580.65 572.43L579.63 573.13L578.58 573.8L577.49 574.42L576.39 575.01L575.26 575.56L574.1 576.06L572.92 576.52L571.72 576.93L570.5 577.31L569.25 577.63L567.99 577.91L566.71 578.14L565.42 578.32L564.11 578.45L562.78 578.53L561.44 578.55L560.1 578.53L558.77 578.45L557.46 578.32L556.17 578.14L554.89 577.91L553.63 577.63L552.38 577.31L551.16 576.93L549.96 576.52L548.78 576.06L547.63 575.56L546.49 575.01L545.39 574.42L544.31 573.8L543.25 573.13L542.23 572.43L541.23 571.69L540.27 570.91L539.33 570.1L538.43 569.26L537.56 568.38L536.73 567.47L535.94 566.53L535.18 565.56L534.45 564.57L533.77 563.54L533.13 562.49L532.52 561.41L531.96 560.31L531.45 559.18L530.98 558.03L530.55 556.86L530.17 555.67L529.83 554.46L529.55 553.24L529.31 551.99L529.13 550.73L528.99 549.45L528.91 548.16L528.89 546.86L528.9 545.83L528.95 544.81L529.04 543.8L529.15 542.8L529.3 541.81L529.48 540.83L529.69 539.86L529.93 538.9L530.2 537.95L530.5 537.02L530.83 536.1L531.19 535.19L531.58 534.3L531.99 533.42L532.43 532.55L532.9 531.7L533.39 530.87L533.9 530.05L534.45 529.25L535.01 528.46L535.6 527.69L536.21 526.95L536.85 526.21L537.51 525.5L538.18 524.81L538.88 524.14L539.6 523.49L540.34 522.86L541.1 522.25L541.88 521.66L542.68 521.1L543.49 520.56L544.33 520.04L545.17 519.54L546.04 519.07L546.92 518.63L547.82 518.21L548.73 517.81L549.65 517.44L550.59 517.1L550.59 377.8L572.29 377.8L572.29 517.1L573.23 517.44ZM558.77 536.61L557.52 537L556.34 537.53L555.24 538.18L554.23 538.96L553.33 539.84L552.53 540.82L551.86 541.89L551.32 543.04L550.92 544.26L550.67 545.53L550.59 546.86L550.67 548.18L550.92 549.46L551.32 550.67L551.86 551.82L552.53 552.89L553.33 553.87L554.23 554.75L555.24 555.53L556.34 556.18L557.52 556.71L558.77 557.1L560.08 557.34L561.44 557.42L562.8 557.34L564.11 557.1L565.36 556.71L566.54 556.18L567.64 555.53L568.65 554.75L569.55 553.87L570.35 552.89L571.02 551.82L571.56 550.67L571.96 549.46L572.21 548.18L572.29 546.86L572.21 545.53L571.96 544.26L571.56 543.04L571.02 541.89L570.35 540.82L569.55 539.84L568.65 538.96L567.64 538.18L566.54 537.53L565.36 537L564.11 536.61L562.8 536.37L561.44 536.29L560.08 536.37L558.77 536.61Z" id="a7epkgvlAM"></path><path d="M629.22 377.91L630.53 378.04L631.82 378.22L633.1 378.45L634.36 378.73L635.61 379.05L636.83 379.42L638.03 379.84L639.21 380.3L640.37 380.8L641.5 381.35L642.61 381.93L643.69 382.56L644.74 383.22L645.76 383.93L646.76 384.67L647.73 385.44L648.66 386.25L649.56 387.1L650.43 387.98L651.26 388.88L652.06 389.82L652.82 390.79L653.54 391.79L654.22 392.82L654.86 393.87L655.47 394.95L656.03 396.05L656.54 397.18L657.02 398.32L657.44 399.49L657.82 400.68L658.16 401.89L658.44 403.12L658.68 404.37L658.86 405.63L659 406.91L659.08 408.2L659.11 409.5L659.09 410.53L659.04 411.55L658.96 412.56L658.84 413.56L658.69 414.55L658.51 415.53L658.3 416.5L658.06 417.46L657.79 418.4L657.49 419.34L657.16 420.26L656.8 421.17L656.41 422.06L656 422.94L655.56 423.81L655.1 424.66L654.6 425.49L654.09 426.31L653.55 427.11L652.98 427.9L652.39 428.66L651.78 429.41L651.14 430.14L650.49 430.85L649.81 431.54L649.11 432.22L648.39 432.87L647.65 433.5L646.89 434.11L646.11 434.69L645.31 435.26L644.5 435.8L643.67 436.32L642.82 436.81L641.95 437.28L641.07 437.73L640.18 438.15L639.27 438.54L638.34 438.91L637.4 439.25L637.4 578.55L615.7 578.55L615.7 439.25L614.76 438.91L613.84 438.54L612.93 438.15L612.03 437.73L611.15 437.28L610.28 436.81L609.44 436.32L608.6 435.8L607.79 435.26L606.99 434.69L606.21 434.11L605.46 433.5L604.72 432.87L604 432.22L603.3 431.54L602.62 430.85L601.96 430.14L601.32 429.41L600.71 428.66L600.12 427.9L599.56 427.11L599.02 426.31L598.5 425.49L598.01 424.66L597.54 423.81L597.1 422.94L596.69 422.06L596.3 421.17L595.94 420.26L595.62 419.34L595.31 418.4L595.04 417.46L594.8 416.5L594.59 415.53L594.41 414.55L594.26 413.56L594.15 412.56L594.06 411.55L594.01 410.53L594 409.5L594.02 408.2L594.1 406.91L594.24 405.63L594.42 404.37L594.66 403.12L594.94 401.89L595.28 400.68L595.66 399.49L596.09 398.32L596.56 397.18L597.08 396.05L597.64 394.95L598.24 393.87L598.88 392.82L599.56 391.79L600.29 390.79L601.05 389.82L601.84 388.88L602.68 387.98L603.54 387.1L604.44 386.25L605.38 385.44L606.34 384.67L607.34 383.93L608.36 383.22L609.42 382.56L610.5 381.93L611.6 381.35L612.74 380.8L613.89 380.3L615.07 379.84L616.27 379.42L617.5 379.05L618.74 378.73L620 378.45L621.28 378.22L622.57 378.04L623.89 377.91L625.21 377.83L626.55 377.8L627.89 377.83L629.22 377.91ZM623.88 399.26L622.63 399.65L621.45 400.17L620.35 400.83L619.35 401.6L618.44 402.48L617.64 403.47L616.97 404.53L616.43 405.68L616.03 406.9L615.78 408.18L615.7 409.5L615.78 410.83L616.03 412.1L616.43 413.32L616.97 414.47L617.64 415.54L618.44 416.52L619.35 417.4L620.35 418.17L621.45 418.83L622.63 419.35L623.88 419.74L625.19 419.98L626.55 420.07L627.91 419.98L629.22 419.74L630.47 419.35L631.65 418.83L632.75 418.17L633.76 417.4L634.66 416.52L635.46 415.54L636.13 414.47L636.67 413.32L637.07 412.1L637.32 410.83L637.4 409.5L637.32 408.18L637.07 406.9L636.67 405.68L636.13 404.53L635.46 403.47L634.66 402.48L633.76 401.6L632.75 400.83L631.65 400.17L630.47 399.65L629.22 399.26L627.91 399.02L626.55 398.93L625.19 399.02L623.88 399.26Z" id="a5UpNeft"></path><path d="M478.6 346.34L479.9 346.52L481.18 346.75L482.44 347.03L483.68 347.35L484.9 347.72L486.11 348.14L487.29 348.6L488.44 349.1L489.57 349.65L490.68 350.24L491.76 350.86L492.81 351.53L493.84 352.23L494.84 352.97L495.8 353.75L496.73 354.56L497.63 355.4L498.5 356.28L499.33 357.19L500.13 358.13L500.89 359.1L501.61 360.09L502.3 361.12L502.94 362.17L503.54 363.25L504.1 364.35L504.62 365.48L505.09 366.63L505.52 367.8L505.9 368.99L506.23 370.2L506.52 371.42L506.75 372.67L506.94 373.93L507.07 375.21L507.15 376.5L507.18 377.8L507.18 515.16L507.17 516.35L507.14 517.54L507.09 518.74L507.02 519.92L506.93 521.11L506.82 522.3L506.69 523.48L506.54 524.66L506.37 525.84L506.19 527.02L505.98 528.19L505.75 529.36L505.51 530.52L505.24 531.68L504.96 532.84L504.66 533.99L504.33 535.14L504 536.28L503.64 537.42L503.26 538.55L502.86 539.67L502.45 540.79L502.02 541.9L501.57 543.01L501.1 544.1L500.62 545.19L500.11 546.28L499.59 547.35L499.05 548.42L498.5 549.48L497.92 550.53L497.33 551.57L496.72 552.6L496.1 553.62L495.46 554.63L494.8 555.63L494.12 556.63L493.43 557.61L492.72 558.58L491.99 559.54L474.63 582.07L474.63 599.69L496.33 599.69L496.33 663.08L257.59 663.08L257.59 599.69L279.29 599.69L279.29 580.98L243.45 509.2L243.1 508.61L242.76 508.01L242.42 507.4L242.09 506.79L241.77 506.18L241.45 505.56L241.14 504.93L240.83 504.31L240.53 503.67L240.23 503.04L239.94 502.39L239.66 501.75L239.38 501.1L239.11 500.45L238.85 499.79L238.59 499.13L238.34 498.46L238.09 497.79L237.85 497.12L237.62 496.44L237.39 495.76L237.17 495.08L236.96 494.39L236.75 493.7L236.55 493.01L236.36 492.31L236.17 491.61L235.99 490.91L235.82 490.21L235.65 489.5L235.49 488.79L235.34 488.07L235.19 487.36L235.05 486.64L234.92 485.92L234.8 485.2L234.68 484.47L234.57 483.75L234.46 483.02L234.37 482.29L226.86 423.83L226.79 423.29L226.71 422.75L226.62 422.21L226.53 421.68L226.43 421.14L226.33 420.61L226.22 420.07L226.1 419.54L225.97 419.01L225.84 418.48L225.71 417.95L225.56 417.43L225.42 416.9L225.26 416.38L225.1 415.86L224.93 415.34L224.76 414.82L224.58 414.31L224.39 413.79L224.2 413.28L224 412.77L223.8 412.26L223.59 411.76L223.37 411.26L223.15 410.76L222.92 410.26L222.69 409.77L222.45 409.27L222.2 408.78L221.95 408.3L221.7 407.81L221.43 407.33L221.17 406.86L220.89 406.38L220.61 405.91L220.33 405.44L220.04 404.98L219.74 404.52L219.44 404.06L219.13 403.6L207.97 387.29L207.74 386.96L207.52 386.62L207.31 386.29L207.1 385.95L206.9 385.6L206.7 385.26L206.51 384.91L206.32 384.56L206.14 384.21L205.97 383.85L205.8 383.5L205.63 383.14L205.47 382.78L205.32 382.41L205.17 382.05L205.03 381.68L204.89 381.31L204.76 380.94L204.64 380.57L204.52 380.2L204.41 379.82L204.3 379.44L204.19 379.06L204.1 378.68L204.01 378.3L203.92 377.92L203.84 377.53L203.77 377.15L203.7 376.76L203.64 376.37L203.58 375.98L203.53 375.59L203.49 375.2L203.45 374.81L203.42 374.42L203.39 374.02L203.37 373.63L203.35 373.23L203.35 372.83L203.34 372.44L203.37 371.33L203.43 370.24L203.55 369.16L203.7 368.1L203.9 367.05L204.14 366.01L204.43 364.99L204.75 363.98L205.11 362.99L205.51 362.02L205.95 361.07L206.42 360.14L206.93 359.23L207.47 358.34L208.05 357.47L208.66 356.63L209.3 355.81L209.98 355.02L210.68 354.25L211.41 353.51L212.17 352.79L212.96 352.11L213.78 351.45L214.62 350.83L215.49 350.23L216.38 349.67L217.29 349.14L218.22 348.65L219.18 348.19L220.16 347.76L221.15 347.37L222.17 347.02L223.2 346.71L224.25 346.43L225.32 346.2L226.4 346L227.49 345.85L228.6 345.74L229.72 345.67L230.85 345.65L233.33 345.69L235.8 345.82L238.24 346.03L240.67 346.33L243.07 346.7L245.44 347.16L247.79 347.69L250.11 348.3L252.41 348.98L254.66 349.74L256.89 350.58L259.08 351.48L261.24 352.46L263.35 353.5L265.43 354.61L267.46 355.79L269.46 357.03L271.4 358.33L273.3 359.7L275.15 361.13L276.96 362.62L278.71 364.16L280.4 365.76L282.04 367.42L283.63 369.13L285.15 370.9L286.62 372.71L288.02 374.58L289.36 376.5L290.64 378.46L291.85 380.47L292.99 382.52L294.06 384.62L295.05 386.75L295.98 388.93L296.83 391.15L297.6 393.41L298.29 395.7L298.9 398.03L299.44 400.39L308.54 444.71L308.7 444.38L308.86 444.06L309.01 443.73L309.16 443.4L309.31 443.07L309.45 442.73L309.59 442.4L309.72 442.06L309.85 441.72L309.98 441.39L310.1 441.05L310.22 440.7L310.33 440.36L310.44 440.02L310.55 439.67L310.65 439.32L310.75 438.97L310.84 438.63L310.93 438.28L311.02 437.92L311.1 437.57L311.18 437.22L311.25 436.87L311.32 436.51L311.38 436.16L311.45 435.8L311.5 435.44L311.56 435.09L311.6 434.73L311.65 434.37L311.69 434.01L311.72 433.65L311.76 433.29L311.78 432.93L311.81 432.57L311.83 432.21L311.84 431.85L311.85 431.49L311.86 431.13L311.86 430.77L311.86 236.01L308.5 235.03L305.18 233.96L301.91 232.8L298.68 231.54L295.51 230.21L292.39 228.78L289.32 227.27L286.3 225.68L283.34 224.01L280.43 222.26L277.59 220.44L274.8 218.54L272.07 216.56L269.41 214.51L266.81 212.39L264.27 210.2L261.8 207.95L259.4 205.63L257.07 203.24L254.8 200.8L252.61 198.29L250.5 195.72L248.45 193.1L246.48 190.42L244.59 187.69L242.78 184.9L241.05 182.07L239.4 179.18L237.83 176.25L236.35 173.27L234.95 170.25L233.64 167.18L232.42 164.07L231.28 160.93L230.24 157.75L229.29 154.53L228.44 151.28L227.68 147.99L227.01 144.68L226.45 141.33L180.55 165.91L182.55 167.37L184.52 168.88L186.45 170.43L188.34 172.02L190.19 173.66L192.01 175.33L193.78 177.04L195.51 178.8L197.21 180.59L198.86 182.41L200.47 184.28L202.03 186.18L203.55 188.11L205.03 190.08L206.45 192.08L207.84 194.12L209.17 196.19L210.46 198.29L211.7 200.42L212.89 202.58L214.03 204.77L215.11 206.99L216.15 209.24L217.13 211.51L218.06 213.81L218.93 216.14L219.75 218.49L220.51 220.86L221.22 223.26L221.87 225.69L222.46 228.13L222.99 230.6L223.47 233.08L223.88 235.59L224.23 238.12L224.52 240.66L224.74 243.22L224.9 245.8L225 248.4L225.04 251.01L224.94 255.36L224.68 259.67L224.23 263.92L223.61 268.13L222.83 272.28L221.88 276.37L220.76 280.41L219.49 284.37L218.07 288.27L216.49 292.1L214.77 295.85L212.9 299.53L210.9 303.12L208.75 306.63L206.48 310.05L204.07 313.37L201.54 316.6L198.88 319.74L196.11 322.77L193.22 325.69L190.21 328.5L187.1 331.21L183.88 333.79L180.57 336.26L177.15 338.6L173.64 340.82L170.04 342.91L166.35 344.86L162.57 346.68L158.72 348.36L154.79 349.89L150.78 351.28L146.71 352.51L142.56 353.6L138.36 354.52L134.1 355.29L129.78 355.89L125.4 356.32L120.98 356.58L116.52 356.67L112.05 356.58L107.63 356.32L103.26 355.89L98.94 355.29L94.68 354.52L90.47 353.6L86.33 352.51L82.25 351.28L78.25 349.89L74.32 348.36L70.46 346.68L66.69 344.86L63 342.91L59.4 340.82L55.89 338.6L52.47 336.26L49.15 333.79L45.93 331.21L42.82 328.5L39.82 325.69L36.93 322.77L34.15 319.74L31.5 316.6L28.97 313.37L26.56 310.05L24.28 306.63L22.14 303.12L20.13 299.53L18.26 295.85L16.54 292.1L14.97 288.27L13.54 284.37L12.27 280.41L11.16 276.37L10.21 272.28L9.42 268.13L8.81 263.92L8.36 259.67L8.09 255.36L8 251.01L8.09 246.66L8.36 242.36L8.81 238.1L9.42 233.9L10.21 229.75L11.16 225.65L12.27 221.62L13.54 217.65L14.97 213.75L16.54 209.93L18.26 206.17L20.13 202.5L22.14 198.91L24.28 195.4L26.56 191.98L28.97 188.65L31.5 185.42L34.15 182.29L36.93 179.26L39.82 176.34L42.82 173.52L45.93 170.82L49.15 168.23L52.47 165.77L55.89 163.42L59.4 161.21L63 159.12L66.69 157.17L70.46 155.35L74.32 153.67L78.25 152.14L82.25 150.75L86.33 149.51L90.47 148.43L94.68 147.51L98.94 146.74L103.26 146.14L107.63 145.71L112.05 145.44L116.52 145.36L117.63 145.36L118.75 145.38L119.86 145.4L120.96 145.44L122.07 145.49L123.17 145.55L124.27 145.62L125.36 145.7L126.45 145.8L127.54 145.9L128.63 146.01L129.71 146.13L130.79 146.27L131.87 146.41L132.94 146.56L134.01 146.73L135.08 146.9L136.14 147.09L137.2 147.28L138.25 147.49L139.3 147.7L140.35 147.93L141.4 148.16L142.44 148.4L143.47 148.66L144.5 148.92L145.53 149.19L146.56 149.48L147.58 149.77L148.59 150.07L149.61 150.38L150.61 150.7L151.62 151.03L152.61 151.37L153.61 151.72L154.6 152.08L155.59 152.44L156.57 152.82L157.54 153.2L158.51 153.6L225.37 117.8L225.72 113.24L226.25 108.73L226.95 104.28L227.83 99.88L228.87 95.54L230.08 91.27L231.45 87.06L232.97 82.92L234.65 78.86L236.48 74.87L238.46 70.96L240.59 67.14L242.85 63.41L245.25 59.76L247.78 56.21L250.45 52.76L253.24 49.41L256.15 46.16L259.19 43.02L262.34 39.99L265.6 37.08L268.97 34.28L272.45 31.61L276.03 29.06L279.71 26.63L283.48 24.34L287.35 22.19L291.3 20.17L295.34 18.3L299.46 16.57L303.66 14.98L307.94 13.55L312.28 12.28L316.7 11.17L321.17 10.21L325.71 9.42L330.31 8.81L334.96 8.36L339.66 8.09L344.41 8L349.15 8.09L353.85 8.36L358.5 8.81L363.1 9.42L367.64 10.21L372.11 11.17L376.53 12.28L380.87 13.55L385.15 14.98L389.35 16.57L393.47 18.3L397.51 20.17L401.46 22.19L405.33 24.34L409.1 26.63L412.78 29.05L416.36 31.6L419.84 34.28L423.21 37.08L426.47 39.99L429.62 43.02L432.66 46.16L435.57 49.4L438.36 52.76L441.03 56.21L443.56 59.76L445.96 63.4L448.22 67.14L450.35 70.96L452.33 74.87L454.16 78.85L455.84 82.92L457.36 87.05L458.73 91.26L459.94 95.53L460.98 99.87L461.86 104.27L462.56 108.72L463.09 113.23L463.44 117.79L530.3 153.6L531.27 153.2L532.24 152.82L533.23 152.44L534.21 152.08L535.2 151.72L536.2 151.37L537.19 151.03L538.2 150.7L539.21 150.38L540.22 150.07L541.23 149.77L542.25 149.48L543.28 149.19L544.31 148.92L545.34 148.66L546.38 148.4L547.42 148.16L548.46 147.93L549.51 147.7L550.56 147.49L551.62 147.28L552.68 147.09L553.74 146.9L554.8 146.73L555.87 146.56L556.95 146.41L558.02 146.27L559.1 146.13L560.19 146.01L561.27 145.9L562.36 145.8L563.45 145.7L564.55 145.62L565.65 145.55L566.75 145.49L567.85 145.44L568.96 145.4L570.07 145.38L571.18 145.36L572.29 145.36L576.76 145.44L581.18 145.71L585.55 146.14L589.87 146.74L594.13 147.51L598.34 148.43L602.48 149.51L606.56 150.75L610.56 152.14L614.49 153.67L618.35 155.35L622.12 157.17L625.81 159.12L629.41 161.21L632.92 163.42L636.34 165.77L639.66 168.23L642.88 170.82L645.99 173.52L648.99 176.34L651.88 179.26L654.66 182.29L657.31 185.42L659.84 188.65L662.25 191.98L664.53 195.4L666.67 198.91L668.68 202.5L670.55 206.17L672.27 209.93L673.84 213.75L675.27 217.65L676.54 221.62L677.65 225.65L678.6 229.75L679.39 233.9L680 238.1L680.45 242.36L680.72 246.66L680.81 251.01L680.72 255.36L680.45 259.67L680 263.92L679.39 268.13L678.6 272.28L677.65 276.37L676.54 280.41L675.27 284.37L673.84 288.27L672.27 292.1L670.55 295.85L668.68 299.53L666.67 303.12L664.53 306.63L662.25 310.05L659.84 313.37L657.31 316.6L654.66 319.74L651.88 322.77L648.99 325.69L645.99 328.5L642.88 331.21L639.66 333.79L636.34 336.26L632.92 338.6L629.41 340.82L625.81 342.91L622.12 344.86L618.35 346.68L614.49 348.36L610.56 349.89L606.56 351.28L602.48 352.51L598.34 353.6L594.13 354.52L589.87 355.29L585.55 355.89L581.18 356.32L576.76 356.58L572.29 356.67L567.83 356.58L563.41 356.32L559.03 355.89L554.71 355.29L550.45 354.52L546.25 353.6L542.1 352.51L538.03 351.28L534.02 349.89L530.09 348.36L526.24 346.68L522.46 344.86L518.77 342.91L515.17 340.82L511.66 338.6L508.24 336.26L504.93 333.79L501.71 331.21L498.6 328.5L495.59 325.69L492.7 322.77L489.93 319.74L487.27 316.6L484.74 313.37L482.33 310.05L480.06 306.63L477.91 303.12L475.91 299.53L474.04 295.85L472.32 292.1L470.74 288.27L469.32 284.37L468.05 280.41L466.93 276.37L465.98 272.28L465.2 268.13L464.58 263.92L464.13 259.67L463.87 255.36L463.77 251.01L463.81 248.4L463.91 245.81L464.07 243.23L464.29 240.66L464.58 238.12L464.93 235.59L465.34 233.09L465.82 230.6L466.35 228.14L466.94 225.69L467.59 223.27L468.3 220.87L469.06 218.49L469.88 216.14L470.75 213.82L471.68 211.52L472.66 209.24L473.7 206.99L474.78 204.78L475.92 202.59L477.11 200.42L478.35 198.29L479.63 196.19L480.97 194.13L482.35 192.09L483.78 190.09L485.26 188.12L486.78 186.18L488.34 184.28L489.95 182.42L491.6 180.59L493.29 178.8L495.02 177.05L496.8 175.34L498.61 173.66L500.46 172.03L502.35 170.44L504.28 168.89L506.25 167.38L508.25 165.92L462.36 141.34L461.8 144.68L461.13 148L460.37 151.28L459.52 154.53L458.57 157.74L457.52 160.93L456.39 164.07L455.17 167.17L453.86 170.24L452.46 173.26L450.97 176.24L449.41 179.17L447.75 182.05L446.02 184.89L444.21 187.67L442.32 190.41L440.35 193.09L438.31 195.71L436.19 198.28L434 200.78L431.74 203.23L429.4 205.61L427 207.93L424.53 210.19L421.99 212.38L419.39 214.5L416.73 216.55L414 218.52L411.22 220.42L408.37 222.25L405.47 224L402.51 225.67L399.49 227.26L396.42 228.77L393.3 230.19L390.13 231.53L386.91 232.78L383.64 233.95L380.32 235.02L376.96 236L376.96 326.92L377.22 326.83L377.47 326.74L377.73 326.66L377.99 326.58L378.25 326.5L378.51 326.42L378.77 326.34L379.03 326.26L379.29 326.19L379.56 326.12L379.82 326.04L380.09 325.98L380.35 325.91L380.62 325.85L380.88 325.78L381.15 325.72L381.42 325.66L381.69 325.61L381.96 325.55L382.23 325.5L382.5 325.45L382.78 325.41L383.05 325.36L383.32 325.32L383.6 325.28L383.87 325.24L384.15 325.2L384.43 325.17L384.71 325.14L384.98 325.11L385.26 325.09L385.54 325.06L385.82 325.04L386.11 325.02L386.39 325.01L386.67 325L386.96 324.99L387.24 324.98L387.53 324.98L387.81 324.97L388.44 324.98L389.06 325L389.68 325.03L390.3 325.07L390.91 325.12L391.52 325.18L392.13 325.26L392.73 325.34L393.33 325.44L393.92 325.55L394.51 325.67L395.1 325.8L395.68 325.94L396.26 326.08L396.83 326.24L397.4 326.41L397.97 326.59L398.53 326.78L399.09 326.98L399.64 327.19L400.18 327.41L400.72 327.64L401.26 327.88L401.79 328.12L402.32 328.38L402.84 328.64L403.35 328.92L403.86 329.2L404.37 329.49L404.87 329.79L405.36 330.1L405.84 330.41L406.33 330.73L406.8 331.07L407.27 331.41L407.73 331.75L408.19 332.11L408.64 332.47L409.08 332.84L409.52 333.22L409.95 332.84L410.39 332.47L410.84 332.11L411.3 331.75L411.76 331.41L412.23 331.07L412.71 330.74L413.19 330.41L413.67 330.1L414.17 329.79L414.66 329.49L415.17 329.2L415.68 328.92L416.19 328.65L416.71 328.38L417.24 328.13L417.77 327.88L418.31 327.64L418.85 327.42L419.39 327.2L419.95 326.99L420.5 326.79L421.06 326.6L421.63 326.42L422.2 326.25L422.77 326.09L423.35 325.94L423.93 325.8L424.52 325.67L425.11 325.55L425.7 325.44L426.3 325.35L426.91 325.26L427.51 325.18L428.12 325.12L428.73 325.07L429.35 325.03L429.97 325L430.59 324.98L431.22 324.97L432.34 324.99L433.45 325.05L434.55 325.14L435.64 325.27L436.72 325.43L437.79 325.63L438.84 325.86L439.88 326.12L440.9 326.42L441.91 326.74L442.91 327.1L443.89 327.49L444.85 327.92L445.8 328.36L446.73 328.84L447.64 329.35L448.53 329.89L449.41 330.45L450.26 331.04L451.09 331.65L451.9 332.29L452.69 332.95L453.46 333.64L454.2 334.35L454.93 335.09L455.62 335.85L456.29 336.62L456.94 337.42L457.56 338.24L458.16 339.08L458.72 339.94L459.26 340.82L459.78 341.71L460.26 342.63L460.71 343.55L461.13 344.5L461.53 345.46L461.89 346.44L462.22 347.43L462.52 348.43L462.8 348.32L463.08 348.21L463.37 348.11L463.65 348.01L463.94 347.91L464.23 347.81L464.52 347.72L464.81 347.62L465.1 347.53L465.39 347.45L465.68 347.36L465.98 347.28L466.27 347.2L466.57 347.12L466.87 347.05L467.17 346.98L467.47 346.91L467.77 346.84L468.07 346.78L468.37 346.72L468.68 346.66L468.98 346.6L469.29 346.55L469.59 346.5L469.9 346.45L470.21 346.41L470.52 346.37L470.83 346.33L471.14 346.29L471.45 346.26L471.77 346.23L472.08 346.21L472.4 346.18L472.71 346.16L473.03 346.15L473.35 346.13L473.67 346.12L473.98 346.11L474.31 346.11L474.63 346.11L475.97 346.13L477.29 346.21L478.6 346.34ZM279.29 641.95L474.63 641.95L474.63 620.82L279.29 620.82L279.29 641.95ZM343.52 219.35L343.08 219.39L342.65 219.45L342.22 219.53L341.8 219.62L341.38 219.73L340.98 219.86L340.58 219.99L340.18 220.15L339.8 220.31L339.42 220.5L339.05 220.69L338.69 220.9L338.34 221.12L338 221.36L337.67 221.6L337.34 221.86L337.03 222.13L336.73 222.41L336.44 222.7L336.17 223.01L335.9 223.32L335.65 223.64L335.41 223.98L335.18 224.32L334.97 224.67L334.77 225.03L334.58 225.4L334.41 225.77L334.25 226.15L334.11 226.54L333.98 226.94L333.87 227.34L333.77 227.75L333.7 228.17L333.63 228.59L333.59 229.02L333.56 229.45L333.55 229.88L333.55 430.78L333.55 431.39L333.54 432L333.52 432.61L333.49 433.22L333.46 433.83L333.42 434.45L333.37 435.05L333.32 435.66L333.25 436.27L333.18 436.88L333.11 437.49L333.02 438.1L332.93 438.7L332.83 439.31L332.73 439.91L332.61 440.51L332.49 441.11L332.37 441.71L332.23 442.31L332.09 442.91L331.94 443.5L331.79 444.1L331.63 444.69L331.46 445.28L331.28 445.87L331.1 446.45L330.91 447.04L330.71 447.62L330.51 448.2L330.3 448.77L330.08 449.35L329.86 449.92L329.63 450.49L329.39 451.06L329.14 451.62L328.89 452.18L328.64 452.74L328.37 453.29L328.1 453.85L327.82 454.39L318.56 472.45L292.1 472.45L278.14 404.55L277.78 402.92L277.35 401.31L276.88 399.73L276.34 398.17L275.76 396.64L275.12 395.14L274.43 393.67L273.69 392.22L272.91 390.8L272.07 389.42L271.19 388.07L270.27 386.75L269.3 385.46L268.29 384.21L267.24 382.99L266.15 381.81L265.01 380.66L263.84 379.56L262.64 378.49L261.39 377.47L260.12 376.48L258.81 375.54L257.46 374.64L256.09 373.78L254.69 372.97L253.26 372.21L251.8 371.49L250.31 370.81L248.8 370.19L247.26 369.62L245.71 369.09L244.13 368.62L242.52 368.2L240.9 367.83L239.27 367.52L237.61 367.26L235.94 367.06L234.25 366.91L232.55 366.82L230.84 366.79L230.6 366.8L230.37 366.81L230.13 366.84L229.9 366.87L229.67 366.91L229.45 366.96L229.23 367.02L229.01 367.08L228.79 367.16L228.58 367.24L228.38 367.33L228.18 367.42L227.98 367.53L227.79 367.64L227.6 367.76L227.41 367.88L227.24 368.01L227.06 368.15L226.9 368.3L226.74 368.45L226.58 368.6L226.43 368.76L226.29 368.93L226.16 369.1L226.03 369.28L225.91 369.46L225.79 369.65L225.68 369.84L225.58 370.04L225.49 370.24L225.41 370.44L225.33 370.65L225.26 370.86L225.2 371.08L225.15 371.3L225.11 371.52L225.08 371.75L225.05 371.97L225.04 372.2L225.04 372.44L225.04 372.52L225.04 372.61L225.04 372.69L225.05 372.77L225.05 372.86L225.06 372.94L225.07 373.02L225.08 373.11L225.09 373.19L225.1 373.27L225.11 373.36L225.13 373.44L225.14 373.52L225.16 373.6L225.18 373.68L225.19 373.76L225.22 373.85L225.24 373.93L225.26 374.01L225.28 374.09L225.31 374.16L225.34 374.24L225.36 374.32L225.39 374.4L225.42 374.48L225.45 374.55L225.49 374.63L225.52 374.71L225.55 374.78L225.59 374.86L225.63 374.93L225.66 375.01L225.7 375.08L225.74 375.16L225.79 375.23L225.83 375.3L225.87 375.37L225.92 375.44L225.96 375.51L226.01 375.58L237.19 391.91L237.64 392.57L238.07 393.23L238.5 393.9L238.93 394.57L239.34 395.25L239.74 395.94L240.14 396.62L240.53 397.32L240.91 398.01L241.28 398.71L241.65 399.42L242 400.13L242.35 400.84L242.69 401.56L243.02 402.28L243.34 403.01L243.65 403.73L243.96 404.47L244.25 405.2L244.54 405.94L244.82 406.68L245.09 407.42L245.35 408.17L245.6 408.92L245.84 409.68L246.07 410.43L246.3 411.19L246.52 411.95L246.72 412.71L246.92 413.48L247.11 414.25L247.29 415.01L247.46 415.79L247.62 416.56L247.77 417.33L247.91 418.11L248.05 418.89L248.17 419.67L248.28 420.45L248.39 421.23L255.9 479.7L255.97 480.22L256.04 480.74L256.12 481.26L256.21 481.78L256.3 482.29L256.39 482.81L256.49 483.32L256.6 483.83L256.71 484.34L256.82 484.85L256.94 485.36L257.07 485.86L257.2 486.37L257.33 486.87L257.47 487.37L257.62 487.87L257.77 488.37L257.93 488.87L258.09 489.36L258.25 489.85L258.42 490.34L258.6 490.83L258.78 491.32L258.97 491.81L259.16 492.29L259.35 492.78L259.56 493.26L259.76 493.74L259.97 494.21L260.19 494.69L260.41 495.16L260.64 495.63L260.87 496.1L261.1 496.57L261.35 497.04L261.59 497.5L261.84 497.97L262.1 498.43L262.36 498.89L262.63 499.34L301 576.12L301 599.69L452.92 599.69L452.92 575.04L474.63 546.86L475.15 546.17L475.65 545.48L476.15 544.78L476.63 544.07L477.1 543.35L477.56 542.63L478.01 541.9L478.44 541.16L478.86 540.42L479.27 539.67L479.67 538.92L480.06 538.15L480.43 537.39L480.79 536.61L481.14 535.83L481.47 535.05L481.79 534.26L482.1 533.47L482.39 532.67L482.68 531.86L482.95 531.06L483.2 530.24L483.44 529.43L483.67 528.61L483.89 527.79L484.09 526.96L484.28 526.13L484.46 525.3L484.62 524.46L484.77 523.63L484.9 522.79L485.02 521.95L485.13 521.1L485.22 520.26L485.3 519.41L485.36 518.56L485.41 517.71L485.45 516.86L485.47 516.01L485.48 515.16L485.48 377.8L485.47 377.37L485.44 376.94L485.4 376.51L485.34 376.09L485.26 375.67L485.16 375.27L485.05 374.86L484.92 374.46L484.78 374.07L484.62 373.69L484.45 373.32L484.27 372.95L484.07 372.59L483.85 372.24L483.62 371.9L483.38 371.56L483.13 371.24L482.86 370.93L482.59 370.63L482.3 370.33L482 370.05L481.69 369.78L481.37 369.52L481.03 369.28L480.69 369.04L480.34 368.82L479.98 368.61L479.61 368.42L479.23 368.24L478.85 368.07L478.46 367.91L478.06 367.78L477.65 367.65L477.23 367.54L476.81 367.45L476.39 367.38L475.95 367.32L475.52 367.27L475.07 367.25L474.63 367.24L474.18 367.25L473.74 367.27L473.3 367.32L472.87 367.38L472.44 367.45L472.02 367.54L471.61 367.65L471.2 367.78L470.8 367.91L470.4 368.07L470.02 368.24L469.64 368.42L469.27 368.61L468.91 368.82L468.56 369.04L468.22 369.28L467.89 369.52L467.57 369.78L467.25 370.05L466.95 370.33L466.67 370.63L466.39 370.93L466.12 371.24L465.87 371.56L465.63 371.9L465.4 372.24L465.19 372.59L464.99 372.95L464.8 373.32L464.63 373.69L464.47 374.07L464.33 374.46L464.2 374.86L464.09 375.27L464 375.67L463.92 376.09L463.85 376.51L463.81 376.94L463.78 377.37L463.77 377.8L463.77 398.93L442.07 398.93L442.07 356.67L442.06 356.24L442.03 355.81L441.99 355.38L441.93 354.96L441.85 354.54L441.76 354.13L441.64 353.73L441.52 353.33L441.38 352.94L441.22 352.56L441.05 352.18L440.86 351.82L440.66 351.46L440.44 351.11L440.22 350.77L439.98 350.43L439.72 350.11L439.46 349.8L439.18 349.49L438.89 349.2L438.59 348.92L438.28 348.65L437.96 348.39L437.63 348.15L437.29 347.91L436.93 347.69L436.57 347.48L436.2 347.29L435.83 347.1L435.44 346.94L435.05 346.78L434.65 346.64L434.24 346.52L433.83 346.41L433.41 346.32L432.98 346.24L432.55 346.18L432.11 346.14L431.67 346.11L431.22 346.11L430.77 346.11L430.33 346.14L429.89 346.18L429.46 346.24L429.03 346.32L428.61 346.41L428.2 346.52L427.79 346.64L427.39 346.78L427 346.94L426.61 347.1L426.23 347.29L425.86 347.48L425.5 347.69L425.15 347.91L424.81 348.15L424.48 348.39L424.16 348.65L423.85 348.92L423.55 349.2L423.26 349.49L422.98 349.8L422.72 350.11L422.46 350.43L422.22 350.77L421.99 351.11L421.78 351.46L421.58 351.82L421.39 352.18L421.22 352.56L421.06 352.94L420.92 353.33L420.79 353.73L420.68 354.13L420.59 354.54L420.51 354.96L420.45 355.38L420.4 355.81L420.38 356.24L420.37 356.67L420.37 398.93L398.66 398.93L398.66 356.67L398.65 356.24L398.63 355.81L398.58 355.38L398.52 354.96L398.44 354.54L398.35 354.13L398.24 353.73L398.11 353.33L397.97 352.94L397.81 352.56L397.64 352.18L397.45 351.82L397.25 351.46L397.04 351.11L396.81 350.77L396.57 350.43L396.32 350.11L396.05 349.8L395.77 349.49L395.48 349.2L395.18 348.92L394.87 348.65L394.55 348.39L394.22 348.15L393.88 347.91L393.53 347.69L393.17 347.48L392.8 347.29L392.42 347.1L392.03 346.94L391.64 346.78L391.24 346.64L390.83 346.52L390.42 346.41L390 346.32L389.57 346.24L389.14 346.18L388.7 346.14L388.26 346.11L387.81 346.11L387.37 346.11L386.92 346.14L386.48 346.18L386.05 346.24L385.63 346.32L385.21 346.41L384.79 346.52L384.38 346.64L383.98 346.78L383.59 346.94L383.2 347.1L382.83 347.29L382.46 347.48L382.1 347.69L381.75 347.91L381.4 348.15L381.07 348.39L380.75 348.65L380.44 348.92L380.14 349.2L379.85 349.49L379.57 349.8L379.31 350.11L379.05 350.43L378.81 350.77L378.59 351.11L378.37 351.46L378.17 351.82L377.99 352.18L377.81 352.56L377.66 352.94L377.51 353.33L377.39 353.73L377.28 354.13L377.18 354.54L377.1 354.96L377.04 355.38L377 355.81L376.97 356.24L376.96 356.67L376.96 398.93L355.26 398.93L355.26 229.88L355.25 229.45L355.22 229.02L355.18 228.59L355.11 228.17L355.04 227.75L354.94 227.34L354.83 226.94L354.7 226.54L354.56 226.15L354.4 225.77L354.23 225.4L354.04 225.03L353.84 224.67L353.63 224.32L353.4 223.98L353.16 223.64L352.91 223.32L352.64 223.01L352.37 222.7L352.08 222.41L351.78 222.13L351.47 221.86L351.14 221.6L350.81 221.36L350.47 221.12L350.12 220.9L349.76 220.69L349.39 220.5L349.01 220.31L348.63 220.15L348.23 219.99L347.83 219.86L347.43 219.73L347.01 219.62L346.59 219.53L346.16 219.45L345.73 219.39L345.29 219.35L344.85 219.32L344.41 219.32L343.96 219.32L343.52 219.35ZM569.22 293.35L567.69 293.44L566.16 293.56L564.65 293.72L563.14 293.91L561.64 294.13L560.15 294.39L558.67 294.68L557.2 295.01L555.74 295.36L554.29 295.75L552.85 296.18L551.42 296.63L550.01 297.11L548.61 297.63L547.22 298.18L545.85 298.75L544.49 299.36L543.15 300L541.82 300.66L540.51 301.36L539.22 302.08L537.94 302.84L536.68 303.62L535.44 304.43L534.22 305.27L533.02 306.13L531.83 307.02L530.67 307.94L529.53 308.89L528.41 309.86L527.31 310.86L526.24 311.88L525.19 312.93L524.16 314L523.15 315.1L522.17 316.22L521.22 317.37L520.29 318.54L521.39 319.33L522.49 320.1L523.61 320.86L524.75 321.6L525.89 322.32L527.05 323.02L528.22 323.71L529.4 324.39L530.59 325.04L531.79 325.68L533.01 326.29L534.23 326.89L535.47 327.48L536.72 328.04L537.97 328.59L539.24 329.11L540.52 329.62L541.81 330.11L543.1 330.57L544.41 331.02L545.73 331.45L547.05 331.86L548.39 332.25L549.73 332.61L551.09 332.96L552.45 333.29L553.82 333.59L555.19 333.87L556.58 334.14L557.97 334.38L559.37 334.6L560.78 334.79L562.2 334.97L563.62 335.12L565.05 335.25L566.48 335.35L567.93 335.43L569.38 335.49L570.83 335.53L572.29 335.54L573.75 335.53L575.21 335.49L576.66 335.43L578.1 335.35L579.54 335.25L580.97 335.12L582.39 334.97L583.8 334.79L585.21 334.6L586.61 334.38L588.01 334.14L589.39 333.87L590.77 333.59L592.14 333.29L593.5 332.96L594.85 332.61L596.2 332.25L597.53 331.86L598.86 331.45L600.17 331.02L601.48 330.57L602.78 330.11L604.07 329.62L605.34 329.11L606.61 328.59L607.87 328.04L609.12 327.48L610.35 326.89L611.58 326.29L612.79 325.68L614 325.04L615.19 324.39L616.37 323.71L617.54 323.02L618.69 322.32L619.84 321.6L620.97 320.86L622.09 320.1L623.2 319.33L624.29 318.54L623.37 317.37L622.41 316.22L621.43 315.1L620.43 314L619.4 312.93L618.35 311.88L617.27 310.86L616.17 309.86L615.05 308.89L613.91 307.94L612.75 307.02L611.57 306.13L610.37 305.27L609.14 304.43L607.9 303.62L606.64 302.84L605.37 302.08L604.07 301.36L602.76 300.66L601.43 300L600.09 299.36L598.73 298.75L597.36 298.18L595.97 297.63L594.57 297.11L593.16 296.63L591.73 296.18L590.3 295.75L588.85 295.36L587.39 295.01L585.91 294.68L584.43 294.39L582.94 294.13L581.44 293.91L579.94 293.72L578.42 293.56L576.9 293.44L575.37 293.35L573.83 293.29L572.29 293.28L570.75 293.29L569.22 293.35ZM113.44 293.35L111.91 293.44L110.39 293.56L108.87 293.72L107.37 293.91L105.87 294.13L104.38 294.39L102.9 294.68L101.42 295.01L99.96 295.36L98.51 295.75L97.08 296.18L95.65 296.63L94.24 297.11L92.84 297.63L91.45 298.18L90.08 298.75L88.72 299.36L87.38 300L86.05 300.66L84.74 301.36L83.44 302.08L82.17 302.84L80.91 303.62L79.67 304.43L78.44 305.27L77.24 306.13L76.06 307.02L74.9 307.94L73.76 308.89L72.64 309.86L71.54 310.86L70.46 311.88L69.41 312.93L68.38 314L67.38 315.1L66.4 316.22L65.44 317.37L64.52 318.54L65.61 319.33L66.72 320.1L67.84 320.86L68.97 321.6L70.12 322.32L71.27 323.02L72.44 323.71L73.62 324.39L74.81 325.04L76.02 325.68L77.23 326.29L78.46 326.89L79.69 327.48L80.94 328.04L82.2 328.59L83.47 329.11L84.74 329.62L86.03 330.11L87.33 330.57L88.64 331.02L89.95 331.45L91.28 331.86L92.61 332.25L93.96 332.61L95.31 332.96L96.67 333.29L98.04 333.59L99.42 333.87L100.8 334.14L102.2 334.38L103.6 334.6L105.01 334.79L106.42 334.97L107.84 335.12L109.27 335.25L110.71 335.35L112.15 335.43L113.6 335.49L115.06 335.53L116.52 335.54L117.98 335.53L119.43 335.49L120.88 335.43L122.33 335.35L123.76 335.25L125.19 335.12L126.61 334.97L128.03 334.79L129.44 334.6L130.84 334.38L132.23 334.14L133.62 333.87L134.99 333.59L136.36 333.29L137.72 332.96L139.08 332.61L140.42 332.25L141.76 331.86L143.08 331.45L144.4 331.02L145.71 330.57L147 330.11L148.29 329.62L149.57 329.11L150.84 328.59L152.09 328.04L153.34 327.48L154.58 326.89L155.8 326.29L157.02 325.68L158.22 325.04L159.41 324.39L160.59 323.71L161.76 323.02L162.92 322.32L164.06 321.6L165.2 320.86L166.32 320.1L167.42 319.33L168.52 318.54L167.59 317.37L166.64 316.22L165.66 315.1L164.65 314L163.62 312.93L162.57 311.88L161.5 310.86L160.4 309.86L159.28 308.89L158.14 307.94L156.98 307.02L155.79 306.13L154.59 305.27L153.37 304.43L152.13 303.62L150.87 302.84L149.59 302.08L148.3 301.36L146.99 300.66L145.66 300L144.32 299.36L142.96 298.75L141.59 298.18L140.2 297.63L138.8 297.11L137.39 296.63L135.96 296.18L134.52 295.75L133.07 295.36L131.61 295.01L130.14 294.68L128.66 294.39L127.17 294.13L125.67 293.91L124.16 293.72L122.65 293.56L121.12 293.44L119.59 293.35L118.06 293.29L116.52 293.28L114.98 293.29L113.44 293.35ZM565.18 166.77L561.69 167.11L558.23 167.6L554.82 168.21L551.46 168.95L548.14 169.81L544.88 170.8L541.68 171.91L538.53 173.14L535.45 174.48L532.43 175.94L529.48 177.5L526.6 179.17L523.79 180.94L521.06 182.82L518.4 184.79L515.83 186.86L513.34 189.02L510.93 191.27L508.62 193.61L506.4 196.04L504.28 198.54L502.25 201.13L500.33 203.79L498.5 206.52L496.79 209.33L495.18 212.2L493.69 215.14L492.31 218.14L491.05 221.21L489.91 224.33L488.9 227.5L488.01 230.73L487.25 234L486.62 237.32L486.12 240.69L485.77 244.09L485.55 247.53L485.48 251.01L485.49 252.51L485.53 254L485.6 255.49L485.69 256.96L485.81 258.43L485.96 259.9L486.13 261.35L486.32 262.8L486.54 264.24L486.79 265.68L487.06 267.1L487.36 268.52L487.68 269.92L488.02 271.32L488.39 272.71L488.78 274.09L489.2 275.46L489.63 276.82L490.09 278.18L490.58 279.52L491.08 280.85L491.61 282.17L492.16 283.48L492.74 284.78L493.33 286.06L493.94 287.34L494.58 288.6L495.24 289.86L495.91 291.1L496.61 292.33L497.33 293.54L498.07 294.74L498.83 295.93L499.6 297.11L500.4 298.27L501.22 299.42L502.05 300.56L502.9 301.68L503.77 302.79L504.66 303.88L505.31 303.11L505.97 302.34L506.64 301.58L507.31 300.83L507.99 300.08L508.68 299.35L509.38 298.62L510.09 297.9L510.8 297.2L511.53 296.5L512.26 295.8L513 295.12L513.74 294.45L514.5 293.78L515.26 293.13L516.03 292.48L516.8 291.84L517.58 291.22L518.37 290.6L519.17 289.99L519.98 289.39L520.79 288.8L521.6 288.22L522.43 287.64L523.26 287.08L524.1 286.53L524.94 285.98L525.79 285.45L526.65 284.93L527.51 284.41L528.38 283.91L529.26 283.41L530.14 282.93L531.03 282.45L531.92 281.99L532.82 281.53L533.72 281.09L534.63 280.65L535.55 280.23L536.47 279.82L535.64 279.08L534.82 278.33L534.01 277.56L533.23 276.78L532.46 275.99L531.7 275.18L530.96 274.35L530.24 273.51L529.54 272.65L528.86 271.79L528.19 270.9L527.54 270.01L526.91 269.1L526.3 268.18L525.71 267.24L525.13 266.3L524.58 265.34L524.05 264.37L523.54 263.38L523.04 262.39L522.57 261.38L522.12 260.37L521.7 259.34L521.29 258.3L520.91 257.25L520.55 256.2L520.21 255.13L519.9 254.05L519.6 252.96L519.34 251.86L519.09 250.76L518.87 249.65L518.68 248.52L518.51 247.39L518.37 246.25L518.25 245.11L518.15 243.95L518.09 242.79L518.05 241.62L518.03 240.45L518.08 238.27L518.21 236.12L518.44 233.99L518.74 231.89L519.14 229.81L519.61 227.77L520.17 225.75L520.8 223.77L521.52 221.82L522.3 219.9L523.17 218.03L524.1 216.19L525.1 214.39L526.17 212.64L527.31 210.93L528.52 209.27L529.78 207.65L531.11 206.09L532.5 204.57L533.94 203.11L535.44 201.7L537 200.35L538.61 199.06L540.27 197.83L541.98 196.65L543.73 195.54L545.53 194.5L547.38 193.52L549.27 192.62L551.19 191.78L553.16 191.01L555.16 190.32L557.2 189.7L559.27 189.16L561.37 188.69L563.5 188.31L565.66 188.01L567.85 187.79L570.06 187.66L572.29 187.62L574.53 187.66L576.74 187.79L578.92 188.01L581.08 188.31L583.21 188.69L585.32 189.16L587.39 189.7L589.42 190.32L591.43 191.01L593.39 191.78L595.32 192.62L597.21 193.52L599.05 194.5L600.85 195.54L602.61 196.65L604.32 197.83L605.98 199.06L607.58 200.35L609.14 201.7L610.64 203.11L612.09 204.57L613.47 206.09L614.8 207.65L616.07 209.27L617.27 210.93L618.41 212.64L619.48 214.39L620.49 216.19L621.42 218.03L622.28 219.9L623.07 221.82L623.78 223.77L624.42 225.75L624.97 227.77L625.45 229.81L625.84 231.89L626.15 233.99L626.37 236.12L626.51 238.27L626.55 240.45L626.54 241.62L626.5 242.79L626.43 243.95L626.34 245.11L626.22 246.25L626.07 247.39L625.91 248.52L625.71 249.65L625.49 250.76L625.25 251.86L624.98 252.96L624.69 254.05L624.37 255.13L624.04 256.2L623.68 257.25L623.29 258.3L622.89 259.34L622.46 260.37L622.01 261.38L621.54 262.39L621.05 263.38L620.54 264.37L620 265.34L619.45 266.3L618.88 267.24L618.29 268.18L617.68 269.1L617.04 270.01L616.4 270.9L615.73 271.79L615.04 272.65L614.34 273.51L613.62 274.35L612.88 275.18L612.13 275.99L611.36 276.78L610.57 277.56L609.77 278.33L608.95 279.08L608.11 279.82L609.04 280.23L609.95 280.65L610.86 281.09L611.77 281.53L612.66 281.99L613.56 282.45L614.44 282.92L615.33 283.41L616.2 283.9L617.07 284.41L617.93 284.92L618.79 285.45L619.64 285.98L620.49 286.52L621.32 287.08L622.16 287.64L622.98 288.21L623.8 288.79L624.61 289.38L625.41 289.98L626.21 290.59L627 291.21L627.78 291.84L628.56 292.48L629.33 293.13L630.09 293.78L630.84 294.45L631.59 295.12L632.33 295.8L633.06 296.49L633.78 297.19L634.49 297.9L635.2 298.62L635.9 299.35L636.59 300.08L637.27 300.83L637.95 301.58L638.61 302.34L639.27 303.11L639.92 303.88L640.81 302.79L641.68 301.68L642.53 300.56L643.37 299.42L644.18 298.27L644.98 297.11L645.76 295.93L646.52 294.74L647.25 293.54L647.97 292.33L648.67 291.1L649.35 289.86L650 288.6L650.64 287.34L651.26 286.06L651.85 284.78L652.42 283.48L652.97 282.17L653.5 280.85L654.01 279.52L654.49 278.18L654.95 276.82L655.39 275.46L655.8 274.09L656.19 272.71L656.56 271.32L656.91 269.92L657.23 268.52L657.52 267.1L657.79 265.68L658.04 264.24L658.26 262.8L658.46 261.35L658.63 259.9L658.77 258.43L658.89 256.96L658.99 255.49L659.05 254L659.09 252.51L659.11 251.01L659.03 247.53L658.82 244.09L658.46 240.69L657.97 237.32L657.34 234L656.58 230.73L655.69 227.5L654.67 224.33L653.53 221.21L652.27 218.14L650.89 215.14L649.4 212.2L647.8 209.33L646.08 206.52L644.26 203.79L642.33 201.13L640.31 198.54L638.18 196.04L635.96 193.61L633.65 191.27L631.25 189.02L628.76 186.86L626.18 184.79L623.53 182.82L620.8 180.94L617.99 179.17L615.11 177.5L612.15 175.94L609.13 174.48L606.05 173.14L602.91 171.91L599.7 170.8L596.44 169.81L593.13 168.95L589.77 168.21L586.35 167.6L582.9 167.11L579.4 166.77L575.87 166.56L572.29 166.49L568.72 166.56L565.18 166.77ZM109.41 166.77L105.91 167.11L102.46 167.6L99.04 168.21L95.68 168.95L92.37 169.81L89.11 170.8L85.9 171.91L82.76 173.14L79.68 174.48L76.66 175.94L73.7 177.5L70.82 179.17L68.01 180.94L65.28 182.82L62.63 184.79L60.05 186.86L57.56 189.02L55.16 191.27L52.85 193.61L50.63 196.04L48.5 198.54L46.48 201.13L44.55 203.79L42.73 206.52L41.01 209.33L39.41 212.2L37.92 215.14L36.54 218.14L35.28 221.21L34.14 224.33L33.12 227.5L32.23 230.73L31.47 234L30.84 237.32L30.35 240.69L29.99 244.09L29.78 247.53L29.7 251.01L29.72 252.51L29.76 254L29.82 255.49L29.92 256.96L30.04 258.43L30.18 259.9L30.35 261.35L30.55 262.8L30.77 264.24L31.02 265.68L31.29 267.1L31.58 268.52L31.9 269.92L32.25 271.32L32.62 272.71L33.01 274.09L33.42 275.46L33.86 276.82L34.32 278.18L34.8 279.52L35.31 280.85L35.84 282.17L36.39 283.48L36.96 284.78L37.55 286.06L38.17 287.34L38.81 288.6L39.46 289.86L40.14 291.1L40.84 292.33L41.56 293.54L42.29 294.74L43.05 295.93L43.83 297.11L44.63 298.27L45.44 299.42L46.28 300.56L47.13 301.68L48 302.79L48.89 303.88L49.54 303.11L50.2 302.34L50.86 301.58L51.54 300.83L52.22 300.08L52.91 299.35L53.61 298.62L54.32 297.9L55.03 297.2L55.75 296.5L56.48 295.8L57.22 295.12L57.97 294.45L58.72 293.78L59.48 293.13L60.25 292.48L61.03 291.84L61.81 291.22L62.6 290.6L63.4 289.99L64.2 289.39L65.01 288.8L65.83 288.22L66.65 287.64L67.49 287.08L68.32 286.53L69.17 285.98L70.02 285.45L70.88 284.93L71.74 284.41L72.61 283.91L73.48 283.41L74.37 282.93L75.25 282.45L76.15 281.99L77.04 281.53L77.95 281.09L78.86 280.65L79.77 280.23L80.7 279.82L79.86 279.08L79.04 278.33L78.24 277.56L77.45 276.78L76.68 275.99L75.93 275.18L75.19 274.35L74.47 273.51L73.77 272.65L73.08 271.79L72.41 270.9L71.77 270.01L71.13 269.1L70.52 268.18L69.93 267.24L69.36 266.3L68.81 265.34L68.27 264.37L67.76 263.38L67.27 262.39L66.8 261.38L66.35 260.37L65.92 259.34L65.52 258.3L65.13 257.25L64.77 256.2L64.44 255.13L64.12 254.05L63.83 252.96L63.56 251.86L63.32 250.76L63.1 249.65L62.9 248.52L62.74 247.39L62.59 246.25L62.47 245.11L62.38 243.95L62.31 242.79L62.27 241.62L62.26 240.45L62.3 238.27L62.44 236.12L62.66 233.99L62.97 231.89L63.36 229.81L63.84 227.77L64.39 225.75L65.03 223.77L65.74 221.82L66.53 219.9L67.39 218.03L68.32 216.19L69.33 214.39L70.4 212.64L71.54 210.93L72.74 209.27L74.01 207.65L75.34 206.09L76.72 204.57L78.17 203.11L79.67 201.7L81.23 200.35L82.83 199.06L84.49 197.83L86.2 196.65L87.96 195.54L89.76 194.5L91.6 193.52L93.49 192.62L95.42 191.78L97.38 191.01L99.39 190.32L101.42 189.7L103.49 189.16L105.6 188.69L107.73 188.31L109.89 188.01L112.07 187.79L114.28 187.66L116.52 187.62L118.75 187.66L120.96 187.79L123.15 188.01L125.31 188.31L127.44 188.69L129.54 189.16L131.61 189.7L133.65 190.32L135.65 191.01L137.62 191.78L139.54 192.62L141.43 193.52L143.28 194.5L145.08 195.54L146.83 196.65L148.54 197.83L150.2 199.06L151.81 200.35L153.37 201.7L154.87 203.11L156.31 204.57L157.7 206.09L159.03 207.65L160.29 209.27L161.5 210.93L162.64 212.64L163.71 214.39L164.71 216.19L165.64 218.03L166.51 219.9L167.29 221.82L168.01 223.77L168.64 225.75L169.2 227.77L169.67 229.81L170.07 231.89L170.37 233.99L170.6 236.12L170.73 238.27L170.78 240.45L170.76 241.62L170.72 242.79L170.66 243.95L170.56 245.11L170.44 246.25L170.3 247.39L170.13 248.52L169.94 249.65L169.72 250.76L169.47 251.86L169.21 252.96L168.91 254.05L168.6 255.13L168.26 256.2L167.9 257.25L167.52 258.3L167.11 259.34L166.69 260.37L166.24 261.38L165.77 262.39L165.27 263.38L164.76 264.37L164.23 265.34L163.68 266.3L163.1 267.24L162.51 268.18L161.9 269.1L161.27 270.01L160.62 270.9L159.95 271.79L159.27 272.65L158.57 273.51L157.85 274.35L157.11 275.18L156.35 275.99L155.58 276.78L154.8 277.56L153.99 278.33L153.17 279.08L152.34 279.82L153.26 280.23L154.18 280.65L155.09 281.09L155.99 281.53L156.89 281.99L157.78 282.45L158.67 282.92L159.55 283.41L160.43 283.9L161.3 284.41L162.16 284.92L163.02 285.45L163.87 285.98L164.71 286.52L165.55 287.08L166.38 287.64L167.21 288.21L168.02 288.79L168.83 289.38L169.64 289.98L170.44 290.59L171.23 291.21L172.01 291.84L172.78 292.48L173.55 293.13L174.31 293.78L175.07 294.45L175.81 295.12L176.55 295.8L177.28 296.49L178.01 297.19L178.72 297.9L179.43 298.62L180.13 299.35L180.82 300.08L181.5 300.83L182.17 301.58L182.84 302.34L183.5 303.11L184.15 303.88L185.04 302.79L185.91 301.68L186.76 300.56L187.59 299.42L188.41 298.27L189.21 297.11L189.98 295.93L190.74 294.74L191.48 293.54L192.2 292.33L192.9 291.1L193.57 289.86L194.23 288.6L194.87 287.34L195.48 286.06L196.07 284.78L196.65 283.48L197.2 282.17L197.73 280.85L198.23 279.52L198.72 278.18L199.18 276.82L199.61 275.46L200.03 274.09L200.42 272.71L200.79 271.32L201.13 269.92L201.45 268.52L201.75 267.1L202.02 265.68L202.27 264.24L202.49 262.8L202.68 261.35L202.85 259.9L203 258.43L203.12 256.96L203.21 255.49L203.28 254L203.32 252.51L203.33 251.01L203.26 247.53L203.04 244.09L202.69 240.69L202.19 237.32L201.56 234L200.8 230.73L199.91 227.5L198.9 224.33L197.76 221.21L196.5 218.14L195.12 215.14L193.63 212.2L192.02 209.33L190.31 206.52L188.48 203.79L186.56 201.13L184.53 198.54L182.41 196.04L180.19 193.61L177.88 191.27L175.47 189.02L172.98 186.86L170.41 184.79L167.75 182.82L165.02 180.94L162.21 179.17L159.33 177.5L156.38 175.94L153.36 174.48L150.28 173.14L147.13 171.91L143.93 170.8L140.67 169.81L137.35 168.95L133.99 168.21L130.58 167.6L127.12 167.11L123.63 166.77L120.09 166.56L116.52 166.49L112.94 166.56L109.41 166.77ZM113.85 208.86L112.54 208.99L111.24 209.17L109.97 209.4L108.7 209.67L107.46 210L106.24 210.37L105.04 210.79L103.86 211.25L102.7 211.75L101.57 212.29L100.46 212.88L99.38 213.51L98.33 214.17L97.3 214.87L96.31 215.61L95.34 216.39L94.41 217.2L93.51 218.05L92.64 218.92L91.81 219.83L91.01 220.77L90.25 221.74L89.53 222.74L88.85 223.76L88.2 224.82L87.6 225.89L87.04 227L86.53 228.12L86.05 229.27L85.63 230.44L85.24 231.63L84.91 232.84L84.63 234.07L84.39 235.31L84.2 236.58L84.07 237.85L83.99 239.14L83.96 240.45L83.99 241.75L84.07 243.04L84.2 244.32L84.39 245.58L84.63 246.83L84.91 248.06L85.24 249.26L85.63 250.45L86.05 251.62L86.53 252.77L87.04 253.9L87.6 255L88.2 256.08L88.85 257.13L89.53 258.16L90.25 259.15L91.01 260.12L91.81 261.06L92.64 261.97L93.51 262.85L94.41 263.69L95.34 264.5L96.31 265.28L97.3 266.02L98.33 266.72L99.38 267.39L100.46 268.02L101.57 268.6L102.7 269.15L103.86 269.65L105.04 270.11L106.24 270.53L107.46 270.9L108.7 271.22L109.97 271.5L111.24 271.73L112.54 271.91L113.85 272.04L115.18 272.12L116.52 272.15L117.86 272.12L119.18 272.04L120.5 271.91L121.79 271.73L123.07 271.5L124.33 271.22L125.57 270.9L126.8 270.53L128 270.11L129.18 269.65L130.33 269.15L131.47 268.6L132.57 268.02L133.65 267.39L134.71 266.72L135.73 266.02L136.73 265.28L137.69 264.5L138.63 263.69L139.53 262.85L140.39 261.97L141.23 261.06L142.02 260.12L142.78 259.15L143.5 258.16L144.19 257.13L144.83 256.08L145.43 255L145.99 253.9L146.51 252.77L146.98 251.62L147.41 250.45L147.79 249.26L148.13 248.06L148.41 246.83L148.65 245.58L148.83 244.32L148.96 243.04L149.05 241.75L149.07 240.45L149.05 239.14L148.96 237.85L148.83 236.58L148.65 235.31L148.41 234.07L148.13 232.84L147.79 231.63L147.41 230.44L146.98 229.27L146.51 228.12L145.99 227L145.43 225.89L144.83 224.82L144.19 223.76L143.5 222.74L142.78 221.74L142.02 220.77L141.23 219.83L140.39 218.92L139.53 218.05L138.63 217.2L137.69 216.39L136.73 215.61L135.73 214.87L134.71 214.17L133.65 213.51L132.57 212.88L131.47 212.29L130.33 211.75L129.18 211.25L128 210.79L126.8 210.37L125.57 210L124.33 209.67L123.07 209.4L121.79 209.17L120.5 208.99L119.18 208.86L117.86 208.78L116.52 208.75L115.18 208.78L113.85 208.86ZM569.63 208.86L568.31 208.99L567.02 209.17L565.74 209.4L564.48 209.67L563.24 210L562.01 210.37L560.81 210.79L559.63 211.25L558.48 211.75L557.34 212.29L556.24 212.88L555.16 213.51L554.1 214.17L553.08 214.87L552.08 215.61L551.12 216.39L550.18 217.2L549.28 218.05L548.42 218.92L547.58 219.83L546.79 220.77L546.03 221.74L545.31 222.74L544.62 223.76L543.98 224.82L543.38 225.89L542.82 227L542.3 228.12L541.83 229.27L541.4 230.44L541.02 231.63L540.68 232.84L540.4 234.07L540.16 235.31L539.98 236.58L539.85 237.85L539.76 239.14L539.74 240.45L539.76 241.75L539.85 243.04L539.98 244.32L540.16 245.58L540.4 246.83L540.68 248.06L541.02 249.26L541.4 250.45L541.83 251.62L542.3 252.77L542.82 253.9L543.38 255L543.98 256.08L544.62 257.13L545.31 258.16L546.03 259.15L546.79 260.12L547.58 261.06L548.42 261.97L549.28 262.85L550.18 263.69L551.12 264.5L552.08 265.28L553.08 266.02L554.1 266.72L555.16 267.39L556.24 268.02L557.34 268.6L558.48 269.15L559.63 269.65L560.81 270.11L562.01 270.53L563.24 270.9L564.48 271.22L565.74 271.5L567.02 271.73L568.31 271.91L569.63 272.04L570.95 272.12L572.29 272.15L573.63 272.12L574.96 272.04L576.27 271.91L577.57 271.73L578.84 271.5L580.11 271.22L581.35 270.9L582.57 270.53L583.77 270.11L584.95 269.65L586.11 269.15L587.24 268.6L588.35 268.02L589.43 267.39L590.48 266.72L591.51 266.02L592.5 265.28L593.47 264.5L594.4 263.69L595.3 262.85L596.17 261.97L597 261.06L597.8 260.12L598.56 259.15L599.28 258.16L599.96 257.13L600.61 256.08L601.21 255L601.77 253.9L602.28 252.77L602.76 251.62L603.18 250.45L603.57 249.26L603.9 248.06L604.18 246.83L604.42 245.58L604.61 244.32L604.74 243.04L604.82 241.75L604.85 240.45L604.82 239.14L604.74 237.85L604.61 236.58L604.42 235.31L604.18 234.07L603.9 232.84L603.57 231.63L603.18 230.44L602.76 229.27L602.28 228.12L601.77 227L601.21 225.89L600.61 224.82L599.96 223.76L599.28 222.74L598.56 221.74L597.8 220.77L597 219.83L596.17 218.92L595.3 218.05L594.4 217.2L593.47 216.39L592.5 215.61L591.51 214.87L590.48 214.17L589.43 213.51L588.35 212.88L587.24 212.29L586.11 211.75L584.95 211.25L583.77 210.79L582.57 210.37L581.35 210L580.11 209.67L578.84 209.4L577.57 209.17L576.27 208.99L574.96 208.86L573.63 208.78L572.29 208.75L570.95 208.78L569.63 208.86ZM340.25 156.05L338.19 156.21L336.16 156.43L334.14 156.71L332.14 157.05L330.16 157.45L328.2 157.91L326.26 158.42L324.35 159L322.46 159.62L320.6 160.31L318.76 161.04L316.96 161.83L315.18 162.68L313.43 163.57L311.71 164.51L310.03 165.51L308.38 166.55L306.76 167.64L305.17 168.78L303.63 169.97L302.12 171.2L300.65 172.47L299.22 173.79L297.83 175.15L296.48 176.55L295.17 178L293.91 179.48L292.69 181L291.52 182.57L290.4 184.17L289.32 185.8L288.29 187.47L287.32 189.18L286.39 190.92L285.52 192.7L284.7 194.51L283.93 196.35L283.22 198.22L283.94 198.77L284.66 199.33L285.39 199.87L286.12 200.41L286.86 200.94L287.6 201.47L288.35 201.99L289.1 202.5L289.86 203.01L290.62 203.51L291.39 204L292.16 204.49L292.94 204.97L293.72 205.44L294.51 205.91L295.31 206.36L296.11 206.82L296.91 207.26L297.72 207.7L298.53 208.13L299.35 208.55L300.17 208.97L301 209.37L301.83 209.78L302.67 210.17L303.51 210.55L304.36 210.93L305.21 211.3L306.06 211.67L306.92 212.02L307.79 212.37L308.66 212.71L309.53 213.04L310.41 213.36L311.29 213.68L312.18 213.98L313.07 214.28L313.96 214.57L314.86 214.86L315.77 215.13L316.19 214.39L316.63 213.65L317.08 212.93L317.56 212.22L318.06 211.53L318.57 210.84L319.1 210.17L319.65 209.52L320.22 208.88L320.8 208.25L321.4 207.64L322.01 207.05L322.64 206.47L323.29 205.91L323.95 205.36L324.62 204.83L325.31 204.32L326.02 203.83L326.73 203.36L327.47 202.9L328.21 202.46L328.97 202.04L329.74 201.64L330.52 201.26L331.31 200.9L332.12 200.56L332.93 200.25L333.76 199.95L334.6 199.68L335.44 199.42L336.3 199.19L337.17 198.98L338.04 198.8L338.93 198.64L339.82 198.5L340.72 198.39L341.63 198.3L342.55 198.24L343.47 198.2L344.41 198.18L345.34 198.2L346.26 198.24L347.18 198.3L348.09 198.39L348.99 198.5L349.88 198.64L350.77 198.8L351.64 198.98L352.51 199.19L353.37 199.42L354.21 199.68L355.05 199.95L355.88 200.25L356.69 200.56L357.5 200.9L358.29 201.26L359.07 201.64L359.84 202.04L360.6 202.46L361.35 202.9L362.08 203.36L362.8 203.83L363.5 204.32L364.19 204.83L364.87 205.36L365.53 205.91L366.17 206.47L366.8 207.05L367.42 207.64L368.02 208.25L368.6 208.88L369.17 209.52L369.71 210.17L370.25 210.84L370.76 211.53L371.26 212.22L371.73 212.93L372.19 213.65L372.63 214.39L373.05 215.13L373.96 214.86L374.86 214.57L375.75 214.28L376.64 213.98L377.53 213.68L378.41 213.36L379.29 213.04L380.16 212.71L381.03 212.37L381.89 212.02L382.75 211.66L383.61 211.3L384.46 210.93L385.3 210.55L386.14 210.16L386.98 209.77L387.81 209.37L388.64 208.96L389.46 208.55L390.28 208.12L391.09 207.69L391.9 207.25L392.71 206.81L393.5 206.36L394.3 205.9L395.09 205.43L395.87 204.96L396.65 204.48L397.42 203.99L398.19 203.5L398.95 202.99L399.71 202.49L400.46 201.97L401.21 201.45L401.96 200.93L402.69 200.39L403.42 199.85L404.15 199.31L404.87 198.75L405.59 198.2L404.88 196.33L404.11 194.49L403.29 192.68L402.41 190.91L401.49 189.17L400.51 187.46L399.48 185.79L398.4 184.15L397.28 182.56L396.1 180.99L394.89 179.47L393.62 177.99L392.32 176.55L390.97 175.14L389.58 173.78L388.15 172.47L386.67 171.19L385.17 169.96L383.62 168.78L382.04 167.64L380.42 166.55L378.77 165.51L377.08 164.51L375.36 163.57L373.62 162.67L371.84 161.83L370.03 161.04L368.2 160.31L366.34 159.62L364.45 158.99L362.54 158.42L360.6 157.91L358.64 157.45L356.67 157.05L354.67 156.71L352.65 156.43L350.61 156.21L348.56 156.05L346.49 155.95L344.41 155.92L342.32 155.95L340.25 156.05ZM336.41 29.45L332.47 29.84L328.58 30.38L324.75 31.07L320.96 31.9L317.23 32.87L313.57 33.99L309.96 35.24L306.42 36.62L302.95 38.13L299.56 39.76L296.24 41.52L293 43.4L289.84 45.39L286.76 47.5L283.77 49.72L280.88 52.05L278.08 54.48L275.38 57.01L272.77 59.64L270.28 62.37L267.89 65.19L265.61 68.1L263.44 71.09L261.39 74.17L259.46 77.33L257.66 80.56L255.98 83.87L254.43 87.24L253.01 90.69L251.73 94.2L250.58 97.77L249.58 101.4L248.73 105.08L248.02 108.82L247.46 112.6L247.06 116.44L246.82 120.31L246.74 124.22L246.75 125.82L246.79 127.41L246.86 129L246.96 130.58L247.08 132.15L247.23 133.72L247.41 135.28L247.61 136.84L247.84 138.39L248.09 139.93L248.38 141.46L248.68 142.99L249.01 144.51L249.37 146.01L249.75 147.52L250.16 149.01L250.59 150.49L251.04 151.97L251.52 153.43L252.02 154.89L252.55 156.33L253.09 157.77L253.67 159.19L254.26 160.61L254.88 162.01L255.52 163.41L256.18 164.79L256.86 166.16L257.57 167.52L258.3 168.87L259.05 170.2L259.82 171.52L260.61 172.83L261.42 174.13L262.25 175.41L263.11 176.68L263.98 177.94L264.87 179.18L265.79 180.41L266.72 181.63L267.4 180.32L268.1 179.03L268.82 177.75L269.57 176.48L270.34 175.23L271.12 174L271.93 172.78L272.76 171.57L273.61 170.39L274.47 169.21L275.36 168.06L276.27 166.91L277.19 165.79L278.13 164.68L279.1 163.59L280.08 162.52L281.08 161.46L282.09 160.42L283.13 159.4L284.18 158.39L285.25 157.41L286.33 156.44L287.43 155.49L288.55 154.56L289.68 153.64L290.83 152.75L292 151.88L293.18 151.02L294.37 150.19L295.58 149.37L296.81 148.57L298.05 147.8L299.3 147.04L300.57 146.31L301.85 145.59L303.14 144.9L304.45 144.23L305.77 143.58L307.1 142.95L308.44 142.34L307.61 141.61L306.8 140.86L306.01 140.1L305.22 139.32L304.46 138.52L303.71 137.71L302.98 136.89L302.26 136.05L301.57 135.2L300.89 134.33L300.22 133.45L299.58 132.56L298.95 131.65L298.35 130.73L297.76 129.8L297.19 128.85L296.64 127.9L296.11 126.93L295.61 125.95L295.12 124.96L294.65 123.95L294.21 122.94L293.78 121.92L293.38 120.88L293 119.84L292.64 118.78L292.31 117.72L291.99 116.64L291.7 115.56L291.44 114.47L291.2 113.36L290.98 112.25L290.79 111.14L290.62 110.01L290.48 108.87L290.36 107.73L290.27 106.58L290.2 105.43L290.16 104.26L290.15 103.09L290.19 100.92L290.33 98.77L290.55 96.64L290.86 94.53L291.25 92.46L291.73 90.41L292.28 88.4L292.92 86.41L293.63 84.46L294.42 82.55L295.28 80.67L296.21 78.83L297.21 77.04L298.29 75.28L299.43 73.58L300.63 71.91L301.9 70.3L303.22 68.73L304.61 67.22L306.06 65.75L307.56 64.35L309.11 63L310.72 61.7L312.38 60.47L314.09 59.3L315.85 58.19L317.65 57.15L319.49 56.17L321.38 55.26L323.31 54.42L325.27 53.65L327.27 52.96L329.31 52.34L331.38 51.8L333.48 51.34L335.62 50.96L337.78 50.66L339.96 50.44L342.17 50.31L344.41 50.26L346.64 50.31L348.85 50.44L351.03 50.66L353.19 50.96L355.33 51.34L357.43 51.8L359.5 52.34L361.54 52.96L363.54 53.65L365.5 54.42L367.43 55.26L369.32 56.17L371.16 57.15L372.96 58.19L374.72 59.3L376.43 60.47L378.09 61.7L379.7 63L381.25 64.35L382.75 65.75L384.2 67.22L385.59 68.73L386.91 70.3L388.18 71.91L389.38 73.58L390.52 75.28L391.6 77.04L392.6 78.83L393.53 80.67L394.39 82.55L395.18 84.46L395.89 86.41L396.53 88.4L397.08 90.41L397.56 92.46L397.95 94.53L398.26 96.64L398.48 98.77L398.62 100.92L398.66 103.09L398.65 104.26L398.61 105.43L398.54 106.58L398.45 107.73L398.33 108.87L398.19 110.01L398.02 111.14L397.83 112.25L397.61 113.36L397.37 114.47L397.11 115.56L396.82 116.64L396.5 117.72L396.17 118.78L395.81 119.84L395.43 120.88L395.03 121.92L394.6 122.94L394.16 123.95L393.69 124.96L393.2 125.95L392.7 126.93L392.17 127.9L391.62 128.85L391.05 129.8L390.46 130.73L389.86 131.65L389.23 132.56L388.59 133.45L387.92 134.33L387.24 135.2L386.55 136.05L385.83 136.89L385.1 137.71L384.35 138.52L383.59 139.32L382.8 140.1L382.01 140.86L381.2 141.61L380.37 142.34L381.71 142.95L383.04 143.58L384.36 144.23L385.67 144.9L386.96 145.59L388.24 146.31L389.51 147.04L390.76 147.8L392 148.57L393.22 149.37L394.43 150.18L395.62 151.02L396.8 151.87L397.97 152.75L399.12 153.64L400.25 154.55L401.37 155.48L402.47 156.43L403.55 157.4L404.62 158.39L405.67 159.39L406.71 160.41L407.72 161.45L408.72 162.51L409.7 163.58L410.66 164.67L411.61 165.78L412.53 166.91L413.44 168.05L414.33 169.2L415.19 170.38L416.04 171.56L416.87 172.77L417.68 173.99L418.46 175.22L419.23 176.47L419.97 177.74L420.7 179.02L421.4 180.31L422.08 181.62L423.01 180.4L423.93 179.17L424.82 177.93L425.69 176.67L426.55 175.4L427.38 174.11L428.19 172.82L428.98 171.51L429.75 170.18L430.5 168.85L431.23 167.5L431.94 166.14L432.62 164.77L433.28 163.39L433.92 162L434.54 160.59L435.14 159.18L435.71 157.75L436.26 156.32L436.78 154.87L437.29 153.41L437.77 151.95L438.22 150.48L438.65 148.99L439.06 147.5L439.44 146L439.79 144.49L440.13 142.97L440.43 141.45L440.71 139.92L440.97 138.38L441.2 136.83L441.4 135.28L441.58 133.71L441.73 132.15L441.85 130.57L441.95 129L442.02 127.41L442.06 125.82L442.07 124.22L441.99 120.31L441.75 116.44L441.35 112.6L440.79 108.82L440.08 105.08L439.23 101.4L438.23 97.77L437.08 94.2L435.8 90.69L434.38 87.24L432.83 83.87L431.15 80.56L429.35 77.33L427.42 74.17L425.37 71.09L423.2 68.1L420.92 65.19L418.53 62.37L416.04 59.64L413.43 57.01L410.73 54.48L407.93 52.05L405.04 49.72L402.05 47.5L398.97 45.39L395.81 43.4L392.57 41.52L389.25 39.76L385.86 38.13L382.39 36.62L378.85 35.24L375.24 33.99L371.58 32.87L367.85 31.9L364.06 31.07L360.23 30.38L356.34 29.84L352.4 29.45L348.42 29.21L344.41 29.13L340.39 29.21L336.41 29.45ZM341.74 71.5L340.43 71.63L339.13 71.81L337.85 72.04L336.59 72.32L335.35 72.64L334.13 73.01L332.93 73.43L331.75 73.89L330.59 74.39L329.46 74.94L328.35 75.52L327.27 76.15L326.22 76.82L325.19 77.52L324.2 78.26L323.23 79.04L322.3 79.85L321.4 80.69L320.53 81.57L319.7 82.48L318.9 83.42L318.14 84.39L317.42 85.38L316.73 86.41L316.09 87.46L315.49 88.54L314.93 89.64L314.41 90.77L313.94 91.92L313.51 93.09L313.13 94.28L312.8 95.48L312.51 96.71L312.28 97.96L312.09 99.22L311.96 100.5L311.88 101.79L311.85 103.09L311.88 104.4L311.96 105.69L312.09 106.96L312.28 108.23L312.51 109.47L312.8 110.7L313.13 111.91L313.51 113.1L313.94 114.27L314.41 115.42L314.93 116.54L315.49 117.65L316.09 118.72L316.73 119.78L317.42 120.8L318.14 121.8L318.9 122.77L319.7 123.71L320.53 124.62L321.4 125.49L322.3 126.34L323.23 127.15L324.2 127.93L325.19 128.67L326.22 129.37L327.27 130.03L328.35 130.66L329.46 131.25L330.59 131.79L331.75 132.29L332.93 132.75L334.13 133.17L335.35 133.54L336.59 133.87L337.85 134.14L339.13 134.37L340.43 134.55L341.74 134.68L343.07 134.76L344.41 134.79L345.74 134.76L347.07 134.68L348.38 134.55L349.68 134.37L350.96 134.14L352.22 133.87L353.46 133.54L354.68 133.17L355.88 132.75L357.06 132.29L358.22 131.79L359.35 131.25L360.46 130.66L361.54 130.03L362.59 129.37L363.62 128.67L364.61 127.93L365.58 127.15L366.51 126.34L367.41 125.49L368.28 124.62L369.11 123.71L369.91 122.77L370.67 121.8L371.39 120.8L372.08 119.78L372.72 118.72L373.32 117.65L373.88 116.54L374.4 115.42L374.87 114.27L375.3 113.1L375.68 111.91L376.01 110.7L376.3 109.47L376.53 108.23L376.72 106.96L376.85 105.69L376.93 104.4L376.96 103.09L376.93 101.79L376.85 100.5L376.72 99.22L376.53 97.96L376.3 96.71L376.01 95.48L375.68 94.28L375.3 93.09L374.87 91.92L374.4 90.77L373.88 89.64L373.32 88.54L372.72 87.46L372.08 86.41L371.39 85.38L370.67 84.39L369.91 83.42L369.11 82.48L368.28 81.57L367.41 80.69L366.51 79.85L365.58 79.04L364.61 78.26L363.62 77.52L362.59 76.82L361.54 76.15L360.46 75.52L359.35 74.94L358.22 74.39L357.06 73.89L355.88 73.43L354.68 73.01L353.46 72.64L352.22 72.32L350.96 72.04L349.68 71.81L348.38 71.63L347.07 71.5L345.74 71.42L344.41 71.39L343.07 71.42L341.74 71.5Z" id="f2oLtRucGD"></path></defs><g><g><g><use xlink:href="#dlPKlk5AI" opacity="1" fill="#1081a7" fill-opacity="1"></use><g><use xlink:href="#dlPKlk5AI" opacity="1" fill-opacity="0" stroke="#000000" stroke-width="1" stroke-opacity="0"></use></g></g><g><use xlink:href="#a1F1GPvngL" opacity="1" fill="#1081a7" fill-opacity="1"></use><g><use xlink:href="#a1F1GPvngL" opacity="1" fill-opacity="0" stroke="#000000" stroke-width="1" stroke-opacity="0"></use></g></g><g><use xlink:href="#a7epkgvlAM" opacity="1" fill="#1081a7" fill-opacity="1"></use><g><use xlink:href="#a7epkgvlAM" opacity="1" fill-opacity="0" stroke="#000000" stroke-width="1" stroke-opacity="0"></use></g></g><g><use xlink:href="#a5UpNeft" opacity="1" fill="#1081a7" fill-opacity="1"></use><g><use xlink:href="#a5UpNeft" opacity="1" fill-opacity="0" stroke="#000000" stroke-width="1" stroke-opacity="0"></use></g></g><g><use xlink:href="#f2oLtRucGD" opacity="1" fill="#1081a7" fill-opacity="1"></use><g><use xlink:href="#f2oLtRucGD" opacity="1" fill-opacity="0" stroke="#000000" stroke-width="1" stroke-opacity="0"></use></g></g></g></g></svg>