<?xml version="1.0" encoding="UTF-8" standalone="no"?>
<!DOCTYPE svg PUBLIC "-//W3C//DTD SVG 1.1//EN" "http://www.w3.org/Graphics/SVG/1.1/DTD/svg11.dtd">
<svg version="1.1" xmlns="http://www.w3.org/2000/svg" xmlns:xlink="http://www.w3.org/1999/xlink" preserveAspectRatio="xMidYMid meet" viewBox="0 0 682 682" width="682" height="682"><defs><path d="M123.54 74.05L125.6 74.26L127.63 74.55L129.64 74.92L131.63 75.37L133.58 75.9L135.5 76.5L137.39 77.17L139.24 77.91L141.06 78.72L142.83 79.6L144.57 80.55L146.27 81.56L147.93 82.63L149.54 83.77L151.1 84.96L152.62 86.21L154.08 87.52L155.5 88.88L156.86 90.3L158.17 91.77L159.42 93.28L160.62 94.85L161.75 96.46L162.82 98.11L163.84 99.81L164.78 101.55L165.66 103.33L166.47 105.14L167.22 107L167.89 108.88L168.49 110.81L169.01 112.76L169.46 114.74L169.83 116.75L170.12 118.78L170.33 120.84L170.46 122.93L170.5 125.03L170.46 127.14L170.33 129.22L170.12 131.28L169.83 133.32L169.46 135.33L169.01 137.31L168.49 139.26L167.89 141.18L167.22 143.07L166.47 144.92L165.66 146.74L164.78 148.52L163.84 150.26L162.82 151.96L161.75 153.61L160.62 155.22L159.42 156.79L158.17 158.3L156.86 159.77L155.5 161.18L154.08 162.55L152.62 163.85L151.1 165.11L149.54 166.3L147.93 167.43L146.27 168.51L144.57 169.52L142.83 170.46L141.06 171.34L139.24 172.16L137.39 172.9L135.5 173.57L133.58 174.17L131.63 174.69L129.64 175.14L127.63 175.51L125.6 175.8L123.54 176.01L121.45 176.14L119.35 176.18L117.25 176.14L115.16 176.01L113.1 175.8L111.07 175.51L109.06 175.14L107.07 174.69L105.12 174.17L103.2 173.57L101.31 172.9L99.46 172.16L97.64 171.34L95.87 170.46L94.13 169.52L92.43 168.51L90.77 167.43L89.16 166.3L87.6 165.11L86.08 163.85L84.62 162.55L83.2 161.18L81.84 159.77L80.53 158.3L79.28 156.79L78.08 155.22L76.95 153.61L75.88 151.96L74.86 150.26L73.92 148.52L73.04 146.74L72.23 144.92L71.48 143.07L70.81 141.18L70.21 139.26L69.69 137.31L69.24 135.33L68.87 133.32L68.58 131.28L68.37 129.22L68.24 127.14L68.2 125.03L68.24 122.93L68.37 120.84L68.58 118.78L68.87 116.75L69.24 114.74L69.69 112.76L70.21 110.81L70.81 108.88L71.48 107L72.23 105.14L73.04 103.33L73.92 101.55L74.86 99.81L75.88 98.11L76.95 96.46L78.08 94.85L79.28 93.28L80.53 91.77L81.84 90.3L83.2 88.88L84.62 87.52L86.08 86.21L87.6 84.96L89.16 83.77L90.77 82.63L92.43 81.56L94.13 80.55L95.87 79.6L97.64 78.72L99.46 77.91L101.31 77.17L103.2 76.5L105.12 75.9L107.07 75.37L109.06 74.92L111.07 74.55L113.1 74.26L115.16 74.05L117.25 73.93L119.35 73.88L121.45 73.93L123.54 74.05ZM116.7 96.74L115.39 96.89L114.11 97.1L112.84 97.37L111.6 97.69L110.38 98.07L109.18 98.5L108.01 98.98L106.87 99.51L105.75 100.09L104.66 100.71L103.61 101.39L102.58 102.11L101.59 102.87L100.63 103.67L99.71 104.51L98.83 105.39L97.99 106.31L97.19 107.27L96.42 108.26L95.71 109.28L95.03 110.34L94.41 111.43L93.83 112.54L93.3 113.69L92.81 114.86L92.38 116.06L92.01 117.28L91.69 118.52L91.42 119.79L91.21 121.07L91.06 122.38L90.96 123.7L90.93 125.03L90.96 126.37L91.06 127.69L91.21 128.99L91.42 130.28L91.69 131.54L92.01 132.79L92.38 134.01L92.81 135.2L93.3 136.38L93.83 137.52L94.41 138.64L95.03 139.73L95.71 140.78L96.42 141.81L97.19 142.8L97.99 143.75L98.83 144.67L99.71 145.56L100.63 146.4L101.59 147.2L102.58 147.96L103.61 148.68L104.66 149.35L105.75 149.98L106.87 150.56L108.01 151.09L109.18 151.57L110.38 152L111.6 152.38L112.84 152.7L114.11 152.97L115.39 153.18L116.7 153.33L118.01 153.42L119.35 153.45L120.69 153.42L122 153.33L123.31 153.18L124.59 152.97L125.86 152.7L127.1 152.38L128.32 152L129.52 151.57L130.69 151.09L131.83 150.56L132.95 149.98L134.04 149.35L135.09 148.68L136.12 147.96L137.11 147.2L138.07 146.4L138.99 145.56L139.87 144.67L140.71 143.75L141.51 142.8L142.28 141.81L142.99 140.78L143.67 139.73L144.29 138.64L144.87 137.52L145.4 136.38L145.89 135.2L146.32 134.01L146.69 132.79L147.01 131.54L147.28 130.28L147.49 128.99L147.64 127.69L147.74 126.37L147.77 125.03L147.74 123.7L147.64 122.38L147.49 121.07L147.28 119.79L147.01 118.52L146.69 117.28L146.32 116.06L145.89 114.86L145.4 113.69L144.87 112.54L144.29 111.43L143.67 110.34L142.99 109.28L142.28 108.26L141.51 107.27L140.71 106.31L139.87 105.39L138.99 104.51L138.07 103.67L137.11 102.87L136.12 102.11L135.09 101.39L134.04 100.71L132.95 100.09L131.83 99.51L130.69 98.98L129.52 98.5L128.32 98.07L127.1 97.69L125.86 97.37L124.59 97.1L123.31 96.89L122 96.74L120.69 96.65L119.35 96.62L118.01 96.65L116.7 96.74Z" id="cjCXuQoyY"></path><path d="M568.33 96.62C562.06 96.62 556.97 101.71 556.97 107.98C556.97 114.26 562.06 119.35 568.33 119.35C574.61 119.35 579.7 114.26 579.7 107.98C579.7 101.71 574.61 96.62 568.33 96.62Z" id="c40cY8hC42"></path><path d="M522.87 96.62C516.59 96.62 511.5 101.71 511.5 107.98C511.5 114.26 516.59 119.35 522.87 119.35C529.14 119.35 534.23 114.26 534.23 107.98C534.23 101.71 529.14 96.62 522.87 96.62Z" id="dHSpKE2VG"></path><path d="M591.07 130.72C584.79 130.72 579.7 135.81 579.7 142.08C579.7 148.36 584.79 153.45 591.07 153.45C597.34 153.45 602.43 148.36 602.43 142.08C602.43 135.81 597.34 130.72 591.07 130.72Z" id="a1JhPXtaxX"></path><path d="M545.6 130.72C539.32 130.72 534.23 135.81 534.23 142.08C534.23 148.36 539.32 153.45 545.6 153.45C551.88 153.45 556.97 148.36 556.97 142.08C556.97 135.81 551.88 130.72 545.6 130.72Z" id="djbZaLmrc"></path><path d="M477.4 96.62C471.12 96.62 466.03 101.71 466.03 107.98C466.03 114.26 471.12 119.35 477.4 119.35C483.68 119.35 488.77 114.26 488.77 107.98C488.77 101.71 483.68 96.62 477.4 96.62Z" id="a6sF2lufVW"></path><path d="M500.13 130.72C493.86 130.72 488.77 135.81 488.77 142.08C488.77 148.36 493.86 153.45 500.13 153.45C506.41 153.45 511.5 148.36 511.5 142.08C511.5 135.81 506.41 130.72 500.13 130.72Z" id="c2XmERPG2o"></path><path d="M431.93 96.62C425.66 96.62 420.57 101.71 420.57 107.98C420.57 114.26 425.66 119.35 431.93 119.35C438.21 119.35 443.3 114.26 443.3 107.98C443.3 101.71 438.21 96.62 431.93 96.62Z" id="d1uXkMHbrM"></path><path d="M454.67 130.72C448.39 130.72 443.3 135.81 443.3 142.08C443.3 148.36 448.39 153.45 454.67 153.45C460.94 153.45 466.03 148.36 466.03 142.08C466.03 135.81 460.94 130.72 454.67 130.72Z" id="d1K8OiQ2vd"></path><path d="M386.47 96.62C380.19 96.62 375.1 101.71 375.1 107.98C375.1 114.26 380.19 119.35 386.47 119.35C392.74 119.35 397.83 114.26 397.83 107.98C397.83 101.71 392.74 96.62 386.47 96.62Z" id="a5aionufK"></path><path d="M409.2 130.72C402.92 130.72 397.83 135.81 397.83 142.08C397.83 148.36 402.92 153.45 409.2 153.45C415.48 153.45 420.57 148.36 420.57 142.08C420.57 135.81 415.48 130.72 409.2 130.72Z" id="gFIvWOFBf"></path><path d="M633.91 5.86L636.02 6.07L638.11 6.37L640.17 6.75L642.19 7.21L644.19 7.74L646.16 8.36L648.09 9.05L649.99 9.81L651.85 10.64L653.67 11.54L655.45 12.51L657.19 13.54L658.89 14.64L660.54 15.8L662.14 17.02L663.69 18.31L665.19 19.65L666.64 21.04L668.04 22.49L669.38 23.99L670.66 25.55L671.88 27.15L673.04 28.8L674.14 30.49L675.18 32.23L676.15 34.01L677.05 35.83L677.88 37.69L678.64 39.59L679.33 41.52L679.94 43.49L680.48 45.49L680.93 47.52L681.31 49.58L681.61 51.66L681.83 53.77L681.96 55.91L682 58.06L682 192.01L681.99 193.25L681.94 194.49L681.87 195.73L681.76 196.95L681.63 198.17L681.47 199.37L681.29 200.57L681.07 201.76L680.83 202.94L680.56 204.1L680.27 205.26L679.94 206.41L679.6 207.55L679.23 208.67L678.83 209.79L678.41 210.89L677.96 211.98L677.49 213.05L677 214.12L676.48 215.17L675.94 216.21L675.38 217.23L674.79 218.25L674.19 219.24L673.56 220.22L672.91 221.19L672.24 222.14L671.55 223.08L670.84 224L670.11 224.91L669.36 225.8L668.59 226.67L667.8 227.53L667 228.36L666.17 229.18L665.33 229.99L664.48 230.77L663.6 231.54L662.71 232.29L661.8 233.02L662.71 233.75L663.6 234.49L664.48 235.26L665.33 236.05L666.17 236.85L667 237.67L667.8 238.51L668.59 239.36L669.36 240.23L670.11 241.12L670.84 242.03L671.55 242.95L672.24 243.89L672.91 244.84L673.56 245.81L674.19 246.79L674.79 247.78L675.38 248.8L675.94 249.82L676.48 250.86L677 251.91L677.49 252.97L677.96 254.05L678.41 255.14L678.83 256.24L679.23 257.36L679.6 258.48L679.94 259.62L680.27 260.77L680.56 261.92L680.83 263.09L681.07 264.27L681.29 265.46L681.47 266.66L681.63 267.86L681.76 269.08L681.87 270.31L681.94 271.54L681.99 272.78L682 274.03L682 407.97L681.99 409.22L681.94 410.46L681.87 411.69L681.76 412.92L681.63 414.13L681.47 415.34L681.29 416.54L681.07 417.72L680.83 418.9L680.56 420.07L680.27 421.23L679.94 422.38L679.6 423.51L679.22 424.64L678.83 425.75L678.41 426.85L677.96 427.94L677.49 429.02L676.99 430.09L676.48 431.14L675.94 432.18L675.37 433.2L674.79 434.21L674.18 435.21L673.55 436.19L672.9 437.16L672.23 438.11L671.54 439.05L670.83 439.97L670.1 440.87L669.35 441.76L668.58 442.64L667.8 443.49L666.99 444.33L666.17 445.15L665.33 445.95L664.47 446.74L663.59 447.51L662.7 448.25L661.79 448.98L662.7 449.71L663.59 450.46L664.46 451.23L665.32 452.01L666.16 452.82L666.99 453.64L667.79 454.47L668.58 455.33L669.35 456.2L670.1 457.09L670.83 458L671.54 458.92L672.23 459.85L672.9 460.81L673.55 461.77L674.17 462.75L674.78 463.75L675.36 464.76L675.93 465.79L676.47 466.82L676.98 467.88L677.48 468.94L677.95 470.02L678.39 471.11L678.82 472.21L679.21 473.32L679.59 474.45L679.93 475.59L680.25 476.73L680.55 477.89L680.82 479.06L681.06 480.24L681.27 481.43L681.46 482.62L681.62 483.83L681.75 485.05L681.86 486.27L681.93 487.5L681.97 488.75L681.99 489.99L681.99 623.94L681.94 626.09L681.81 628.23L681.6 630.34L681.3 632.42L680.92 634.48L680.46 636.51L679.93 638.51L679.31 640.48L678.63 642.41L677.87 644.31L677.03 646.17L676.13 647.99L675.17 649.77L674.13 651.51L673.03 653.2L671.87 654.85L670.65 656.45L669.37 658.01L668.03 659.51L666.63 660.96L665.18 662.35L663.68 663.69L662.13 664.98L660.53 666.2L658.88 667.36L657.18 668.46L655.44 669.49L653.66 670.46L651.84 671.36L649.98 672.19L648.08 672.95L646.15 673.64L644.18 674.26L642.18 674.79L640.15 675.25L638.1 675.63L636.01 675.93L633.9 676.14L631.77 676.27L629.61 676.32L52.38 676.32L50.22 676.27L48.09 676.14L45.98 675.93L43.89 675.63L41.83 675.25L39.81 674.79L37.81 674.26L35.84 673.64L33.91 672.95L32.01 672.19L30.15 671.36L28.33 670.46L26.55 669.49L24.81 668.46L23.11 667.36L21.46 666.2L19.86 664.97L18.31 663.69L16.81 662.35L15.36 660.96L13.96 659.51L12.62 658.01L11.34 656.45L10.12 654.85L8.96 653.2L7.86 651.51L6.82 649.77L5.85 647.99L4.95 646.16L4.12 644.3L3.36 642.41L2.67 640.47L2.06 638.5L1.52 636.5L1.07 634.47L0.69 632.42L0.39 630.33L0.17 628.22L0.04 626.08L0 623.93L0 489.99L0.01 488.75L0.06 487.51L0.13 486.27L0.24 485.05L0.37 483.83L0.53 482.63L0.71 481.43L0.93 480.24L1.17 479.06L1.44 477.9L1.73 476.74L2.06 475.59L2.4 474.45L2.77 473.33L3.17 472.21L3.59 471.11L4.04 470.02L4.51 468.94L5 467.88L5.52 466.83L6.06 465.79L6.62 464.76L7.21 463.75L7.81 462.76L8.44 461.77L9.09 460.81L9.76 459.85L10.45 458.91L11.16 457.99L11.89 457.09L12.64 456.2L13.41 455.32L14.2 454.47L15 453.63L15.83 452.81L16.67 452L17.52 451.22L18.4 450.45L19.29 449.7L20.2 448.97L19.29 448.24L18.4 447.49L17.52 446.73L16.67 445.94L15.83 445.14L15 444.32L14.2 443.48L13.41 442.63L12.64 441.75L11.89 440.86L11.16 439.96L10.45 439.04L9.76 438.1L9.09 437.15L8.44 436.18L7.81 435.2L7.21 434.2L6.62 433.19L6.06 432.17L5.52 431.13L5 430.08L4.51 429.01L4.04 427.94L3.59 426.85L3.17 425.75L2.77 424.63L2.4 423.51L2.06 422.37L1.73 421.22L1.44 420.06L1.17 418.9L0.93 417.72L0.71 416.53L0.53 415.33L0.37 414.12L0.24 412.91L0.13 411.68L0.06 410.45L0.01 409.21L0 407.96L0 274.03L0.01 272.78L0.06 271.54L0.13 270.31L0.24 269.08L0.37 267.87L0.53 266.66L0.71 265.46L0.93 264.28L1.17 263.1L1.44 261.93L1.73 260.77L2.06 259.62L2.4 258.49L2.77 257.36L3.17 256.25L3.59 255.15L4.04 254.06L4.51 252.98L5 251.91L5.52 250.86L6.06 249.82L6.62 248.8L7.21 247.79L7.81 246.79L8.44 245.81L9.09 244.84L9.76 243.89L10.45 242.95L11.16 242.03L11.89 241.12L12.64 240.23L13.41 239.36L14.2 238.5L15 237.66L15.83 236.84L16.67 236.04L17.52 235.25L18.4 234.48L19.29 233.74L20.2 233.01L19.29 232.28L18.4 231.53L17.52 230.76L16.67 229.98L15.83 229.17L15 228.35L14.2 227.51L13.41 226.66L12.64 225.79L11.89 224.9L11.16 223.99L10.45 223.07L9.76 222.14L9.09 221.18L8.44 220.22L7.81 219.23L7.21 218.24L6.62 217.23L6.06 216.2L5.52 215.16L5 214.11L4.51 213.05L4.04 211.97L3.59 210.88L3.17 209.78L2.77 208.67L2.4 207.54L2.06 206.4L1.73 205.26L1.44 204.1L1.17 202.93L0.93 201.75L0.71 200.56L0.53 199.36L0.37 198.16L0.24 196.94L0.13 195.72L0.06 194.48L0.01 193.24L0 191.99L0 58.06L0.04 55.91L0.17 53.77L0.39 51.66L0.69 49.58L1.07 47.52L1.52 45.49L2.06 43.49L2.67 41.52L3.36 39.59L4.12 37.69L4.95 35.83L5.85 34.01L6.82 32.23L7.86 30.49L8.96 28.8L10.12 27.15L11.34 25.55L12.62 23.99L13.96 22.49L15.36 21.04L16.81 19.65L18.31 18.31L19.86 17.02L21.46 15.8L23.11 14.64L24.81 13.54L26.55 12.51L28.33 11.54L30.15 10.64L32.01 9.81L33.91 9.05L35.84 8.36L37.81 7.74L39.81 7.21L41.83 6.75L43.89 6.37L45.98 6.07L48.09 5.86L50.22 5.73L52.38 5.68L629.62 5.68L631.78 5.73L633.91 5.86ZM51.16 460.37L49.95 460.45L48.76 460.57L47.58 460.74L46.41 460.95L45.26 461.21L44.13 461.52L43.02 461.86L41.92 462.25L40.85 462.68L39.8 463.15L38.77 463.66L37.76 464.21L36.77 464.8L35.81 465.42L34.88 466.08L33.98 466.77L33.1 467.49L32.25 468.25L31.43 469.04L30.64 469.86L29.88 470.71L29.15 471.59L28.46 472.5L27.8 473.43L27.18 474.39L26.6 475.37L26.05 476.38L25.54 477.41L25.07 478.47L24.64 479.54L24.25 480.63L23.9 481.75L23.6 482.88L23.34 484.03L23.12 485.19L22.95 486.37L22.83 487.57L22.76 488.77L22.73 489.99L22.73 623.94L22.76 625.16L22.83 626.37L22.95 627.56L23.12 628.74L23.34 629.91L23.6 631.05L23.9 632.19L24.25 633.3L24.64 634.39L25.07 635.47L25.54 636.52L26.05 637.55L26.6 638.56L27.18 639.54L27.8 640.5L28.46 641.43L29.15 642.34L29.88 643.22L30.64 644.07L31.43 644.89L32.25 645.68L33.1 646.44L33.98 647.16L34.88 647.85L35.81 648.51L36.77 649.13L37.76 649.72L38.77 650.27L39.8 650.78L40.85 651.25L41.92 651.68L43.02 652.06L44.13 652.41L45.26 652.71L46.41 652.97L47.58 653.19L48.76 653.35L49.95 653.48L51.16 653.55L52.38 653.57L629.62 653.57L630.84 653.55L632.05 653.47L633.24 653.35L634.42 653.18L635.59 652.97L636.74 652.71L637.87 652.41L638.98 652.06L640.08 651.67L641.15 651.24L642.2 650.77L643.23 650.26L644.24 649.71L645.23 649.12L646.19 648.5L647.12 647.84L648.02 647.15L648.9 646.43L649.75 645.67L650.57 644.88L651.36 644.06L652.12 643.21L652.85 642.33L653.54 641.42L654.2 640.49L654.82 639.53L655.4 638.55L655.95 637.54L656.46 636.51L656.93 635.46L657.36 634.38L657.75 633.29L658.1 632.17L658.4 631.04L658.66 629.89L658.88 628.73L659.05 627.55L659.17 626.36L659.24 625.15L659.27 623.93L659.27 489.99L659.24 488.77L659.17 487.57L659.05 486.37L658.88 485.19L658.66 484.03L658.4 482.88L658.1 481.75L657.75 480.63L657.36 479.54L656.93 478.47L656.46 477.41L655.95 476.38L655.4 475.37L654.82 474.39L654.2 473.43L653.54 472.5L652.85 471.59L652.12 470.71L651.36 469.86L650.57 469.04L649.75 468.25L648.9 467.49L648.02 466.77L647.12 466.08L646.18 465.42L645.22 464.8L644.24 464.21L643.23 463.66L642.2 463.15L641.15 462.68L640.07 462.25L638.98 461.86L637.86 461.52L636.73 461.21L635.58 460.95L634.42 460.74L633.24 460.57L632.04 460.45L630.83 460.37L629.61 460.35L52.38 460.35L51.16 460.37ZM51.16 244.41L49.95 244.48L48.76 244.6L47.58 244.77L46.41 244.99L45.26 245.25L44.13 245.55L43.02 245.9L41.92 246.29L40.85 246.72L39.8 247.19L38.77 247.7L37.76 248.25L36.77 248.83L35.81 249.45L34.88 250.11L33.98 250.8L33.1 251.53L32.25 252.29L31.43 253.08L30.64 253.9L29.88 254.75L29.15 255.63L28.46 256.53L27.8 257.46L27.18 258.42L26.6 259.41L26.05 260.42L25.54 261.45L25.07 262.5L24.64 263.57L24.25 264.67L23.9 265.78L23.6 266.91L23.34 268.06L23.12 269.23L22.95 270.41L22.83 271.6L22.76 272.81L22.73 274.03L22.73 407.97L22.76 409.19L22.83 410.4L22.95 411.59L23.12 412.77L23.34 413.94L23.6 415.09L23.9 416.22L24.25 417.33L24.64 418.43L25.07 419.5L25.54 420.55L26.05 421.58L26.6 422.59L27.18 423.58L27.8 424.53L28.46 425.47L29.15 426.37L29.88 427.25L30.64 428.1L31.43 428.92L32.25 429.71L33.1 430.47L33.98 431.2L34.88 431.89L35.81 432.54L36.77 433.17L37.76 433.75L38.77 434.3L39.8 434.81L40.85 435.28L41.92 435.71L43.02 436.1L44.13 436.44L45.26 436.75L46.41 437.01L47.58 437.22L48.76 437.39L49.95 437.51L51.16 437.58L52.38 437.61L629.62 437.61L630.84 437.58L632.05 437.51L633.24 437.39L634.42 437.22L635.59 437L636.74 436.74L637.87 436.44L638.98 436.09L640.08 435.7L641.15 435.27L642.2 434.8L643.23 434.29L644.24 433.74L645.23 433.16L646.19 432.54L647.12 431.88L648.02 431.19L648.9 430.46L649.75 429.7L650.57 428.91L651.36 428.09L652.12 427.24L652.85 426.36L653.54 425.46L654.2 424.52L654.82 423.56L655.4 422.58L655.95 421.57L656.46 420.54L656.93 419.49L657.36 418.41L657.75 417.32L658.1 416.21L658.4 415.08L658.66 413.93L658.88 412.76L659.05 411.58L659.17 410.39L659.24 409.18L659.27 407.96L659.27 274.03L659.24 272.81L659.17 271.6L659.05 270.41L658.88 269.23L658.66 268.06L658.4 266.91L658.1 265.78L657.75 264.67L657.36 263.57L656.93 262.5L656.46 261.45L655.95 260.42L655.4 259.41L654.82 258.42L654.2 257.46L653.54 256.53L652.85 255.63L652.12 254.75L651.36 253.9L650.57 253.08L649.75 252.29L648.9 251.53L648.02 250.8L647.12 250.11L646.18 249.45L645.22 248.83L644.24 248.25L643.23 247.7L642.2 247.19L641.15 246.72L640.07 246.29L638.98 245.9L637.86 245.55L636.73 245.25L635.58 244.99L634.42 244.77L633.24 244.6L632.04 244.48L630.83 244.41L629.61 244.38L52.38 244.38L51.16 244.41ZM51.16 28.44L49.95 28.52L48.76 28.64L47.58 28.81L46.41 29.02L45.26 29.28L44.13 29.58L43.02 29.93L41.92 30.32L40.85 30.75L39.8 31.22L38.77 31.73L37.76 32.28L36.77 32.86L35.81 33.49L34.88 34.14L33.98 34.84L33.1 35.56L32.25 36.32L31.43 37.11L30.64 37.93L29.88 38.78L29.15 39.66L28.46 40.56L27.8 41.5L27.18 42.46L26.6 43.44L26.05 44.45L25.54 45.48L25.07 46.53L24.64 47.61L24.25 48.7L23.9 49.81L23.6 50.95L23.34 52.09L23.12 53.26L22.95 54.44L22.83 55.63L22.76 56.84L22.73 58.06L22.73 192.01L22.75 192.82L22.81 193.63L22.9 194.44L23.03 195.24L23.2 196.04L23.4 196.84L23.64 197.63L23.92 198.42L24.23 199.21L24.59 199.99L24.98 200.76L25.4 201.54L25.86 202.31L26.36 203.07L26.9 203.83L27.48 204.59L28.09 205.35L28.74 206.1L29.42 206.84L30.14 207.59L30.9 208.33L31.7 209.06L32.53 209.79L33.41 210.52L34.31 211.24L35.26 211.96L36.24 212.68L37.26 213.39L38.32 214.1L39.41 214.8L40.54 215.5L41.71 216.2L42.91 216.89L44.15 217.58L45.43 218.27L46.75 218.95L48.1 219.63L49.49 220.3L50.91 220.97L52.38 221.64L629.62 221.64L630.84 221.61L632.05 221.54L633.24 221.42L634.42 221.25L635.59 221.04L636.74 220.78L637.87 220.47L638.98 220.12L640.08 219.74L641.15 219.31L642.2 218.83L643.23 218.32L644.24 217.78L645.23 217.19L646.19 216.57L647.12 215.91L648.02 215.22L648.9 214.49L649.75 213.74L650.57 212.95L651.36 212.13L652.12 211.28L652.85 210.4L653.54 209.49L654.2 208.56L654.82 207.6L655.4 206.61L655.95 205.61L656.46 204.57L656.93 203.52L657.36 202.45L657.75 201.35L658.1 200.24L658.4 199.11L658.66 197.96L658.88 196.8L659.05 195.62L659.17 194.42L659.24 193.21L659.27 191.99L659.27 58.06L659.24 56.84L659.17 55.63L659.05 54.44L658.88 53.26L658.66 52.09L658.4 50.95L658.1 49.81L657.75 48.7L657.36 47.61L656.93 46.53L656.46 45.48L655.95 44.45L655.4 43.44L654.82 42.46L654.2 41.5L653.54 40.56L652.85 39.66L652.12 38.78L651.36 37.93L650.57 37.11L649.75 36.32L648.9 35.56L648.02 34.84L647.12 34.14L646.18 33.49L645.22 32.86L644.24 32.28L643.23 31.73L642.2 31.22L641.15 30.75L640.07 30.32L638.98 29.93L637.86 29.58L636.73 29.28L635.58 29.02L634.42 28.81L633.24 28.64L632.04 28.52L630.83 28.44L629.61 28.42L52.38 28.42L51.16 28.44Z" id="ebYkMcrH"></path><path d="M123.54 290.02L125.6 290.23L127.63 290.52L129.64 290.89L131.63 291.34L133.58 291.86L135.5 292.46L137.39 293.13L139.24 293.88L141.06 294.69L142.83 295.57L144.57 296.51L146.27 297.53L147.93 298.6L149.54 299.73L151.1 300.93L152.62 302.18L154.08 303.49L155.5 304.85L156.86 306.27L158.17 307.73L159.42 309.25L160.62 310.81L161.75 312.42L162.82 314.08L163.84 315.78L164.78 317.52L165.66 319.29L166.47 321.11L167.22 322.96L167.89 324.85L168.49 326.77L169.01 328.72L169.46 330.71L169.83 332.72L170.12 334.75L170.33 336.81L170.46 338.9L170.5 341L170.46 343.1L170.33 345.19L170.12 347.25L169.83 349.28L169.46 351.29L169.01 353.28L168.49 355.23L167.89 357.15L167.22 359.04L166.47 360.89L165.66 362.71L164.78 364.48L163.84 366.22L162.82 367.92L161.75 369.58L160.62 371.19L159.42 372.75L158.17 374.27L156.86 375.73L155.5 377.15L154.08 378.51L152.62 379.82L151.1 381.07L149.54 382.27L147.93 383.4L146.27 384.47L144.57 385.49L142.83 386.43L141.06 387.31L139.24 388.12L137.39 388.87L135.5 389.54L133.58 390.14L131.63 390.66L129.64 391.11L127.63 391.48L125.6 391.77L123.54 391.98L121.45 392.11L119.35 392.15L117.25 392.11L115.16 391.98L113.1 391.77L111.07 391.48L109.06 391.11L107.07 390.66L105.12 390.14L103.2 389.54L101.31 388.87L99.46 388.12L97.64 387.31L95.87 386.43L94.13 385.49L92.43 384.47L90.77 383.4L89.16 382.27L87.6 381.07L86.08 379.82L84.62 378.51L83.2 377.15L81.84 375.73L80.53 374.27L79.28 372.75L78.08 371.19L76.95 369.58L75.88 367.92L74.86 366.22L73.92 364.48L73.04 362.71L72.23 360.89L71.48 359.04L70.81 357.15L70.21 355.23L69.69 353.28L69.24 351.29L68.87 349.28L68.58 347.25L68.37 345.19L68.24 343.1L68.2 341L68.24 338.9L68.37 336.81L68.58 334.75L68.87 332.72L69.24 330.71L69.69 328.72L70.21 326.77L70.81 324.85L71.48 322.96L72.23 321.11L73.04 319.29L73.92 317.52L74.86 315.78L75.88 314.08L76.95 312.42L78.08 310.81L79.28 309.25L80.53 307.73L81.84 306.27L83.2 304.85L84.62 303.49L86.08 302.18L87.6 300.93L89.16 299.73L90.77 298.6L92.43 297.53L94.13 296.51L95.87 295.57L97.64 294.69L99.46 293.88L101.31 293.13L103.2 292.46L105.12 291.86L107.07 291.34L109.06 290.89L111.07 290.52L113.1 290.23L115.16 290.02L117.25 289.89L119.35 289.85L121.45 289.89L123.54 290.02ZM116.7 312.71L115.39 312.86L114.11 313.07L112.84 313.33L111.6 313.66L110.38 314.03L109.18 314.46L108.01 314.94L106.87 315.48L105.75 316.05L104.66 316.68L103.61 317.35L102.58 318.07L101.59 318.83L100.63 319.63L99.71 320.48L98.83 321.36L97.99 322.28L97.19 323.23L96.42 324.23L95.71 325.25L95.03 326.31L94.41 327.39L93.83 328.51L93.3 329.66L92.81 330.83L92.38 332.03L92.01 333.25L91.69 334.49L91.42 335.76L91.21 337.04L91.06 338.34L90.96 339.66L90.93 341L90.96 342.34L91.06 343.66L91.21 344.96L91.42 346.24L91.69 347.51L92.01 348.75L92.38 349.97L92.81 351.17L93.3 352.34L93.83 353.49L94.41 354.61L95.03 355.69L95.71 356.75L96.42 357.77L97.19 358.77L97.99 359.72L98.83 360.64L99.71 361.52L100.63 362.37L101.59 363.17L102.58 363.93L103.61 364.65L104.66 365.32L105.75 365.95L106.87 366.52L108.01 367.06L109.18 367.54L110.38 367.97L111.6 368.34L112.84 368.67L114.11 368.93L115.39 369.14L116.7 369.29L118.01 369.39L119.35 369.42L120.69 369.39L122 369.29L123.31 369.14L124.59 368.93L125.86 368.67L127.1 368.34L128.32 367.97L129.52 367.54L130.69 367.06L131.83 366.52L132.95 365.95L134.04 365.32L135.09 364.65L136.12 363.93L137.11 363.17L138.07 362.37L138.99 361.52L139.87 360.64L140.71 359.72L141.51 358.77L142.28 357.77L142.99 356.75L143.67 355.69L144.29 354.61L144.87 353.49L145.4 352.34L145.89 351.17L146.32 349.97L146.69 348.75L147.01 347.51L147.28 346.24L147.49 344.96L147.64 343.66L147.74 342.34L147.77 341L147.74 339.66L147.64 338.34L147.49 337.04L147.28 335.76L147.01 334.49L146.69 333.25L146.32 332.03L145.89 330.83L145.4 329.66L144.87 328.51L144.29 327.39L143.67 326.31L142.99 325.25L142.28 324.23L141.51 323.23L140.71 322.28L139.87 321.36L138.99 320.48L138.07 319.63L137.11 318.83L136.12 318.07L135.09 317.35L134.04 316.68L132.95 316.05L131.83 315.48L130.69 314.94L129.52 314.46L128.32 314.03L127.1 313.66L125.86 313.33L124.59 313.07L123.31 312.86L122 312.71L120.69 312.61L119.35 312.58L118.01 312.61L116.7 312.71Z" id="a2M6Ji8Ele"></path><path d="M568.33 312.58C562.06 312.58 556.97 317.67 556.97 323.95C556.97 330.23 562.06 335.32 568.33 335.32C574.61 335.32 579.7 330.23 579.7 323.95C579.7 317.67 574.61 312.58 568.33 312.58Z" id="h1Ty52gaVn"></path><path d="M522.87 312.58C516.59 312.58 511.5 317.67 511.5 323.95C511.5 330.23 516.59 335.32 522.87 335.32C529.14 335.32 534.23 330.23 534.23 323.95C534.23 317.67 529.14 312.58 522.87 312.58Z" id="aLdBtbf68"></path><path d="M591.07 346.68C584.79 346.68 579.7 351.77 579.7 358.05C579.7 364.33 584.79 369.42 591.07 369.42C597.34 369.42 602.43 364.33 602.43 358.05C602.43 351.77 597.34 346.68 591.07 346.68Z" id="c1YBbBrwGn"></path><path d="M545.6 346.68C539.32 346.68 534.23 351.77 534.23 358.05C534.23 364.33 539.32 369.42 545.6 369.42C551.88 369.42 556.97 364.33 556.97 358.05C556.97 351.77 551.88 346.68 545.6 346.68Z" id="ajtfB26Rx"></path><path d="M477.4 312.58C471.12 312.58 466.03 317.67 466.03 323.95C466.03 330.23 471.12 335.32 477.4 335.32C483.68 335.32 488.77 330.23 488.77 323.95C488.77 317.67 483.68 312.58 477.4 312.58Z" id="b1zPmskgmE"></path><path d="M500.13 346.68C493.86 346.68 488.77 351.77 488.77 358.05C488.77 364.33 493.86 369.42 500.13 369.42C506.41 369.42 511.5 364.33 511.5 358.05C511.5 351.77 506.41 346.68 500.13 346.68Z" id="bexkfl2j8"></path><path d="M431.93 312.58C425.66 312.58 420.57 317.67 420.57 323.95C420.57 330.23 425.66 335.32 431.93 335.32C438.21 335.32 443.3 330.23 443.3 323.95C443.3 317.67 438.21 312.58 431.93 312.58Z" id="al9MDuNrh"></path><path d="M454.67 346.68C448.39 346.68 443.3 351.77 443.3 358.05C443.3 364.33 448.39 369.42 454.67 369.42C460.94 369.42 466.03 364.33 466.03 358.05C466.03 351.77 460.94 346.68 454.67 346.68Z" id="c23A3wASii"></path><path d="M386.47 312.58C380.19 312.58 375.1 317.67 375.1 323.95C375.1 330.23 380.19 335.32 386.47 335.32C392.74 335.32 397.83 330.23 397.83 323.95C397.83 317.67 392.74 312.58 386.47 312.58Z" id="b2ipFDwOd6"></path><path d="M409.2 346.68C402.92 346.68 397.83 351.77 397.83 358.05C397.83 364.33 402.92 369.42 409.2 369.42C415.48 369.42 420.57 364.33 420.57 358.05C420.57 351.77 415.48 346.68 409.2 346.68Z" id="aRO7qYOTG"></path><path d="M123.54 505.99L125.6 506.2L127.63 506.49L129.64 506.86L131.63 507.31L133.58 507.83L135.5 508.43L137.39 509.1L139.24 509.84L141.06 510.66L142.83 511.54L144.57 512.48L146.27 513.49L147.93 514.57L149.54 515.7L151.1 516.89L152.62 518.15L154.08 519.45L155.5 520.82L156.86 522.23L158.17 523.7L159.42 525.21L160.62 526.78L161.75 528.39L162.82 530.04L163.84 531.74L164.78 533.48L165.66 535.26L166.47 537.08L167.22 538.93L167.89 540.82L168.49 542.74L169.01 544.69L169.46 546.67L169.83 548.68L170.12 550.72L170.33 552.78L170.46 554.86L170.5 556.97L170.46 559.07L170.33 561.16L170.12 563.22L169.83 565.25L169.46 567.26L169.01 569.24L168.49 571.19L167.89 573.12L167.22 575L166.47 576.86L165.66 578.67L164.78 580.45L163.84 582.19L162.82 583.89L161.75 585.54L160.62 587.15L159.42 588.72L158.17 590.23L156.86 591.7L155.5 593.12L154.08 594.48L152.62 595.79L151.1 597.04L149.54 598.23L147.93 599.37L146.27 600.44L144.57 601.45L142.83 602.4L141.06 603.28L139.24 604.09L137.39 604.83L135.5 605.5L133.58 606.1L131.63 606.63L129.64 607.08L127.63 607.45L125.6 607.74L123.54 607.95L121.45 608.07L119.35 608.12L117.25 608.07L115.16 607.95L113.1 607.74L111.07 607.45L109.06 607.08L107.07 606.63L105.12 606.1L103.2 605.5L101.31 604.83L99.46 604.09L97.64 603.28L95.87 602.4L94.13 601.45L92.43 600.44L90.77 599.37L89.16 598.23L87.6 597.04L86.08 595.79L84.62 594.48L83.2 593.12L81.84 591.7L80.53 590.23L79.28 588.72L78.08 587.15L76.95 585.54L75.88 583.89L74.86 582.19L73.92 580.45L73.04 578.67L72.23 576.86L71.48 575L70.81 573.12L70.21 571.19L69.69 569.24L69.24 567.26L68.87 565.25L68.58 563.22L68.37 561.16L68.24 559.07L68.2 556.97L68.24 554.86L68.37 552.78L68.58 550.72L68.87 548.68L69.24 546.67L69.69 544.69L70.21 542.74L70.81 540.82L71.48 538.93L72.23 537.08L73.04 535.26L73.92 533.48L74.86 531.74L75.88 530.04L76.95 528.39L78.08 526.78L79.28 525.21L80.53 523.7L81.84 522.23L83.2 520.82L84.62 519.45L86.08 518.15L87.6 516.89L89.16 515.7L90.77 514.57L92.43 513.49L94.13 512.48L95.87 511.54L97.64 510.66L99.46 509.84L101.31 509.1L103.2 508.43L105.12 507.83L107.07 507.31L109.06 506.86L111.07 506.49L113.1 506.2L115.16 505.99L117.25 505.86L119.35 505.82L121.45 505.86L123.54 505.99ZM116.7 528.67L115.39 528.82L114.11 529.03L112.84 529.3L111.6 529.62L110.38 530L109.18 530.43L108.01 530.91L106.87 531.44L105.75 532.02L104.66 532.65L103.61 533.32L102.58 534.04L101.59 534.8L100.63 535.6L99.71 536.44L98.83 537.33L97.99 538.25L97.19 539.2L96.42 540.19L95.71 541.22L95.03 542.27L94.41 543.36L93.83 544.48L93.3 545.62L92.81 546.8L92.38 547.99L92.01 549.21L91.69 550.46L91.42 551.72L91.21 553.01L91.06 554.31L90.96 555.63L90.93 556.97L90.96 558.3L91.06 559.62L91.21 560.93L91.42 562.21L91.69 563.48L92.01 564.72L92.38 565.94L92.81 567.14L93.3 568.31L93.83 569.46L94.41 570.57L95.03 571.66L95.71 572.72L96.42 573.74L97.19 574.73L97.99 575.69L98.83 576.61L99.71 577.49L100.63 578.33L101.59 579.13L102.58 579.89L103.61 580.61L104.66 581.29L105.75 581.91L106.87 582.49L108.01 583.02L109.18 583.5L110.38 583.93L111.6 584.31L112.84 584.63L114.11 584.9L115.39 585.11L116.7 585.26L118.01 585.35L119.35 585.38L120.69 585.35L122 585.26L123.31 585.11L124.59 584.9L125.86 584.63L127.1 584.31L128.32 583.93L129.52 583.5L130.69 583.02L131.83 582.49L132.95 581.91L134.04 581.29L135.09 580.61L136.12 579.89L137.11 579.13L138.07 578.33L138.99 577.49L139.87 576.61L140.71 575.69L141.51 574.73L142.28 573.74L142.99 572.72L143.67 571.66L144.29 570.57L144.87 569.46L145.4 568.31L145.89 567.14L146.32 565.94L146.69 564.72L147.01 563.48L147.28 562.21L147.49 560.93L147.64 559.62L147.74 558.3L147.77 556.97L147.74 555.63L147.64 554.31L147.49 553.01L147.28 551.72L147.01 550.46L146.69 549.21L146.32 547.99L145.89 546.8L145.4 545.62L144.87 544.48L144.29 543.36L143.67 542.27L142.99 541.22L142.28 540.19L141.51 539.2L140.71 538.25L139.87 537.33L138.99 536.44L138.07 535.6L137.11 534.8L136.12 534.04L135.09 533.32L134.04 532.65L132.95 532.02L131.83 531.44L130.69 530.91L129.52 530.43L128.32 530L127.1 529.62L125.86 529.3L124.59 529.03L123.31 528.82L122 528.67L120.69 528.58L119.35 528.55L118.01 528.58L116.7 528.67Z" id="aLBav4Qq0"></path><path d="M568.33 528.55C562.06 528.55 556.97 533.64 556.97 539.92C556.97 546.19 562.06 551.28 568.33 551.28C574.61 551.28 579.7 546.19 579.7 539.92C579.7 533.64 574.61 528.55 568.33 528.55Z" id="amjd8t6mZ"></path><path d="M522.87 528.55C516.59 528.55 511.5 533.64 511.5 539.92C511.5 546.19 516.59 551.28 522.87 551.28C529.14 551.28 534.23 546.19 534.23 539.92C534.23 533.64 529.14 528.55 522.87 528.55Z" id="blC1RlsM"></path><path d="M591.07 562.65C584.79 562.65 579.7 567.74 579.7 574.02C579.7 580.29 584.79 585.38 591.07 585.38C597.34 585.38 602.43 580.29 602.43 574.02C602.43 567.74 597.34 562.65 591.07 562.65Z" id="a1yAoq33k4"></path><path d="M545.6 562.65C539.32 562.65 534.23 567.74 534.23 574.02C534.23 580.29 539.32 585.38 545.6 585.38C551.88 585.38 556.97 580.29 556.97 574.02C556.97 567.74 551.88 562.65 545.6 562.65Z" id="b9xQHDkUd"></path><path d="M477.4 528.55C471.12 528.55 466.03 533.64 466.03 539.92C466.03 546.19 471.12 551.28 477.4 551.28C483.68 551.28 488.77 546.19 488.77 539.92C488.77 533.64 483.68 528.55 477.4 528.55Z" id="h2kRkqm632"></path><path d="M500.13 562.65C493.86 562.65 488.77 567.74 488.77 574.02C488.77 580.29 493.86 585.38 500.13 585.38C506.41 585.38 511.5 580.29 511.5 574.02C511.5 567.74 506.41 562.65 500.13 562.65Z" id="bqNG835jx"></path><path d="M431.93 528.55C425.66 528.55 420.57 533.64 420.57 539.92C420.57 546.19 425.66 551.28 431.93 551.28C438.21 551.28 443.3 546.19 443.3 539.92C443.3 533.64 438.21 528.55 431.93 528.55Z" id="aoXInYRsS"></path><path d="M454.67 562.65C448.39 562.65 443.3 567.74 443.3 574.02C443.3 580.29 448.39 585.38 454.67 585.38C460.94 585.38 466.03 580.29 466.03 574.02C466.03 567.74 460.94 562.65 454.67 562.65Z" id="c2dWUPPEaf"></path><path d="M386.47 528.55C380.19 528.55 375.1 533.64 375.1 539.92C375.1 546.19 380.19 551.28 386.47 551.28C392.74 551.28 397.83 546.19 397.83 539.92C397.83 533.64 392.74 528.55 386.47 528.55Z" id="a1RYFa16KC"></path><path d="M409.2 562.65C402.92 562.65 397.83 567.74 397.83 574.02C397.83 580.29 402.92 585.38 409.2 585.38C415.48 585.38 420.57 580.29 420.57 574.02C420.57 567.74 415.48 562.65 409.2 562.65Z" id="d39onZSTkn"></path></defs><g><g><g><use xlink:href="#cjCXuQoyY" opacity="1" fill="#1081a7" fill-opacity="1"></use><g><use xlink:href="#cjCXuQoyY" opacity="1" fill-opacity="0" stroke="#000000" stroke-width="1" stroke-opacity="0"></use></g></g><g><use xlink:href="#c40cY8hC42" opacity="1" fill="#1081a7" fill-opacity="1"></use><g><use xlink:href="#c40cY8hC42" opacity="1" fill-opacity="0" stroke="#000000" stroke-width="1" stroke-opacity="0"></use></g></g><g><use xlink:href="#dHSpKE2VG" opacity="1" fill="#1081a7" fill-opacity="1"></use><g><use xlink:href="#dHSpKE2VG" opacity="1" fill-opacity="0" stroke="#000000" stroke-width="1" stroke-opacity="0"></use></g></g><g><use xlink:href="#a1JhPXtaxX" opacity="1" fill="#1081a7" fill-opacity="1"></use><g><use xlink:href="#a1JhPXtaxX" opacity="1" fill-opacity="0" stroke="#000000" stroke-width="1" stroke-opacity="0"></use></g></g><g><use xlink:href="#djbZaLmrc" opacity="1" fill="#1081a7" fill-opacity="1"></use><g><use xlink:href="#djbZaLmrc" opacity="1" fill-opacity="0" stroke="#000000" stroke-width="1" stroke-opacity="0"></use></g></g><g><use xlink:href="#a6sF2lufVW" opacity="1" fill="#1081a7" fill-opacity="1"></use><g><use xlink:href="#a6sF2lufVW" opacity="1" fill-opacity="0" stroke="#000000" stroke-width="1" stroke-opacity="0"></use></g></g><g><use xlink:href="#c2XmERPG2o" opacity="1" fill="#1081a7" fill-opacity="1"></use><g><use xlink:href="#c2XmERPG2o" opacity="1" fill-opacity="0" stroke="#000000" stroke-width="1" stroke-opacity="0"></use></g></g><g><use xlink:href="#d1uXkMHbrM" opacity="1" fill="#1081a7" fill-opacity="1"></use><g><use xlink:href="#d1uXkMHbrM" opacity="1" fill-opacity="0" stroke="#000000" stroke-width="1" stroke-opacity="0"></use></g></g><g><use xlink:href="#d1K8OiQ2vd" opacity="1" fill="#1081a7" fill-opacity="1"></use><g><use xlink:href="#d1K8OiQ2vd" opacity="1" fill-opacity="0" stroke="#000000" stroke-width="1" stroke-opacity="0"></use></g></g><g><use xlink:href="#a5aionufK" opacity="1" fill="#1081a7" fill-opacity="1"></use><g><use xlink:href="#a5aionufK" opacity="1" fill-opacity="0" stroke="#000000" stroke-width="1" stroke-opacity="0"></use></g></g><g><use xlink:href="#gFIvWOFBf" opacity="1" fill="#1081a7" fill-opacity="1"></use><g><use xlink:href="#gFIvWOFBf" opacity="1" fill-opacity="0" stroke="#000000" stroke-width="1" stroke-opacity="0"></use></g></g><g><use xlink:href="#ebYkMcrH" opacity="1" fill="#1081a7" fill-opacity="1"></use><g><use xlink:href="#ebYkMcrH" opacity="1" fill-opacity="0" stroke="#000000" stroke-width="1" stroke-opacity="0"></use></g></g><g><use xlink:href="#a2M6Ji8Ele" opacity="1" fill="#1081a7" fill-opacity="1"></use><g><use xlink:href="#a2M6Ji8Ele" opacity="1" fill-opacity="0" stroke="#000000" stroke-width="1" stroke-opacity="0"></use></g></g><g><use xlink:href="#h1Ty52gaVn" opacity="1" fill="#1081a7" fill-opacity="1"></use><g><use xlink:href="#h1Ty52gaVn" opacity="1" fill-opacity="0" stroke="#000000" stroke-width="1" stroke-opacity="0"></use></g></g><g><use xlink:href="#aLdBtbf68" opacity="1" fill="#1081a7" fill-opacity="1"></use><g><use xlink:href="#aLdBtbf68" opacity="1" fill-opacity="0" stroke="#000000" stroke-width="1" stroke-opacity="0"></use></g></g><g><use xlink:href="#c1YBbBrwGn" opacity="1" fill="#1081a7" fill-opacity="1"></use><g><use xlink:href="#c1YBbBrwGn" opacity="1" fill-opacity="0" stroke="#000000" stroke-width="1" stroke-opacity="0"></use></g></g><g><use xlink:href="#ajtfB26Rx" opacity="1" fill="#1081a7" fill-opacity="1"></use><g><use xlink:href="#ajtfB26Rx" opacity="1" fill-opacity="0" stroke="#000000" stroke-width="1" stroke-opacity="0"></use></g></g><g><use xlink:href="#b1zPmskgmE" opacity="1" fill="#1081a7" fill-opacity="1"></use><g><use xlink:href="#b1zPmskgmE" opacity="1" fill-opacity="0" stroke="#000000" stroke-width="1" stroke-opacity="0"></use></g></g><g><use xlink:href="#bexkfl2j8" opacity="1" fill="#1081a7" fill-opacity="1"></use><g><use xlink:href="#bexkfl2j8" opacity="1" fill-opacity="0" stroke="#000000" stroke-width="1" stroke-opacity="0"></use></g></g><g><use xlink:href="#al9MDuNrh" opacity="1" fill="#1081a7" fill-opacity="1"></use><g><use xlink:href="#al9MDuNrh" opacity="1" fill-opacity="0" stroke="#000000" stroke-width="1" stroke-opacity="0"></use></g></g><g><use xlink:href="#c23A3wASii" opacity="1" fill="#1081a7" fill-opacity="1"></use><g><use xlink:href="#c23A3wASii" opacity="1" fill-opacity="0" stroke="#000000" stroke-width="1" stroke-opacity="0"></use></g></g><g><use xlink:href="#b2ipFDwOd6" opacity="1" fill="#1081a7" fill-opacity="1"></use><g><use xlink:href="#b2ipFDwOd6" opacity="1" fill-opacity="0" stroke="#000000" stroke-width="1" stroke-opacity="0"></use></g></g><g><use xlink:href="#aRO7qYOTG" opacity="1" fill="#1081a7" fill-opacity="1"></use><g><use xlink:href="#aRO7qYOTG" opacity="1" fill-opacity="0" stroke="#000000" stroke-width="1" stroke-opacity="0"></use></g></g><g><use xlink:href="#aLBav4Qq0" opacity="1" fill="#1081a7" fill-opacity="1"></use><g><use xlink:href="#aLBav4Qq0" opacity="1" fill-opacity="0" stroke="#000000" stroke-width="1" stroke-opacity="0"></use></g></g><g><use xlink:href="#amjd8t6mZ" opacity="1" fill="#1081a7" fill-opacity="1"></use><g><use xlink:href="#amjd8t6mZ" opacity="1" fill-opacity="0" stroke="#000000" stroke-width="1" stroke-opacity="0"></use></g></g><g><use xlink:href="#blC1RlsM" opacity="1" fill="#1081a7" fill-opacity="1"></use><g><use xlink:href="#blC1RlsM" opacity="1" fill-opacity="0" stroke="#000000" stroke-width="1" stroke-opacity="0"></use></g></g><g><use xlink:href="#a1yAoq33k4" opacity="1" fill="#1081a7" fill-opacity="1"></use><g><use xlink:href="#a1yAoq33k4" opacity="1" fill-opacity="0" stroke="#000000" stroke-width="1" stroke-opacity="0"></use></g></g><g><use xlink:href="#b9xQHDkUd" opacity="1" fill="#1081a7" fill-opacity="1"></use><g><use xlink:href="#b9xQHDkUd" opacity="1" fill-opacity="0" stroke="#000000" stroke-width="1" stroke-opacity="0"></use></g></g><g><use xlink:href="#h2kRkqm632" opacity="1" fill="#1081a7" fill-opacity="1"></use><g><use xlink:href="#h2kRkqm632" opacity="1" fill-opacity="0" stroke="#000000" stroke-width="1" stroke-opacity="0"></use></g></g><g><use xlink:href="#bqNG835jx" opacity="1" fill="#1081a7" fill-opacity="1"></use><g><use xlink:href="#bqNG835jx" opacity="1" fill-opacity="0" stroke="#000000" stroke-width="1" stroke-opacity="0"></use></g></g><g><use xlink:href="#aoXInYRsS" opacity="1" fill="#1081a7" fill-opacity="1"></use><g><use xlink:href="#aoXInYRsS" opacity="1" fill-opacity="0" stroke="#000000" stroke-width="1" stroke-opacity="0"></use></g></g><g><use xlink:href="#c2dWUPPEaf" opacity="1" fill="#1081a7" fill-opacity="1"></use><g><use xlink:href="#c2dWUPPEaf" opacity="1" fill-opacity="0" stroke="#000000" stroke-width="1" stroke-opacity="0"></use></g></g><g><use xlink:href="#a1RYFa16KC" opacity="1" fill="#1081a7" fill-opacity="1"></use><g><use xlink:href="#a1RYFa16KC" opacity="1" fill-opacity="0" stroke="#000000" stroke-width="1" stroke-opacity="0"></use></g></g><g><use xlink:href="#d39onZSTkn" opacity="1" fill="#1081a7" fill-opacity="1"></use><g><use xlink:href="#d39onZSTkn" opacity="1" fill-opacity="0" stroke="#000000" stroke-width="1" stroke-opacity="0"></use></g></g></g></g></svg>