<svg fill="#1081a7" height="512" viewBox="0 0 64 64" width="512" xmlns="http://www.w3.org/2000/svg"><path d="m22 53a3 3 0 1 0 3 3 3 3 0 0 0 -3-3zm0 4a1 1 0 1 1 1-1 1 1 0 0 1 -1 1z"/><path d="m33.768 17.359a1 1 0 0 0 -.768-.359h-21.323l-1.748-4.371a1 1 0 0 0 -.929-.629h-3v2h2.323l1.711 4.279 1.982 10.9a1 1 0 0 0 .984.821h1a3 3 0 0 0 6 0h4a3 3 0 0 0 6 0h1a1 1 0 0 0 .984-.821l2-11a1 1 0 0 0 -.216-.82zm-16.768 13.641a1 1 0 1 1 1-1 1 1 0 0 1 -1 1zm10 0a1 1 0 1 1 1-1 1 1 0 0 1 -1 1zm3.166-3h-.946a2.964 2.964 0 0 0 -4.44 0h-5.56a2.964 2.964 0 0 0 -4.44 0h-.946l-1.634-9h19.6z"/><path d="m20 5h4v2h-4z"/><path d="m59 35h-17v-28a5.006 5.006 0 0 0 -5-5h-30a5.006 5.006 0 0 0 -5 5v50a5.006 5.006 0 0 0 5 5h30a5.006 5.006 0 0 0 5-5h17a3 3 0 0 0 3-3v-16a3 3 0 0 0 -3-3zm1 3v1h-32v-1a1 1 0 0 1 1-1h30a1 1 0 0 1 1 1zm-32 3h32v2h-32zm1-6a3 3 0 0 0 -3 3v12h-22v-40h36v25zm-22-31h30a3 3 0 0 1 3 3v1h-36v-1a3 3 0 0 1 3-3zm30 56h-30a3 3 0 0 1 -3-3v-5h22v2a3 3 0 0 0 3 3h11a3 3 0 0 1 -3 3zm22-5h-30a1 1 0 0 1 -1-1v-9h32v9a1 1 0 0 1 -1 1z"/><path d="m55 47a2.978 2.978 0 0 0 -1.5.408 3 3 0 1 0 0 5.184 3 3 0 1 0 1.5-5.592zm0 4a.994.994 0 0 1 -.748-.348 1 1 0 0 0 -1.5 0 1 1 0 1 1 0-1.3 1.03 1.03 0 0 0 1.5 0 1 1 0 1 1 .748 1.648z"/><path d="m30 47h4v2h-4z"/><path d="m30 51h7v2h-7z"/><path d="m6 38h4v2h-4z"/><path d="m12 38h9v2h-9z"/><path d="m6 42h4v2h-4z"/><path d="m12 42h9v2h-9z"/></svg>