<svg fill="#1081a7" id="Layer_1" height="512" viewBox="0 0 128 128" width="512" xmlns="http://www.w3.org/2000/svg" data-name="Layer 1"><path d="m92.958 83.581-5.935-.542a9.528 9.528 0 0 0 -2.948-8.7 25.825 25.825 0 0 0 7.663-15.027 7.461 7.461 0 0 0 .262-14.571v-5.491a28 28 0 0 0 -56 0v5.491a7.462 7.462 0 0 0 .259 14.567 26.01 26.01 0 0 0 16.272 20.542 5.484 5.484 0 0 1 -3.677 2.47l-13.812 1.26c-12.905.048-23.792 11.42-23.792 24.874v6.421a1.75 1.75 0 0 0 3.5 0v-6.421c0-11.585 9.33-21.373 20.373-21.373.053 0 .106 0 .159-.007l13.088-1.195 9.13 10.047a1.75 1.75 0 0 0 2.222.308l2.531-1.579v20.345a1.75 1.75 0 0 0 3.5 0v-20.345l2.531 1.579a1.75 1.75 0 0 0 2.222-.308l4.7-5.177a9.462 9.462 0 0 0 5.416-.221l.126.116v24.23a1.75 1.75 0 0 0 3.5 0v-21.006l6.229 5.738a3.931 3.931 0 0 0 5.458-.112 3.933 3.933 0 0 0 .111-5.458l-6.7-7.27 3.367.307c.053 0 .106.007.159.007 11.043 0 20.373 9.788 20.373 21.373v6.421a1.75 1.75 0 0 0 3.5 0v-6.421c.005-13.453-10.882-24.825-23.787-24.872zm1.259-31.589a3.958 3.958 0 0 1 -2.217 3.541v-7.083a3.958 3.958 0 0 1 2.217 3.542zm-54.717-12.742a24.5 24.5 0 0 1 49 0v14.892l-1.778-1.376v-4.785a8.73 8.73 0 0 0 -4.281-7.562 33.238 33.238 0 0 1 -8.994-7.719 1.75 1.75 0 0 0 -2.547-.27 39.384 39.384 0 0 1 -21.715 9.3 8.82 8.82 0 0 0 -7.9 8.771v2.263l-1.785 1.378zm-5.717 12.742a3.958 3.958 0 0 1 2.217-3.542v7.083a3.958 3.958 0 0 1 -2.217-3.541zm5.891 6.441 4.426-3.424a1.752 1.752 0 0 0 .679-1.384v-3.125a5.326 5.326 0 0 1 4.777-5.291 43.062 43.062 0 0 0 22.269-9 37.264 37.264 0 0 0 8.861 7.235 5.22 5.22 0 0 1 2.536 4.534v5.643a1.752 1.752 0 0 0 .679 1.384l4.427 3.425a22.354 22.354 0 0 1 -7.319 13.978 9.6 9.6 0 0 0 -12.492 5.564 22.736 22.736 0 0 1 -2.458.149h-4.118a22.47 22.47 0 0 1 -22.267-19.689zm24.326 30.109-5.222-7.117a26.051 26.051 0 0 0 3.164.2h4.117c.609 0 1.219-.029 1.827-.071a9.641 9.641 0 0 0 .144 1.5zm-4.895 3.95-6.971-7.673a9.028 9.028 0 0 0 2.936-2.529l6.4 8.725zm9.789 0-2.367-1.478 3.052-4.159a9.716 9.716 0 0 0 2.3 2.349zm2.483-11.1a6.143 6.143 0 0 1 12.223-.868l-.539-.585a4.689 4.689 0 0 0 -3.382-1.524 4.776 4.776 0 0 0 -3.439 1.385 4.729 4.729 0 0 0 .14 6.823l.992.914a6.15 6.15 0 0 1 -5.994-6.137zm22.083 15.627a.44.44 0 0 1 -.611.013l-14.1-12.985a1.229 1.229 0 0 1 .832-2.133h.026a1.219 1.219 0 0 1 .879.4l12.984 14.1a.44.44 0 0 1 -.01.605z"/><path d="m95.167 102.625a1.75 1.75 0 0 0 -1.75 1.75v10.5a1.75 1.75 0 0 0 3.5 0v-10.5a1.75 1.75 0 0 0 -1.75-1.75z"/><path d="m32.833 102.625a1.75 1.75 0 0 0 -1.75 1.75v10.5a1.75 1.75 0 0 0 3.5 0v-10.5a1.75 1.75 0 0 0 -1.75-1.75z"/><path d="m55.122 50.208a2.583 2.583 0 1 0 2.583 2.583 2.587 2.587 0 0 0 -2.583-2.583z"/><path d="m72.878 55.375a2.583 2.583 0 1 0 -2.583-2.583 2.586 2.586 0 0 0 2.583 2.583z"/><path d="m61.33 62.142 1.67 1.166a1.75 1.75 0 1 0 2-2.867l-.671-.47 1.361-5.24a1.75 1.75 0 1 0 -3.387-.88l-1.663 6.417a1.747 1.747 0 0 0 .69 1.874z"/><path d="m69.736 69.608a1.75 1.75 0 0 0 -1.057-3.337 18.6 18.6 0 0 1 -9.4-.012 1.75 1.75 0 0 0 -.979 3.36 23.28 23.28 0 0 0 5.979.774 18.169 18.169 0 0 0 5.457-.785z"/><path d="m44.148 33.018a1.748 1.748 0 0 0 2.245-1.041 20.023 20.023 0 0 1 16.15-11.865 1.75 1.75 0 1 0 -.42-3.475 23.309 23.309 0 0 0 -19.017 14.136 1.75 1.75 0 0 0 1.042 2.245z"/></svg>