<?xml version="1.0" encoding="UTF-8" standalone="no"?>
<!DOCTYPE svg PUBLIC "-//W3C//DTD SVG 1.1//EN" "http://www.w3.org/Graphics/SVG/1.1/DTD/svg11.dtd">
<svg version="1.1" xmlns="http://www.w3.org/2000/svg" xmlns:xlink="http://www.w3.org/1999/xlink" preserveAspectRatio="xMidYMid meet" viewBox="0 0 682 682" width="682" height="682"><defs><path d="M487.3 250.11L487.69 250.15L488.08 250.2L488.47 250.26L488.86 250.34L489.24 250.43L489.62 250.54L490 250.66L490.37 250.79L490.74 250.93L491.11 251.09L491.47 251.26L491.82 251.45L492.17 251.65L492.52 251.86L492.86 252.08L493.19 252.32L493.51 252.57L493.83 252.83L494.14 253.11L494.44 253.4L494.73 253.7L495.01 254.01L495.27 254.32L495.52 254.65L495.76 254.98L495.98 255.32L496.2 255.66L496.39 256.01L496.58 256.37L496.75 256.73L496.91 257.09L497.05 257.46L497.19 257.84L497.31 258.21L497.41 258.6L497.5 258.98L497.58 259.37L497.65 259.75L497.7 260.15L497.74 260.54L497.76 260.93L497.77 261.32L497.77 261.72L497.75 262.11L497.72 262.5L497.68 262.9L497.62 263.29L497.55 263.68L497.47 264.06L497.37 264.45L497.26 264.83L497.13 265.21L496.99 265.59L496.84 265.96L496.67 266.33L496.49 266.69L496.29 267.05L496.08 267.4L495.86 267.75L495.62 268.09L389.19 415.22L388.66 415.94L388.12 416.64L387.56 417.33L386.98 418L386.4 418.66L385.8 419.31L385.19 419.94L384.56 420.56L383.92 421.16L383.28 421.75L382.62 422.32L381.94 422.88L381.26 423.42L380.57 423.95L379.87 424.46L379.15 424.96L378.43 425.44L377.69 425.9L376.95 426.35L376.2 426.78L375.43 427.2L374.66 427.6L373.88 427.98L373.1 428.35L372.3 428.69L371.5 429.03L370.68 429.34L369.87 429.64L369.04 429.92L368.21 430.18L367.37 430.43L366.53 430.65L365.67 430.86L364.82 431.05L363.96 431.23L363.09 431.38L362.22 431.52L361.34 431.63L360.46 431.73L359.57 431.81L359.49 431.81L359.41 431.82L359.33 431.83L359.25 431.83L359.17 431.84L359.09 431.84L359.01 431.85L358.93 431.85L358.85 431.86L358.77 431.86L358.69 431.87L358.61 431.87L358.53 431.87L358.45 431.88L358.38 431.88L358.3 431.89L358.22 431.89L358.14 431.89L358.06 431.9L357.98 431.9L357.9 431.9L357.82 431.91L357.74 431.91L357.66 431.91L357.58 431.91L357.5 431.92L357.42 431.92L357.34 431.92L357.26 431.92L357.18 431.92L357.1 431.93L357.02 431.93L356.95 431.93L356.87 431.93L356.79 431.93L356.71 431.93L356.63 431.93L356.55 431.93L356.47 431.93L356.39 431.93L355.59 431.93L354.79 431.9L353.99 431.86L353.2 431.81L352.4 431.74L351.61 431.65L350.82 431.55L350.04 431.43L349.26 431.3L348.48 431.15L347.71 430.99L346.94 430.81L346.17 430.62L345.41 430.41L344.65 430.19L343.9 429.96L343.15 429.7L342.4 429.44L341.67 429.16L340.93 428.86L340.21 428.56L339.49 428.23L338.77 427.89L338.07 427.54L337.36 427.18L336.67 426.8L335.98 426.41L335.3 426L334.63 425.58L333.96 425.14L333.31 424.7L332.66 424.23L332.02 423.76L331.38 423.27L330.76 422.77L330.15 422.25L329.54 421.73L328.94 421.19L328.36 420.63L327.78 420.07L327.16 419.43L326.55 418.79L325.97 418.13L325.39 417.46L324.83 416.78L324.29 416.09L323.76 415.39L323.25 414.68L322.76 413.96L322.28 413.23L321.82 412.49L321.38 411.74L320.95 410.98L320.54 410.22L320.14 409.45L319.76 408.66L319.4 407.88L319.06 407.08L318.73 406.28L318.42 405.47L318.13 404.65L317.86 403.83L317.6 403L317.36 402.16L317.14 401.32L316.94 400.48L316.75 399.63L316.59 398.78L316.44 397.92L316.31 397.06L316.2 396.19L316.1 395.32L316.03 394.45L315.97 393.57L315.94 392.69L315.92 391.81L315.92 390.93L315.94 390.05L315.98 389.16L316.04 388.27L316.12 387.39L316.22 386.51L316.33 385.63L316.47 384.76L316.62 383.89L316.79 383.03L316.98 382.17L317.19 381.32L317.42 380.48L317.66 379.64L317.93 378.81L318.21 377.98L318.5 377.16L318.82 376.35L319.15 375.55L319.5 374.75L319.86 373.97L320.25 373.19L320.65 372.42L321.06 371.65L321.49 370.9L321.94 370.16L322.4 369.42L322.88 368.7L323.38 367.99L323.89 367.28L324.42 366.59L324.96 365.91L325.51 365.24L326.08 364.58L326.67 363.93L327.27 363.3L327.89 362.67L328.52 362.06L329.16 361.47L329.82 360.88L330.49 360.31L331.18 359.75L331.88 359.21L332.59 358.68L479.74 252.21L480.08 251.98L480.43 251.76L480.78 251.55L481.14 251.35L481.51 251.17L481.87 251L482.25 250.85L482.62 250.71L483 250.59L483.39 250.47L483.77 250.38L484.16 250.29L484.55 250.22L484.94 250.16L485.33 250.12L485.73 250.09L486.12 250.07L486.51 250.07L486.91 250.08L487.3 250.11ZM345.63 377.3L345.33 377.54L345.03 377.78L344.74 378.03L344.45 378.29L344.17 378.55L343.89 378.81L343.62 379.09L343.36 379.37L343.1 379.65L342.85 379.94L342.61 380.23L342.37 380.53L342.14 380.83L341.92 381.14L341.7 381.46L341.49 381.77L341.29 382.09L341.09 382.42L340.9 382.75L340.72 383.09L340.55 383.42L340.38 383.77L340.22 384.11L340.07 384.46L339.92 384.81L339.78 385.17L339.65 385.53L339.53 385.89L339.41 386.26L339.31 386.62L339.21 386.99L339.12 387.37L339.03 387.74L338.96 388.12L338.89 388.5L338.83 388.89L338.78 389.27L338.74 389.66L338.7 390.05L338.68 390.44L338.66 390.82L338.65 391.21L338.65 391.6L338.66 391.98L338.67 392.37L338.7 392.75L338.73 393.14L338.77 393.52L338.82 393.9L338.88 394.28L338.94 394.65L339.01 395.03L339.1 395.4L339.18 395.77L339.28 396.14L339.39 396.5L339.5 396.87L339.62 397.23L339.75 397.59L339.88 397.94L340.03 398.3L340.18 398.65L340.33 398.99L340.5 399.33L340.67 399.67L340.85 400.01L341.04 400.34L341.24 400.67L341.44 400.99L341.65 401.32L341.86 401.63L342.09 401.94L342.32 402.25L342.55 402.55L342.8 402.85L343.05 403.14L343.31 403.43L343.57 403.72L343.84 403.99L344.12 404.27L344.41 404.53L344.7 404.79L344.99 405.05L345.29 405.29L345.59 405.53L345.9 405.76L346.21 405.98L346.53 406.2L346.85 406.41L347.18 406.61L347.51 406.8L347.84 406.99L348.17 407.17L348.51 407.34L348.86 407.5L349.2 407.66L349.55 407.81L349.91 407.95L350.26 408.08L350.62 408.21L350.98 408.33L351.34 408.44L351.71 408.54L352.08 408.64L352.45 408.73L352.82 408.81L353.19 408.88L353.57 408.94L353.95 409L354.33 409.05L354.71 409.09L355.09 409.13L355.47 409.15L355.86 409.17L356.24 409.18L356.63 409.18L357.01 409.18L357.4 409.16L357.79 409.14L358.18 409.11L358.56 409.07L358.95 409.01L359.33 408.95L359.71 408.89L360.09 408.81L360.47 408.73L360.84 408.63L361.21 408.53L361.58 408.43L361.95 408.31L362.31 408.19L362.67 408.06L363.02 407.92L363.38 407.77L363.73 407.62L364.07 407.46L364.41 407.29L364.75 407.12L365.09 406.93L365.42 406.74L365.74 406.55L366.07 406.34L366.39 406.13L366.7 405.92L367.01 405.69L367.31 405.46L367.61 405.22L367.91 404.98L368.2 404.73L368.48 404.47L368.76 404.21L369.03 403.93L369.3 403.66L369.57 403.38L369.82 403.09L370.07 402.79L370.32 402.49L370.56 402.18L370.79 401.87L435.71 312.13L345.94 377.07L345.63 377.3Z" id="a1pRy6EuQS"></path><path d="M403.49 0.09L404.64 0.21L405.77 0.37L406.89 0.58L407.99 0.83L409.07 1.12L410.14 1.45L411.19 1.82L412.22 2.24L413.23 2.69L414.22 3.18L415.18 3.7L416.13 4.26L417.05 4.86L417.94 5.49L418.81 6.15L419.65 6.85L420.47 7.57L421.26 8.33L422.01 9.12L422.74 9.93L423.44 10.77L424.1 11.64L424.73 12.54L425.33 13.46L425.89 14.4L426.41 15.37L426.9 16.35L427.35 17.36L427.77 18.39L428.14 19.44L428.47 20.51L428.76 21.59L429.01 22.7L429.22 23.81L429.38 24.94L429.5 26.09L429.57 27.25L429.59 28.42L429.57 29.59L429.5 30.74L429.38 31.89L429.22 33.02L429.01 34.14L428.76 35.24L428.47 36.32L428.14 37.39L427.77 38.44L427.36 39.47L426.9 40.48L426.42 41.47L425.89 42.43L425.33 43.38L424.73 44.3L424.1 45.19L423.44 46.06L422.74 46.9L422.02 47.72L421.26 48.5L420.48 49.26L419.66 49.99L418.82 50.68L417.95 51.34L417.05 51.98L416.14 52.57L415.19 53.13L414.23 53.66L413.24 54.15L412.23 54.6L411.2 55.01L410.15 55.38L409.08 55.72L408 56.01L406.9 56.26L405.78 56.46L404.65 56.62L403.5 56.74L402.35 56.81L401.18 56.83L384.13 56.83L384.13 70.37L387.28 70.76L390.42 71.18L393.56 71.63L396.68 72.11L399.79 72.62L402.89 73.17L405.99 73.74L409.07 74.35L412.14 74.99L415.19 75.65L418.24 76.35L421.27 77.08L424.3 77.84L427.31 78.63L430.31 79.45L433.3 80.29L436.27 81.17L439.23 82.08L442.18 83.01L445.12 83.98L448.04 84.97L450.95 85.99L453.85 87.04L456.73 88.12L459.6 89.22L462.46 90.36L465.3 91.52L468.13 92.71L470.94 93.92L473.74 95.17L476.52 96.44L479.29 97.74L482.05 99.06L484.79 100.41L487.51 101.79L490.22 103.19L492.91 104.62L495.59 106.08L498.25 107.56L500.89 109.06L500.91 109.07L500.93 109.08L500.95 109.09L500.97 109.1L500.98 109.1L501 109.11L501.02 109.12L501.04 109.12L501.06 109.13L501.08 109.14L501.09 109.14L501.11 109.15L501.13 109.15L501.15 109.16L501.17 109.16L501.19 109.17L501.2 109.17L501.22 109.17L501.24 109.18L501.26 109.18L501.28 109.19L501.3 109.19L501.31 109.2L501.33 109.2L501.35 109.21L501.37 109.21L501.39 109.22L501.41 109.22L501.42 109.23L501.44 109.23L501.46 109.24L501.48 109.25L501.5 109.25L501.51 109.26L501.53 109.27L501.55 109.28L501.57 109.28L501.59 109.29L501.6 109.3L501.62 109.31L501.64 109.32L501.66 109.33L501.67 109.35L501.69 109.36L501.7 109.37L501.72 109.38L501.73 109.39L501.75 109.4L501.76 109.42L501.78 109.43L501.79 109.44L501.8 109.45L501.82 109.47L501.83 109.48L501.85 109.49L501.86 109.51L501.87 109.52L501.88 109.53L501.9 109.55L501.91 109.56L501.95 109.6L501.96 109.61L501.98 109.63L501.99 109.64L502 109.65L502.02 109.67L502.03 109.68L502.04 109.69L502.06 109.7L502.07 109.72L502.08 109.73L502.1 109.74L502.11 109.76L502.13 109.77L502.14 109.78L502.16 109.79L502.17 109.8L502.19 109.81L503.67 110.68L505.14 111.55L506.6 112.43L508.06 113.32L509.52 114.22L510.97 115.13L512.41 116.04L513.85 116.96L515.29 117.89L516.71 118.82L518.14 119.77L519.55 120.72L520.97 121.68L522.37 122.64L523.77 123.62L525.17 124.6L526.55 125.59L527.94 126.59L529.31 127.59L530.69 128.6L532.05 129.62L533.41 130.65L534.76 131.68L536.11 132.72L537.45 133.77L538.79 134.82L540.12 135.89L541.44 136.96L542.76 138.03L544.07 139.12L545.38 140.21L546.68 141.31L547.97 142.41L549.26 143.53L550.54 144.64L551.82 145.77L553.09 146.9L554.35 148.05L555.6 149.19L556.85 150.35L581.27 125.94L565.18 109.86L613.41 61.64L661.63 109.86L613.41 158.09L597.34 142.02L572.93 166.42L574.08 167.67L575.23 168.92L576.37 170.19L577.5 171.46L578.63 172.73L579.75 174.01L580.86 175.3L581.96 176.59L583.06 177.89L584.15 179.2L585.24 180.51L586.31 181.83L587.38 183.15L588.45 184.48L589.5 185.82L590.55 187.16L591.59 188.51L592.62 189.87L593.65 191.23L594.67 192.59L595.68 193.96L596.68 195.34L597.68 196.72L598.66 198.11L599.65 199.51L600.62 200.91L601.59 202.31L602.54 203.72L603.5 205.14L604.44 206.56L605.37 207.99L606.3 209.42L607.22 210.86L608.14 212.31L609.04 213.76L609.94 215.21L610.83 216.67L611.71 218.14L612.58 219.61L613.45 221.08L613.46 221.1L613.47 221.11L613.48 221.13L613.49 221.14L613.51 221.16L613.52 221.17L613.53 221.19L613.54 221.2L613.56 221.22L613.57 221.23L613.58 221.24L613.6 221.26L613.61 221.27L613.62 221.28L613.63 221.3L613.65 221.31L613.66 221.32L613.69 221.35L613.72 221.37L613.73 221.39L613.74 221.4L613.76 221.41L613.77 221.43L613.78 221.44L613.79 221.45L613.81 221.47L613.82 221.48L613.83 221.5L613.85 221.51L613.86 221.52L613.87 221.54L613.88 221.55L613.89 221.57L613.9 221.58L613.92 221.6L613.93 221.62L613.94 221.63L613.95 221.65L613.96 221.67L613.97 221.69L613.97 221.7L613.98 221.72L613.99 221.74L614 221.76L614 221.78L614.01 221.79L614.02 221.81L614.02 221.83L614.03 221.85L614.03 221.87L614.04 221.89L614.04 221.9L614.05 221.92L614.05 221.94L614.06 221.96L614.06 221.98L614.07 222L614.07 222.01L614.08 222.05L614.08 222.07L614.09 222.09L614.09 222.11L614.1 222.12L614.1 222.14L614.11 222.16L614.11 222.18L614.12 222.2L614.12 222.21L614.13 222.23L614.14 222.25L614.14 222.27L614.15 222.29L614.16 222.31L614.16 222.32L614.17 222.34L614.18 222.36L614.19 222.38L616.11 225.77L618 229.18L619.84 232.62L621.64 236.09L623.39 239.58L625.11 243.1L626.78 246.64L628.4 250.21L629.98 253.8L631.52 257.41L633.01 261.05L634.46 264.71L635.86 268.39L637.21 272.1L638.52 275.82L639.78 279.57L641 283.34L642.17 287.13L643.28 290.94L644.36 294.77L645.38 298.63L646.35 302.5L647.27 306.39L648.15 310.29L648.97 314.22L649.74 318.16L650.47 322.13L651.14 326.11L651.76 330.1L652.32 334.12L652.84 338.15L653.3 342.19L653.71 346.26L654.07 350.33L654.37 354.43L654.62 358.53L654.81 362.65L654.95 366.79L655.03 370.94L655.06 375.1L655.03 379.26L654.95 383.41L654.81 387.55L654.62 391.67L654.37 395.77L654.07 399.87L653.71 403.94L653.3 408.01L652.84 412.05L652.32 416.08L651.76 420.1L651.14 424.09L650.47 428.07L649.74 432.04L648.97 435.98L648.15 439.91L647.27 443.81L646.35 447.7L645.38 451.57L644.35 455.43L643.28 459.26L642.16 463.07L641 466.86L639.78 470.63L638.52 474.38L637.21 478.1L635.86 481.81L634.46 485.49L633.01 489.15L631.52 492.79L629.98 496.4L628.4 499.99L626.77 503.56L625.1 507.1L623.39 510.62L621.63 514.11L619.83 517.58L617.99 521.02L616.1 524.43L614.18 527.82L614.17 527.84L614.16 527.86L614.15 527.88L614.14 527.89L614.14 527.91L614.13 527.93L614.13 527.95L614.12 527.97L614.11 527.99L614.11 528L614.1 528.02L614.1 528.04L614.09 528.06L614.09 528.08L614.09 528.09L614.08 528.11L614.08 528.13L614.06 528.19L614.06 528.2L614.06 528.22L614.05 528.24L614.05 528.26L614.04 528.28L614.04 528.3L614.03 528.31L614.03 528.33L614.02 528.35L614.02 528.37L614.01 528.39L614 528.41L614 528.42L613.99 528.44L613.98 528.46L613.97 528.48L613.96 528.5L613.96 528.51L613.95 528.53L613.94 528.55L613.92 528.58L613.91 528.6L613.89 528.63L613.88 528.65L613.86 528.67L613.84 528.7L613.83 528.72L613.81 528.74L613.8 528.77L613.78 528.79L613.76 528.81L613.74 528.83L613.73 528.86L613.71 528.88L613.69 528.9L613.68 528.92L613.66 528.94L613.64 528.96L613.62 528.98L613.6 529.01L613.59 529.03L613.57 529.05L613.55 529.07L613.51 529.11L613.5 529.13L613.48 529.15L613.46 529.17L613.44 529.2L613.42 529.22L613.41 529.24L613.39 529.26L613.37 529.28L613.35 529.3L613.34 529.32L613.32 529.35L613.3 529.37L613.29 529.39L613.27 529.41L613.25 529.44L611.22 532.86L609.15 536.26L607.03 539.63L604.87 542.97L602.67 546.28L600.42 549.56L598.14 552.81L595.81 556.02L593.45 559.21L591.04 562.36L588.6 565.49L586.11 568.58L583.59 571.63L581.03 574.66L578.43 577.65L575.79 580.6L573.12 583.53L570.4 586.41L567.66 589.26L564.87 592.08L562.05 594.86L559.2 597.61L556.31 600.31L553.38 602.99L550.42 605.62L547.43 608.21L544.4 610.77L541.34 613.29L538.25 615.77L535.12 618.21L531.97 620.62L528.78 622.98L525.56 625.3L522.3 627.58L519.02 629.82L515.71 632.02L512.37 634.17L509 636.29L505.6 638.36L502.17 640.39L502.15 640.4L502.14 640.41L502.12 640.42L502.11 640.43L502.09 640.44L502.08 640.46L502.06 640.47L502.05 640.48L502.03 640.5L502.02 640.51L502.01 640.52L501.99 640.53L501.98 640.55L501.97 640.56L501.95 640.57L501.94 640.59L501.93 640.6L501.9 640.63L501.88 640.65L501.86 640.67L501.85 640.68L501.84 640.69L501.82 640.71L501.81 640.72L501.8 640.73L501.78 640.75L501.77 640.76L501.75 640.77L501.74 640.78L501.73 640.8L501.71 640.81L501.7 640.82L501.68 640.83L501.66 640.84L501.65 640.85L501.63 640.87L501.62 640.88L501.6 640.89L501.57 640.9L501.55 640.92L501.52 640.93L501.5 640.94L501.47 640.96L501.44 640.97L501.42 640.98L501.39 641L501.36 641.01L501.34 641.02L501.31 641.03L501.29 641.04L501.26 641.05L501.23 641.06L501.2 641.07L501.18 641.09L501.15 641.1L501.12 641.11L501.1 641.12L501.07 641.13L501.04 641.14L501.02 641.14L500.99 641.15L500.91 641.18L500.88 641.19L500.85 641.2L500.83 641.21L500.8 641.22L500.77 641.23L500.74 641.24L500.72 641.25L500.69 641.26L500.66 641.27L500.64 641.28L500.61 641.3L500.58 641.31L500.56 641.32L500.53 641.33L497.19 643.22L493.83 645.07L490.44 646.88L487.02 648.65L483.58 650.38L480.12 652.06L476.63 653.7L473.12 655.3L469.58 656.86L466.03 658.37L462.45 659.84L458.84 661.27L455.22 662.65L451.57 663.99L447.91 665.28L444.22 666.53L440.51 667.73L436.78 668.88L433.03 669.99L429.26 671.05L425.47 672.07L421.67 673.03L417.84 673.95L414 674.82L410.13 675.65L406.25 676.42L402.36 677.15L398.44 677.82L394.51 678.45L390.57 679.02L386.6 679.55L382.63 680.02L378.63 680.44L374.62 680.82L370.6 681.14L366.56 681.4L362.51 681.62L358.45 681.78L354.37 681.89L350.28 681.94L350.27 681.94L350.26 681.94L350.25 681.94L350.25 681.94L350.24 681.95L350.23 681.95L350.23 681.95L350.22 681.95L350.22 681.95L350.2 681.95L350.19 681.96L350.18 681.96L350.17 681.96L350.16 681.97L350.13 681.98L350.12 681.98L350.11 681.98L350.1 681.99L350.09 681.99L350.07 681.99L350.07 681.99L350.06 682L350.05 682L350.05 682L350.04 682L350.03 682L350.03 682L350.02 682L350.01 682L350 682L350 682L349.99 682L349.99 682L349.98 682L349.98 682L349.97 681.99L349.96 681.99L349.95 681.99L349.94 681.99L349.94 681.98L349.91 681.97L349.89 681.97L349.89 681.97L349.88 681.97L349.87 681.96L349.87 681.96L349.85 681.96L349.84 681.96L349.84 681.96L349.83 681.96L349.82 681.95L349.82 681.95L349.81 681.95L349.77 681.96L349.73 681.96L349.68 681.96L349.64 681.96L349.6 681.96L349.56 681.96L349.52 681.96L349.48 681.96L349.44 681.97L349.39 681.97L349.35 681.97L349.31 681.97L349.27 681.97L349.23 681.97L349.11 681.98L349.03 681.98L348.99 681.98L348.94 681.98L348.9 681.98L348.86 681.99L348.82 681.99L348.78 681.99L348.74 681.99L348.7 681.99L348.66 681.99L348.62 681.99L348.58 681.99L348.53 682L348.49 682L348.45 682L348.41 682L348.37 682L348.33 682L348.29 682L348.24 682L348.2 682L348.16 682L346.44 682L344.71 681.98L342.98 681.96L341.26 681.92L339.53 681.88L337.8 681.82L336.08 681.76L334.35 681.68L332.62 681.6L330.89 681.51L329.16 681.4L327.43 681.29L325.71 681.17L323.98 681.03L322.25 680.89L320.52 680.74L318.8 680.57L317.07 680.4L315.34 680.22L313.62 680.03L311.89 679.83L310.17 679.61L308.44 679.39L306.72 679.16L305 678.92L303.27 678.67L301.55 678.41L299.83 678.14L298.12 677.86L296.4 677.57L294.68 677.27L292.97 676.96L291.25 676.64L289.54 676.31L287.83 675.97L286.12 675.63L284.41 675.27L282.71 674.9L281 674.52L279.3 674.13L278.85 674.02L278.4 673.89L277.97 673.74L277.54 673.58L277.12 673.4L276.71 673.2L276.32 672.99L275.93 672.77L275.55 672.53L275.19 672.28L274.84 672.01L274.49 671.73L274.16 671.44L273.85 671.14L273.54 670.82L273.25 670.5L272.97 670.16L272.7 669.82L272.45 669.46L272.21 669.09L271.99 668.72L271.78 668.34L271.58 667.95L271.4 667.55L271.23 667.14L271.08 666.73L270.95 666.31L270.83 665.89L270.73 665.46L270.64 665.03L270.58 664.59L270.52 664.15L270.49 663.7L270.47 663.25L270.48 662.8L270.5 662.35L270.54 661.89L270.59 661.43L270.67 660.98L270.77 660.52L270.88 660.06L271.01 659.62L271.16 659.18L271.32 658.75L271.5 658.33L271.7 657.93L271.91 657.53L272.13 657.14L272.37 656.76L272.62 656.4L272.89 656.04L273.17 655.7L273.46 655.37L273.76 655.05L274.08 654.74L274.4 654.45L274.74 654.17L275.08 653.9L275.44 653.65L275.81 653.41L276.18 653.18L276.56 652.97L276.95 652.77L277.35 652.59L277.76 652.42L278.17 652.27L278.59 652.14L279.01 652.02L279.44 651.92L279.87 651.84L280.31 651.77L280.75 651.72L281.2 651.69L281.65 651.67L282.1 651.68L282.55 651.7L283.01 651.74L283.47 651.8L283.92 651.88L284.38 651.98L285.73 652.29L287.07 652.58L288.42 652.88L289.77 653.16L291.12 653.44L292.47 653.71L293.82 653.97L295.17 654.23L296.52 654.48L297.87 654.72L299.23 654.96L300.58 655.19L301.94 655.42L303.29 655.63L304.65 655.84L306.01 656.05L307.37 656.24L308.72 656.43L310.08 656.62L311.44 656.8L312.8 656.97L314.16 657.13L315.52 657.29L316.88 657.44L318.24 657.59L319.6 657.72L320.96 657.86L322.33 657.98L323.69 658.1L325.05 658.21L326.41 658.32L327.77 658.42L329.14 658.51L330.5 658.6L331.86 658.68L333.22 658.76L334.58 658.83L335.95 658.89L337.31 658.94L338.67 658.99L338.67 636.53L338.68 636.06L338.71 635.6L338.75 635.14L338.82 634.69L338.9 634.24L339 633.8L339.12 633.36L339.25 632.94L339.4 632.52L339.56 632.11L339.74 631.7L339.94 631.31L340.15 630.92L340.37 630.54L340.61 630.17L340.86 629.82L341.13 629.47L341.4 629.13L341.69 628.81L342 628.49L342.31 628.19L342.64 627.9L342.97 627.62L343.32 627.36L343.68 627.11L344.05 626.87L344.42 626.64L344.81 626.43L345.2 626.24L345.61 626.06L346.02 625.89L346.44 625.75L346.87 625.61L347.3 625.5L347.74 625.4L348.19 625.32L348.64 625.25L349.1 625.2L349.57 625.18L350.04 625.17L350.51 625.18L350.97 625.2L351.43 625.25L351.88 625.32L352.33 625.4L352.77 625.5L353.21 625.61L353.63 625.75L354.05 625.89L354.46 626.06L354.87 626.24L355.26 626.43L355.65 626.64L356.03 626.87L356.4 627.11L356.75 627.36L357.1 627.62L357.44 627.9L357.76 628.19L358.08 628.49L358.38 628.81L358.67 629.13L358.95 629.47L359.21 629.82L359.46 630.17L359.7 630.54L359.93 630.92L360.14 631.31L360.33 631.7L360.51 632.11L360.68 632.52L360.82 632.94L360.96 633.36L361.07 633.8L361.17 634.24L361.25 634.69L361.32 635.14L361.37 635.6L361.39 636.06L361.4 636.53L361.4 658.9L364.6 658.74L367.8 658.54L370.98 658.3L374.15 658.03L377.31 657.72L380.47 657.38L383.61 657.01L386.74 656.6L389.86 656.15L392.97 655.68L396.07 655.17L399.16 654.62L402.23 654.04L405.3 653.43L408.35 652.79L411.39 652.11L414.42 651.4L417.43 650.66L420.44 649.89L423.43 649.08L426.41 648.24L429.37 647.37L432.32 646.47L435.26 645.54L438.18 644.58L441.09 643.59L443.99 642.56L446.87 641.51L449.73 640.43L452.58 639.31L455.42 638.17L458.24 636.99L461.05 635.79L463.84 634.56L466.62 633.3L469.38 632.01L472.12 630.69L474.85 629.34L477.56 627.97L480.25 626.56L469.05 607.16L468.82 606.75L468.61 606.34L468.42 605.92L468.25 605.49L468.1 605.06L467.96 604.63L467.85 604.2L467.75 603.76L467.67 603.32L467.6 602.88L467.56 602.44L467.53 602L467.51 601.57L467.52 601.13L467.54 600.69L467.58 600.25L467.64 599.82L467.71 599.39L467.8 598.96L467.9 598.54L468.02 598.12L468.16 597.7L468.31 597.29L468.48 596.89L468.67 596.49L468.87 596.1L469.08 595.72L469.31 595.35L469.56 594.98L469.82 594.62L470.09 594.27L470.38 593.93L470.68 593.6L471 593.29L471.33 592.98L471.68 592.69L472.04 592.4L472.42 592.13L472.8 591.88L473.21 591.63L473.61 591.41L474.03 591.2L474.45 591.01L474.87 590.84L475.3 590.69L475.73 590.55L476.16 590.43L476.6 590.33L477.03 590.25L477.47 590.19L477.91 590.14L478.35 590.11L478.79 590.1L479.23 590.11L479.67 590.13L480.1 590.17L480.54 590.22L480.97 590.3L481.39 590.38L481.82 590.49L482.24 590.61L482.65 590.75L483.06 590.9L483.47 591.07L483.86 591.25L484.25 591.45L484.64 591.67L485.01 591.9L485.38 592.14L485.74 592.4L486.09 592.68L486.43 592.97L486.76 593.27L487.08 593.59L487.38 593.92L487.68 594.27L487.96 594.63L488.23 595L488.49 595.39L488.73 595.8L499.91 615.15L502.56 613.45L505.2 611.71L507.82 609.95L510.41 608.16L512.99 606.34L515.54 604.49L518.07 602.62L520.58 600.72L523.07 598.79L525.54 596.83L527.99 594.85L530.41 592.84L532.81 590.81L535.18 588.75L537.54 586.66L539.87 584.55L542.18 582.42L544.46 580.25L546.72 578.07L548.95 575.86L551.16 573.62L553.35 571.36L555.51 569.08L557.65 566.77L559.76 564.44L561.84 562.09L563.9 559.71L565.94 557.31L567.95 554.89L569.93 552.45L571.88 549.98L573.81 547.49L575.71 544.98L577.59 542.45L579.43 539.89L581.25 537.32L583.04 534.72L584.81 532.11L586.54 529.47L588.25 526.81L568.89 515.64L568.49 515.4L568.1 515.14L567.73 514.87L567.37 514.59L567.02 514.29L566.69 513.99L566.37 513.67L566.07 513.34L565.78 513L565.51 512.65L565.25 512.3L565 511.93L564.77 511.55L564.56 511.17L564.36 510.78L564.18 510.38L564.01 509.98L563.85 509.57L563.72 509.16L563.6 508.74L563.49 508.32L563.4 507.89L563.33 507.46L563.27 507.02L563.24 506.59L563.21 506.15L563.21 505.71L563.22 505.27L563.25 504.83L563.29 504.39L563.36 503.95L563.44 503.51L563.53 503.08L563.65 502.64L563.79 502.21L563.94 501.78L564.11 501.36L564.3 500.94L564.5 500.52L564.73 500.11L564.97 499.71L565.23 499.32L565.5 498.94L565.78 498.58L566.08 498.24L566.38 497.9L566.7 497.59L567.03 497.28L567.37 496.99L567.72 496.72L568.07 496.46L568.44 496.21L568.82 495.98L569.2 495.77L569.59 495.57L569.99 495.39L570.39 495.22L570.8 495.07L571.21 494.93L571.63 494.81L572.06 494.7L572.48 494.62L572.91 494.54L573.35 494.49L573.78 494.45L574.22 494.43L574.66 494.42L575.1 494.43L575.54 494.46L575.98 494.51L576.42 494.57L576.86 494.65L577.29 494.75L577.73 494.87L578.16 495L578.59 495.16L579.01 495.33L579.43 495.52L579.85 495.72L580.26 495.95L599.66 507.16L601.08 504.42L602.48 501.67L603.84 498.91L605.17 496.12L606.48 493.32L607.76 490.51L609 487.67L610.22 484.82L611.4 481.96L612.56 479.08L613.68 476.18L614.78 473.27L615.84 470.35L616.87 467.41L617.87 464.45L618.84 461.49L619.77 458.5L620.68 455.51L621.55 452.49L622.39 449.47L623.2 446.43L623.97 443.38L624.71 440.32L625.42 437.24L626.09 434.15L626.73 431.05L627.34 427.94L627.91 424.81L628.45 421.68L628.95 418.53L629.42 415.37L629.86 412.2L630.25 409.02L630.62 405.82L630.94 402.62L631.24 399.41L631.49 396.18L631.71 392.95L631.9 389.71L632.04 386.46L609.59 386.46L609.13 386.45L608.66 386.42L608.2 386.37L607.75 386.31L607.3 386.22L606.86 386.13L606.43 386.01L606 385.88L605.58 385.73L605.17 385.56L604.76 385.38L604.37 385.19L603.98 384.98L603.6 384.75L603.24 384.52L602.88 384.26L602.53 384L602.19 383.72L601.87 383.43L601.55 383.13L601.25 382.81L600.96 382.49L600.68 382.15L600.42 381.81L600.17 381.45L599.93 381.08L599.7 380.7L599.49 380.32L599.3 379.92L599.12 379.52L598.96 379.1L598.81 378.68L598.67 378.26L598.56 377.82L598.46 377.38L598.38 376.93L598.31 376.48L598.27 376.02L598.24 375.56L598.23 375.09L598.24 374.62L598.27 374.16L598.31 373.7L598.38 373.24L598.46 372.8L598.56 372.35L598.67 371.92L598.81 371.49L598.96 371.07L599.12 370.66L599.3 370.26L599.49 369.86L599.7 369.47L599.93 369.1L600.17 368.73L600.42 368.37L600.68 368.02L600.96 367.69L601.25 367.36L601.55 367.05L601.87 366.75L602.19 366.46L602.53 366.18L602.88 365.91L603.24 365.66L603.6 365.42L603.98 365.2L604.37 364.99L604.76 364.79L605.17 364.61L605.58 364.45L606 364.3L606.43 364.17L606.86 364.05L607.3 363.95L607.75 363.87L608.2 363.81L608.66 363.76L609.13 363.73L609.59 363.72L632.04 363.72L631.9 360.47L631.71 357.23L631.49 353.99L631.24 350.77L630.94 347.56L630.62 344.35L630.25 341.16L629.86 337.98L629.42 334.81L628.95 331.65L628.45 328.5L627.91 325.36L627.34 322.24L626.73 319.12L626.09 316.02L625.42 312.93L624.71 309.86L623.97 306.79L623.2 303.74L622.39 300.71L621.55 297.68L620.68 294.67L619.77 291.67L618.84 288.69L617.87 285.72L616.87 282.77L615.84 279.83L614.78 276.9L613.68 273.99L612.56 271.1L611.4 268.22L610.22 265.35L609 262.5L607.76 259.67L606.48 256.85L605.17 254.05L603.84 251.27L602.48 248.5L601.08 245.75L599.66 243.02L580.26 254.23L580.12 254.3L579.99 254.38L579.85 254.45L579.72 254.52L579.58 254.59L579.44 254.66L579.31 254.72L579.17 254.78L579.03 254.84L578.89 254.9L578.75 254.96L578.61 255.01L578.47 255.06L578.33 255.11L578.19 255.16L578.05 255.21L577.9 255.25L577.76 255.3L577.62 255.34L577.48 255.38L577.33 255.41L577.19 255.45L577.05 255.48L576.9 255.51L576.76 255.54L576.61 255.57L576.47 255.59L576.33 255.62L576.18 255.64L576.04 255.66L575.89 255.68L575.75 255.69L575.6 255.7L575.46 255.72L575.31 255.73L575.17 255.74L575.02 255.74L574.87 255.75L574.73 255.75L574.59 255.75L574.29 255.75L574 255.73L573.7 255.72L573.41 255.69L573.12 255.66L572.83 255.61L572.54 255.57L572.25 255.51L571.97 255.45L571.68 255.38L571.4 255.3L571.12 255.21L570.84 255.12L570.57 255.02L570.3 254.91L570.03 254.8L569.76 254.68L569.49 254.55L569.23 254.42L568.98 254.28L568.72 254.13L568.47 253.97L568.22 253.81L567.98 253.64L567.74 253.47L567.51 253.29L567.27 253.1L567.05 252.9L566.83 252.7L566.61 252.49L566.4 252.28L566.19 252.06L565.99 251.83L565.79 251.6L565.6 251.36L565.41 251.11L565.23 250.86L565.06 250.6L564.89 250.34L564.73 250.07L564.5 249.66L564.3 249.24L564.11 248.82L563.93 248.39L563.78 247.96L563.65 247.53L563.53 247.1L563.43 246.66L563.35 246.22L563.29 245.78L563.24 245.34L563.21 244.9L563.2 244.46L563.2 244.03L563.23 243.59L563.26 243.15L563.32 242.72L563.39 242.29L563.48 241.86L563.58 241.44L563.71 241.02L563.84 240.6L563.99 240.2L564.16 239.79L564.35 239.4L564.54 239.01L564.76 238.62L564.99 238.25L565.23 237.88L565.49 237.52L565.76 237.18L566.05 236.84L566.36 236.51L566.67 236.19L567 235.88L567.35 235.59L567.71 235.31L568.08 235.04L568.47 234.78L568.87 234.54L588.22 223.37L586.52 220.71L584.78 218.07L583.02 215.46L581.23 212.86L579.41 210.28L577.56 207.73L575.69 205.2L573.79 202.69L571.86 200.2L569.9 197.73L567.92 195.29L565.92 192.86L563.88 190.46L561.82 188.09L559.74 185.73L557.62 183.4L555.49 181.1L553.33 178.81L551.14 176.55L548.93 174.32L546.7 172.11L544.44 169.92L542.15 167.76L539.85 165.62L537.52 163.51L535.16 161.43L532.79 159.37L530.39 157.33L527.96 155.33L525.52 153.35L523.05 151.39L520.56 149.46L518.05 147.56L515.52 145.69L512.97 143.84L510.39 142.02L507.79 140.23L505.18 138.47L502.54 136.73L499.88 135.02L488.71 154.38L488.55 154.65L488.38 154.92L488.21 155.18L488.03 155.43L487.84 155.67L487.65 155.91L487.46 156.15L487.25 156.37L487.05 156.6L486.84 156.81L486.62 157.02L486.4 157.22L486.17 157.41L485.94 157.6L485.7 157.78L485.47 157.96L485.22 158.13L484.97 158.29L484.72 158.44L484.47 158.59L484.21 158.73L483.95 158.87L483.68 159L483.42 159.12L483.15 159.23L482.87 159.34L482.6 159.44L482.32 159.53L482.04 159.61L481.76 159.69L481.47 159.76L481.19 159.82L480.9 159.88L480.61 159.93L480.32 159.97L480.03 160L479.74 160.03L479.44 160.05L479.15 160.06L478.85 160.07L478.71 160.06L478.56 160.06L478.42 160.06L478.27 160.05L478.13 160.04L477.98 160.03L477.84 160.02L477.69 160.01L477.55 159.99L477.4 159.97L477.26 159.95L477.11 159.93L476.97 159.91L476.83 159.88L476.68 159.86L476.54 159.83L476.39 159.8L476.25 159.76L476.11 159.73L475.96 159.69L475.82 159.65L475.68 159.61L475.54 159.57L475.39 159.53L475.25 159.48L475.11 159.43L474.97 159.38L474.83 159.33L474.69 159.27L474.55 159.22L474.41 159.16L474.27 159.1L474.13 159.04L474 158.97L473.86 158.9L473.72 158.84L473.59 158.77L473.45 158.69L473.32 158.62L473.18 158.54L472.78 158.3L472.39 158.04L472.02 157.77L471.66 157.49L471.32 157.2L470.98 156.89L470.67 156.57L470.36 156.25L470.07 155.91L469.8 155.56L469.54 155.2L469.3 154.83L469.07 154.46L468.85 154.08L468.65 153.69L468.47 153.29L468.3 152.89L468.15 152.48L468.01 152.06L467.89 151.64L467.78 151.22L467.7 150.79L467.62 150.36L467.57 149.93L467.53 149.49L467.51 149.06L467.5 148.62L467.51 148.18L467.54 147.74L467.59 147.3L467.65 146.86L467.73 146.42L467.83 145.98L467.94 145.55L468.08 145.12L468.23 144.69L468.4 144.26L468.59 143.84L468.8 143.43L469.02 143.02L480.23 123.61L477.54 122.21L474.82 120.83L472.1 119.49L469.35 118.17L466.59 116.88L463.82 115.62L461.03 114.39L458.22 113.18L455.4 112.01L452.56 110.87L449.71 109.75L446.84 108.67L443.96 107.61L441.07 106.59L438.16 105.6L435.23 104.63L432.3 103.7L429.35 102.8L426.38 101.93L423.41 101.1L420.42 100.29L417.41 99.52L414.4 98.78L411.37 98.07L408.33 97.39L405.28 96.75L402.21 96.13L399.14 95.56L396.05 95.01L392.95 94.5L389.84 94.02L386.72 93.58L383.59 93.17L380.44 92.79L377.29 92.45L374.13 92.15L370.96 91.88L367.77 91.64L364.58 91.44L361.38 91.27L361.38 113.67L361.37 114.14L361.34 114.6L361.3 115.06L361.23 115.51L361.15 115.96L361.05 116.4L360.93 116.84L360.8 117.26L360.65 117.68L360.49 118.09L360.31 118.5L360.11 118.89L359.9 119.28L359.68 119.66L359.44 120.03L359.19 120.38L358.92 120.73L358.65 121.07L358.36 121.39L358.05 121.71L357.74 122.01L357.41 122.3L357.08 122.58L356.73 122.84L356.37 123.09L356 123.33L355.63 123.56L355.24 123.77L354.85 123.96L354.44 124.14L354.03 124.31L353.61 124.45L353.18 124.59L352.75 124.7L352.31 124.8L351.86 124.88L351.41 124.95L350.95 125L350.48 125.02L350.01 125.03L349.54 125.02L349.08 125L348.62 124.95L348.17 124.88L347.72 124.8L347.28 124.7L346.85 124.59L346.42 124.45L346 124.31L345.59 124.14L345.18 123.96L344.79 123.77L344.4 123.56L344.02 123.33L343.65 123.09L343.3 122.84L342.95 122.58L342.61 122.3L342.29 122.01L341.97 121.71L341.67 121.39L341.38 121.07L341.1 120.73L340.84 120.38L340.59 120.03L340.35 119.66L340.12 119.28L339.91 118.89L339.72 118.5L339.54 118.09L339.37 117.68L339.23 117.26L339.09 116.84L338.98 116.4L338.88 115.96L338.8 115.51L338.73 115.06L338.68 114.6L338.66 114.14L338.65 113.67L338.65 91.19L338.4 91.21L338.15 91.22L337.89 91.23L337.64 91.24L337.39 91.26L337.14 91.27L336.88 91.28L336.63 91.3L336.38 91.31L336.12 91.32L335.87 91.34L335.61 91.35L335.35 91.37L335.1 91.38L334.84 91.39L334.58 91.41L334.32 91.42L334.06 91.44L333.8 91.46L333.54 91.47L333.28 91.49L333.02 91.5L332.75 91.52L332.49 91.54L332.22 91.55L331.96 91.57L331.69 91.59L331.43 91.61L331.16 91.63L330.89 91.64L330.62 91.66L330.35 91.68L330.08 91.7L329.8 91.72L329.53 91.74L329.25 91.76L328.98 91.78L328.7 91.8L328.42 91.82L328.14 91.84L315.95 92.79L315.15 92.88L314.36 92.97L313.57 93.07L312.77 93.17L311.98 93.27L311.19 93.37L310.39 93.48L309.6 93.59L308.81 93.7L308.02 93.81L307.22 93.92L306.43 94.04L305.64 94.16L304.85 94.28L304.06 94.4L303.27 94.53L302.47 94.66L301.68 94.79L300.89 94.92L300.1 95.05L299.31 95.19L298.52 95.33L297.73 95.47L296.94 95.61L296.15 95.76L295.36 95.91L294.57 96.06L293.79 96.21L293 96.36L292.21 96.52L291.42 96.68L290.63 96.84L289.85 97L289.06 97.17L288.27 97.34L287.49 97.51L286.7 97.68L285.92 97.85L285.13 98.03L284.35 98.21L283.89 98.3L283.43 98.38L282.97 98.44L282.52 98.48L282.07 98.5L281.61 98.5L281.16 98.49L280.72 98.45L280.28 98.4L279.84 98.33L279.4 98.25L278.97 98.15L278.55 98.03L278.13 97.89L277.72 97.74L277.32 97.58L276.92 97.4L276.53 97.2L276.15 96.99L275.77 96.77L275.41 96.53L275.05 96.27L274.7 96.01L274.37 95.73L274.04 95.43L273.73 95.13L273.42 94.81L273.13 94.48L272.85 94.14L272.59 93.79L272.34 93.42L272.1 93.04L271.87 92.66L271.66 92.26L271.47 91.85L271.29 91.44L271.12 91.01L270.98 90.57L270.84 90.13L270.73 89.67L270.64 89.21L270.56 88.76L270.5 88.3L270.46 87.84L270.44 87.39L270.44 86.94L270.46 86.49L270.49 86.04L270.54 85.6L270.61 85.16L270.7 84.73L270.8 84.3L270.92 83.87L271.05 83.46L271.2 83.04L271.37 82.64L271.55 82.24L271.74 81.85L271.95 81.47L272.18 81.09L272.42 80.73L272.67 80.37L272.94 80.03L273.22 79.69L273.51 79.36L273.81 79.05L274.13 78.75L274.46 78.46L274.8 78.18L275.16 77.91L275.52 77.66L275.9 77.42L276.28 77.2L276.68 76.99L277.09 76.79L277.5 76.61L277.93 76.45L278.37 76.3L278.81 76.17L279.27 76.05L280.18 75.85L281.09 75.64L282 75.44L282.91 75.25L283.82 75.05L284.73 74.86L285.64 74.67L286.55 74.48L287.47 74.3L288.38 74.12L289.29 73.94L290.21 73.76L291.12 73.59L292.04 73.42L292.95 73.26L293.87 73.09L294.78 72.93L295.7 72.77L296.61 72.62L297.53 72.46L298.45 72.31L299.37 72.17L300.28 72.02L301.2 71.88L302.12 71.74L303.04 71.6L303.96 71.47L304.87 71.34L305.79 71.21L306.71 71.08L307.63 70.96L308.55 70.84L309.47 70.72L310.39 70.61L311.31 70.5L312.23 70.39L313.15 70.28L314.07 70.17L314.99 70.07L315.91 69.97L315.91 56.83L298.86 56.83L297.69 56.81L296.54 56.74L295.39 56.62L294.26 56.46L293.14 56.26L292.04 56.01L290.96 55.72L289.89 55.38L288.84 55.01L287.81 54.6L286.8 54.15L285.81 53.66L284.85 53.13L283.9 52.57L282.98 51.98L282.09 51.34L281.22 50.68L280.38 49.99L279.56 49.26L278.78 48.5L278.02 47.72L277.29 46.9L276.6 46.06L275.94 45.19L275.31 44.3L274.71 43.38L274.15 42.43L273.62 41.47L273.13 40.48L272.68 39.47L272.27 38.44L271.9 37.39L271.57 36.32L271.27 35.24L271.03 34.14L270.82 33.02L270.66 31.89L270.54 30.74L270.47 29.59L270.45 28.42L270.47 27.25L270.54 26.09L270.66 24.94L270.82 23.81L271.03 22.7L271.27 21.59L271.57 20.51L271.9 19.44L272.27 18.39L272.68 17.36L273.13 16.35L273.62 15.37L274.15 14.4L274.71 13.46L275.31 12.54L275.94 11.64L276.6 10.77L277.29 9.93L278.02 9.12L278.78 8.33L279.56 7.57L280.38 6.85L281.22 6.15L282.09 5.49L282.98 4.86L283.9 4.26L284.85 3.7L285.81 3.18L286.8 2.69L287.81 2.24L288.84 1.82L289.89 1.45L290.96 1.12L292.04 0.83L293.14 0.58L294.26 0.37L295.39 0.21L296.54 0.09L297.69 0.02L298.86 0L401.16 0L402.33 0.02L403.49 0.09ZM613.4 125.94L629.47 109.86L613.4 93.79L597.32 109.86L613.4 125.94ZM298.63 22.74L298.4 22.75L298.17 22.78L297.95 22.81L297.72 22.85L297.5 22.9L297.29 22.96L297.07 23.02L296.86 23.1L296.66 23.18L296.46 23.27L296.26 23.37L296.06 23.48L295.88 23.59L295.69 23.71L295.51 23.83L295.34 23.97L295.17 24.11L295.01 24.25L294.85 24.4L294.7 24.56L294.55 24.72L294.41 24.89L294.28 25.07L294.15 25.24L294.04 25.43L293.92 25.62L293.82 25.81L293.72 26.01L293.63 26.21L293.55 26.42L293.47 26.63L293.4 26.84L293.35 27.06L293.3 27.28L293.26 27.5L293.22 27.72L293.2 27.95L293.19 28.18L293.18 28.42L293.19 28.65L293.2 28.88L293.22 29.11L293.26 29.34L293.3 29.56L293.35 29.78L293.4 29.99L293.47 30.21L293.55 30.42L293.63 30.62L293.72 30.83L293.82 31.02L293.92 31.22L294.04 31.4L294.15 31.59L294.28 31.77L294.41 31.94L294.55 32.11L294.7 32.27L294.85 32.43L295.01 32.58L295.17 32.73L295.34 32.87L295.51 33L295.69 33.13L295.88 33.25L296.06 33.36L296.26 33.46L296.46 33.56L296.66 33.65L296.86 33.73L297.07 33.81L297.29 33.88L297.5 33.93L297.72 33.98L297.95 34.03L298.17 34.06L298.4 34.08L298.63 34.1L298.86 34.1L338.65 34.1L338.65 68.44L338.75 68.43L338.85 68.43L338.95 68.43L339.05 68.42L339.15 68.42L339.25 68.42L339.35 68.41L339.45 68.41L339.55 68.41L339.65 68.41L339.75 68.4L339.85 68.4L339.94 68.4L340.04 68.4L340.14 68.4L340.24 68.4L340.33 68.39L340.43 68.39L340.53 68.39L340.62 68.39L340.72 68.39L340.82 68.39L340.91 68.39L341.11 68.38L341.2 68.38L341.3 68.38L341.4 68.38L341.49 68.38L341.59 68.38L341.69 68.38L341.79 68.38L341.88 68.37L341.98 68.37L342.08 68.37L342.18 68.37L342.27 68.37L342.37 68.36L342.47 68.36L342.57 68.36L342.71 68.36L342.85 68.35L342.99 68.35L343.13 68.35L343.27 68.34L343.41 68.34L343.55 68.33L343.69 68.33L343.83 68.32L343.97 68.32L344.11 68.31L344.25 68.31L344.39 68.3L344.53 68.3L344.67 68.29L344.81 68.29L345.09 68.28L345.22 68.27L345.36 68.27L345.5 68.26L345.64 68.26L345.78 68.25L345.92 68.25L346.06 68.24L346.2 68.24L346.34 68.23L346.48 68.23L346.62 68.22L346.76 68.22L346.9 68.22L347.04 68.21L347.18 68.21L347.32 68.21L347.46 68.21L347.6 68.2L347.74 68.2L347.88 68.2L348.02 68.2L348.16 68.2L348.18 68.2L348.2 68.2L348.22 68.2L348.25 68.2L348.27 68.2L348.29 68.2L348.31 68.2L348.33 68.2L348.35 68.2L348.37 68.2L348.42 68.2L348.44 68.21L348.48 68.21L348.5 68.21L348.54 68.21L348.63 68.21L348.65 68.21L348.69 68.22L348.74 68.22L348.76 68.22L348.8 68.22L348.82 68.22L348.84 68.22L348.86 68.22L348.89 68.22L348.91 68.22L348.93 68.22L348.95 68.22L348.97 68.22L348.99 68.22L349.01 68.22L349.04 68.22L349.06 68.22L349.09 68.22L349.11 68.22L349.13 68.22L349.16 68.22L349.18 68.22L349.21 68.22L349.23 68.22L349.26 68.22L349.28 68.22L349.31 68.22L349.34 68.22L349.36 68.22L349.41 68.21L349.46 68.21L349.56 68.21L349.62 68.21L349.67 68.21L349.69 68.21L349.72 68.2L349.74 68.2L349.77 68.2L349.79 68.2L349.82 68.2L349.84 68.2L349.87 68.2L349.89 68.2L349.92 68.2L349.94 68.2L349.97 68.2L349.99 68.2L350.01 68.2L350.29 68.2L350.56 68.2L350.83 68.2L351.11 68.2L351.38 68.2L351.66 68.21L351.94 68.21L352.21 68.21L352.49 68.21L352.77 68.21L353.05 68.22L353.33 68.22L353.6 68.23L353.89 68.23L354.17 68.23L354.45 68.24L354.73 68.24L355.01 68.25L355.29 68.25L355.58 68.26L355.86 68.27L356.15 68.27L356.43 68.28L356.72 68.29L357 68.29L357.29 68.3L357.58 68.31L357.87 68.32L358.16 68.33L358.45 68.33L358.74 68.34L359.03 68.35L359.32 68.36L359.61 68.37L359.91 68.38L360.2 68.39L360.49 68.4L360.79 68.42L361.08 68.43L361.38 68.44L361.38 34.1L401.16 34.1L401.4 34.1L401.63 34.08L401.86 34.06L402.08 34.03L402.31 33.98L402.53 33.93L402.74 33.88L402.96 33.81L403.16 33.73L403.37 33.65L403.57 33.56L403.77 33.46L403.96 33.36L404.15 33.25L404.34 33.13L404.51 33L404.69 32.87L404.86 32.73L405.02 32.58L405.18 32.43L405.33 32.27L405.47 32.11L405.61 31.94L405.75 31.77L405.87 31.59L405.99 31.4L406.1 31.22L406.21 31.02L406.31 30.83L406.4 30.62L406.48 30.42L406.56 30.21L406.62 29.99L406.68 29.78L406.73 29.56L406.77 29.34L406.8 29.11L406.83 28.88L406.84 28.65L406.85 28.42L406.84 28.18L406.83 27.95L406.8 27.72L406.77 27.5L406.73 27.28L406.68 27.06L406.62 26.84L406.56 26.63L406.48 26.42L406.4 26.21L406.31 26.01L406.21 25.81L406.1 25.62L405.99 25.43L405.87 25.24L405.75 25.07L405.61 24.89L405.47 24.72L405.33 24.56L405.18 24.4L405.02 24.25L404.86 24.11L404.69 23.97L404.51 23.83L404.34 23.71L404.15 23.59L403.96 23.48L403.77 23.37L403.57 23.27L403.37 23.18L403.16 23.1L402.96 23.02L402.74 22.96L402.53 22.9L402.31 22.85L402.08 22.81L401.86 22.78L401.63 22.75L401.4 22.74L401.16 22.73L298.86 22.73L298.63 22.74Z" id="bc5hG8ytC"></path><path d="M190.88 159.13C184.59 159.13 179.51 164.21 179.51 170.5C179.51 176.79 184.59 181.87 190.88 181.87C196.56 181.87 242.03 181.87 247.71 181.87C254 181.87 259.08 176.79 259.08 170.5C259.08 164.21 254 159.13 247.71 159.13C236.35 159.13 196.56 159.13 190.88 159.13Z" id="bB8llYe9L"></path><path d="M134.05 238.7C127.76 238.7 122.68 243.78 122.68 250.07C122.68 256.35 127.76 261.43 134.05 261.43C145.41 261.43 236.35 261.43 247.71 261.43C254 261.43 259.08 256.35 259.08 250.07C259.08 243.78 254 238.7 247.71 238.7C224.98 238.7 145.41 238.7 134.05 238.7Z" id="j2gnXH6WjR"></path><path d="M77.21 318.27C70.93 318.27 65.85 323.35 65.85 329.63C65.85 335.92 70.93 341 77.21 341C94.26 341 230.66 341 247.71 341C254 341 259.08 335.92 259.08 329.63C259.08 323.35 254 318.27 247.71 318.27C213.61 318.27 94.26 318.27 77.21 318.27Z" id="c2AUlXdFx"></path><path d="M31.75 397.83C25.46 397.83 20.38 402.91 20.38 409.2C20.38 415.49 25.46 420.57 31.75 420.57C53.34 420.57 226.12 420.57 247.71 420.57C254 420.57 259.08 415.49 259.08 409.2C259.08 402.91 254 397.83 247.71 397.83C204.52 397.83 53.34 397.83 31.75 397.83Z" id="aIAozKsMm"></path><path d="M99.95 477.4C93.66 477.4 88.58 482.48 88.58 488.77C88.58 495.05 93.66 500.13 99.95 500.13C114.72 500.13 232.94 500.13 247.71 500.13C254 500.13 259.08 495.05 259.08 488.77C259.08 482.48 254 477.4 247.71 477.4C218.16 477.4 114.72 477.4 99.95 477.4Z" id="a2CcUt8VKy"></path><path d="M168.15 556.97C161.86 556.97 156.78 562.05 156.78 568.33C156.78 574.62 161.86 579.7 168.15 579.7C176.1 579.7 239.76 579.7 247.71 579.7C254 579.7 259.08 574.62 259.08 568.33C259.08 562.05 254 556.97 247.71 556.97C231.8 556.97 176.1 556.97 168.15 556.97Z" id="dPNNq7vEU"></path></defs><g><g><g><use xlink:href="#a1pRy6EuQS" opacity="1" fill="#1081a7" fill-opacity="1"></use><g><use xlink:href="#a1pRy6EuQS" opacity="1" fill-opacity="0" stroke="#000000" stroke-width="1" stroke-opacity="0"></use></g></g><g><use xlink:href="#bc5hG8ytC" opacity="1" fill="#1081a7" fill-opacity="1"></use><g><use xlink:href="#bc5hG8ytC" opacity="1" fill-opacity="0" stroke="#000000" stroke-width="1" stroke-opacity="0"></use></g></g><g><use xlink:href="#bB8llYe9L" opacity="1" fill="#1081a7" fill-opacity="1"></use><g><use xlink:href="#bB8llYe9L" opacity="1" fill-opacity="0" stroke="#000000" stroke-width="1" stroke-opacity="0"></use></g></g><g><use xlink:href="#j2gnXH6WjR" opacity="1" fill="#1081a7" fill-opacity="1"></use><g><use xlink:href="#j2gnXH6WjR" opacity="1" fill-opacity="0" stroke="#000000" stroke-width="1" stroke-opacity="0"></use></g></g><g><use xlink:href="#c2AUlXdFx" opacity="1" fill="#1081a7" fill-opacity="1"></use><g><use xlink:href="#c2AUlXdFx" opacity="1" fill-opacity="0" stroke="#000000" stroke-width="1" stroke-opacity="0"></use></g></g><g><use xlink:href="#aIAozKsMm" opacity="1" fill="#1081a7" fill-opacity="1"></use><g><use xlink:href="#aIAozKsMm" opacity="1" fill-opacity="0" stroke="#000000" stroke-width="1" stroke-opacity="0"></use></g></g><g><use xlink:href="#a2CcUt8VKy" opacity="1" fill="#1081a7" fill-opacity="1"></use><g><use xlink:href="#a2CcUt8VKy" opacity="1" fill-opacity="0" stroke="#000000" stroke-width="1" stroke-opacity="0"></use></g></g><g><use xlink:href="#dPNNq7vEU" opacity="1" fill="#1081a7" fill-opacity="1"></use><g><use xlink:href="#dPNNq7vEU" opacity="1" fill-opacity="0" stroke="#000000" stroke-width="1" stroke-opacity="0"></use></g></g></g></g></svg>