<svg xmlns="http://www.w3.org/2000/svg" width="217" height="1" viewBox="0 0 217 1"><g><g><g><path fill="#1081a7" d="M0 1V0h9v1z"/></g><g><path fill="#1081a7" d="M13 1V0h9v1z"/></g><g><path fill="#1081a7" d="M26 1V0h9v1z"/></g><g><path fill="#1081a7" d="M39 1V0h9v1z"/></g><g><path fill="#1081a7" d="M52 1V0h9v1z"/></g><g><path fill="#1081a7" d="M65 1V0h9v1z"/></g><g><path fill="#1081a7" d="M78 1V0h9v1z"/></g><g><path fill="#1081a7" d="M91 1V0h9v1z"/></g><g><path fill="#1081a7" d="M104 1V0h9v1z"/></g><g><path fill="#1081a7" d="M117 1V0h9v1z"/></g><g><path fill="#1081a7" d="M130 1V0h9v1z"/></g><g><path fill="#1081a7" d="M143 1V0h9v1z"/></g><g><path fill="#1081a7" d="M156 1V0h9v1z"/></g><g><path fill="#1081a7" d="M169 1V0h9v1z"/></g><g><path fill="#1081a7" d="M182 1V0h9v1z"/></g><g><path fill="#1081a7" d="M195 1V0h9v1z"/></g><g><path fill="#1081a7" d="M208 1V0h9v1z"/></g></g></g></svg>