<?xml version="1.0" encoding="UTF-8" standalone="no"?>
<!DOCTYPE svg PUBLIC "-//W3C//DTD SVG 1.1//EN" "http://www.w3.org/Graphics/SVG/1.1/DTD/svg11.dtd">
<svg version="1.1" xmlns="http://www.w3.org/2000/svg" xmlns:xlink="http://www.w3.org/1999/xlink" preserveAspectRatio="xMidYMid meet" viewBox="0 0 682 682" width="682" height="682"><defs><path d="M546.62 21.44L547.92 21.57L549.19 21.75L550.45 21.98L551.69 22.26L552.91 22.59L554.11 22.96L555.3 23.38L556.46 23.85L557.59 24.36L558.71 24.91L559.79 25.5L560.86 26.13L561.89 26.8L562.9 27.51L563.88 28.25L564.82 29.04L565.74 29.85L566.63 30.71L567.48 31.59L568.3 32.51L569.08 33.46L569.83 34.44L570.53 35.44L571.21 36.48L571.84 37.54L572.43 38.63L572.98 39.74L573.49 40.88L573.95 42.04L574.37 43.22L574.74 44.42L575.07 45.64L575.35 46.88L575.58 48.14L575.76 49.42L575.89 50.71L575.97 52.01L576 53.33L576 224L554.67 224L554.67 128L21.33 128L21.33 586.67L21.34 587.11L21.37 587.54L21.41 587.97L21.47 588.4L21.55 588.82L21.64 589.23L21.75 589.64L21.88 590.04L22.02 590.43L22.17 590.82L22.34 591.2L22.52 591.57L22.72 591.93L22.93 592.29L23.16 592.63L23.39 592.97L23.64 593.29L23.9 593.61L24.17 593.91L24.46 594.21L24.75 594.49L25.06 594.77L25.37 595.03L25.7 595.28L26.04 595.51L26.38 595.74L26.74 595.95L27.1 596.14L27.47 596.33L27.85 596.5L28.23 596.65L28.63 596.79L29.03 596.91L29.44 597.02L29.85 597.12L30.27 597.19L30.69 597.25L31.13 597.3L31.56 597.32L32 597.33L544 597.33L544.44 597.32L544.87 597.3L545.31 597.25L545.73 597.19L546.15 597.12L546.56 597.02L546.97 596.91L547.37 596.79L547.77 596.65L548.15 596.5L548.53 596.33L548.9 596.14L549.26 595.95L549.62 595.74L549.96 595.51L550.3 595.28L550.63 595.03L550.94 594.77L551.25 594.49L551.54 594.21L551.83 593.91L552.1 593.61L552.36 593.29L552.61 592.97L552.84 592.63L553.07 592.29L553.28 591.93L553.48 591.57L553.66 591.2L553.83 590.82L553.98 590.43L554.12 590.04L554.25 589.64L554.36 589.23L554.45 588.82L554.53 588.4L554.59 587.97L554.63 587.54L554.66 587.11L554.67 586.67L554.67 522.67L576 522.67L576 586.67L575.97 587.99L575.89 589.29L575.76 590.58L575.58 591.86L575.35 593.12L575.07 594.36L574.74 595.58L574.37 596.78L573.95 597.96L573.49 599.12L572.98 600.26L572.43 601.37L571.84 602.46L571.21 603.52L570.53 604.56L569.83 605.56L569.08 606.54L568.3 607.49L567.48 608.41L566.63 609.29L565.74 610.15L564.82 610.96L563.88 611.75L562.9 612.49L561.89 613.2L560.86 613.87L559.79 614.5L558.71 615.09L557.59 615.64L556.46 616.15L555.3 616.62L554.11 617.04L552.91 617.41L551.69 617.74L550.45 618.02L549.19 618.25L547.92 618.43L546.62 618.56L545.32 618.64L544 618.67L32 618.67L30.68 618.64L29.38 618.56L28.08 618.43L26.81 618.25L25.55 618.02L24.31 617.74L23.09 617.41L21.89 617.04L20.7 616.62L19.54 616.15L18.41 615.64L17.29 615.09L16.21 614.5L15.14 613.87L14.11 613.2L13.1 612.49L12.12 611.75L11.18 610.96L10.26 610.15L9.37 609.29L8.52 608.41L7.7 607.49L6.92 606.54L6.17 605.56L5.47 604.56L4.79 603.52L4.16 602.46L3.57 601.37L3.02 600.26L2.51 599.12L2.05 597.96L1.63 596.78L1.26 595.58L0.93 594.36L0.65 593.12L0.42 591.86L0.24 590.58L0.11 589.29L0.03 587.99L0 586.67L0 53.33L0.03 52.01L0.11 50.71L0.24 49.42L0.42 48.14L0.65 46.88L0.93 45.64L1.26 44.42L1.63 43.22L2.05 42.04L2.51 40.88L3.02 39.74L3.57 38.63L4.16 37.54L4.79 36.48L5.47 35.44L6.17 34.44L6.92 33.46L7.7 32.51L8.52 31.59L9.37 30.71L10.26 29.85L11.18 29.04L12.12 28.25L13.1 27.51L14.11 26.8L15.14 26.13L16.21 25.5L17.29 24.91L18.41 24.36L19.54 23.85L20.7 23.38L21.89 22.96L23.09 22.59L24.31 22.26L25.55 21.98L26.81 21.75L28.08 21.57L29.38 21.44L30.68 21.36L32 21.33L544 21.33L545.32 21.36L546.62 21.44ZM31.56 42.68L31.13 42.7L30.69 42.75L30.27 42.81L29.85 42.88L29.44 42.98L29.03 43.09L28.63 43.21L28.23 43.35L27.85 43.5L27.47 43.67L27.1 43.86L26.74 44.05L26.38 44.26L26.04 44.49L25.7 44.72L25.37 44.97L25.06 45.23L24.75 45.51L24.46 45.79L24.17 46.09L23.9 46.39L23.64 46.71L23.39 47.03L23.16 47.37L22.93 47.71L22.72 48.07L22.52 48.43L22.34 48.8L22.17 49.18L22.02 49.57L21.88 49.96L21.75 50.36L21.64 50.77L21.55 51.18L21.47 51.6L21.41 52.03L21.37 52.46L21.34 52.89L21.33 53.33L21.33 106.67L554.67 106.67L554.67 53.33L554.66 52.89L554.63 52.46L554.59 52.03L554.53 51.6L554.45 51.18L554.36 50.77L554.25 50.36L554.12 49.96L553.98 49.57L553.83 49.18L553.66 48.8L553.48 48.43L553.28 48.07L553.07 47.71L552.84 47.37L552.61 47.03L552.36 46.71L552.1 46.39L551.83 46.09L551.54 45.79L551.25 45.51L550.94 45.23L550.63 44.97L550.3 44.72L549.96 44.49L549.62 44.26L549.26 44.05L548.9 43.86L548.53 43.67L548.15 43.5L547.77 43.35L547.37 43.21L546.97 43.09L546.56 42.98L546.15 42.88L545.73 42.81L545.31 42.75L544.87 42.7L544.44 42.68L544 42.67L32 42.67L31.56 42.68Z" id="cimrCWeWQ"></path><path d="M64 85.33L64 64L85.33 64L85.33 85.33L64 85.33Z" id="b99Kpg2LF"></path><path d="M106.67 85.33L106.67 64L128 64L128 85.33L106.67 85.33Z" id="ahxLXPFTk"></path><path d="M149.33 85.33L149.33 64L170.67 64L170.67 85.33L149.33 85.33Z" id="ejROAVVht"></path><path d="M213.33 192L213.33 170.67L234.67 170.67L234.67 192L213.33 192Z" id="b48PGmQLQ"></path><path d="M256 192L256 170.67L277.33 170.67L277.33 192L256 192Z" id="c3la2bAhuG"></path><path d="M298.67 192L298.67 170.67L320 170.67L320 192L298.67 192Z" id="bd4vHszmU"></path><path d="M341.33 192L341.33 170.67L362.67 170.67L362.67 192L341.33 192Z" id="aqOGhkwtP"></path><path d="M234.67 85.33L234.67 64L469.33 64L469.33 85.33L234.67 85.33Z" id="bFWWdLvYf"></path><path d="M610.62 245.44L611.92 245.57L613.19 245.75L614.45 245.98L615.69 246.26L616.91 246.59L618.11 246.96L619.3 247.38L620.46 247.85L621.59 248.36L622.71 248.91L623.79 249.5L624.86 250.13L625.89 250.8L626.9 251.51L627.88 252.25L628.82 253.04L629.74 253.85L630.63 254.71L631.48 255.59L632.3 256.51L633.08 257.46L633.83 258.44L634.53 259.44L635.21 260.48L635.84 261.54L636.43 262.63L636.98 263.74L637.49 264.88L637.95 266.04L638.37 267.22L638.74 268.42L639.07 269.64L639.35 270.88L639.58 272.14L639.76 273.42L639.89 274.71L639.97 276.01L640 277.33L640 469.33L639.97 470.65L639.89 471.96L639.76 473.25L639.58 474.52L639.35 475.78L639.07 477.02L638.74 478.24L638.37 479.45L637.95 480.63L637.49 481.79L636.98 482.93L636.43 484.04L635.84 485.13L635.21 486.19L634.53 487.22L633.83 488.23L633.08 489.21L632.3 490.16L631.48 491.08L630.63 491.96L629.74 492.81L628.82 493.63L627.88 494.41L626.9 495.16L625.89 495.87L624.86 496.54L623.79 497.17L622.71 497.76L621.59 498.31L620.46 498.82L619.3 499.28L618.11 499.7L616.91 500.08L615.69 500.4L614.45 500.68L613.19 500.91L611.92 501.1L610.62 501.23L609.32 501.31L608 501.33L463.08 501.33L402.21 562.21L401.98 562.43L401.74 562.65L401.5 562.86L401.25 563.06L401 563.25L400.74 563.43L400.48 563.61L400.21 563.78L399.94 563.94L399.66 564.09L399.39 564.23L399.1 564.36L398.82 564.49L398.53 564.61L398.24 564.71L397.95 564.81L397.65 564.91L397.35 564.99L397.05 565.06L396.75 565.13L396.44 565.18L396.13 565.23L395.83 565.27L395.52 565.3L395.21 565.32L394.9 565.33L394.59 565.33L394.27 565.33L393.96 565.31L393.65 565.28L393.34 565.25L393.03 565.21L392.72 565.15L392.41 565.09L392.1 565.02L391.79 564.94L391.49 564.85L391.19 564.75L390.88 564.64L390.58 564.52L390.29 564.39L390 564.26L389.71 564.11L389.43 563.96L389.16 563.8L388.89 563.63L388.63 563.46L388.37 563.28L388.12 563.09L387.87 562.89L387.64 562.69L387.4 562.48L387.18 562.26L386.96 562.04L386.75 561.81L386.54 561.58L386.35 561.34L386.16 561.1L385.97 560.85L385.8 560.59L385.63 560.33L385.47 560.07L385.32 559.8L385.17 559.52L385.03 559.24L384.9 558.96L384.78 558.68L384.67 558.38L384.56 558.09L384.47 557.79L384.38 557.49L384.3 557.19L384.23 556.88L384.17 556.57L384.12 556.26L384.08 555.95L384.04 555.63L384.02 555.31L384 554.99L384 554.67L384 501.33L330.67 501.33L329.35 501.31L328.04 501.23L326.75 501.1L325.48 500.91L324.22 500.68L322.98 500.4L321.76 500.08L320.55 499.7L319.37 499.28L318.21 498.82L317.07 498.31L315.96 497.76L314.87 497.17L313.81 496.54L312.78 495.87L311.77 495.16L310.79 494.41L309.84 493.63L308.92 492.81L308.04 491.96L307.19 491.08L306.37 490.16L305.59 489.21L304.84 488.23L304.13 487.22L303.46 486.19L302.83 485.13L302.24 484.04L301.69 482.93L301.18 481.79L300.72 480.63L300.3 479.45L299.92 478.24L299.6 477.02L299.32 475.78L299.09 474.52L298.9 473.25L298.77 471.96L298.69 470.65L298.67 469.33L298.67 277.33L298.69 276.01L298.77 274.71L298.9 273.42L299.09 272.14L299.32 270.88L299.6 269.64L299.92 268.42L300.3 267.22L300.72 266.04L301.18 264.88L301.69 263.74L302.24 262.63L302.83 261.54L303.46 260.48L304.13 259.44L304.84 258.44L305.59 257.46L306.37 256.51L307.19 255.59L308.04 254.71L308.92 253.85L309.84 253.04L310.79 252.25L311.77 251.51L312.78 250.8L313.81 250.13L314.87 249.5L315.96 248.91L317.07 248.36L318.21 247.85L319.37 247.38L320.55 246.96L321.76 246.59L322.98 246.26L324.22 245.98L325.48 245.75L326.75 245.57L328.04 245.44L329.35 245.36L330.67 245.33L608 245.33L609.32 245.36L610.62 245.44ZM330.23 266.68L329.79 266.7L329.36 266.75L328.94 266.81L328.52 266.88L328.1 266.98L327.7 267.09L327.3 267.21L326.9 267.35L326.51 267.5L326.14 267.67L325.76 267.86L325.4 268.05L325.05 268.26L324.7 268.49L324.37 268.72L324.04 268.97L323.73 269.23L323.42 269.51L323.12 269.79L322.84 270.09L322.57 270.39L322.31 270.71L322.06 271.03L321.82 271.37L321.6 271.71L321.39 272.07L321.19 272.43L321.01 272.8L320.84 273.18L320.68 273.57L320.54 273.96L320.42 274.36L320.31 274.77L320.22 275.18L320.14 275.6L320.08 276.03L320.04 276.46L320.01 276.89L320 277.33L320 469.33L320.01 469.77L320.04 470.21L320.08 470.64L320.14 471.06L320.22 471.48L320.31 471.9L320.42 472.3L320.54 472.7L320.68 473.1L320.84 473.49L321.01 473.86L321.19 474.24L321.39 474.6L321.6 474.95L321.82 475.3L322.06 475.63L322.31 475.96L322.57 476.27L322.84 476.58L323.12 476.88L323.42 477.16L323.73 477.43L324.04 477.69L324.37 477.94L324.7 478.18L325.05 478.4L325.4 478.61L325.76 478.81L326.14 478.99L326.51 479.16L326.9 479.32L327.3 479.46L327.7 479.58L328.1 479.69L328.52 479.78L328.94 479.86L329.36 479.92L329.79 479.96L330.23 479.99L330.67 480L394.67 480L395.11 480.01L395.54 480.04L395.97 480.08L396.4 480.14L396.82 480.22L397.23 480.31L397.64 480.42L398.04 480.54L398.43 480.68L398.82 480.84L399.2 481.01L399.57 481.19L399.93 481.39L400.29 481.6L400.63 481.82L400.97 482.06L401.29 482.31L401.61 482.57L401.91 482.84L402.21 483.12L402.49 483.42L402.77 483.73L403.03 484.04L403.28 484.37L403.51 484.7L403.74 485.05L403.95 485.4L404.14 485.76L404.33 486.14L404.5 486.51L404.65 486.9L404.79 487.3L404.91 487.7L405.02 488.1L405.12 488.52L405.19 488.94L405.25 489.36L405.3 489.79L405.32 490.23L405.33 490.67L405.33 528.92L451.13 483.12L451.28 482.98L451.43 482.83L451.59 482.69L451.75 482.55L451.91 482.42L452.07 482.28L452.24 482.16L452.41 482.03L452.58 481.91L452.75 481.79L452.92 481.68L453.1 481.57L453.28 481.46L453.46 481.36L453.64 481.26L453.83 481.16L454.02 481.07L454.2 480.98L454.39 480.89L454.59 480.81L454.78 480.73L454.97 480.66L455.17 480.59L455.37 480.52L455.56 480.46L455.76 480.4L455.97 480.35L456.17 480.3L456.37 480.25L456.58 480.21L456.78 480.17L456.99 480.13L457.2 480.1L457.4 480.08L457.61 480.05L457.82 480.03L458.03 480.02L458.24 480.01L458.45 480L458.67 480L608 480L608.44 479.99L608.87 479.96L609.31 479.92L609.73 479.86L610.15 479.78L610.56 479.69L610.97 479.58L611.37 479.46L611.77 479.32L612.15 479.16L612.53 478.99L612.9 478.81L613.26 478.61L613.62 478.4L613.96 478.18L614.3 477.94L614.63 477.69L614.94 477.43L615.25 477.16L615.54 476.88L615.83 476.58L616.1 476.27L616.36 475.96L616.61 475.63L616.84 475.3L617.07 474.95L617.28 474.6L617.48 474.24L617.66 473.86L617.83 473.49L617.98 473.1L618.12 472.7L618.25 472.3L618.36 471.9L618.45 471.48L618.53 471.06L618.59 470.64L618.63 470.21L618.66 469.77L618.67 469.33L618.67 277.33L618.66 276.89L618.63 276.46L618.59 276.03L618.53 275.6L618.45 275.18L618.36 274.77L618.25 274.36L618.12 273.96L617.98 273.57L617.83 273.18L617.66 272.8L617.48 272.43L617.28 272.07L617.07 271.71L616.84 271.37L616.61 271.03L616.36 270.71L616.1 270.39L615.83 270.09L615.54 269.79L615.25 269.51L614.94 269.23L614.63 268.97L614.3 268.72L613.96 268.49L613.62 268.26L613.26 268.05L612.9 267.86L612.53 267.67L612.15 267.5L611.77 267.35L611.37 267.21L610.97 267.09L610.56 266.98L610.15 266.88L609.73 266.81L609.31 266.75L608.87 266.7L608.44 266.68L608 266.67L330.67 266.67L330.23 266.68Z" id="a19pgJsUWV"></path><path d="M362.67 330.67L362.67 309.33L576 309.33L576 330.67L362.67 330.67Z" id="f48ELatnuT"></path><path d="M362.67 384L362.67 362.67L576 362.67L576 384L362.67 384Z" id="a40zmH6KfR"></path><path d="M362.67 437.33L362.67 416L576 416L576 437.33L362.67 437.33Z" id="dCnB6riNP"></path><path d="M160.52 224.31L160.78 224.33L161.04 224.35L161.3 224.38L161.56 224.41L161.81 224.45L162.06 224.5L162.32 224.55L162.57 224.6L162.82 224.67L163.06 224.73L163.31 224.81L163.55 224.89L163.79 224.97L164.03 225.06L164.27 225.16L164.5 225.26L164.73 225.36L164.96 225.47L165.19 225.59L165.41 225.71L165.63 225.84L165.85 225.97L166.07 226.11L166.28 226.25L166.49 226.4L166.7 226.55L166.9 226.71L167.1 226.87L167.29 227.04L167.48 227.21L167.67 227.38L167.86 227.57L168.04 227.75L168.21 227.94L168.38 228.14L168.55 228.33L168.72 228.54L168.88 228.74L211.54 292.74L211.63 292.88L211.71 293.01L211.79 293.14L211.88 293.28L211.95 293.42L212.03 293.55L212.1 293.69L212.18 293.83L212.25 293.97L212.31 294.11L212.38 294.26L212.44 294.4L212.5 294.54L212.56 294.69L212.62 294.84L212.67 294.98L212.73 295.13L212.78 295.28L212.83 295.43L212.87 295.57L212.92 295.72L212.96 295.88L213 296.03L213.04 296.18L213.07 296.33L213.1 296.48L213.14 296.64L213.16 296.79L213.19 296.95L213.22 297.1L213.24 297.26L213.26 297.41L213.27 297.57L213.29 297.72L213.3 297.88L213.31 298.04L213.32 298.19L213.33 298.35L213.33 298.51L213.33 298.67L213.33 512L213.29 514.2L213.16 516.37L212.94 518.53L212.64 520.65L212.25 522.75L211.78 524.82L211.24 526.85L210.61 528.86L209.92 530.83L209.14 532.76L208.3 534.65L207.38 536.51L206.39 538.32L205.34 540.09L204.22 541.82L203.04 543.5L201.8 545.13L200.49 546.71L199.13 548.24L197.71 549.71L196.24 551.13L194.71 552.49L193.13 553.8L191.5 555.04L189.82 556.22L188.09 557.34L186.32 558.39L184.51 559.38L182.65 560.3L180.76 561.14L178.83 561.92L176.86 562.61L174.85 563.24L172.82 563.78L170.75 564.25L168.65 564.64L166.53 564.94L164.37 565.16L162.2 565.29L160 565.33L157.8 565.29L155.63 565.16L153.47 564.94L151.35 564.64L149.25 564.25L147.18 563.78L145.15 563.24L143.14 562.61L141.17 561.92L139.24 561.14L137.35 560.3L135.49 559.38L133.68 558.39L131.91 557.34L130.18 556.22L128.5 555.04L126.87 553.8L125.29 552.49L123.76 551.13L122.29 549.71L120.87 548.24L119.51 546.71L118.2 545.13L116.96 543.5L115.78 541.82L114.66 540.09L113.61 538.32L112.62 536.51L111.7 534.65L110.86 532.76L110.08 530.83L109.39 528.86L108.76 526.85L108.22 524.82L107.75 522.75L107.36 520.65L107.06 518.53L106.84 516.37L106.71 514.2L106.67 512L106.67 298.67L106.67 298.51L106.67 298.35L106.68 298.19L106.69 298.04L106.7 297.88L106.71 297.72L106.73 297.57L106.74 297.41L106.76 297.26L106.78 297.1L106.81 296.95L106.84 296.79L106.86 296.64L106.9 296.48L106.93 296.33L106.96 296.18L107 296.03L107.04 295.88L107.08 295.72L107.13 295.57L107.17 295.43L107.22 295.28L107.27 295.13L107.33 294.98L107.38 294.84L107.44 294.69L107.5 294.54L107.56 294.4L107.62 294.26L107.69 294.11L107.75 293.97L107.82 293.83L107.9 293.69L107.97 293.55L108.05 293.42L108.12 293.28L108.21 293.14L108.29 293.01L108.37 292.88L108.46 292.74L151.13 228.74L151.28 228.54L151.45 228.33L151.62 228.14L151.79 227.94L151.96 227.75L152.14 227.57L152.33 227.38L152.52 227.21L152.71 227.04L152.9 226.87L153.1 226.71L153.3 226.55L153.51 226.4L153.72 226.25L153.93 226.11L154.15 225.97L154.37 225.84L154.59 225.71L154.81 225.59L155.04 225.47L155.27 225.36L155.5 225.26L155.73 225.16L155.97 225.06L156.21 224.97L156.45 224.89L156.69 224.81L156.94 224.73L157.18 224.67L157.43 224.6L157.68 224.55L157.94 224.5L158.19 224.45L158.44 224.41L158.7 224.38L158.96 224.35L159.22 224.33L159.48 224.31L159.74 224.31L160 224.3L160.26 224.31L160.52 224.31ZM128 512L128.03 513.43L128.12 514.83L128.28 516.23L128.49 517.6L128.76 518.95L129.08 520.29L129.46 521.6L129.9 522.88L130.39 524.14L130.92 525.38L131.51 526.59L132.15 527.76L132.83 528.91L133.56 530.03L134.33 531.11L135.15 532.16L136.01 533.18L136.91 534.15L137.85 535.09L138.82 535.99L139.84 536.85L140.89 537.67L141.97 538.44L143.09 539.17L144.24 539.85L145.41 540.49L146.62 541.08L147.86 541.61L149.12 542.1L150.4 542.54L151.71 542.92L153.05 543.24L154.4 543.51L155.77 543.72L157.17 543.88L158.57 543.97L160 544L161.43 543.97L162.83 543.88L164.23 543.72L165.6 543.51L166.95 543.24L168.29 542.92L169.6 542.54L170.88 542.1L172.14 541.61L173.38 541.08L174.59 540.49L175.76 539.85L176.91 539.17L178.03 538.44L179.11 537.67L180.16 536.85L181.18 535.99L182.15 535.09L183.09 534.15L183.99 533.18L184.85 532.16L185.67 531.11L186.44 530.03L187.17 528.91L187.85 527.76L188.49 526.59L189.08 525.38L189.61 524.14L190.1 522.88L190.54 521.6L190.92 520.29L191.24 518.95L191.51 517.6L191.72 516.23L191.88 514.83L191.97 513.43L192 512L192 501.33L128 501.33L128 512ZM128 480L192 480L192 469.33L128 469.33L128 480ZM128 448L192 448L192 309.33L170.67 309.33L170.67 426.67L149.33 426.67L149.33 309.33L128 309.33L128 448ZM182.74 288L160 253.86L137.26 288L182.74 288Z" id="a285Rnz0Zl"></path></defs><g><g><g><use xlink:href="#cimrCWeWQ" opacity="1" fill="#1081a7" fill-opacity="1"></use><g><use xlink:href="#cimrCWeWQ" opacity="1" fill-opacity="0" stroke="#000000" stroke-width="1" stroke-opacity="0"></use></g></g><g><use xlink:href="#b99Kpg2LF" opacity="1" fill="#1081a7" fill-opacity="1"></use><g><use xlink:href="#b99Kpg2LF" opacity="1" fill-opacity="0" stroke="#000000" stroke-width="1" stroke-opacity="0"></use></g></g><g><use xlink:href="#ahxLXPFTk" opacity="1" fill="#1081a7" fill-opacity="1"></use><g><use xlink:href="#ahxLXPFTk" opacity="1" fill-opacity="0" stroke="#000000" stroke-width="1" stroke-opacity="0"></use></g></g><g><use xlink:href="#ejROAVVht" opacity="1" fill="#1081a7" fill-opacity="1"></use><g><use xlink:href="#ejROAVVht" opacity="1" fill-opacity="0" stroke="#000000" stroke-width="1" stroke-opacity="0"></use></g></g><g><use xlink:href="#b48PGmQLQ" opacity="1" fill="#1081a7" fill-opacity="1"></use><g><use xlink:href="#b48PGmQLQ" opacity="1" fill-opacity="0" stroke="#000000" stroke-width="1" stroke-opacity="0"></use></g></g><g><use xlink:href="#c3la2bAhuG" opacity="1" fill="#1081a7" fill-opacity="1"></use><g><use xlink:href="#c3la2bAhuG" opacity="1" fill-opacity="0" stroke="#000000" stroke-width="1" stroke-opacity="0"></use></g></g><g><use xlink:href="#bd4vHszmU" opacity="1" fill="#1081a7" fill-opacity="1"></use><g><use xlink:href="#bd4vHszmU" opacity="1" fill-opacity="0" stroke="#000000" stroke-width="1" stroke-opacity="0"></use></g></g><g><use xlink:href="#aqOGhkwtP" opacity="1" fill="#1081a7" fill-opacity="1"></use><g><use xlink:href="#aqOGhkwtP" opacity="1" fill-opacity="0" stroke="#000000" stroke-width="1" stroke-opacity="0"></use></g></g><g><use xlink:href="#bFWWdLvYf" opacity="1" fill="#1081a7" fill-opacity="1"></use><g><use xlink:href="#bFWWdLvYf" opacity="1" fill-opacity="0" stroke="#000000" stroke-width="1" stroke-opacity="0"></use></g></g><g><use xlink:href="#a19pgJsUWV" opacity="1" fill="#1081a7" fill-opacity="1"></use><g><use xlink:href="#a19pgJsUWV" opacity="1" fill-opacity="0" stroke="#000000" stroke-width="1" stroke-opacity="0"></use></g></g><g><use xlink:href="#f48ELatnuT" opacity="1" fill="#1081a7" fill-opacity="1"></use><g><use xlink:href="#f48ELatnuT" opacity="1" fill-opacity="0" stroke="#000000" stroke-width="1" stroke-opacity="0"></use></g></g><g><use xlink:href="#a40zmH6KfR" opacity="1" fill="#1081a7" fill-opacity="1"></use><g><use xlink:href="#a40zmH6KfR" opacity="1" fill-opacity="0" stroke="#000000" stroke-width="1" stroke-opacity="0"></use></g></g><g><use xlink:href="#dCnB6riNP" opacity="1" fill="#1081a7" fill-opacity="1"></use><g><use xlink:href="#dCnB6riNP" opacity="1" fill-opacity="0" stroke="#000000" stroke-width="1" stroke-opacity="0"></use></g></g><g><use xlink:href="#a285Rnz0Zl" opacity="1" fill="#1081a7" fill-opacity="1"></use><g><use xlink:href="#a285Rnz0Zl" opacity="1" fill-opacity="0" stroke="#000000" stroke-width="1" stroke-opacity="0"></use></g></g></g></g></svg>