<svg width="19" height="19" viewBox="0 0 19 19" fill="none" xmlns="http://www.w3.org/2000/svg">
<path d="M11.1803 9.50078L18.6519 2.02926C19.116 1.56546 19.116 0.812925 18.6519 0.349124C18.1877 -0.115073 17.4359 -0.115073 16.9717 0.349124L9.5002 7.82064L2.02829 0.349124C1.56409 -0.115073 0.812345 -0.115073 0.348148 0.349124C-0.116049 0.812925 -0.116049 1.56546 0.348148 2.02926L7.82006 9.50078L0.348148 16.9723C-0.116049 17.4361 -0.116049 18.1886 0.348148 18.6524C0.580246 18.8841 0.88443 19.0002 1.18822 19.0002C1.49201 19.0002 1.79619 18.8841 2.02829 18.652L9.5002 11.1805L16.9717 18.652C17.2038 18.8841 17.508 19.0002 17.8118 19.0002C18.1156 19.0002 18.4198 18.8841 18.6519 18.652C19.116 18.1882 19.116 17.4357 18.6519 16.9719L11.1803 9.50078Z" fill="#E6E6E6"/>
</svg>
