<?xml version="1.0" encoding="UTF-8" standalone="no"?>
<!DOCTYPE svg PUBLIC "-//W3C//DTD SVG 1.1//EN" "http://www.w3.org/Graphics/SVG/1.1/DTD/svg11.dtd">
<svg version="1.1" xmlns="http://www.w3.org/2000/svg" xmlns:xlink="http://www.w3.org/1999/xlink" preserveAspectRatio="xMidYMid meet" viewBox="0 0 640 640" width="640" height="640"><defs><path d="M512.65 0.03L513.06 0.08L513.47 0.13L513.87 0.21L514.27 0.3L514.66 0.4L515.04 0.52L515.42 0.65L515.79 0.8L516.15 0.96L516.5 1.14L516.85 1.33L517.19 1.53L517.52 1.74L517.84 1.97L518.15 2.21L518.46 2.46L518.75 2.72L519.03 2.99L519.3 3.27L519.57 3.57L519.82 3.87L520.05 4.18L520.28 4.5L520.49 4.83L520.7 5.17L520.88 5.52L521.06 5.87L521.22 6.24L521.37 6.61L521.5 6.98L521.62 7.37L521.73 7.76L521.82 8.15L521.89 8.56L521.95 8.96L521.99 9.38L522.01 9.79L522.02 10.21L522.02 44.57L615.71 44.57L616.71 44.59L617.7 44.65L618.67 44.75L619.64 44.88L620.6 45.06L621.54 45.27L622.46 45.52L623.38 45.81L624.27 46.13L625.15 46.48L626.02 46.86L626.86 47.28L627.69 47.73L628.49 48.21L629.28 48.72L630.04 49.26L630.79 49.83L631.51 50.42L632.2 51.04L632.88 51.69L633.52 52.36L634.15 53.06L634.74 53.78L635.31 54.52L635.85 55.29L636.36 56.07L636.84 56.88L637.28 57.7L637.7 58.55L638.09 59.41L638.44 60.29L638.76 61.19L639.04 62.1L639.29 63.03L639.51 63.97L639.68 64.92L639.82 65.89L639.92 66.87L639.98 67.86L640 68.86L640 517.14L639.98 518.14L639.92 519.13L639.82 520.11L639.68 521.07L639.51 522.03L639.29 522.97L639.04 523.9L638.76 524.81L638.44 525.71L638.09 526.59L637.7 527.45L637.28 528.29L636.84 529.12L636.36 529.93L635.85 530.71L635.31 531.48L634.74 532.22L634.15 532.94L633.52 533.64L632.88 534.31L632.2 534.96L631.51 535.58L630.79 536.17L630.04 536.74L629.28 537.28L628.49 537.79L627.69 538.27L626.86 538.72L626.02 539.13L625.15 539.52L624.27 539.87L623.38 540.19L622.46 540.48L621.54 540.72L620.6 540.94L619.64 541.11L618.67 541.25L617.7 541.35L616.71 541.41L615.71 541.43L588.94 541.43L588.52 541.42L588.1 541.4L587.69 541.36L587.28 541.3L586.88 541.22L586.48 541.14L586.09 541.03L585.71 540.91L585.33 540.78L584.96 540.63L584.6 540.47L584.24 540.29L583.9 540.1L583.56 539.9L583.23 539.69L582.9 539.46L582.59 539.22L582.29 538.97L582 538.71L581.71 538.44L581.44 538.16L581.18 537.87L580.93 537.56L580.69 537.25L580.47 536.93L580.25 536.6L580.05 536.26L579.86 535.91L579.69 535.56L579.53 535.19L579.38 534.82L579.24 534.45L579.12 534.06L579.02 533.67L578.93 533.28L578.86 532.88L578.8 532.47L578.76 532.06L578.73 531.64L578.72 531.22L578.73 530.8L578.76 530.38L578.8 529.97L578.86 529.56L578.93 529.16L579.02 528.76L579.12 528.37L579.24 527.99L579.38 527.61L579.53 527.24L579.69 526.88L579.86 526.53L580.05 526.18L580.25 525.84L580.47 525.51L580.69 525.19L580.93 524.87L581.18 524.57L581.44 524.28L581.71 524L582 523.73L582.29 523.46L582.59 523.21L582.9 522.98L583.23 522.75L583.56 522.54L583.9 522.33L584.24 522.15L584.6 521.97L584.96 521.81L585.33 521.66L585.71 521.53L586.09 521.41L586.48 521.3L586.88 521.21L587.28 521.14L587.69 521.08L588.1 521.04L588.52 521.01L588.94 521.01L615.71 521.01L615.86 521L616.02 520.99L616.17 520.98L616.33 520.95L616.48 520.93L616.62 520.89L616.77 520.85L616.91 520.81L617.06 520.75L617.2 520.7L617.33 520.63L617.47 520.57L617.6 520.49L617.73 520.42L617.85 520.34L617.97 520.25L618.09 520.16L618.21 520.06L618.32 519.96L618.43 519.86L618.53 519.75L618.63 519.64L618.73 519.52L618.82 519.41L618.9 519.28L618.99 519.16L619.06 519.03L619.14 518.9L619.2 518.76L619.27 518.63L619.32 518.49L619.37 518.35L619.42 518.2L619.46 518.05L619.5 517.91L619.52 517.76L619.55 517.6L619.56 517.45L619.57 517.29L619.58 517.14L619.58 68.86L619.57 68.7L619.56 68.55L619.55 68.39L619.52 68.24L619.5 68.09L619.46 67.94L619.42 67.8L619.37 67.65L619.32 67.51L619.27 67.37L619.2 67.23L619.14 67.1L619.06 66.97L618.99 66.84L618.9 66.71L618.82 66.59L618.73 66.47L618.63 66.36L618.53 66.25L618.43 66.14L618.32 66.04L618.21 65.94L618.09 65.84L617.97 65.75L617.85 65.66L617.73 65.58L617.6 65.5L617.47 65.43L617.33 65.36L617.2 65.3L617.06 65.24L616.91 65.19L616.77 65.15L616.62 65.11L616.48 65.07L616.33 65.04L616.17 65.02L616.02 65L615.86 64.99L615.71 64.99L522.02 64.99L522.02 113.48L522.02 113.9L521.99 114.32L521.95 114.73L521.89 115.14L521.82 115.54L521.73 115.94L521.62 116.33L521.5 116.71L521.37 117.09L521.22 117.46L521.06 117.82L520.89 118.18L520.7 118.52L520.5 118.86L520.28 119.19L520.05 119.51L519.82 119.83L519.57 120.13L519.31 120.42L519.03 120.7L518.75 120.98L518.46 121.24L518.16 121.49L517.84 121.73L517.52 121.95L517.19 122.17L516.85 122.37L516.51 122.56L516.15 122.73L515.79 122.89L515.42 123.04L515.04 123.18L514.66 123.29L514.27 123.4L513.87 123.49L513.47 123.56L513.06 123.62L512.65 123.66L512.23 123.69L511.81 123.7L511.39 123.69L510.97 123.66L510.56 123.62L510.16 123.56L509.75 123.49L509.36 123.4L508.97 123.29L508.58 123.18L508.21 123.04L507.84 122.89L507.47 122.73L507.12 122.56L506.77 122.37L506.43 122.17L506.1 121.95L505.78 121.73L505.47 121.49L505.17 121.24L504.87 120.98L504.59 120.7L504.32 120.42L504.06 120.13L503.81 119.83L503.57 119.51L503.34 119.19L503.13 118.86L502.93 118.52L502.74 118.18L502.56 117.82L502.4 117.46L502.25 117.09L502.12 116.71L502 116.33L501.9 115.94L501.81 115.54L501.73 115.14L501.67 114.73L501.63 114.32L501.61 113.9L501.6 113.48L501.6 20.43L138.4 20.43L138.4 437.91L172.44 437.91L172.44 354.44L172.45 354.02L172.48 353.61L172.52 353.19L172.58 352.79L172.65 352.38L172.74 351.99L172.85 351.6L172.97 351.21L173.1 350.84L173.25 350.47L173.41 350.1L173.58 349.75L173.77 349.4L173.97 349.06L174.19 348.73L174.42 348.41L174.65 348.1L174.9 347.8L175.16 347.5L175.44 347.22L175.72 346.95L176.01 346.69L176.31 346.44L176.63 346.2L176.95 345.97L177.28 345.76L177.62 345.56L177.96 345.37L178.32 345.19L178.68 345.03L179.05 344.88L179.43 344.75L179.81 344.63L180.2 344.53L180.6 344.44L181 344.36L181.41 344.31L181.82 344.26L182.24 344.24L182.66 344.23L344.29 344.23L344.71 344.24L345.13 344.26L345.54 344.31L345.94 344.36L346.35 344.44L346.74 344.53L347.13 344.63L347.52 344.75L347.89 344.88L348.26 345.03L348.63 345.19L348.98 345.37L349.33 345.56L349.67 345.76L350 345.97L350.32 346.2L350.63 346.44L350.93 346.69L351.23 346.95L351.51 347.22L351.78 347.5L352.04 347.8L352.29 348.1L352.53 348.41L352.76 348.73L352.97 349.06L353.17 349.4L353.36 349.75L353.54 350.1L353.7 350.47L353.85 350.84L353.98 351.21L354.1 351.6L354.2 351.99L354.29 352.38L354.37 352.79L354.42 353.19L354.47 353.61L354.49 354.02L354.5 354.44L354.5 437.91L434.68 437.91L435.1 437.92L435.52 437.94L435.93 437.99L436.34 438.04L436.74 438.12L437.14 438.21L437.53 438.31L437.91 438.43L438.29 438.56L438.66 438.71L439.02 438.87L439.38 439.05L439.72 439.24L440.06 439.44L440.39 439.65L440.71 439.88L441.03 440.12L441.33 440.37L441.62 440.63L441.9 440.9L442.18 441.18L442.44 441.48L442.69 441.78L442.93 442.09L443.15 442.41L443.37 442.74L443.57 443.08L443.76 443.43L443.93 443.78L444.09 444.15L444.24 444.52L444.37 444.89L444.49 445.28L444.6 445.67L444.69 446.06L444.76 446.47L444.82 446.87L444.86 447.28L444.89 447.7L444.9 448.12L444.89 448.54L444.86 448.96L444.82 449.37L444.76 449.78L444.69 450.18L444.6 450.58L444.49 450.97L444.37 451.35L444.24 451.73L444.09 452.1L443.93 452.46L443.76 452.82L443.57 453.16L443.37 453.5L443.15 453.83L442.93 454.15L442.69 454.47L442.44 454.77L442.18 455.06L441.9 455.34L441.62 455.62L441.33 455.88L441.03 456.13L440.71 456.37L440.39 456.59L440.06 456.81L439.72 457.01L439.38 457.2L439.02 457.37L438.66 457.53L438.29 457.68L437.91 457.81L437.53 457.93L437.14 458.04L436.74 458.13L436.34 458.2L435.93 458.26L435.52 458.3L435.1 458.33L434.68 458.34L52.46 458.34L52.04 458.33L51.62 458.3L51.21 458.26L50.8 458.2L50.4 458.13L50 458.04L49.61 457.93L49.23 457.81L48.85 457.68L48.48 457.53L48.12 457.37L47.76 457.2L47.42 457.01L47.08 456.81L46.75 456.59L46.43 456.37L46.11 456.13L45.81 455.88L45.52 455.62L45.24 455.34L44.96 455.06L44.7 454.77L44.45 454.47L44.21 454.15L43.99 453.83L43.77 453.5L43.57 453.16L43.38 452.82L43.21 452.46L43.05 452.1L42.9 451.73L42.76 451.35L42.65 450.97L42.54 450.58L42.45 450.18L42.38 449.78L42.32 449.37L42.28 448.96L42.25 448.54L42.24 448.12L42.25 447.7L42.28 447.28L42.32 446.87L42.38 446.47L42.45 446.06L42.54 445.67L42.65 445.28L42.76 444.89L42.9 444.52L43.05 444.15L43.21 443.78L43.38 443.43L43.57 443.08L43.77 442.74L43.99 442.41L44.21 442.09L44.45 441.78L44.7 441.48L44.96 441.18L45.24 440.9L45.52 440.63L45.81 440.37L46.11 440.12L46.43 439.88L46.75 439.65L47.08 439.44L47.42 439.24L47.76 439.05L48.12 438.87L48.48 438.71L48.85 438.56L49.23 438.43L49.61 438.31L50 438.21L50.4 438.12L50.8 438.04L51.21 437.99L51.62 437.94L52.04 437.92L52.46 437.91L117.98 437.91L117.98 64.99L24.29 64.99L24.14 64.99L23.98 65L23.83 65.02L23.68 65.04L23.53 65.07L23.38 65.1L23.23 65.14L23.09 65.19L22.94 65.24L22.8 65.3L22.67 65.36L22.53 65.43L22.4 65.5L22.27 65.58L22.15 65.66L22.03 65.75L21.91 65.84L21.79 65.93L21.68 66.03L21.57 66.14L21.47 66.25L21.37 66.36L21.27 66.47L21.18 66.59L21.1 66.71L21.01 66.84L20.94 66.97L20.86 67.1L20.8 67.23L20.74 67.37L20.68 67.51L20.63 67.65L20.58 67.8L20.54 67.94L20.51 68.09L20.48 68.24L20.45 68.39L20.44 68.55L20.43 68.7L20.43 68.86L20.43 517.14L20.43 517.29L20.44 517.45L20.45 517.6L20.48 517.75L20.51 517.9L20.54 518.05L20.58 518.2L20.63 518.34L20.68 518.49L20.74 518.63L20.8 518.76L20.86 518.9L20.94 519.03L21.01 519.16L21.1 519.28L21.18 519.4L21.27 519.52L21.37 519.64L21.47 519.75L21.57 519.86L21.68 519.96L21.79 520.06L21.91 520.16L22.03 520.25L22.15 520.33L22.27 520.42L22.4 520.49L22.53 520.57L22.67 520.63L22.8 520.7L22.94 520.75L23.09 520.8L23.23 520.85L23.38 520.89L23.53 520.92L23.68 520.95L23.83 520.98L23.98 520.99L24.14 521L24.29 521L434.68 521L435.1 521.01L435.52 521.04L435.93 521.08L436.34 521.14L436.74 521.21L437.14 521.3L437.53 521.41L437.91 521.53L438.29 521.66L438.66 521.81L439.02 521.97L439.38 522.14L439.72 522.33L440.06 522.53L440.39 522.75L440.71 522.98L441.03 523.21L441.33 523.46L441.62 523.72L441.9 524L442.18 524.28L442.44 524.57L442.69 524.87L442.92 525.19L443.15 525.51L443.36 525.84L443.57 526.18L443.75 526.52L443.93 526.88L444.09 527.24L444.24 527.61L444.37 527.99L444.49 528.37L444.6 528.76L444.69 529.16L444.76 529.56L444.82 529.97L444.86 530.38L444.89 530.8L444.89 531.22L444.89 531.64L444.86 532.06L444.82 532.47L444.76 532.87L444.69 533.28L444.6 533.67L444.49 534.06L444.37 534.45L444.24 534.82L444.09 535.19L443.93 535.56L443.75 535.91L443.57 536.26L443.36 536.6L443.15 536.93L442.92 537.25L442.69 537.56L442.44 537.86L442.18 538.16L441.9 538.44L441.62 538.71L441.33 538.97L441.03 539.22L440.71 539.46L440.39 539.69L440.06 539.9L439.72 540.1L439.38 540.29L439.02 540.47L438.66 540.63L438.29 540.78L437.91 540.91L437.53 541.03L437.14 541.13L436.74 541.22L436.34 541.3L435.93 541.35L435.52 541.4L435.1 541.42L434.68 541.43L392.65 541.43L392.65 619.57L443.76 619.57L444.18 619.58L444.6 619.61L445.01 619.65L445.42 619.71L445.82 619.78L446.22 619.87L446.61 619.98L446.99 620.1L447.37 620.23L447.74 620.38L448.1 620.54L448.46 620.71L448.8 620.9L449.14 621.1L449.47 621.32L449.79 621.54L450.11 621.78L450.41 622.03L450.7 622.29L450.98 622.57L451.26 622.85L451.52 623.14L451.77 623.44L452.01 623.76L452.23 624.08L452.45 624.41L452.65 624.75L452.84 625.09L453.01 625.45L453.17 625.81L453.32 626.18L453.45 626.56L453.57 626.94L453.68 627.33L453.77 627.73L453.84 628.13L453.9 628.54L453.94 628.95L453.97 629.37L453.98 629.79L453.97 630.21L453.94 630.62L453.9 631.04L453.84 631.44L453.77 631.85L453.68 632.24L453.57 632.63L453.45 633.02L453.32 633.39L453.17 633.76L453.01 634.13L452.84 634.48L452.65 634.83L452.45 635.17L452.23 635.5L452.01 635.82L451.77 636.13L451.52 636.43L451.26 636.73L450.98 637.01L450.7 637.28L450.41 637.54L450.11 637.79L449.79 638.03L449.47 638.26L449.14 638.47L448.8 638.67L448.46 638.86L448.1 639.04L447.74 639.2L447.37 639.35L446.99 639.48L446.61 639.6L446.22 639.7L445.82 639.79L445.42 639.87L445.01 639.92L444.6 639.97L444.18 639.99L443.76 640L151.03 640L150.6 639.99L150.19 639.97L149.78 639.92L149.37 639.87L148.97 639.79L148.57 639.7L148.18 639.6L147.8 639.48L147.42 639.35L147.05 639.2L146.69 639.04L146.33 638.86L145.98 638.67L145.65 638.47L145.32 638.26L144.99 638.03L144.68 637.79L144.38 637.54L144.09 637.28L143.8 637.01L143.53 636.73L143.27 636.43L143.02 636.13L142.78 635.82L142.56 635.5L142.34 635.17L142.14 634.83L141.95 634.48L141.78 634.13L141.61 633.76L141.47 633.39L141.33 633.02L141.21 632.63L141.11 632.24L141.02 631.85L140.95 631.44L140.89 631.04L140.85 630.62L140.82 630.21L140.81 629.79L140.82 629.37L140.85 628.95L140.89 628.54L140.95 628.13L141.02 627.73L141.11 627.33L141.21 626.94L141.33 626.56L141.47 626.18L141.61 625.81L141.78 625.45L141.95 625.09L142.14 624.75L142.34 624.41L142.56 624.08L142.78 623.76L143.02 623.44L143.27 623.14L143.53 622.85L143.8 622.57L144.09 622.29L144.38 622.03L144.68 621.78L144.99 621.54L145.32 621.32L145.65 621.1L145.98 620.9L146.33 620.71L146.69 620.54L147.05 620.38L147.42 620.23L147.8 620.1L148.18 619.98L148.57 619.87L148.97 619.78L149.37 619.71L149.78 619.65L150.19 619.61L150.6 619.58L151.03 619.57L247.35 619.57L247.35 541.43L24.29 541.43L23.29 541.41L22.3 541.35L21.33 541.25L20.36 541.11L19.4 540.94L18.46 540.72L17.54 540.47L16.62 540.19L15.73 539.87L14.85 539.52L13.98 539.13L13.14 538.71L12.31 538.27L11.51 537.79L10.72 537.28L9.96 536.74L9.21 536.17L8.49 535.58L7.8 534.95L7.12 534.31L6.48 533.63L5.85 532.94L5.26 532.22L4.69 531.48L4.15 530.71L3.64 529.92L3.16 529.12L2.72 528.29L2.3 527.45L1.91 526.58L1.56 525.7L1.24 524.81L0.96 523.89L0.71 522.97L0.49 522.03L0.32 521.07L0.18 520.1L0.08 519.13L0.02 518.14L0 517.14L0 68.86L0.02 67.86L0.08 66.87L0.18 65.89L0.32 64.92L0.49 63.97L0.71 63.03L0.96 62.1L1.24 61.19L1.56 60.29L1.91 59.41L2.3 58.55L2.72 57.7L3.16 56.88L3.64 56.07L4.15 55.29L4.69 54.52L5.26 53.78L5.85 53.06L6.48 52.36L7.12 51.69L7.8 51.04L8.49 50.42L9.21 49.83L9.96 49.26L10.72 48.72L11.51 48.21L12.31 47.73L13.14 47.28L13.98 46.86L14.85 46.48L15.73 46.13L16.62 45.81L17.54 45.52L18.46 45.27L19.4 45.06L20.36 44.88L21.33 44.75L22.3 44.65L23.29 44.59L24.29 44.57L117.98 44.57L117.98 10.21L117.99 9.79L118.01 9.38L118.05 8.96L118.11 8.56L118.18 8.15L118.27 7.76L118.38 7.37L118.5 6.98L118.63 6.61L118.78 6.24L118.94 5.87L119.12 5.52L119.31 5.17L119.51 4.83L119.72 4.5L119.95 4.18L120.19 3.87L120.43 3.57L120.7 3.27L120.97 2.99L121.25 2.72L121.54 2.46L121.85 2.21L122.16 1.97L122.48 1.74L122.81 1.53L123.15 1.33L123.5 1.14L123.85 0.96L124.21 0.8L124.58 0.65L124.96 0.52L125.35 0.4L125.74 0.3L126.13 0.21L126.53 0.13L126.94 0.08L127.35 0.03L127.77 0.01L128.19 0L511.81 0L512.23 0.01L512.65 0.03ZM267.78 619.57L372.23 619.57L372.23 541.43L267.78 541.43L267.78 619.57ZM192.87 437.91L334.07 437.91L334.07 364.66L192.87 364.66L192.87 437.91Z" id="deeGE0flF"></path><path d="M512.43 144.14L512.74 144.16L513.05 144.2L513.35 144.24L513.65 144.29L513.95 144.35L514.25 144.42L514.54 144.49L514.83 144.58L515.12 144.67L515.4 144.77L515.68 144.88L515.96 145L516.23 145.13L516.5 145.26L516.77 145.4L517.03 145.55L517.28 145.71L517.53 145.87L517.78 146.04L518.02 146.22L518.25 146.41L518.48 146.6L518.71 146.8L518.92 147.01L519.14 147.22L519.34 147.44L519.54 147.66L519.74 147.89L519.93 148.13L520.11 148.38L520.28 148.63L520.45 148.88L520.61 149.14L520.76 149.41L520.9 149.68L521.04 149.96L521.17 150.24L521.29 150.53L557.49 240.69L557.5 240.71L557.51 240.74L557.51 240.75L557.56 240.89L557.57 240.9L557.57 240.91L557.58 240.93L557.58 240.94L557.59 240.96L557.59 240.97L557.6 240.99L557.61 241.02L557.62 241.05L557.63 241.08L557.63 241.09L557.64 241.11L557.64 241.11L557.66 241.17L557.68 241.21L557.69 241.23L557.7 241.26L557.71 241.29L557.72 241.31L557.72 241.32L557.73 241.36L557.74 241.37L557.74 241.39L557.76 241.42L557.76 241.44L557.77 241.47L557.78 241.5L557.79 241.52L557.8 241.55L557.81 241.58L557.82 241.61L557.83 241.64L557.84 241.68L557.85 241.71L557.86 241.73L557.86 241.74L557.87 241.76L557.87 241.77L557.87 241.78L557.88 241.8L557.88 241.81L557.89 241.82L557.89 241.85L557.9 241.87L557.91 241.9L557.91 241.93L557.92 241.96L557.93 241.99L557.93 242.02L557.94 242.03L557.94 242.05L557.95 242.07L557.96 242.13L557.97 242.17L557.99 242.22L558 242.25L558 242.28L558.01 242.31L558.02 242.35L558.02 242.36L558.03 242.39L558.04 242.42L558.04 242.44L558.05 242.47L558.06 242.5L558.07 242.53L558.07 242.55L558.07 242.57L558.08 242.58L558.08 242.61L558.09 242.63L558.09 242.65L558.09 242.66L558.1 242.68L558.1 242.69L558.11 242.72L558.11 242.74L558.11 242.75L558.12 242.78L558.12 242.8L558.12 242.82L558.13 242.84L558.13 242.85L558.13 242.89L558.14 242.92L558.14 242.95L558.15 242.97L558.15 243.04L558.16 243.08L558.17 243.12L558.17 243.15L558.17 243.18L558.18 243.2L558.19 243.26L558.21 243.38L558.21 243.42L558.21 243.43L558.22 243.46L558.22 243.48L558.23 243.51L558.23 243.54L558.23 243.56L558.24 243.58L558.24 243.6L558.24 243.63L558.25 243.66L558.25 243.68L558.25 243.71L558.26 243.73L558.26 243.76L558.26 243.78L558.26 243.81L558.26 243.83L558.27 243.86L558.27 243.88L558.27 243.91L558.27 243.93L558.27 243.96L558.28 243.98L558.28 244.01L558.28 244.03L558.28 244.06L558.28 244.08L558.28 244.11L558.28 244.13L558.29 244.16L558.29 244.18L558.29 244.21L558.29 244.23L558.29 244.26L558.29 244.28L558.29 244.31L558.29 244.33L558.3 244.36L558.3 244.38L558.3 244.41L558.3 244.43L558.3 244.46L558.3 244.48L558.3 244.51L558.3 244.53L558.3 244.56L558.3 244.58L558.3 244.61L558.3 244.63L558.3 244.66L558.3 244.68L558.3 593.51L558.26 595.42L558.15 597.32L557.96 599.19L557.69 601.04L557.35 602.87L556.95 604.67L556.47 606.44L555.93 608.19L555.32 609.91L554.64 611.59L553.9 613.24L553.1 614.86L552.24 616.44L551.33 617.98L550.35 619.49L549.32 620.95L548.23 622.37L547.1 623.75L545.91 625.08L544.67 626.37L543.38 627.61L542.05 628.8L540.67 629.93L539.25 631.02L537.79 632.05L536.28 633.03L534.74 633.94L533.16 634.8L531.54 635.6L529.89 636.34L528.21 637.02L526.49 637.63L524.74 638.17L522.97 638.65L521.17 639.06L519.34 639.39L517.49 639.66L515.62 639.85L513.73 639.96L511.81 640L509.9 639.96L508 639.85L506.13 639.66L504.28 639.39L502.45 639.06L500.65 638.65L498.88 638.17L497.13 637.63L495.42 637.02L493.73 636.34L492.08 635.6L490.47 634.8L488.88 633.94L487.34 633.03L485.84 632.05L484.37 631.02L482.95 629.93L481.57 628.8L480.24 627.61L478.95 626.37L477.72 625.08L476.53 623.75L475.39 622.37L474.3 620.95L473.27 619.49L472.3 617.98L471.38 616.44L470.52 614.86L469.72 613.24L468.98 611.59L468.31 609.91L467.7 608.19L467.15 606.44L466.68 604.67L466.27 602.87L465.93 601.04L465.67 599.19L465.48 597.32L465.36 595.42L465.32 593.51L465.32 244.68L465.32 244.66L465.32 244.63L465.32 244.61L465.32 244.58L465.32 244.56L465.32 244.53L465.32 244.51L465.32 244.48L465.32 244.46L465.33 244.43L465.33 244.41L465.33 244.38L465.33 244.36L465.33 244.33L465.33 244.31L465.33 244.28L465.33 244.26L465.33 244.23L465.33 244.21L465.34 244.18L465.34 244.16L465.34 244.13L465.34 244.11L465.34 244.08L465.34 244.06L465.34 244.03L465.35 244.01L465.35 243.98L465.35 243.96L465.35 243.93L465.35 243.91L465.35 243.88L465.36 243.86L465.36 243.83L465.36 243.81L465.36 243.78L465.37 243.76L465.37 243.73L465.37 243.71L465.37 243.68L465.38 243.66L465.38 243.64L465.38 243.62L465.38 243.59L465.39 243.56L465.39 243.55L465.39 243.52L465.4 243.5L465.4 243.47L465.4 243.44L465.41 243.42L465.41 243.39L465.42 243.35L465.42 243.33L465.43 243.29L465.44 243.22L465.44 243.18L465.45 243.14L465.45 243.12L465.46 243.09L465.46 243.05L465.47 243.03L465.48 242.96L465.48 242.93L465.49 242.9L465.49 242.86L465.49 242.84L465.5 242.83L465.5 242.81L465.5 242.8L465.5 242.78L465.51 242.75L465.51 242.74L465.51 242.72L465.52 242.71L465.52 242.69L465.52 242.68L465.53 242.66L465.53 242.65L465.54 242.61L465.54 242.6L465.55 242.57L465.55 242.54L465.56 242.52L465.56 242.5L465.56 242.49L465.57 242.47L465.58 242.44L465.58 242.41L465.59 242.4L465.6 242.36L465.6 242.33L465.61 242.3L465.62 242.27L465.63 242.23L465.64 242.21L465.66 242.1L465.67 242.08L465.67 242.06L465.68 242.04L465.68 242.03L465.69 241.99L465.71 241.93L465.71 241.9L465.72 241.89L465.72 241.88L465.73 241.85L465.73 241.83L465.74 241.8L465.74 241.79L465.75 241.77L465.76 241.74L465.76 241.72L465.77 241.71L465.77 241.69L465.78 241.66L465.79 241.65L465.79 241.63L465.8 241.62L465.81 241.58L465.82 241.55L465.83 241.52L465.84 241.49L465.84 241.48L465.85 241.45L465.86 241.43L465.87 241.4L465.88 241.38L465.89 241.35L465.9 241.32L465.9 241.31L465.91 241.29L465.93 241.25L465.94 241.22L465.96 241.14L465.97 241.13L465.97 241.11L465.98 241.1L465.99 241.08L465.99 241.06L466 241.04L466.01 241.01L466.02 240.98L466.03 240.96L466.03 240.94L466.03 240.94L466.04 240.93L466.04 240.91L466.05 240.9L466.05 240.89L466.06 240.88L466.07 240.85L466.1 240.77L466.12 240.72L466.13 240.7L502.33 150.53L502.45 150.24L502.58 149.96L502.72 149.68L502.86 149.41L503.02 149.14L503.18 148.88L503.34 148.63L503.52 148.38L503.7 148.13L503.88 147.89L504.08 147.66L504.28 147.44L504.48 147.22L504.7 147.01L504.92 146.8L505.14 146.6L505.37 146.41L505.6 146.22L505.85 146.04L506.09 145.87L506.34 145.71L506.6 145.55L506.86 145.4L507.12 145.26L507.39 145.13L507.66 145L507.94 144.88L508.22 144.77L508.5 144.67L508.79 144.58L509.08 144.49L509.37 144.42L509.67 144.35L509.97 144.29L510.27 144.24L510.57 144.2L510.88 144.16L511.19 144.14L511.5 144.13L511.81 144.12L512.12 144.13L512.43 144.14ZM485.75 593.51L485.77 594.67L485.85 595.82L485.97 596.95L486.14 598.07L486.36 599.17L486.63 600.25L486.94 601.32L487.29 602.37L487.69 603.39L488.13 604.4L488.61 605.38L489.13 606.34L489.68 607.28L490.28 608.18L490.91 609.07L491.58 609.92L492.28 610.75L493.01 611.54L493.77 612.31L494.57 613.04L495.4 613.74L496.25 614.41L497.13 615.04L498.04 615.64L498.98 616.19L499.94 616.71L500.92 617.19L501.93 617.63L502.95 618.03L504 618.38L505.07 618.69L506.15 618.96L507.25 619.18L508.37 619.35L509.5 619.47L510.65 619.55L511.81 619.57L512.97 619.55L514.11 619.47L515.25 619.35L516.37 619.18L517.47 618.96L518.55 618.69L519.62 618.38L520.66 618.03L521.69 617.63L522.7 617.19L523.68 616.71L524.64 616.19L525.57 615.64L526.48 615.04L527.37 614.41L528.22 613.74L529.05 613.04L529.84 612.31L530.61 611.54L531.34 610.75L532.04 609.92L532.71 609.07L533.34 608.18L533.93 607.28L534.49 606.34L535.01 605.38L535.49 604.4L535.93 603.39L536.32 602.37L536.68 601.32L536.99 600.25L537.25 599.17L537.47 598.07L537.65 596.95L537.77 595.82L537.85 594.67L537.87 593.51L537.87 566.98L485.75 566.98L485.75 593.51ZM485.75 546.55L537.87 546.55L537.87 254.9L485.75 254.9L485.75 546.55ZM532.98 234.47L511.81 181.74L490.64 234.47L532.98 234.47Z" id="adW9296w0"></path><path d="M458.18 54.5L458.59 54.54L459 54.6L459.4 54.68L459.8 54.76L460.19 54.87L460.57 54.99L460.95 55.12L461.32 55.27L461.68 55.43L462.04 55.61L462.39 55.8L462.72 56L463.05 56.21L463.38 56.44L463.69 56.68L463.99 56.93L464.28 57.19L464.57 57.46L464.84 57.74L465.1 58.03L465.35 58.34L465.59 58.65L465.81 58.97L466.03 59.3L466.23 59.64L466.42 59.99L466.59 60.34L466.75 60.71L466.9 61.08L467.04 61.45L467.16 61.84L467.26 62.23L467.35 62.62L467.42 63.02L467.48 63.43L467.52 63.84L467.55 64.26L467.56 64.68L467.56 136.57L467.55 136.99L467.52 137.41L467.48 137.82L467.42 138.23L467.35 138.63L467.26 139.03L467.16 139.42L467.04 139.8L466.9 140.18L466.75 140.55L466.59 140.91L466.42 141.27L466.23 141.61L466.03 141.95L465.81 142.28L465.59 142.6L465.35 142.92L465.1 143.22L464.84 143.51L464.57 143.79L464.28 144.07L463.99 144.33L463.69 144.58L463.38 144.81L463.05 145.04L462.72 145.25L462.39 145.46L462.04 145.64L461.68 145.82L461.32 145.98L460.95 146.13L460.57 146.26L460.19 146.38L459.8 146.49L459.4 146.58L459 146.65L458.59 146.71L458.18 146.75L457.77 146.78L457.34 146.78L182.66 146.78L182.24 146.78L181.82 146.75L181.41 146.71L181 146.65L180.6 146.58L180.2 146.49L179.81 146.38L179.43 146.26L179.05 146.13L178.68 145.98L178.32 145.82L177.96 145.64L177.62 145.46L177.28 145.25L176.95 145.04L176.63 144.81L176.31 144.58L176.01 144.33L175.72 144.07L175.44 143.79L175.16 143.51L174.9 143.22L174.65 142.92L174.42 142.6L174.19 142.28L173.97 141.95L173.77 141.61L173.58 141.27L173.41 140.91L173.25 140.55L173.1 140.18L172.97 139.8L172.85 139.42L172.74 139.03L172.65 138.63L172.58 138.23L172.52 137.82L172.48 137.41L172.45 136.99L172.44 136.57L172.44 64.68L172.45 64.26L172.48 63.84L172.52 63.43L172.58 63.02L172.65 62.62L172.74 62.23L172.85 61.84L172.97 61.45L173.1 61.08L173.25 60.71L173.41 60.34L173.58 59.99L173.77 59.64L173.97 59.3L174.19 58.97L174.42 58.65L174.65 58.34L174.9 58.03L175.16 57.74L175.44 57.46L175.72 57.19L176.01 56.93L176.31 56.68L176.63 56.44L176.95 56.21L177.28 56L177.62 55.8L177.96 55.61L178.32 55.43L178.68 55.27L179.05 55.12L179.43 54.99L179.81 54.87L180.2 54.76L180.6 54.68L181 54.6L181.41 54.54L181.82 54.5L182.24 54.48L182.66 54.47L457.34 54.47L457.77 54.48L458.18 54.5ZM192.87 126.36L447.13 126.36L447.13 74.89L192.87 74.89L192.87 126.36Z" id="cbEB5xAPw"></path><path d="M182.66 167.21C177.02 167.21 172.44 171.78 172.44 177.42C172.44 183.06 177.02 187.64 182.66 187.64C210.13 187.64 429.88 187.64 457.34 187.64C462.99 187.64 467.56 183.06 467.56 177.42C467.56 171.78 462.98 167.21 457.34 167.21C402.41 167.21 210.13 167.21 182.66 167.21Z" id="i9YfXTfOi"></path><path d="M182.66 221.68C177.02 221.68 172.44 226.25 172.44 231.89C172.44 237.53 177.02 242.1 182.66 242.1C198.82 242.1 328.12 242.1 344.29 242.1C349.93 242.1 354.5 237.53 354.5 231.89C354.5 226.25 349.93 221.68 344.29 221.68C311.96 221.68 198.82 221.68 182.66 221.68Z" id="cEVA2VX8I"></path><path d="M385.14 221.68C379.5 221.68 374.93 226.25 374.93 231.89C374.93 237.53 379.5 242.1 385.14 242.1C390.29 242.1 431.5 242.1 436.65 242.1C442.29 242.1 446.86 237.53 446.86 231.89C446.86 226.25 442.29 221.68 436.65 221.68C426.35 221.68 390.29 221.68 385.14 221.68Z" id="a1URh97Mk"></path><path d="M182.66 262.53C177.02 262.53 172.44 267.1 172.44 272.74C172.44 278.38 177.02 282.95 182.66 282.95C198.82 282.95 328.12 282.95 344.29 282.95C349.93 282.95 354.5 278.38 354.5 272.74C354.5 267.1 349.93 262.53 344.29 262.53C311.96 262.53 198.82 262.53 182.66 262.53Z" id="b12qxN1Qrv"></path><path d="M385.14 262.53C379.5 262.53 374.93 267.1 374.93 272.74C374.93 278.38 379.5 282.95 385.14 282.95C390.09 282.95 429.73 282.95 434.68 282.95C440.32 282.95 444.9 278.38 444.9 272.74C444.9 267.1 440.32 262.53 434.68 262.53C424.77 262.53 390.09 262.53 385.14 262.53Z" id="a2ieg9l9XV"></path><path d="M182.66 303.38C177.02 303.38 172.44 307.95 172.44 313.59C172.44 319.23 177.02 323.81 182.66 323.81C198.82 323.81 328.12 323.81 344.29 323.81C349.93 323.81 354.5 319.23 354.5 313.59C354.5 307.95 349.93 303.38 344.29 303.38C311.96 303.38 198.82 303.38 182.66 303.38Z" id="b5shegNvws"></path><path d="M385.14 303.38C379.5 303.38 374.93 307.95 374.93 313.59C374.93 319.23 379.5 323.81 385.14 323.81C390.09 323.81 429.73 323.81 434.68 323.81C440.32 323.81 444.9 319.23 444.9 313.59C444.9 307.95 440.32 303.38 434.68 303.38C424.77 303.38 390.09 303.38 385.14 303.38Z" id="c1gJLusH41"></path></defs><g><g><g><use xlink:href="#deeGE0flF" opacity="1" fill="#1081a7" fill-opacity="1"></use><g><use xlink:href="#deeGE0flF" opacity="1" fill-opacity="0" stroke="#000000" stroke-width="1" stroke-opacity="0"></use></g></g><g><use xlink:href="#adW9296w0" opacity="1" fill="#1081a7" fill-opacity="1"></use><g><use xlink:href="#adW9296w0" opacity="1" fill-opacity="0" stroke="#000000" stroke-width="1" stroke-opacity="0"></use></g></g><g><use xlink:href="#cbEB5xAPw" opacity="1" fill="#1081a7" fill-opacity="1"></use><g><use xlink:href="#cbEB5xAPw" opacity="1" fill-opacity="0" stroke="#000000" stroke-width="1" stroke-opacity="0"></use></g></g><g><use xlink:href="#i9YfXTfOi" opacity="1" fill="#1081a7" fill-opacity="1"></use><g><use xlink:href="#i9YfXTfOi" opacity="1" fill-opacity="0" stroke="#000000" stroke-width="1" stroke-opacity="0"></use></g></g><g><use xlink:href="#cEVA2VX8I" opacity="1" fill="#1081a7" fill-opacity="1"></use><g><use xlink:href="#cEVA2VX8I" opacity="1" fill-opacity="0" stroke="#000000" stroke-width="1" stroke-opacity="0"></use></g></g><g><use xlink:href="#a1URh97Mk" opacity="1" fill="#1081a7" fill-opacity="1"></use><g><use xlink:href="#a1URh97Mk" opacity="1" fill-opacity="0" stroke="#000000" stroke-width="1" stroke-opacity="0"></use></g></g><g><use xlink:href="#b12qxN1Qrv" opacity="1" fill="#1081a7" fill-opacity="1"></use><g><use xlink:href="#b12qxN1Qrv" opacity="1" fill-opacity="0" stroke="#000000" stroke-width="1" stroke-opacity="0"></use></g></g><g><use xlink:href="#a2ieg9l9XV" opacity="1" fill="#1081a7" fill-opacity="1"></use><g><use xlink:href="#a2ieg9l9XV" opacity="1" fill-opacity="0" stroke="#000000" stroke-width="1" stroke-opacity="0"></use></g></g><g><use xlink:href="#b5shegNvws" opacity="1" fill="#1081a7" fill-opacity="1"></use><g><use xlink:href="#b5shegNvws" opacity="1" fill-opacity="0" stroke="#000000" stroke-width="1" stroke-opacity="0"></use></g></g><g><use xlink:href="#c1gJLusH41" opacity="1" fill="#1081a7" fill-opacity="1"></use><g><use xlink:href="#c1gJLusH41" opacity="1" fill-opacity="0" stroke="#000000" stroke-width="1" stroke-opacity="0"></use></g></g></g></g></svg>