<svg xmlns="http://www.w3.org/2000/svg" width="42" height="41" viewBox="0 0 42 41"><g><g><g><path fill="#7a6b67" d="M21.164 0h.016c11.309 0 20.476 9.168 20.476 20.476v.047C41.656 31.833 32.49 41 21.18 41h-.016C9.855 41 .687 31.832.687 20.523v-.047C.687 9.168 9.855 0 21.164 0z"/><path fill="#496194" d="M21.164 0h.016c11.309 0 20.476 9.168 20.476 20.476v.047C41.656 31.833 32.49 41 21.18 41h-.016C9.855 41 .687 31.832.687 20.523v-.047C.687 9.168 9.855 0 21.164 0z"/></g><g><path fill="#fff" d="M25.73 12.17c-1.01-.207-1.787-.365-2.849-.365-3.056 0-4.273 1.457-4.273 4.057v1.898h-1.916v3.066h1.916v9.332h3.73v-9.332h2.719l.259-3.066h-2.978v-1.482c0-.833.077-1.353 1.269-1.353.44 0 1.14.079 1.657.183z"/></g></g></g></svg>