<?xml version="1.0" encoding="UTF-8" standalone="no"?>
<!DOCTYPE svg PUBLIC "-//W3C//DTD SVG 1.1//EN" "http://www.w3.org/Graphics/SVG/1.1/DTD/svg11.dtd">
<svg version="1.1" xmlns="http://www.w3.org/2000/svg" xmlns:xlink="http://www.w3.org/1999/xlink" preserveAspectRatio="xMidYMid meet" viewBox="0 0 682 682" width="682" height="682"><defs><path d="M534.71 457.25C530.09 452.63 522.59 452.63 517.97 457.25C513.35 461.87 513.35 469.37 517.97 473.99C520.79 476.81 534.88 490.91 560.26 516.28C459.55 516.28 403.61 516.28 392.42 516.28C385.88 516.28 380.58 521.58 380.58 528.12C380.58 534.65 385.88 539.95 392.42 539.95C403.61 539.95 459.55 539.95 560.26 539.95C534.88 565.33 520.79 579.42 517.97 582.24C513.34 586.87 513.34 594.36 517.97 598.98C520.28 601.29 523.31 602.45 526.34 602.45C529.37 602.45 532.4 601.3 534.71 598.98C540.96 592.73 590.95 542.74 597.2 536.49C601.83 531.87 601.83 524.37 597.2 519.75C584.71 507.25 540.96 463.5 534.71 457.25Z" id="iLmxG3o09"></path><path d="M302.3 0.48L308.15 1.08L313.93 1.9L319.63 2.95L325.26 4.23L330.8 5.71L336.25 7.41L341.61 9.32L346.87 11.43L352.03 13.73L357.08 16.23L362.01 18.91L366.83 21.78L371.53 24.83L376.1 28.05L380.54 31.44L384.84 34.99L389.01 38.7L393.02 42.57L396.89 46.59L400.6 50.75L404.16 55.06L407.55 59.49L410.77 64.07L413.81 68.76L416.68 73.58L419.36 78.52L421.86 83.57L424.17 88.72L426.27 93.98L428.18 99.34L429.88 104.79L431.37 110.33L432.64 115.96L433.69 121.66L434.52 127.44L435.11 133.29L435.47 139.21L435.59 145.18L435.56 148.15L435.48 151.13L435.33 154.14L435.14 157.16L434.88 160.2L434.57 163.26L434.2 166.33L433.78 169.42L433.31 172.52L432.78 175.62L432.2 178.74L431.57 181.86L430.88 184.99L430.15 188.13L429.36 191.27L428.52 194.41L427.63 197.55L426.69 200.69L425.7 203.83L424.67 206.96L423.58 210.09L422.45 213.21L421.27 216.33L420.04 219.44L418.77 222.53L417.44 225.62L416.08 228.69L414.67 231.75L413.21 234.79L411.71 237.81L410.17 240.81L408.58 243.8L406.95 246.76L405.28 249.7L403.57 252.62L401.81 255.51L400.02 258.37L398.18 261.21L396.31 264.01L394.39 266.78L392.18 269.87L389.95 272.89L387.69 275.84L385.4 278.72L383.08 281.52L380.74 284.25L378.37 286.92L375.98 289.5L373.57 292.02L371.13 294.46L368.67 296.82L366.19 299.11L363.68 301.33L361.16 303.47L358.61 305.54L356.05 307.52L353.47 309.44L350.87 311.27L348.25 313.03L345.62 314.71L342.97 316.31L340.3 317.84L337.62 319.28L334.93 320.65L332.22 321.94L329.5 323.14L326.77 324.27L324.02 325.31L321.27 326.27L318.5 327.16L315.73 327.96L312.94 328.67L310.15 329.31L307.35 329.86L304.54 330.33L301.72 330.71L298.9 331.01L296.08 331.22L293.25 331.35L290.41 331.39L287.58 331.35L284.75 331.22L281.92 331.01L279.1 330.71L276.29 330.33L273.48 329.86L270.68 329.31L267.88 328.67L265.1 327.96L262.32 327.16L259.56 326.27L256.8 325.31L254.06 324.27L251.32 323.14L248.6 321.94L245.9 320.65L243.2 319.28L240.52 317.84L237.86 316.31L235.21 314.71L232.57 313.03L229.96 311.27L227.36 309.44L224.77 307.52L222.21 305.54L219.67 303.47L217.14 301.33L214.64 299.11L212.16 296.82L209.7 294.46L207.26 292.02L204.84 289.5L202.45 286.92L200.09 284.25L197.75 281.52L195.43 278.72L193.14 275.84L190.88 272.89L188.64 269.87L186.43 266.78L184.52 264.01L182.64 261.21L180.81 258.37L179.01 255.51L177.26 252.62L175.54 249.7L173.87 246.76L172.24 243.8L170.65 240.81L169.11 237.81L167.61 234.79L166.16 231.75L164.75 228.69L163.38 225.62L162.06 222.53L160.78 219.44L159.56 216.33L158.38 213.21L157.24 210.09L156.16 206.96L155.12 203.83L154.13 200.69L153.19 197.55L152.3 194.41L151.46 191.27L150.68 188.13L149.94 184.99L149.25 181.86L148.62 178.74L148.04 175.62L147.51 172.52L147.04 169.42L146.62 166.33L146.25 163.26L145.94 160.2L145.69 157.16L145.49 154.14L145.35 151.13L145.26 148.15L145.23 145.18L145.35 139.21L145.71 133.29L146.31 127.44L147.13 121.66L148.19 115.96L149.46 110.33L150.95 104.79L152.64 99.34L154.55 93.98L156.66 88.72L158.96 83.57L161.46 78.52L164.14 73.58L167.01 68.76L170.06 64.07L173.28 59.49L176.67 55.06L180.22 50.75L183.93 46.59L187.8 42.57L191.82 38.7L195.98 34.99L200.29 31.44L204.73 28.05L209.3 24.83L213.99 21.78L218.81 18.91L223.75 16.23L228.8 13.73L233.96 11.43L239.22 9.32L244.57 7.41L250.02 5.71L255.57 4.23L261.19 2.95L266.89 1.9L272.67 1.08L278.52 0.48L284.44 0.12L290.41 0L296.39 0.12L302.3 0.48ZM280.46 24.08L275.57 24.58L270.73 25.27L265.96 26.15L261.25 27.21L256.61 28.46L252.05 29.88L247.56 31.47L243.16 33.24L238.85 35.17L234.62 37.26L230.49 39.5L226.46 41.9L222.52 44.45L218.7 47.15L214.98 49.99L211.38 52.96L207.9 56.07L204.53 59.3L201.3 62.67L198.19 66.15L195.22 69.75L192.38 73.47L189.68 77.29L187.14 81.22L184.73 85.26L182.49 89.39L180.4 93.62L178.47 97.93L176.7 102.33L175.11 106.82L173.69 111.38L172.44 116.02L171.38 120.72L170.5 125.5L169.81 130.34L169.31 135.23L169.01 140.18L168.9 145.18L168.93 147.76L169.01 150.36L169.14 152.99L169.32 155.63L169.56 158.3L169.84 160.99L170.17 163.7L170.56 166.42L170.99 169.16L171.47 171.91L172 174.68L172.57 177.45L173.2 180.23L173.87 183.02L174.58 185.82L175.34 188.62L176.14 191.42L176.99 194.23L177.89 197.03L178.82 199.83L179.8 202.63L180.82 205.43L181.88 208.22L182.99 211L184.13 213.77L185.31 216.53L186.54 219.27L187.8 222.01L189.1 224.73L190.44 227.43L191.82 230.11L193.23 232.78L194.68 235.42L196.17 238.04L197.69 240.63L199.25 243.2L200.84 245.74L202.46 248.25L204.12 250.74L205.81 253.19L207.65 255.76L209.51 258.27L211.39 260.73L213.3 263.13L215.22 265.48L217.17 267.77L219.14 269.99L221.12 272.17L223.13 274.28L225.15 276.33L227.19 278.32L229.25 280.25L231.32 282.12L233.4 283.92L235.5 285.67L237.62 287.35L239.74 288.97L241.88 290.53L244.03 292.02L246.19 293.45L248.36 294.81L250.54 296.11L252.72 297.34L254.92 298.5L257.12 299.6L259.32 300.63L261.53 301.59L263.75 302.49L265.97 303.31L268.19 304.07L270.42 304.76L272.64 305.37L274.87 305.92L277.09 306.39L279.32 306.8L281.55 307.13L283.77 307.38L285.99 307.57L288.2 307.68L290.41 307.72L292.62 307.68L294.84 307.57L297.06 307.38L299.28 307.13L301.5 306.8L303.73 306.39L305.96 305.92L308.18 305.37L310.41 304.76L312.63 304.07L314.86 303.31L317.08 302.49L319.29 301.59L321.5 300.63L323.71 299.6L325.91 298.5L328.1 297.34L330.29 296.11L332.47 294.81L334.64 293.45L336.79 292.02L338.94 290.53L341.08 288.97L343.21 287.35L345.32 285.67L347.42 283.92L349.51 282.12L351.58 280.25L353.64 278.32L355.68 276.33L357.7 274.28L359.7 272.17L361.69 269.99L363.66 267.77L365.6 265.48L367.53 263.13L369.43 260.73L371.32 258.27L373.18 255.76L375.01 253.19L376.7 250.74L378.36 248.25L379.99 245.74L381.58 243.2L383.13 240.63L384.66 238.04L386.14 235.42L387.59 232.78L389.01 230.11L390.38 227.43L391.72 224.73L393.02 222.01L394.29 219.28L395.51 216.53L396.7 213.77L397.84 211L398.94 208.22L400 205.43L401.03 202.63L402 199.83L402.94 197.03L403.83 194.23L404.68 191.42L405.49 188.62L406.25 185.82L406.96 183.02L407.63 180.23L408.25 177.45L408.83 174.68L409.36 171.91L409.84 169.16L410.27 166.42L410.65 163.7L410.98 160.99L411.27 158.3L411.5 155.64L411.68 152.99L411.81 150.36L411.89 147.76L411.92 145.18L411.82 140.18L411.52 135.23L411.02 130.34L410.33 125.5L409.45 120.72L408.38 116.02L407.14 111.38L405.72 106.82L404.12 102.33L402.36 97.93L400.43 93.62L398.34 89.39L396.09 85.26L393.69 81.22L391.14 77.29L388.45 73.47L385.61 69.75L382.64 66.15L379.53 62.67L376.29 59.3L372.93 56.07L369.44 52.96L365.84 49.99L362.13 47.15L358.3 44.45L354.37 41.9L350.34 39.5L346.2 37.26L341.98 35.17L337.66 33.24L333.26 31.47L328.78 29.88L324.21 28.46L319.58 27.21L314.87 26.15L310.1 25.27L305.26 24.58L300.36 24.08L295.41 23.78L290.41 23.67L285.41 23.78L280.46 24.08Z" id="c3wwnP8qI"></path><path d="M351.43 618.15C350.83 616.76 349.98 615.46 348.89 614.4C344.45 609.83 336.61 609.82 332.16 614.4C327.59 618.84 327.59 626.69 332.16 631.13C336.1 635.17 342.7 635.69 347.29 632.48C351.81 629.32 353.5 623.4 351.48 618.29C351.55 618.44 351.59 618.55 351.47 618.24C351.34 617.94 351.37 618.02 351.43 618.15Z" id="a3fuP4C58h"></path><path d="M187.48 303.54L187.84 303.57L188.2 303.6L188.55 303.65L188.91 303.7L189.26 303.77L189.61 303.84L189.96 303.93L190.3 304.03L190.64 304.14L190.98 304.26L191.32 304.38L191.65 304.52L191.98 304.67L192.3 304.83L192.62 305L192.94 305.18L193.25 305.37L193.56 305.58L193.86 305.79L194.15 306.01L194.44 306.24L194.72 306.48L195 306.73L195.27 306.99L197.41 309.1L199.57 311.16L201.75 313.16L203.95 315.12L206.15 317.02L208.38 318.88L210.62 320.68L212.87 322.43L215.13 324.13L217.41 325.78L219.71 327.38L222.01 328.93L224.33 330.42L226.66 331.86L229 333.25L231.35 334.58L233.72 335.87L236.09 337.1L238.48 338.27L240.87 339.4L243.28 340.47L245.69 341.48L248.12 342.45L250.55 343.36L252.99 344.21L255.44 345.01L257.9 345.76L260.37 346.45L262.84 347.09L265.32 347.68L267.8 348.2L270.29 348.68L272.79 349.1L275.29 349.46L277.8 349.77L280.31 350.02L282.83 350.22L285.35 350.36L287.88 350.44L290.41 350.47L292.94 350.44L295.46 350.36L297.98 350.22L300.5 350.02L303.01 349.77L305.52 349.46L308.02 349.1L310.52 348.68L313.01 348.2L315.5 347.67L317.98 347.09L320.45 346.45L322.91 345.76L325.37 345.01L327.82 344.21L330.26 343.36L332.7 342.45L335.12 341.48L337.54 340.47L339.94 339.4L342.34 338.27L344.72 337.09L347.1 335.86L349.47 334.58L351.82 333.25L354.16 331.86L356.49 330.42L358.81 328.92L361.12 327.38L363.41 325.78L365.69 324.13L367.96 322.43L370.21 320.68L372.45 318.88L374.67 317.02L376.88 315.12L379.08 313.16L381.26 311.15L383.42 309.1L385.57 306.99L385.84 306.73L386.11 306.48L386.39 306.24L386.68 306.01L386.98 305.79L387.28 305.58L387.58 305.37L387.89 305.18L388.21 305L388.53 304.83L388.85 304.67L389.18 304.52L389.51 304.38L389.85 304.26L390.19 304.14L390.53 304.03L390.87 303.93L391.22 303.84L391.57 303.77L391.92 303.7L392.28 303.65L392.63 303.6L392.99 303.57L393.35 303.55L393.71 303.53L394.07 303.53L394.43 303.54L394.79 303.56L395.15 303.59L395.5 303.64L395.86 303.69L396.22 303.75L396.58 303.83L396.93 303.92L397.28 304.02L397.63 304.13L397.98 304.25L398.33 304.38L398.67 304.52L399.01 304.68L401.56 305.91L404.09 307.17L406.61 308.46L409.11 309.77L411.6 311.12L414.07 312.49L416.53 313.89L418.97 315.32L421.4 316.78L423.81 318.26L426.2 319.77L428.58 321.3L430.94 322.87L433.28 324.46L435.61 326.07L437.91 327.71L440.2 329.38L442.47 331.07L444.72 332.79L446.95 334.53L449.17 336.3L451.36 338.09L453.53 339.91L455.69 341.75L457.82 343.61L459.93 345.5L462.02 347.41L464.1 349.35L466.14 351.3L468.17 353.28L470.18 355.28L472.16 357.31L474.12 359.36L476.06 361.42L477.97 363.51L479.86 365.63L481.73 367.76L483.58 369.91L485.4 372.09L487.19 374.28L487.28 374.28L487.36 374.28L487.45 374.27L487.53 374.27L487.62 374.27L487.7 374.27L487.79 374.27L487.88 374.27L487.96 374.26L488.05 374.26L488.13 374.26L488.22 374.26L488.3 374.26L488.39 374.26L488.48 374.26L488.56 374.25L488.65 374.25L488.73 374.25L488.82 374.25L488.91 374.25L488.99 374.25L489.08 374.25L489.16 374.25L489.25 374.24L489.33 374.24L489.42 374.24L489.51 374.24L489.59 374.24L489.68 374.24L489.76 374.24L489.85 374.24L489.94 374.24L490.02 374.24L490.11 374.24L490.19 374.24L490.28 374.24L490.37 374.24L490.45 374.24L490.54 374.24L490.63 374.24L496.96 374.36L503.23 374.75L509.43 375.38L515.55 376.25L521.6 377.37L527.56 378.72L533.43 380.29L539.21 382.09L544.89 384.11L550.47 386.35L555.93 388.79L561.28 391.44L566.52 394.28L571.62 397.32L576.6 400.55L581.45 403.97L586.15 407.56L590.72 411.32L595.13 415.26L599.39 419.36L603.49 423.62L607.42 428.03L611.19 432.59L614.78 437.3L618.19 442.14L621.42 447.12L624.46 452.23L627.31 457.46L629.95 462.81L632.4 468.28L634.63 473.85L636.65 479.53L638.45 485.31L640.03 491.18L641.38 497.15L642.49 503.19L643.37 509.32L644 515.52L644.38 521.79L644.51 528.12L644.38 534.45L644 540.72L643.37 546.92L642.49 553.05L641.38 559.09L640.03 565.05L638.45 570.93L636.65 576.71L634.63 582.38L632.4 587.96L629.96 593.42L627.31 598.78L624.46 604.01L621.42 609.12L618.19 614.1L614.78 618.94L611.19 623.65L607.42 628.21L603.49 632.62L599.39 636.88L595.13 640.98L590.72 644.91L586.16 648.68L581.45 652.27L576.61 655.68L571.63 658.91L566.52 661.95L561.29 664.8L555.93 667.45L550.47 669.89L544.89 672.12L539.21 674.14L533.44 675.94L527.56 677.52L521.6 678.87L515.56 679.98L509.43 680.86L503.23 681.49L496.96 681.87L490.63 682L484.3 681.87L478.03 681.49L471.83 680.86L465.7 679.98L459.66 678.87L453.69 677.52L447.82 675.94L442.04 674.14L436.36 672.12L430.79 669.89L425.32 667.45L419.97 664.8L414.74 661.95L409.63 658.91L404.65 655.68L399.81 652.27L395.1 648.68L390.54 644.91L386.13 640.98L381.87 636.88L377.77 632.62L373.83 628.21L370.07 623.65L366.48 618.94L363.06 614.1L359.83 609.12L356.79 604.01L353.95 598.78L351.3 593.42L348.86 587.96L346.63 582.38L344.61 576.71L342.8 570.93L341.23 565.05L339.88 559.09L338.77 553.05L337.89 546.92L337.26 540.72L336.88 534.45L336.75 528.12L336.85 522.6L337.14 517.13L337.62 511.7L338.28 506.34L339.13 501.03L340.17 495.78L341.37 490.6L342.75 485.49L344.3 480.45L346.02 475.48L347.9 470.59L349.94 465.78L352.14 461.06L354.49 456.43L357 451.88L359.64 447.43L362.44 443.08L365.37 438.83L368.44 434.68L371.64 430.65L374.98 426.72L378.44 422.91L382.03 419.21L385.73 415.64L389.56 412.18L393.49 408.86L397.54 405.67L401.7 402.61L405.96 399.69L410.32 396.91L414.78 394.27L419.33 391.78L423.97 389.45L428.7 387.26L433.52 385.23L438.41 383.37L443.39 381.66L448.43 380.13L453.55 378.76L458.74 377.57L457.39 376.12L456.02 374.68L454.64 373.26L453.25 371.84L451.85 370.44L450.44 369.05L449.01 367.67L447.57 366.31L446.13 364.95L444.66 363.61L443.19 362.29L441.71 360.97L440.22 359.67L438.71 358.38L437.2 357.1L435.67 355.84L434.13 354.59L432.58 353.35L431.03 352.13L429.46 350.92L427.88 349.72L426.29 348.54L424.69 347.37L423.08 346.21L421.47 345.07L419.84 343.94L418.2 342.83L416.56 341.73L414.9 340.64L413.23 339.57L411.56 338.52L409.88 337.47L408.18 336.45L406.48 335.43L404.77 334.44L403.06 333.45L401.33 332.49L399.6 331.53L397.85 330.6L396.1 329.68L393.72 331.83L391.32 333.94L388.9 336L386.47 338L384.02 339.95L381.55 341.85L379.07 343.69L376.57 345.48L374.06 347.22L371.53 348.91L368.99 350.54L366.43 352.13L363.86 353.65L361.28 355.13L358.68 356.54L356.07 357.91L353.45 359.22L350.81 360.48L348.17 361.68L345.51 362.83L342.84 363.93L340.16 364.97L337.47 365.95L334.77 366.88L332.06 367.75L329.34 368.57L326.6 369.34L323.87 370.04L321.12 370.69L318.36 371.29L315.6 371.83L312.82 372.31L310.05 372.74L307.26 373.11L304.47 373.43L301.67 373.68L298.86 373.88L296.05 374.03L293.23 374.11L290.41 374.14L287.59 374.11L284.77 374.03L281.96 373.88L279.15 373.68L276.35 373.43L273.56 373.11L270.77 372.74L267.99 372.31L265.22 371.83L262.45 371.29L259.7 370.7L256.95 370.04L254.21 369.34L251.48 368.57L248.76 367.75L246.05 366.88L243.35 365.95L240.66 364.97L237.98 363.93L235.31 362.83L232.65 361.68L230 360.48L227.37 359.22L224.75 357.91L222.14 356.55L219.54 355.13L216.96 353.65L214.39 352.13L211.83 350.55L209.29 348.91L206.76 347.22L204.25 345.49L201.75 343.69L199.27 341.85L196.81 339.95L194.36 338L191.92 336L189.51 333.94L187.11 331.83L184.73 329.68L182.08 331.07L179.46 332.51L176.85 333.97L174.27 335.47L171.7 337L169.16 338.56L166.64 340.15L164.15 341.78L161.67 343.44L159.22 345.13L156.79 346.84L154.39 348.6L152 350.38L149.65 352.19L147.31 354.03L145 355.9L142.72 357.8L140.46 359.73L138.22 361.69L136.01 363.68L133.83 365.7L131.67 367.74L129.54 369.82L127.43 371.92L125.35 374.05L123.3 376.21L121.27 378.39L119.28 380.6L117.31 382.84L115.37 385.1L113.45 387.39L111.57 389.71L109.72 392.05L107.89 394.42L106.09 396.81L104.33 399.23L102.59 401.68L100.88 404.14L99.21 406.64L97.56 409.15L95.86 411.83L94.2 414.52L92.58 417.24L91 419.97L89.46 422.73L87.96 425.5L86.5 428.29L85.08 431.1L83.69 433.93L82.35 436.77L81.05 439.63L79.79 442.51L78.56 445.4L77.38 448.31L76.24 451.23L75.14 454.17L74.08 457.12L73.06 460.08L72.08 463.06L71.15 466.06L70.25 469.06L69.4 472.08L68.58 475.11L67.81 478.15L67.08 481.21L66.4 484.27L65.75 487.34L65.15 490.43L64.58 493.52L64.07 496.63L63.59 499.74L63.15 502.86L62.76 505.99L62.41 509.13L62.11 512.27L61.84 515.42L61.62 518.58L61.44 521.75L61.31 524.92L61.22 528.1L66.01 532.23L70.86 536.27L75.77 540.21L80.75 544.06L85.79 547.82L90.89 551.47L96.05 555.03L101.27 558.49L106.54 561.85L111.87 565.12L117.25 568.28L122.68 571.35L128.16 574.31L133.7 577.17L139.28 579.94L144.9 582.6L150.57 585.15L156.29 587.61L162.05 589.96L167.85 592.21L173.69 594.35L179.56 596.39L185.48 598.32L191.43 600.14L197.41 601.86L203.43 603.47L209.48 604.98L215.56 606.37L221.67 607.66L227.81 608.84L233.97 609.91L240.16 610.87L246.37 611.71L252.61 612.45L258.86 613.07L265.14 613.59L271.43 613.98L277.74 614.27L284.07 614.44L290.41 614.5L290.75 614.5L291.09 614.5L291.44 614.5L291.78 614.5L292.12 614.49L292.47 614.49L292.81 614.49L293.15 614.49L293.5 614.49L293.84 614.48L294.19 614.48L294.53 614.47L294.87 614.47L295.22 614.47L295.56 614.46L295.91 614.46L296.25 614.45L296.59 614.44L296.94 614.44L297.28 614.43L297.63 614.43L297.97 614.42L298.31 614.41L298.66 614.4L299 614.39L299.34 614.39L299.69 614.38L300.03 614.37L300.37 614.36L300.72 614.35L301.06 614.34L301.4 614.33L301.74 614.32L302.08 614.31L302.43 614.3L302.77 614.28L303.11 614.27L303.45 614.26L303.79 614.25L304.13 614.23L304.62 614.22L305.1 614.23L305.58 614.26L306.05 614.31L306.52 614.38L306.98 614.47L307.44 614.57L307.89 614.69L308.33 614.83L308.76 614.98L309.19 615.15L309.61 615.34L310.02 615.54L310.42 615.76L310.82 616L311.2 616.24L311.57 616.5L311.93 616.78L312.28 617.07L312.62 617.37L312.95 617.69L313.27 618.01L313.57 618.35L313.86 618.7L314.14 619.07L314.4 619.44L314.65 619.82L314.88 620.22L315.1 620.62L315.31 621.03L315.5 621.46L315.67 621.89L315.82 622.33L315.96 622.77L316.08 623.23L316.19 623.69L316.27 624.16L316.34 624.63L316.39 625.11L316.42 625.6L316.43 626.09L316.42 626.57L316.39 627.05L316.34 627.53L316.27 628L316.18 628.46L316.08 628.91L315.96 629.36L315.82 629.81L315.67 630.24L315.5 630.67L315.31 631.09L315.11 631.5L314.89 631.9L314.65 632.29L314.41 632.68L314.15 633.05L313.87 633.41L313.58 633.76L313.28 634.1L312.96 634.43L312.64 634.74L312.3 635.05L311.95 635.34L311.58 635.61L311.21 635.87L310.83 636.12L310.43 636.36L310.03 636.58L309.62 636.78L309.2 636.97L308.76 637.14L308.33 637.3L307.88 637.43L307.42 637.56L306.96 637.66L306.49 637.75L306.02 637.81L305.54 637.86L305.05 637.89L304.69 637.9L304.32 637.92L303.96 637.93L303.59 637.94L303.23 637.96L302.87 637.97L302.5 637.98L302.14 637.99L301.77 638L301.4 638.01L301.04 638.02L300.67 638.03L300.31 638.04L299.94 638.05L299.57 638.06L299.21 638.07L298.84 638.08L298.47 638.09L298.11 638.09L297.74 638.1L297.37 638.11L297.01 638.11L296.64 638.12L296.27 638.13L295.91 638.13L295.54 638.14L295.17 638.14L294.8 638.15L294.44 638.15L294.07 638.16L293.7 638.16L293.34 638.16L292.97 638.16L292.6 638.17L292.24 638.17L291.87 638.17L291.51 638.17L291.14 638.17L290.77 638.17L290.41 638.17L283.49 638.11L276.6 637.92L269.72 637.6L262.85 637.16L256.01 636.59L249.19 635.89L242.4 635.07L235.63 634.13L228.88 633.06L222.17 631.87L215.48 630.56L208.83 629.13L202.21 627.58L195.62 625.91L189.07 624.11L182.55 622.2L176.08 620.17L169.64 618.02L163.25 615.76L156.9 613.37L150.59 610.87L144.34 608.26L138.12 605.53L131.96 602.69L125.85 599.73L119.8 596.66L113.79 593.48L107.85 590.18L101.96 586.77L96.12 583.26L90.35 579.63L84.64 575.89L79 572.04L73.42 568.09L67.9 564.03L62.45 559.86L57.08 555.58L51.77 551.2L46.53 546.71L41.37 542.11L41.19 541.94L41.01 541.77L40.84 541.59L40.66 541.41L40.5 541.23L40.33 541.04L40.18 540.85L40.02 540.66L39.87 540.46L39.72 540.27L39.58 540.06L39.44 539.86L39.31 539.65L39.18 539.44L39.06 539.23L38.94 539.02L38.82 538.8L38.71 538.58L38.61 538.36L38.5 538.14L38.41 537.91L38.32 537.69L38.23 537.46L38.15 537.23L38.07 536.99L37.99 536.76L37.93 536.52L37.86 536.29L37.8 536.05L37.75 535.81L37.7 535.57L37.66 535.32L37.62 535.08L37.58 534.83L37.56 534.59L37.53 534.34L37.51 534.09L37.5 533.84L37.49 533.59L37.49 533.34L37.49 533.14L37.52 529.49L37.59 525.84L37.72 522.2L37.91 518.57L38.14 514.94L38.42 511.32L38.76 507.72L39.15 504.11L39.58 500.52L40.07 496.94L40.61 493.37L41.2 489.81L41.84 486.26L42.53 482.72L43.27 479.19L44.06 475.67L44.9 472.17L45.79 468.69L46.73 465.21L47.72 461.75L48.76 458.31L49.85 454.88L50.98 451.46L52.17 448.07L53.4 444.69L54.69 441.32L56.02 437.98L57.4 434.65L58.82 431.34L60.3 428.05L61.82 424.78L63.39 421.54L65.01 418.31L66.68 415.1L68.39 411.91L70.15 408.75L71.96 405.61L73.81 402.49L75.72 399.4L77.66 396.33L79.6 393.37L81.58 390.43L83.59 387.53L85.65 384.66L87.74 381.82L89.87 379.02L92.03 376.24L94.23 373.5L96.47 370.79L98.75 368.11L101.05 365.47L103.4 362.86L105.78 360.28L108.19 357.74L110.64 355.23L113.12 352.76L115.64 350.32L118.18 347.91L120.76 345.55L123.38 343.22L126.02 340.92L128.69 338.67L131.4 336.45L134.14 334.26L136.91 332.12L139.7 330.01L142.53 327.94L145.39 325.91L148.27 323.92L151.19 321.97L154.13 320.06L157.1 318.18L160.1 316.35L163.12 314.56L166.17 312.81L169.25 311.1L172.35 309.43L175.48 307.81L178.64 306.22L181.82 304.68L182.16 304.53L182.5 304.38L182.85 304.25L183.2 304.13L183.55 304.02L183.9 303.92L184.25 303.83L184.61 303.75L184.97 303.69L185.33 303.64L185.68 303.59L186.04 303.56L186.4 303.54L186.76 303.53L187.12 303.53L187.48 303.54ZM479.96 398.34L474.72 398.88L469.53 399.62L464.42 400.56L459.37 401.7L454.4 403.04L449.51 404.56L444.71 406.27L439.99 408.16L435.37 410.23L430.84 412.47L426.41 414.87L422.09 417.45L417.88 420.18L413.78 423.07L409.79 426.1L405.93 429.29L402.2 432.62L398.6 436.09L395.13 439.69L391.8 443.43L388.61 447.29L385.57 451.27L382.69 455.37L379.95 459.58L377.38 463.9L374.97 468.33L372.73 472.86L370.67 477.48L368.78 482.2L367.07 487.01L365.54 491.89L364.21 496.86L363.07 501.91L362.13 507.02L361.38 512.21L360.85 517.45L360.53 522.76L360.42 528.12L360.53 533.48L360.85 538.78L361.38 544.03L362.13 549.21L363.07 554.33L364.21 559.37L365.54 564.34L367.07 569.23L368.78 574.03L370.67 578.75L372.73 583.38L374.97 587.9L377.38 592.33L379.95 596.65L382.69 600.87L385.57 604.97L388.61 608.95L391.8 612.81L395.13 616.54L398.6 620.14L402.2 623.61L405.93 626.94L409.79 630.13L413.78 633.17L417.88 636.06L422.09 638.79L426.41 641.36L430.84 643.77L435.37 646.01L439.99 648.08L444.71 649.97L449.51 651.68L454.4 653.2L459.37 654.53L464.42 655.67L469.53 656.62L474.72 657.36L479.96 657.89L485.27 658.22L490.63 658.32L495.98 658.22L501.29 657.89L506.53 657.36L511.72 656.62L516.83 655.67L521.88 654.53L526.85 653.2L531.74 651.68L536.54 649.97L541.26 648.08L545.88 646.01L550.41 643.77L554.84 641.36L559.16 638.79L563.38 636.06L567.47 633.17L571.46 630.13L575.32 626.94L579.05 623.61L582.65 620.14L586.12 616.54L589.45 612.81L592.64 608.95L595.68 604.97L598.57 600.87L601.3 596.65L603.87 592.33L606.28 587.9L608.52 583.38L610.58 578.75L612.47 574.03L614.18 569.23L615.71 564.34L617.04 559.37L618.18 554.33L619.13 549.21L619.87 544.03L620.4 538.78L620.72 533.48L620.83 528.12L620.72 522.76L620.4 517.45L619.87 512.21L619.13 507.02L618.18 501.91L617.04 496.86L615.71 491.89L614.18 487.01L612.47 482.2L610.58 477.48L608.52 472.86L606.28 468.33L603.87 463.9L601.3 459.58L598.57 455.37L595.68 451.27L592.64 447.29L589.45 443.43L586.12 439.69L582.65 436.09L579.05 432.62L575.32 429.29L571.46 426.1L567.47 423.07L563.38 420.18L559.16 417.45L554.84 414.87L550.41 412.47L545.88 410.23L541.26 408.16L536.54 406.27L531.74 404.56L526.85 403.04L521.88 401.7L516.83 400.56L511.72 399.62L506.53 398.88L501.29 398.34L495.98 398.02L490.63 397.91L485.27 398.02L479.96 398.34Z" id="bwumahFGy"></path></defs><g><g><g><use xlink:href="#iLmxG3o09" opacity="1" fill="#1081a7" fill-opacity="1"></use><g><use xlink:href="#iLmxG3o09" opacity="1" fill-opacity="0" stroke="#000000" stroke-width="1" stroke-opacity="0"></use></g></g><g><use xlink:href="#c3wwnP8qI" opacity="1" fill="#1081a7" fill-opacity="1"></use><g><use xlink:href="#c3wwnP8qI" opacity="1" fill-opacity="0" stroke="#000000" stroke-width="1" stroke-opacity="0"></use></g></g><g><use xlink:href="#a3fuP4C58h" opacity="1" fill="#1081a7" fill-opacity="1"></use><g><use xlink:href="#a3fuP4C58h" opacity="1" fill-opacity="0" stroke="#000000" stroke-width="1" stroke-opacity="0"></use></g></g><g><use xlink:href="#bwumahFGy" opacity="1" fill="#1081a7" fill-opacity="1"></use><g><use xlink:href="#bwumahFGy" opacity="1" fill-opacity="0" stroke="#000000" stroke-width="1" stroke-opacity="0"></use></g></g></g></g></svg>