<svg xmlns="http://www.w3.org/2000/svg" width="41" height="41" viewBox="0 0 41 41"><g><g><g><path fill="#7a6b67" d="M20.469 0C31.773 0 40.938 9.164 40.938 20.47v.062C40.938 31.836 31.773 41 20.468 41 9.165 41 0 31.836 0 20.53v-.062C0 9.164 9.164 0 20.469 0z"/><path fill="#6996c7" d="M20.469 0C31.773 0 40.938 9.164 40.938 20.47v.062C40.938 31.836 31.773 41 20.468 41 9.165 41 0 31.836 0 20.53v-.062C0 9.164 9.164 0 20.469 0z"/></g><g><path fill="#fff" d="M20.1 27.727h1.276s.385-.043.582-.257c.181-.197.176-.566.176-.566s-.025-1.73.77-1.984c.783-.251 1.79 1.671 2.856 2.41.807.56 1.42.437 1.42.437l2.852-.04s1.492-.093.785-1.278c-.058-.095-.413-.875-2.121-2.477-1.789-1.675-1.549-1.404.605-4.304 1.312-1.766 1.837-2.843 1.673-3.304-.156-.44-1.121-.324-1.121-.324l-3.212.02s-.238-.033-.414.074c-.173.105-.284.348-.284.348s-.508 1.367-1.186 2.528c-1.43 2.451-2.002 2.582-2.235 2.428-.544-.354-.408-1.424-.408-2.184 0-2.377.357-3.368-.695-3.624-.35-.085-.606-.14-1.5-.15-1.145-.012-2.115.003-2.664.275-.365.18-.647.583-.475.607.212.028.693.13.947.48.33.452.318 1.467.318 1.467s.19 2.797-.442 3.144c-.432.238-1.026-.247-2.301-2.472a20.782 20.782 0 0 1-1.147-2.399s-.095-.235-.264-.361a1.326 1.326 0 0 0-.493-.201l-3.052.02s-.458.013-.626.214c-.15.18-.012.55-.012.55s2.389 5.643 5.094 8.487c2.48 2.608 5.297 2.436 5.297 2.436z"/><path fill="#fff" d="M20.1 27.727h1.276s.385-.043.582-.257c.181-.197.176-.566.176-.566s-.025-1.73.77-1.984c.783-.251 1.79 1.671 2.856 2.41.807.56 1.42.437 1.42.437l2.852-.04s1.492-.093.785-1.278c-.058-.095-.413-.875-2.121-2.477-1.789-1.675-1.549-1.404.605-4.304 1.312-1.766 1.837-2.843 1.673-3.304-.156-.44-1.121-.324-1.121-.324l-3.212.02s-.238-.033-.414.074c-.173.105-.284.348-.284.348s-.508 1.367-1.186 2.528c-1.43 2.451-2.002 2.582-2.235 2.428-.544-.354-.408-1.424-.408-2.184 0-2.377.357-3.368-.695-3.624-.35-.085-.606-.14-1.5-.15-1.145-.012-2.115.003-2.664.275-.365.18-.647.583-.475.607.212.028.693.13.947.48.33.452.318 1.467.318 1.467s.19 2.797-.442 3.144c-.432.238-1.026-.247-2.301-2.472a20.782 20.782 0 0 1-1.147-2.399s-.095-.235-.264-.361a1.326 1.326 0 0 0-.493-.201l-3.052.02s-.458.013-.626.214c-.15.18-.012.55-.012.55s2.389 5.643 5.094 8.487c2.48 2.608 5.297 2.436 5.297 2.436z"/></g></g></g></svg>