<svg width="20" height="18" viewBox="0 0 20 18" fill="none" xmlns="http://www.w3.org/2000/svg">
<path d="M18.9151 3.40581C18.8002 3.24826 18.6167 3.15503 18.4217 3.15503H4.68183C4.65521 3.15503 4.62863 3.15665 4.60303 3.1601L4.03756 1.53006C3.97896 1.36148 3.8499 1.2271 3.68404 1.1618L0.834233 0.0422906C0.520153 -0.0806753 0.165737 0.0735965 0.0423874 0.387294C-0.0807488 0.701161 0.0734803 1.05579 0.38739 1.17914L2.97568 2.19592L6.14379 11.3278C6.00395 11.3765 5.88546 11.4838 5.8315 11.6339L4.91549 14.1784C4.85935 14.3344 4.88248 14.5078 4.97802 14.6433C5.07343 14.7789 5.22859 14.8596 5.39428 14.8596H5.86468C5.57317 15.184 5.39428 15.6112 5.39428 16.081C5.39428 17.0912 6.21624 17.913 7.22629 17.913C8.23634 17.913 9.0583 17.0912 9.0583 16.081C9.0583 15.6112 8.87941 15.184 8.5879 14.8596H12.5821C12.2905 15.184 12.1115 15.6112 12.1115 16.081C12.1115 17.0912 12.9333 17.913 13.9436 17.913C14.9538 17.913 15.7756 17.0912 15.7756 16.081C15.7756 15.6112 15.5967 15.184 15.3052 14.8596H15.8774C16.1585 14.8596 16.3862 14.6318 16.3862 14.3507C16.3862 14.0696 16.1584 13.8419 15.8774 13.8419H6.11836L6.68565 12.2661C6.75891 12.2969 6.83805 12.3152 6.9209 12.3152H15.8773C16.1428 12.3152 16.3778 12.1436 16.4587 11.891L19.0031 3.9522C19.0628 3.76632 19.03 3.56337 18.9151 3.40581ZM7.22629 16.8952C6.77723 16.8952 6.41208 16.53 6.41208 16.081C6.41208 15.6319 6.77723 15.2667 7.22629 15.2667C7.67534 15.2667 8.04049 15.6319 8.04049 16.081C8.04049 16.53 7.67534 16.8952 7.22629 16.8952ZM13.9435 16.8952C13.4945 16.8952 13.1293 16.53 13.1293 16.081C13.1293 15.6319 13.4945 15.2667 13.9435 15.2667C14.3926 15.2667 14.7577 15.6319 14.7577 16.081C14.7577 16.53 14.3926 16.8952 13.9435 16.8952ZM17.1445 5.75039H14.0284V4.37638H17.5849L17.1445 5.75039ZM16.2472 8.54926H14.0284V6.9717H16.7529L16.2472 8.54926ZM9.99108 8.54926V6.9717H12.807V8.54926H9.99108ZM12.807 9.77069V11.0938H9.99108V9.77069H12.807ZM5.92533 6.9717H8.76986V8.54926H6.47269L5.92533 6.9717ZM9.99108 5.75039V4.37638H12.807V5.75039H9.99108ZM8.76981 4.37638V5.75039H5.50148L5.02483 4.37638H8.76981ZM6.89649 9.77069H8.76981V11.0938H7.35547L6.89649 9.77069ZM14.0284 11.0938V9.77074H15.856L15.432 11.0938H14.0284Z" fill="white"/>
</svg>
