<svg width="163" height="25" viewBox="0 0 163 25" fill="none" xmlns="http://www.w3.org/2000/svg">
<g clip-path="url(#clip0)">
<path d="M2.75955 13.0509C2.81044 16.4136 5.9319 17.2813 8.73669 17.2813C11.6772 17.2813 13.7582 16.1395 13.7582 14.1014C13.7582 12.3887 12.4349 11.6865 10.3031 11.3211L6.08458 10.6074C3.87355 10.2421 0.565481 9.35145 0.565481 5.70907C0.565481 2.28363 3.25152 0 8.01287 0C11.7337 0 15.6582 1.36447 15.9296 5.88034H13.1588C12.9269 4.41311 12.0956 2.41493 7.64531 2.41493C5.61523 2.41493 3.33069 3.28271 3.33069 5.48641C3.33069 6.62823 4.08278 7.56451 6.37298 7.95844L10.9251 8.74629C12.384 9.00891 16.5177 9.71683 16.5177 13.5533C16.5177 18.3318 12.2766 19.6963 8.52746 19.6963C4.3429 19.6963 0 18.2233 0 13.0509H2.75955Z" fill="white"/>
<path d="M25.8314 4.98972C31.1356 4.98972 33.7481 8.3752 33.7481 12.343C33.7481 16.3108 31.1412 19.6963 25.8314 19.6963C20.5215 19.6963 17.9146 16.3051 17.9146 12.343C17.9146 8.38091 20.5102 4.98972 25.8314 4.98972ZM25.8314 7.19342C22.0596 7.19342 20.6798 9.84814 20.6798 12.3316C20.6798 14.815 22.0596 17.4697 25.8314 17.4697C29.6031 17.4697 30.9829 14.815 30.9829 12.3316C30.9829 9.84814 29.6031 7.19342 25.8314 7.19342Z" fill="white"/>
<path d="M35.2748 5.46358H37.8873V7.53597H37.9382C39.1596 5.61772 41.3311 4.98972 43.2707 4.98972C46.5505 4.98972 48.9933 6.40557 48.9933 9.84814V19.2224H46.3695V10.3734C46.3695 8.35236 45.1198 7.19342 42.3376 7.19342C39.9796 7.19342 37.8873 8.5636 37.8873 11.2925V19.2224H35.2861L35.2748 5.46358Z" fill="white"/>
<path d="M62.7175 5.46355H65.6297L58.499 21.5859C57.204 24.5033 56.1861 25.0114 53.7715 25.0114C53.1212 25.0114 52.4653 24.96 51.7924 24.9086V22.6935C52.2617 22.6935 52.6745 22.7963 53.3022 22.7963C54.9138 22.7963 55.304 22.4537 56.1296 20.6953L56.7347 19.4108L50.4409 5.46355H53.4323L58.1144 16.3108L62.7175 5.46355Z" fill="white"/>
<path d="M91.4608 7.22197C91.0423 4.62434 89.0179 2.41493 85.1161 2.41493C80.7223 2.41493 77.9344 4.96118 77.9344 10.0822C77.9344 13.6275 79.8345 17.2813 84.9577 17.2813C88.2093 17.2813 90.6804 15.7056 91.4608 12.0518H94.2203C93.7792 16.2023 90.2619 19.6963 84.9351 19.6963C80.2529 19.6963 75.1749 17.0987 75.1749 9.79676C75.1749 4.33318 78.5678 0 84.9068 0C88.622 0 93.751 1.60425 94.2203 7.22197H91.4608Z" fill="white"/>
<path d="M98.6143 13.1308C98.8235 15.9854 101.317 17.4926 103.636 17.4926C105.117 17.4926 107.147 16.9902 108.03 15.0491H110.789C110.228 16.455 109.255 17.654 107.999 18.4847C106.744 19.3155 105.266 19.7383 103.766 19.6963C98.4616 19.6963 95.8491 16.3051 95.8491 12.343C95.8491 8.38091 98.4503 4.98972 103.766 4.98972C107.357 4.98972 111.157 7.09066 111.157 12.7883V13.1308H98.6143ZM108.397 11.0813C108.007 8.58643 106.079 7.19342 103.636 7.19342C101.193 7.19342 99.0836 8.61498 98.6935 11.0813H108.397Z" fill="white"/>
<path d="M112.768 5.46358H115.358V7.53597H115.409C116.63 5.61772 118.802 4.98972 120.741 4.98972C124.021 4.98972 126.464 6.40557 126.464 9.84814V19.2224H123.863V10.3734C123.863 8.35236 122.613 7.19342 119.831 7.19342C117.462 7.19342 115.358 8.58644 115.358 11.2925V19.2224H112.757L112.768 5.46358Z" fill="white"/>
<path d="M130.796 1.2332H133.397V5.46362H137.299V7.51317H133.397V15.9854C133.397 17.093 134.177 17.4869 135.501 17.4869C136.104 17.4779 136.706 17.4149 137.299 17.2985V19.5079C136.333 19.6541 135.357 19.7153 134.381 19.6906C131.836 19.6906 130.796 18.4289 130.796 16.4307V7.51317H127.969V5.46362H130.796V1.2332Z" fill="white"/>
<path d="M138.758 5.46357H141.37V7.99269H141.416C142.643 5.81753 144.384 5.00114 146.103 5.00114C146.603 4.96987 147.105 5.01607 147.591 5.13815V7.99269C146.988 7.82615 146.367 7.7379 145.742 7.73007C143.169 7.73007 141.376 9.25439 141.376 12.2516V19.2224H138.775L138.758 5.46357Z" fill="white"/>
<path d="M150.458 13.1308C150.667 15.9854 153.166 17.4926 155.479 17.4926C156.961 17.4926 158.991 16.9902 159.879 15.0491H162.633C162.072 16.455 161.098 17.654 159.843 18.4847C158.587 19.3155 157.11 19.7383 155.609 19.6963C150.305 19.6963 147.693 16.3051 147.693 12.343C147.693 8.38091 150.294 4.98972 155.609 4.98972C159.2 4.98972 163 7.09066 163 12.7883V13.1308H150.458ZM160.241 11.0813C159.85 8.58643 157.928 7.19342 155.479 7.19342C153.031 7.19342 150.927 8.61498 150.537 11.0813H160.241Z" fill="white"/>
</g>
<defs>
<clipPath id="clip0">
<rect width="163" height="25" fill="white"/>
</clipPath>
</defs>
</svg>
