<svg width="25" height="25" viewBox="0 0 25 25" fill="none" xmlns="http://www.w3.org/2000/svg">
<path d="M7.80899 8.23557L2.06474 2.48837C2.80617 1.74693 3.54613 1.00403 4.28903 0.261122C4.63248 -0.0823248 5.18671 -0.0882209 5.53163 0.250804L10.0068 4.73035C10.3487 5.07232 10.3487 5.6354 10.0023 5.98032L9.02211 6.95907L8.1097 7.87149C7.99767 7.98499 7.89596 8.10586 7.80899 8.23557ZM12.5347 17.5971C11.5943 16.7878 10.6922 15.9285 9.81661 15.0544C8.94252 14.1744 8.08611 13.2752 7.2754 12.3304C6.61209 11.5639 6.48238 10.454 6.82877 9.51944L0.93269 3.62189C-0.439623 5.03253 -0.264215 8.53038 1.23929 11.6037C1.88491 12.9333 2.72215 14.1331 3.5874 15.274C4.45118 16.4061 5.39897 17.4762 6.39688 18.4815C7.39774 19.4853 8.46199 20.4375 9.59698 21.3013C10.7379 22.1695 11.9407 23.0008 13.2614 23.645C16.3392 25.147 19.8385 25.3121 21.2476 23.9383L15.3501 18.0408C14.4156 18.3872 13.3041 18.2589 12.5347 17.5971ZM24.6143 19.3379L20.1392 14.8613C19.7957 14.5223 19.2327 14.5223 18.8892 14.8657H18.8863L17.9031 15.8474L16.9966 16.7584C16.8845 16.8704 16.7622 16.9691 16.6325 17.0605L22.3753 22.8063C23.1182 22.0619 23.8596 21.3219 24.604 20.5805C24.9504 20.237 24.9577 19.6813 24.6143 19.3379Z" fill="#1E62FF"/>
</svg>
