<svg width="22" height="22" viewBox="0 0 22 22" fill="none" xmlns="http://www.w3.org/2000/svg">
<path d="M2.89127 3.93143C2.96002 3.94868 3.02293 3.98434 3.07308 4.03443L8.67461 9.63607L9.68821 8.62257L4.08657 3.02093C4.03633 2.97074 4.00082 2.90762 3.98347 2.83867L3.63092 1.4333L1.29383 0.0971756L0.149368 1.24158L1.48589 3.58029L2.89127 3.93143Z" fill="#17C41E"/>
<path d="M7.87235 16.7089L16.7611 7.81998C16.8585 7.72252 16.9998 7.68344 17.1333 7.71668C18.3036 8.01663 19.5467 7.75671 20.4992 7.01359C21.4519 6.27042 22.006 5.12757 21.9996 3.91949C21.9996 3.84592 21.9974 3.77178 21.9926 3.697L19.9252 5.76417C19.8205 5.86903 19.6651 5.9058 19.5243 5.85882L17.1729 5.07491C17.0558 5.03614 16.9639 4.9443 16.9249 4.82732L16.1412 2.47585C16.0941 2.33523 16.1308 2.17982 16.2358 2.07486L18.3032 0.00753625C17.0582 -0.0699143 15.8513 0.453128 15.0561 1.41412C14.261 2.37531 13.9737 3.65888 14.2829 4.86716C14.3164 5.00093 14.2774 5.14216 14.1799 5.23957L5.29134 14.1279C5.19382 14.2246 5.0527 14.2638 4.91902 14.2311C4.60957 14.1516 4.29132 14.1104 3.97166 14.1092C2.28379 14.0981 0.775668 15.1621 0.219935 16.7562C-0.335496 18.3502 0.18468 20.1211 1.51401 21.1615C2.84335 22.2018 4.68737 22.2814 6.1012 21.359C7.51512 20.4367 8.18552 18.7171 7.76885 17.0811C7.73571 16.9476 7.77489 16.8061 7.87235 16.7089ZM4.92561 19.596H3.01801L2.07719 18.0284L3.01801 16.4606H4.92561L5.86623 18.0284L4.92561 19.596ZM6.43811 15.0078L15.0601 6.38579L15.6141 6.93996L6.99218 15.562L6.43811 15.0078Z" fill="#17C41E"/>
<path d="M18.7858 21.7955C19.6588 22.1237 20.643 21.9109 21.3024 21.2514C21.962 20.5918 22.1749 19.6075 21.8465 18.7347L18.7858 21.7955Z" fill="#17C41E"/>
<path d="M21.3027 17.8857L16.9009 13.4822C16.4154 13.8903 15.6984 13.8593 15.2497 13.4111C14.8009 12.963 14.7692 12.2462 15.1766 11.7602L14.5533 11.1361L11.1883 14.5011L11.8155 15.1282C12.301 14.7201 13.0181 14.751 13.4666 15.1991C13.9154 15.6473 13.9472 16.3642 13.5397 16.8502L17.9378 21.2506C17.9857 21.2986 18.0364 21.343 18.0875 21.3863L21.4385 18.0353C21.3953 17.9841 21.3507 17.9336 21.3027 17.8857ZM18.9791 19.481L15.06 15.5619L15.6141 15.0078L19.5332 18.927L18.9791 19.481Z" fill="#17C41E"/>
</svg>
